<svg width="140" height="46" viewBox="0 0 140 46" fill="none" xmlns="http://www.w3.org/2000/svg">
<path d="M0.730469 10.0001V3.59012H1.98047V8.82012H5.11047V10.0001H0.730469ZM7.71906 10.1301C6.45906 10.1301 5.42906 9.10012 5.42906 7.60012C5.42906 6.16012 6.39906 5.08012 7.71906 5.08012C8.36906 5.08012 8.86906 5.37012 9.18906 5.84012V5.21012H10.4091V10.0001H9.18906V9.32012C8.86906 9.81012 8.36906 10.1301 7.71906 10.1301ZM7.91906 8.99012C8.65906 8.99012 9.18906 8.37012 9.18906 7.60012C9.18906 6.83012 8.65906 6.22012 7.91906 6.22012C7.17906 6.22012 6.64906 6.83012 6.64906 7.60012C6.64906 8.37012 7.17906 8.99012 7.91906 8.99012ZM14.4545 5.08012C15.7145 5.08012 16.7545 6.11012 16.7545 7.61012C16.7545 9.05012 15.7845 10.1301 14.4545 10.1301C13.8045 10.1301 13.3045 9.84012 12.9845 9.36012V10.0001H11.7645V3.12012H12.9845V5.89012C13.3045 5.40012 13.8045 5.08012 14.4545 5.08012ZM14.2645 6.22012C13.5245 6.22012 12.9845 6.84012 12.9845 7.61012C12.9845 8.38012 13.5245 8.99012 14.2645 8.99012C14.9945 8.99012 15.5345 8.38012 15.5345 7.61012C15.5345 6.84012 14.9945 6.22012 14.2645 6.22012ZM20.0499 10.1301C18.5599 10.1301 17.4799 9.00012 17.4799 7.60012C17.4799 6.21012 18.5099 5.08012 19.8899 5.08012C21.2599 5.08012 22.3099 6.13012 22.3099 7.51012C22.3099 7.67012 22.2999 7.86012 22.2799 7.94012H18.7299C18.8599 8.60012 19.3599 9.06012 20.0899 9.06012C20.5799 9.06012 20.9899 8.85012 21.2699 8.56012L21.8999 9.40012C21.5299 9.81012 20.8499 10.1301 20.0499 10.1301ZM19.9099 6.11012C19.3299 6.11012 18.9099 6.51012 18.7599 7.09012H21.0499C20.8999 6.45012 20.4699 6.11012 19.9099 6.11012ZM25.1379 8.94012L25.2679 10.0101C25.0879 10.0701 24.8579 10.1101 24.6779 10.1101C23.9879 10.1101 23.2879 9.67012 23.2879 8.45012V3.12012H24.5079V8.48012C24.5079 8.85012 24.7179 8.99012 24.9379 8.99012C24.9979 8.99012 25.0779 8.97012 25.1379 8.94012Z" fill="black"/>
<path fill-rule="evenodd" clip-rule="evenodd" d="M30 7C30 4.24284 32.2428 2 35 2C37.7572 2 40 4.24284 40 7C40 9.75716 37.7572 12 35 12C32.2428 12 30 9.75716 30 7ZM39.2308 7C39.2308 4.6582 37.3418 2.76923 35 2.76923C32.6582 2.76923 30.7692 4.6582 30.7692 7C30.7692 9.3418 32.6582 11.2308 35 11.2308C37.3418 11.2308 39.2308 9.3418 39.2308 7ZM35.5769 9.11539C35.5769 9.43401 35.3186 9.69231 35 9.69231C34.6814 9.69231 34.4231 9.43401 34.4231 9.11539C34.4231 8.79676 34.6814 8.53846 35 8.53846C35.3186 8.53846 35.5769 8.79676 35.5769 9.11539ZM33.2692 6.01709C33.2692 5.07726 34.0484 4.30769 35 4.30769C35.9516 4.30769 36.7308 5.07726 36.7308 6.01709C36.7308 6.70987 36.2744 7.3342 35.6085 7.55289L35.4327 7.6063V8.15385H34.5673V7.6063C34.5673 7.24072 34.809 6.90685 35.1623 6.79167L35.338 6.73825C35.6524 6.63475 35.8654 6.34428 35.8654 6.01709C35.8654 5.53966 35.4834 5.16239 35 5.16239C34.5166 5.16239 34.1346 5.53966 34.1346 6.01709H33.2692Z" fill="#794CFF"/>
<path d="M132 18.5H8C3.85786 18.5 0.5 21.8579 0.5 26V38C0.5 42.1421 3.85786 45.5 8 45.5H132C136.142 45.5 139.5 42.1421 139.5 38V26C139.5 21.8579 136.142 18.5 132 18.5Z" fill="white"/>
<path d="M132 18.5H8C3.85786 18.5 0.5 21.8579 0.5 26V38C0.5 42.1421 3.85786 45.5 8 45.5H132C136.142 45.5 139.5 42.1421 139.5 38V26C139.5 21.8579 136.142 18.5 132 18.5Z" stroke="#EBEBEB"/>
<path d="M12.7305 35V28.6H14.8705C16.9805 28.6 18.4905 29.93 18.4905 31.8C18.4905 33.67 17.0005 35 14.9105 35H12.7305ZM14.8605 29.77H14.0205V33.82H14.8705C16.2405 33.82 17.1505 33.02 17.1505 31.8C17.1505 30.57 16.2405 29.77 14.8605 29.77ZM21.835 35.13C20.345 35.13 19.265 34 19.265 32.6C19.265 31.21 20.295 30.08 21.675 30.08C23.045 30.08 24.095 31.13 24.095 32.51C24.095 32.67 24.085 32.86 24.065 32.94H20.515C20.645 33.6 21.145 34.06 21.875 34.06C22.365 34.06 22.775 33.85 23.055 33.56L23.685 34.4C23.315 34.81 22.635 35.13 21.835 35.13ZM21.695 31.11C21.115 31.11 20.695 31.51 20.545 32.09H22.835C22.685 31.45 22.255 31.11 21.695 31.11ZM24.6431 31.29V30.21H25.4231V29.93C25.4231 28.72 26.1131 27.99 27.1831 27.99C27.8331 27.99 28.2531 28.17 28.5631 28.48L27.9631 29.4C27.8231 29.25 27.5631 29.13 27.3031 29.13C26.9031 29.13 26.6531 29.4 26.6531 29.92V30.21H27.8931V31.29H26.6531V35H25.4231V31.29H24.6431ZM30.5101 35.13C29.2501 35.13 28.2201 34.1 28.2201 32.6C28.2201 31.16 29.1901 30.08 30.5101 30.08C31.1601 30.08 31.6601 30.37 31.9801 30.84V30.21H33.2001V35H31.9801V34.32C31.6601 34.81 31.1601 35.13 30.5101 35.13ZM30.7101 33.99C31.4501 33.99 31.9801 33.37 31.9801 32.6C31.9801 31.83 31.4501 31.22 30.7101 31.22C29.9701 31.22 29.4401 31.83 29.4401 32.6C29.4401 33.37 29.9701 33.99 30.7101 33.99ZM35.7155 30.21V32.8C35.7155 33.5 36.1155 33.97 36.7255 33.97C37.3355 33.97 37.7455 33.5 37.7455 32.8V30.21H38.9755V32.89C38.9755 34.23 38.0755 35.12 36.7255 35.12C35.3755 35.12 34.4955 34.23 34.4955 32.89V30.21H35.7155ZM42.1184 33.94L42.2484 35.01C42.0684 35.07 41.8384 35.11 41.6584 35.11C40.9684 35.11 40.2684 34.67 40.2684 33.45V28.12H41.4884V33.48C41.4884 33.85 41.6984 33.99 41.9184 33.99C41.9784 33.99 42.0584 33.97 42.1184 33.94ZM42.7764 31.29V30.21H43.6164V28.97H44.8464V30.21H46.1364V31.29H44.8564V33.33C44.8564 33.78 45.0364 33.99 45.3964 33.99C45.6264 33.99 45.8464 33.89 45.9664 33.75L46.5064 34.66C46.2464 34.92 45.7964 35.13 45.2064 35.13C44.2364 35.13 43.6164 34.53 43.6164 33.36V31.29H42.7764ZM52.4978 28.46C54.3278 28.46 55.8178 29.96 55.8178 31.81C55.8178 33.64 54.3278 35.13 52.4978 35.13C50.6678 35.13 49.1778 33.63 49.1778 31.8C49.1778 29.95 50.6678 28.46 52.4978 28.46ZM52.4978 33.89C53.5978 33.89 54.4878 32.95 54.4878 31.81C54.4878 30.65 53.5978 29.7 52.4978 29.7C51.3978 29.7 50.5178 30.64 50.5178 31.8C50.5178 32.95 51.3978 33.89 52.4978 33.89ZM58.1193 36.96H56.8993V30.21H58.1193V30.89C58.4393 30.4 58.9393 30.08 59.5893 30.08C60.8493 30.08 61.8893 31.11 61.8893 32.61C61.8893 34.05 60.9193 35.13 59.5893 35.13C58.9393 35.13 58.4393 34.84 58.1193 34.36V36.96ZM59.3993 33.99C60.1293 33.99 60.6693 33.38 60.6693 32.61C60.6693 31.84 60.1293 31.22 59.3993 31.22C58.6593 31.22 58.1193 31.84 58.1193 32.61C58.1193 33.38 58.6593 33.99 59.3993 33.99ZM62.4346 31.29V30.21H63.2746V28.97H64.5046V30.21H65.7946V31.29H64.5146V33.33C64.5146 33.78 64.6946 33.99 65.0546 33.99C65.2846 33.99 65.5046 33.89 65.6246 33.75L66.1646 34.66C65.9046 34.92 65.4546 35.13 64.8646 35.13C63.8946 35.13 63.2746 34.53 63.2746 33.36V31.29H62.4346ZM67.5874 29.57C67.1874 29.57 66.8774 29.25 66.8774 28.85C66.8774 28.46 67.1874 28.14 67.5874 28.14C67.9774 28.14 68.3074 28.46 68.3074 28.85C68.3074 29.25 67.9774 29.57 67.5874 29.57ZM68.1974 35H66.9774V30.21H68.1974V35ZM71.7453 35.13C70.3553 35.13 69.2553 34 69.2553 32.6C69.2553 31.21 70.3553 30.08 71.7453 30.08C73.1353 30.08 74.2353 31.21 74.2353 32.6C74.2353 34 73.1353 35.13 71.7453 35.13ZM71.7453 33.99C72.4853 33.99 73.0153 33.37 73.0153 32.6C73.0153 31.83 72.4853 31.22 71.7453 31.22C71.0053 31.22 70.4753 31.83 70.4753 32.6C70.4753 33.37 71.0053 33.99 71.7453 33.99ZM75.2879 35V30.21H76.5079V30.89C76.7579 30.38 77.2379 30.08 77.8679 30.08C78.9679 30.08 79.6779 30.85 79.6779 32.1V35H78.4579V32.28C78.4579 31.63 78.0879 31.22 77.4879 31.22C76.8879 31.22 76.5079 31.63 76.5079 32.28V35H75.2879Z" fill="black"/>
<path d="M124 35L119 29.9524L120 29L124 33.2857L128 29L129 29.9524L124 35Z" fill="black"/>
</svg>
