<svg width="230" height="45" viewBox="0 0 230 45" fill="none" xmlns="http://www.w3.org/2000/svg">
<g clip-path="url(#clip0_6343_39685)">
<path d="M222 1H8C3.85786 1 0.5 4.35786 0.5 8.5V36.5C0.5 40.6421 3.85786 44 8 44H222C226.142 44 229.5 40.6421 229.5 36.5V8.5C229.5 4.35786 226.142 1 222 1Z" fill="white"/>
<path d="M222 1H8C3.85786 1 0.5 4.35786 0.5 8.5V36.5C0.5 40.6421 3.85786 44 8 44H222C226.142 44 229.5 40.6421 229.5 36.5V8.5C229.5 4.35786 226.142 1 222 1Z" stroke="#EBEBEB"/>
<path d="M13.0234 26.4999V17.5259H16.2294C18.3994 17.5259 19.8274 18.7019 19.8274 20.4939C19.8274 22.2999 18.3854 23.4899 16.2014 23.4899H14.7734V26.4999H13.0234ZM16.3694 19.0799H14.7734V21.9359H16.3694C17.3354 21.9359 17.9794 21.3619 17.9794 20.4939C17.9794 19.6399 17.3354 19.0799 16.3694 19.0799ZM23.7875 25.0159L23.9695 26.5139C23.7175 26.5979 23.3955 26.6539 23.1435 26.6539C22.1775 26.6539 21.1975 26.0379 21.1975 24.3299V16.8679H22.9055V24.3719C22.9055 24.8899 23.1995 25.0859 23.5075 25.0859C23.5915 25.0859 23.7035 25.0579 23.7875 25.0159ZM28.1668 26.6819C26.4028 26.6819 24.9608 25.2399 24.9608 23.1399C24.9608 21.1239 26.3188 19.6119 28.1668 19.6119C29.0768 19.6119 29.7768 20.0179 30.2248 20.6759V19.7939H31.9328V26.4999H30.2248V25.5479C29.7768 26.2339 29.0768 26.6819 28.1668 26.6819ZM28.4468 25.0859C29.4828 25.0859 30.2248 24.2179 30.2248 23.1399C30.2248 22.0619 29.4828 21.2079 28.4468 21.2079C27.4108 21.2079 26.6688 22.0619 26.6688 23.1399C26.6688 24.2179 27.4108 25.0859 28.4468 25.0859ZM38.5624 21.8239C38.1284 21.4179 37.6384 21.2079 36.9664 21.2079C35.8464 21.2079 35.1044 22.0619 35.1044 23.1399C35.1044 24.2179 35.8604 25.0859 36.9664 25.0859C37.6384 25.0859 38.1844 24.8479 38.6184 24.4279L39.4864 25.6879C38.9544 26.2759 37.9744 26.6819 36.9244 26.6819C34.9224 26.6819 33.3964 25.0999 33.3964 23.1399C33.3964 21.1939 34.9364 19.6119 36.8964 19.6119C38.0304 19.6119 38.9404 19.9899 39.5424 20.6059L38.5624 21.8239ZM43.5979 26.6819C41.5119 26.6819 39.9999 25.0999 39.9999 23.1399C39.9999 21.1939 41.4419 19.6119 43.3739 19.6119C45.2919 19.6119 46.7619 21.0819 46.7619 23.0139C46.7619 23.2379 46.7479 23.5039 46.7199 23.6159H41.7499C41.9319 24.5399 42.6319 25.1839 43.6539 25.1839C44.3399 25.1839 44.9139 24.8899 45.3059 24.4839L46.1879 25.6599C45.6699 26.2339 44.7179 26.6819 43.5979 26.6819ZM43.4019 21.0539C42.5899 21.0539 42.0019 21.6139 41.7919 22.4259H44.9979C44.7879 21.5299 44.1859 21.0539 43.4019 21.0539ZM48.1311 26.4999V16.8679H49.8391V20.7459C50.1891 20.0319 50.8611 19.6119 51.7431 19.6119C53.2831 19.6119 54.2771 20.6899 54.2771 22.4399V26.4999H52.5691V22.6919C52.5691 21.7819 52.0511 21.2079 51.2111 21.2079C50.3711 21.2079 49.8391 21.7819 49.8391 22.6919V26.4999H48.1311ZM59.1812 26.6819C57.2352 26.6819 55.6952 25.0999 55.6952 23.1399C55.6952 21.1939 57.2352 19.6119 59.1812 19.6119C61.1272 19.6119 62.6672 21.1939 62.6672 23.1399C62.6672 25.0999 61.1272 26.6819 59.1812 26.6819ZM59.1812 25.0859C60.2172 25.0859 60.9592 24.2179 60.9592 23.1399C60.9592 22.0619 60.2172 21.2079 59.1812 21.2079C58.1452 21.2079 57.4032 22.0619 57.4032 23.1399C57.4032 24.2179 58.1452 25.0859 59.1812 25.0859ZM66.7309 25.0159L66.9129 26.5139C66.6609 26.5979 66.3389 26.6539 66.0869 26.6539C65.1209 26.6539 64.1409 26.0379 64.1409 24.3299V16.8679H65.8489V24.3719C65.8489 24.8899 66.1429 25.0859 66.4509 25.0859C66.5349 25.0859 66.6469 25.0579 66.7309 25.0159ZM71.1102 26.6819C69.3462 26.6819 67.9042 25.2399 67.9042 23.1399C67.9042 21.1239 69.2622 19.6119 71.1102 19.6119C72.0202 19.6119 72.7202 20.0179 73.1682 20.6759V16.8679H74.8762V26.4999H73.1682V25.5479C72.7202 26.2339 72.0202 26.6819 71.1102 26.6819ZM71.3902 25.0859C72.4262 25.0859 73.1682 24.2179 73.1682 23.1399C73.1682 22.0619 72.4262 21.2079 71.3902 21.2079C70.3542 21.2079 69.6122 22.0619 69.6122 23.1399C69.6122 24.2179 70.3542 25.0859 71.3902 25.0859ZM79.9377 26.6819C77.8517 26.6819 76.3397 25.0999 76.3397 23.1399C76.3397 21.1939 77.7817 19.6119 79.7137 19.6119C81.6317 19.6119 83.1017 21.0819 83.1017 23.0139C83.1017 23.2379 83.0877 23.5039 83.0597 23.6159H78.0897C78.2717 24.5399 78.9717 25.1839 79.9937 25.1839C80.6797 25.1839 81.2537 24.8899 81.6457 24.4839L82.5277 25.6599C82.0097 26.2339 81.0577 26.6819 79.9377 26.6819ZM79.7417 21.0539C78.9297 21.0539 78.3417 21.6139 78.1317 22.4259H81.3377C81.1277 21.5299 80.5257 21.0539 79.7417 21.0539ZM84.471 26.4999V19.7939H86.179V20.7879C86.501 20.0739 87.075 19.6119 87.831 19.6119C88.279 19.6119 88.643 19.7239 88.895 19.9339L88.195 21.5439C87.971 21.3759 87.635 21.2639 87.299 21.2639C86.627 21.2639 86.179 21.8379 86.179 22.7479V26.4999H84.471ZM92.3709 21.3059V19.7939H93.5469V18.0579H95.2689V19.7939H97.0749V21.3059H95.2829V24.1619C95.2829 24.7919 95.5349 25.0859 96.0389 25.0859C96.3609 25.0859 96.6689 24.9459 96.8369 24.7499L97.5929 26.0239C97.2289 26.3879 96.5989 26.6819 95.7729 26.6819C94.4149 26.6819 93.5469 25.8419 93.5469 24.2039V21.3059H92.3709ZM101.566 26.6819C99.4806 26.6819 97.9686 25.0999 97.9686 23.1399C97.9686 21.1939 99.4106 19.6119 101.342 19.6119C103.26 19.6119 104.73 21.0819 104.73 23.0139C104.73 23.2379 104.716 23.5039 104.688 23.6159H99.7186C99.9006 24.5399 100.6 25.1839 101.622 25.1839C102.308 25.1839 102.882 24.8899 103.274 24.4839L104.156 25.6599C103.638 26.2339 102.686 26.6819 101.566 26.6819ZM101.37 21.0539C100.558 21.0539 99.9706 21.6139 99.7606 22.4259H102.966C102.756 21.5299 102.154 21.0539 101.37 21.0539ZM104.851 26.4999L107.385 23.1259L104.935 19.7939H107.063L108.519 21.7679L110.003 19.7939H111.921L109.471 23.0559L112.005 26.4999H109.877L108.337 24.4139L106.755 26.4999H104.851ZM112.455 21.3059V19.7939H113.631V18.0579H115.353V19.7939H117.159V21.3059H115.367V24.1619C115.367 24.7919 115.619 25.0859 116.123 25.0859C116.445 25.0859 116.753 24.9459 116.921 24.7499L117.677 26.0239C117.313 26.3879 116.683 26.6819 115.857 26.6819C114.499 26.6819 113.631 25.8419 113.631 24.2039V21.3059H112.455Z" fill="black"/>
<path d="M212 25.5L207 20.4524L208 19.5L212 23.7857L216 19.5L217 20.4524L212 25.5Z" fill="black"/>
</g>
<defs>
<clipPath id="clip0_6343_39685">
<rect width="230" height="44" fill="white" transform="translate(0 0.5)"/>
</clipPath>
</defs>
</svg>
