<svg width="232" height="207" viewBox="0 0 232 207" fill="none" xmlns="http://www.w3.org/2000/svg">
<path d="M2.02344 14.9999V6.03992H5.01944C7.97344 6.03992 10.0874 7.90192 10.0874 10.5199C10.0874 13.1379 8.00144 14.9999 5.07544 14.9999H2.02344ZM5.00544 7.67792H3.82944V13.3479H5.01944C6.93744 13.3479 8.21144 12.2279 8.21144 10.5199C8.21144 8.79792 6.93744 7.67792 5.00544 7.67792ZM11.6057 14.9999V8.29392H13.3137V9.28792C13.6357 8.57392 14.2097 8.11192 14.9657 8.11192C15.4137 8.11192 15.7777 8.22392 16.0297 8.43392L15.3297 10.0439C15.1057 9.87592 14.7697 9.76392 14.4337 9.76392C13.7617 9.76392 13.3137 10.3379 13.3137 11.2479V14.9999H11.6057ZM19.689 15.1819C17.743 15.1819 16.203 13.5999 16.203 11.6399C16.203 9.69392 17.743 8.11192 19.689 8.11192C21.635 8.11192 23.175 9.69392 23.175 11.6399C23.175 13.5999 21.635 15.1819 19.689 15.1819ZM19.689 13.5859C20.725 13.5859 21.467 12.7179 21.467 11.6399C21.467 10.5619 20.725 9.70792 19.689 9.70792C18.653 9.70792 17.911 10.5619 17.911 11.6399C17.911 12.7179 18.653 13.5859 19.689 13.5859ZM26.3567 17.7439H24.6487V8.29392H26.3567V9.24592C26.8047 8.55992 27.5047 8.11192 28.4147 8.11192C30.1787 8.11192 31.6347 9.55392 31.6347 11.6539C31.6347 13.6699 30.2767 15.1819 28.4147 15.1819C27.5047 15.1819 26.8047 14.7759 26.3567 14.1039V17.7439ZM28.1487 13.5859C29.1707 13.5859 29.9267 12.7319 29.9267 11.6539C29.9267 10.5759 29.1707 9.70792 28.1487 9.70792C27.1127 9.70792 26.3567 10.5759 26.3567 11.6539C26.3567 12.7319 27.1127 13.5859 28.1487 13.5859ZM35.8563 15.1819C34.0923 15.1819 32.6503 13.7399 32.6503 11.6399C32.6503 9.62392 34.0083 8.11192 35.8563 8.11192C36.7663 8.11192 37.4663 8.51792 37.9143 9.17592V5.36792H39.6223V14.9999H37.9143V14.0479C37.4663 14.7339 36.7663 15.1819 35.8563 15.1819ZM36.1363 13.5859C37.1723 13.5859 37.9143 12.7179 37.9143 11.6399C37.9143 10.5619 37.1723 9.70792 36.1363 9.70792C35.1003 9.70792 34.3583 10.5619 34.3583 11.6399C34.3583 12.7179 35.1003 13.5859 36.1363 13.5859ZM44.5718 15.1819C42.6258 15.1819 41.0858 13.5999 41.0858 11.6399C41.0858 9.69392 42.6258 8.11192 44.5718 8.11192C46.5178 8.11192 48.0578 9.69392 48.0578 11.6399C48.0578 13.5999 46.5178 15.1819 44.5718 15.1819ZM44.5718 13.5859C45.6078 13.5859 46.3498 12.7179 46.3498 11.6399C46.3498 10.5619 45.6078 9.70792 44.5718 9.70792C43.5358 9.70792 42.7938 10.5619 42.7938 11.6399C42.7938 12.7179 43.5358 13.5859 44.5718 13.5859ZM52.5351 14.9999H50.6031L48.5311 8.29392H50.3651L51.6111 13.1239L52.9691 8.29392H54.8171L56.2031 13.1519L57.4771 8.29392H59.3111L57.2391 14.9999H55.1111L53.8091 10.4499L52.5351 14.9999ZM60.5237 14.9999V8.29392H62.2317V9.24592C62.5817 8.53192 63.2537 8.11192 64.1357 8.11192C65.6757 8.11192 66.6697 9.18992 66.6697 10.9399V14.9999H64.9617V11.1919C64.9617 10.2819 64.4437 9.70792 63.6037 9.70792C62.7637 9.70792 62.2317 10.2819 62.2317 11.1919V14.9999H60.5237ZM71.5859 14.9999V6.02592H73.3359V13.3479H77.7179V14.9999H71.5859ZM81.3699 15.1819C79.6059 15.1819 78.1639 13.7399 78.1639 11.6399C78.1639 9.62392 79.5219 8.11192 81.3699 8.11192C82.2799 8.11192 82.9799 8.51792 83.4279 9.17592V8.29392H85.1359V14.9999H83.4279V14.0479C82.9799 14.7339 82.2799 15.1819 81.3699 15.1819ZM81.6499 13.5859C82.6859 13.5859 83.4279 12.7179 83.4279 11.6399C83.4279 10.5619 82.6859 9.70792 81.6499 9.70792C80.6139 9.70792 79.8719 10.5619 79.8719 11.6399C79.8719 12.7179 80.6139 13.5859 81.6499 13.5859ZM90.7995 8.11192C92.5635 8.11192 94.0195 9.55392 94.0195 11.6539C94.0195 13.6699 92.6615 15.1819 90.7995 15.1819C89.8895 15.1819 89.1895 14.7759 88.7415 14.1039V14.9999H87.0335V5.36792H88.7415V9.24592C89.1895 8.55992 89.8895 8.11192 90.7995 8.11192ZM90.5335 9.70792C89.4975 9.70792 88.7415 10.5759 88.7415 11.6539C88.7415 12.7319 89.4975 13.5859 90.5335 13.5859C91.5555 13.5859 92.3115 12.7319 92.3115 11.6539C92.3115 10.5759 91.5555 9.70792 90.5335 9.70792ZM98.633 15.1819C96.547 15.1819 95.035 13.5999 95.035 11.6399C95.035 9.69392 96.477 8.11192 98.409 8.11192C100.327 8.11192 101.797 9.58192 101.797 11.5139C101.797 11.7379 101.783 12.0039 101.755 12.1159H96.785C96.967 13.0399 97.667 13.6839 98.689 13.6839C99.375 13.6839 99.949 13.3899 100.341 12.9839L101.223 14.1599C100.705 14.7339 99.753 15.1819 98.633 15.1819ZM98.437 9.55392C97.625 9.55392 97.037 10.1139 96.827 10.9259H100.033C99.823 10.0299 99.221 9.55392 98.437 9.55392ZM105.756 13.5159L105.938 15.0139C105.686 15.0979 105.364 15.1539 105.112 15.1539C104.146 15.1539 103.166 14.5379 103.166 12.8299V5.36792H104.874V12.8719C104.874 13.3899 105.168 13.5859 105.476 13.5859C105.56 13.5859 105.672 13.5579 105.756 13.5159Z" fill="black"/>
<path fill-rule="evenodd" clip-rule="evenodd" d="M111 11C111 6.58854 114.589 3 119 3C123.411 3 127 6.58854 127 11C127 15.4115 123.411 19 119 19C114.589 19 111 15.4115 111 11ZM125.769 11C125.769 7.25312 122.747 4.23077 119 4.23077C115.253 4.23077 112.231 7.25312 112.231 11C112.231 14.7469 115.253 17.7692 119 17.7692C122.747 17.7692 125.769 14.7469 125.769 11ZM119.923 14.3846C119.923 14.8944 119.51 15.3077 119 15.3077C118.49 15.3077 118.077 14.8944 118.077 14.3846C118.077 13.8748 118.49 13.4615 119 13.4615C119.51 13.4615 119.923 13.8748 119.923 14.3846ZM116.231 9.42735C116.231 7.92361 117.477 6.69231 119 6.69231C120.523 6.69231 121.769 7.92361 121.769 9.42735C121.769 10.5358 121.039 11.5347 119.974 11.8846L119.692 11.9701V12.8462H118.308V11.9701C118.308 11.3851 118.694 10.851 119.26 10.6667L119.541 10.5812C120.044 10.4156 120.385 9.95086 120.385 9.42735C120.385 8.66346 119.773 8.05983 119 8.05983C118.227 8.05983 117.615 8.66346 117.615 9.42735H116.231Z" fill="#794CFF"/>
<path d="M223 27H9C5.13401 27 2 30.134 2 34V62C2 65.866 5.13401 69 9 69H223C226.866 69 230 65.866 230 62V34C230 30.134 226.866 27 223 27Z" fill="white"/>
<path d="M223 27H9C5.13401 27 2 30.134 2 34V62C2 65.866 5.13401 69 9 69H223C226.866 69 230 65.866 230 62V34C230 30.134 226.866 27 223 27Z" stroke="#D6D6D6" stroke-width="2"/>
<path d="M14.0234 51.9999V43.0259H17.2294C19.3994 43.0259 20.8274 44.2019 20.8274 45.9939C20.8274 47.7999 19.3854 48.9899 17.2014 48.9899H15.7734V51.9999H14.0234ZM17.3694 44.5799H15.7734V47.4359H17.3694C18.3354 47.4359 18.9794 46.8619 18.9794 45.9939C18.9794 45.1399 18.3354 44.5799 17.3694 44.5799ZM24.7875 50.5159L24.9695 52.0139C24.7175 52.0979 24.3955 52.1539 24.1435 52.1539C23.1775 52.1539 22.1975 51.5379 22.1975 49.8299V42.3679H23.9055V49.8719C23.9055 50.3899 24.1995 50.5859 24.5075 50.5859C24.5915 50.5859 24.7035 50.5579 24.7875 50.5159ZM29.1668 52.1819C27.4028 52.1819 25.9608 50.7399 25.9608 48.6399C25.9608 46.6239 27.3188 45.1119 29.1668 45.1119C30.0768 45.1119 30.7768 45.5179 31.2248 46.1759V45.2939H32.9328V51.9999H31.2248V51.0479C30.7768 51.7339 30.0768 52.1819 29.1668 52.1819ZM29.4468 50.5859C30.4828 50.5859 31.2248 49.7179 31.2248 48.6399C31.2248 47.5619 30.4828 46.7079 29.4468 46.7079C28.4108 46.7079 27.6688 47.5619 27.6688 48.6399C27.6688 49.7179 28.4108 50.5859 29.4468 50.5859ZM39.5624 47.3239C39.1284 46.9179 38.6384 46.7079 37.9664 46.7079C36.8464 46.7079 36.1044 47.5619 36.1044 48.6399C36.1044 49.7179 36.8604 50.5859 37.9664 50.5859C38.6384 50.5859 39.1844 50.3479 39.6184 49.9279L40.4864 51.1879C39.9544 51.7759 38.9744 52.1819 37.9244 52.1819C35.9224 52.1819 34.3964 50.5999 34.3964 48.6399C34.3964 46.6939 35.9364 45.1119 37.8964 45.1119C39.0304 45.1119 39.9404 45.4899 40.5424 46.1059L39.5624 47.3239ZM44.5979 52.1819C42.5119 52.1819 40.9999 50.5999 40.9999 48.6399C40.9999 46.6939 42.4419 45.1119 44.3739 45.1119C46.2919 45.1119 47.7619 46.5819 47.7619 48.5139C47.7619 48.7379 47.7479 49.0039 47.7199 49.1159H42.7499C42.9319 50.0399 43.6319 50.6839 44.6539 50.6839C45.3399 50.6839 45.9139 50.3899 46.3059 49.9839L47.1879 51.1599C46.6699 51.7339 45.7179 52.1819 44.5979 52.1819ZM44.4019 46.5539C43.5899 46.5539 43.0019 47.1139 42.7919 47.9259H45.9979C45.7879 47.0299 45.1859 46.5539 44.4019 46.5539ZM49.1311 51.9999V42.3679H50.8391V46.2459C51.1891 45.5319 51.8611 45.1119 52.7431 45.1119C54.2831 45.1119 55.2771 46.1899 55.2771 47.9399V51.9999H53.5691V48.1919C53.5691 47.2819 53.0511 46.7079 52.2111 46.7079C51.3711 46.7079 50.8391 47.2819 50.8391 48.1919V51.9999H49.1311ZM60.1812 52.1819C58.2352 52.1819 56.6952 50.5999 56.6952 48.6399C56.6952 46.6939 58.2352 45.1119 60.1812 45.1119C62.1272 45.1119 63.6672 46.6939 63.6672 48.6399C63.6672 50.5999 62.1272 52.1819 60.1812 52.1819ZM60.1812 50.5859C61.2172 50.5859 61.9592 49.7179 61.9592 48.6399C61.9592 47.5619 61.2172 46.7079 60.1812 46.7079C59.1452 46.7079 58.4032 47.5619 58.4032 48.6399C58.4032 49.7179 59.1452 50.5859 60.1812 50.5859ZM67.7309 50.5159L67.9129 52.0139C67.6609 52.0979 67.3389 52.1539 67.0869 52.1539C66.1209 52.1539 65.1409 51.5379 65.1409 49.8299V42.3679H66.8489V49.8719C66.8489 50.3899 67.1429 50.5859 67.4509 50.5859C67.5349 50.5859 67.6469 50.5579 67.7309 50.5159ZM72.1102 52.1819C70.3462 52.1819 68.9042 50.7399 68.9042 48.6399C68.9042 46.6239 70.2622 45.1119 72.1102 45.1119C73.0202 45.1119 73.7202 45.5179 74.1682 46.1759V42.3679H75.8762V51.9999H74.1682V51.0479C73.7202 51.7339 73.0202 52.1819 72.1102 52.1819ZM72.3902 50.5859C73.4262 50.5859 74.1682 49.7179 74.1682 48.6399C74.1682 47.5619 73.4262 46.7079 72.3902 46.7079C71.3542 46.7079 70.6122 47.5619 70.6122 48.6399C70.6122 49.7179 71.3542 50.5859 72.3902 50.5859ZM80.9377 52.1819C78.8517 52.1819 77.3397 50.5999 77.3397 48.6399C77.3397 46.6939 78.7817 45.1119 80.7137 45.1119C82.6317 45.1119 84.1017 46.5819 84.1017 48.5139C84.1017 48.7379 84.0877 49.0039 84.0597 49.1159H79.0897C79.2717 50.0399 79.9717 50.6839 80.9937 50.6839C81.6797 50.6839 82.2537 50.3899 82.6457 49.9839L83.5277 51.1599C83.0097 51.7339 82.0577 52.1819 80.9377 52.1819ZM80.7417 46.5539C79.9297 46.5539 79.3417 47.1139 79.1317 47.9259H82.3377C82.1277 47.0299 81.5257 46.5539 80.7417 46.5539ZM85.471 51.9999V45.2939H87.179V46.2879C87.501 45.5739 88.075 45.1119 88.831 45.1119C89.279 45.1119 89.643 45.2239 89.895 45.4339L89.195 47.0439C88.971 46.8759 88.635 46.7639 88.299 46.7639C87.627 46.7639 87.179 47.3379 87.179 48.2479V51.9999H85.471ZM93.3709 46.8059V45.2939H94.5469V43.5579H96.2689V45.2939H98.0749V46.8059H96.2829V49.6619C96.2829 50.2919 96.5349 50.5859 97.0389 50.5859C97.3609 50.5859 97.6689 50.4459 97.8369 50.2499L98.5929 51.5239C98.2289 51.8879 97.5989 52.1819 96.7729 52.1819C95.4149 52.1819 94.5469 51.3419 94.5469 49.7039V46.8059H93.3709ZM102.566 52.1819C100.48 52.1819 98.9686 50.5999 98.9686 48.6399C98.9686 46.6939 100.41 45.1119 102.342 45.1119C104.26 45.1119 105.73 46.5819 105.73 48.5139C105.73 48.7379 105.716 49.0039 105.688 49.1159H100.718C100.9 50.0399 101.6 50.6839 102.622 50.6839C103.308 50.6839 103.882 50.3899 104.274 49.9839L105.156 51.1599C104.638 51.7339 103.686 52.1819 102.566 52.1819ZM102.37 46.5539C101.558 46.5539 100.97 47.1139 100.76 47.9259H103.966C103.756 47.0299 103.154 46.5539 102.37 46.5539ZM105.851 51.9999L108.385 48.6259L105.935 45.2939H108.063L109.519 47.2679L111.003 45.2939H112.921L110.471 48.5559L113.005 51.9999H110.877L109.337 49.9139L107.755 51.9999H105.851ZM113.455 46.8059V45.2939H114.631V43.5579H116.353V45.2939H118.159V46.8059H116.367V49.6619C116.367 50.2919 116.619 50.5859 117.123 50.5859C117.445 50.5859 117.753 50.4459 117.921 50.2499L118.677 51.5239C118.313 51.8879 117.683 52.1819 116.857 52.1819C115.499 52.1819 114.631 51.3419 114.631 49.7039V46.8059H113.455Z" fill="black"/>
<path d="M213 51L208 45.9524L209 45L213 49.2857L217 45L218 45.9524L213 51Z" fill="black"/>
<mask id="mask0_6343_39912" style="mask-type:luminance" maskUnits="userSpaceOnUse" x="1" y="74" width="230" height="132">
<path d="M223 74H9C4.58172 74 1 77.5817 1 82V198C1 202.418 4.58172 206 9 206H223C227.418 206 231 202.418 231 198V82C231 77.5817 227.418 74 223 74Z" fill="white"/>
</mask>
<g mask="url(#mask0_6343_39912)">
<path d="M223 74H9C4.58172 74 1 77.5817 1 82V198C1 202.418 4.58172 206 9 206H223C227.418 206 231 202.418 231 198V82C231 77.5817 227.418 74 223 74Z" fill="white"/>
<path d="M231 74H1V118H231V74Z" fill="white"/>
<path d="M14.0234 99.9999V91.0399H17.0194C19.9734 91.0399 22.0874 92.9019 22.0874 95.5199C22.0874 98.1379 20.0014 99.9999 17.0754 99.9999H14.0234ZM17.0054 92.6779H15.8294V98.3479H17.0194C18.9374 98.3479 20.2114 97.2279 20.2114 95.5199C20.2114 93.7979 18.9374 92.6779 17.0054 92.6779ZM23.6057 99.9999V93.2939H25.3137V94.2879C25.6357 93.5739 26.2097 93.1119 26.9657 93.1119C27.4137 93.1119 27.7777 93.2239 28.0297 93.4339L27.3297 95.0439C27.1057 94.8759 26.7697 94.7639 26.4337 94.7639C25.7617 94.7639 25.3137 95.3379 25.3137 96.2479V99.9999H23.6057ZM31.689 100.182C29.743 100.182 28.203 98.5999 28.203 96.6399C28.203 94.6939 29.743 93.1119 31.689 93.1119C33.635 93.1119 35.175 94.6939 35.175 96.6399C35.175 98.5999 33.635 100.182 31.689 100.182ZM31.689 98.5859C32.725 98.5859 33.467 97.7179 33.467 96.6399C33.467 95.5619 32.725 94.7079 31.689 94.7079C30.653 94.7079 29.911 95.5619 29.911 96.6399C29.911 97.7179 30.653 98.5859 31.689 98.5859ZM38.3567 102.744H36.6487V93.2939H38.3567V94.2459C38.8047 93.5599 39.5047 93.1119 40.4147 93.1119C42.1787 93.1119 43.6347 94.5539 43.6347 96.6539C43.6347 98.6699 42.2767 100.182 40.4147 100.182C39.5047 100.182 38.8047 99.7759 38.3567 99.1039V102.744ZM40.1487 98.5859C41.1707 98.5859 41.9267 97.7319 41.9267 96.6539C41.9267 95.5759 41.1707 94.7079 40.1487 94.7079C39.1127 94.7079 38.3567 95.5759 38.3567 96.6539C38.3567 97.7319 39.1127 98.5859 40.1487 98.5859ZM47.8563 100.182C46.0923 100.182 44.6503 98.7399 44.6503 96.6399C44.6503 94.6239 46.0083 93.1119 47.8563 93.1119C48.7663 93.1119 49.4663 93.5179 49.9143 94.1759V90.3679H51.6223V99.9999H49.9143V99.0479C49.4663 99.7339 48.7663 100.182 47.8563 100.182ZM48.1363 98.5859C49.1723 98.5859 49.9143 97.7179 49.9143 96.6399C49.9143 95.5619 49.1723 94.7079 48.1363 94.7079C47.1003 94.7079 46.3583 95.5619 46.3583 96.6399C46.3583 97.7179 47.1003 98.5859 48.1363 98.5859ZM56.5718 100.182C54.6258 100.182 53.0858 98.5999 53.0858 96.6399C53.0858 94.6939 54.6258 93.1119 56.5718 93.1119C58.5178 93.1119 60.0578 94.6939 60.0578 96.6399C60.0578 98.5999 58.5178 100.182 56.5718 100.182ZM56.5718 98.5859C57.6078 98.5859 58.3498 97.7179 58.3498 96.6399C58.3498 95.5619 57.6078 94.7079 56.5718 94.7079C55.5358 94.7079 54.7938 95.5619 54.7938 96.6399C54.7938 97.7179 55.5358 98.5859 56.5718 98.5859ZM64.5351 99.9999H62.6031L60.5311 93.2939H62.3651L63.6111 98.1239L64.9691 93.2939H66.8171L68.2031 98.1519L69.4771 93.2939H71.3111L69.2391 99.9999H67.1111L65.8091 95.4499L64.5351 99.9999ZM72.5237 99.9999V93.2939H74.2317V94.2459C74.5817 93.5319 75.2537 93.1119 76.1357 93.1119C77.6757 93.1119 78.6697 94.1899 78.6697 95.9399V99.9999H76.9617V96.1919C76.9617 95.2819 76.4437 94.7079 75.6037 94.7079C74.7637 94.7079 74.2317 95.2819 74.2317 96.1919V99.9999H72.5237ZM86.5679 100.182C84.6219 100.182 83.0819 98.5999 83.0819 96.6399C83.0819 94.6939 84.6219 93.1119 86.5679 93.1119C88.5139 93.1119 90.0539 94.6939 90.0539 96.6399C90.0539 98.5999 88.5139 100.182 86.5679 100.182ZM86.5679 98.5859C87.6039 98.5859 88.3459 97.7179 88.3459 96.6399C88.3459 95.5619 87.6039 94.7079 86.5679 94.7079C85.5319 94.7079 84.7899 95.5619 84.7899 96.6399C84.7899 97.7179 85.5319 98.5859 86.5679 98.5859ZM93.2356 102.744H91.5276V93.2939H93.2356V94.2459C93.6836 93.5599 94.3836 93.1119 95.2936 93.1119C97.0576 93.1119 98.5136 94.5539 98.5136 96.6539C98.5136 98.6699 97.1556 100.182 95.2936 100.182C94.3836 100.182 93.6836 99.7759 93.2356 99.1039V102.744ZM95.0276 98.5859C96.0496 98.5859 96.8056 97.7319 96.8056 96.6539C96.8056 95.5759 96.0496 94.7079 95.0276 94.7079C93.9916 94.7079 93.2356 95.5759 93.2356 96.6539C93.2356 97.7319 93.9916 98.5859 95.0276 98.5859ZM99.2772 94.8059V93.2939H100.453V91.5579H102.175V93.2939H103.981V94.8059H102.189V97.6619C102.189 98.2919 102.441 98.5859 102.945 98.5859C103.267 98.5859 103.575 98.4459 103.743 98.2499L104.499 99.5239C104.135 99.8879 103.505 100.182 102.679 100.182C101.321 100.182 100.453 99.3419 100.453 97.7039V94.8059H99.2772ZM106.491 92.3979C105.931 92.3979 105.497 91.9499 105.497 91.3899C105.497 90.8439 105.931 90.3959 106.491 90.3959C107.037 90.3959 107.499 90.8439 107.499 91.3899C107.499 91.9499 107.037 92.3979 106.491 92.3979ZM107.345 99.9999H105.637V93.2939H107.345V99.9999ZM112.312 100.182C110.366 100.182 108.826 98.5999 108.826 96.6399C108.826 94.6939 110.366 93.1119 112.312 93.1119C114.258 93.1119 115.798 94.6939 115.798 96.6399C115.798 98.5999 114.258 100.182 112.312 100.182ZM112.312 98.5859C113.348 98.5859 114.09 97.7179 114.09 96.6399C114.09 95.5619 113.348 94.7079 112.312 94.7079C111.276 94.7079 110.534 95.5619 110.534 96.6399C110.534 97.7179 111.276 98.5859 112.312 98.5859ZM117.271 99.9999V93.2939H118.979V94.2459C119.329 93.5319 120.001 93.1119 120.883 93.1119C122.423 93.1119 123.417 94.1899 123.417 95.9399V99.9999H121.709V96.1919C121.709 95.2819 121.191 94.7079 120.351 94.7079C119.511 94.7079 118.979 95.2819 118.979 96.1919V99.9999H117.271Z" fill="black"/>
<path d="M231 118H1V162H231V118Z" fill="#EBEBEB"/>
<path d="M14.0234 144V135.04H17.0194C19.9734 135.04 22.0874 136.902 22.0874 139.52C22.0874 142.138 20.0014 144 17.0754 144H14.0234ZM17.0054 136.678H15.8294V142.348H17.0194C18.9374 142.348 20.2114 141.228 20.2114 139.52C20.2114 137.798 18.9374 136.678 17.0054 136.678ZM23.6057 144V137.294H25.3137V138.288C25.6357 137.574 26.2097 137.112 26.9657 137.112C27.4137 137.112 27.7777 137.224 28.0297 137.434L27.3297 139.044C27.1057 138.876 26.7697 138.764 26.4337 138.764C25.7617 138.764 25.3137 139.338 25.3137 140.248V144H23.6057ZM31.689 144.182C29.743 144.182 28.203 142.6 28.203 140.64C28.203 138.694 29.743 137.112 31.689 137.112C33.635 137.112 35.175 138.694 35.175 140.64C35.175 142.6 33.635 144.182 31.689 144.182ZM31.689 142.586C32.725 142.586 33.467 141.718 33.467 140.64C33.467 139.562 32.725 138.708 31.689 138.708C30.653 138.708 29.911 139.562 29.911 140.64C29.911 141.718 30.653 142.586 31.689 142.586ZM38.3567 146.744H36.6487V137.294H38.3567V138.246C38.8047 137.56 39.5047 137.112 40.4147 137.112C42.1787 137.112 43.6347 138.554 43.6347 140.654C43.6347 142.67 42.2767 144.182 40.4147 144.182C39.5047 144.182 38.8047 143.776 38.3567 143.104V146.744ZM40.1487 142.586C41.1707 142.586 41.9267 141.732 41.9267 140.654C41.9267 139.576 41.1707 138.708 40.1487 138.708C39.1127 138.708 38.3567 139.576 38.3567 140.654C38.3567 141.732 39.1127 142.586 40.1487 142.586ZM47.8563 144.182C46.0923 144.182 44.6503 142.74 44.6503 140.64C44.6503 138.624 46.0083 137.112 47.8563 137.112C48.7663 137.112 49.4663 137.518 49.9143 138.176V134.368H51.6223V144H49.9143V143.048C49.4663 143.734 48.7663 144.182 47.8563 144.182ZM48.1363 142.586C49.1723 142.586 49.9143 141.718 49.9143 140.64C49.9143 139.562 49.1723 138.708 48.1363 138.708C47.1003 138.708 46.3583 139.562 46.3583 140.64C46.3583 141.718 47.1003 142.586 48.1363 142.586ZM56.5718 144.182C54.6258 144.182 53.0858 142.6 53.0858 140.64C53.0858 138.694 54.6258 137.112 56.5718 137.112C58.5178 137.112 60.0578 138.694 60.0578 140.64C60.0578 142.6 58.5178 144.182 56.5718 144.182ZM56.5718 142.586C57.6078 142.586 58.3498 141.718 58.3498 140.64C58.3498 139.562 57.6078 138.708 56.5718 138.708C55.5358 138.708 54.7938 139.562 54.7938 140.64C54.7938 141.718 55.5358 142.586 56.5718 142.586ZM64.5351 144H62.6031L60.5311 137.294H62.3651L63.6111 142.124L64.9691 137.294H66.8171L68.2031 142.152L69.4771 137.294H71.3111L69.2391 144H67.1111L65.8091 139.45L64.5351 144ZM72.5237 144V137.294H74.2317V138.246C74.5817 137.532 75.2537 137.112 76.1357 137.112C77.6757 137.112 78.6697 138.19 78.6697 139.94V144H76.9617V140.192C76.9617 139.282 76.4437 138.708 75.6037 138.708C74.7637 138.708 74.2317 139.282 74.2317 140.192V144H72.5237ZM86.5679 144.182C84.6219 144.182 83.0819 142.6 83.0819 140.64C83.0819 138.694 84.6219 137.112 86.5679 137.112C88.5139 137.112 90.0539 138.694 90.0539 140.64C90.0539 142.6 88.5139 144.182 86.5679 144.182ZM86.5679 142.586C87.6039 142.586 88.3459 141.718 88.3459 140.64C88.3459 139.562 87.6039 138.708 86.5679 138.708C85.5319 138.708 84.7899 139.562 84.7899 140.64C84.7899 141.718 85.5319 142.586 86.5679 142.586ZM93.2356 146.744H91.5276V137.294H93.2356V138.246C93.6836 137.56 94.3836 137.112 95.2936 137.112C97.0576 137.112 98.5136 138.554 98.5136 140.654C98.5136 142.67 97.1556 144.182 95.2936 144.182C94.3836 144.182 93.6836 143.776 93.2356 143.104V146.744ZM95.0276 142.586C96.0496 142.586 96.8056 141.732 96.8056 140.654C96.8056 139.576 96.0496 138.708 95.0276 138.708C93.9916 138.708 93.2356 139.576 93.2356 140.654C93.2356 141.732 93.9916 142.586 95.0276 142.586ZM99.2772 138.806V137.294H100.453V135.558H102.175V137.294H103.981V138.806H102.189V141.662C102.189 142.292 102.441 142.586 102.945 142.586C103.267 142.586 103.575 142.446 103.743 142.25L104.499 143.524C104.135 143.888 103.505 144.182 102.679 144.182C101.321 144.182 100.453 143.342 100.453 141.704V138.806H99.2772ZM106.491 136.398C105.931 136.398 105.497 135.95 105.497 135.39C105.497 134.844 105.931 134.396 106.491 134.396C107.037 134.396 107.499 134.844 107.499 135.39C107.499 135.95 107.037 136.398 106.491 136.398ZM107.345 144H105.637V137.294H107.345V144ZM112.312 144.182C110.366 144.182 108.826 142.6 108.826 140.64C108.826 138.694 110.366 137.112 112.312 137.112C114.258 137.112 115.798 138.694 115.798 140.64C115.798 142.6 114.258 144.182 112.312 144.182ZM112.312 142.586C113.348 142.586 114.09 141.718 114.09 140.64C114.09 139.562 113.348 138.708 112.312 138.708C111.276 138.708 110.534 139.562 110.534 140.64C110.534 141.718 111.276 142.586 112.312 142.586ZM117.271 144V137.294H118.979V138.246C119.329 137.532 120.001 137.112 120.883 137.112C122.423 137.112 123.417 138.19 123.417 139.94V144H121.709V140.192C121.709 139.282 121.191 138.708 120.351 138.708C119.511 138.708 118.979 139.282 118.979 140.192V144H117.271Z" fill="#794CFF"/>
<path d="M231 162H1V206H231V162Z" fill="white"/>
<path d="M14.0234 188V179.04H17.0194C19.9734 179.04 22.0874 180.902 22.0874 183.52C22.0874 186.138 20.0014 188 17.0754 188H14.0234ZM17.0054 180.678H15.8294V186.348H17.0194C18.9374 186.348 20.2114 185.228 20.2114 183.52C20.2114 181.798 18.9374 180.678 17.0054 180.678ZM23.6057 188V181.294H25.3137V182.288C25.6357 181.574 26.2097 181.112 26.9657 181.112C27.4137 181.112 27.7777 181.224 28.0297 181.434L27.3297 183.044C27.1057 182.876 26.7697 182.764 26.4337 182.764C25.7617 182.764 25.3137 183.338 25.3137 184.248V188H23.6057ZM31.689 188.182C29.743 188.182 28.203 186.6 28.203 184.64C28.203 182.694 29.743 181.112 31.689 181.112C33.635 181.112 35.175 182.694 35.175 184.64C35.175 186.6 33.635 188.182 31.689 188.182ZM31.689 186.586C32.725 186.586 33.467 185.718 33.467 184.64C33.467 183.562 32.725 182.708 31.689 182.708C30.653 182.708 29.911 183.562 29.911 184.64C29.911 185.718 30.653 186.586 31.689 186.586ZM38.3567 190.744H36.6487V181.294H38.3567V182.246C38.8047 181.56 39.5047 181.112 40.4147 181.112C42.1787 181.112 43.6347 182.554 43.6347 184.654C43.6347 186.67 42.2767 188.182 40.4147 188.182C39.5047 188.182 38.8047 187.776 38.3567 187.104V190.744ZM40.1487 186.586C41.1707 186.586 41.9267 185.732 41.9267 184.654C41.9267 183.576 41.1707 182.708 40.1487 182.708C39.1127 182.708 38.3567 183.576 38.3567 184.654C38.3567 185.732 39.1127 186.586 40.1487 186.586ZM47.8563 188.182C46.0923 188.182 44.6503 186.74 44.6503 184.64C44.6503 182.624 46.0083 181.112 47.8563 181.112C48.7663 181.112 49.4663 181.518 49.9143 182.176V178.368H51.6223V188H49.9143V187.048C49.4663 187.734 48.7663 188.182 47.8563 188.182ZM48.1363 186.586C49.1723 186.586 49.9143 185.718 49.9143 184.64C49.9143 183.562 49.1723 182.708 48.1363 182.708C47.1003 182.708 46.3583 183.562 46.3583 184.64C46.3583 185.718 47.1003 186.586 48.1363 186.586ZM56.5718 188.182C54.6258 188.182 53.0858 186.6 53.0858 184.64C53.0858 182.694 54.6258 181.112 56.5718 181.112C58.5178 181.112 60.0578 182.694 60.0578 184.64C60.0578 186.6 58.5178 188.182 56.5718 188.182ZM56.5718 186.586C57.6078 186.586 58.3498 185.718 58.3498 184.64C58.3498 183.562 57.6078 182.708 56.5718 182.708C55.5358 182.708 54.7938 183.562 54.7938 184.64C54.7938 185.718 55.5358 186.586 56.5718 186.586ZM64.5351 188H62.6031L60.5311 181.294H62.3651L63.6111 186.124L64.9691 181.294H66.8171L68.2031 186.152L69.4771 181.294H71.3111L69.2391 188H67.1111L65.8091 183.45L64.5351 188ZM72.5237 188V181.294H74.2317V182.246C74.5817 181.532 75.2537 181.112 76.1357 181.112C77.6757 181.112 78.6697 182.19 78.6697 183.94V188H76.9617V184.192C76.9617 183.282 76.4437 182.708 75.6037 182.708C74.7637 182.708 74.2317 183.282 74.2317 184.192V188H72.5237ZM86.5679 188.182C84.6219 188.182 83.0819 186.6 83.0819 184.64C83.0819 182.694 84.6219 181.112 86.5679 181.112C88.5139 181.112 90.0539 182.694 90.0539 184.64C90.0539 186.6 88.5139 188.182 86.5679 188.182ZM86.5679 186.586C87.6039 186.586 88.3459 185.718 88.3459 184.64C88.3459 183.562 87.6039 182.708 86.5679 182.708C85.5319 182.708 84.7899 183.562 84.7899 184.64C84.7899 185.718 85.5319 186.586 86.5679 186.586ZM93.2356 190.744H91.5276V181.294H93.2356V182.246C93.6836 181.56 94.3836 181.112 95.2936 181.112C97.0576 181.112 98.5136 182.554 98.5136 184.654C98.5136 186.67 97.1556 188.182 95.2936 188.182C94.3836 188.182 93.6836 187.776 93.2356 187.104V190.744ZM95.0276 186.586C96.0496 186.586 96.8056 185.732 96.8056 184.654C96.8056 183.576 96.0496 182.708 95.0276 182.708C93.9916 182.708 93.2356 183.576 93.2356 184.654C93.2356 185.732 93.9916 186.586 95.0276 186.586ZM99.2772 182.806V181.294H100.453V179.558H102.175V181.294H103.981V182.806H102.189V185.662C102.189 186.292 102.441 186.586 102.945 186.586C103.267 186.586 103.575 186.446 103.743 186.25L104.499 187.524C104.135 187.888 103.505 188.182 102.679 188.182C101.321 188.182 100.453 187.342 100.453 185.704V182.806H99.2772ZM106.491 180.398C105.931 180.398 105.497 179.95 105.497 179.39C105.497 178.844 105.931 178.396 106.491 178.396C107.037 178.396 107.499 178.844 107.499 179.39C107.499 179.95 107.037 180.398 106.491 180.398ZM107.345 188H105.637V181.294H107.345V188ZM112.312 188.182C110.366 188.182 108.826 186.6 108.826 184.64C108.826 182.694 110.366 181.112 112.312 181.112C114.258 181.112 115.798 182.694 115.798 184.64C115.798 186.6 114.258 188.182 112.312 188.182ZM112.312 186.586C113.348 186.586 114.09 185.718 114.09 184.64C114.09 183.562 113.348 182.708 112.312 182.708C111.276 182.708 110.534 183.562 110.534 184.64C110.534 185.718 111.276 186.586 112.312 186.586ZM117.271 188V181.294H118.979V182.246C119.329 181.532 120.001 181.112 120.883 181.112C122.423 181.112 123.417 182.19 123.417 183.94V188H121.709V184.192C121.709 183.282 121.191 182.708 120.351 182.708C119.511 182.708 118.979 183.282 118.979 184.192V188H117.271Z" fill="black"/>
</g>
<path d="M223 73.5H9C4.30558 73.5 0.5 77.3056 0.5 82V198C0.5 202.694 4.30558 206.5 9 206.5H223C227.694 206.5 231.5 202.694 231.5 198V82C231.5 77.3056 227.694 73.5 223 73.5Z" stroke="#EBEBEB"/>
</svg>
