<svg width="296" height="255" viewBox="0 0 296 255" fill="none" xmlns="http://www.w3.org/2000/svg">
<path d="M38.2066 5.84404C40.7686 5.84404 42.8546 7.94404 42.8546 10.534C42.8546 13.096 40.7686 15.182 38.2066 15.182C35.6446 15.182 33.5586 13.082 33.5586 10.52C33.5586 7.93004 35.6446 5.84404 38.2066 5.84404ZM38.2066 13.446C39.7466 13.446 40.9926 12.13 40.9926 10.534C40.9926 8.91004 39.7466 7.58004 38.2066 7.58004C36.6666 7.58004 35.4346 8.89604 35.4346 10.52C35.4346 12.13 36.6666 13.446 38.2066 13.446ZM43.7666 9.80604V8.29403H44.8586V7.90204C44.8586 6.20804 45.8246 5.18604 47.3226 5.18604C48.2326 5.18604 48.8206 5.43804 49.2546 5.87204L48.4146 7.16004C48.2186 6.95004 47.8546 6.78204 47.4906 6.78204C46.9306 6.78204 46.5806 7.16004 46.5806 7.88804V8.29403H48.3166V9.80604H46.5806V15H44.8586V9.80604H43.7666ZM49.1259 9.80604V8.29403H50.2179V8.16804C50.2179 6.32004 51.4359 5.18604 53.4939 5.18604C54.7959 5.18604 55.6779 5.55004 56.3079 6.08204L55.4539 7.42604C55.0199 7.03404 54.2919 6.78204 53.5919 6.78204C52.5559 6.78204 51.9399 7.24404 51.9399 8.21004V8.29403H56.2099V15H54.5019V9.80604H51.9399V15H50.2179V9.80604H49.1259ZM62.8408 10.324C62.4068 9.91804 61.9168 9.70804 61.2448 9.70804C60.1248 9.70804 59.3828 10.562 59.3828 11.64C59.3828 12.718 60.1388 13.586 61.2448 13.586C61.9168 13.586 62.4628 13.348 62.8968 12.928L63.7648 14.188C63.2328 14.776 62.2528 15.182 61.2028 15.182C59.2008 15.182 57.6748 13.6 57.6748 11.64C57.6748 9.69404 59.2148 8.11204 61.1748 8.11204C62.3088 8.11204 63.2188 8.49004 63.8208 9.10604L62.8408 10.324ZM67.8763 15.182C65.7903 15.182 64.2783 13.6 64.2783 11.64C64.2783 9.69404 65.7203 8.11204 67.6523 8.11204C69.5703 8.11204 71.0403 9.58204 71.0403 11.514C71.0403 11.738 71.0263 12.004 70.9983 12.116H66.0283C66.2103 13.04 66.9103 13.684 67.9323 13.684C68.6183 13.684 69.1923 13.39 69.5843 12.984L70.4663 14.16C69.9483 14.734 68.9963 15.182 67.8763 15.182ZM67.6803 9.55404C66.8683 9.55404 66.2803 10.114 66.0703 10.926H69.2763C69.0663 10.03 68.4643 9.55404 67.6803 9.55404ZM75.4737 15V6.02604H78.6797C80.8497 6.02604 82.2777 7.20204 82.2777 8.99404C82.2777 10.8 80.8357 11.99 78.6517 11.99H77.2237V15H75.4737ZM78.8197 7.58004H77.2237V10.436H78.8197C79.7857 10.436 80.4297 9.86204 80.4297 8.99404C80.4297 8.14004 79.7857 7.58004 78.8197 7.58004ZM83.6479 15V8.29403H85.3559V9.28804C85.6779 8.57404 86.2519 8.11204 87.0079 8.11204C87.4559 8.11204 87.8199 8.22404 88.0719 8.43404L87.3719 10.044C87.1479 9.87603 86.8119 9.76404 86.4759 9.76404C85.8039 9.76404 85.3559 10.338 85.3559 11.248V15H83.6479ZM91.8431 15.182C89.7571 15.182 88.2451 13.6 88.2451 11.64C88.2451 9.69404 89.6871 8.11204 91.6191 8.11204C93.5371 8.11204 95.0071 9.58204 95.0071 11.514C95.0071 11.738 94.9931 12.004 94.9651 12.116H89.9951C90.1771 13.04 90.8771 13.684 91.8991 13.684C92.5851 13.684 93.1591 13.39 93.5511 12.984L94.4331 14.16C93.9151 14.734 92.9631 15.182 91.8431 15.182ZM91.6471 9.55404C90.8351 9.55404 90.2471 10.114 90.0371 10.926H93.2431C93.0331 10.03 92.4311 9.55404 91.6471 9.55404ZM95.7744 9.80604V8.29403H96.8664V7.90204C96.8664 6.20804 97.8324 5.18604 99.3304 5.18604C100.241 5.18604 100.829 5.43804 101.263 5.87204L100.423 7.16004C100.227 6.95004 99.8624 6.78204 99.4984 6.78204C98.9384 6.78204 98.5884 7.16004 98.5884 7.88804V8.29403H100.325V9.80604H98.5884V15H96.8664V9.80604H95.7744ZM104.381 15.182C102.295 15.182 100.783 13.6 100.783 11.64C100.783 9.69404 102.225 8.11204 104.157 8.11204C106.075 8.11204 107.545 9.58204 107.545 11.514C107.545 11.738 107.531 12.004 107.503 12.116H102.533C102.715 13.04 103.415 13.684 104.437 13.684C105.123 13.684 105.697 13.39 106.089 12.984L106.971 14.16C106.453 14.734 105.501 15.182 104.381 15.182ZM104.185 9.55404C103.373 9.55404 102.785 10.114 102.575 10.926H105.781C105.571 10.03 104.969 9.55404 104.185 9.55404ZM108.914 15V8.29403H110.622V9.28804C110.944 8.57404 111.518 8.11204 112.274 8.11204C112.722 8.11204 113.086 8.22404 113.338 8.43404L112.638 10.044C112.414 9.87603 112.078 9.76404 111.742 9.76404C111.07 9.76404 110.622 10.338 110.622 11.248V15H108.914ZM117.109 15.182C115.023 15.182 113.511 13.6 113.511 11.64C113.511 9.69404 114.953 8.11204 116.885 8.11204C118.803 8.11204 120.273 9.58204 120.273 11.514C120.273 11.738 120.259 12.004 120.231 12.116H115.261C115.443 13.04 116.143 13.684 117.165 13.684C117.851 13.684 118.425 13.39 118.817 12.984L119.699 14.16C119.181 14.734 118.229 15.182 117.109 15.182ZM116.913 9.55404C116.101 9.55404 115.513 10.114 115.303 10.926H118.509C118.299 10.03 117.697 9.55404 116.913 9.55404ZM121.642 15V8.29403H123.35V9.24604C123.7 8.53204 124.372 8.11204 125.254 8.11204C126.794 8.11204 127.788 9.19003 127.788 10.94V15H126.08V11.192C126.08 10.282 125.562 9.70804 124.722 9.70804C123.882 9.70804 123.35 10.282 123.35 11.192V15H121.642ZM134.372 10.324C133.938 9.91804 133.448 9.70804 132.776 9.70804C131.656 9.70804 130.914 10.562 130.914 11.64C130.914 12.718 131.67 13.586 132.776 13.586C133.448 13.586 133.994 13.348 134.428 12.928L135.296 14.188C134.764 14.776 133.784 15.182 132.734 15.182C130.732 15.182 129.206 13.6 129.206 11.64C129.206 9.69404 130.746 8.11204 132.706 8.11204C133.84 8.11204 134.75 8.49004 135.352 9.10604L134.372 10.324ZM139.408 15.182C137.322 15.182 135.81 13.6 135.81 11.64C135.81 9.69404 137.252 8.11204 139.184 8.11204C141.102 8.11204 142.572 9.58204 142.572 11.514C142.572 11.738 142.558 12.004 142.53 12.116H137.56C137.742 13.04 138.442 13.684 139.464 13.684C140.15 13.684 140.724 13.39 141.116 12.984L141.998 14.16C141.48 14.734 140.528 15.182 139.408 15.182ZM139.212 9.55404C138.4 9.55404 137.812 10.114 137.602 10.926H140.808C140.598 10.03 139.996 9.55404 139.212 9.55404Z" fill="black"/>
<path fill-rule="evenodd" clip-rule="evenodd" d="M147 11C147 6.58854 150.589 3 155 3C159.411 3 163 6.58854 163 11C163 15.4115 159.411 19 155 19C150.589 19 147 15.4115 147 11ZM161.769 11C161.769 7.25312 158.747 4.23077 155 4.23077C151.253 4.23077 148.231 7.25312 148.231 11C148.231 14.7469 151.253 17.7692 155 17.7692C158.747 17.7692 161.769 14.7469 161.769 11ZM155.923 14.3846C155.923 14.8944 155.51 15.3077 155 15.3077C154.49 15.3077 154.077 14.8944 154.077 14.3846C154.077 13.8748 154.49 13.4615 155 13.4615C155.51 13.4615 155.923 13.8748 155.923 14.3846ZM152.231 9.42735C152.231 7.92361 153.477 6.69231 155 6.69231C156.523 6.69231 157.769 7.92361 157.769 9.42735C157.769 10.5358 157.039 11.5347 155.974 11.8846L155.692 11.9701V12.8462H154.308V11.9701C154.308 11.3851 154.694 10.851 155.26 10.6667L155.541 10.5812C156.044 10.4156 156.385 9.95086 156.385 9.42735C156.385 8.66346 155.773 8.05983 155 8.05983C154.227 8.05983 153.615 8.66346 153.615 9.42735H152.231Z" fill="#794CFF"/>
<path d="M255 27H41C37.134 27 34 30.134 34 34V62C34 65.866 37.134 69 41 69H255C258.866 69 262 65.866 262 62V34C262 30.134 258.866 27 255 27Z" fill="white"/>
<path d="M255 27H41C37.134 27 34 30.134 34 34V62C34 65.866 37.134 69 41 69H255C258.866 69 262 65.866 262 62V34C262 30.134 258.866 27 255 27Z" stroke="#D6D6D6" stroke-width="2"/>
<path d="M47.0716 52.0139C46.6516 51.9019 46.1196 51.6359 45.4336 51.1879L46.1896 49.7179C46.9456 50.1939 48.0376 50.5299 48.9196 50.5299C49.8016 50.5299 50.4596 50.2079 50.4596 49.4939C50.4596 47.8979 45.7416 48.6539 45.7416 45.4759C45.7416 43.8099 47.2676 42.8299 49.0876 42.8299C50.2216 42.8299 51.2856 43.1379 52.1116 43.7679L51.2576 45.1539C50.6836 44.7759 49.7876 44.4679 49.0036 44.4679C48.1916 44.4679 47.6176 44.8459 47.6176 45.4339C47.6176 47.0719 52.3216 46.3439 52.3216 49.3959C52.3216 51.2439 50.6976 52.1819 48.7936 52.1819C48.0516 52.1819 47.4776 52.1259 47.0716 52.0139ZM56.8949 52.1819C54.8089 52.1819 53.2969 50.5999 53.2969 48.6399C53.2969 46.6939 54.7389 45.1119 56.6709 45.1119C58.5889 45.1119 60.0589 46.5819 60.0589 48.5139C60.0589 48.7379 60.0449 49.0039 60.0169 49.1159H55.0469C55.2289 50.0399 55.9289 50.6839 56.9509 50.6839C57.6369 50.6839 58.2109 50.3899 58.6029 49.9839L59.4849 51.1599C58.9669 51.7339 58.0149 52.1819 56.8949 52.1819ZM56.6989 46.5539C55.8869 46.5539 55.2989 47.1139 55.0889 47.9259H58.2949C58.0849 47.0299 57.4829 46.5539 56.6989 46.5539ZM64.0182 50.5159L64.2002 52.0139C63.9482 52.0979 63.6262 52.1539 63.3742 52.1539C62.4082 52.1539 61.4282 51.5379 61.4282 49.8299V42.3679H63.1362V49.8719C63.1362 50.3899 63.4302 50.5859 63.7382 50.5859C63.8222 50.5859 63.9342 50.5579 64.0182 50.5159ZM68.7894 52.1819C66.7034 52.1819 65.1914 50.5999 65.1914 48.6399C65.1914 46.6939 66.6334 45.1119 68.5654 45.1119C70.4834 45.1119 71.9534 46.5819 71.9534 48.5139C71.9534 48.7379 71.9394 49.0039 71.9114 49.1159H66.9414C67.1234 50.0399 67.8234 50.6839 68.8454 50.6839C69.5314 50.6839 70.1054 50.3899 70.4974 49.9839L71.3794 51.1599C70.8614 51.7339 69.9094 52.1819 68.7894 52.1819ZM68.5934 46.5539C67.7814 46.5539 67.1934 47.1139 66.9834 47.9259H70.1894C69.9794 47.0299 69.3774 46.5539 68.5934 46.5539ZM78.0547 47.3239C77.6207 46.9179 77.1307 46.7079 76.4587 46.7079C75.3387 46.7079 74.5967 47.5619 74.5967 48.6399C74.5967 49.7179 75.3527 50.5859 76.4587 50.5859C77.1307 50.5859 77.6767 50.3479 78.1107 49.9279L78.9787 51.1879C78.4467 51.7759 77.4667 52.1819 76.4167 52.1819C74.4147 52.1819 72.8887 50.5999 72.8887 48.6399C72.8887 46.6939 74.4287 45.1119 76.3887 45.1119C77.5227 45.1119 78.4327 45.4899 79.0347 46.1059L78.0547 47.3239ZM79.4726 46.8059V45.2939H80.6486V43.5579H82.3706V45.2939H84.1766V46.8059H82.3846V49.6619C82.3846 50.2919 82.6366 50.5859 83.1406 50.5859C83.4626 50.5859 83.7706 50.4459 83.9386 50.2499L84.6946 51.5239C84.3306 51.8879 83.7006 52.1819 82.8746 52.1819C81.5166 52.1819 80.6486 51.3419 80.6486 49.7039V46.8059H79.4726ZM88.8966 51.9999V43.0259H90.6466V50.3479H95.0286V51.9999H88.8966ZM98.9606 52.1819C97.0146 52.1819 95.4746 50.5999 95.4746 48.6399C95.4746 46.6939 97.0146 45.1119 98.9606 45.1119C100.907 45.1119 102.447 46.6939 102.447 48.6399C102.447 50.5999 100.907 52.1819 98.9606 52.1819ZM98.9606 50.5859C99.9966 50.5859 100.739 49.7179 100.739 48.6399C100.739 47.5619 99.9966 46.7079 98.9606 46.7079C97.9246 46.7079 97.1826 47.5619 97.1826 48.6399C97.1826 49.7179 97.9246 50.5859 98.9606 50.5859ZM108.653 47.3239C108.219 46.9179 107.729 46.7079 107.057 46.7079C105.937 46.7079 105.195 47.5619 105.195 48.6399C105.195 49.7179 105.951 50.5859 107.057 50.5859C107.729 50.5859 108.275 50.3479 108.709 49.9279L109.577 51.1879C109.045 51.7759 108.065 52.1819 107.015 52.1819C105.013 52.1819 103.487 50.5999 103.487 48.6399C103.487 46.6939 105.027 45.1119 106.987 45.1119C108.121 45.1119 109.031 45.4899 109.633 46.1059L108.653 47.3239ZM113.296 52.1819C111.532 52.1819 110.09 50.7399 110.09 48.6399C110.09 46.6239 111.448 45.1119 113.296 45.1119C114.206 45.1119 114.906 45.5179 115.354 46.1759V45.2939H117.062V51.9999H115.354V51.0479C114.906 51.7339 114.206 52.1819 113.296 52.1819ZM113.576 50.5859C114.612 50.5859 115.354 49.7179 115.354 48.6399C115.354 47.5619 114.612 46.7079 113.576 46.7079C112.54 46.7079 111.798 47.5619 111.798 48.6399C111.798 49.7179 112.54 50.5859 113.576 50.5859ZM118.274 46.8059V45.2939H119.45V43.5579H121.172V45.2939H122.978V46.8059H121.186V49.6619C121.186 50.2919 121.438 50.5859 121.942 50.5859C122.264 50.5859 122.572 50.4459 122.74 50.2499L123.496 51.5239C123.132 51.8879 122.502 52.1819 121.676 52.1819C120.318 52.1819 119.45 51.3419 119.45 49.7039V46.8059H118.274ZM125.488 44.3979C124.928 44.3979 124.494 43.9499 124.494 43.3899C124.494 42.8439 124.928 42.3959 125.488 42.3959C126.034 42.3959 126.496 42.8439 126.496 43.3899C126.496 43.9499 126.034 44.3979 125.488 44.3979ZM126.342 51.9999H124.634V45.2939H126.342V51.9999ZM131.309 52.1819C129.363 52.1819 127.823 50.5999 127.823 48.6399C127.823 46.6939 129.363 45.1119 131.309 45.1119C133.255 45.1119 134.795 46.6939 134.795 48.6399C134.795 50.5999 133.255 52.1819 131.309 52.1819ZM131.309 50.5859C132.345 50.5859 133.087 49.7179 133.087 48.6399C133.087 47.5619 132.345 46.7079 131.309 46.7079C130.273 46.7079 129.531 47.5619 129.531 48.6399C129.531 49.7179 130.273 50.5859 131.309 50.5859ZM136.268 51.9999V45.2939H137.976V46.2459C138.326 45.5319 138.998 45.1119 139.88 45.1119C141.42 45.1119 142.414 46.1899 142.414 47.9399V51.9999H140.706V48.1919C140.706 47.2819 140.188 46.7079 139.348 46.7079C138.508 46.7079 137.976 47.2819 137.976 48.1919V51.9999H136.268Z" fill="black"/>
<path d="M245 51L240 45.9524L241 45L245 49.2857L249 45L250 45.9524L245 51Z" fill="black"/>
<g filter="url(#filter0_d_6343_39690)">
<mask id="mask0_6343_39690" style="mask-type:luminance" maskUnits="userSpaceOnUse" x="33" y="74" width="230" height="132">
<path d="M255 74H41C36.5817 74 33 77.5817 33 82V198C33 202.418 36.5817 206 41 206H255C259.418 206 263 202.418 263 198V82C263 77.5817 259.418 74 255 74Z" fill="white"/>
</mask>
<g mask="url(#mask0_6343_39690)">
<path d="M255 74H41C36.5817 74 33 77.5817 33 82V198C33 202.418 36.5817 206 41 206H255C259.418 206 263 202.418 263 198V82C263 77.5817 259.418 74 255 74Z" fill="white"/>
<path d="M263 74H33V118H263V74Z" fill="white"/>
<path d="M52.0574 99.9999V96.2339H47.7734V99.9999H46.0234V91.0259H47.7734V94.5959H52.0574V91.0259H53.8074V99.9999H52.0574ZM58.8355 100.182C56.8895 100.182 55.3495 98.5999 55.3495 96.6399C55.3495 94.6939 56.8895 93.1119 58.8355 93.1119C60.7815 93.1119 62.3215 94.6939 62.3215 96.6399C62.3215 98.5999 60.7815 100.182 58.8355 100.182ZM58.8355 98.5859C59.8715 98.5859 60.6135 97.7179 60.6135 96.6399C60.6135 95.5619 59.8715 94.7079 58.8355 94.7079C57.7995 94.7079 57.0575 95.5619 57.0575 96.6399C57.0575 97.7179 57.7995 98.5859 58.8355 98.5859ZM65.5032 99.9999H63.7952V93.2939H65.5032V94.3159C65.8532 93.5879 66.5112 93.1119 67.3932 93.1119C68.4152 93.1119 69.1992 93.6159 69.5912 94.5119C69.9412 93.7139 70.5852 93.1119 71.6492 93.1119C73.2032 93.1119 74.2252 94.1479 74.2252 95.9399V99.9999H72.5032V96.1919C72.5032 95.2819 71.9992 94.7079 71.1872 94.7079C70.3752 94.7079 69.8572 95.2819 69.8572 96.1919V99.9999H68.1492V96.1919C68.1492 95.2819 67.6452 94.7079 66.8332 94.7079C66.0212 94.7079 65.5032 95.2819 65.5032 96.1919V99.9999ZM79.2229 100.182C77.1369 100.182 75.6249 98.5999 75.6249 96.6399C75.6249 94.6939 77.0669 93.1119 78.9989 93.1119C80.9169 93.1119 82.3869 94.5819 82.3869 96.5139C82.3869 96.7379 82.3729 97.0039 82.3449 97.1159H77.3749C77.5569 98.0399 78.2569 98.6839 79.2789 98.6839C79.9649 98.6839 80.5389 98.3899 80.9309 97.9839L81.8129 99.1599C81.2949 99.7339 80.3429 100.182 79.2229 100.182ZM79.0269 94.5539C78.2149 94.5539 77.6269 95.1139 77.4169 95.9259H80.6229C80.4129 95.0299 79.8109 94.5539 79.0269 94.5539Z" fill="black"/>
<path d="M263 118H33V162H263V118Z" fill="#EBEBEB"/>
<path d="M53.4826 136.062L52.3206 137.406C51.8026 136.93 51.0746 136.58 50.1786 136.58C48.6526 136.58 47.4346 137.896 47.4346 139.52C47.4346 141.13 48.6526 142.446 50.2906 142.446C51.0606 142.446 51.8306 142.152 52.3346 141.634L53.4826 142.922C52.6986 143.79 51.6206 144.182 50.1786 144.182C47.5606 144.182 45.5586 142.082 45.5586 139.52C45.5586 136.93 47.6306 134.844 50.1646 134.844C51.6766 134.844 52.7406 135.306 53.4826 136.062ZM57.4928 144.182C55.5468 144.182 54.0068 142.6 54.0068 140.64C54.0068 138.694 55.5468 137.112 57.4928 137.112C59.4388 137.112 60.9788 138.694 60.9788 140.64C60.9788 142.6 59.4388 144.182 57.4928 144.182ZM57.4928 142.586C58.5288 142.586 59.2708 141.718 59.2708 140.64C59.2708 139.562 58.5288 138.708 57.4928 138.708C56.4568 138.708 55.7148 139.562 55.7148 140.64C55.7148 141.718 56.4568 142.586 57.4928 142.586ZM61.8506 138.806V137.294H62.9426V136.902C62.9426 135.208 63.9086 134.186 65.4066 134.186C66.3166 134.186 66.9046 134.438 67.3386 134.872L66.4986 136.16C66.3026 135.95 65.9386 135.782 65.5746 135.782C65.0146 135.782 64.6646 136.16 64.6646 136.888V137.294H66.4006V138.806H64.6646V144H62.9426V138.806H61.8506ZM67.2099 138.806V137.294H68.3019V136.902C68.3019 135.208 69.2679 134.186 70.7659 134.186C71.6759 134.186 72.2639 134.438 72.6979 134.872L71.8579 136.16C71.6619 135.95 71.2979 135.782 70.9339 135.782C70.3739 135.782 70.0239 136.16 70.0239 136.888V137.294H71.7599V138.806H70.0239V144H68.3019V138.806H67.2099ZM75.8158 144.182C73.7298 144.182 72.2178 142.6 72.2178 140.64C72.2178 138.694 73.6598 137.112 75.5918 137.112C77.5098 137.112 78.9798 138.582 78.9798 140.514C78.9798 140.738 78.9658 141.004 78.9378 141.116H73.9678C74.1498 142.04 74.8498 142.684 75.8718 142.684C76.5578 142.684 77.1318 142.39 77.5238 141.984L78.4058 143.16C77.8878 143.734 76.9358 144.182 75.8158 144.182ZM75.6198 138.554C74.8078 138.554 74.2198 139.114 74.0098 139.926H77.2158C77.0058 139.03 76.4038 138.554 75.6198 138.554ZM83.513 144.182C81.427 144.182 79.915 142.6 79.915 140.64C79.915 138.694 81.357 137.112 83.289 137.112C85.207 137.112 86.677 138.582 86.677 140.514C86.677 140.738 86.663 141.004 86.635 141.116H81.665C81.847 142.04 82.547 142.684 83.569 142.684C84.255 142.684 84.829 142.39 85.221 141.984L86.103 143.16C85.585 143.734 84.633 144.182 83.513 144.182ZM83.317 138.554C82.505 138.554 81.917 139.114 81.707 139.926H84.913C84.703 139.03 84.101 138.554 83.317 138.554ZM93.0984 144.182C92.0204 144.182 91.1384 143.902 90.4804 143.538L91.0264 142.222C91.7964 142.586 92.4404 142.782 93.1824 142.782C93.9384 142.782 94.2884 142.516 94.2884 142.124C94.2884 140.92 90.6764 141.634 90.6764 139.1C90.6764 138.092 91.5724 137.112 93.2944 137.112C94.2324 137.112 94.9464 137.308 95.8004 137.714L95.1704 138.988C94.6944 138.722 93.9804 138.512 93.4344 138.512C92.7904 138.512 92.3984 138.722 92.3984 139.086C92.3984 140.318 95.9824 139.548 95.9824 142.096C95.9824 143.258 94.9464 144.182 93.0984 144.182ZM97.3842 144V134.368H99.0922V138.246C99.4422 137.532 100.115 137.112 100.997 137.112C102.537 137.112 103.531 138.19 103.531 139.94V144H101.823V140.192C101.823 139.282 101.305 138.708 100.465 138.708C99.6242 138.708 99.0922 139.282 99.0922 140.192V144H97.3842ZM108.435 144.182C106.489 144.182 104.949 142.6 104.949 140.64C104.949 138.694 106.489 137.112 108.435 137.112C110.381 137.112 111.921 138.694 111.921 140.64C111.921 142.6 110.381 144.182 108.435 144.182ZM108.435 142.586C109.471 142.586 110.213 141.718 110.213 140.64C110.213 139.562 109.471 138.708 108.435 138.708C107.399 138.708 106.657 139.562 106.657 140.64C106.657 141.718 107.399 142.586 108.435 142.586ZM115.102 146.744H113.394V137.294H115.102V138.246C115.55 137.56 116.25 137.112 117.16 137.112C118.924 137.112 120.38 138.554 120.38 140.654C120.38 142.67 119.022 144.182 117.16 144.182C116.25 144.182 115.55 143.776 115.102 143.104V146.744ZM116.894 142.586C117.916 142.586 118.672 141.732 118.672 140.654C118.672 139.576 117.916 138.708 116.894 138.708C115.858 138.708 115.102 139.576 115.102 140.654C115.102 141.732 115.858 142.586 116.894 142.586Z" fill="#794CFF"/>
<path d="M263 162H33V206H263V162Z" fill="white"/>
<path d="M50.2066 178.844C52.7686 178.844 54.8546 180.944 54.8546 183.534C54.8546 186.096 52.7686 188.182 50.2066 188.182C47.6446 188.182 45.5586 186.082 45.5586 183.52C45.5586 180.93 47.6446 178.844 50.2066 178.844ZM50.2066 186.446C51.7466 186.446 52.9926 185.13 52.9926 183.534C52.9926 181.91 51.7466 180.58 50.2066 180.58C48.6666 180.58 47.4346 181.896 47.4346 183.52C47.4346 185.13 48.6666 186.446 50.2066 186.446ZM57.9926 181.294V184.92C57.9926 185.9 58.5526 186.558 59.4066 186.558C60.2606 186.558 60.8346 185.9 60.8346 184.92V181.294H62.5566V185.046C62.5566 186.922 61.2966 188.168 59.4066 188.168C57.5166 188.168 56.2846 186.922 56.2846 185.046V181.294H57.9926ZM63.6806 182.806V181.294H64.8566V179.558H66.5786V181.294H68.3846V182.806H66.5926V185.662C66.5926 186.292 66.8446 186.586 67.3486 186.586C67.6706 186.586 67.9786 186.446 68.1466 186.25L68.9026 187.524C68.5386 187.888 67.9086 188.182 67.0826 188.182C65.7246 188.182 64.8566 187.342 64.8566 185.704V182.806H63.6806ZM72.0984 188.182C71.0204 188.182 70.1384 187.902 69.4804 187.538L70.0264 186.222C70.7964 186.586 71.4404 186.782 72.1824 186.782C72.9384 186.782 73.2884 186.516 73.2884 186.124C73.2884 184.92 69.6764 185.634 69.6764 183.1C69.6764 182.092 70.5724 181.112 72.2944 181.112C73.2324 181.112 73.9464 181.308 74.8004 181.714L74.1704 182.988C73.6944 182.722 72.9804 182.512 72.4344 182.512C71.7904 182.512 71.3984 182.722 71.3984 183.086C71.3984 184.318 74.9824 183.548 74.9824 186.096C74.9824 187.258 73.9464 188.182 72.0984 188.182ZM77.2382 180.398C76.6782 180.398 76.2442 179.95 76.2442 179.39C76.2442 178.844 76.6782 178.396 77.2382 178.396C77.7842 178.396 78.2462 178.844 78.2462 179.39C78.2462 179.95 77.7842 180.398 77.2382 180.398ZM78.0922 188H76.3842V181.294H78.0922V188ZM82.7792 188.182C81.0152 188.182 79.5732 186.74 79.5732 184.64C79.5732 182.624 80.9312 181.112 82.7792 181.112C83.6892 181.112 84.3892 181.518 84.8372 182.176V178.368H86.5452V188H84.8372V187.048C84.3892 187.734 83.6892 188.182 82.7792 188.182ZM83.0592 186.586C84.0952 186.586 84.8372 185.718 84.8372 184.64C84.8372 183.562 84.0952 182.708 83.0592 182.708C82.0232 182.708 81.2812 183.562 81.2812 184.64C81.2812 185.718 82.0232 186.586 83.0592 186.586ZM91.6068 188.182C89.5208 188.182 88.0088 186.6 88.0088 184.64C88.0088 182.694 89.4508 181.112 91.3828 181.112C93.3008 181.112 94.7708 182.582 94.7708 184.514C94.7708 184.738 94.7568 185.004 94.7288 185.116H89.7588C89.9408 186.04 90.6408 186.684 91.6628 186.684C92.3488 186.684 92.9228 186.39 93.3148 185.984L94.1968 187.16C93.6788 187.734 92.7268 188.182 91.6068 188.182ZM91.4108 182.554C90.5988 182.554 90.0108 183.114 89.8008 183.926H93.0068C92.7968 183.03 92.1948 182.554 91.4108 182.554Z" fill="black"/>
</g>
<path d="M255 73.5H41C36.3056 73.5 32.5 77.3056 32.5 82V198C32.5 202.694 36.3056 206.5 41 206.5H255C259.694 206.5 263.5 202.694 263.5 198V82C263.5 77.3056 259.694 73.5 255 73.5Z" stroke="#EBEBEB"/>
</g>
<defs>
<filter id="filter0_d_6343_39690" x="0" y="57" width="296" height="198" filterUnits="userSpaceOnUse" color-interpolation-filters="sRGB">
<feFlood flood-opacity="0" result="BackgroundImageFix"/>
<feColorMatrix in="SourceAlpha" type="matrix" values="0 0 0 0 0 0 0 0 0 0 0 0 0 0 0 0 0 0 127 0" result="hardAlpha"/>
<feOffset dy="16"/>
<feGaussianBlur stdDeviation="16"/>
<feComposite in2="hardAlpha" operator="out"/>
<feColorMatrix type="matrix" values="0 0 0 0 0 0 0 0 0 0 0 0 0 0 0 0 0 0 0.1 0"/>
<feBlend mode="normal" in2="BackgroundImageFix" result="effect1_dropShadow_6343_39690"/>
<feBlend mode="normal" in="SourceGraphic" in2="effect1_dropShadow_6343_39690" result="shape"/>
</filter>
</defs>
</svg>
