<svg width="230" height="71" viewBox="0 0 230 71" fill="none" xmlns="http://www.w3.org/2000/svg">
<g clip-path="url(#clip0_6343_39931)">
<path d="M1.02344 15.4999V6.53992H4.01944C6.97344 6.53992 9.08744 8.40192 9.08744 11.0199C9.08744 13.6379 7.00144 15.4999 4.07544 15.4999H1.02344ZM4.00544 8.17792H2.82944V13.8479H4.01944C5.93744 13.8479 7.21144 12.7279 7.21144 11.0199C7.21144 9.29792 5.93744 8.17792 4.00544 8.17792ZM10.6057 15.4999V8.79392H12.3137V9.78792C12.6357 9.07392 13.2097 8.61192 13.9657 8.61192C14.4137 8.61192 14.7777 8.72392 15.0297 8.93392L14.3297 10.5439C14.1057 10.3759 13.7697 10.2639 13.4337 10.2639C12.7617 10.2639 12.3137 10.8379 12.3137 11.7479V15.4999H10.6057ZM18.689 15.6819C16.743 15.6819 15.203 14.0999 15.203 12.1399C15.203 10.1939 16.743 8.61192 18.689 8.61192C20.635 8.61192 22.175 10.1939 22.175 12.1399C22.175 14.0999 20.635 15.6819 18.689 15.6819ZM18.689 14.0859C19.725 14.0859 20.467 13.2179 20.467 12.1399C20.467 11.0619 19.725 10.2079 18.689 10.2079C17.653 10.2079 16.911 11.0619 16.911 12.1399C16.911 13.2179 17.653 14.0859 18.689 14.0859ZM25.3567 18.2439H23.6487V8.79392H25.3567V9.74592C25.8047 9.05992 26.5047 8.61192 27.4147 8.61192C29.1787 8.61192 30.6347 10.0539 30.6347 12.1539C30.6347 14.1699 29.2767 15.6819 27.4147 15.6819C26.5047 15.6819 25.8047 15.2759 25.3567 14.6039V18.2439ZM27.1487 14.0859C28.1707 14.0859 28.9267 13.2319 28.9267 12.1539C28.9267 11.0759 28.1707 10.2079 27.1487 10.2079C26.1127 10.2079 25.3567 11.0759 25.3567 12.1539C25.3567 13.2319 26.1127 14.0859 27.1487 14.0859ZM34.8563 15.6819C33.0923 15.6819 31.6503 14.2399 31.6503 12.1399C31.6503 10.1239 33.0083 8.61192 34.8563 8.61192C35.7663 8.61192 36.4663 9.01792 36.9143 9.67592V5.86792H38.6223V15.4999H36.9143V14.5479C36.4663 15.2339 35.7663 15.6819 34.8563 15.6819ZM35.1363 14.0859C36.1723 14.0859 36.9143 13.2179 36.9143 12.1399C36.9143 11.0619 36.1723 10.2079 35.1363 10.2079C34.1003 10.2079 33.3583 11.0619 33.3583 12.1399C33.3583 13.2179 34.1003 14.0859 35.1363 14.0859ZM43.5718 15.6819C41.6258 15.6819 40.0858 14.0999 40.0858 12.1399C40.0858 10.1939 41.6258 8.61192 43.5718 8.61192C45.5178 8.61192 47.0578 10.1939 47.0578 12.1399C47.0578 14.0999 45.5178 15.6819 43.5718 15.6819ZM43.5718 14.0859C44.6078 14.0859 45.3498 13.2179 45.3498 12.1399C45.3498 11.0619 44.6078 10.2079 43.5718 10.2079C42.5358 10.2079 41.7938 11.0619 41.7938 12.1399C41.7938 13.2179 42.5358 14.0859 43.5718 14.0859ZM51.5351 15.4999H49.6031L47.5311 8.79392H49.3651L50.6111 13.6239L51.9691 8.79392H53.8171L55.2031 13.6519L56.4771 8.79392H58.3111L56.2391 15.4999H54.1111L52.8091 10.9499L51.5351 15.4999ZM59.5237 15.4999V8.79392H61.2317V9.74592C61.5817 9.03192 62.2537 8.61192 63.1357 8.61192C64.6757 8.61192 65.6697 9.68992 65.6697 11.4399V15.4999H63.9617V11.6919C63.9617 10.7819 63.4437 10.2079 62.6037 10.2079C61.7637 10.2079 61.2317 10.7819 61.2317 11.6919V15.4999H59.5237ZM70.5859 15.4999V6.52592H72.3359V13.8479H76.7179V15.4999H70.5859ZM80.3699 15.6819C78.6059 15.6819 77.1639 14.2399 77.1639 12.1399C77.1639 10.1239 78.5219 8.61192 80.3699 8.61192C81.2799 8.61192 81.9799 9.01792 82.4279 9.67592V8.79392H84.1359V15.4999H82.4279V14.5479C81.9799 15.2339 81.2799 15.6819 80.3699 15.6819ZM80.6499 14.0859C81.6859 14.0859 82.4279 13.2179 82.4279 12.1399C82.4279 11.0619 81.6859 10.2079 80.6499 10.2079C79.6139 10.2079 78.8719 11.0619 78.8719 12.1399C78.8719 13.2179 79.6139 14.0859 80.6499 14.0859ZM89.7995 8.61192C91.5635 8.61192 93.0195 10.0539 93.0195 12.1539C93.0195 14.1699 91.6615 15.6819 89.7995 15.6819C88.8895 15.6819 88.1895 15.2759 87.7415 14.6039V15.4999H86.0335V5.86792H87.7415V9.74592C88.1895 9.05992 88.8895 8.61192 89.7995 8.61192ZM89.5335 10.2079C88.4975 10.2079 87.7415 11.0759 87.7415 12.1539C87.7415 13.2319 88.4975 14.0859 89.5335 14.0859C90.5555 14.0859 91.3115 13.2319 91.3115 12.1539C91.3115 11.0759 90.5555 10.2079 89.5335 10.2079ZM97.633 15.6819C95.547 15.6819 94.035 14.0999 94.035 12.1399C94.035 10.1939 95.477 8.61192 97.409 8.61192C99.327 8.61192 100.797 10.0819 100.797 12.0139C100.797 12.2379 100.783 12.5039 100.755 12.6159H95.785C95.967 13.5399 96.667 14.1839 97.689 14.1839C98.375 14.1839 98.949 13.8899 99.341 13.4839L100.223 14.6599C99.705 15.2339 98.753 15.6819 97.633 15.6819ZM97.437 10.0539C96.625 10.0539 96.037 10.6139 95.827 11.4259H99.033C98.823 10.5299 98.221 10.0539 97.437 10.0539ZM104.756 14.0159L104.938 15.5139C104.686 15.5979 104.364 15.6539 104.112 15.6539C103.146 15.6539 102.166 15.0379 102.166 13.3299V5.86792H103.874V13.3719C103.874 13.8899 104.168 14.0859 104.476 14.0859C104.56 14.0859 104.672 14.0579 104.756 14.0159Z" fill="black"/>
<path fill-rule="evenodd" clip-rule="evenodd" d="M110 11.5C110 7.08854 113.589 3.5 118 3.5C122.411 3.5 126 7.08854 126 11.5C126 15.9115 122.411 19.5 118 19.5C113.589 19.5 110 15.9115 110 11.5ZM124.769 11.5C124.769 7.75312 121.747 4.73077 118 4.73077C114.253 4.73077 111.231 7.75312 111.231 11.5C111.231 15.2469 114.253 18.2692 118 18.2692C121.747 18.2692 124.769 15.2469 124.769 11.5ZM118.923 14.8846C118.923 15.3944 118.51 15.8077 118 15.8077C117.49 15.8077 117.077 15.3944 117.077 14.8846C117.077 14.3748 117.49 13.9615 118 13.9615C118.51 13.9615 118.923 14.3748 118.923 14.8846ZM115.231 9.92735C115.231 8.42361 116.477 7.19231 118 7.19231C119.523 7.19231 120.769 8.42361 120.769 9.92735C120.769 11.0358 120.039 12.0347 118.974 12.3846L118.692 12.4701V13.3462H117.308V12.4701C117.308 11.8851 117.694 11.351 118.26 11.1667L118.541 11.0812C119.044 10.9156 119.385 10.4509 119.385 9.92735C119.385 9.16346 118.773 8.55983 118 8.55983C117.227 8.55983 116.615 9.16346 116.615 9.92735H115.231Z" fill="#794CFF"/>
<path d="M222 27H8C3.85786 27 0.5 30.3579 0.5 34.5V62.5C0.5 66.6421 3.85786 70 8 70H222C226.142 70 229.5 66.6421 229.5 62.5V34.5C229.5 30.3579 226.142 27 222 27Z" fill="white"/>
<path d="M222 27H8C3.85786 27 0.5 30.3579 0.5 34.5V62.5C0.5 66.6421 3.85786 70 8 70H222C226.142 70 229.5 66.6421 229.5 62.5V34.5C229.5 30.3579 226.142 27 222 27Z" stroke="#EBEBEB"/>
<path d="M13.0234 52.5V43.54H16.0194C18.9734 43.54 21.0874 45.402 21.0874 48.02C21.0874 50.638 19.0014 52.5 16.0754 52.5H13.0234ZM16.0054 45.178H14.8294V50.848H16.0194C17.9374 50.848 19.2114 49.728 19.2114 48.02C19.2114 46.298 17.9374 45.178 16.0054 45.178ZM25.7697 52.682C23.6837 52.682 22.1717 51.1 22.1717 49.14C22.1717 47.194 23.6137 45.612 25.5457 45.612C27.4637 45.612 28.9337 47.082 28.9337 49.014C28.9337 49.238 28.9197 49.504 28.8917 49.616H23.9217C24.1037 50.54 24.8037 51.184 25.8257 51.184C26.5117 51.184 27.0857 50.89 27.4777 50.484L28.3597 51.66C27.8417 52.234 26.8897 52.682 25.7697 52.682ZM25.5737 47.054C24.7617 47.054 24.1737 47.614 23.9637 48.426H27.1697C26.9597 47.53 26.3577 47.054 25.5737 47.054ZM29.701 47.306V45.794H30.793V45.402C30.793 43.708 31.759 42.686 33.257 42.686C34.167 42.686 34.755 42.938 35.189 43.372L34.349 44.66C34.153 44.45 33.789 44.282 33.425 44.282C32.865 44.282 32.515 44.66 32.515 45.388V45.794H34.251V47.306H32.515V52.5H30.793V47.306H29.701ZM37.9149 52.682C36.1509 52.682 34.7089 51.24 34.7089 49.14C34.7089 47.124 36.0669 45.612 37.9149 45.612C38.8249 45.612 39.5249 46.018 39.9729 46.676V45.794H41.6809V52.5H39.9729V51.548C39.5249 52.234 38.8249 52.682 37.9149 52.682ZM38.1949 51.086C39.2309 51.086 39.9729 50.218 39.9729 49.14C39.9729 48.062 39.2309 47.208 38.1949 47.208C37.1589 47.208 36.4169 48.062 36.4169 49.14C36.4169 50.218 37.1589 51.086 38.1949 51.086ZM45.2024 45.794V49.42C45.2024 50.4 45.7624 51.058 46.6164 51.058C47.4704 51.058 48.0444 50.4 48.0444 49.42V45.794H49.7664V49.546C49.7664 51.422 48.5064 52.668 46.6164 52.668C44.7264 52.668 43.4944 51.422 43.4944 49.546V45.794H45.2024ZM54.1664 51.016L54.3484 52.514C54.0964 52.598 53.7744 52.654 53.5224 52.654C52.5564 52.654 51.5764 52.038 51.5764 50.33V42.868H53.2844V50.372C53.2844 50.89 53.5784 51.086 53.8864 51.086C53.9704 51.086 54.0824 51.058 54.1664 51.016ZM55.0877 47.306V45.794H56.2637V44.058H57.9857V45.794H59.7917V47.306H57.9997V50.162C57.9997 50.792 58.2517 51.086 58.7557 51.086C59.0777 51.086 59.3857 50.946 59.5537 50.75L60.3097 52.024C59.9457 52.388 59.3157 52.682 58.4897 52.682C57.1317 52.682 56.2637 51.842 56.2637 50.204V47.306H55.0877ZM68.6977 43.344C71.2597 43.344 73.3457 45.444 73.3457 48.034C73.3457 50.596 71.2597 52.682 68.6977 52.682C66.1357 52.682 64.0497 50.582 64.0497 48.02C64.0497 45.43 66.1357 43.344 68.6977 43.344ZM68.6977 50.946C70.2377 50.946 71.4837 49.63 71.4837 48.034C71.4837 46.41 70.2377 45.08 68.6977 45.08C67.1577 45.08 65.9257 46.396 65.9257 48.02C65.9257 49.63 67.1577 50.946 68.6977 50.946ZM76.5677 55.244H74.8597V45.794H76.5677V46.746C77.0157 46.06 77.7157 45.612 78.6257 45.612C80.3897 45.612 81.8457 47.054 81.8457 49.154C81.8457 51.17 80.4877 52.682 78.6257 52.682C77.7157 52.682 77.0157 52.276 76.5677 51.604V55.244ZM78.3597 51.086C79.3817 51.086 80.1377 50.232 80.1377 49.154C80.1377 48.076 79.3817 47.208 78.3597 47.208C77.3237 47.208 76.5677 48.076 76.5677 49.154C76.5677 50.232 77.3237 51.086 78.3597 51.086ZM82.6092 47.306V45.794H83.7852V44.058H85.5072V45.794H87.3132V47.306H85.5212V50.162C85.5212 50.792 85.7732 51.086 86.2772 51.086C86.5992 51.086 86.9072 50.946 87.0752 50.75L87.8312 52.024C87.4672 52.388 86.8372 52.682 86.0112 52.682C84.6532 52.682 83.7852 51.842 83.7852 50.204V47.306H82.6092ZM89.823 44.898C89.263 44.898 88.829 44.45 88.829 43.89C88.829 43.344 89.263 42.896 89.823 42.896C90.369 42.896 90.831 43.344 90.831 43.89C90.831 44.45 90.369 44.898 89.823 44.898ZM90.677 52.5H88.969V45.794H90.677V52.5ZM95.6441 52.682C93.6981 52.682 92.1581 51.1 92.1581 49.14C92.1581 47.194 93.6981 45.612 95.6441 45.612C97.5901 45.612 99.1301 47.194 99.1301 49.14C99.1301 51.1 97.5901 52.682 95.6441 52.682ZM95.6441 51.086C96.6801 51.086 97.4221 50.218 97.4221 49.14C97.4221 48.062 96.6801 47.208 95.6441 47.208C94.6081 47.208 93.8661 48.062 93.8661 49.14C93.8661 50.218 94.6081 51.086 95.6441 51.086ZM100.603 52.5V45.794H102.311V46.746C102.661 46.032 103.333 45.612 104.215 45.612C105.755 45.612 106.749 46.69 106.749 48.44V52.5H105.041V48.692C105.041 47.782 104.523 47.208 103.683 47.208C102.843 47.208 102.311 47.782 102.311 48.692V52.5H100.603Z" fill="black"/>
<path d="M212 51.5L207 46.4524L208 45.5L212 49.7857L216 45.5L217 46.4524L212 51.5Z" fill="black"/>
</g>
<defs>
<clipPath id="clip0_6343_39931">
<rect width="230" height="70" fill="white" transform="translate(0 0.5)"/>
</clipPath>
</defs>
</svg>
