<svg width="296" height="275" viewBox="0 0 296 275" fill="none" xmlns="http://www.w3.org/2000/svg">
<path d="M38.2066 5.84404C40.7686 5.84404 42.8546 7.94404 42.8546 10.534C42.8546 13.096 40.7686 15.182 38.2066 15.182C35.6446 15.182 33.5586 13.082 33.5586 10.52C33.5586 7.93004 35.6446 5.84404 38.2066 5.84404ZM38.2066 13.446C39.7466 13.446 40.9926 12.13 40.9926 10.534C40.9926 8.91004 39.7466 7.58004 38.2066 7.58004C36.6666 7.58004 35.4346 8.89604 35.4346 10.52C35.4346 12.13 36.6666 13.446 38.2066 13.446ZM43.7666 9.80604V8.29403H44.8586V7.90204C44.8586 6.20804 45.8246 5.18604 47.3226 5.18604C48.2326 5.18604 48.8206 5.43804 49.2546 5.87204L48.4146 7.16004C48.2186 6.95004 47.8546 6.78204 47.4906 6.78204C46.9306 6.78204 46.5806 7.16004 46.5806 7.88804V8.29403H48.3166V9.80604H46.5806V15H44.8586V9.80604H43.7666ZM49.1259 9.80604V8.29403H50.2179V8.16804C50.2179 6.32004 51.4359 5.18604 53.4939 5.18604C54.7959 5.18604 55.6779 5.55004 56.3079 6.08204L55.4539 7.42604C55.0199 7.03404 54.2919 6.78204 53.5919 6.78204C52.5559 6.78204 51.9399 7.24404 51.9399 8.21004V8.29403H56.2099V15H54.5019V9.80604H51.9399V15H50.2179V9.80604H49.1259ZM62.8408 10.324C62.4068 9.91804 61.9168 9.70804 61.2448 9.70804C60.1248 9.70804 59.3828 10.562 59.3828 11.64C59.3828 12.718 60.1388 13.586 61.2448 13.586C61.9168 13.586 62.4628 13.348 62.8968 12.928L63.7648 14.188C63.2328 14.776 62.2528 15.182 61.2028 15.182C59.2008 15.182 57.6748 13.6 57.6748 11.64C57.6748 9.69404 59.2148 8.11204 61.1748 8.11204C62.3088 8.11204 63.2188 8.49004 63.8208 9.10604L62.8408 10.324ZM67.8763 15.182C65.7903 15.182 64.2783 13.6 64.2783 11.64C64.2783 9.69404 65.7203 8.11204 67.6523 8.11204C69.5703 8.11204 71.0403 9.58204 71.0403 11.514C71.0403 11.738 71.0263 12.004 70.9983 12.116H66.0283C66.2103 13.04 66.9103 13.684 67.9323 13.684C68.6183 13.684 69.1923 13.39 69.5843 12.984L70.4663 14.16C69.9483 14.734 68.9963 15.182 67.8763 15.182ZM67.6803 9.55404C66.8683 9.55404 66.2803 10.114 66.0703 10.926H69.2763C69.0663 10.03 68.4643 9.55404 67.6803 9.55404ZM75.4737 15V6.02604H78.6797C80.8497 6.02604 82.2777 7.20204 82.2777 8.99404C82.2777 10.8 80.8357 11.99 78.6517 11.99H77.2237V15H75.4737ZM78.8197 7.58004H77.2237V10.436H78.8197C79.7857 10.436 80.4297 9.86204 80.4297 8.99404C80.4297 8.14004 79.7857 7.58004 78.8197 7.58004ZM83.6479 15V8.29403H85.3559V9.28804C85.6779 8.57404 86.2519 8.11204 87.0079 8.11204C87.4559 8.11204 87.8199 8.22404 88.0719 8.43404L87.3719 10.044C87.1479 9.87603 86.8119 9.76404 86.4759 9.76404C85.8039 9.76404 85.3559 10.338 85.3559 11.248V15H83.6479ZM91.8431 15.182C89.7571 15.182 88.2451 13.6 88.2451 11.64C88.2451 9.69404 89.6871 8.11204 91.6191 8.11204C93.5371 8.11204 95.0071 9.58204 95.0071 11.514C95.0071 11.738 94.9931 12.004 94.9651 12.116H89.9951C90.1771 13.04 90.8771 13.684 91.8991 13.684C92.5851 13.684 93.1591 13.39 93.5511 12.984L94.4331 14.16C93.9151 14.734 92.9631 15.182 91.8431 15.182ZM91.6471 9.55404C90.8351 9.55404 90.2471 10.114 90.0371 10.926H93.2431C93.0331 10.03 92.4311 9.55404 91.6471 9.55404ZM95.7744 9.80604V8.29403H96.8664V7.90204C96.8664 6.20804 97.8324 5.18604 99.3304 5.18604C100.241 5.18604 100.829 5.43804 101.263 5.87204L100.423 7.16004C100.227 6.95004 99.8624 6.78204 99.4984 6.78204C98.9384 6.78204 98.5884 7.16004 98.5884 7.88804V8.29403H100.325V9.80604H98.5884V15H96.8664V9.80604H95.7744ZM104.381 15.182C102.295 15.182 100.783 13.6 100.783 11.64C100.783 9.69404 102.225 8.11204 104.157 8.11204C106.075 8.11204 107.545 9.58204 107.545 11.514C107.545 11.738 107.531 12.004 107.503 12.116H102.533C102.715 13.04 103.415 13.684 104.437 13.684C105.123 13.684 105.697 13.39 106.089 12.984L106.971 14.16C106.453 14.734 105.501 15.182 104.381 15.182ZM104.185 9.55404C103.373 9.55404 102.785 10.114 102.575 10.926H105.781C105.571 10.03 104.969 9.55404 104.185 9.55404ZM108.914 15V8.29403H110.622V9.28804C110.944 8.57404 111.518 8.11204 112.274 8.11204C112.722 8.11204 113.086 8.22404 113.338 8.43404L112.638 10.044C112.414 9.87603 112.078 9.76404 111.742 9.76404C111.07 9.76404 110.622 10.338 110.622 11.248V15H108.914ZM117.109 15.182C115.023 15.182 113.511 13.6 113.511 11.64C113.511 9.69404 114.953 8.11204 116.885 8.11204C118.803 8.11204 120.273 9.58204 120.273 11.514C120.273 11.738 120.259 12.004 120.231 12.116H115.261C115.443 13.04 116.143 13.684 117.165 13.684C117.851 13.684 118.425 13.39 118.817 12.984L119.699 14.16C119.181 14.734 118.229 15.182 117.109 15.182ZM116.913 9.55404C116.101 9.55404 115.513 10.114 115.303 10.926H118.509C118.299 10.03 117.697 9.55404 116.913 9.55404ZM121.642 15V8.29403H123.35V9.24604C123.7 8.53204 124.372 8.11204 125.254 8.11204C126.794 8.11204 127.788 9.19003 127.788 10.94V15H126.08V11.192C126.08 10.282 125.562 9.70804 124.722 9.70804C123.882 9.70804 123.35 10.282 123.35 11.192V15H121.642ZM134.372 10.324C133.938 9.91804 133.448 9.70804 132.776 9.70804C131.656 9.70804 130.914 10.562 130.914 11.64C130.914 12.718 131.67 13.586 132.776 13.586C133.448 13.586 133.994 13.348 134.428 12.928L135.296 14.188C134.764 14.776 133.784 15.182 132.734 15.182C130.732 15.182 129.206 13.6 129.206 11.64C129.206 9.69404 130.746 8.11204 132.706 8.11204C133.84 8.11204 134.75 8.49004 135.352 9.10604L134.372 10.324ZM139.408 15.182C137.322 15.182 135.81 13.6 135.81 11.64C135.81 9.69404 137.252 8.11204 139.184 8.11204C141.102 8.11204 142.572 9.58204 142.572 11.514C142.572 11.738 142.558 12.004 142.53 12.116H137.56C137.742 13.04 138.442 13.684 139.464 13.684C140.15 13.684 140.724 13.39 141.116 12.984L141.998 14.16C141.48 14.734 140.528 15.182 139.408 15.182ZM139.212 9.55404C138.4 9.55404 137.812 10.114 137.602 10.926H140.808C140.598 10.03 139.996 9.55404 139.212 9.55404Z" fill="black"/>
<path fill-rule="evenodd" clip-rule="evenodd" d="M147 11C147 6.58854 150.589 3 155 3C159.411 3 163 6.58854 163 11C163 15.4115 159.411 19 155 19C150.589 19 147 15.4115 147 11ZM161.769 11C161.769 7.25312 158.747 4.23077 155 4.23077C151.253 4.23077 148.231 7.25312 148.231 11C148.231 14.7469 151.253 17.7692 155 17.7692C158.747 17.7692 161.769 14.7469 161.769 11ZM155.923 14.3846C155.923 14.8944 155.51 15.3077 155 15.3077C154.49 15.3077 154.077 14.8944 154.077 14.3846C154.077 13.8748 154.49 13.4615 155 13.4615C155.51 13.4615 155.923 13.8748 155.923 14.3846ZM152.231 9.42735C152.231 7.92361 153.477 6.69231 155 6.69231C156.523 6.69231 157.769 7.92361 157.769 9.42735C157.769 10.5358 157.039 11.5347 155.974 11.8846L155.692 11.9701V12.8462H154.308V11.9701C154.308 11.3851 154.694 10.851 155.26 10.6667L155.541 10.5812C156.044 10.4156 156.385 9.95086 156.385 9.42735C156.385 8.66346 155.773 8.05983 155 8.05983C154.227 8.05983 153.615 8.66346 153.615 9.42735H152.231Z" fill="#794CFF"/>
<path d="M255 27H41C37.134 27 34 30.134 34 34V62C34 65.866 37.134 69 41 69H255C258.866 69 262 65.866 262 62V34C262 30.134 258.866 27 255 27Z" fill="white"/>
<path d="M255 27H41C37.134 27 34 30.134 34 34V62C34 65.866 37.134 69 41 69H255C258.866 69 262 65.866 262 62V34C262 30.134 258.866 27 255 27Z" stroke="#D6D6D6" stroke-width="2"/>
<path d="M47.0716 52.0139C46.6516 51.9019 46.1196 51.6359 45.4336 51.1879L46.1896 49.7179C46.9456 50.1939 48.0376 50.5299 48.9196 50.5299C49.8016 50.5299 50.4596 50.2079 50.4596 49.4939C50.4596 47.8979 45.7416 48.6539 45.7416 45.4759C45.7416 43.8099 47.2676 42.8299 49.0876 42.8299C50.2216 42.8299 51.2856 43.1379 52.1116 43.7679L51.2576 45.1539C50.6836 44.7759 49.7876 44.4679 49.0036 44.4679C48.1916 44.4679 47.6176 44.8459 47.6176 45.4339C47.6176 47.0719 52.3216 46.3439 52.3216 49.3959C52.3216 51.2439 50.6976 52.1819 48.7936 52.1819C48.0516 52.1819 47.4776 52.1259 47.0716 52.0139ZM56.8949 52.1819C54.8089 52.1819 53.2969 50.5999 53.2969 48.6399C53.2969 46.6939 54.7389 45.1119 56.6709 45.1119C58.5889 45.1119 60.0589 46.5819 60.0589 48.5139C60.0589 48.7379 60.0449 49.0039 60.0169 49.1159H55.0469C55.2289 50.0399 55.9289 50.6839 56.9509 50.6839C57.6369 50.6839 58.2109 50.3899 58.6029 49.9839L59.4849 51.1599C58.9669 51.7339 58.0149 52.1819 56.8949 52.1819ZM56.6989 46.5539C55.8869 46.5539 55.2989 47.1139 55.0889 47.9259H58.2949C58.0849 47.0299 57.4829 46.5539 56.6989 46.5539ZM64.0182 50.5159L64.2002 52.0139C63.9482 52.0979 63.6262 52.1539 63.3742 52.1539C62.4082 52.1539 61.4282 51.5379 61.4282 49.8299V42.3679H63.1362V49.8719C63.1362 50.3899 63.4302 50.5859 63.7382 50.5859C63.8222 50.5859 63.9342 50.5579 64.0182 50.5159ZM68.7894 52.1819C66.7034 52.1819 65.1914 50.5999 65.1914 48.6399C65.1914 46.6939 66.6334 45.1119 68.5654 45.1119C70.4834 45.1119 71.9534 46.5819 71.9534 48.5139C71.9534 48.7379 71.9394 49.0039 71.9114 49.1159H66.9414C67.1234 50.0399 67.8234 50.6839 68.8454 50.6839C69.5314 50.6839 70.1054 50.3899 70.4974 49.9839L71.3794 51.1599C70.8614 51.7339 69.9094 52.1819 68.7894 52.1819ZM68.5934 46.5539C67.7814 46.5539 67.1934 47.1139 66.9834 47.9259H70.1894C69.9794 47.0299 69.3774 46.5539 68.5934 46.5539ZM78.0547 47.3239C77.6207 46.9179 77.1307 46.7079 76.4587 46.7079C75.3387 46.7079 74.5967 47.5619 74.5967 48.6399C74.5967 49.7179 75.3527 50.5859 76.4587 50.5859C77.1307 50.5859 77.6767 50.3479 78.1107 49.9279L78.9787 51.1879C78.4467 51.7759 77.4667 52.1819 76.4167 52.1819C74.4147 52.1819 72.8887 50.5999 72.8887 48.6399C72.8887 46.6939 74.4287 45.1119 76.3887 45.1119C77.5227 45.1119 78.4327 45.4899 79.0347 46.1059L78.0547 47.3239ZM79.4726 46.8059V45.2939H80.6486V43.5579H82.3706V45.2939H84.1766V46.8059H82.3846V49.6619C82.3846 50.2919 82.6366 50.5859 83.1406 50.5859C83.4626 50.5859 83.7706 50.4459 83.9386 50.2499L84.6946 51.5239C84.3306 51.8879 83.7006 52.1819 82.8746 52.1819C81.5166 52.1819 80.6486 51.3419 80.6486 49.7039V46.8059H79.4726ZM88.8966 51.9999V43.0259H90.6466V50.3479H95.0286V51.9999H88.8966ZM98.9606 52.1819C97.0146 52.1819 95.4746 50.5999 95.4746 48.6399C95.4746 46.6939 97.0146 45.1119 98.9606 45.1119C100.907 45.1119 102.447 46.6939 102.447 48.6399C102.447 50.5999 100.907 52.1819 98.9606 52.1819ZM98.9606 50.5859C99.9966 50.5859 100.739 49.7179 100.739 48.6399C100.739 47.5619 99.9966 46.7079 98.9606 46.7079C97.9246 46.7079 97.1826 47.5619 97.1826 48.6399C97.1826 49.7179 97.9246 50.5859 98.9606 50.5859ZM108.653 47.3239C108.219 46.9179 107.729 46.7079 107.057 46.7079C105.937 46.7079 105.195 47.5619 105.195 48.6399C105.195 49.7179 105.951 50.5859 107.057 50.5859C107.729 50.5859 108.275 50.3479 108.709 49.9279L109.577 51.1879C109.045 51.7759 108.065 52.1819 107.015 52.1819C105.013 52.1819 103.487 50.5999 103.487 48.6399C103.487 46.6939 105.027 45.1119 106.987 45.1119C108.121 45.1119 109.031 45.4899 109.633 46.1059L108.653 47.3239ZM113.296 52.1819C111.532 52.1819 110.09 50.7399 110.09 48.6399C110.09 46.6239 111.448 45.1119 113.296 45.1119C114.206 45.1119 114.906 45.5179 115.354 46.1759V45.2939H117.062V51.9999H115.354V51.0479C114.906 51.7339 114.206 52.1819 113.296 52.1819ZM113.576 50.5859C114.612 50.5859 115.354 49.7179 115.354 48.6399C115.354 47.5619 114.612 46.7079 113.576 46.7079C112.54 46.7079 111.798 47.5619 111.798 48.6399C111.798 49.7179 112.54 50.5859 113.576 50.5859ZM118.274 46.8059V45.2939H119.45V43.5579H121.172V45.2939H122.978V46.8059H121.186V49.6619C121.186 50.2919 121.438 50.5859 121.942 50.5859C122.264 50.5859 122.572 50.4459 122.74 50.2499L123.496 51.5239C123.132 51.8879 122.502 52.1819 121.676 52.1819C120.318 52.1819 119.45 51.3419 119.45 49.7039V46.8059H118.274ZM125.488 44.3979C124.928 44.3979 124.494 43.9499 124.494 43.3899C124.494 42.8439 124.928 42.3959 125.488 42.3959C126.034 42.3959 126.496 42.8439 126.496 43.3899C126.496 43.9499 126.034 44.3979 125.488 44.3979ZM126.342 51.9999H124.634V45.2939H126.342V51.9999ZM131.309 52.1819C129.363 52.1819 127.823 50.5999 127.823 48.6399C127.823 46.6939 129.363 45.1119 131.309 45.1119C133.255 45.1119 134.795 46.6939 134.795 48.6399C134.795 50.5999 133.255 52.1819 131.309 52.1819ZM131.309 50.5859C132.345 50.5859 133.087 49.7179 133.087 48.6399C133.087 47.5619 132.345 46.7079 131.309 46.7079C130.273 46.7079 129.531 47.5619 129.531 48.6399C129.531 49.7179 130.273 50.5859 131.309 50.5859ZM136.268 51.9999V45.2939H137.976V46.2459C138.326 45.5319 138.998 45.1119 139.88 45.1119C141.42 45.1119 142.414 46.1899 142.414 47.9399V51.9999H140.706V48.1919C140.706 47.2819 140.188 46.7079 139.348 46.7079C138.508 46.7079 137.976 47.2819 137.976 48.1919V51.9999H136.268Z" fill="black"/>
<path d="M245 51L240 45.9524L241 45L245 49.2857L249 45L250 45.9524L245 51Z" fill="black"/>
<g filter="url(#filter0_d_6343_39710)">
<mask id="mask0_6343_39710" style="mask-type:luminance" maskUnits="userSpaceOnUse" x="33" y="74" width="230" height="152">
<path d="M255 74H41C36.5817 74 33 77.5817 33 82V218C33 222.418 36.5817 226 41 226H255C259.418 226 263 222.418 263 218V82C263 77.5817 259.418 74 255 74Z" fill="white"/>
</mask>
<g mask="url(#mask0_6343_39710)">
<path d="M255 74H41C36.5817 74 33 77.5817 33 82V218C33 222.418 36.5817 226 41 226H255C259.418 226 263 222.418 263 218V82C263 77.5817 259.418 74 255 74Z" fill="white"/>
<path d="M263 74H33V118H263V74Z" fill="white"/>
<path d="M46.0234 99.9999V91.0259H47.7734V99.9999H46.0234ZM49.7679 99.9999V93.2939H51.4759V94.2459C51.8259 93.5319 52.4979 93.1119 53.3799 93.1119C54.9199 93.1119 55.9139 94.1899 55.9139 95.9399V99.9999H54.2059V96.1919C54.2059 95.2819 53.6879 94.7079 52.8479 94.7079C52.0079 94.7079 51.4759 95.2819 51.4759 96.1919V99.9999H49.7679ZM59.8239 100.182C58.7459 100.182 57.8639 99.9019 57.2059 99.5379L57.7519 98.2219C58.5219 98.5859 59.1659 98.7819 59.9079 98.7819C60.6639 98.7819 61.0139 98.5159 61.0139 98.1239C61.0139 96.9199 57.4019 97.6339 57.4019 95.0999C57.4019 94.0919 58.2979 93.1119 60.0199 93.1119C60.9579 93.1119 61.6719 93.3079 62.5259 93.7139L61.8959 94.9879C61.4199 94.7219 60.7059 94.5119 60.1599 94.5119C59.5159 94.5119 59.1239 94.7219 59.1239 95.0859C59.1239 96.3179 62.7079 95.5479 62.7079 98.0959C62.7079 99.2579 61.6719 100.182 59.8239 100.182ZM64.9637 92.3979C64.4037 92.3979 63.9697 91.9499 63.9697 91.3899C63.9697 90.8439 64.4037 90.3959 64.9637 90.3959C65.5097 90.3959 65.9717 90.8439 65.9717 91.3899C65.9717 91.9499 65.5097 92.3979 64.9637 92.3979ZM65.8177 99.9999H64.1097V93.2939H65.8177V99.9999ZM70.5047 100.182C68.7407 100.182 67.2987 98.7399 67.2987 96.6399C67.2987 94.6239 68.6567 93.1119 70.5047 93.1119C71.4147 93.1119 72.1147 93.5179 72.5627 94.1759V90.3679H74.2707V99.9999H72.5627V99.0479C72.1147 99.7339 71.4147 100.182 70.5047 100.182ZM70.7847 98.5859C71.8207 98.5859 72.5627 97.7179 72.5627 96.6399C72.5627 95.5619 71.8207 94.7079 70.7847 94.7079C69.7487 94.7079 69.0067 95.5619 69.0067 96.6399C69.0067 97.7179 69.7487 98.5859 70.7847 98.5859ZM79.3322 100.182C77.2462 100.182 75.7342 98.5999 75.7342 96.6399C75.7342 94.6939 77.1762 93.1119 79.1082 93.1119C81.0262 93.1119 82.4962 94.5819 82.4962 96.5139C82.4962 96.7379 82.4822 97.0039 82.4542 97.1159H77.4842C77.6662 98.0399 78.3662 98.6839 79.3882 98.6839C80.0742 98.6839 80.6482 98.3899 81.0402 97.9839L81.9222 99.1599C81.4042 99.7339 80.4522 100.182 79.3322 100.182ZM79.1362 94.5539C78.3242 94.5539 77.7362 95.1139 77.5262 95.9259H80.7322C80.5222 95.0299 79.9202 94.5539 79.1362 94.5539ZM88.5677 99.9999H86.8597V93.2939H88.5677V94.3159C88.9177 93.5879 89.5757 93.1119 90.4577 93.1119C91.4797 93.1119 92.2637 93.6159 92.6557 94.5119C93.0057 93.7139 93.6497 93.1119 94.7137 93.1119C96.2677 93.1119 97.2897 94.1479 97.2897 95.9399V99.9999H95.5677V96.1919C95.5677 95.2819 95.0637 94.7079 94.2517 94.7079C93.4397 94.7079 92.9217 95.2819 92.9217 96.1919V99.9999H91.2137V96.1919C91.2137 95.2819 90.7097 94.7079 89.8977 94.7079C89.0857 94.7079 88.5677 95.2819 88.5677 96.1919V99.9999ZM101.169 100.266L101.225 100.098L98.1596 93.2939H100.035L101.995 97.9139L103.605 93.2939H105.327L102.583 100.854C102.065 102.324 101.211 102.926 100.091 102.926C99.3776 102.926 98.6916 102.632 98.2576 102.226L99.0276 100.882C99.3496 101.19 99.7136 101.33 100.105 101.33C100.581 101.33 100.889 101.05 101.169 100.266ZM109.459 99.9999V90.3679H111.167V94.2459C111.517 93.5319 112.189 93.1119 113.071 93.1119C114.611 93.1119 115.605 94.1899 115.605 95.9399V99.9999H113.897V96.1919C113.897 95.2819 113.379 94.7079 112.539 94.7079C111.699 94.7079 111.167 95.2819 111.167 96.1919V99.9999H109.459ZM120.509 100.182C118.563 100.182 117.023 98.5999 117.023 96.6399C117.023 94.6939 118.563 93.1119 120.509 93.1119C122.455 93.1119 123.995 94.6939 123.995 96.6399C123.995 98.5999 122.455 100.182 120.509 100.182ZM120.509 98.5859C121.545 98.5859 122.287 97.7179 122.287 96.6399C122.287 95.5619 121.545 94.7079 120.509 94.7079C119.473 94.7079 118.731 95.5619 118.731 96.6399C118.731 97.7179 119.473 98.5859 120.509 98.5859ZM127.093 93.2939V96.9199C127.093 97.8999 127.653 98.5579 128.507 98.5579C129.361 98.5579 129.935 97.8999 129.935 96.9199V93.2939H131.657V97.0459C131.657 98.9219 130.397 100.168 128.507 100.168C126.617 100.168 125.385 98.9219 125.385 97.0459V93.2939H127.093ZM135.525 100.182C134.447 100.182 133.565 99.9019 132.907 99.5379L133.453 98.2219C134.223 98.5859 134.867 98.7819 135.609 98.7819C136.365 98.7819 136.715 98.5159 136.715 98.1239C136.715 96.9199 133.103 97.6339 133.103 95.0999C133.103 94.0919 133.999 93.1119 135.721 93.1119C136.659 93.1119 137.373 93.3079 138.227 93.7139L137.597 94.9879C137.121 94.7219 136.407 94.5119 135.861 94.5119C135.217 94.5119 134.825 94.7219 134.825 95.0859C134.825 96.3179 138.409 95.5479 138.409 98.0959C138.409 99.2579 137.373 100.182 135.525 100.182ZM142.974 100.182C140.888 100.182 139.376 98.5999 139.376 96.6399C139.376 94.6939 140.818 93.1119 142.75 93.1119C144.668 93.1119 146.138 94.5819 146.138 96.5139C146.138 96.7379 146.124 97.0039 146.096 97.1159H141.126C141.308 98.0399 142.008 98.6839 143.03 98.6839C143.716 98.6839 144.29 98.3899 144.682 97.9839L145.564 99.1599C145.046 99.7339 144.094 100.182 142.974 100.182ZM142.778 94.5539C141.966 94.5539 141.378 95.1139 141.168 95.9259H144.374C144.164 95.0299 143.562 94.5539 142.778 94.5539ZM154.268 93.1119C156.032 93.1119 157.488 94.5539 157.488 96.6539C157.488 98.6699 156.13 100.182 154.268 100.182C153.358 100.182 152.658 99.7759 152.21 99.1039V99.9999H150.502V90.3679H152.21V94.2459C152.658 93.5599 153.358 93.1119 154.268 93.1119ZM154.002 94.7079C152.966 94.7079 152.21 95.5759 152.21 96.6539C152.21 97.7319 152.966 98.5859 154.002 98.5859C155.024 98.5859 155.78 97.7319 155.78 96.6539C155.78 95.5759 155.024 94.7079 154.002 94.7079ZM161.079 100.266L161.135 100.098L158.069 93.2939H159.945L161.905 97.9139L163.515 93.2939H165.237L162.493 100.854C161.975 102.324 161.121 102.926 160.001 102.926C159.287 102.926 158.601 102.632 158.167 102.226L158.937 100.882C159.259 101.19 159.623 101.33 160.015 101.33C160.491 101.33 160.799 101.05 161.079 100.266ZM168.683 94.8059V93.2939H169.859V91.5579H171.581V93.2939H173.387V94.8059H171.595V97.6619C171.595 98.2919 171.847 98.5859 172.351 98.5859C172.673 98.5859 172.981 98.4459 173.149 98.2499L173.905 99.5239C173.541 99.8879 172.911 100.182 172.085 100.182C170.727 100.182 169.859 99.3419 169.859 97.7039V94.8059H168.683ZM175.043 99.9999V90.3679H176.751V94.2459C177.101 93.5319 177.773 93.1119 178.655 93.1119C180.195 93.1119 181.189 94.1899 181.189 95.9399V99.9999H179.481V96.1919C179.481 95.2819 178.963 94.7079 178.123 94.7079C177.283 94.7079 176.751 95.2819 176.751 96.1919V99.9999H175.043ZM186.205 100.182C184.119 100.182 182.607 98.5999 182.607 96.6399C182.607 94.6939 184.049 93.1119 185.981 93.1119C187.899 93.1119 189.369 94.5819 189.369 96.5139C189.369 96.7379 189.355 97.0039 189.327 97.1159H184.357C184.539 98.0399 185.239 98.6839 186.261 98.6839C186.947 98.6839 187.521 98.3899 187.913 97.9839L188.795 99.1599C188.277 99.7339 187.325 100.182 186.205 100.182ZM186.009 94.5539C185.197 94.5539 184.609 95.1139 184.399 95.9259H187.605C187.395 95.0299 186.793 94.5539 186.009 94.5539ZM197.05 99.9999H195.118L193.046 93.2939H194.88L196.126 98.1239L197.484 93.2939H199.332L200.718 98.1519L201.992 93.2939H203.826L201.754 99.9999H199.626L198.324 95.4499L197.05 99.9999ZM205.893 92.3979C205.333 92.3979 204.899 91.9499 204.899 91.3899C204.899 90.8439 205.333 90.3959 205.893 90.3959C206.439 90.3959 206.901 90.8439 206.901 91.3899C206.901 91.9499 206.439 92.3979 205.893 92.3979ZM206.747 99.9999H205.039V93.2939H206.747V99.9999ZM208.662 99.9999V93.2939H210.37V94.2459C210.72 93.5319 211.392 93.1119 212.274 93.1119C213.814 93.1119 214.808 94.1899 214.808 95.9399V99.9999H213.1V96.1919C213.1 95.2819 212.582 94.7079 211.742 94.7079C210.902 94.7079 210.37 95.2819 210.37 96.1919V99.9999H208.662ZM219.432 100.182C217.668 100.182 216.226 98.7399 216.226 96.6399C216.226 94.6239 217.584 93.1119 219.432 93.1119C220.342 93.1119 221.042 93.5179 221.49 94.1759V90.3679H223.198V99.9999H221.49V99.0479C221.042 99.7339 220.342 100.182 219.432 100.182ZM219.712 98.5859C220.748 98.5859 221.49 97.7179 221.49 96.6399C221.49 95.5619 220.748 94.7079 219.712 94.7079C218.676 94.7079 217.934 95.5619 217.934 96.6399C217.934 97.7179 218.676 98.5859 219.712 98.5859ZM228.148 100.182C226.202 100.182 224.662 98.5999 224.662 96.6399C224.662 94.6939 226.202 93.1119 228.148 93.1119C230.094 93.1119 231.634 94.6939 231.634 96.6399C231.634 98.5999 230.094 100.182 228.148 100.182ZM228.148 98.5859C229.184 98.5859 229.926 97.7179 229.926 96.6399C229.926 95.5619 229.184 94.7079 228.148 94.7079C227.112 94.7079 226.37 95.5619 226.37 96.6399C226.37 97.7179 227.112 98.5859 228.148 98.5859ZM236.111 99.9999H234.179L232.107 93.2939H233.941L235.187 98.1239L236.545 93.2939H238.393L239.779 98.1519L241.053 93.2939H242.887L240.815 99.9999H238.687L237.385 95.4499L236.111 99.9999Z" fill="black"/>
<path d="M263 118H33V162H263V118Z" fill="#EBEBEB"/>
<path d="M53.4826 136.062L52.3206 137.406C51.8026 136.93 51.0746 136.58 50.1786 136.58C48.6526 136.58 47.4346 137.896 47.4346 139.52C47.4346 141.13 48.6526 142.446 50.2906 142.446C51.0606 142.446 51.8306 142.152 52.3346 141.634L53.4826 142.922C52.6986 143.79 51.6206 144.182 50.1786 144.182C47.5606 144.182 45.5586 142.082 45.5586 139.52C45.5586 136.93 47.6306 134.844 50.1646 134.844C51.6766 134.844 52.7406 135.306 53.4826 136.062ZM57.4928 144.182C55.5468 144.182 54.0068 142.6 54.0068 140.64C54.0068 138.694 55.5468 137.112 57.4928 137.112C59.4388 137.112 60.9788 138.694 60.9788 140.64C60.9788 142.6 59.4388 144.182 57.4928 144.182ZM57.4928 142.586C58.5288 142.586 59.2708 141.718 59.2708 140.64C59.2708 139.562 58.5288 138.708 57.4928 138.708C56.4568 138.708 55.7148 139.562 55.7148 140.64C55.7148 141.718 56.4568 142.586 57.4928 142.586ZM61.8506 138.806V137.294H62.9426V136.902C62.9426 135.208 63.9086 134.186 65.4066 134.186C66.3166 134.186 66.9046 134.438 67.3386 134.872L66.4986 136.16C66.3026 135.95 65.9386 135.782 65.5746 135.782C65.0146 135.782 64.6646 136.16 64.6646 136.888V137.294H66.4006V138.806H64.6646V144H62.9426V138.806H61.8506ZM67.2099 138.806V137.294H68.3019V136.902C68.3019 135.208 69.2679 134.186 70.7659 134.186C71.6759 134.186 72.2639 134.438 72.6979 134.872L71.8579 136.16C71.6619 135.95 71.2979 135.782 70.9339 135.782C70.3739 135.782 70.0239 136.16 70.0239 136.888V137.294H71.7599V138.806H70.0239V144H68.3019V138.806H67.2099ZM75.8158 144.182C73.7298 144.182 72.2178 142.6 72.2178 140.64C72.2178 138.694 73.6598 137.112 75.5918 137.112C77.5098 137.112 78.9798 138.582 78.9798 140.514C78.9798 140.738 78.9658 141.004 78.9378 141.116H73.9678C74.1498 142.04 74.8498 142.684 75.8718 142.684C76.5578 142.684 77.1318 142.39 77.5238 141.984L78.4058 143.16C77.8878 143.734 76.9358 144.182 75.8158 144.182ZM75.6198 138.554C74.8078 138.554 74.2198 139.114 74.0098 139.926H77.2158C77.0058 139.03 76.4038 138.554 75.6198 138.554ZM83.513 144.182C81.427 144.182 79.915 142.6 79.915 140.64C79.915 138.694 81.357 137.112 83.289 137.112C85.207 137.112 86.677 138.582 86.677 140.514C86.677 140.738 86.663 141.004 86.635 141.116H81.665C81.847 142.04 82.547 142.684 83.569 142.684C84.255 142.684 84.829 142.39 85.221 141.984L86.103 143.16C85.585 143.734 84.633 144.182 83.513 144.182ZM83.317 138.554C82.505 138.554 81.917 139.114 81.707 139.926H84.913C84.703 139.03 84.101 138.554 83.317 138.554ZM93.0984 144.182C92.0204 144.182 91.1384 143.902 90.4804 143.538L91.0264 142.222C91.7964 142.586 92.4404 142.782 93.1824 142.782C93.9384 142.782 94.2884 142.516 94.2884 142.124C94.2884 140.92 90.6764 141.634 90.6764 139.1C90.6764 138.092 91.5724 137.112 93.2944 137.112C94.2324 137.112 94.9464 137.308 95.8004 137.714L95.1704 138.988C94.6944 138.722 93.9804 138.512 93.4344 138.512C92.7904 138.512 92.3984 138.722 92.3984 139.086C92.3984 140.318 95.9824 139.548 95.9824 142.096C95.9824 143.258 94.9464 144.182 93.0984 144.182ZM97.3842 144V134.368H99.0922V138.246C99.4422 137.532 100.115 137.112 100.997 137.112C102.537 137.112 103.531 138.19 103.531 139.94V144H101.823V140.192C101.823 139.282 101.305 138.708 100.465 138.708C99.6242 138.708 99.0922 139.282 99.0922 140.192V144H97.3842ZM108.435 144.182C106.489 144.182 104.949 142.6 104.949 140.64C104.949 138.694 106.489 137.112 108.435 137.112C110.381 137.112 111.921 138.694 111.921 140.64C111.921 142.6 110.381 144.182 108.435 144.182ZM108.435 142.586C109.471 142.586 110.213 141.718 110.213 140.64C110.213 139.562 109.471 138.708 108.435 138.708C107.399 138.708 106.657 139.562 106.657 140.64C106.657 141.718 107.399 142.586 108.435 142.586ZM115.102 146.744H113.394V137.294H115.102V138.246C115.55 137.56 116.25 137.112 117.16 137.112C118.924 137.112 120.38 138.554 120.38 140.654C120.38 142.67 119.022 144.182 117.16 144.182C116.25 144.182 115.55 143.776 115.102 143.104V146.744ZM116.894 142.586C117.916 142.586 118.672 141.732 118.672 140.654C118.672 139.576 117.916 138.708 116.894 138.708C115.858 138.708 115.102 139.576 115.102 140.654C115.102 141.732 115.858 142.586 116.894 142.586ZM128.59 137.112C130.354 137.112 131.81 138.554 131.81 140.654C131.81 142.67 130.452 144.182 128.59 144.182C127.68 144.182 126.98 143.776 126.532 143.104V144H124.824V134.368H126.532V138.246C126.98 137.56 127.68 137.112 128.59 137.112ZM128.324 138.708C127.288 138.708 126.532 139.576 126.532 140.654C126.532 141.732 127.288 142.586 128.324 142.586C129.346 142.586 130.102 141.732 130.102 140.654C130.102 139.576 129.346 138.708 128.324 138.708ZM135.402 144.266L135.458 144.098L132.392 137.294H134.268L136.228 141.914L137.838 137.294H139.56L136.816 144.854C136.298 146.324 135.444 146.926 134.324 146.926C133.61 146.926 132.924 146.632 132.49 146.226L133.26 144.882C133.582 145.19 133.946 145.33 134.338 145.33C134.814 145.33 135.122 145.05 135.402 144.266ZM143.005 138.806V137.294H144.181V135.558H145.903V137.294H147.709V138.806H145.917V141.662C145.917 142.292 146.169 142.586 146.673 142.586C146.995 142.586 147.303 142.446 147.471 142.25L148.227 143.524C147.863 143.888 147.233 144.182 146.407 144.182C145.049 144.182 144.181 143.342 144.181 141.704V138.806H143.005ZM149.365 144V134.368H151.073V138.246C151.423 137.532 152.095 137.112 152.977 137.112C154.517 137.112 155.511 138.19 155.511 139.94V144H153.803V140.192C153.803 139.282 153.285 138.708 152.445 138.708C151.605 138.708 151.073 139.282 151.073 140.192V144H149.365ZM160.527 144.182C158.441 144.182 156.929 142.6 156.929 140.64C156.929 138.694 158.371 137.112 160.303 137.112C162.221 137.112 163.691 138.582 163.691 140.514C163.691 140.738 163.677 141.004 163.649 141.116H158.679C158.861 142.04 159.561 142.684 160.583 142.684C161.269 142.684 161.843 142.39 162.235 141.984L163.117 143.16C162.599 143.734 161.647 144.182 160.527 144.182ZM160.331 138.554C159.519 138.554 158.931 139.114 158.721 139.926H161.927C161.717 139.03 161.115 138.554 160.331 138.554ZM167.453 138.806V137.294H168.545V137.168C168.545 135.32 169.763 134.186 171.821 134.186C173.123 134.186 174.005 134.55 174.635 135.082L173.781 136.426C173.347 136.034 172.619 135.782 171.919 135.782C170.883 135.782 170.267 136.244 170.267 137.21V137.294H174.537V144H172.829V138.806H170.267V144H168.545V138.806H167.453ZM176.435 144V137.294H178.143V138.288C178.465 137.574 179.039 137.112 179.795 137.112C180.243 137.112 180.607 137.224 180.859 137.434L180.159 139.044C179.935 138.876 179.599 138.764 179.263 138.764C178.591 138.764 178.143 139.338 178.143 140.248V144H176.435ZM184.631 144.182C182.545 144.182 181.033 142.6 181.033 140.64C181.033 138.694 182.475 137.112 184.407 137.112C186.325 137.112 187.795 138.582 187.795 140.514C187.795 140.738 187.781 141.004 187.753 141.116H182.783C182.965 142.04 183.665 142.684 184.687 142.684C185.373 142.684 185.947 142.39 186.339 141.984L187.221 143.16C186.703 143.734 185.751 144.182 184.631 144.182ZM184.435 138.554C183.623 138.554 183.035 139.114 182.825 139.926H186.031C185.821 139.03 185.219 138.554 184.435 138.554ZM190.872 146.744H189.164V137.294H190.872V138.246C191.32 137.56 192.02 137.112 192.93 137.112C194.694 137.112 196.15 138.554 196.15 140.654C196.15 142.67 194.792 144.182 192.93 144.182C192.02 144.182 191.32 143.776 190.872 143.104V146.744ZM192.664 142.586C193.686 142.586 194.442 141.732 194.442 140.654C194.442 139.576 193.686 138.708 192.664 138.708C191.628 138.708 190.872 139.576 190.872 140.654C190.872 141.732 191.628 142.586 192.664 142.586ZM200.189 142.516L200.371 144.014C200.119 144.098 199.797 144.154 199.545 144.154C198.579 144.154 197.599 143.538 197.599 141.83V134.368H199.307V141.872C199.307 142.39 199.601 142.586 199.909 142.586C199.993 142.586 200.105 142.558 200.189 142.516ZM204.569 144.182C202.805 144.182 201.363 142.74 201.363 140.64C201.363 138.624 202.721 137.112 204.569 137.112C205.479 137.112 206.179 137.518 206.627 138.176V137.294H208.335V144H206.627V143.048C206.179 143.734 205.479 144.182 204.569 144.182ZM204.849 142.586C205.885 142.586 206.627 141.718 206.627 140.64C206.627 139.562 205.885 138.708 204.849 138.708C203.813 138.708 203.071 139.562 203.071 140.64C203.071 141.718 203.813 142.586 204.849 142.586ZM214.964 139.324C214.53 138.918 214.04 138.708 213.368 138.708C212.248 138.708 211.506 139.562 211.506 140.64C211.506 141.718 212.262 142.586 213.368 142.586C214.04 142.586 214.586 142.348 215.02 141.928L215.888 143.188C215.356 143.776 214.376 144.182 213.326 144.182C211.324 144.182 209.798 142.6 209.798 140.64C209.798 138.694 211.338 137.112 213.298 137.112C214.432 137.112 215.342 137.49 215.944 138.106L214.964 139.324ZM220 144.182C217.914 144.182 216.402 142.6 216.402 140.64C216.402 138.694 217.844 137.112 219.776 137.112C221.694 137.112 223.164 138.582 223.164 140.514C223.164 140.738 223.15 141.004 223.122 141.116H218.152C218.334 142.04 219.034 142.684 220.056 142.684C220.742 142.684 221.316 142.39 221.708 141.984L222.59 143.16C222.072 143.734 221.12 144.182 220 144.182ZM219.804 138.554C218.992 138.554 218.404 139.114 218.194 139.926H221.4C221.19 139.03 220.588 138.554 219.804 138.554Z" fill="#794CFF"/>
<path d="M263 162H33V226H263V162Z" fill="white"/>
<path d="M50.2076 178.844C52.7696 178.844 54.8556 180.944 54.8556 183.534C54.8556 186.096 52.7696 188.182 50.2076 188.182C47.6456 188.182 45.5596 186.082 45.5596 183.52C45.5596 180.93 47.6456 178.844 50.2076 178.844ZM50.2076 186.446C51.7476 186.446 52.9936 185.13 52.9936 183.534C52.9936 181.91 51.7476 180.58 50.2076 180.58C48.6676 180.58 47.4356 181.896 47.4356 183.52C47.4356 185.13 48.6676 186.446 50.2076 186.446ZM57.9936 181.294V184.92C57.9936 185.9 58.5536 186.558 59.4076 186.558C60.2616 186.558 60.8356 185.9 60.8356 184.92V181.294H62.5576V185.046C62.5576 186.922 61.2976 188.168 59.4076 188.168C57.5176 188.168 56.2856 186.922 56.2856 185.046V181.294H57.9936ZM63.6816 182.806V181.294H64.8576V179.558H66.5796V181.294H68.3856V182.806H66.5936V185.662C66.5936 186.292 66.8456 186.586 67.3496 186.586C67.6716 186.586 67.9796 186.446 68.1476 186.25L68.9036 187.524C68.5396 187.888 67.9096 188.182 67.0836 188.182C65.7256 188.182 64.8576 187.342 64.8576 185.704V182.806H63.6816ZM72.4853 188.182C70.7213 188.182 69.2793 186.74 69.2793 184.64C69.2793 182.624 70.6373 181.112 72.4853 181.112C73.3953 181.112 74.0953 181.518 74.5433 182.176V178.368H76.2513V188H74.5433V187.048C74.0953 187.734 73.3953 188.182 72.4853 188.182ZM72.7653 186.586C73.8013 186.586 74.5433 185.718 74.5433 184.64C74.5433 183.562 73.8013 182.708 72.7653 182.708C71.7293 182.708 70.9873 183.562 70.9873 184.64C70.9873 185.718 71.7293 186.586 72.7653 186.586ZM81.2009 188.182C79.2549 188.182 77.7149 186.6 77.7149 184.64C77.7149 182.694 79.2549 181.112 81.2009 181.112C83.1469 181.112 84.6869 182.694 84.6869 184.64C84.6869 186.6 83.1469 188.182 81.2009 188.182ZM81.2009 186.586C82.2369 186.586 82.9789 185.718 82.9789 184.64C82.9789 183.562 82.2369 182.708 81.2009 182.708C80.1649 182.708 79.4229 183.562 79.4229 184.64C79.4229 185.718 80.1649 186.586 81.2009 186.586ZM89.2126 188.182C87.2666 188.182 85.7266 186.6 85.7266 184.64C85.7266 182.694 87.2666 181.112 89.2126 181.112C91.1586 181.112 92.6986 182.694 92.6986 184.64C92.6986 186.6 91.1586 188.182 89.2126 188.182ZM89.2126 186.586C90.2486 186.586 90.9906 185.718 90.9906 184.64C90.9906 183.562 90.2486 182.708 89.2126 182.708C88.1766 182.708 87.4346 183.562 87.4346 184.64C87.4346 185.718 88.1766 186.586 89.2126 186.586ZM94.1723 188V181.294H95.8803V182.288C96.2023 181.574 96.7763 181.112 97.5323 181.112C97.9803 181.112 98.3443 181.224 98.5963 181.434L97.8963 183.044C97.6723 182.876 97.3363 182.764 97.0003 182.764C96.3283 182.764 95.8803 183.338 95.8803 184.248V188H94.1723ZM101.481 188.182C100.403 188.182 99.5203 187.902 98.8623 187.538L99.4083 186.222C100.179 186.586 100.823 186.782 101.565 186.782C102.321 186.782 102.671 186.516 102.671 186.124C102.671 184.92 99.0583 185.634 99.0583 183.1C99.0583 182.092 99.9543 181.112 101.677 181.112C102.615 181.112 103.329 181.308 104.183 181.714L103.553 182.988C103.077 182.722 102.363 182.512 101.817 182.512C101.173 182.512 100.781 182.722 100.781 183.086C100.781 184.318 104.365 183.548 104.365 186.096C104.365 187.258 103.329 188.182 101.481 188.182ZM108.831 188V179.026H110.581V188H108.831ZM112.575 188V181.294H114.283V182.246C114.633 181.532 115.305 181.112 116.187 181.112C117.727 181.112 118.721 182.19 118.721 183.94V188H117.013V184.192C117.013 183.282 116.495 182.708 115.655 182.708C114.815 182.708 114.283 183.282 114.283 184.192V188H112.575ZM125.275 188H123.567V181.294H125.275V182.316C125.625 181.588 126.283 181.112 127.165 181.112C128.187 181.112 128.971 181.616 129.363 182.512C129.713 181.714 130.357 181.112 131.421 181.112C132.975 181.112 133.997 182.148 133.997 183.94V188H132.275V184.192C132.275 183.282 131.771 182.708 130.959 182.708C130.147 182.708 129.629 183.282 129.629 184.192V188H127.921V184.192C127.921 183.282 127.417 182.708 126.605 182.708C125.793 182.708 125.275 183.282 125.275 184.192V188ZM137.877 188.266L137.933 188.098L134.867 181.294H136.743L138.703 185.914L140.313 181.294H142.035L139.291 188.854C138.773 190.324 137.919 190.926 136.799 190.926C136.085 190.926 135.399 190.632 134.965 190.226L135.735 188.882C136.057 189.19 136.421 189.33 136.813 189.33C137.289 189.33 137.597 189.05 137.877 188.266ZM147.091 188.714C147.427 188.966 148.085 189.372 149.037 189.372C150.185 189.372 150.899 188.756 150.899 187.608V186.81C150.451 187.482 149.765 187.902 148.855 187.902C147.133 187.902 145.733 186.516 145.733 184.5C145.733 182.554 147.133 181.154 148.855 181.154C149.765 181.154 150.451 181.518 150.899 182.148V181.294H152.607V187.524C152.607 190.184 150.787 190.926 149.135 190.926C147.903 190.926 146.867 190.618 146.223 190.044L147.091 188.714ZM149.177 186.292C150.171 186.292 150.899 185.494 150.899 184.5C150.899 183.506 150.171 182.708 149.177 182.708C148.183 182.708 147.441 183.506 147.441 184.5C147.441 185.508 148.183 186.292 149.177 186.292ZM157.279 188.182C155.515 188.182 154.073 186.74 154.073 184.64C154.073 182.624 155.431 181.112 157.279 181.112C158.189 181.112 158.889 181.518 159.337 182.176V181.294H161.045V188H159.337V187.048C158.889 187.734 158.189 188.182 157.279 188.182ZM157.559 186.586C158.595 186.586 159.337 185.718 159.337 184.64C159.337 183.562 158.595 182.708 157.559 182.708C156.523 182.708 155.781 183.562 155.781 184.64C155.781 185.718 156.523 186.586 157.559 186.586ZM162.942 188V181.294H164.65V182.288C164.972 181.574 165.546 181.112 166.302 181.112C166.75 181.112 167.114 181.224 167.366 181.434L166.666 183.044C166.442 182.876 166.106 182.764 165.77 182.764C165.098 182.764 164.65 183.338 164.65 184.248V188H162.942ZM170.745 188.182C168.981 188.182 167.539 186.74 167.539 184.64C167.539 182.624 168.897 181.112 170.745 181.112C171.655 181.112 172.355 181.518 172.803 182.176V178.368H174.511V188H172.803V187.048C172.355 187.734 171.655 188.182 170.745 188.182ZM171.025 186.586C172.061 186.586 172.803 185.718 172.803 184.64C172.803 183.562 172.061 182.708 171.025 182.708C169.989 182.708 169.247 183.562 169.247 184.64C169.247 185.718 169.989 186.586 171.025 186.586ZM179.573 188.182C177.487 188.182 175.975 186.6 175.975 184.64C175.975 182.694 177.417 181.112 179.349 181.112C181.267 181.112 182.737 182.582 182.737 184.514C182.737 184.738 182.723 185.004 182.695 185.116H177.725C177.907 186.04 178.607 186.684 179.629 186.684C180.315 186.684 180.889 186.39 181.281 185.984L182.163 187.16C181.645 187.734 180.693 188.182 179.573 188.182ZM179.377 182.554C178.565 182.554 177.977 183.114 177.767 183.926H180.973C180.763 183.03 180.161 182.554 179.377 182.554ZM184.106 188V181.294H185.814V182.246C186.164 181.532 186.836 181.112 187.718 181.112C189.258 181.112 190.252 182.19 190.252 183.94V188H188.544V184.192C188.544 183.282 188.026 182.708 187.186 182.708C186.346 182.708 185.814 183.282 185.814 184.192V188H184.106ZM195.098 188V181.294H196.806V182.246C197.156 181.532 197.828 181.112 198.71 181.112C200.25 181.112 201.244 182.19 201.244 183.94V188H199.536V184.192C199.536 183.282 199.018 182.708 198.178 182.708C197.338 182.708 196.806 183.282 196.806 184.192V188H195.098ZM206.261 188.182C204.175 188.182 202.663 186.6 202.663 184.64C202.663 182.694 204.105 181.112 206.037 181.112C207.955 181.112 209.425 182.582 209.425 184.514C209.425 184.738 209.411 185.004 209.383 185.116H204.413C204.595 186.04 205.295 186.684 206.317 186.684C207.003 186.684 207.577 186.39 207.969 185.984L208.851 187.16C208.333 187.734 207.381 188.182 206.261 188.182ZM206.065 182.554C205.253 182.554 204.665 183.114 204.455 183.926H207.661C207.451 183.03 206.849 182.554 206.065 182.554ZM209.545 188L212.079 184.626L209.629 181.294H211.757L213.213 183.268L214.697 181.294H216.615L214.165 184.556L216.699 188H214.571L213.031 185.914L211.449 188H209.545ZM217.149 182.806V181.294H218.325V179.558H220.047V181.294H221.853V182.806H220.061V185.662C220.061 186.292 220.313 186.586 220.817 186.586C221.139 186.586 221.447 186.446 221.615 186.25L222.371 187.524C222.007 187.888 221.377 188.182 220.551 188.182C219.193 188.182 218.325 187.342 218.325 185.704V182.806H217.149ZM225.817 182.806V181.294H226.993V179.558H228.715V181.294H230.521V182.806H228.729V185.662C228.729 186.292 228.981 186.586 229.485 186.586C229.807 186.586 230.115 186.446 230.283 186.25L231.039 187.524C230.675 187.888 230.045 188.182 229.219 188.182C227.861 188.182 226.993 187.342 226.993 185.704V182.806H225.817ZM234.9 188.182C232.954 188.182 231.414 186.6 231.414 184.64C231.414 182.694 232.954 181.112 234.9 181.112C236.846 181.112 238.386 182.694 238.386 184.64C238.386 186.6 236.846 188.182 234.9 188.182ZM234.9 186.586C235.936 186.586 236.678 185.718 236.678 184.64C236.678 183.562 235.936 182.708 234.9 182.708C233.864 182.708 233.122 183.562 233.122 184.64C233.122 185.718 233.864 186.586 234.9 186.586ZM45.2656 202.806V201.294H46.4416V199.558H48.1636V201.294H49.9696V202.806H48.1776V205.662C48.1776 206.292 48.4296 206.586 48.9336 206.586C49.2556 206.586 49.5636 206.446 49.7316 206.25L50.4876 207.524C50.1236 207.888 49.4936 208.182 48.6676 208.182C47.3096 208.182 46.4416 207.342 46.4416 205.704V202.806H45.2656ZM51.6254 208V198.368H53.3334V202.246C53.6834 201.532 54.3554 201.112 55.2374 201.112C56.7774 201.112 57.7714 202.19 57.7714 203.94V208H56.0634V204.192C56.0634 203.282 55.5454 202.708 54.7054 202.708C53.8654 202.708 53.3334 203.282 53.3334 204.192V208H51.6254ZM62.7875 208.182C60.7015 208.182 59.1895 206.6 59.1895 204.64C59.1895 202.694 60.6315 201.112 62.5635 201.112C64.4815 201.112 65.9515 202.582 65.9515 204.514C65.9515 204.738 65.9375 205.004 65.9095 205.116H60.9395C61.1215 206.04 61.8215 206.684 62.8435 206.684C63.5295 206.684 64.1035 206.39 64.4955 205.984L65.3775 207.16C64.8595 207.734 63.9075 208.182 62.7875 208.182ZM62.5915 202.554C61.7795 202.554 61.1915 203.114 60.9815 203.926H64.1875C63.9775 203.03 63.3755 202.554 62.5915 202.554ZM69.7129 202.806V201.294H70.8049V201.154C70.8049 199.278 72.0089 198.186 73.6749 198.186C74.2769 198.186 74.8089 198.27 75.2429 198.438H76.7969V208H75.0889V200.118C74.8229 199.936 74.3889 199.782 73.8429 199.782C73.1009 199.782 72.5269 200.258 72.5269 201.14V201.294H73.9689V202.806H72.5269V208H70.8049V202.806H69.7129ZM81.7477 208.182C79.8017 208.182 78.2617 206.6 78.2617 204.64C78.2617 202.694 79.8017 201.112 81.7477 201.112C83.6937 201.112 85.2337 202.694 85.2337 204.64C85.2337 206.6 83.6937 208.182 81.7477 208.182ZM81.7477 206.586C82.7837 206.586 83.5257 205.718 83.5257 204.64C83.5257 203.562 82.7837 202.708 81.7477 202.708C80.7117 202.708 79.9697 203.562 79.9697 204.64C79.9697 205.718 80.7117 206.586 81.7477 206.586ZM89.711 208H87.779L85.707 201.294H87.541L88.787 206.124L90.145 201.294H91.993L93.379 206.152L94.653 201.294H96.487L94.415 208H92.287L90.985 203.45L89.711 208ZM100.55 208.182C98.4632 208.182 96.9512 206.6 96.9512 204.64C96.9512 202.694 98.3932 201.112 100.326 201.112C102.244 201.112 103.714 202.582 103.714 204.514C103.714 204.738 103.7 205.004 103.672 205.116H98.7012C98.8832 206.04 99.5832 206.684 100.606 206.684C101.292 206.684 101.866 206.39 102.258 205.984L103.14 207.16C102.622 207.734 101.67 208.182 100.55 208.182ZM100.354 202.554C99.5412 202.554 98.9532 203.114 98.7432 203.926H101.95C101.74 203.03 101.138 202.554 100.354 202.554ZM105.083 208V201.294H106.791V202.288C107.113 201.574 107.687 201.112 108.443 201.112C108.891 201.112 109.255 201.224 109.507 201.434L108.807 203.044C108.583 202.876 108.247 202.764 107.911 202.764C107.239 202.764 106.791 203.338 106.791 204.248V208H105.083ZM112.391 208.182C111.313 208.182 110.431 207.902 109.773 207.538L110.319 206.222C111.089 206.586 111.733 206.782 112.475 206.782C113.231 206.782 113.581 206.516 113.581 206.124C113.581 204.92 109.969 205.634 109.969 203.1C109.969 202.092 110.865 201.112 112.587 201.112C113.525 201.112 114.239 201.308 115.093 201.714L114.463 202.988C113.987 202.722 113.273 202.512 112.727 202.512C112.083 202.512 111.691 202.722 111.691 203.086C111.691 204.318 115.275 203.548 115.275 206.096C115.275 207.258 114.239 208.182 112.391 208.182Z" fill="black"/>
</g>
<path d="M255 73.5H41C36.3056 73.5 32.5 77.3056 32.5 82V218C32.5 222.694 36.3056 226.5 41 226.5H255C259.694 226.5 263.5 222.694 263.5 218V82C263.5 77.3056 259.694 73.5 255 73.5Z" stroke="#EBEBEB"/>
</g>
<defs>
<filter id="filter0_d_6343_39710" x="0" y="57" width="296" height="218" filterUnits="userSpaceOnUse" color-interpolation-filters="sRGB">
<feFlood flood-opacity="0" result="BackgroundImageFix"/>
<feColorMatrix in="SourceAlpha" type="matrix" values="0 0 0 0 0 0 0 0 0 0 0 0 0 0 0 0 0 0 127 0" result="hardAlpha"/>
<feOffset dy="16"/>
<feGaussianBlur stdDeviation="16"/>
<feComposite in2="hardAlpha" operator="out"/>
<feColorMatrix type="matrix" values="0 0 0 0 0 0 0 0 0 0 0 0 0 0 0 0 0 0 0.1 0"/>
<feBlend mode="normal" in2="BackgroundImageFix" result="effect1_dropShadow_6343_39710"/>
<feBlend mode="normal" in="SourceGraphic" in2="effect1_dropShadow_6343_39710" result="shape"/>
</filter>
</defs>
</svg>
