<svg width="160" height="56" viewBox="0 0 160 56" fill="none" xmlns="http://www.w3.org/2000/svg">
<path d="M0.875 11.9999V4.3079H2.375V10.5839H6.131V11.9999H0.875ZM9.26131 12.1559C7.74931 12.1559 6.51331 10.9199 6.51331 9.1199C6.51331 7.3919 7.67731 6.0959 9.26131 6.0959C10.0413 6.0959 10.6413 6.4439 11.0253 7.0079V6.2519H12.4893V11.9999H11.0253V11.1839C10.6413 11.7719 10.0413 12.1559 9.26131 12.1559ZM9.50131 10.7879C10.3893 10.7879 11.0253 10.0439 11.0253 9.1199C11.0253 8.1959 10.3893 7.4639 9.50131 7.4639C8.61331 7.4639 7.97731 8.1959 7.97731 9.1199C7.97731 10.0439 8.61331 10.7879 9.50131 10.7879ZM17.3438 6.0959C18.8558 6.0959 20.1038 7.3319 20.1038 9.1319C20.1038 10.8599 18.9398 12.1559 17.3438 12.1559C16.5638 12.1559 15.9638 11.8079 15.5798 11.2319V11.9999H14.1158V3.7439H15.5798V7.0679C15.9638 6.4799 16.5638 6.0959 17.3438 6.0959ZM17.1158 7.4639C16.2278 7.4639 15.5798 8.2079 15.5798 9.1319C15.5798 10.0559 16.2278 10.7879 17.1158 10.7879C17.9918 10.7879 18.6398 10.0559 18.6398 9.1319C18.6398 8.2079 17.9918 7.4639 17.1158 7.4639ZM24.0582 12.1559C22.2703 12.1559 20.9743 10.7999 20.9743 9.1199C20.9743 7.4519 22.2103 6.0959 23.8663 6.0959C25.5103 6.0959 26.7703 7.3559 26.7703 9.0119C26.7703 9.2039 26.7583 9.4319 26.7343 9.5279H22.4743C22.6303 10.3199 23.2303 10.8719 24.1063 10.8719C24.6943 10.8719 25.1863 10.6199 25.5223 10.2719L26.2783 11.2799C25.8343 11.7719 25.0183 12.1559 24.0582 12.1559ZM23.8903 7.3319C23.1943 7.3319 22.6903 7.8119 22.5103 8.5079H25.2583C25.0783 7.7399 24.5623 7.3319 23.8903 7.3319ZM30.1639 10.7279L30.3199 12.0119C30.1039 12.0839 29.8279 12.1319 29.6119 12.1319C28.7839 12.1319 27.9439 11.6039 27.9439 10.1399V3.7439H29.4079V10.1759C29.4079 10.6199 29.6599 10.7879 29.9239 10.7879C29.9959 10.7879 30.0919 10.7639 30.1639 10.7279Z" fill="black"/>
<path fill-rule="evenodd" clip-rule="evenodd" d="M35 8.33301C35 5.02441 37.6914 2.33301 41 2.33301C44.3086 2.33301 47 5.02441 47 8.33301C47 11.6416 44.3086 14.333 41 14.333C37.6914 14.333 35 11.6416 35 8.33301ZM46.0769 8.33301C46.0769 5.52285 43.8102 3.25608 41 3.25608C38.1898 3.25608 35.9231 5.52285 35.9231 8.33301C35.9231 11.1432 38.1898 13.4099 41 13.4099C43.8102 13.4099 46.0769 11.1432 46.0769 8.33301ZM41.6922 10.871C41.6922 11.2534 41.3823 11.5633 40.9999 11.5633C40.6176 11.5633 40.3076 11.2534 40.3076 10.871C40.3076 10.4887 40.6176 10.1787 40.9999 10.1787C41.3823 10.1787 41.6922 10.4887 41.6922 10.871ZM38.9229 7.15382C38.9229 6.02602 39.8579 5.10254 40.9998 5.10254C42.1417 5.10254 43.0767 6.02602 43.0767 7.15382C43.0767 7.98515 42.5291 8.73435 41.7299 8.99677L41.519 9.06087V9.71792H40.4805V9.06087C40.4805 8.62217 40.7706 8.22153 41.1945 8.08331L41.4054 8.01921C41.7827 7.89501 42.0382 7.54645 42.0382 7.15382C42.0382 6.5809 41.5799 6.12818 40.9998 6.12818C40.4197 6.12818 39.9613 6.5809 39.9613 7.15382H38.9229Z" fill="#794CFF"/>
<path d="M152 20.5H8C3.85786 20.5 0.5 23.8579 0.5 28V48C0.5 52.1421 3.85786 55.5 8 55.5H152C156.142 55.5 159.5 52.1421 159.5 48V28C159.5 23.8579 156.142 20.5 152 20.5Z" fill="white"/>
<path d="M152 20.5H8C3.85786 20.5 0.5 23.8579 0.5 28V48C0.5 52.1421 3.85786 55.5 8 55.5H152C156.142 55.5 159.5 52.1421 159.5 48V28C159.5 23.8579 156.142 20.5 152 20.5Z" stroke="#EBEBEB"/>
<path d="M12.875 41.9999V34.3199H15.443C17.975 34.3199 19.787 35.9159 19.787 38.1599C19.787 40.4039 17.999 41.9999 15.491 41.9999H12.875ZM15.431 35.7239H14.423V40.5839H15.443C17.087 40.5839 18.179 39.6239 18.179 38.1599C18.179 36.6839 17.087 35.7239 15.431 35.7239ZM23.8004 42.1559C22.0124 42.1559 20.7164 40.7999 20.7164 39.1199C20.7164 37.4519 21.9524 36.0959 23.6084 36.0959C25.2524 36.0959 26.5124 37.3559 26.5124 39.0119C26.5124 39.2039 26.5004 39.4319 26.4764 39.5279H22.2164C22.3724 40.3199 22.9724 40.8719 23.8484 40.8719C24.4364 40.8719 24.9284 40.6199 25.2644 40.2719L26.0204 41.2799C25.5764 41.7719 24.7604 42.1559 23.8004 42.1559ZM23.6324 37.3319C22.9364 37.3319 22.4324 37.8119 22.2524 38.5079H25.0004C24.8204 37.7399 24.3044 37.3319 23.6324 37.3319ZM27.1701 37.5479V36.2519H28.1061V35.9159C28.1061 34.4639 28.9341 33.5879 30.2181 33.5879C30.9981 33.5879 31.5021 33.8039 31.8741 34.1759L31.1541 35.2799C30.9861 35.0999 30.6741 34.9559 30.3621 34.9559C29.8821 34.9559 29.5821 35.2799 29.5821 35.9039V36.2519H31.0701V37.5479H29.5821V41.9999H28.1061V37.5479H27.1701ZM34.2105 42.1559C32.6985 42.1559 31.4625 40.9199 31.4625 39.1199C31.4625 37.3919 32.6265 36.0959 34.2105 36.0959C34.9905 36.0959 35.5905 36.4439 35.9745 37.0079V36.2519H37.4385V41.9999H35.9745V41.1839C35.5905 41.7719 34.9905 42.1559 34.2105 42.1559ZM34.4505 40.7879C35.3385 40.7879 35.9745 40.0439 35.9745 39.1199C35.9745 38.1959 35.3385 37.4639 34.4505 37.4639C33.5625 37.4639 32.9265 38.1959 32.9265 39.1199C32.9265 40.0439 33.5625 40.7879 34.4505 40.7879ZM40.457 36.2519V39.3599C40.457 40.1999 40.937 40.7639 41.669 40.7639C42.401 40.7639 42.893 40.1999 42.893 39.3599V36.2519H44.369V39.4679C44.369 41.0759 43.289 42.1439 41.669 42.1439C40.049 42.1439 38.993 41.0759 38.993 39.4679V36.2519H40.457ZM48.1405 40.7279L48.2965 42.0119C48.0805 42.0839 47.8045 42.1319 47.5885 42.1319C46.7605 42.1319 45.9205 41.6039 45.9205 40.1399V33.7439H47.3845V40.1759C47.3845 40.6199 47.6365 40.7879 47.9005 40.7879C47.9725 40.7879 48.0685 40.7639 48.1405 40.7279ZM48.9301 37.5479V36.2519H49.9381V34.7639H51.4141V36.2519H52.9621V37.5479H51.4261V39.9959C51.4261 40.5359 51.6421 40.7879 52.0741 40.7879C52.3501 40.7879 52.6141 40.6679 52.7581 40.4999L53.4061 41.5919C53.0941 41.9039 52.5541 42.1559 51.8461 42.1559C50.6821 42.1559 49.9381 41.4359 49.9381 40.0319V37.5479H48.9301ZM60.5958 34.1519C62.7918 34.1519 64.5798 35.9519 64.5798 38.1719C64.5798 40.3679 62.7918 42.1559 60.5958 42.1559C58.3998 42.1559 56.6118 40.3559 56.6118 38.1599C56.6118 35.9399 58.3998 34.1519 60.5958 34.1519ZM60.5958 40.6679C61.9158 40.6679 62.9838 39.5399 62.9838 38.1719C62.9838 36.7799 61.9158 35.6399 60.5958 35.6399C59.2758 35.6399 58.2198 36.7679 58.2198 38.1599C58.2198 39.5399 59.2758 40.6679 60.5958 40.6679ZM67.3415 44.3519H65.8775V36.2519H67.3415V37.0679C67.7255 36.4799 68.3255 36.0959 69.1055 36.0959C70.6175 36.0959 71.8655 37.3319 71.8655 39.1319C71.8655 40.8599 70.7015 42.1559 69.1055 42.1559C68.3255 42.1559 67.7255 41.8079 67.3415 41.2319V44.3519ZM68.8775 40.7879C69.7535 40.7879 70.4015 40.0559 70.4015 39.1319C70.4015 38.2079 69.7535 37.4639 68.8775 37.4639C67.9895 37.4639 67.3415 38.2079 67.3415 39.1319C67.3415 40.0559 67.9895 40.7879 68.8775 40.7879ZM72.52 37.5479V36.2519H73.528V34.7639H75.004V36.2519H76.552V37.5479H75.016V39.9959C75.016 40.5359 75.232 40.7879 75.664 40.7879C75.94 40.7879 76.204 40.6679 76.348 40.4999L76.996 41.5919C76.684 41.9039 76.144 42.1559 75.436 42.1559C74.272 42.1559 73.528 41.4359 73.528 40.0319V37.5479H72.52ZM78.7033 35.4839C78.2233 35.4839 77.8513 35.0999 77.8513 34.6199C77.8513 34.1519 78.2233 33.7679 78.7033 33.7679C79.1713 33.7679 79.5673 34.1519 79.5673 34.6199C79.5673 35.0999 79.1713 35.4839 78.7033 35.4839ZM79.4353 41.9999H77.9713V36.2519H79.4353V41.9999ZM83.6927 42.1559C82.0247 42.1559 80.7047 40.7999 80.7047 39.1199C80.7047 37.4519 82.0247 36.0959 83.6927 36.0959C85.3607 36.0959 86.6807 37.4519 86.6807 39.1199C86.6807 40.7999 85.3607 42.1559 83.6927 42.1559ZM83.6927 40.7879C84.5807 40.7879 85.2167 40.0439 85.2167 39.1199C85.2167 38.1959 84.5807 37.4639 83.6927 37.4639C82.8047 37.4639 82.1687 38.1959 82.1687 39.1199C82.1687 40.0439 82.8047 40.7879 83.6927 40.7879ZM87.9439 41.9999V36.2519H89.4079V37.0679C89.7079 36.4559 90.2839 36.0959 91.0399 36.0959C92.3599 36.0959 93.2119 37.0199 93.2119 38.5199V41.9999H91.7479V38.7359C91.7479 37.9559 91.3039 37.4639 90.5839 37.4639C89.8639 37.4639 89.4079 37.9559 89.4079 38.7359V41.9999H87.9439Z" fill="black"/>
<path d="M144 41L139 35.9524L140 35L144 39.2857L148 35L149 35.9524L144 41Z" fill="black"/>
</svg>
