<svg width="230" height="71" viewBox="0 0 230 71" fill="none" xmlns="http://www.w3.org/2000/svg">
<g clip-path="url(#clip0_6343_39678)">
<path d="M1.02344 15.4999V6.53992H4.01944C6.97344 6.53992 9.08744 8.40192 9.08744 11.0199C9.08744 13.6379 7.00144 15.4999 4.07544 15.4999H1.02344ZM4.00544 8.17792H2.82944V13.8479H4.01944C5.93744 13.8479 7.21144 12.7279 7.21144 11.0199C7.21144 9.29792 5.93744 8.17792 4.00544 8.17792ZM10.6057 15.4999V8.79392H12.3137V9.78792C12.6357 9.07392 13.2097 8.61192 13.9657 8.61192C14.4137 8.61192 14.7777 8.72392 15.0297 8.93392L14.3297 10.5439C14.1057 10.3759 13.7697 10.2639 13.4337 10.2639C12.7617 10.2639 12.3137 10.8379 12.3137 11.7479V15.4999H10.6057ZM18.689 15.6819C16.743 15.6819 15.203 14.0999 15.203 12.1399C15.203 10.1939 16.743 8.61192 18.689 8.61192C20.635 8.61192 22.175 10.1939 22.175 12.1399C22.175 14.0999 20.635 15.6819 18.689 15.6819ZM18.689 14.0859C19.725 14.0859 20.467 13.2179 20.467 12.1399C20.467 11.0619 19.725 10.2079 18.689 10.2079C17.653 10.2079 16.911 11.0619 16.911 12.1399C16.911 13.2179 17.653 14.0859 18.689 14.0859ZM25.3567 18.2439H23.6487V8.79392H25.3567V9.74592C25.8047 9.05992 26.5047 8.61192 27.4147 8.61192C29.1787 8.61192 30.6347 10.0539 30.6347 12.1539C30.6347 14.1699 29.2767 15.6819 27.4147 15.6819C26.5047 15.6819 25.8047 15.2759 25.3567 14.6039V18.2439ZM27.1487 14.0859C28.1707 14.0859 28.9267 13.2319 28.9267 12.1539C28.9267 11.0759 28.1707 10.2079 27.1487 10.2079C26.1127 10.2079 25.3567 11.0759 25.3567 12.1539C25.3567 13.2319 26.1127 14.0859 27.1487 14.0859ZM34.8563 15.6819C33.0923 15.6819 31.6503 14.2399 31.6503 12.1399C31.6503 10.1239 33.0083 8.61192 34.8563 8.61192C35.7663 8.61192 36.4663 9.01792 36.9143 9.67592V5.86792H38.6223V15.4999H36.9143V14.5479C36.4663 15.2339 35.7663 15.6819 34.8563 15.6819ZM35.1363 14.0859C36.1723 14.0859 36.9143 13.2179 36.9143 12.1399C36.9143 11.0619 36.1723 10.2079 35.1363 10.2079C34.1003 10.2079 33.3583 11.0619 33.3583 12.1399C33.3583 13.2179 34.1003 14.0859 35.1363 14.0859ZM43.5718 15.6819C41.6258 15.6819 40.0858 14.0999 40.0858 12.1399C40.0858 10.1939 41.6258 8.61192 43.5718 8.61192C45.5178 8.61192 47.0578 10.1939 47.0578 12.1399C47.0578 14.0999 45.5178 15.6819 43.5718 15.6819ZM43.5718 14.0859C44.6078 14.0859 45.3498 13.2179 45.3498 12.1399C45.3498 11.0619 44.6078 10.2079 43.5718 10.2079C42.5358 10.2079 41.7938 11.0619 41.7938 12.1399C41.7938 13.2179 42.5358 14.0859 43.5718 14.0859ZM51.5351 15.4999H49.6031L47.5311 8.79392H49.3651L50.6111 13.6239L51.9691 8.79392H53.8171L55.2031 13.6519L56.4771 8.79392H58.3111L56.2391 15.4999H54.1111L52.8091 10.9499L51.5351 15.4999ZM59.5237 15.4999V8.79392H61.2317V9.74592C61.5817 9.03192 62.2537 8.61192 63.1357 8.61192C64.6757 8.61192 65.6697 9.68992 65.6697 11.4399V15.4999H63.9617V11.6919C63.9617 10.7819 63.4437 10.2079 62.6037 10.2079C61.7637 10.2079 61.2317 10.7819 61.2317 11.6919V15.4999H59.5237Z" fill="black"/>
<path fill-rule="evenodd" clip-rule="evenodd" d="M71 11.5C71 7.08854 74.5885 3.5 79 3.5C83.4115 3.5 87 7.08854 87 11.5C87 15.9115 83.4115 19.5 79 19.5C74.5885 19.5 71 15.9115 71 11.5ZM85.7692 11.5C85.7692 7.75312 82.7469 4.73077 79 4.73077C75.2531 4.73077 72.2308 7.75312 72.2308 11.5C72.2308 15.2469 75.2531 18.2692 79 18.2692C82.7469 18.2692 85.7692 15.2469 85.7692 11.5ZM79.9231 14.8846C79.9231 15.3944 79.5098 15.8077 79 15.8077C78.4902 15.8077 78.0769 15.3944 78.0769 14.8846C78.0769 14.3748 78.4902 13.9615 79 13.9615C79.5098 13.9615 79.9231 14.3748 79.9231 14.8846ZM76.2308 9.92735C76.2308 8.42361 77.4775 7.19231 79 7.19231C80.5225 7.19231 81.7692 8.42361 81.7692 9.92735C81.7692 11.0358 81.0391 12.0347 79.9736 12.3846L79.6923 12.4701V13.3462H78.3077V12.4701C78.3077 11.8851 78.6944 11.351 79.2596 11.1667L79.5409 11.0812C80.0439 10.9156 80.3846 10.4509 80.3846 9.92735C80.3846 9.16346 79.7734 8.55983 79 8.55983C78.2266 8.55983 77.6154 9.16346 77.6154 9.92735H76.2308Z" fill="#794CFF"/>
<path d="M222 27H8C3.85786 27 0.5 30.3579 0.5 34.5V62.5C0.5 66.6421 3.85786 70 8 70H222C226.142 70 229.5 66.6421 229.5 62.5V34.5C229.5 30.3579 226.142 27 222 27Z" fill="white"/>
<path d="M222 27H8C3.85786 27 0.5 30.3579 0.5 34.5V62.5C0.5 66.6421 3.85786 70 8 70H222C226.142 70 229.5 66.6421 229.5 62.5V34.5C229.5 30.3579 226.142 27 222 27Z" stroke="#EBEBEB"/>
<path d="M13.0234 52.4999V43.5259H16.2294C18.3994 43.5259 19.8274 44.7019 19.8274 46.4939C19.8274 48.2999 18.3854 49.4899 16.2014 49.4899H14.7734V52.4999H13.0234ZM16.3694 45.0799H14.7734V47.9359H16.3694C17.3354 47.9359 17.9794 47.3619 17.9794 46.4939C17.9794 45.6399 17.3354 45.0799 16.3694 45.0799ZM23.7875 51.0159L23.9695 52.5139C23.7175 52.5979 23.3955 52.6539 23.1435 52.6539C22.1775 52.6539 21.1975 52.0379 21.1975 50.3299V42.8679H22.9055V50.3719C22.9055 50.8899 23.1995 51.0859 23.5075 51.0859C23.5915 51.0859 23.7035 51.0579 23.7875 51.0159ZM28.1668 52.6819C26.4028 52.6819 24.9608 51.2399 24.9608 49.1399C24.9608 47.1239 26.3188 45.6119 28.1668 45.6119C29.0768 45.6119 29.7768 46.0179 30.2248 46.6759V45.7939H31.9328V52.4999H30.2248V51.5479C29.7768 52.2339 29.0768 52.6819 28.1668 52.6819ZM28.4468 51.0859C29.4828 51.0859 30.2248 50.2179 30.2248 49.1399C30.2248 48.0619 29.4828 47.2079 28.4468 47.2079C27.4108 47.2079 26.6688 48.0619 26.6688 49.1399C26.6688 50.2179 27.4108 51.0859 28.4468 51.0859ZM38.5624 47.8239C38.1284 47.4179 37.6384 47.2079 36.9664 47.2079C35.8464 47.2079 35.1044 48.0619 35.1044 49.1399C35.1044 50.2179 35.8604 51.0859 36.9664 51.0859C37.6384 51.0859 38.1844 50.8479 38.6184 50.4279L39.4864 51.6879C38.9544 52.2759 37.9744 52.6819 36.9244 52.6819C34.9224 52.6819 33.3964 51.0999 33.3964 49.1399C33.3964 47.1939 34.9364 45.6119 36.8964 45.6119C38.0304 45.6119 38.9404 45.9899 39.5424 46.6059L38.5624 47.8239ZM43.5979 52.6819C41.5119 52.6819 39.9999 51.0999 39.9999 49.1399C39.9999 47.1939 41.4419 45.6119 43.3739 45.6119C45.2919 45.6119 46.7619 47.0819 46.7619 49.0139C46.7619 49.2379 46.7479 49.5039 46.7199 49.6159H41.7499C41.9319 50.5399 42.6319 51.1839 43.6539 51.1839C44.3399 51.1839 44.9139 50.8899 45.3059 50.4839L46.1879 51.6599C45.6699 52.2339 44.7179 52.6819 43.5979 52.6819ZM43.4019 47.0539C42.5899 47.0539 42.0019 47.6139 41.7919 48.4259H44.9979C44.7879 47.5299 44.1859 47.0539 43.4019 47.0539ZM48.1311 52.4999V42.8679H49.8391V46.7459C50.1891 46.0319 50.8611 45.6119 51.7431 45.6119C53.2831 45.6119 54.2771 46.6899 54.2771 48.4399V52.4999H52.5691V48.6919C52.5691 47.7819 52.0511 47.2079 51.2111 47.2079C50.3711 47.2079 49.8391 47.7819 49.8391 48.6919V52.4999H48.1311ZM59.1812 52.6819C57.2352 52.6819 55.6952 51.0999 55.6952 49.1399C55.6952 47.1939 57.2352 45.6119 59.1812 45.6119C61.1272 45.6119 62.6672 47.1939 62.6672 49.1399C62.6672 51.0999 61.1272 52.6819 59.1812 52.6819ZM59.1812 51.0859C60.2172 51.0859 60.9592 50.2179 60.9592 49.1399C60.9592 48.0619 60.2172 47.2079 59.1812 47.2079C58.1452 47.2079 57.4032 48.0619 57.4032 49.1399C57.4032 50.2179 58.1452 51.0859 59.1812 51.0859ZM66.7309 51.0159L66.9129 52.5139C66.6609 52.5979 66.3389 52.6539 66.0869 52.6539C65.1209 52.6539 64.1409 52.0379 64.1409 50.3299V42.8679H65.8489V50.3719C65.8489 50.8899 66.1429 51.0859 66.4509 51.0859C66.5349 51.0859 66.6469 51.0579 66.7309 51.0159ZM71.1102 52.6819C69.3462 52.6819 67.9042 51.2399 67.9042 49.1399C67.9042 47.1239 69.2622 45.6119 71.1102 45.6119C72.0202 45.6119 72.7202 46.0179 73.1682 46.6759V42.8679H74.8762V52.4999H73.1682V51.5479C72.7202 52.2339 72.0202 52.6819 71.1102 52.6819ZM71.3902 51.0859C72.4262 51.0859 73.1682 50.2179 73.1682 49.1399C73.1682 48.0619 72.4262 47.2079 71.3902 47.2079C70.3542 47.2079 69.6122 48.0619 69.6122 49.1399C69.6122 50.2179 70.3542 51.0859 71.3902 51.0859ZM79.9377 52.6819C77.8517 52.6819 76.3397 51.0999 76.3397 49.1399C76.3397 47.1939 77.7817 45.6119 79.7137 45.6119C81.6317 45.6119 83.1017 47.0819 83.1017 49.0139C83.1017 49.2379 83.0877 49.5039 83.0597 49.6159H78.0897C78.2717 50.5399 78.9717 51.1839 79.9937 51.1839C80.6797 51.1839 81.2537 50.8899 81.6457 50.4839L82.5277 51.6599C82.0097 52.2339 81.0577 52.6819 79.9377 52.6819ZM79.7417 47.0539C78.9297 47.0539 78.3417 47.6139 78.1317 48.4259H81.3377C81.1277 47.5299 80.5257 47.0539 79.7417 47.0539ZM84.471 52.4999V45.7939H86.179V46.7879C86.501 46.0739 87.075 45.6119 87.831 45.6119C88.279 45.6119 88.643 45.7239 88.895 45.9339L88.195 47.5439C87.971 47.3759 87.635 47.2639 87.299 47.2639C86.627 47.2639 86.179 47.8379 86.179 48.7479V52.4999H84.471ZM92.3709 47.3059V45.7939H93.5469V44.0579H95.2689V45.7939H97.0749V47.3059H95.2829V50.1619C95.2829 50.7919 95.5349 51.0859 96.0389 51.0859C96.3609 51.0859 96.6689 50.9459 96.8369 50.7499L97.5929 52.0239C97.2289 52.3879 96.5989 52.6819 95.7729 52.6819C94.4149 52.6819 93.5469 51.8419 93.5469 50.2039V47.3059H92.3709ZM101.566 52.6819C99.4806 52.6819 97.9686 51.0999 97.9686 49.1399C97.9686 47.1939 99.4106 45.6119 101.342 45.6119C103.26 45.6119 104.73 47.0819 104.73 49.0139C104.73 49.2379 104.716 49.5039 104.688 49.6159H99.7186C99.9006 50.5399 100.6 51.1839 101.622 51.1839C102.308 51.1839 102.882 50.8899 103.274 50.4839L104.156 51.6599C103.638 52.2339 102.686 52.6819 101.566 52.6819ZM101.37 47.0539C100.558 47.0539 99.9706 47.6139 99.7606 48.4259H102.966C102.756 47.5299 102.154 47.0539 101.37 47.0539ZM104.851 52.4999L107.385 49.1259L104.935 45.7939H107.063L108.519 47.7679L110.003 45.7939H111.921L109.471 49.0559L112.005 52.4999H109.877L108.337 50.4139L106.755 52.4999H104.851ZM112.455 47.3059V45.7939H113.631V44.0579H115.353V45.7939H117.159V47.3059H115.367V50.1619C115.367 50.7919 115.619 51.0859 116.123 51.0859C116.445 51.0859 116.753 50.9459 116.921 50.7499L117.677 52.0239C117.313 52.3879 116.683 52.6819 115.857 52.6819C114.499 52.6819 113.631 51.8419 113.631 50.2039V47.3059H112.455Z" fill="black"/>
<path d="M212 51.5L207 46.4524L208 45.5L212 49.7857L216 45.5L217 46.4524L212 51.5Z" fill="black"/>
</g>
<defs>
<clipPath id="clip0_6343_39678">
<rect width="230" height="70" fill="white" transform="translate(0 0.5)"/>
</clipPath>
</defs>
</svg>
