<svg width="296" height="255" viewBox="0 0 296 255" fill="none" xmlns="http://www.w3.org/2000/svg">
<path d="M35.0716 15.014C34.6516 14.902 34.1196 14.636 33.4336 14.188L34.1896 12.718C34.9456 13.194 36.0376 13.53 36.9196 13.53C37.8016 13.53 38.4596 13.208 38.4596 12.494C38.4596 10.898 33.7416 11.654 33.7416 8.47604C33.7416 6.81004 35.2676 5.83004 37.0876 5.83004C38.2216 5.83004 39.2856 6.13804 40.1116 6.76804L39.2576 8.15404C38.6836 7.77604 37.7876 7.46804 37.0036 7.46804C36.1916 7.46804 35.6176 7.84604 35.6176 8.43404C35.6176 10.072 40.3216 9.34404 40.3216 12.396C40.3216 14.244 38.6976 15.182 36.7936 15.182C36.0516 15.182 35.4776 15.126 35.0716 15.014ZM44.8949 15.182C42.8089 15.182 41.2969 13.6 41.2969 11.64C41.2969 9.69404 42.7389 8.11204 44.6709 8.11204C46.5889 8.11204 48.0589 9.58204 48.0589 11.514C48.0589 11.738 48.0449 12.004 48.0169 12.116H43.0469C43.2289 13.04 43.9289 13.684 44.9509 13.684C45.6369 13.684 46.2109 13.39 46.6029 12.984L47.4849 14.16C46.9669 14.734 46.0149 15.182 44.8949 15.182ZM44.6989 9.55404C43.8869 9.55404 43.2989 10.114 43.0889 10.926H46.2949C46.0849 10.03 45.4829 9.55404 44.6989 9.55404ZM52.0182 13.516L52.2002 15.014C51.9482 15.098 51.6262 15.154 51.3742 15.154C50.4082 15.154 49.4282 14.538 49.4282 12.83V5.36804H51.1362V12.872C51.1362 13.39 51.4302 13.586 51.7382 13.586C51.8222 13.586 51.9342 13.558 52.0182 13.516ZM56.7894 15.182C54.7034 15.182 53.1914 13.6 53.1914 11.64C53.1914 9.69404 54.6334 8.11204 56.5654 8.11204C58.4834 8.11204 59.9534 9.58204 59.9534 11.514C59.9534 11.738 59.9394 12.004 59.9114 12.116H54.9414C55.1234 13.04 55.8234 13.684 56.8454 13.684C57.5314 13.684 58.1054 13.39 58.4974 12.984L59.3794 14.16C58.8614 14.734 57.9094 15.182 56.7894 15.182ZM56.5934 9.55404C55.7814 9.55404 55.1934 10.114 54.9834 10.926H58.1894C57.9794 10.03 57.3774 9.55404 56.5934 9.55404ZM66.0547 10.324C65.6207 9.91804 65.1307 9.70804 64.4587 9.70804C63.3387 9.70804 62.5967 10.562 62.5967 11.64C62.5967 12.718 63.3527 13.586 64.4587 13.586C65.1307 13.586 65.6767 13.348 66.1107 12.928L66.9787 14.188C66.4467 14.776 65.4667 15.182 64.4167 15.182C62.4147 15.182 60.8887 13.6 60.8887 11.64C60.8887 9.69404 62.4287 8.11204 64.3887 8.11204C65.5227 8.11204 66.4327 8.49004 67.0347 9.10604L66.0547 10.324ZM67.4726 9.80604V8.29403H68.6486V6.55804H70.3706V8.29403H72.1766V9.80604H70.3846V12.662C70.3846 13.292 70.6366 13.586 71.1406 13.586C71.4626 13.586 71.7706 13.446 71.9386 13.25L72.6946 14.524C72.3306 14.888 71.7006 15.182 70.8746 15.182C69.5166 15.182 68.6486 14.342 68.6486 12.704V9.80604H67.4726ZM78.9686 15.266L79.0246 15.098L75.9586 8.29403H77.8346L79.7946 12.914L81.4046 8.29403H83.1266L80.3826 15.854C79.8646 17.324 79.0106 17.926 77.8906 17.926C77.1766 17.926 76.4906 17.632 76.0566 17.226L76.8266 15.882C77.1486 16.19 77.5126 16.33 77.9046 16.33C78.3806 16.33 78.6886 16.05 78.9686 15.266ZM87.0016 15.182C85.0556 15.182 83.5156 13.6 83.5156 11.64C83.5156 9.69404 85.0556 8.11204 87.0016 8.11204C88.9476 8.11204 90.4876 9.69404 90.4876 11.64C90.4876 13.6 88.9476 15.182 87.0016 15.182ZM87.0016 13.586C88.0376 13.586 88.7796 12.718 88.7796 11.64C88.7796 10.562 88.0376 9.70804 87.0016 9.70804C85.9656 9.70804 85.2236 10.562 85.2236 11.64C85.2236 12.718 85.9656 13.586 87.0016 13.586ZM93.5854 8.29403V11.92C93.5854 12.9 94.1454 13.558 94.9994 13.558C95.8534 13.558 96.4274 12.9 96.4274 11.92V8.29403H98.1494V12.046C98.1494 13.922 96.8894 15.168 94.9994 15.168C93.1094 15.168 91.8774 13.922 91.8774 12.046V8.29403H93.5854ZM99.9594 15V8.29403H101.668V9.28804C101.99 8.57404 102.564 8.11204 103.32 8.11204C103.768 8.11204 104.132 8.22404 104.384 8.43404L103.684 10.044C103.46 9.87603 103.124 9.76404 102.788 9.76404C102.116 9.76404 101.668 10.338 101.668 11.248V15H99.9594ZM107.944 9.80604V8.29403H109.036V7.90204C109.036 6.20804 110.002 5.18604 111.5 5.18604C112.41 5.18604 112.998 5.43804 113.432 5.87204L112.592 7.16004C112.396 6.95004 112.032 6.78204 111.668 6.78204C111.108 6.78204 110.758 7.16004 110.758 7.88804V8.29403H112.494V9.80604H110.758V15H109.036V9.80604H107.944ZM116.158 15.182C114.394 15.182 112.952 13.74 112.952 11.64C112.952 9.62404 114.31 8.11204 116.158 8.11204C117.068 8.11204 117.768 8.51803 118.216 9.17603V8.29403H119.924V15H118.216V14.048C117.768 14.734 117.068 15.182 116.158 15.182ZM116.438 13.586C117.474 13.586 118.216 12.718 118.216 11.64C118.216 10.562 117.474 9.70804 116.438 9.70804C115.402 9.70804 114.66 10.562 114.66 11.64C114.66 12.718 115.402 13.586 116.438 13.586ZM125.699 15H123.473L121.051 8.29403H122.927L124.635 13.474L126.371 8.29403H128.121L125.699 15ZM131.983 15.182C130.037 15.182 128.497 13.6 128.497 11.64C128.497 9.69404 130.037 8.11204 131.983 8.11204C133.929 8.11204 135.469 9.69404 135.469 11.64C135.469 13.6 133.929 15.182 131.983 15.182ZM131.983 13.586C133.019 13.586 133.761 12.718 133.761 11.64C133.761 10.562 133.019 9.70804 131.983 9.70804C130.947 9.70804 130.205 10.562 130.205 11.64C130.205 12.718 130.947 13.586 131.983 13.586ZM136.942 15V8.29403H138.65V9.28804C138.972 8.57404 139.546 8.11204 140.302 8.11204C140.75 8.11204 141.114 8.22404 141.366 8.43404L140.666 10.044C140.442 9.87603 140.106 9.76404 139.77 9.76404C139.098 9.76404 138.65 10.338 138.65 11.248V15H136.942ZM143.388 7.39804C142.828 7.39804 142.394 6.95004 142.394 6.39004C142.394 5.84404 142.828 5.39604 143.388 5.39604C143.934 5.39604 144.396 5.84404 144.396 6.39004C144.396 6.95004 143.934 7.39804 143.388 7.39804ZM144.242 15H142.534V8.29403H144.242V15ZM145.471 9.80604V8.29403H146.647V6.55804H148.369V8.29403H150.175V9.80604H148.383V12.662C148.383 13.292 148.635 13.586 149.139 13.586C149.461 13.586 149.769 13.446 149.937 13.25L150.693 14.524C150.329 14.888 149.699 15.182 148.873 15.182C147.515 15.182 146.647 14.342 146.647 12.704V9.80604H145.471ZM154.667 15.182C152.581 15.182 151.069 13.6 151.069 11.64C151.069 9.69404 152.511 8.11204 154.443 8.11204C156.361 8.11204 157.831 9.58204 157.831 11.514C157.831 11.738 157.817 12.004 157.789 12.116H152.819C153.001 13.04 153.701 13.684 154.723 13.684C155.409 13.684 155.983 13.39 156.375 12.984L157.257 14.16C156.739 14.734 155.787 15.182 154.667 15.182ZM154.471 9.55404C153.659 9.55404 153.071 10.114 152.861 10.926H156.067C155.857 10.03 155.255 9.55404 154.471 9.55404ZM161.592 9.80604V8.29403H162.684V7.90204C162.684 6.20804 163.65 5.18604 165.148 5.18604C166.058 5.18604 166.646 5.43804 167.08 5.87204L166.24 7.16004C166.044 6.95004 165.68 6.78204 165.316 6.78204C164.756 6.78204 164.406 7.16004 164.406 7.88804V8.29403H166.142V9.80604H164.406V15H162.684V9.80604H161.592ZM167.171 15V8.29403H168.879V9.28804C169.201 8.57404 169.775 8.11204 170.531 8.11204C170.979 8.11204 171.343 8.22404 171.595 8.43404L170.895 10.044C170.671 9.87603 170.335 9.76404 169.999 9.76404C169.327 9.76404 168.879 10.338 168.879 11.248V15H167.171ZM174.387 8.29403V11.92C174.387 12.9 174.947 13.558 175.801 13.558C176.655 13.558 177.229 12.9 177.229 11.92V8.29403H178.951V12.046C178.951 13.922 177.691 15.168 175.801 15.168C173.911 15.168 172.679 13.922 172.679 12.046V8.29403H174.387ZM181.615 7.39804C181.055 7.39804 180.621 6.95004 180.621 6.39004C180.621 5.84404 181.055 5.39604 181.615 5.39604C182.161 5.39604 182.623 5.84404 182.623 6.39004C182.623 6.95004 182.161 7.39804 181.615 7.39804ZM182.469 15H180.761V8.29403H182.469V15ZM183.698 9.80604V8.29403H184.874V6.55804H186.596V8.29403H188.402V9.80604H186.61V12.662C186.61 13.292 186.862 13.586 187.366 13.586C187.688 13.586 187.996 13.446 188.164 13.25L188.92 14.524C188.556 14.888 187.926 15.182 187.1 15.182C185.742 15.182 184.874 14.342 184.874 12.704V9.80604H183.698Z" fill="black"/>
<path fill-rule="evenodd" clip-rule="evenodd" d="M194 11C194 6.58854 197.589 3 202 3C206.411 3 210 6.58854 210 11C210 15.4115 206.411 19 202 19C197.589 19 194 15.4115 194 11ZM208.769 11C208.769 7.25312 205.747 4.23077 202 4.23077C198.253 4.23077 195.231 7.25312 195.231 11C195.231 14.7469 198.253 17.7692 202 17.7692C205.747 17.7692 208.769 14.7469 208.769 11ZM202.923 14.3846C202.923 14.8944 202.51 15.3077 202 15.3077C201.49 15.3077 201.077 14.8944 201.077 14.3846C201.077 13.8748 201.49 13.4615 202 13.4615C202.51 13.4615 202.923 13.8748 202.923 14.3846ZM199.231 9.42735C199.231 7.92361 200.477 6.69231 202 6.69231C203.523 6.69231 204.769 7.92361 204.769 9.42735C204.769 10.5358 204.039 11.5347 202.974 11.8846L202.692 11.9701V12.8462H201.308V11.9701C201.308 11.3851 201.694 10.851 202.26 10.6667L202.541 10.5812C203.044 10.4156 203.385 9.95086 203.385 9.42735C203.385 8.66346 202.773 8.05983 202 8.05983C201.227 8.05983 200.615 8.66346 200.615 9.42735H199.231Z" fill="#794CFF"/>
<path d="M255 27H41C37.134 27 34 30.134 34 34V62C34 65.866 37.134 69 41 69H255C258.866 69 262 65.866 262 62V34C262 30.134 258.866 27 255 27Z" fill="white"/>
<path d="M255 27H41C37.134 27 34 30.134 34 34V62C34 65.866 37.134 69 41 69H255C258.866 69 262 65.866 262 62V34C262 30.134 258.866 27 255 27Z" stroke="#D6D6D6" stroke-width="2"/>
<path d="M46.0234 52V43.04H51.7074V44.678H47.7734V46.848H51.1474V48.5H47.7734V52H46.0234ZM52.9807 52V45.294H54.6887V46.288C55.0107 45.574 55.5847 45.112 56.3407 45.112C56.7887 45.112 57.1527 45.224 57.4047 45.434L56.7047 47.044C56.4807 46.876 56.1447 46.764 55.8087 46.764C55.1367 46.764 54.6887 47.338 54.6887 48.248V52H52.9807ZM60.1965 45.294V48.92C60.1965 49.9 60.7565 50.558 61.6105 50.558C62.4645 50.558 63.0385 49.9 63.0385 48.92V45.294H64.7605V49.046C64.7605 50.922 63.5005 52.168 61.6105 52.168C59.7205 52.168 58.4885 50.922 58.4885 49.046V45.294H60.1965ZM67.4246 44.398C66.8646 44.398 66.4306 43.95 66.4306 43.39C66.4306 42.844 66.8646 42.396 67.4246 42.396C67.9706 42.396 68.4326 42.844 68.4326 43.39C68.4326 43.95 67.9706 44.398 67.4246 44.398ZM68.2786 52H66.5706V45.294H68.2786V52ZM69.5076 46.806V45.294H70.6836V43.558H72.4056V45.294H74.2116V46.806H72.4196V49.662C72.4196 50.292 72.6716 50.586 73.1756 50.586C73.4976 50.586 73.8056 50.446 73.9736 50.25L74.7296 51.524C74.3656 51.888 73.7356 52.182 72.9096 52.182C71.5516 52.182 70.6836 51.342 70.6836 49.704V46.806H69.5076ZM81.9136 52.182C79.9676 52.182 78.4276 50.6 78.4276 48.64C78.4276 46.694 79.9676 45.112 81.9136 45.112C83.8596 45.112 85.3996 46.694 85.3996 48.64C85.3996 50.6 83.8596 52.182 81.9136 52.182ZM81.9136 50.586C82.9496 50.586 83.6916 49.718 83.6916 48.64C83.6916 47.562 82.9496 46.708 81.9136 46.708C80.8776 46.708 80.1356 47.562 80.1356 48.64C80.1356 49.718 80.8776 50.586 81.9136 50.586ZM88.5813 54.744H86.8733V45.294H88.5813V46.246C89.0293 45.56 89.7293 45.112 90.6393 45.112C92.4033 45.112 93.8593 46.554 93.8593 48.654C93.8593 50.67 92.5013 52.182 90.6393 52.182C89.7293 52.182 89.0293 51.776 88.5813 51.104V54.744ZM90.3733 50.586C91.3953 50.586 92.1513 49.732 92.1513 48.654C92.1513 47.576 91.3953 46.708 90.3733 46.708C89.3373 46.708 88.5813 47.576 88.5813 48.654C88.5813 49.732 89.3373 50.586 90.3733 50.586ZM94.6229 46.806V45.294H95.7989V43.558H97.5209V45.294H99.3269V46.806H97.5349V49.662C97.5349 50.292 97.7869 50.586 98.2909 50.586C98.6129 50.586 98.9209 50.446 99.0889 50.25L99.8449 51.524C99.4809 51.888 98.8509 52.182 98.0249 52.182C96.6669 52.182 95.7989 51.342 95.7989 49.704V46.806H94.6229ZM101.836 44.398C101.276 44.398 100.842 43.95 100.842 43.39C100.842 42.844 101.276 42.396 101.836 42.396C102.382 42.396 102.844 42.844 102.844 43.39C102.844 43.95 102.382 44.398 101.836 44.398ZM102.69 52H100.982V45.294H102.69V52ZM107.657 52.182C105.711 52.182 104.171 50.6 104.171 48.64C104.171 46.694 105.711 45.112 107.657 45.112C109.603 45.112 111.143 46.694 111.143 48.64C111.143 50.6 109.603 52.182 107.657 52.182ZM107.657 50.586C108.693 50.586 109.435 49.718 109.435 48.64C109.435 47.562 108.693 46.708 107.657 46.708C106.621 46.708 105.879 47.562 105.879 48.64C105.879 49.718 106.621 50.586 107.657 50.586ZM112.617 52V45.294H114.325V46.246C114.675 45.532 115.347 45.112 116.229 45.112C117.769 45.112 118.763 46.19 118.763 47.94V52H117.055V48.192C117.055 47.282 116.537 46.708 115.697 46.708C114.857 46.708 114.325 47.282 114.325 48.192V52H112.617ZM122.673 52.182C121.595 52.182 120.713 51.902 120.055 51.538L120.601 50.222C121.371 50.586 122.015 50.782 122.757 50.782C123.513 50.782 123.863 50.516 123.863 50.124C123.863 48.92 120.251 49.634 120.251 47.1C120.251 46.092 121.147 45.112 122.869 45.112C123.807 45.112 124.521 45.308 125.375 45.714L124.745 46.988C124.269 46.722 123.555 46.512 123.009 46.512C122.365 46.512 121.973 46.722 121.973 47.086C121.973 48.318 125.557 47.548 125.557 50.096C125.557 51.258 124.521 52.182 122.673 52.182Z" fill="black"/>
<path d="M245 51L240 45.9524L241 45L245 49.2857L249 45L250 45.9524L245 51Z" fill="black"/>
<g filter="url(#filter0_d_6343_39768)">
<mask id="mask0_6343_39768" style="mask-type:luminance" maskUnits="userSpaceOnUse" x="33" y="74" width="230" height="132">
<path d="M255 74H41C36.5817 74 33 77.5817 33 82V198C33 202.418 36.5817 206 41 206H255C259.418 206 263 202.418 263 198V82C263 77.5817 259.418 74 255 74Z" fill="white"/>
</mask>
<g mask="url(#mask0_6343_39768)">
<path d="M255 74H41C36.5817 74 33 77.5817 33 82V198C33 202.418 36.5817 206 41 206H255C259.418 206 263 202.418 263 198V82C263 77.5817 259.418 74 255 74Z" fill="white"/>
<path d="M263 74H33V118H263V74Z" fill="white"/>
<path d="M52.5056 99.9999L51.7216 97.9839H47.8016L47.0176 99.9999H45.1836L48.7816 91.0259H50.8396L54.4516 99.9999H52.5056ZM48.3896 96.4299H51.1336L49.7616 92.8879L48.3896 96.4299ZM57.2729 102.744H55.5649V93.2939H57.2729V94.2459C57.7209 93.5599 58.4209 93.1119 59.3309 93.1119C61.0949 93.1119 62.5509 94.5539 62.5509 96.6539C62.5509 98.6699 61.1929 100.182 59.3309 100.182C58.4209 100.182 57.7209 99.7759 57.2729 99.1039V102.744ZM59.0649 98.5859C60.0869 98.5859 60.8429 97.7319 60.8429 96.6539C60.8429 95.5759 60.0869 94.7079 59.0649 94.7079C58.0289 94.7079 57.2729 95.5759 57.2729 96.6539C57.2729 97.7319 58.0289 98.5859 59.0649 98.5859ZM65.7085 102.744H64.0005V93.2939H65.7085V94.2459C66.1565 93.5599 66.8565 93.1119 67.7665 93.1119C69.5305 93.1119 70.9865 94.5539 70.9865 96.6539C70.9865 98.6699 69.6285 100.182 67.7665 100.182C66.8565 100.182 66.1565 99.7759 65.7085 99.1039V102.744ZM67.5005 98.5859C68.5225 98.5859 69.2785 97.7319 69.2785 96.6539C69.2785 95.5759 68.5225 94.7079 67.5005 94.7079C66.4645 94.7079 65.7085 95.5759 65.7085 96.6539C65.7085 97.7319 66.4645 98.5859 67.5005 98.5859ZM75.026 98.5159L75.208 100.014C74.956 100.098 74.634 100.154 74.382 100.154C73.416 100.154 72.436 99.5379 72.436 97.8299V90.3679H74.144V97.8719C74.144 98.3899 74.438 98.5859 74.746 98.5859C74.83 98.5859 74.942 98.5579 75.026 98.5159ZM79.7973 100.182C77.7113 100.182 76.1993 98.5999 76.1993 96.6399C76.1993 94.6939 77.6413 93.1119 79.5733 93.1119C81.4913 93.1119 82.9613 94.5819 82.9613 96.5139C82.9613 96.7379 82.9473 97.0039 82.9193 97.1159H77.9493C78.1313 98.0399 78.8313 98.6839 79.8533 98.6839C80.5393 98.6839 81.1133 98.3899 81.5053 97.9839L82.3873 99.1599C81.8693 99.7339 80.9173 100.182 79.7973 100.182ZM79.6013 94.5539C78.7893 94.5539 78.2013 95.1139 77.9913 95.9259H81.1973C80.9873 95.0299 80.3853 94.5539 79.6013 94.5539ZM86.3475 100.182C85.2695 100.182 84.3875 99.9019 83.7295 99.5379L84.2755 98.2219C85.0455 98.5859 85.6895 98.7819 86.4315 98.7819C87.1875 98.7819 87.5375 98.5159 87.5375 98.1239C87.5375 96.9199 83.9255 97.6339 83.9255 95.0999C83.9255 94.0919 84.8215 93.1119 86.5435 93.1119C87.4815 93.1119 88.1955 93.3079 89.0495 93.7139L88.4195 94.9879C87.9435 94.7219 87.2295 94.5119 86.6835 94.5119C86.0395 94.5119 85.6475 94.7219 85.6475 95.0859C85.6475 96.3179 89.2315 95.5479 89.2315 98.0959C89.2315 99.2579 88.1955 100.182 86.3475 100.182Z" fill="black"/>
<path d="M263 118H33V162H263V118Z" fill="#EBEBEB"/>
<path d="M46.0234 144V135.04H49.6354C51.3154 135.04 52.5894 136.062 52.5894 137.518C52.5894 138.568 51.8614 139.142 51.2594 139.394C52.1414 139.66 52.8414 140.36 52.8414 141.48C52.8414 142.824 51.7914 144 49.8454 144H46.0234ZM49.4674 136.58H47.7734V138.736H49.4674C50.2374 138.736 50.7694 138.288 50.7694 137.658C50.7694 137.028 50.2234 136.58 49.4674 136.58ZM49.6634 140.178H47.7734V142.446H49.6634C50.4474 142.446 51.0214 141.97 51.0214 141.312C51.0214 140.654 50.4474 140.178 49.6634 140.178ZM56.9969 144.182C55.2329 144.182 53.7909 142.74 53.7909 140.64C53.7909 138.624 55.1489 137.112 56.9969 137.112C57.9069 137.112 58.6069 137.518 59.0549 138.176V137.294H60.7629V144H59.0549V143.048C58.6069 143.734 57.9069 144.182 56.9969 144.182ZM57.2769 142.586C58.3129 142.586 59.0549 141.718 59.0549 140.64C59.0549 139.562 58.3129 138.708 57.2769 138.708C56.2409 138.708 55.4989 139.562 55.4989 140.64C55.4989 141.718 56.2409 142.586 57.2769 142.586ZM62.6604 144V137.294H64.3684V138.246C64.7184 137.532 65.3904 137.112 66.2724 137.112C67.8124 137.112 68.8064 138.19 68.8064 139.94V144H67.0984V140.192C67.0984 139.282 66.5804 138.708 65.7404 138.708C64.9004 138.708 64.3684 139.282 64.3684 140.192V144H62.6604ZM73.4305 144.182C71.6665 144.182 70.2245 142.74 70.2245 140.64C70.2245 138.624 71.5825 137.112 73.4305 137.112C74.3405 137.112 75.0405 137.518 75.4885 138.176V137.294H77.1965V144H75.4885V143.048C75.0405 143.734 74.3405 144.182 73.4305 144.182ZM73.7105 142.586C74.7465 142.586 75.4885 141.718 75.4885 140.64C75.4885 139.562 74.7465 138.708 73.7105 138.708C72.6745 138.708 71.9325 139.562 71.9325 140.64C71.9325 141.718 72.6745 142.586 73.7105 142.586ZM79.094 144V137.294H80.802V138.246C81.152 137.532 81.824 137.112 82.706 137.112C84.246 137.112 85.24 138.19 85.24 139.94V144H83.532V140.192C83.532 139.282 83.014 138.708 82.174 138.708C81.334 138.708 80.802 139.282 80.802 140.192V144H79.094ZM89.8641 144.182C88.1001 144.182 86.6581 142.74 86.6581 140.64C86.6581 138.624 88.0161 137.112 89.8641 137.112C90.7741 137.112 91.4741 137.518 91.9221 138.176V137.294H93.6301V144H91.9221V143.048C91.4741 143.734 90.7741 144.182 89.8641 144.182ZM90.1441 142.586C91.1801 142.586 91.9221 141.718 91.9221 140.64C91.9221 139.562 91.1801 138.708 90.1441 138.708C89.1081 138.708 88.3661 139.562 88.3661 140.64C88.3661 141.718 89.1081 142.586 90.1441 142.586ZM97.5856 144.182C96.5076 144.182 95.6256 143.902 94.9676 143.538L95.5136 142.222C96.2836 142.586 96.9276 142.782 97.6696 142.782C98.4256 142.782 98.7756 142.516 98.7756 142.124C98.7756 140.92 95.1636 141.634 95.1636 139.1C95.1636 138.092 96.0596 137.112 97.7816 137.112C98.7196 137.112 99.4336 137.308 100.287 137.714L99.6576 138.988C99.1816 138.722 98.4676 138.512 97.9216 138.512C97.2776 138.512 96.8856 138.722 96.8856 139.086C96.8856 140.318 100.469 139.548 100.469 142.096C100.469 143.258 99.4336 144.182 97.5856 144.182Z" fill="#794CFF"/>
<path d="M263 162H33V206H263V162Z" fill="white"/>
<path d="M53.4826 180.062L52.3206 181.406C51.8026 180.93 51.0746 180.58 50.1786 180.58C48.6526 180.58 47.4346 181.896 47.4346 183.52C47.4346 185.13 48.6526 186.446 50.2906 186.446C51.0606 186.446 51.8306 186.152 52.3346 185.634L53.4826 186.922C52.6986 187.79 51.6206 188.182 50.1786 188.182C47.5606 188.182 45.5586 186.082 45.5586 183.52C45.5586 180.93 47.6306 178.844 50.1646 178.844C51.6766 178.844 52.7406 179.306 53.4826 180.062ZM54.7143 188V178.368H56.4223V182.246C56.7723 181.532 57.4443 181.112 58.3263 181.112C59.8663 181.112 60.8603 182.19 60.8603 183.94V188H59.1523V184.192C59.1523 183.282 58.6343 182.708 57.7943 182.708C56.9543 182.708 56.4223 183.282 56.4223 184.192V188H54.7143ZM65.8763 188.182C63.7903 188.182 62.2783 186.6 62.2783 184.64C62.2783 182.694 63.7203 181.112 65.6523 181.112C67.5703 181.112 69.0403 182.582 69.0403 184.514C69.0403 184.738 69.0263 185.004 68.9983 185.116H64.0283C64.2103 186.04 64.9103 186.684 65.9323 186.684C66.6183 186.684 67.1923 186.39 67.5843 185.984L68.4663 187.16C67.9483 187.734 66.9963 188.182 65.8763 188.182ZM65.6803 182.554C64.8683 182.554 64.2803 183.114 64.0703 183.926H67.2763C67.0663 183.03 66.4643 182.554 65.6803 182.554ZM70.4096 188V181.294H72.1176V182.288C72.4396 181.574 73.0136 181.112 73.7696 181.112C74.2176 181.112 74.5816 181.224 74.8336 181.434L74.1336 183.044C73.9096 182.876 73.5736 182.764 73.2376 182.764C72.5656 182.764 72.1176 183.338 72.1176 184.248V188H70.4096ZM76.0014 188V181.294H77.7094V182.288C78.0314 181.574 78.6054 181.112 79.3614 181.112C79.8094 181.112 80.1734 181.224 80.4254 181.434L79.7254 183.044C79.5014 182.876 79.1654 182.764 78.8294 182.764C78.1574 182.764 77.7094 183.338 77.7094 184.248V188H76.0014ZM82.4472 180.398C81.8872 180.398 81.4532 179.95 81.4532 179.39C81.4532 178.844 81.8872 178.396 82.4472 178.396C82.9932 178.396 83.4552 178.844 83.4552 179.39C83.4552 179.95 82.9932 180.398 82.4472 180.398ZM83.3012 188H81.5932V181.294H83.3012V188ZM88.3802 188.182C86.2942 188.182 84.7822 186.6 84.7822 184.64C84.7822 182.694 86.2242 181.112 88.1562 181.112C90.0742 181.112 91.5442 182.582 91.5442 184.514C91.5442 184.738 91.5302 185.004 91.5022 185.116H86.5322C86.7142 186.04 87.4142 186.684 88.4362 186.684C89.1222 186.684 89.6962 186.39 90.0882 185.984L90.9702 187.16C90.4522 187.734 89.5002 188.182 88.3802 188.182ZM88.1842 182.554C87.3722 182.554 86.7842 183.114 86.5742 183.926H89.7802C89.5702 183.03 88.9682 182.554 88.1842 182.554ZM94.9305 188.182C93.8525 188.182 92.9705 187.902 92.3125 187.538L92.8585 186.222C93.6285 186.586 94.2725 186.782 95.0145 186.782C95.7705 186.782 96.1205 186.516 96.1205 186.124C96.1205 184.92 92.5085 185.634 92.5085 183.1C92.5085 182.092 93.4045 181.112 95.1265 181.112C96.0645 181.112 96.7785 181.308 97.6325 181.714L97.0025 182.988C96.5265 182.722 95.8125 182.512 95.2665 182.512C94.6225 182.512 94.2305 182.722 94.2305 183.086C94.2305 184.318 97.8145 183.548 97.8145 186.096C97.8145 187.258 96.7785 188.182 94.9305 188.182Z" fill="black"/>
</g>
<path d="M255 73.5H41C36.3056 73.5 32.5 77.3056 32.5 82V198C32.5 202.694 36.3056 206.5 41 206.5H255C259.694 206.5 263.5 202.694 263.5 198V82C263.5 77.3056 259.694 73.5 255 73.5Z" stroke="#EBEBEB"/>
</g>
<defs>
<filter id="filter0_d_6343_39768" x="0" y="57" width="296" height="198" filterUnits="userSpaceOnUse" color-interpolation-filters="sRGB">
<feFlood flood-opacity="0" result="BackgroundImageFix"/>
<feColorMatrix in="SourceAlpha" type="matrix" values="0 0 0 0 0 0 0 0 0 0 0 0 0 0 0 0 0 0 127 0" result="hardAlpha"/>
<feOffset dy="16"/>
<feGaussianBlur stdDeviation="16"/>
<feComposite in2="hardAlpha" operator="out"/>
<feColorMatrix type="matrix" values="0 0 0 0 0 0 0 0 0 0 0 0 0 0 0 0 0 0 0.1 0"/>
<feBlend mode="normal" in2="BackgroundImageFix" result="effect1_dropShadow_6343_39768"/>
<feBlend mode="normal" in="SourceGraphic" in2="effect1_dropShadow_6343_39768" result="shape"/>
</filter>
</defs>
</svg>
