<svg width="469" height="256" viewBox="0 0 469 256" fill="none" xmlns="http://www.w3.org/2000/svg">
<path d="M107.022 16V7.04H110.018C112.972 7.04 115.086 8.902 115.086 11.52C115.086 14.138 113 16 110.074 16H107.022ZM110.004 8.678H108.828V14.348H110.018C111.936 14.348 113.21 13.228 113.21 11.52C113.21 9.798 111.936 8.678 110.004 8.678ZM116.604 16V9.294H118.312V10.288C118.634 9.574 119.208 9.112 119.964 9.112C120.412 9.112 120.776 9.224 121.028 9.434L120.328 11.044C120.104 10.876 119.768 10.764 119.432 10.764C118.76 10.764 118.312 11.338 118.312 12.248V16H116.604ZM124.688 16.182C122.742 16.182 121.202 14.6 121.202 12.64C121.202 10.694 122.742 9.112 124.688 9.112C126.634 9.112 128.174 10.694 128.174 12.64C128.174 14.6 126.634 16.182 124.688 16.182ZM124.688 14.586C125.724 14.586 126.466 13.718 126.466 12.64C126.466 11.562 125.724 10.708 124.688 10.708C123.652 10.708 122.91 11.562 122.91 12.64C122.91 13.718 123.652 14.586 124.688 14.586ZM131.355 18.744H129.647V9.294H131.355V10.246C131.803 9.56 132.503 9.112 133.413 9.112C135.177 9.112 136.633 10.554 136.633 12.654C136.633 14.67 135.275 16.182 133.413 16.182C132.503 16.182 131.803 15.776 131.355 15.104V18.744ZM133.147 14.586C134.169 14.586 134.925 13.732 134.925 12.654C134.925 11.576 134.169 10.708 133.147 10.708C132.111 10.708 131.355 11.576 131.355 12.654C131.355 13.732 132.111 14.586 133.147 14.586ZM140.855 16.182C139.091 16.182 137.649 14.74 137.649 12.64C137.649 10.624 139.007 9.112 140.855 9.112C141.765 9.112 142.465 9.518 142.913 10.176V6.368H144.621V16H142.913V15.048C142.465 15.734 141.765 16.182 140.855 16.182ZM141.135 14.586C142.171 14.586 142.913 13.718 142.913 12.64C142.913 11.562 142.171 10.708 141.135 10.708C140.099 10.708 139.357 11.562 139.357 12.64C139.357 13.718 140.099 14.586 141.135 14.586ZM149.57 16.182C147.624 16.182 146.084 14.6 146.084 12.64C146.084 10.694 147.624 9.112 149.57 9.112C151.516 9.112 153.056 10.694 153.056 12.64C153.056 14.6 151.516 16.182 149.57 16.182ZM149.57 14.586C150.606 14.586 151.348 13.718 151.348 12.64C151.348 11.562 150.606 10.708 149.57 10.708C148.534 10.708 147.792 11.562 147.792 12.64C147.792 13.718 148.534 14.586 149.57 14.586ZM157.534 16H155.602L153.53 9.294H155.364L156.61 14.124L157.968 9.294H159.816L161.202 14.152L162.476 9.294H164.31L162.238 16H160.11L158.808 11.45L157.534 16ZM165.522 16V9.294H167.23V10.246C167.58 9.532 168.252 9.112 169.134 9.112C170.674 9.112 171.668 10.19 171.668 11.94V16H169.96V12.192C169.96 11.282 169.442 10.708 168.602 10.708C167.762 10.708 167.23 11.282 167.23 12.192V16H165.522ZM176.585 16V7.026H178.335V14.348H182.717V16H176.585ZM186.369 16.182C184.605 16.182 183.163 14.74 183.163 12.64C183.163 10.624 184.521 9.112 186.369 9.112C187.279 9.112 187.979 9.518 188.427 10.176V9.294H190.135V16H188.427V15.048C187.979 15.734 187.279 16.182 186.369 16.182ZM186.649 14.586C187.685 14.586 188.427 13.718 188.427 12.64C188.427 11.562 187.685 10.708 186.649 10.708C185.613 10.708 184.871 11.562 184.871 12.64C184.871 13.718 185.613 14.586 186.649 14.586ZM195.798 9.112C197.562 9.112 199.018 10.554 199.018 12.654C199.018 14.67 197.66 16.182 195.798 16.182C194.888 16.182 194.188 15.776 193.74 15.104V16H192.032V6.368H193.74V10.246C194.188 9.56 194.888 9.112 195.798 9.112ZM195.532 10.708C194.496 10.708 193.74 11.576 193.74 12.654C193.74 13.732 194.496 14.586 195.532 14.586C196.554 14.586 197.31 13.732 197.31 12.654C197.31 11.576 196.554 10.708 195.532 10.708ZM203.632 16.182C201.546 16.182 200.034 14.6 200.034 12.64C200.034 10.694 201.476 9.112 203.408 9.112C205.326 9.112 206.796 10.582 206.796 12.514C206.796 12.738 206.782 13.004 206.754 13.116H201.784C201.966 14.04 202.666 14.684 203.688 14.684C204.374 14.684 204.948 14.39 205.34 13.984L206.222 15.16C205.704 15.734 204.752 16.182 203.632 16.182ZM203.436 10.554C202.624 10.554 202.036 11.114 201.826 11.926H205.032C204.822 11.03 204.22 10.554 203.436 10.554ZM210.755 14.516L210.937 16.014C210.685 16.098 210.363 16.154 210.111 16.154C209.145 16.154 208.165 15.538 208.165 13.83V6.368H209.873V13.872C209.873 14.39 210.167 14.586 210.475 14.586C210.559 14.586 210.671 14.558 210.755 14.516Z" fill="black"/>
<path fill-rule="evenodd" clip-rule="evenodd" d="M216 12C216 7.58854 219.589 4 224 4C228.411 4 232 7.58854 232 12C232 16.4115 228.411 20 224 20C219.589 20 216 16.4115 216 12ZM230.769 12C230.769 8.25312 227.747 5.23077 224 5.23077C220.253 5.23077 217.231 8.25312 217.231 12C217.231 15.7469 220.253 18.7692 224 18.7692C227.747 18.7692 230.769 15.7469 230.769 12ZM224.923 15.3846C224.923 15.8944 224.51 16.3077 224 16.3077C223.49 16.3077 223.077 15.8944 223.077 15.3846C223.077 14.8748 223.49 14.4615 224 14.4615C224.51 14.4615 224.923 14.8748 224.923 15.3846ZM221.231 10.4274C221.231 8.92361 222.477 7.69231 224 7.69231C225.523 7.69231 226.769 8.92361 226.769 10.4274C226.769 11.5358 226.039 12.5347 224.974 12.8846L224.692 12.9701V13.8462H223.308V12.9701C223.308 12.3851 223.694 11.851 224.26 11.6667L224.541 11.5812C225.044 11.4156 225.385 10.9509 225.385 10.4274C225.385 9.66346 224.773 9.05983 224 9.05983C223.227 9.05983 222.615 9.66346 222.615 10.4274H221.231Z" fill="#1355E9"/>
<rect x="107" y="28" width="228" height="42" rx="7" fill="white"/>
<rect x="107" y="28" width="228" height="42" rx="7" stroke="#D6D6D6" stroke-width="2"/>
<path d="M119.022 53V44.04H122.018C124.972 44.04 127.086 45.902 127.086 48.52C127.086 51.138 125 53 122.074 53H119.022ZM122.004 45.678H120.828V51.348H122.018C123.936 51.348 125.21 50.228 125.21 48.52C125.21 46.798 123.936 45.678 122.004 45.678ZM131.768 53.182C129.682 53.182 128.17 51.6 128.17 49.64C128.17 47.694 129.612 46.112 131.544 46.112C133.462 46.112 134.932 47.582 134.932 49.514C134.932 49.738 134.918 50.004 134.89 50.116H129.92C130.102 51.04 130.802 51.684 131.824 51.684C132.51 51.684 133.084 51.39 133.476 50.984L134.358 52.16C133.84 52.734 132.888 53.182 131.768 53.182ZM131.572 47.554C130.76 47.554 130.172 48.114 129.962 48.926H133.168C132.958 48.03 132.356 47.554 131.572 47.554ZM135.7 47.806V46.294H136.792V45.902C136.792 44.208 137.758 43.186 139.256 43.186C140.166 43.186 140.754 43.438 141.188 43.872L140.348 45.16C140.152 44.95 139.788 44.782 139.424 44.782C138.864 44.782 138.514 45.16 138.514 45.888V46.294H140.25V47.806H138.514V53H136.792V47.806H135.7ZM143.913 53.182C142.149 53.182 140.707 51.74 140.707 49.64C140.707 47.624 142.065 46.112 143.913 46.112C144.823 46.112 145.523 46.518 145.971 47.176V46.294H147.679V53H145.971V52.048C145.523 52.734 144.823 53.182 143.913 53.182ZM144.193 51.586C145.229 51.586 145.971 50.718 145.971 49.64C145.971 48.562 145.229 47.708 144.193 47.708C143.157 47.708 142.415 48.562 142.415 49.64C142.415 50.718 143.157 51.586 144.193 51.586ZM151.201 46.294V49.92C151.201 50.9 151.761 51.558 152.615 51.558C153.469 51.558 154.043 50.9 154.043 49.92V46.294H155.765V50.046C155.765 51.922 154.505 53.168 152.615 53.168C150.725 53.168 149.493 51.922 149.493 50.046V46.294H151.201ZM160.165 51.516L160.347 53.014C160.095 53.098 159.773 53.154 159.521 53.154C158.555 53.154 157.575 52.538 157.575 50.83V43.368H159.283V50.872C159.283 51.39 159.577 51.586 159.885 51.586C159.969 51.586 160.081 51.558 160.165 51.516ZM161.086 47.806V46.294H162.262V44.558H163.984V46.294H165.79V47.806H163.998V50.662C163.998 51.292 164.25 51.586 164.754 51.586C165.076 51.586 165.384 51.446 165.552 51.25L166.308 52.524C165.944 52.888 165.314 53.182 164.488 53.182C163.13 53.182 162.262 52.342 162.262 50.704V47.806H161.086ZM174.696 43.844C177.258 43.844 179.344 45.944 179.344 48.534C179.344 51.096 177.258 53.182 174.696 53.182C172.134 53.182 170.048 51.082 170.048 48.52C170.048 45.93 172.134 43.844 174.696 43.844ZM174.696 51.446C176.236 51.446 177.482 50.13 177.482 48.534C177.482 46.91 176.236 45.58 174.696 45.58C173.156 45.58 171.924 46.896 171.924 48.52C171.924 50.13 173.156 51.446 174.696 51.446ZM182.566 55.744H180.858V46.294H182.566V47.246C183.014 46.56 183.714 46.112 184.624 46.112C186.388 46.112 187.844 47.554 187.844 49.654C187.844 51.67 186.486 53.182 184.624 53.182C183.714 53.182 183.014 52.776 182.566 52.104V55.744ZM184.358 51.586C185.38 51.586 186.136 50.732 186.136 49.654C186.136 48.576 185.38 47.708 184.358 47.708C183.322 47.708 182.566 48.576 182.566 49.654C182.566 50.732 183.322 51.586 184.358 51.586ZM188.608 47.806V46.294H189.784V44.558H191.506V46.294H193.312V47.806H191.52V50.662C191.52 51.292 191.772 51.586 192.276 51.586C192.598 51.586 192.906 51.446 193.074 51.25L193.83 52.524C193.466 52.888 192.836 53.182 192.01 53.182C190.652 53.182 189.784 52.342 189.784 50.704V47.806H188.608ZM195.822 45.398C195.262 45.398 194.828 44.95 194.828 44.39C194.828 43.844 195.262 43.396 195.822 43.396C196.368 43.396 196.83 43.844 196.83 44.39C196.83 44.95 196.368 45.398 195.822 45.398ZM196.676 53H194.968V46.294H196.676V53ZM201.643 53.182C199.697 53.182 198.157 51.6 198.157 49.64C198.157 47.694 199.697 46.112 201.643 46.112C203.589 46.112 205.129 47.694 205.129 49.64C205.129 51.6 203.589 53.182 201.643 53.182ZM201.643 51.586C202.679 51.586 203.421 50.718 203.421 49.64C203.421 48.562 202.679 47.708 201.643 47.708C200.607 47.708 199.865 48.562 199.865 49.64C199.865 50.718 200.607 51.586 201.643 51.586ZM206.602 53V46.294H208.31V47.246C208.66 46.532 209.332 46.112 210.214 46.112C211.754 46.112 212.748 47.19 212.748 48.94V53H211.04V49.192C211.04 48.282 210.522 47.708 209.682 47.708C208.842 47.708 208.31 48.282 208.31 49.192V53H206.602Z" fill="black"/>
<path d="M318 52L313 46.9524L314 46L318 50.2857L322 46L323 46.9524L318 52Z" fill="black"/>
<g filter="url(#filter0_d_37_8222)">
<g clip-path="url(#clip0_37_8222)">
<rect x="106" y="75" width="230" height="132" rx="8" fill="white"/>
<rect width="230" height="44" transform="translate(106 75)" fill="white"/>
<path d="M119.022 101V92.04H122.018C124.972 92.04 127.086 93.902 127.086 96.52C127.086 99.138 125 101 122.074 101H119.022ZM122.004 93.678H120.828V99.348H122.018C123.936 99.348 125.21 98.228 125.21 96.52C125.21 94.798 123.936 93.678 122.004 93.678ZM128.604 101V94.294H130.312V95.288C130.634 94.574 131.208 94.112 131.964 94.112C132.412 94.112 132.776 94.224 133.028 94.434L132.328 96.044C132.104 95.876 131.768 95.764 131.432 95.764C130.76 95.764 130.312 96.338 130.312 97.248V101H128.604ZM136.688 101.182C134.742 101.182 133.202 99.6 133.202 97.64C133.202 95.694 134.742 94.112 136.688 94.112C138.634 94.112 140.174 95.694 140.174 97.64C140.174 99.6 138.634 101.182 136.688 101.182ZM136.688 99.586C137.724 99.586 138.466 98.718 138.466 97.64C138.466 96.562 137.724 95.708 136.688 95.708C135.652 95.708 134.91 96.562 134.91 97.64C134.91 98.718 135.652 99.586 136.688 99.586ZM143.355 103.744H141.647V94.294H143.355V95.246C143.803 94.56 144.503 94.112 145.413 94.112C147.177 94.112 148.633 95.554 148.633 97.654C148.633 99.67 147.275 101.182 145.413 101.182C144.503 101.182 143.803 100.776 143.355 100.104V103.744ZM145.147 99.586C146.169 99.586 146.925 98.732 146.925 97.654C146.925 96.576 146.169 95.708 145.147 95.708C144.111 95.708 143.355 96.576 143.355 97.654C143.355 98.732 144.111 99.586 145.147 99.586ZM152.855 101.182C151.091 101.182 149.649 99.74 149.649 97.64C149.649 95.624 151.007 94.112 152.855 94.112C153.765 94.112 154.465 94.518 154.913 95.176V91.368H156.621V101H154.913V100.048C154.465 100.734 153.765 101.182 152.855 101.182ZM153.135 99.586C154.171 99.586 154.913 98.718 154.913 97.64C154.913 96.562 154.171 95.708 153.135 95.708C152.099 95.708 151.357 96.562 151.357 97.64C151.357 98.718 152.099 99.586 153.135 99.586ZM161.57 101.182C159.624 101.182 158.084 99.6 158.084 97.64C158.084 95.694 159.624 94.112 161.57 94.112C163.516 94.112 165.056 95.694 165.056 97.64C165.056 99.6 163.516 101.182 161.57 101.182ZM161.57 99.586C162.606 99.586 163.348 98.718 163.348 97.64C163.348 96.562 162.606 95.708 161.57 95.708C160.534 95.708 159.792 96.562 159.792 97.64C159.792 98.718 160.534 99.586 161.57 99.586ZM169.534 101H167.602L165.53 94.294H167.364L168.61 99.124L169.968 94.294H171.816L173.202 99.152L174.476 94.294H176.31L174.238 101H172.11L170.808 96.45L169.534 101ZM177.522 101V94.294H179.23V95.246C179.58 94.532 180.252 94.112 181.134 94.112C182.674 94.112 183.668 95.19 183.668 96.94V101H181.96V97.192C181.96 96.282 181.442 95.708 180.602 95.708C179.762 95.708 179.23 96.282 179.23 97.192V101H177.522ZM191.567 101.182C189.62 101.182 188.081 99.6 188.081 97.64C188.081 95.694 189.62 94.112 191.567 94.112C193.513 94.112 195.053 95.694 195.053 97.64C195.053 99.6 193.513 101.182 191.567 101.182ZM191.567 99.586C192.603 99.586 193.345 98.718 193.345 97.64C193.345 96.562 192.603 95.708 191.567 95.708C190.531 95.708 189.789 96.562 189.789 97.64C189.789 98.718 190.531 99.586 191.567 99.586ZM198.234 103.744H196.526V94.294H198.234V95.246C198.682 94.56 199.382 94.112 200.292 94.112C202.056 94.112 203.512 95.554 203.512 97.654C203.512 99.67 202.154 101.182 200.292 101.182C199.382 101.182 198.682 100.776 198.234 100.104V103.744ZM200.026 99.586C201.048 99.586 201.804 98.732 201.804 97.654C201.804 96.576 201.048 95.708 200.026 95.708C198.99 95.708 198.234 96.576 198.234 97.654C198.234 98.732 198.99 99.586 200.026 99.586ZM204.276 95.806V94.294H205.452V92.558H207.174V94.294H208.98V95.806H207.188V98.662C207.188 99.292 207.44 99.586 207.944 99.586C208.266 99.586 208.574 99.446 208.742 99.25L209.498 100.524C209.134 100.888 208.504 101.182 207.678 101.182C206.32 101.182 205.452 100.342 205.452 98.704V95.806H204.276ZM211.49 93.398C210.93 93.398 210.496 92.95 210.496 92.39C210.496 91.844 210.93 91.396 211.49 91.396C212.036 91.396 212.498 91.844 212.498 92.39C212.498 92.95 212.036 93.398 211.49 93.398ZM212.344 101H210.636V94.294H212.344V101ZM217.311 101.182C215.365 101.182 213.825 99.6 213.825 97.64C213.825 95.694 215.365 94.112 217.311 94.112C219.257 94.112 220.797 95.694 220.797 97.64C220.797 99.6 219.257 101.182 217.311 101.182ZM217.311 99.586C218.347 99.586 219.089 98.718 219.089 97.64C219.089 96.562 218.347 95.708 217.311 95.708C216.275 95.708 215.533 96.562 215.533 97.64C215.533 98.718 216.275 99.586 217.311 99.586ZM222.27 101V94.294H223.978V95.246C224.328 94.532 225 94.112 225.882 94.112C227.422 94.112 228.416 95.19 228.416 96.94V101H226.708V97.192C226.708 96.282 226.19 95.708 225.35 95.708C224.51 95.708 223.978 96.282 223.978 97.192V101H222.27Z" fill="black"/>
<rect width="230" height="44" transform="translate(106 119)" fill="#EBEBEB"/>
<path d="M119.022 145V136.04H122.018C124.972 136.04 127.086 137.902 127.086 140.52C127.086 143.138 125 145 122.074 145H119.022ZM122.004 137.678H120.828V143.348H122.018C123.936 143.348 125.21 142.228 125.21 140.52C125.21 138.798 123.936 137.678 122.004 137.678ZM128.604 145V138.294H130.312V139.288C130.634 138.574 131.208 138.112 131.964 138.112C132.412 138.112 132.776 138.224 133.028 138.434L132.328 140.044C132.104 139.876 131.768 139.764 131.432 139.764C130.76 139.764 130.312 140.338 130.312 141.248V145H128.604ZM136.688 145.182C134.742 145.182 133.202 143.6 133.202 141.64C133.202 139.694 134.742 138.112 136.688 138.112C138.634 138.112 140.174 139.694 140.174 141.64C140.174 143.6 138.634 145.182 136.688 145.182ZM136.688 143.586C137.724 143.586 138.466 142.718 138.466 141.64C138.466 140.562 137.724 139.708 136.688 139.708C135.652 139.708 134.91 140.562 134.91 141.64C134.91 142.718 135.652 143.586 136.688 143.586ZM143.355 147.744H141.647V138.294H143.355V139.246C143.803 138.56 144.503 138.112 145.413 138.112C147.177 138.112 148.633 139.554 148.633 141.654C148.633 143.67 147.275 145.182 145.413 145.182C144.503 145.182 143.803 144.776 143.355 144.104V147.744ZM145.147 143.586C146.169 143.586 146.925 142.732 146.925 141.654C146.925 140.576 146.169 139.708 145.147 139.708C144.111 139.708 143.355 140.576 143.355 141.654C143.355 142.732 144.111 143.586 145.147 143.586ZM152.855 145.182C151.091 145.182 149.649 143.74 149.649 141.64C149.649 139.624 151.007 138.112 152.855 138.112C153.765 138.112 154.465 138.518 154.913 139.176V135.368H156.621V145H154.913V144.048C154.465 144.734 153.765 145.182 152.855 145.182ZM153.135 143.586C154.171 143.586 154.913 142.718 154.913 141.64C154.913 140.562 154.171 139.708 153.135 139.708C152.099 139.708 151.357 140.562 151.357 141.64C151.357 142.718 152.099 143.586 153.135 143.586ZM161.57 145.182C159.624 145.182 158.084 143.6 158.084 141.64C158.084 139.694 159.624 138.112 161.57 138.112C163.516 138.112 165.056 139.694 165.056 141.64C165.056 143.6 163.516 145.182 161.57 145.182ZM161.57 143.586C162.606 143.586 163.348 142.718 163.348 141.64C163.348 140.562 162.606 139.708 161.57 139.708C160.534 139.708 159.792 140.562 159.792 141.64C159.792 142.718 160.534 143.586 161.57 143.586ZM169.534 145H167.602L165.53 138.294H167.364L168.61 143.124L169.968 138.294H171.816L173.202 143.152L174.476 138.294H176.31L174.238 145H172.11L170.808 140.45L169.534 145ZM177.522 145V138.294H179.23V139.246C179.58 138.532 180.252 138.112 181.134 138.112C182.674 138.112 183.668 139.19 183.668 140.94V145H181.96V141.192C181.96 140.282 181.442 139.708 180.602 139.708C179.762 139.708 179.23 140.282 179.23 141.192V145H177.522ZM191.567 145.182C189.62 145.182 188.081 143.6 188.081 141.64C188.081 139.694 189.62 138.112 191.567 138.112C193.513 138.112 195.053 139.694 195.053 141.64C195.053 143.6 193.513 145.182 191.567 145.182ZM191.567 143.586C192.603 143.586 193.345 142.718 193.345 141.64C193.345 140.562 192.603 139.708 191.567 139.708C190.531 139.708 189.789 140.562 189.789 141.64C189.789 142.718 190.531 143.586 191.567 143.586ZM198.234 147.744H196.526V138.294H198.234V139.246C198.682 138.56 199.382 138.112 200.292 138.112C202.056 138.112 203.512 139.554 203.512 141.654C203.512 143.67 202.154 145.182 200.292 145.182C199.382 145.182 198.682 144.776 198.234 144.104V147.744ZM200.026 143.586C201.048 143.586 201.804 142.732 201.804 141.654C201.804 140.576 201.048 139.708 200.026 139.708C198.99 139.708 198.234 140.576 198.234 141.654C198.234 142.732 198.99 143.586 200.026 143.586ZM204.276 139.806V138.294H205.452V136.558H207.174V138.294H208.98V139.806H207.188V142.662C207.188 143.292 207.44 143.586 207.944 143.586C208.266 143.586 208.574 143.446 208.742 143.25L209.498 144.524C209.134 144.888 208.504 145.182 207.678 145.182C206.32 145.182 205.452 144.342 205.452 142.704V139.806H204.276ZM211.49 137.398C210.93 137.398 210.496 136.95 210.496 136.39C210.496 135.844 210.93 135.396 211.49 135.396C212.036 135.396 212.498 135.844 212.498 136.39C212.498 136.95 212.036 137.398 211.49 137.398ZM212.344 145H210.636V138.294H212.344V145ZM217.311 145.182C215.365 145.182 213.825 143.6 213.825 141.64C213.825 139.694 215.365 138.112 217.311 138.112C219.257 138.112 220.797 139.694 220.797 141.64C220.797 143.6 219.257 145.182 217.311 145.182ZM217.311 143.586C218.347 143.586 219.089 142.718 219.089 141.64C219.089 140.562 218.347 139.708 217.311 139.708C216.275 139.708 215.533 140.562 215.533 141.64C215.533 142.718 216.275 143.586 217.311 143.586ZM222.27 145V138.294H223.978V139.246C224.328 138.532 225 138.112 225.882 138.112C227.422 138.112 228.416 139.19 228.416 140.94V145H226.708V141.192C226.708 140.282 226.19 139.708 225.35 139.708C224.51 139.708 223.978 140.282 223.978 141.192V145H222.27Z" fill="#1355E9"/>
<rect width="230" height="44" transform="translate(106 163)" fill="white"/>
<path d="M119.022 189V180.04H122.018C124.972 180.04 127.086 181.902 127.086 184.52C127.086 187.138 125 189 122.074 189H119.022ZM122.004 181.678H120.828V187.348H122.018C123.936 187.348 125.21 186.228 125.21 184.52C125.21 182.798 123.936 181.678 122.004 181.678ZM128.604 189V182.294H130.312V183.288C130.634 182.574 131.208 182.112 131.964 182.112C132.412 182.112 132.776 182.224 133.028 182.434L132.328 184.044C132.104 183.876 131.768 183.764 131.432 183.764C130.76 183.764 130.312 184.338 130.312 185.248V189H128.604ZM136.688 189.182C134.742 189.182 133.202 187.6 133.202 185.64C133.202 183.694 134.742 182.112 136.688 182.112C138.634 182.112 140.174 183.694 140.174 185.64C140.174 187.6 138.634 189.182 136.688 189.182ZM136.688 187.586C137.724 187.586 138.466 186.718 138.466 185.64C138.466 184.562 137.724 183.708 136.688 183.708C135.652 183.708 134.91 184.562 134.91 185.64C134.91 186.718 135.652 187.586 136.688 187.586ZM143.355 191.744H141.647V182.294H143.355V183.246C143.803 182.56 144.503 182.112 145.413 182.112C147.177 182.112 148.633 183.554 148.633 185.654C148.633 187.67 147.275 189.182 145.413 189.182C144.503 189.182 143.803 188.776 143.355 188.104V191.744ZM145.147 187.586C146.169 187.586 146.925 186.732 146.925 185.654C146.925 184.576 146.169 183.708 145.147 183.708C144.111 183.708 143.355 184.576 143.355 185.654C143.355 186.732 144.111 187.586 145.147 187.586ZM152.855 189.182C151.091 189.182 149.649 187.74 149.649 185.64C149.649 183.624 151.007 182.112 152.855 182.112C153.765 182.112 154.465 182.518 154.913 183.176V179.368H156.621V189H154.913V188.048C154.465 188.734 153.765 189.182 152.855 189.182ZM153.135 187.586C154.171 187.586 154.913 186.718 154.913 185.64C154.913 184.562 154.171 183.708 153.135 183.708C152.099 183.708 151.357 184.562 151.357 185.64C151.357 186.718 152.099 187.586 153.135 187.586ZM161.57 189.182C159.624 189.182 158.084 187.6 158.084 185.64C158.084 183.694 159.624 182.112 161.57 182.112C163.516 182.112 165.056 183.694 165.056 185.64C165.056 187.6 163.516 189.182 161.57 189.182ZM161.57 187.586C162.606 187.586 163.348 186.718 163.348 185.64C163.348 184.562 162.606 183.708 161.57 183.708C160.534 183.708 159.792 184.562 159.792 185.64C159.792 186.718 160.534 187.586 161.57 187.586ZM169.534 189H167.602L165.53 182.294H167.364L168.61 187.124L169.968 182.294H171.816L173.202 187.152L174.476 182.294H176.31L174.238 189H172.11L170.808 184.45L169.534 189ZM177.522 189V182.294H179.23V183.246C179.58 182.532 180.252 182.112 181.134 182.112C182.674 182.112 183.668 183.19 183.668 184.94V189H181.96V185.192C181.96 184.282 181.442 183.708 180.602 183.708C179.762 183.708 179.23 184.282 179.23 185.192V189H177.522ZM191.567 189.182C189.62 189.182 188.081 187.6 188.081 185.64C188.081 183.694 189.62 182.112 191.567 182.112C193.513 182.112 195.053 183.694 195.053 185.64C195.053 187.6 193.513 189.182 191.567 189.182ZM191.567 187.586C192.603 187.586 193.345 186.718 193.345 185.64C193.345 184.562 192.603 183.708 191.567 183.708C190.531 183.708 189.789 184.562 189.789 185.64C189.789 186.718 190.531 187.586 191.567 187.586ZM198.234 191.744H196.526V182.294H198.234V183.246C198.682 182.56 199.382 182.112 200.292 182.112C202.056 182.112 203.512 183.554 203.512 185.654C203.512 187.67 202.154 189.182 200.292 189.182C199.382 189.182 198.682 188.776 198.234 188.104V191.744ZM200.026 187.586C201.048 187.586 201.804 186.732 201.804 185.654C201.804 184.576 201.048 183.708 200.026 183.708C198.99 183.708 198.234 184.576 198.234 185.654C198.234 186.732 198.99 187.586 200.026 187.586ZM204.276 183.806V182.294H205.452V180.558H207.174V182.294H208.98V183.806H207.188V186.662C207.188 187.292 207.44 187.586 207.944 187.586C208.266 187.586 208.574 187.446 208.742 187.25L209.498 188.524C209.134 188.888 208.504 189.182 207.678 189.182C206.32 189.182 205.452 188.342 205.452 186.704V183.806H204.276ZM211.49 181.398C210.93 181.398 210.496 180.95 210.496 180.39C210.496 179.844 210.93 179.396 211.49 179.396C212.036 179.396 212.498 179.844 212.498 180.39C212.498 180.95 212.036 181.398 211.49 181.398ZM212.344 189H210.636V182.294H212.344V189ZM217.311 189.182C215.365 189.182 213.825 187.6 213.825 185.64C213.825 183.694 215.365 182.112 217.311 182.112C219.257 182.112 220.797 183.694 220.797 185.64C220.797 187.6 219.257 189.182 217.311 189.182ZM217.311 187.586C218.347 187.586 219.089 186.718 219.089 185.64C219.089 184.562 218.347 183.708 217.311 183.708C216.275 183.708 215.533 184.562 215.533 185.64C215.533 186.718 216.275 187.586 217.311 187.586ZM222.27 189V182.294H223.978V183.246C224.328 182.532 225 182.112 225.882 182.112C227.422 182.112 228.416 183.19 228.416 184.94V189H226.708V185.192C226.708 184.282 226.19 183.708 225.35 183.708C224.51 183.708 223.978 184.282 223.978 185.192V189H222.27Z" fill="black"/>
</g>
<rect x="105.5" y="74.5" width="231" height="133" rx="8.5" stroke="#EBEBEB"/>
</g>
<rect width="24" height="24" rx="12" fill="#F7D055"/>
<path d="M13.6829 6.81818V17H11.8384V8.61293H11.7788L9.39737 10.1342V8.44389L11.9279 6.81818H13.6829Z" fill="black"/>
<rect y="129" width="24" height="24" rx="12" fill="#F7D055"/>
<path d="M12.0945 146.139C11.6072 146.136 11.1316 146.051 10.6676 145.886C10.2036 145.717 9.78598 145.443 9.41477 145.065C9.04356 144.684 8.74858 144.179 8.52983 143.549C8.31108 142.916 8.20336 142.132 8.20668 141.197C8.20668 140.326 8.29948 139.549 8.48509 138.866C8.67069 138.183 8.9375 137.606 9.28551 137.136C9.63352 136.662 10.0528 136.3 10.5433 136.052C11.0372 135.803 11.589 135.679 12.1989 135.679C12.8385 135.679 13.4053 135.805 13.8991 136.057C14.3963 136.309 14.7973 136.653 15.1023 137.091C15.4072 137.525 15.5961 138.016 15.669 138.562H13.8544C13.7616 138.171 13.571 137.86 13.2827 137.628C12.9976 137.393 12.6364 137.275 12.1989 137.275C11.4929 137.275 10.9493 137.581 10.5682 138.195C10.1903 138.808 9.99976 139.65 9.99645 140.72H10.0661C10.2285 140.429 10.4389 140.178 10.6974 139.969C10.956 139.761 11.2476 139.6 11.5724 139.487C11.9006 139.371 12.2469 139.313 12.6115 139.313C13.2081 139.313 13.7434 139.456 14.2173 139.741C14.6946 140.026 15.0724 140.419 15.3509 140.919C15.6293 141.416 15.7668 141.986 15.7635 142.629C15.7668 143.299 15.6143 143.9 15.3061 144.434C14.9979 144.964 14.5687 145.382 14.0185 145.687C13.4683 145.992 12.8269 146.143 12.0945 146.139ZM12.0845 144.648C12.4458 144.648 12.7689 144.56 13.054 144.384C13.339 144.209 13.5644 143.972 13.7301 143.673C13.8958 143.375 13.977 143.04 13.9737 142.669C13.977 142.304 13.8975 141.975 13.7351 141.68C13.576 141.385 13.3556 141.151 13.0739 140.979C12.7921 140.806 12.4706 140.72 12.1094 140.72C11.8409 140.72 11.5907 140.772 11.3587 140.874C11.1267 140.977 10.9245 141.12 10.7521 141.302C10.5798 141.481 10.4439 141.69 10.3445 141.928C10.2483 142.164 10.1986 142.415 10.1953 142.684C10.1986 143.039 10.2815 143.365 10.4439 143.663C10.6063 143.962 10.83 144.2 11.1151 144.379C11.4001 144.558 11.7232 144.648 12.0845 144.648Z" fill="black"/>
<rect x="3" y="37" width="24" height="24" rx="12" fill="#F7D055"/>
<path d="M14.9994 54.1392C14.2835 54.1392 13.6471 54.0166 13.0903 53.7713C12.5368 53.526 12.0993 53.1847 11.7778 52.7472C11.4563 52.3097 11.2856 51.8042 11.2657 51.2308H13.135C13.1516 51.5059 13.2427 51.7462 13.4085 51.9517C13.5742 52.1539 13.7946 52.3113 14.0697 52.424C14.3448 52.5367 14.653 52.593 14.9944 52.593C15.359 52.593 15.6821 52.5301 15.9639 52.4041C16.2456 52.2749 16.466 52.0959 16.6251 51.8672C16.7842 51.6385 16.8621 51.375 16.8588 51.0767C16.8621 50.7685 16.7825 50.4967 16.6201 50.2614C16.4577 50.026 16.2224 49.8421 15.9142 49.7095C15.6092 49.5769 15.2413 49.5107 14.8105 49.5107H13.9106V48.0888H14.8105C15.1651 48.0888 15.475 48.0275 15.7401 47.9048C16.0086 47.7822 16.2191 47.6098 16.3715 47.3878C16.524 47.1624 16.5986 46.9022 16.5953 46.6072C16.5986 46.3189 16.5339 46.0687 16.4014 45.8565C16.2721 45.6411 16.0882 45.4737 15.8495 45.3544C15.6142 45.2351 15.3374 45.1754 15.0193 45.1754C14.7077 45.1754 14.4194 45.2318 14.1542 45.3445C13.8891 45.4571 13.6753 45.6179 13.5129 45.8267C13.3505 46.0322 13.2643 46.2775 13.2544 46.5625H11.4795C11.4927 45.9924 11.6568 45.492 11.9717 45.0611C12.2899 44.6269 12.7141 44.2888 13.2444 44.0469C13.7747 43.8016 14.3696 43.679 15.0292 43.679C15.7087 43.679 16.2986 43.8066 16.7991 44.0618C17.3029 44.3137 17.6923 44.6534 17.9674 45.081C18.2425 45.5085 18.3801 45.9808 18.3801 46.4979C18.3834 47.0713 18.2143 47.5518 17.873 47.9396C17.5349 48.3274 17.0908 48.581 16.5406 48.7003V48.7798C17.2565 48.8793 17.805 49.1444 18.1862 49.5753C18.5706 50.0028 18.7612 50.5348 18.7579 51.1712C18.7579 51.7412 18.5955 52.2517 18.2707 52.7024C17.9492 53.1499 17.5051 53.5012 16.9383 53.7564C16.3749 54.0116 15.7285 54.1392 14.9994 54.1392Z" fill="black"/>
<rect x="287" y="1" width="24" height="24" rx="12" fill="#F7D055"/>
<path d="M295.557 18V16.6676L299.092 13.2024C299.43 12.861 299.712 12.5578 299.937 12.2926C300.163 12.0275 300.332 11.7706 300.444 11.522C300.557 11.2734 300.613 11.0083 300.613 10.7266C300.613 10.4051 300.54 10.13 300.395 9.90128C300.249 9.66927 300.048 9.49029 299.793 9.36435C299.538 9.2384 299.248 9.17543 298.923 9.17543C298.588 9.17543 298.295 9.24503 298.043 9.38423C297.791 9.52012 297.596 9.71401 297.456 9.96591C297.32 10.2178 297.252 10.5178 297.252 10.8658H295.498C295.498 10.2195 295.645 9.65767 295.94 9.1804C296.235 8.70312 296.641 8.33357 297.158 8.07173C297.678 7.8099 298.275 7.67898 298.948 7.67898C299.631 7.67898 300.23 7.80658 300.748 8.06179C301.265 8.317 301.666 8.66667 301.951 9.1108C302.239 9.55492 302.383 10.062 302.383 10.6321C302.383 11.0133 302.31 11.3878 302.164 11.7557C302.019 12.1236 301.762 12.5312 301.394 12.9787C301.029 13.4261 300.517 13.968 299.858 14.6044L298.103 16.3892V16.4588H302.537V18H295.557Z" fill="black"/>
<rect x="24" y="11" width="80" height="2" fill="#F7D055"/>
<rect x="24" y="140" width="80" height="2" fill="#F7D055"/>
<rect x="27" y="48" width="80" height="2" fill="#F7D055"/>
<circle cx="102" cy="12" r="5" fill="#F7D055"/>
<circle cx="102" cy="141" r="5" fill="#F7D055"/>
<circle cx="105" cy="49" r="5" fill="#F7D055"/>
<circle cx="235" cy="12" r="5" fill="#F7D055"/>
<rect x="233" y="11" width="60" height="2" fill="#F7D055"/>
<rect x="319" y="58" width="19" height="2" transform="rotate(90 319 58)" fill="#F7D055"/>
<rect x="347" y="85" width="116" height="1.99999" transform="rotate(90 347 85)" fill="#F7D055"/>
<rect x="417" y="66" width="24" height="24" rx="12" fill="#F7D055"/>
<path d="M429.015 83.1392C428.352 83.1392 427.759 83.0149 427.235 82.7663C426.711 82.5144 426.295 82.1697 425.987 81.7322C425.682 81.2947 425.52 80.7943 425.5 80.2308H427.29C427.323 80.6484 427.504 80.9898 427.832 81.255C428.16 81.5168 428.554 81.6477 429.015 81.6477C429.376 81.6477 429.698 81.5649 429.979 81.3991C430.261 81.2334 430.483 81.0031 430.646 80.7081C430.808 80.4131 430.888 80.0767 430.884 79.6989C430.888 79.3144 430.806 78.973 430.641 78.6747C430.475 78.3764 430.248 78.1428 429.96 77.9737C429.671 77.8014 429.34 77.7152 428.965 77.7152C428.66 77.7119 428.36 77.7682 428.065 77.8842C427.77 78.0002 427.537 78.1527 427.364 78.3416L425.699 78.0682L426.231 72.8182H432.137V74.3594H427.757L427.464 77.0589H427.523C427.712 76.8369 427.979 76.6529 428.324 76.5071C428.669 76.358 429.046 76.2834 429.457 76.2834C430.074 76.2834 430.624 76.4292 431.108 76.7209C431.592 77.0092 431.973 77.407 432.251 77.9141C432.53 78.4212 432.669 79.0012 432.669 79.6541C432.669 80.3269 432.513 80.9268 432.202 81.4538C431.893 81.9775 431.464 82.3902 430.914 82.6918C430.367 82.9901 429.734 83.1392 429.015 83.1392Z" fill="black"/>
<rect x="445" y="131" width="24" height="24" rx="12" fill="#F7D055"/>
<path d="M454.169 148L458.5 139.429V139.359H453.473V137.818H460.409V139.394L456.083 148H454.169Z" fill="black"/>
<rect x="317" y="77" width="102" height="2" fill="#F7D055"/>
<rect x="345" y="142" width="102" height="2" fill="#F7D055"/>
<circle cx="318" cy="59" r="5" fill="#F7D055"/>
<defs>
<filter id="filter0_d_37_8222" x="73" y="58" width="296" height="198" filterUnits="userSpaceOnUse" color-interpolation-filters="sRGB">
<feFlood flood-opacity="0" result="BackgroundImageFix"/>
<feColorMatrix in="SourceAlpha" type="matrix" values="0 0 0 0 0 0 0 0 0 0 0 0 0 0 0 0 0 0 127 0" result="hardAlpha"/>
<feOffset dy="16"/>
<feGaussianBlur stdDeviation="16"/>
<feComposite in2="hardAlpha" operator="out"/>
<feColorMatrix type="matrix" values="0 0 0 0 0 0 0 0 0 0 0 0 0 0 0 0 0 0 0.1 0"/>
<feBlend mode="normal" in2="BackgroundImageFix" result="effect1_dropShadow_37_8222"/>
<feBlend mode="normal" in="SourceGraphic" in2="effect1_dropShadow_37_8222" result="shape"/>
</filter>
<clipPath id="clip0_37_8222">
<rect x="106" y="75" width="230" height="132" rx="8" fill="white"/>
</clipPath>
</defs>
</svg>
