<svg width="296" height="211" viewBox="0 0 296 211" fill="none" xmlns="http://www.w3.org/2000/svg">
<path d="M34.022 15V6.04H37.018C39.972 6.04 42.086 7.902 42.086 10.52C42.086 13.138 40 15 37.074 15H34.022ZM37.004 7.678H35.828V13.348H37.018C38.936 13.348 40.21 12.228 40.21 10.52C40.21 8.798 38.936 7.678 37.004 7.678ZM43.6043 15V8.294H45.3123V9.288C45.6343 8.574 46.2083 8.112 46.9643 8.112C47.4123 8.112 47.7763 8.224 48.0283 8.434L47.3283 10.044C47.1043 9.876 46.7683 9.764 46.4323 9.764C45.7603 9.764 45.3123 10.338 45.3123 11.248V15H43.6043ZM51.6876 15.182C49.7416 15.182 48.2016 13.6 48.2016 11.64C48.2016 9.694 49.7416 8.112 51.6876 8.112C53.6336 8.112 55.1736 9.694 55.1736 11.64C55.1736 13.6 53.6336 15.182 51.6876 15.182ZM51.6876 13.586C52.7236 13.586 53.4656 12.718 53.4656 11.64C53.4656 10.562 52.7236 9.708 51.6876 9.708C50.6516 9.708 49.9096 10.562 49.9096 11.64C49.9096 12.718 50.6516 13.586 51.6876 13.586ZM58.3553 17.744H56.6473V8.294H58.3553V9.246C58.8033 8.56 59.5033 8.112 60.4133 8.112C62.1773 8.112 63.6333 9.554 63.6333 11.654C63.6333 13.67 62.2753 15.182 60.4133 15.182C59.5033 15.182 58.8033 14.776 58.3553 14.104V17.744ZM60.1473 13.586C61.1693 13.586 61.9253 12.732 61.9253 11.654C61.9253 10.576 61.1693 9.708 60.1473 9.708C59.1113 9.708 58.3553 10.576 58.3553 11.654C58.3553 12.732 59.1113 13.586 60.1473 13.586ZM67.8549 15.182C66.0909 15.182 64.6489 13.74 64.6489 11.64C64.6489 9.624 66.0069 8.112 67.8549 8.112C68.7649 8.112 69.4649 8.518 69.9129 9.176V5.368H71.6209V15H69.9129V14.048C69.4649 14.734 68.7649 15.182 67.8549 15.182ZM68.1349 13.586C69.1709 13.586 69.9129 12.718 69.9129 11.64C69.9129 10.562 69.1709 9.708 68.1349 9.708C67.0989 9.708 66.3569 10.562 66.3569 11.64C66.3569 12.718 67.0989 13.586 68.1349 13.586ZM76.5704 15.182C74.6244 15.182 73.0844 13.6 73.0844 11.64C73.0844 9.694 74.6244 8.112 76.5704 8.112C78.5164 8.112 80.0564 9.694 80.0564 11.64C80.0564 13.6 78.5164 15.182 76.5704 15.182ZM76.5704 13.586C77.6064 13.586 78.3484 12.718 78.3484 11.64C78.3484 10.562 77.6064 9.708 76.5704 9.708C75.5344 9.708 74.7924 10.562 74.7924 11.64C74.7924 12.718 75.5344 13.586 76.5704 13.586ZM84.5337 15H82.6017L80.5297 8.294H82.3637L83.6097 13.124L84.9677 8.294H86.8157L88.2017 13.152L89.4757 8.294H91.3097L89.2377 15H87.1097L85.8077 10.45L84.5337 15ZM92.5223 15V8.294H94.2303V9.246C94.5803 8.532 95.2523 8.112 96.1343 8.112C97.6743 8.112 98.6683 9.19 98.6683 10.94V15H96.9603V11.192C96.9603 10.282 96.4423 9.708 95.6023 9.708C94.7623 9.708 94.2303 10.282 94.2303 11.192V15H92.5223ZM103.585 15V6.026H105.335V13.348H109.717V15H103.585ZM113.369 15.182C111.605 15.182 110.163 13.74 110.163 11.64C110.163 9.624 111.521 8.112 113.369 8.112C114.279 8.112 114.979 8.518 115.427 9.176V8.294H117.135V15H115.427V14.048C114.979 14.734 114.279 15.182 113.369 15.182ZM113.649 13.586C114.685 13.586 115.427 12.718 115.427 11.64C115.427 10.562 114.685 9.708 113.649 9.708C112.613 9.708 111.871 10.562 111.871 11.64C111.871 12.718 112.613 13.586 113.649 13.586ZM122.798 8.112C124.562 8.112 126.018 9.554 126.018 11.654C126.018 13.67 124.66 15.182 122.798 15.182C121.888 15.182 121.188 14.776 120.74 14.104V15H119.032V5.368H120.74V9.246C121.188 8.56 121.888 8.112 122.798 8.112ZM122.532 9.708C121.496 9.708 120.74 10.576 120.74 11.654C120.74 12.732 121.496 13.586 122.532 13.586C123.554 13.586 124.31 12.732 124.31 11.654C124.31 10.576 123.554 9.708 122.532 9.708ZM130.632 15.182C128.546 15.182 127.034 13.6 127.034 11.64C127.034 9.694 128.476 8.112 130.408 8.112C132.326 8.112 133.796 9.582 133.796 11.514C133.796 11.738 133.782 12.004 133.754 12.116H128.784C128.966 13.04 129.666 13.684 130.688 13.684C131.374 13.684 131.948 13.39 132.34 12.984L133.222 14.16C132.704 14.734 131.752 15.182 130.632 15.182ZM130.436 9.554C129.624 9.554 129.036 10.114 128.826 10.926H132.032C131.822 10.03 131.22 9.554 130.436 9.554ZM137.755 13.516L137.937 15.014C137.685 15.098 137.363 15.154 137.111 15.154C136.145 15.154 135.165 14.538 135.165 12.83V5.368H136.873V12.872C136.873 13.39 137.167 13.586 137.475 13.586C137.559 13.586 137.671 13.558 137.755 13.516Z" fill="black"/>
<path fill-rule="evenodd" clip-rule="evenodd" d="M143 11C143 6.58854 146.589 3 151 3C155.411 3 159 6.58854 159 11C159 15.4115 155.411 19 151 19C146.589 19 143 15.4115 143 11ZM157.769 11C157.769 7.25312 154.747 4.23077 151 4.23077C147.253 4.23077 144.231 7.25312 144.231 11C144.231 14.7469 147.253 17.7692 151 17.7692C154.747 17.7692 157.769 14.7469 157.769 11ZM151.923 14.3846C151.923 14.8944 151.51 15.3077 151 15.3077C150.49 15.3077 150.077 14.8944 150.077 14.3846C150.077 13.8748 150.49 13.4615 151 13.4615C151.51 13.4615 151.923 13.8748 151.923 14.3846ZM148.231 9.42735C148.231 7.92361 149.477 6.69231 151 6.69231C152.523 6.69231 153.769 7.92361 153.769 9.42735C153.769 10.5358 153.039 11.5347 151.974 11.8846L151.692 11.9701V12.8462H150.308V11.9701C150.308 11.3851 150.694 10.851 151.26 10.6667L151.541 10.5812C152.044 10.4156 152.385 9.95086 152.385 9.42735C152.385 8.66346 151.773 8.05983 151 8.05983C150.227 8.05983 149.615 8.66346 149.615 9.42735H148.231Z" fill="#1355E9"/>
<rect x="34" y="27" width="228" height="42" rx="7" fill="white"/>
<rect x="34" y="27" width="228" height="42" rx="7" stroke="#D6D6D6" stroke-width="2"/>
<path d="M46.022 52V43.026H49.228C51.398 43.026 52.826 44.202 52.826 45.994C52.826 47.8 51.384 48.99 49.2 48.99H47.772V52H46.022ZM49.368 44.58H47.772V47.436H49.368C50.334 47.436 50.978 46.862 50.978 45.994C50.978 45.14 50.334 44.58 49.368 44.58ZM56.7861 50.516L56.9681 52.014C56.7161 52.098 56.3941 52.154 56.1421 52.154C55.1761 52.154 54.1961 51.538 54.1961 49.83V42.368H55.9041V49.872C55.9041 50.39 56.1981 50.586 56.5061 50.586C56.5901 50.586 56.7021 50.558 56.7861 50.516ZM61.1654 52.182C59.4014 52.182 57.9594 50.74 57.9594 48.64C57.9594 46.624 59.3174 45.112 61.1654 45.112C62.0754 45.112 62.7754 45.518 63.2234 46.176V45.294H64.9314V52H63.2234V51.048C62.7754 51.734 62.0754 52.182 61.1654 52.182ZM61.4454 50.586C62.4814 50.586 63.2234 49.718 63.2234 48.64C63.2234 47.562 62.4814 46.708 61.4454 46.708C60.4094 46.708 59.6674 47.562 59.6674 48.64C59.6674 49.718 60.4094 50.586 61.4454 50.586ZM71.561 47.324C71.127 46.918 70.637 46.708 69.965 46.708C68.845 46.708 68.103 47.562 68.103 48.64C68.103 49.718 68.859 50.586 69.965 50.586C70.637 50.586 71.183 50.348 71.617 49.928L72.485 51.188C71.953 51.776 70.973 52.182 69.923 52.182C67.921 52.182 66.395 50.6 66.395 48.64C66.395 46.694 67.935 45.112 69.895 45.112C71.029 45.112 71.939 45.49 72.541 46.106L71.561 47.324ZM76.5965 52.182C74.5105 52.182 72.9985 50.6 72.9985 48.64C72.9985 46.694 74.4405 45.112 76.3725 45.112C78.2905 45.112 79.7605 46.582 79.7605 48.514C79.7605 48.738 79.7465 49.004 79.7185 49.116H74.7485C74.9305 50.04 75.6305 50.684 76.6525 50.684C77.3385 50.684 77.9125 50.39 78.3045 49.984L79.1865 51.16C78.6685 51.734 77.7165 52.182 76.5965 52.182ZM76.4005 46.554C75.5885 46.554 75.0005 47.114 74.7905 47.926H77.9965C77.7865 47.03 77.1845 46.554 76.4005 46.554ZM81.1297 52V42.368H82.8377V46.246C83.1877 45.532 83.8597 45.112 84.7417 45.112C86.2817 45.112 87.2757 46.19 87.2757 47.94V52H85.5677V48.192C85.5677 47.282 85.0497 46.708 84.2097 46.708C83.3697 46.708 82.8377 47.282 82.8377 48.192V52H81.1297ZM92.1798 52.182C90.2338 52.182 88.6938 50.6 88.6938 48.64C88.6938 46.694 90.2338 45.112 92.1798 45.112C94.1258 45.112 95.6658 46.694 95.6658 48.64C95.6658 50.6 94.1258 52.182 92.1798 52.182ZM92.1798 50.586C93.2158 50.586 93.9578 49.718 93.9578 48.64C93.9578 47.562 93.2158 46.708 92.1798 46.708C91.1438 46.708 90.4018 47.562 90.4018 48.64C90.4018 49.718 91.1438 50.586 92.1798 50.586ZM99.7295 50.516L99.9115 52.014C99.6595 52.098 99.3375 52.154 99.0855 52.154C98.1195 52.154 97.1395 51.538 97.1395 49.83V42.368H98.8475V49.872C98.8475 50.39 99.1415 50.586 99.4495 50.586C99.5335 50.586 99.6455 50.558 99.7295 50.516ZM104.109 52.182C102.345 52.182 100.903 50.74 100.903 48.64C100.903 46.624 102.261 45.112 104.109 45.112C105.019 45.112 105.719 45.518 106.167 46.176V42.368H107.875V52H106.167V51.048C105.719 51.734 105.019 52.182 104.109 52.182ZM104.389 50.586C105.425 50.586 106.167 49.718 106.167 48.64C106.167 47.562 105.425 46.708 104.389 46.708C103.353 46.708 102.611 47.562 102.611 48.64C102.611 49.718 103.353 50.586 104.389 50.586ZM112.936 52.182C110.85 52.182 109.338 50.6 109.338 48.64C109.338 46.694 110.78 45.112 112.712 45.112C114.63 45.112 116.1 46.582 116.1 48.514C116.1 48.738 116.086 49.004 116.058 49.116H111.088C111.27 50.04 111.97 50.684 112.992 50.684C113.678 50.684 114.252 50.39 114.644 49.984L115.526 51.16C115.008 51.734 114.056 52.182 112.936 52.182ZM112.74 46.554C111.928 46.554 111.34 47.114 111.13 47.926H114.336C114.126 47.03 113.524 46.554 112.74 46.554ZM117.47 52V45.294H119.178V46.288C119.5 45.574 120.074 45.112 120.83 45.112C121.278 45.112 121.642 45.224 121.894 45.434L121.194 47.044C120.97 46.876 120.634 46.764 120.298 46.764C119.626 46.764 119.178 47.338 119.178 48.248V52H117.47ZM125.37 46.806V45.294H126.546V43.558H128.268V45.294H130.074V46.806H128.282V49.662C128.282 50.292 128.534 50.586 129.038 50.586C129.36 50.586 129.668 50.446 129.836 50.25L130.592 51.524C130.228 51.888 129.598 52.182 128.772 52.182C127.414 52.182 126.546 51.342 126.546 49.704V46.806H125.37ZM134.565 52.182C132.479 52.182 130.967 50.6 130.967 48.64C130.967 46.694 132.409 45.112 134.341 45.112C136.259 45.112 137.729 46.582 137.729 48.514C137.729 48.738 137.715 49.004 137.687 49.116H132.717C132.899 50.04 133.599 50.684 134.621 50.684C135.307 50.684 135.881 50.39 136.273 49.984L137.155 51.16C136.637 51.734 135.685 52.182 134.565 52.182ZM134.369 46.554C133.557 46.554 132.969 47.114 132.759 47.926H135.965C135.755 47.03 135.153 46.554 134.369 46.554ZM137.85 52L140.384 48.626L137.934 45.294H140.062L141.518 47.268L143.002 45.294H144.92L142.47 48.556L145.004 52H142.876L141.336 49.914L139.754 52H137.85ZM145.454 46.806V45.294H146.63V43.558H148.352V45.294H150.158V46.806H148.366V49.662C148.366 50.292 148.618 50.586 149.122 50.586C149.444 50.586 149.752 50.446 149.92 50.25L150.676 51.524C150.312 51.888 149.682 52.182 148.856 52.182C147.498 52.182 146.63 51.342 146.63 49.704V46.806H145.454Z" fill="black"/>
<path d="M245 51L240 45.9524L241 45L245 49.2857L249 45L250 45.9524L245 51Z" fill="black"/>
<g filter="url(#filter0_d_37_7504)">
<g clip-path="url(#clip0_37_7504)">
<rect x="33" y="74" width="230" height="88" rx="8" fill="white"/>
<rect width="230" height="44" transform="translate(33 74)" fill="white"/>
<path d="M46.022 100V91.04H49.018C51.972 91.04 54.086 92.902 54.086 95.52C54.086 98.138 52 100 49.074 100H46.022ZM49.004 92.678H47.828V98.348H49.018C50.936 98.348 52.21 97.228 52.21 95.52C52.21 93.798 50.936 92.678 49.004 92.678ZM55.6043 100V93.294H57.3123V94.288C57.6343 93.574 58.2083 93.112 58.9643 93.112C59.4123 93.112 59.7763 93.224 60.0283 93.434L59.3283 95.044C59.1043 94.876 58.7683 94.764 58.4323 94.764C57.7603 94.764 57.3123 95.338 57.3123 96.248V100H55.6043ZM63.6876 100.182C61.7416 100.182 60.2016 98.6 60.2016 96.64C60.2016 94.694 61.7416 93.112 63.6876 93.112C65.6336 93.112 67.1736 94.694 67.1736 96.64C67.1736 98.6 65.6336 100.182 63.6876 100.182ZM63.6876 98.586C64.7236 98.586 65.4656 97.718 65.4656 96.64C65.4656 95.562 64.7236 94.708 63.6876 94.708C62.6516 94.708 61.9096 95.562 61.9096 96.64C61.9096 97.718 62.6516 98.586 63.6876 98.586ZM70.3553 102.744H68.6473V93.294H70.3553V94.246C70.8033 93.56 71.5033 93.112 72.4133 93.112C74.1773 93.112 75.6333 94.554 75.6333 96.654C75.6333 98.67 74.2753 100.182 72.4133 100.182C71.5033 100.182 70.8033 99.776 70.3553 99.104V102.744ZM72.1473 98.586C73.1693 98.586 73.9253 97.732 73.9253 96.654C73.9253 95.576 73.1693 94.708 72.1473 94.708C71.1113 94.708 70.3553 95.576 70.3553 96.654C70.3553 97.732 71.1113 98.586 72.1473 98.586ZM79.8549 100.182C78.0909 100.182 76.6489 98.74 76.6489 96.64C76.6489 94.624 78.0069 93.112 79.8549 93.112C80.7649 93.112 81.4649 93.518 81.9129 94.176V90.368H83.6209V100H81.9129V99.048C81.4649 99.734 80.7649 100.182 79.8549 100.182ZM80.1349 98.586C81.1709 98.586 81.9129 97.718 81.9129 96.64C81.9129 95.562 81.1709 94.708 80.1349 94.708C79.0989 94.708 78.3569 95.562 78.3569 96.64C78.3569 97.718 79.0989 98.586 80.1349 98.586ZM88.5704 100.182C86.6244 100.182 85.0844 98.6 85.0844 96.64C85.0844 94.694 86.6244 93.112 88.5704 93.112C90.5164 93.112 92.0564 94.694 92.0564 96.64C92.0564 98.6 90.5164 100.182 88.5704 100.182ZM88.5704 98.586C89.6064 98.586 90.3484 97.718 90.3484 96.64C90.3484 95.562 89.6064 94.708 88.5704 94.708C87.5344 94.708 86.7924 95.562 86.7924 96.64C86.7924 97.718 87.5344 98.586 88.5704 98.586ZM96.5337 100H94.6017L92.5297 93.294H94.3637L95.6097 98.124L96.9677 93.294H98.8157L100.202 98.152L101.476 93.294H103.31L101.238 100H99.1097L97.8077 95.45L96.5337 100ZM104.522 100V93.294H106.23V94.246C106.58 93.532 107.252 93.112 108.134 93.112C109.674 93.112 110.668 94.19 110.668 95.94V100H108.96V96.192C108.96 95.282 108.442 94.708 107.602 94.708C106.762 94.708 106.23 95.282 106.23 96.192V100H104.522ZM118.567 100.182C116.62 100.182 115.081 98.6 115.081 96.64C115.081 94.694 116.62 93.112 118.567 93.112C120.513 93.112 122.053 94.694 122.053 96.64C122.053 98.6 120.513 100.182 118.567 100.182ZM118.567 98.586C119.603 98.586 120.345 97.718 120.345 96.64C120.345 95.562 119.603 94.708 118.567 94.708C117.531 94.708 116.789 95.562 116.789 96.64C116.789 97.718 117.531 98.586 118.567 98.586ZM125.234 102.744H123.526V93.294H125.234V94.246C125.682 93.56 126.382 93.112 127.292 93.112C129.056 93.112 130.512 94.554 130.512 96.654C130.512 98.67 129.154 100.182 127.292 100.182C126.382 100.182 125.682 99.776 125.234 99.104V102.744ZM127.026 98.586C128.048 98.586 128.804 97.732 128.804 96.654C128.804 95.576 128.048 94.708 127.026 94.708C125.99 94.708 125.234 95.576 125.234 96.654C125.234 97.732 125.99 98.586 127.026 98.586ZM131.276 94.806V93.294H132.452V91.558H134.174V93.294H135.98V94.806H134.188V97.662C134.188 98.292 134.44 98.586 134.944 98.586C135.266 98.586 135.574 98.446 135.742 98.25L136.498 99.524C136.134 99.888 135.504 100.182 134.678 100.182C133.32 100.182 132.452 99.342 132.452 97.704V94.806H131.276ZM138.49 92.398C137.93 92.398 137.496 91.95 137.496 91.39C137.496 90.844 137.93 90.396 138.49 90.396C139.036 90.396 139.498 90.844 139.498 91.39C139.498 91.95 139.036 92.398 138.49 92.398ZM139.344 100H137.636V93.294H139.344V100ZM144.311 100.182C142.365 100.182 140.825 98.6 140.825 96.64C140.825 94.694 142.365 93.112 144.311 93.112C146.257 93.112 147.797 94.694 147.797 96.64C147.797 98.6 146.257 100.182 144.311 100.182ZM144.311 98.586C145.347 98.586 146.089 97.718 146.089 96.64C146.089 95.562 145.347 94.708 144.311 94.708C143.275 94.708 142.533 95.562 142.533 96.64C142.533 97.718 143.275 98.586 144.311 98.586ZM149.27 100V93.294H150.978V94.246C151.328 93.532 152 93.112 152.882 93.112C154.422 93.112 155.416 94.19 155.416 95.94V100H153.708V96.192C153.708 95.282 153.19 94.708 152.35 94.708C151.51 94.708 150.978 95.282 150.978 96.192V100H149.27Z" fill="black"/>
<rect width="230" height="44" transform="translate(33 118)" fill="#EBEBEB"/>
<path d="M46.022 144V135.04H49.018C51.972 135.04 54.086 136.902 54.086 139.52C54.086 142.138 52 144 49.074 144H46.022ZM49.004 136.678H47.828V142.348H49.018C50.936 142.348 52.21 141.228 52.21 139.52C52.21 137.798 50.936 136.678 49.004 136.678ZM55.6043 144V137.294H57.3123V138.288C57.6343 137.574 58.2083 137.112 58.9643 137.112C59.4123 137.112 59.7763 137.224 60.0283 137.434L59.3283 139.044C59.1043 138.876 58.7683 138.764 58.4323 138.764C57.7603 138.764 57.3123 139.338 57.3123 140.248V144H55.6043ZM63.6876 144.182C61.7416 144.182 60.2016 142.6 60.2016 140.64C60.2016 138.694 61.7416 137.112 63.6876 137.112C65.6336 137.112 67.1736 138.694 67.1736 140.64C67.1736 142.6 65.6336 144.182 63.6876 144.182ZM63.6876 142.586C64.7236 142.586 65.4656 141.718 65.4656 140.64C65.4656 139.562 64.7236 138.708 63.6876 138.708C62.6516 138.708 61.9096 139.562 61.9096 140.64C61.9096 141.718 62.6516 142.586 63.6876 142.586ZM70.3553 146.744H68.6473V137.294H70.3553V138.246C70.8033 137.56 71.5033 137.112 72.4133 137.112C74.1773 137.112 75.6333 138.554 75.6333 140.654C75.6333 142.67 74.2753 144.182 72.4133 144.182C71.5033 144.182 70.8033 143.776 70.3553 143.104V146.744ZM72.1473 142.586C73.1693 142.586 73.9253 141.732 73.9253 140.654C73.9253 139.576 73.1693 138.708 72.1473 138.708C71.1113 138.708 70.3553 139.576 70.3553 140.654C70.3553 141.732 71.1113 142.586 72.1473 142.586ZM79.8549 144.182C78.0909 144.182 76.6489 142.74 76.6489 140.64C76.6489 138.624 78.0069 137.112 79.8549 137.112C80.7649 137.112 81.4649 137.518 81.9129 138.176V134.368H83.6209V144H81.9129V143.048C81.4649 143.734 80.7649 144.182 79.8549 144.182ZM80.1349 142.586C81.1709 142.586 81.9129 141.718 81.9129 140.64C81.9129 139.562 81.1709 138.708 80.1349 138.708C79.0989 138.708 78.3569 139.562 78.3569 140.64C78.3569 141.718 79.0989 142.586 80.1349 142.586ZM88.5704 144.182C86.6244 144.182 85.0844 142.6 85.0844 140.64C85.0844 138.694 86.6244 137.112 88.5704 137.112C90.5164 137.112 92.0564 138.694 92.0564 140.64C92.0564 142.6 90.5164 144.182 88.5704 144.182ZM88.5704 142.586C89.6064 142.586 90.3484 141.718 90.3484 140.64C90.3484 139.562 89.6064 138.708 88.5704 138.708C87.5344 138.708 86.7924 139.562 86.7924 140.64C86.7924 141.718 87.5344 142.586 88.5704 142.586ZM96.5337 144H94.6017L92.5297 137.294H94.3637L95.6097 142.124L96.9677 137.294H98.8157L100.202 142.152L101.476 137.294H103.31L101.238 144H99.1097L97.8077 139.45L96.5337 144ZM104.522 144V137.294H106.23V138.246C106.58 137.532 107.252 137.112 108.134 137.112C109.674 137.112 110.668 138.19 110.668 139.94V144H108.96V140.192C108.96 139.282 108.442 138.708 107.602 138.708C106.762 138.708 106.23 139.282 106.23 140.192V144H104.522ZM118.567 144.182C116.62 144.182 115.081 142.6 115.081 140.64C115.081 138.694 116.62 137.112 118.567 137.112C120.513 137.112 122.053 138.694 122.053 140.64C122.053 142.6 120.513 144.182 118.567 144.182ZM118.567 142.586C119.603 142.586 120.345 141.718 120.345 140.64C120.345 139.562 119.603 138.708 118.567 138.708C117.531 138.708 116.789 139.562 116.789 140.64C116.789 141.718 117.531 142.586 118.567 142.586ZM125.234 146.744H123.526V137.294H125.234V138.246C125.682 137.56 126.382 137.112 127.292 137.112C129.056 137.112 130.512 138.554 130.512 140.654C130.512 142.67 129.154 144.182 127.292 144.182C126.382 144.182 125.682 143.776 125.234 143.104V146.744ZM127.026 142.586C128.048 142.586 128.804 141.732 128.804 140.654C128.804 139.576 128.048 138.708 127.026 138.708C125.99 138.708 125.234 139.576 125.234 140.654C125.234 141.732 125.99 142.586 127.026 142.586ZM131.276 138.806V137.294H132.452V135.558H134.174V137.294H135.98V138.806H134.188V141.662C134.188 142.292 134.44 142.586 134.944 142.586C135.266 142.586 135.574 142.446 135.742 142.25L136.498 143.524C136.134 143.888 135.504 144.182 134.678 144.182C133.32 144.182 132.452 143.342 132.452 141.704V138.806H131.276ZM138.49 136.398C137.93 136.398 137.496 135.95 137.496 135.39C137.496 134.844 137.93 134.396 138.49 134.396C139.036 134.396 139.498 134.844 139.498 135.39C139.498 135.95 139.036 136.398 138.49 136.398ZM139.344 144H137.636V137.294H139.344V144ZM144.311 144.182C142.365 144.182 140.825 142.6 140.825 140.64C140.825 138.694 142.365 137.112 144.311 137.112C146.257 137.112 147.797 138.694 147.797 140.64C147.797 142.6 146.257 144.182 144.311 144.182ZM144.311 142.586C145.347 142.586 146.089 141.718 146.089 140.64C146.089 139.562 145.347 138.708 144.311 138.708C143.275 138.708 142.533 139.562 142.533 140.64C142.533 141.718 143.275 142.586 144.311 142.586ZM149.27 144V137.294H150.978V138.246C151.328 137.532 152 137.112 152.882 137.112C154.422 137.112 155.416 138.19 155.416 139.94V144H153.708V140.192C153.708 139.282 153.19 138.708 152.35 138.708C151.51 138.708 150.978 139.282 150.978 140.192V144H149.27Z" fill="#1355E9"/>
</g>
<rect x="32.5" y="73.5" width="231" height="89" rx="8.5" stroke="#EBEBEB"/>
</g>
<defs>
<filter id="filter0_d_37_7504" x="0" y="57" width="296" height="154" filterUnits="userSpaceOnUse" color-interpolation-filters="sRGB">
<feFlood flood-opacity="0" result="BackgroundImageFix"/>
<feColorMatrix in="SourceAlpha" type="matrix" values="0 0 0 0 0 0 0 0 0 0 0 0 0 0 0 0 0 0 127 0" result="hardAlpha"/>
<feOffset dy="16"/>
<feGaussianBlur stdDeviation="16"/>
<feComposite in2="hardAlpha" operator="out"/>
<feColorMatrix type="matrix" values="0 0 0 0 0 0 0 0 0 0 0 0 0 0 0 0 0 0 0.1 0"/>
<feBlend mode="normal" in2="BackgroundImageFix" result="effect1_dropShadow_37_7504"/>
<feBlend mode="normal" in="SourceGraphic" in2="effect1_dropShadow_37_7504" result="shape"/>
</filter>
<clipPath id="clip0_37_7504">
<rect x="33" y="74" width="230" height="88" rx="8" fill="white"/>
</clipPath>
</defs>
</svg>
