<svg width="230" height="44" viewBox="0 0 230 44" fill="none" xmlns="http://www.w3.org/2000/svg">
<rect x="0.5" y="0.5" width="229" height="43" rx="7.5" fill="white"/>
<rect x="0.5" y="0.5" width="229" height="43" rx="7.5" stroke="#EBEBEB"/>
<path d="M13.022 26V17.026H16.228C18.398 17.026 19.826 18.202 19.826 19.994C19.826 21.8 18.384 22.99 16.2 22.99H14.772V26H13.022ZM16.368 18.58H14.772V21.436H16.368C17.334 21.436 17.978 20.862 17.978 19.994C17.978 19.14 17.334 18.58 16.368 18.58ZM23.7861 24.516L23.9681 26.014C23.7161 26.098 23.3941 26.154 23.1421 26.154C22.1761 26.154 21.1961 25.538 21.1961 23.83V16.368H22.9041V23.872C22.9041 24.39 23.1981 24.586 23.5061 24.586C23.5901 24.586 23.7021 24.558 23.7861 24.516ZM28.1654 26.182C26.4014 26.182 24.9594 24.74 24.9594 22.64C24.9594 20.624 26.3174 19.112 28.1654 19.112C29.0754 19.112 29.7754 19.518 30.2234 20.176V19.294H31.9314V26H30.2234V25.048C29.7754 25.734 29.0754 26.182 28.1654 26.182ZM28.4454 24.586C29.4814 24.586 30.2234 23.718 30.2234 22.64C30.2234 21.562 29.4814 20.708 28.4454 20.708C27.4094 20.708 26.6674 21.562 26.6674 22.64C26.6674 23.718 27.4094 24.586 28.4454 24.586ZM38.561 21.324C38.127 20.918 37.637 20.708 36.965 20.708C35.845 20.708 35.103 21.562 35.103 22.64C35.103 23.718 35.859 24.586 36.965 24.586C37.637 24.586 38.183 24.348 38.617 23.928L39.485 25.188C38.953 25.776 37.973 26.182 36.923 26.182C34.921 26.182 33.395 24.6 33.395 22.64C33.395 20.694 34.935 19.112 36.895 19.112C38.029 19.112 38.939 19.49 39.541 20.106L38.561 21.324ZM43.5965 26.182C41.5105 26.182 39.9985 24.6 39.9985 22.64C39.9985 20.694 41.4405 19.112 43.3725 19.112C45.2905 19.112 46.7605 20.582 46.7605 22.514C46.7605 22.738 46.7465 23.004 46.7185 23.116H41.7485C41.9305 24.04 42.6305 24.684 43.6525 24.684C44.3385 24.684 44.9125 24.39 45.3045 23.984L46.1865 25.16C45.6685 25.734 44.7165 26.182 43.5965 26.182ZM43.4005 20.554C42.5885 20.554 42.0005 21.114 41.7905 21.926H44.9965C44.7865 21.03 44.1845 20.554 43.4005 20.554ZM48.1297 26V16.368H49.8377V20.246C50.1877 19.532 50.8597 19.112 51.7417 19.112C53.2817 19.112 54.2757 20.19 54.2757 21.94V26H52.5677V22.192C52.5677 21.282 52.0497 20.708 51.2097 20.708C50.3697 20.708 49.8377 21.282 49.8377 22.192V26H48.1297ZM59.1798 26.182C57.2338 26.182 55.6938 24.6 55.6938 22.64C55.6938 20.694 57.2338 19.112 59.1798 19.112C61.1258 19.112 62.6658 20.694 62.6658 22.64C62.6658 24.6 61.1258 26.182 59.1798 26.182ZM59.1798 24.586C60.2158 24.586 60.9578 23.718 60.9578 22.64C60.9578 21.562 60.2158 20.708 59.1798 20.708C58.1438 20.708 57.4018 21.562 57.4018 22.64C57.4018 23.718 58.1438 24.586 59.1798 24.586ZM66.7295 24.516L66.9115 26.014C66.6595 26.098 66.3375 26.154 66.0855 26.154C65.1195 26.154 64.1395 25.538 64.1395 23.83V16.368H65.8475V23.872C65.8475 24.39 66.1415 24.586 66.4495 24.586C66.5335 24.586 66.6455 24.558 66.7295 24.516ZM71.1088 26.182C69.3448 26.182 67.9028 24.74 67.9028 22.64C67.9028 20.624 69.2608 19.112 71.1088 19.112C72.0188 19.112 72.7188 19.518 73.1668 20.176V16.368H74.8748V26H73.1668V25.048C72.7188 25.734 72.0188 26.182 71.1088 26.182ZM71.3888 24.586C72.4248 24.586 73.1668 23.718 73.1668 22.64C73.1668 21.562 72.4248 20.708 71.3888 20.708C70.3528 20.708 69.6108 21.562 69.6108 22.64C69.6108 23.718 70.3528 24.586 71.3888 24.586ZM79.9363 26.182C77.8503 26.182 76.3383 24.6 76.3383 22.64C76.3383 20.694 77.7803 19.112 79.7123 19.112C81.6303 19.112 83.1003 20.582 83.1003 22.514C83.1003 22.738 83.0863 23.004 83.0583 23.116H78.0883C78.2703 24.04 78.9703 24.684 79.9923 24.684C80.6783 24.684 81.2523 24.39 81.6443 23.984L82.5263 25.16C82.0083 25.734 81.0563 26.182 79.9363 26.182ZM79.7403 20.554C78.9283 20.554 78.3403 21.114 78.1303 21.926H81.3363C81.1263 21.03 80.5243 20.554 79.7403 20.554ZM84.4696 26V19.294H86.1776V20.288C86.4996 19.574 87.0736 19.112 87.8296 19.112C88.2776 19.112 88.6416 19.224 88.8936 19.434L88.1936 21.044C87.9696 20.876 87.6336 20.764 87.2976 20.764C86.6256 20.764 86.1776 21.338 86.1776 22.248V26H84.4696ZM92.3695 20.806V19.294H93.5455V17.558H95.2675V19.294H97.0735V20.806H95.2815V23.662C95.2815 24.292 95.5335 24.586 96.0375 24.586C96.3595 24.586 96.6675 24.446 96.8355 24.25L97.5915 25.524C97.2275 25.888 96.5975 26.182 95.7715 26.182C94.4135 26.182 93.5455 25.342 93.5455 23.704V20.806H92.3695ZM101.565 26.182C99.4792 26.182 97.9672 24.6 97.9672 22.64C97.9672 20.694 99.4092 19.112 101.341 19.112C103.259 19.112 104.729 20.582 104.729 22.514C104.729 22.738 104.715 23.004 104.687 23.116H99.7172C99.8992 24.04 100.599 24.684 101.621 24.684C102.307 24.684 102.881 24.39 103.273 23.984L104.155 25.16C103.637 25.734 102.685 26.182 101.565 26.182ZM101.369 20.554C100.557 20.554 99.9692 21.114 99.7592 21.926H102.965C102.755 21.03 102.153 20.554 101.369 20.554ZM104.85 26L107.384 22.626L104.934 19.294H107.062L108.518 21.268L110.002 19.294H111.92L109.47 22.556L112.004 26H109.876L108.336 23.914L106.754 26H104.85ZM112.454 20.806V19.294H113.63V17.558H115.352V19.294H117.158V20.806H115.366V23.662C115.366 24.292 115.618 24.586 116.122 24.586C116.444 24.586 116.752 24.446 116.92 24.25L117.676 25.524C117.312 25.888 116.682 26.182 115.856 26.182C114.498 26.182 113.63 25.342 113.63 23.704V20.806H112.454Z" fill="black"/>
<path d="M212 25L207 19.9524L208 19L212 23.2857L216 19L217 19.9524L212 25Z" fill="black"/>
</svg>
