<svg width="230" height="70" viewBox="0 0 230 70" fill="none" xmlns="http://www.w3.org/2000/svg">
<path d="M1.022 15V6.04H4.018C6.972 6.04 9.086 7.902 9.086 10.52C9.086 13.138 7 15 4.074 15H1.022ZM4.004 7.678H2.828V13.348H4.018C5.936 13.348 7.21 12.228 7.21 10.52C7.21 8.798 5.936 7.678 4.004 7.678ZM10.6043 15V8.294H12.3123V9.288C12.6343 8.574 13.2083 8.112 13.9643 8.112C14.4123 8.112 14.7763 8.224 15.0283 8.434L14.3283 10.044C14.1043 9.876 13.7683 9.764 13.4323 9.764C12.7603 9.764 12.3123 10.338 12.3123 11.248V15H10.6043ZM18.6876 15.182C16.7416 15.182 15.2016 13.6 15.2016 11.64C15.2016 9.694 16.7416 8.112 18.6876 8.112C20.6336 8.112 22.1736 9.694 22.1736 11.64C22.1736 13.6 20.6336 15.182 18.6876 15.182ZM18.6876 13.586C19.7236 13.586 20.4656 12.718 20.4656 11.64C20.4656 10.562 19.7236 9.708 18.6876 9.708C17.6516 9.708 16.9096 10.562 16.9096 11.64C16.9096 12.718 17.6516 13.586 18.6876 13.586ZM25.3553 17.744H23.6473V8.294H25.3553V9.246C25.8033 8.56 26.5033 8.112 27.4133 8.112C29.1773 8.112 30.6333 9.554 30.6333 11.654C30.6333 13.67 29.2753 15.182 27.4133 15.182C26.5033 15.182 25.8033 14.776 25.3553 14.104V17.744ZM27.1473 13.586C28.1693 13.586 28.9253 12.732 28.9253 11.654C28.9253 10.576 28.1693 9.708 27.1473 9.708C26.1113 9.708 25.3553 10.576 25.3553 11.654C25.3553 12.732 26.1113 13.586 27.1473 13.586ZM34.8549 15.182C33.0909 15.182 31.6489 13.74 31.6489 11.64C31.6489 9.624 33.0069 8.112 34.8549 8.112C35.7649 8.112 36.4649 8.518 36.9129 9.176V5.368H38.6209V15H36.9129V14.048C36.4649 14.734 35.7649 15.182 34.8549 15.182ZM35.1349 13.586C36.1709 13.586 36.9129 12.718 36.9129 11.64C36.9129 10.562 36.1709 9.708 35.1349 9.708C34.0989 9.708 33.3569 10.562 33.3569 11.64C33.3569 12.718 34.0989 13.586 35.1349 13.586ZM43.5704 15.182C41.6244 15.182 40.0844 13.6 40.0844 11.64C40.0844 9.694 41.6244 8.112 43.5704 8.112C45.5164 8.112 47.0564 9.694 47.0564 11.64C47.0564 13.6 45.5164 15.182 43.5704 15.182ZM43.5704 13.586C44.6064 13.586 45.3484 12.718 45.3484 11.64C45.3484 10.562 44.6064 9.708 43.5704 9.708C42.5344 9.708 41.7924 10.562 41.7924 11.64C41.7924 12.718 42.5344 13.586 43.5704 13.586ZM51.5337 15H49.6017L47.5297 8.294H49.3637L50.6097 13.124L51.9677 8.294H53.8157L55.2017 13.152L56.4757 8.294H58.3097L56.2377 15H54.1097L52.8077 10.45L51.5337 15ZM59.5223 15V8.294H61.2303V9.246C61.5803 8.532 62.2523 8.112 63.1343 8.112C64.6743 8.112 65.6683 9.19 65.6683 10.94V15H63.9603V11.192C63.9603 10.282 63.4423 9.708 62.6023 9.708C61.7623 9.708 61.2303 10.282 61.2303 11.192V15H59.5223Z" fill="black"/>
<path fill-rule="evenodd" clip-rule="evenodd" d="M71 11C71 6.58854 74.5885 3 79 3C83.4115 3 87 6.58854 87 11C87 15.4115 83.4115 19 79 19C74.5885 19 71 15.4115 71 11ZM85.7692 11C85.7692 7.25312 82.7469 4.23077 79 4.23077C75.2531 4.23077 72.2308 7.25312 72.2308 11C72.2308 14.7469 75.2531 17.7692 79 17.7692C82.7469 17.7692 85.7692 14.7469 85.7692 11ZM79.9231 14.3846C79.9231 14.8944 79.5098 15.3077 79 15.3077C78.4902 15.3077 78.0769 14.8944 78.0769 14.3846C78.0769 13.8748 78.4902 13.4615 79 13.4615C79.5098 13.4615 79.9231 13.8748 79.9231 14.3846ZM76.2308 9.42735C76.2308 7.92361 77.4775 6.69231 79 6.69231C80.5225 6.69231 81.7692 7.92361 81.7692 9.42735C81.7692 10.5358 81.0391 11.5347 79.9736 11.8846L79.6923 11.9701V12.8462H78.3077V11.9701C78.3077 11.3851 78.6944 10.851 79.2596 10.6667L79.5409 10.5812C80.0439 10.4156 80.3846 9.95086 80.3846 9.42735C80.3846 8.66346 79.7734 8.05983 79 8.05983C78.2266 8.05983 77.6154 8.66346 77.6154 9.42735H76.2308Z" fill="#1355E9"/>
<rect x="0.5" y="26.5" width="229" height="43" rx="7.5" fill="white"/>
<rect x="0.5" y="26.5" width="229" height="43" rx="7.5" stroke="#EBEBEB"/>
<path d="M13.022 52V43.026H16.228C18.398 43.026 19.826 44.202 19.826 45.994C19.826 47.8 18.384 48.99 16.2 48.99H14.772V52H13.022ZM16.368 44.58H14.772V47.436H16.368C17.334 47.436 17.978 46.862 17.978 45.994C17.978 45.14 17.334 44.58 16.368 44.58ZM23.7861 50.516L23.9681 52.014C23.7161 52.098 23.3941 52.154 23.1421 52.154C22.1761 52.154 21.1961 51.538 21.1961 49.83V42.368H22.9041V49.872C22.9041 50.39 23.1981 50.586 23.5061 50.586C23.5901 50.586 23.7021 50.558 23.7861 50.516ZM28.1654 52.182C26.4014 52.182 24.9594 50.74 24.9594 48.64C24.9594 46.624 26.3174 45.112 28.1654 45.112C29.0754 45.112 29.7754 45.518 30.2234 46.176V45.294H31.9314V52H30.2234V51.048C29.7754 51.734 29.0754 52.182 28.1654 52.182ZM28.4454 50.586C29.4814 50.586 30.2234 49.718 30.2234 48.64C30.2234 47.562 29.4814 46.708 28.4454 46.708C27.4094 46.708 26.6674 47.562 26.6674 48.64C26.6674 49.718 27.4094 50.586 28.4454 50.586ZM38.561 47.324C38.127 46.918 37.637 46.708 36.965 46.708C35.845 46.708 35.103 47.562 35.103 48.64C35.103 49.718 35.859 50.586 36.965 50.586C37.637 50.586 38.183 50.348 38.617 49.928L39.485 51.188C38.953 51.776 37.973 52.182 36.923 52.182C34.921 52.182 33.395 50.6 33.395 48.64C33.395 46.694 34.935 45.112 36.895 45.112C38.029 45.112 38.939 45.49 39.541 46.106L38.561 47.324ZM43.5965 52.182C41.5105 52.182 39.9985 50.6 39.9985 48.64C39.9985 46.694 41.4405 45.112 43.3725 45.112C45.2905 45.112 46.7605 46.582 46.7605 48.514C46.7605 48.738 46.7465 49.004 46.7185 49.116H41.7485C41.9305 50.04 42.6305 50.684 43.6525 50.684C44.3385 50.684 44.9125 50.39 45.3045 49.984L46.1865 51.16C45.6685 51.734 44.7165 52.182 43.5965 52.182ZM43.4005 46.554C42.5885 46.554 42.0005 47.114 41.7905 47.926H44.9965C44.7865 47.03 44.1845 46.554 43.4005 46.554ZM48.1297 52V42.368H49.8377V46.246C50.1877 45.532 50.8597 45.112 51.7417 45.112C53.2817 45.112 54.2757 46.19 54.2757 47.94V52H52.5677V48.192C52.5677 47.282 52.0497 46.708 51.2097 46.708C50.3697 46.708 49.8377 47.282 49.8377 48.192V52H48.1297ZM59.1798 52.182C57.2338 52.182 55.6938 50.6 55.6938 48.64C55.6938 46.694 57.2338 45.112 59.1798 45.112C61.1258 45.112 62.6658 46.694 62.6658 48.64C62.6658 50.6 61.1258 52.182 59.1798 52.182ZM59.1798 50.586C60.2158 50.586 60.9578 49.718 60.9578 48.64C60.9578 47.562 60.2158 46.708 59.1798 46.708C58.1438 46.708 57.4018 47.562 57.4018 48.64C57.4018 49.718 58.1438 50.586 59.1798 50.586ZM66.7295 50.516L66.9115 52.014C66.6595 52.098 66.3375 52.154 66.0855 52.154C65.1195 52.154 64.1395 51.538 64.1395 49.83V42.368H65.8475V49.872C65.8475 50.39 66.1415 50.586 66.4495 50.586C66.5335 50.586 66.6455 50.558 66.7295 50.516ZM71.1088 52.182C69.3448 52.182 67.9028 50.74 67.9028 48.64C67.9028 46.624 69.2608 45.112 71.1088 45.112C72.0188 45.112 72.7188 45.518 73.1668 46.176V42.368H74.8748V52H73.1668V51.048C72.7188 51.734 72.0188 52.182 71.1088 52.182ZM71.3888 50.586C72.4248 50.586 73.1668 49.718 73.1668 48.64C73.1668 47.562 72.4248 46.708 71.3888 46.708C70.3528 46.708 69.6108 47.562 69.6108 48.64C69.6108 49.718 70.3528 50.586 71.3888 50.586ZM79.9363 52.182C77.8503 52.182 76.3383 50.6 76.3383 48.64C76.3383 46.694 77.7803 45.112 79.7123 45.112C81.6303 45.112 83.1003 46.582 83.1003 48.514C83.1003 48.738 83.0863 49.004 83.0583 49.116H78.0883C78.2703 50.04 78.9703 50.684 79.9923 50.684C80.6783 50.684 81.2523 50.39 81.6443 49.984L82.5263 51.16C82.0083 51.734 81.0563 52.182 79.9363 52.182ZM79.7403 46.554C78.9283 46.554 78.3403 47.114 78.1303 47.926H81.3363C81.1263 47.03 80.5243 46.554 79.7403 46.554ZM84.4696 52V45.294H86.1776V46.288C86.4996 45.574 87.0736 45.112 87.8296 45.112C88.2776 45.112 88.6416 45.224 88.8936 45.434L88.1936 47.044C87.9696 46.876 87.6336 46.764 87.2976 46.764C86.6256 46.764 86.1776 47.338 86.1776 48.248V52H84.4696ZM92.3695 46.806V45.294H93.5455V43.558H95.2675V45.294H97.0735V46.806H95.2815V49.662C95.2815 50.292 95.5335 50.586 96.0375 50.586C96.3595 50.586 96.6675 50.446 96.8355 50.25L97.5915 51.524C97.2275 51.888 96.5975 52.182 95.7715 52.182C94.4135 52.182 93.5455 51.342 93.5455 49.704V46.806H92.3695ZM101.565 52.182C99.4792 52.182 97.9672 50.6 97.9672 48.64C97.9672 46.694 99.4092 45.112 101.341 45.112C103.259 45.112 104.729 46.582 104.729 48.514C104.729 48.738 104.715 49.004 104.687 49.116H99.7172C99.8992 50.04 100.599 50.684 101.621 50.684C102.307 50.684 102.881 50.39 103.273 49.984L104.155 51.16C103.637 51.734 102.685 52.182 101.565 52.182ZM101.369 46.554C100.557 46.554 99.9692 47.114 99.7592 47.926H102.965C102.755 47.03 102.153 46.554 101.369 46.554ZM104.85 52L107.384 48.626L104.934 45.294H107.062L108.518 47.268L110.002 45.294H111.92L109.47 48.556L112.004 52H109.876L108.336 49.914L106.754 52H104.85ZM112.454 46.806V45.294H113.63V43.558H115.352V45.294H117.158V46.806H115.366V49.662C115.366 50.292 115.618 50.586 116.122 50.586C116.444 50.586 116.752 50.446 116.92 50.25L117.676 51.524C117.312 51.888 116.682 52.182 115.856 52.182C114.498 52.182 113.63 51.342 113.63 49.704V46.806H112.454Z" fill="black"/>
<path d="M212 51L207 45.9524L208 45L212 49.2857L216 45L217 45.9524L212 51Z" fill="black"/>
</svg>
