<svg width="296" height="275" viewBox="0 0 296 275" fill="none" xmlns="http://www.w3.org/2000/svg">
<path d="M38.208 5.844C40.77 5.844 42.856 7.944 42.856 10.534C42.856 13.096 40.77 15.182 38.208 15.182C35.646 15.182 33.56 13.082 33.56 10.52C33.56 7.93 35.646 5.844 38.208 5.844ZM38.208 13.446C39.748 13.446 40.994 12.13 40.994 10.534C40.994 8.91 39.748 7.58 38.208 7.58C36.668 7.58 35.436 8.896 35.436 10.52C35.436 12.13 36.668 13.446 38.208 13.446ZM43.768 9.806V8.294H44.86V7.902C44.86 6.208 45.826 5.186 47.324 5.186C48.234 5.186 48.822 5.438 49.256 5.872L48.416 7.16C48.22 6.95 47.856 6.782 47.492 6.782C46.932 6.782 46.582 7.16 46.582 7.888V8.294H48.318V9.806H46.582V15H44.86V9.806H43.768ZM49.1273 9.806V8.294H50.2193V8.168C50.2193 6.32 51.4373 5.186 53.4953 5.186C54.7973 5.186 55.6793 5.55 56.3093 6.082L55.4553 7.426C55.0213 7.034 54.2933 6.782 53.5933 6.782C52.5573 6.782 51.9413 7.244 51.9413 8.21V8.294H56.2113V15H54.5033V9.806H51.9413V15H50.2193V9.806H49.1273ZM62.8422 10.324C62.4082 9.918 61.9182 9.708 61.2462 9.708C60.1262 9.708 59.3842 10.562 59.3842 11.64C59.3842 12.718 60.1402 13.586 61.2462 13.586C61.9182 13.586 62.4642 13.348 62.8982 12.928L63.7662 14.188C63.2342 14.776 62.2542 15.182 61.2042 15.182C59.2022 15.182 57.6762 13.6 57.6762 11.64C57.6762 9.694 59.2162 8.112 61.1762 8.112C62.3102 8.112 63.2202 8.49 63.8222 9.106L62.8422 10.324ZM67.8777 15.182C65.7917 15.182 64.2797 13.6 64.2797 11.64C64.2797 9.694 65.7217 8.112 67.6537 8.112C69.5717 8.112 71.0417 9.582 71.0417 11.514C71.0417 11.738 71.0277 12.004 70.9997 12.116H66.0297C66.2117 13.04 66.9117 13.684 67.9337 13.684C68.6197 13.684 69.1937 13.39 69.5857 12.984L70.4677 14.16C69.9497 14.734 68.9977 15.182 67.8777 15.182ZM67.6817 9.554C66.8697 9.554 66.2817 10.114 66.0717 10.926H69.2777C69.0677 10.03 68.4657 9.554 67.6817 9.554ZM75.4751 15V6.026H78.6811C80.8511 6.026 82.2791 7.202 82.2791 8.994C82.2791 10.8 80.8371 11.99 78.6531 11.99H77.2251V15H75.4751ZM78.8211 7.58H77.2251V10.436H78.8211C79.7871 10.436 80.4311 9.862 80.4311 8.994C80.4311 8.14 79.7871 7.58 78.8211 7.58ZM83.6493 15V8.294H85.3573V9.288C85.6793 8.574 86.2533 8.112 87.0093 8.112C87.4573 8.112 87.8213 8.224 88.0733 8.434L87.3733 10.044C87.1493 9.876 86.8133 9.764 86.4773 9.764C85.8053 9.764 85.3573 10.338 85.3573 11.248V15H83.6493ZM91.8445 15.182C89.7585 15.182 88.2465 13.6 88.2465 11.64C88.2465 9.694 89.6885 8.112 91.6205 8.112C93.5385 8.112 95.0085 9.582 95.0085 11.514C95.0085 11.738 94.9945 12.004 94.9665 12.116H89.9965C90.1785 13.04 90.8785 13.684 91.9005 13.684C92.5865 13.684 93.1605 13.39 93.5525 12.984L94.4345 14.16C93.9165 14.734 92.9645 15.182 91.8445 15.182ZM91.6485 9.554C90.8365 9.554 90.2485 10.114 90.0385 10.926H93.2445C93.0345 10.03 92.4325 9.554 91.6485 9.554ZM95.7758 9.806V8.294H96.8678V7.902C96.8678 6.208 97.8338 5.186 99.3318 5.186C100.242 5.186 100.83 5.438 101.264 5.872L100.424 7.16C100.228 6.95 99.8638 6.782 99.4998 6.782C98.9398 6.782 98.5898 7.16 98.5898 7.888V8.294H100.326V9.806H98.5898V15H96.8678V9.806H95.7758ZM104.382 15.182C102.296 15.182 100.784 13.6 100.784 11.64C100.784 9.694 102.226 8.112 104.158 8.112C106.076 8.112 107.546 9.582 107.546 11.514C107.546 11.738 107.532 12.004 107.504 12.116H102.534C102.716 13.04 103.416 13.684 104.438 13.684C105.124 13.684 105.698 13.39 106.09 12.984L106.972 14.16C106.454 14.734 105.502 15.182 104.382 15.182ZM104.186 9.554C103.374 9.554 102.786 10.114 102.576 10.926H105.782C105.572 10.03 104.97 9.554 104.186 9.554ZM108.915 15V8.294H110.623V9.288C110.945 8.574 111.519 8.112 112.275 8.112C112.723 8.112 113.087 8.224 113.339 8.434L112.639 10.044C112.415 9.876 112.079 9.764 111.743 9.764C111.071 9.764 110.623 10.338 110.623 11.248V15H108.915ZM117.11 15.182C115.024 15.182 113.512 13.6 113.512 11.64C113.512 9.694 114.954 8.112 116.886 8.112C118.804 8.112 120.274 9.582 120.274 11.514C120.274 11.738 120.26 12.004 120.232 12.116H115.262C115.444 13.04 116.144 13.684 117.166 13.684C117.852 13.684 118.426 13.39 118.818 12.984L119.7 14.16C119.182 14.734 118.23 15.182 117.11 15.182ZM116.914 9.554C116.102 9.554 115.514 10.114 115.304 10.926H118.51C118.3 10.03 117.698 9.554 116.914 9.554ZM121.643 15V8.294H123.351V9.246C123.701 8.532 124.373 8.112 125.255 8.112C126.795 8.112 127.789 9.19 127.789 10.94V15H126.081V11.192C126.081 10.282 125.563 9.708 124.723 9.708C123.883 9.708 123.351 10.282 123.351 11.192V15H121.643ZM134.373 10.324C133.939 9.918 133.449 9.708 132.777 9.708C131.657 9.708 130.915 10.562 130.915 11.64C130.915 12.718 131.671 13.586 132.777 13.586C133.449 13.586 133.995 13.348 134.429 12.928L135.297 14.188C134.765 14.776 133.785 15.182 132.735 15.182C130.733 15.182 129.207 13.6 129.207 11.64C129.207 9.694 130.747 8.112 132.707 8.112C133.841 8.112 134.751 8.49 135.353 9.106L134.373 10.324ZM139.409 15.182C137.323 15.182 135.811 13.6 135.811 11.64C135.811 9.694 137.253 8.112 139.185 8.112C141.103 8.112 142.573 9.582 142.573 11.514C142.573 11.738 142.559 12.004 142.531 12.116H137.561C137.743 13.04 138.443 13.684 139.465 13.684C140.151 13.684 140.725 13.39 141.117 12.984L141.999 14.16C141.481 14.734 140.529 15.182 139.409 15.182ZM139.213 9.554C138.401 9.554 137.813 10.114 137.603 10.926H140.809C140.599 10.03 139.997 9.554 139.213 9.554Z" fill="black"/>
<path fill-rule="evenodd" clip-rule="evenodd" d="M147 11C147 6.58854 150.589 3 155 3C159.411 3 163 6.58854 163 11C163 15.4115 159.411 19 155 19C150.589 19 147 15.4115 147 11ZM161.769 11C161.769 7.25312 158.747 4.23077 155 4.23077C151.253 4.23077 148.231 7.25312 148.231 11C148.231 14.7469 151.253 17.7692 155 17.7692C158.747 17.7692 161.769 14.7469 161.769 11ZM155.923 14.3846C155.923 14.8944 155.51 15.3077 155 15.3077C154.49 15.3077 154.077 14.8944 154.077 14.3846C154.077 13.8748 154.49 13.4615 155 13.4615C155.51 13.4615 155.923 13.8748 155.923 14.3846ZM152.231 9.42735C152.231 7.92361 153.477 6.69231 155 6.69231C156.523 6.69231 157.769 7.92361 157.769 9.42735C157.769 10.5358 157.039 11.5347 155.974 11.8846L155.692 11.9701V12.8462H154.308V11.9701C154.308 11.3851 154.694 10.851 155.26 10.6667L155.541 10.5812C156.044 10.4156 156.385 9.95086 156.385 9.42735C156.385 8.66346 155.773 8.05983 155 8.05983C154.227 8.05983 153.615 8.66346 153.615 9.42735H152.231Z" fill="#1355E9"/>
<rect x="34" y="27" width="228" height="42" rx="7" fill="white"/>
<rect x="34" y="27" width="228" height="42" rx="7" stroke="#D6D6D6" stroke-width="2"/>
<path d="M47.072 52.014C46.652 51.902 46.12 51.636 45.434 51.188L46.19 49.718C46.946 50.194 48.038 50.53 48.92 50.53C49.802 50.53 50.46 50.208 50.46 49.494C50.46 47.898 45.742 48.654 45.742 45.476C45.742 43.81 47.268 42.83 49.088 42.83C50.222 42.83 51.286 43.138 52.112 43.768L51.258 45.154C50.684 44.776 49.788 44.468 49.004 44.468C48.192 44.468 47.618 44.846 47.618 45.434C47.618 47.072 52.322 46.344 52.322 49.396C52.322 51.244 50.698 52.182 48.794 52.182C48.052 52.182 47.478 52.126 47.072 52.014ZM56.8953 52.182C54.8093 52.182 53.2973 50.6 53.2973 48.64C53.2973 46.694 54.7393 45.112 56.6713 45.112C58.5893 45.112 60.0593 46.582 60.0593 48.514C60.0593 48.738 60.0453 49.004 60.0173 49.116H55.0473C55.2293 50.04 55.9293 50.684 56.9513 50.684C57.6373 50.684 58.2113 50.39 58.6033 49.984L59.4853 51.16C58.9673 51.734 58.0153 52.182 56.8953 52.182ZM56.6993 46.554C55.8873 46.554 55.2993 47.114 55.0893 47.926H58.2953C58.0853 47.03 57.4833 46.554 56.6993 46.554ZM64.0186 50.516L64.2006 52.014C63.9486 52.098 63.6266 52.154 63.3746 52.154C62.4086 52.154 61.4286 51.538 61.4286 49.83V42.368H63.1366V49.872C63.1366 50.39 63.4306 50.586 63.7386 50.586C63.8226 50.586 63.9346 50.558 64.0186 50.516ZM68.7898 52.182C66.7038 52.182 65.1918 50.6 65.1918 48.64C65.1918 46.694 66.6338 45.112 68.5658 45.112C70.4838 45.112 71.9538 46.582 71.9538 48.514C71.9538 48.738 71.9398 49.004 71.9118 49.116H66.9418C67.1238 50.04 67.8238 50.684 68.8458 50.684C69.5318 50.684 70.1058 50.39 70.4978 49.984L71.3798 51.16C70.8618 51.734 69.9098 52.182 68.7898 52.182ZM68.5938 46.554C67.7818 46.554 67.1938 47.114 66.9838 47.926H70.1898C69.9798 47.03 69.3778 46.554 68.5938 46.554ZM78.0551 47.324C77.6211 46.918 77.1311 46.708 76.4591 46.708C75.3391 46.708 74.5971 47.562 74.5971 48.64C74.5971 49.718 75.3531 50.586 76.4591 50.586C77.1311 50.586 77.6771 50.348 78.1111 49.928L78.9791 51.188C78.4471 51.776 77.4671 52.182 76.4171 52.182C74.4151 52.182 72.8891 50.6 72.8891 48.64C72.8891 46.694 74.4291 45.112 76.3891 45.112C77.5231 45.112 78.4331 45.49 79.0351 46.106L78.0551 47.324ZM79.473 46.806V45.294H80.649V43.558H82.371V45.294H84.177V46.806H82.385V49.662C82.385 50.292 82.637 50.586 83.141 50.586C83.463 50.586 83.771 50.446 83.939 50.25L84.695 51.524C84.331 51.888 83.701 52.182 82.875 52.182C81.517 52.182 80.649 51.342 80.649 49.704V46.806H79.473ZM88.897 52V43.026H90.647V50.348H95.029V52H88.897ZM98.961 52.182C97.015 52.182 95.475 50.6 95.475 48.64C95.475 46.694 97.015 45.112 98.961 45.112C100.907 45.112 102.447 46.694 102.447 48.64C102.447 50.6 100.907 52.182 98.961 52.182ZM98.961 50.586C99.997 50.586 100.739 49.718 100.739 48.64C100.739 47.562 99.997 46.708 98.961 46.708C97.925 46.708 97.183 47.562 97.183 48.64C97.183 49.718 97.925 50.586 98.961 50.586ZM108.653 47.324C108.219 46.918 107.729 46.708 107.057 46.708C105.937 46.708 105.195 47.562 105.195 48.64C105.195 49.718 105.951 50.586 107.057 50.586C107.729 50.586 108.275 50.348 108.709 49.928L109.577 51.188C109.045 51.776 108.065 52.182 107.015 52.182C105.013 52.182 103.487 50.6 103.487 48.64C103.487 46.694 105.027 45.112 106.987 45.112C108.121 45.112 109.031 45.49 109.633 46.106L108.653 47.324ZM113.296 52.182C111.532 52.182 110.09 50.74 110.09 48.64C110.09 46.624 111.448 45.112 113.296 45.112C114.206 45.112 114.906 45.518 115.354 46.176V45.294H117.062V52H115.354V51.048C114.906 51.734 114.206 52.182 113.296 52.182ZM113.576 50.586C114.612 50.586 115.354 49.718 115.354 48.64C115.354 47.562 114.612 46.708 113.576 46.708C112.54 46.708 111.798 47.562 111.798 48.64C111.798 49.718 112.54 50.586 113.576 50.586ZM118.274 46.806V45.294H119.45V43.558H121.172V45.294H122.978V46.806H121.186V49.662C121.186 50.292 121.438 50.586 121.942 50.586C122.264 50.586 122.572 50.446 122.74 50.25L123.496 51.524C123.132 51.888 122.502 52.182 121.676 52.182C120.318 52.182 119.45 51.342 119.45 49.704V46.806H118.274ZM125.488 44.398C124.928 44.398 124.494 43.95 124.494 43.39C124.494 42.844 124.928 42.396 125.488 42.396C126.034 42.396 126.496 42.844 126.496 43.39C126.496 43.95 126.034 44.398 125.488 44.398ZM126.342 52H124.634V45.294H126.342V52ZM131.309 52.182C129.363 52.182 127.823 50.6 127.823 48.64C127.823 46.694 129.363 45.112 131.309 45.112C133.255 45.112 134.795 46.694 134.795 48.64C134.795 50.6 133.255 52.182 131.309 52.182ZM131.309 50.586C132.345 50.586 133.087 49.718 133.087 48.64C133.087 47.562 132.345 46.708 131.309 46.708C130.273 46.708 129.531 47.562 129.531 48.64C129.531 49.718 130.273 50.586 131.309 50.586ZM136.268 52V45.294H137.976V46.246C138.326 45.532 138.998 45.112 139.88 45.112C141.42 45.112 142.414 46.19 142.414 47.94V52H140.706V48.192C140.706 47.282 140.188 46.708 139.348 46.708C138.508 46.708 137.976 47.282 137.976 48.192V52H136.268Z" fill="black"/>
<path d="M245 51L240 45.9524L241 45L245 49.2857L249 45L250 45.9524L245 51Z" fill="black"/>
<g filter="url(#filter0_d_37_7485)">
<g clip-path="url(#clip0_37_7485)">
<rect x="33" y="74" width="230" height="152" rx="8" fill="white"/>
<rect width="230" height="44" transform="translate(33 74)" fill="white"/>
<path d="M46.022 100V91.026H47.772V100H46.022ZM49.7665 100V93.294H51.4745V94.246C51.8245 93.532 52.4965 93.112 53.3785 93.112C54.9185 93.112 55.9125 94.19 55.9125 95.94V100H54.2045V96.192C54.2045 95.282 53.6865 94.708 52.8465 94.708C52.0065 94.708 51.4745 95.282 51.4745 96.192V100H49.7665ZM59.8225 100.182C58.7445 100.182 57.8625 99.902 57.2045 99.538L57.7505 98.222C58.5205 98.586 59.1645 98.782 59.9065 98.782C60.6625 98.782 61.0125 98.516 61.0125 98.124C61.0125 96.92 57.4005 97.634 57.4005 95.1C57.4005 94.092 58.2965 93.112 60.0185 93.112C60.9565 93.112 61.6705 93.308 62.5245 93.714L61.8945 94.988C61.4185 94.722 60.7045 94.512 60.1585 94.512C59.5145 94.512 59.1225 94.722 59.1225 95.086C59.1225 96.318 62.7065 95.548 62.7065 98.096C62.7065 99.258 61.6705 100.182 59.8225 100.182ZM64.9623 92.398C64.4023 92.398 63.9683 91.95 63.9683 91.39C63.9683 90.844 64.4023 90.396 64.9623 90.396C65.5083 90.396 65.9703 90.844 65.9703 91.39C65.9703 91.95 65.5083 92.398 64.9623 92.398ZM65.8163 100H64.1083V93.294H65.8163V100ZM70.5033 100.182C68.7393 100.182 67.2973 98.74 67.2973 96.64C67.2973 94.624 68.6553 93.112 70.5033 93.112C71.4133 93.112 72.1133 93.518 72.5613 94.176V90.368H74.2693V100H72.5613V99.048C72.1133 99.734 71.4133 100.182 70.5033 100.182ZM70.7833 98.586C71.8193 98.586 72.5613 97.718 72.5613 96.64C72.5613 95.562 71.8193 94.708 70.7833 94.708C69.7473 94.708 69.0053 95.562 69.0053 96.64C69.0053 97.718 69.7473 98.586 70.7833 98.586ZM79.3308 100.182C77.2448 100.182 75.7328 98.6 75.7328 96.64C75.7328 94.694 77.1748 93.112 79.1068 93.112C81.0248 93.112 82.4948 94.582 82.4948 96.514C82.4948 96.738 82.4808 97.004 82.4528 97.116H77.4828C77.6648 98.04 78.3648 98.684 79.3868 98.684C80.0728 98.684 80.6468 98.39 81.0388 97.984L81.9208 99.16C81.4028 99.734 80.4508 100.182 79.3308 100.182ZM79.1348 94.554C78.3228 94.554 77.7348 95.114 77.5248 95.926H80.7308C80.5208 95.03 79.9188 94.554 79.1348 94.554ZM88.5663 100H86.8583V93.294H88.5663V94.316C88.9163 93.588 89.5743 93.112 90.4563 93.112C91.4783 93.112 92.2623 93.616 92.6543 94.512C93.0043 93.714 93.6483 93.112 94.7123 93.112C96.2663 93.112 97.2883 94.148 97.2883 95.94V100H95.5663V96.192C95.5663 95.282 95.0623 94.708 94.2503 94.708C93.4383 94.708 92.9203 95.282 92.9203 96.192V100H91.2123V96.192C91.2123 95.282 90.7083 94.708 89.8963 94.708C89.0843 94.708 88.5663 95.282 88.5663 96.192V100ZM101.168 100.266L101.224 100.098L98.1582 93.294H100.034L101.994 97.914L103.604 93.294H105.326L102.582 100.854C102.064 102.324 101.21 102.926 100.09 102.926C99.3762 102.926 98.6902 102.632 98.2562 102.226L99.0262 100.882C99.3482 101.19 99.7122 101.33 100.104 101.33C100.58 101.33 100.888 101.05 101.168 100.266ZM109.458 100V90.368H111.166V94.246C111.516 93.532 112.188 93.112 113.07 93.112C114.61 93.112 115.604 94.19 115.604 95.94V100H113.896V96.192C113.896 95.282 113.378 94.708 112.538 94.708C111.698 94.708 111.166 95.282 111.166 96.192V100H109.458ZM120.508 100.182C118.562 100.182 117.022 98.6 117.022 96.64C117.022 94.694 118.562 93.112 120.508 93.112C122.454 93.112 123.994 94.694 123.994 96.64C123.994 98.6 122.454 100.182 120.508 100.182ZM120.508 98.586C121.544 98.586 122.286 97.718 122.286 96.64C122.286 95.562 121.544 94.708 120.508 94.708C119.472 94.708 118.73 95.562 118.73 96.64C118.73 97.718 119.472 98.586 120.508 98.586ZM127.092 93.294V96.92C127.092 97.9 127.652 98.558 128.506 98.558C129.36 98.558 129.934 97.9 129.934 96.92V93.294H131.656V97.046C131.656 98.922 130.396 100.168 128.506 100.168C126.616 100.168 125.384 98.922 125.384 97.046V93.294H127.092ZM135.524 100.182C134.446 100.182 133.564 99.902 132.906 99.538L133.452 98.222C134.222 98.586 134.866 98.782 135.608 98.782C136.364 98.782 136.714 98.516 136.714 98.124C136.714 96.92 133.102 97.634 133.102 95.1C133.102 94.092 133.998 93.112 135.72 93.112C136.658 93.112 137.372 93.308 138.226 93.714L137.596 94.988C137.12 94.722 136.406 94.512 135.86 94.512C135.216 94.512 134.824 94.722 134.824 95.086C134.824 96.318 138.408 95.548 138.408 98.096C138.408 99.258 137.372 100.182 135.524 100.182ZM142.973 100.182C140.887 100.182 139.375 98.6 139.375 96.64C139.375 94.694 140.817 93.112 142.749 93.112C144.667 93.112 146.137 94.582 146.137 96.514C146.137 96.738 146.123 97.004 146.095 97.116H141.125C141.307 98.04 142.007 98.684 143.029 98.684C143.715 98.684 144.289 98.39 144.681 97.984L145.563 99.16C145.045 99.734 144.093 100.182 142.973 100.182ZM142.777 94.554C141.965 94.554 141.377 95.114 141.167 95.926H144.373C144.163 95.03 143.561 94.554 142.777 94.554ZM154.267 93.112C156.031 93.112 157.487 94.554 157.487 96.654C157.487 98.67 156.129 100.182 154.267 100.182C153.357 100.182 152.657 99.776 152.209 99.104V100H150.501V90.368H152.209V94.246C152.657 93.56 153.357 93.112 154.267 93.112ZM154.001 94.708C152.965 94.708 152.209 95.576 152.209 96.654C152.209 97.732 152.965 98.586 154.001 98.586C155.023 98.586 155.779 97.732 155.779 96.654C155.779 95.576 155.023 94.708 154.001 94.708ZM161.078 100.266L161.134 100.098L158.068 93.294H159.944L161.904 97.914L163.514 93.294H165.236L162.492 100.854C161.974 102.324 161.12 102.926 160 102.926C159.286 102.926 158.6 102.632 158.166 102.226L158.936 100.882C159.258 101.19 159.622 101.33 160.014 101.33C160.49 101.33 160.798 101.05 161.078 100.266ZM168.682 94.806V93.294H169.858V91.558H171.58V93.294H173.386V94.806H171.594V97.662C171.594 98.292 171.846 98.586 172.35 98.586C172.672 98.586 172.98 98.446 173.148 98.25L173.904 99.524C173.54 99.888 172.91 100.182 172.084 100.182C170.726 100.182 169.858 99.342 169.858 97.704V94.806H168.682ZM175.042 100V90.368H176.75V94.246C177.1 93.532 177.772 93.112 178.654 93.112C180.194 93.112 181.188 94.19 181.188 95.94V100H179.48V96.192C179.48 95.282 178.962 94.708 178.122 94.708C177.282 94.708 176.75 95.282 176.75 96.192V100H175.042ZM186.204 100.182C184.118 100.182 182.606 98.6 182.606 96.64C182.606 94.694 184.048 93.112 185.98 93.112C187.898 93.112 189.368 94.582 189.368 96.514C189.368 96.738 189.354 97.004 189.326 97.116H184.356C184.538 98.04 185.238 98.684 186.26 98.684C186.946 98.684 187.52 98.39 187.912 97.984L188.794 99.16C188.276 99.734 187.324 100.182 186.204 100.182ZM186.008 94.554C185.196 94.554 184.608 95.114 184.398 95.926H187.604C187.394 95.03 186.792 94.554 186.008 94.554ZM197.049 100H195.117L193.045 93.294H194.879L196.125 98.124L197.483 93.294H199.331L200.717 98.152L201.991 93.294H203.825L201.753 100H199.625L198.323 95.45L197.049 100ZM205.892 92.398C205.332 92.398 204.898 91.95 204.898 91.39C204.898 90.844 205.332 90.396 205.892 90.396C206.438 90.396 206.9 90.844 206.9 91.39C206.9 91.95 206.438 92.398 205.892 92.398ZM206.746 100H205.038V93.294H206.746V100ZM208.661 100V93.294H210.369V94.246C210.719 93.532 211.391 93.112 212.273 93.112C213.813 93.112 214.807 94.19 214.807 95.94V100H213.099V96.192C213.099 95.282 212.581 94.708 211.741 94.708C210.901 94.708 210.369 95.282 210.369 96.192V100H208.661ZM219.431 100.182C217.667 100.182 216.225 98.74 216.225 96.64C216.225 94.624 217.583 93.112 219.431 93.112C220.341 93.112 221.041 93.518 221.489 94.176V90.368H223.197V100H221.489V99.048C221.041 99.734 220.341 100.182 219.431 100.182ZM219.711 98.586C220.747 98.586 221.489 97.718 221.489 96.64C221.489 95.562 220.747 94.708 219.711 94.708C218.675 94.708 217.933 95.562 217.933 96.64C217.933 97.718 218.675 98.586 219.711 98.586ZM228.147 100.182C226.201 100.182 224.661 98.6 224.661 96.64C224.661 94.694 226.201 93.112 228.147 93.112C230.093 93.112 231.633 94.694 231.633 96.64C231.633 98.6 230.093 100.182 228.147 100.182ZM228.147 98.586C229.183 98.586 229.925 97.718 229.925 96.64C229.925 95.562 229.183 94.708 228.147 94.708C227.111 94.708 226.369 95.562 226.369 96.64C226.369 97.718 227.111 98.586 228.147 98.586ZM236.11 100H234.178L232.106 93.294H233.94L235.186 98.124L236.544 93.294H238.392L239.778 98.152L241.052 93.294H242.886L240.814 100H238.686L237.384 95.45L236.11 100Z" fill="black"/>
<rect width="230" height="44" transform="translate(33 118)" fill="#EBEBEB"/>
<path d="M53.484 136.062L52.322 137.406C51.804 136.93 51.076 136.58 50.18 136.58C48.654 136.58 47.436 137.896 47.436 139.52C47.436 141.13 48.654 142.446 50.292 142.446C51.062 142.446 51.832 142.152 52.336 141.634L53.484 142.922C52.7 143.79 51.622 144.182 50.18 144.182C47.562 144.182 45.56 142.082 45.56 139.52C45.56 136.93 47.632 134.844 50.166 134.844C51.678 134.844 52.742 135.306 53.484 136.062ZM57.4942 144.182C55.5482 144.182 54.0082 142.6 54.0082 140.64C54.0082 138.694 55.5482 137.112 57.4942 137.112C59.4402 137.112 60.9802 138.694 60.9802 140.64C60.9802 142.6 59.4402 144.182 57.4942 144.182ZM57.4942 142.586C58.5302 142.586 59.2722 141.718 59.2722 140.64C59.2722 139.562 58.5302 138.708 57.4942 138.708C56.4582 138.708 55.7162 139.562 55.7162 140.64C55.7162 141.718 56.4582 142.586 57.4942 142.586ZM61.852 138.806V137.294H62.944V136.902C62.944 135.208 63.91 134.186 65.408 134.186C66.318 134.186 66.906 134.438 67.34 134.872L66.5 136.16C66.304 135.95 65.94 135.782 65.576 135.782C65.016 135.782 64.666 136.16 64.666 136.888V137.294H66.402V138.806H64.666V144H62.944V138.806H61.852ZM67.2113 138.806V137.294H68.3033V136.902C68.3033 135.208 69.2693 134.186 70.7673 134.186C71.6773 134.186 72.2653 134.438 72.6993 134.872L71.8593 136.16C71.6633 135.95 71.2993 135.782 70.9353 135.782C70.3753 135.782 70.0253 136.16 70.0253 136.888V137.294H71.7613V138.806H70.0253V144H68.3033V138.806H67.2113ZM75.8172 144.182C73.7312 144.182 72.2192 142.6 72.2192 140.64C72.2192 138.694 73.6612 137.112 75.5932 137.112C77.5112 137.112 78.9812 138.582 78.9812 140.514C78.9812 140.738 78.9672 141.004 78.9392 141.116H73.9692C74.1512 142.04 74.8512 142.684 75.8732 142.684C76.5592 142.684 77.1332 142.39 77.5252 141.984L78.4072 143.16C77.8892 143.734 76.9372 144.182 75.8172 144.182ZM75.6212 138.554C74.8092 138.554 74.2212 139.114 74.0112 139.926H77.2172C77.0072 139.03 76.4052 138.554 75.6212 138.554ZM83.5144 144.182C81.4284 144.182 79.9164 142.6 79.9164 140.64C79.9164 138.694 81.3584 137.112 83.2904 137.112C85.2084 137.112 86.6784 138.582 86.6784 140.514C86.6784 140.738 86.6644 141.004 86.6364 141.116H81.6664C81.8484 142.04 82.5484 142.684 83.5704 142.684C84.2564 142.684 84.8304 142.39 85.2224 141.984L86.1044 143.16C85.5864 143.734 84.6344 144.182 83.5144 144.182ZM83.3184 138.554C82.5064 138.554 81.9184 139.114 81.7084 139.926H84.9144C84.7044 139.03 84.1024 138.554 83.3184 138.554ZM93.0998 144.182C92.0218 144.182 91.1398 143.902 90.4818 143.538L91.0278 142.222C91.7978 142.586 92.4418 142.782 93.1838 142.782C93.9398 142.782 94.2898 142.516 94.2898 142.124C94.2898 140.92 90.6778 141.634 90.6778 139.1C90.6778 138.092 91.5738 137.112 93.2958 137.112C94.2338 137.112 94.9478 137.308 95.8018 137.714L95.1718 138.988C94.6958 138.722 93.9818 138.512 93.4358 138.512C92.7918 138.512 92.3998 138.722 92.3998 139.086C92.3998 140.318 95.9838 139.548 95.9838 142.096C95.9838 143.258 94.9478 144.182 93.0998 144.182ZM97.3856 144V134.368H99.0936V138.246C99.4436 137.532 100.116 137.112 100.998 137.112C102.538 137.112 103.532 138.19 103.532 139.94V144H101.824V140.192C101.824 139.282 101.306 138.708 100.466 138.708C99.6256 138.708 99.0936 139.282 99.0936 140.192V144H97.3856ZM108.436 144.182C106.49 144.182 104.95 142.6 104.95 140.64C104.95 138.694 106.49 137.112 108.436 137.112C110.382 137.112 111.922 138.694 111.922 140.64C111.922 142.6 110.382 144.182 108.436 144.182ZM108.436 142.586C109.472 142.586 110.214 141.718 110.214 140.64C110.214 139.562 109.472 138.708 108.436 138.708C107.4 138.708 106.658 139.562 106.658 140.64C106.658 141.718 107.4 142.586 108.436 142.586ZM115.103 146.744H113.395V137.294H115.103V138.246C115.551 137.56 116.251 137.112 117.161 137.112C118.925 137.112 120.381 138.554 120.381 140.654C120.381 142.67 119.023 144.182 117.161 144.182C116.251 144.182 115.551 143.776 115.103 143.104V146.744ZM116.895 142.586C117.917 142.586 118.673 141.732 118.673 140.654C118.673 139.576 117.917 138.708 116.895 138.708C115.859 138.708 115.103 139.576 115.103 140.654C115.103 141.732 115.859 142.586 116.895 142.586ZM128.591 137.112C130.355 137.112 131.811 138.554 131.811 140.654C131.811 142.67 130.453 144.182 128.591 144.182C127.681 144.182 126.981 143.776 126.533 143.104V144H124.825V134.368H126.533V138.246C126.981 137.56 127.681 137.112 128.591 137.112ZM128.325 138.708C127.289 138.708 126.533 139.576 126.533 140.654C126.533 141.732 127.289 142.586 128.325 142.586C129.347 142.586 130.103 141.732 130.103 140.654C130.103 139.576 129.347 138.708 128.325 138.708ZM135.403 144.266L135.459 144.098L132.393 137.294H134.269L136.229 141.914L137.839 137.294H139.561L136.817 144.854C136.299 146.324 135.445 146.926 134.325 146.926C133.611 146.926 132.925 146.632 132.491 146.226L133.261 144.882C133.583 145.19 133.947 145.33 134.339 145.33C134.815 145.33 135.123 145.05 135.403 144.266ZM143.006 138.806V137.294H144.182V135.558H145.904V137.294H147.71V138.806H145.918V141.662C145.918 142.292 146.17 142.586 146.674 142.586C146.996 142.586 147.304 142.446 147.472 142.25L148.228 143.524C147.864 143.888 147.234 144.182 146.408 144.182C145.05 144.182 144.182 143.342 144.182 141.704V138.806H143.006ZM149.366 144V134.368H151.074V138.246C151.424 137.532 152.096 137.112 152.978 137.112C154.518 137.112 155.512 138.19 155.512 139.94V144H153.804V140.192C153.804 139.282 153.286 138.708 152.446 138.708C151.606 138.708 151.074 139.282 151.074 140.192V144H149.366ZM160.528 144.182C158.442 144.182 156.93 142.6 156.93 140.64C156.93 138.694 158.372 137.112 160.304 137.112C162.222 137.112 163.692 138.582 163.692 140.514C163.692 140.738 163.678 141.004 163.65 141.116H158.68C158.862 142.04 159.562 142.684 160.584 142.684C161.27 142.684 161.844 142.39 162.236 141.984L163.118 143.16C162.6 143.734 161.648 144.182 160.528 144.182ZM160.332 138.554C159.52 138.554 158.932 139.114 158.722 139.926H161.928C161.718 139.03 161.116 138.554 160.332 138.554ZM167.454 138.806V137.294H168.546V137.168C168.546 135.32 169.764 134.186 171.822 134.186C173.124 134.186 174.006 134.55 174.636 135.082L173.782 136.426C173.348 136.034 172.62 135.782 171.92 135.782C170.884 135.782 170.268 136.244 170.268 137.21V137.294H174.538V144H172.83V138.806H170.268V144H168.546V138.806H167.454ZM176.436 144V137.294H178.144V138.288C178.466 137.574 179.04 137.112 179.796 137.112C180.244 137.112 180.608 137.224 180.86 137.434L180.16 139.044C179.936 138.876 179.6 138.764 179.264 138.764C178.592 138.764 178.144 139.338 178.144 140.248V144H176.436ZM184.632 144.182C182.546 144.182 181.034 142.6 181.034 140.64C181.034 138.694 182.476 137.112 184.408 137.112C186.326 137.112 187.796 138.582 187.796 140.514C187.796 140.738 187.782 141.004 187.754 141.116H182.784C182.966 142.04 183.666 142.684 184.688 142.684C185.374 142.684 185.948 142.39 186.34 141.984L187.222 143.16C186.704 143.734 185.752 144.182 184.632 144.182ZM184.436 138.554C183.624 138.554 183.036 139.114 182.826 139.926H186.032C185.822 139.03 185.22 138.554 184.436 138.554ZM190.873 146.744H189.165V137.294H190.873V138.246C191.321 137.56 192.021 137.112 192.931 137.112C194.695 137.112 196.151 138.554 196.151 140.654C196.151 142.67 194.793 144.182 192.931 144.182C192.021 144.182 191.321 143.776 190.873 143.104V146.744ZM192.665 142.586C193.687 142.586 194.443 141.732 194.443 140.654C194.443 139.576 193.687 138.708 192.665 138.708C191.629 138.708 190.873 139.576 190.873 140.654C190.873 141.732 191.629 142.586 192.665 142.586ZM200.19 142.516L200.372 144.014C200.12 144.098 199.798 144.154 199.546 144.154C198.58 144.154 197.6 143.538 197.6 141.83V134.368H199.308V141.872C199.308 142.39 199.602 142.586 199.91 142.586C199.994 142.586 200.106 142.558 200.19 142.516ZM204.57 144.182C202.806 144.182 201.364 142.74 201.364 140.64C201.364 138.624 202.722 137.112 204.57 137.112C205.48 137.112 206.18 137.518 206.628 138.176V137.294H208.336V144H206.628V143.048C206.18 143.734 205.48 144.182 204.57 144.182ZM204.85 142.586C205.886 142.586 206.628 141.718 206.628 140.64C206.628 139.562 205.886 138.708 204.85 138.708C203.814 138.708 203.072 139.562 203.072 140.64C203.072 141.718 203.814 142.586 204.85 142.586ZM214.965 139.324C214.531 138.918 214.041 138.708 213.369 138.708C212.249 138.708 211.507 139.562 211.507 140.64C211.507 141.718 212.263 142.586 213.369 142.586C214.041 142.586 214.587 142.348 215.021 141.928L215.889 143.188C215.357 143.776 214.377 144.182 213.327 144.182C211.325 144.182 209.799 142.6 209.799 140.64C209.799 138.694 211.339 137.112 213.299 137.112C214.433 137.112 215.343 137.49 215.945 138.106L214.965 139.324ZM220.001 144.182C217.915 144.182 216.403 142.6 216.403 140.64C216.403 138.694 217.845 137.112 219.777 137.112C221.695 137.112 223.165 138.582 223.165 140.514C223.165 140.738 223.151 141.004 223.123 141.116H218.153C218.335 142.04 219.035 142.684 220.057 142.684C220.743 142.684 221.317 142.39 221.709 141.984L222.591 143.16C222.073 143.734 221.121 144.182 220.001 144.182ZM219.805 138.554C218.993 138.554 218.405 139.114 218.195 139.926H221.401C221.191 139.03 220.589 138.554 219.805 138.554Z" fill="#1355E9"/>
<rect width="230" height="64" transform="translate(33 162)" fill="white"/>
<path d="M50.208 178.844C52.77 178.844 54.856 180.944 54.856 183.534C54.856 186.096 52.77 188.182 50.208 188.182C47.646 188.182 45.56 186.082 45.56 183.52C45.56 180.93 47.646 178.844 50.208 178.844ZM50.208 186.446C51.748 186.446 52.994 185.13 52.994 183.534C52.994 181.91 51.748 180.58 50.208 180.58C48.668 180.58 47.436 181.896 47.436 183.52C47.436 185.13 48.668 186.446 50.208 186.446ZM57.994 181.294V184.92C57.994 185.9 58.554 186.558 59.408 186.558C60.262 186.558 60.836 185.9 60.836 184.92V181.294H62.558V185.046C62.558 186.922 61.298 188.168 59.408 188.168C57.518 188.168 56.286 186.922 56.286 185.046V181.294H57.994ZM63.682 182.806V181.294H64.858V179.558H66.58V181.294H68.386V182.806H66.594V185.662C66.594 186.292 66.846 186.586 67.35 186.586C67.672 186.586 67.98 186.446 68.148 186.25L68.904 187.524C68.54 187.888 67.91 188.182 67.084 188.182C65.726 188.182 64.858 187.342 64.858 185.704V182.806H63.682ZM72.4857 188.182C70.7217 188.182 69.2797 186.74 69.2797 184.64C69.2797 182.624 70.6377 181.112 72.4857 181.112C73.3957 181.112 74.0957 181.518 74.5437 182.176V178.368H76.2517V188H74.5437V187.048C74.0957 187.734 73.3957 188.182 72.4857 188.182ZM72.7657 186.586C73.8017 186.586 74.5437 185.718 74.5437 184.64C74.5437 183.562 73.8017 182.708 72.7657 182.708C71.7297 182.708 70.9877 183.562 70.9877 184.64C70.9877 185.718 71.7297 186.586 72.7657 186.586ZM81.2013 188.182C79.2553 188.182 77.7153 186.6 77.7153 184.64C77.7153 182.694 79.2553 181.112 81.2013 181.112C83.1473 181.112 84.6873 182.694 84.6873 184.64C84.6873 186.6 83.1473 188.182 81.2013 188.182ZM81.2013 186.586C82.2373 186.586 82.9793 185.718 82.9793 184.64C82.9793 183.562 82.2373 182.708 81.2013 182.708C80.1653 182.708 79.4233 183.562 79.4233 184.64C79.4233 185.718 80.1653 186.586 81.2013 186.586ZM89.213 188.182C87.267 188.182 85.727 186.6 85.727 184.64C85.727 182.694 87.267 181.112 89.213 181.112C91.159 181.112 92.699 182.694 92.699 184.64C92.699 186.6 91.159 188.182 89.213 188.182ZM89.213 186.586C90.249 186.586 90.991 185.718 90.991 184.64C90.991 183.562 90.249 182.708 89.213 182.708C88.177 182.708 87.435 183.562 87.435 184.64C87.435 185.718 88.177 186.586 89.213 186.586ZM94.1727 188V181.294H95.8807V182.288C96.2027 181.574 96.7767 181.112 97.5327 181.112C97.9807 181.112 98.3447 181.224 98.5967 181.434L97.8967 183.044C97.6727 182.876 97.3367 182.764 97.0007 182.764C96.3287 182.764 95.8807 183.338 95.8807 184.248V188H94.1727ZM101.481 188.182C100.403 188.182 99.5207 187.902 98.8627 187.538L99.4087 186.222C100.179 186.586 100.823 186.782 101.565 186.782C102.321 186.782 102.671 186.516 102.671 186.124C102.671 184.92 99.0587 185.634 99.0587 183.1C99.0587 182.092 99.9547 181.112 101.677 181.112C102.615 181.112 103.329 181.308 104.183 181.714L103.553 182.988C103.077 182.722 102.363 182.512 101.817 182.512C101.173 182.512 100.781 182.722 100.781 183.086C100.781 184.318 104.365 183.548 104.365 186.096C104.365 187.258 103.329 188.182 101.481 188.182ZM108.831 188V179.026H110.581V188H108.831ZM112.575 188V181.294H114.283V182.246C114.633 181.532 115.305 181.112 116.187 181.112C117.727 181.112 118.721 182.19 118.721 183.94V188H117.013V184.192C117.013 183.282 116.495 182.708 115.655 182.708C114.815 182.708 114.283 183.282 114.283 184.192V188H112.575ZM125.275 188H123.567V181.294H125.275V182.316C125.625 181.588 126.283 181.112 127.165 181.112C128.187 181.112 128.971 181.616 129.363 182.512C129.713 181.714 130.357 181.112 131.421 181.112C132.975 181.112 133.997 182.148 133.997 183.94V188H132.275V184.192C132.275 183.282 131.771 182.708 130.959 182.708C130.147 182.708 129.629 183.282 129.629 184.192V188H127.921V184.192C127.921 183.282 127.417 182.708 126.605 182.708C125.793 182.708 125.275 183.282 125.275 184.192V188ZM137.877 188.266L137.933 188.098L134.867 181.294H136.743L138.703 185.914L140.313 181.294H142.035L139.291 188.854C138.773 190.324 137.919 190.926 136.799 190.926C136.085 190.926 135.399 190.632 134.965 190.226L135.735 188.882C136.057 189.19 136.421 189.33 136.813 189.33C137.289 189.33 137.597 189.05 137.877 188.266ZM147.091 188.714C147.427 188.966 148.085 189.372 149.037 189.372C150.185 189.372 150.899 188.756 150.899 187.608V186.81C150.451 187.482 149.765 187.902 148.855 187.902C147.133 187.902 145.733 186.516 145.733 184.5C145.733 182.554 147.133 181.154 148.855 181.154C149.765 181.154 150.451 181.518 150.899 182.148V181.294H152.607V187.524C152.607 190.184 150.787 190.926 149.135 190.926C147.903 190.926 146.867 190.618 146.223 190.044L147.091 188.714ZM149.177 186.292C150.171 186.292 150.899 185.494 150.899 184.5C150.899 183.506 150.171 182.708 149.177 182.708C148.183 182.708 147.441 183.506 147.441 184.5C147.441 185.508 148.183 186.292 149.177 186.292ZM157.279 188.182C155.515 188.182 154.073 186.74 154.073 184.64C154.073 182.624 155.431 181.112 157.279 181.112C158.189 181.112 158.889 181.518 159.337 182.176V181.294H161.045V188H159.337V187.048C158.889 187.734 158.189 188.182 157.279 188.182ZM157.559 186.586C158.595 186.586 159.337 185.718 159.337 184.64C159.337 183.562 158.595 182.708 157.559 182.708C156.523 182.708 155.781 183.562 155.781 184.64C155.781 185.718 156.523 186.586 157.559 186.586ZM162.942 188V181.294H164.65V182.288C164.972 181.574 165.546 181.112 166.302 181.112C166.75 181.112 167.114 181.224 167.366 181.434L166.666 183.044C166.442 182.876 166.106 182.764 165.77 182.764C165.098 182.764 164.65 183.338 164.65 184.248V188H162.942ZM170.745 188.182C168.981 188.182 167.539 186.74 167.539 184.64C167.539 182.624 168.897 181.112 170.745 181.112C171.655 181.112 172.355 181.518 172.803 182.176V178.368H174.511V188H172.803V187.048C172.355 187.734 171.655 188.182 170.745 188.182ZM171.025 186.586C172.061 186.586 172.803 185.718 172.803 184.64C172.803 183.562 172.061 182.708 171.025 182.708C169.989 182.708 169.247 183.562 169.247 184.64C169.247 185.718 169.989 186.586 171.025 186.586ZM179.573 188.182C177.487 188.182 175.975 186.6 175.975 184.64C175.975 182.694 177.417 181.112 179.349 181.112C181.267 181.112 182.737 182.582 182.737 184.514C182.737 184.738 182.723 185.004 182.695 185.116H177.725C177.907 186.04 178.607 186.684 179.629 186.684C180.315 186.684 180.889 186.39 181.281 185.984L182.163 187.16C181.645 187.734 180.693 188.182 179.573 188.182ZM179.377 182.554C178.565 182.554 177.977 183.114 177.767 183.926H180.973C180.763 183.03 180.161 182.554 179.377 182.554ZM184.106 188V181.294H185.814V182.246C186.164 181.532 186.836 181.112 187.718 181.112C189.258 181.112 190.252 182.19 190.252 183.94V188H188.544V184.192C188.544 183.282 188.026 182.708 187.186 182.708C186.346 182.708 185.814 183.282 185.814 184.192V188H184.106ZM195.098 188V181.294H196.806V182.246C197.156 181.532 197.828 181.112 198.71 181.112C200.25 181.112 201.244 182.19 201.244 183.94V188H199.536V184.192C199.536 183.282 199.018 182.708 198.178 182.708C197.338 182.708 196.806 183.282 196.806 184.192V188H195.098ZM206.261 188.182C204.175 188.182 202.663 186.6 202.663 184.64C202.663 182.694 204.105 181.112 206.037 181.112C207.955 181.112 209.425 182.582 209.425 184.514C209.425 184.738 209.411 185.004 209.383 185.116H204.413C204.595 186.04 205.295 186.684 206.317 186.684C207.003 186.684 207.577 186.39 207.969 185.984L208.851 187.16C208.333 187.734 207.381 188.182 206.261 188.182ZM206.065 182.554C205.253 182.554 204.665 183.114 204.455 183.926H207.661C207.451 183.03 206.849 182.554 206.065 182.554ZM209.545 188L212.079 184.626L209.629 181.294H211.757L213.213 183.268L214.697 181.294H216.615L214.165 184.556L216.699 188H214.571L213.031 185.914L211.449 188H209.545ZM217.149 182.806V181.294H218.325V179.558H220.047V181.294H221.853V182.806H220.061V185.662C220.061 186.292 220.313 186.586 220.817 186.586C221.139 186.586 221.447 186.446 221.615 186.25L222.371 187.524C222.007 187.888 221.377 188.182 220.551 188.182C219.193 188.182 218.325 187.342 218.325 185.704V182.806H217.149ZM225.817 182.806V181.294H226.993V179.558H228.715V181.294H230.521V182.806H228.729V185.662C228.729 186.292 228.981 186.586 229.485 186.586C229.807 186.586 230.115 186.446 230.283 186.25L231.039 187.524C230.675 187.888 230.045 188.182 229.219 188.182C227.861 188.182 226.993 187.342 226.993 185.704V182.806H225.817ZM234.9 188.182C232.954 188.182 231.414 186.6 231.414 184.64C231.414 182.694 232.954 181.112 234.9 181.112C236.846 181.112 238.386 182.694 238.386 184.64C238.386 186.6 236.846 188.182 234.9 188.182ZM234.9 186.586C235.936 186.586 236.678 185.718 236.678 184.64C236.678 183.562 235.936 182.708 234.9 182.708C233.864 182.708 233.122 183.562 233.122 184.64C233.122 185.718 233.864 186.586 234.9 186.586ZM45.266 202.806V201.294H46.442V199.558H48.164V201.294H49.97V202.806H48.178V205.662C48.178 206.292 48.43 206.586 48.934 206.586C49.256 206.586 49.564 206.446 49.732 206.25L50.488 207.524C50.124 207.888 49.494 208.182 48.668 208.182C47.31 208.182 46.442 207.342 46.442 205.704V202.806H45.266ZM51.6258 208V198.368H53.3338V202.246C53.6838 201.532 54.3558 201.112 55.2378 201.112C56.7778 201.112 57.7718 202.19 57.7718 203.94V208H56.0638V204.192C56.0638 203.282 55.5458 202.708 54.7058 202.708C53.8658 202.708 53.3338 203.282 53.3338 204.192V208H51.6258ZM62.7879 208.182C60.7019 208.182 59.1899 206.6 59.1899 204.64C59.1899 202.694 60.6319 201.112 62.5639 201.112C64.4819 201.112 65.9519 202.582 65.9519 204.514C65.9519 204.738 65.9379 205.004 65.9099 205.116H60.9399C61.1219 206.04 61.8219 206.684 62.8439 206.684C63.5299 206.684 64.1039 206.39 64.4959 205.984L65.3779 207.16C64.8599 207.734 63.9079 208.182 62.7879 208.182ZM62.5919 202.554C61.7799 202.554 61.1919 203.114 60.9819 203.926H64.1879C63.9779 203.03 63.3759 202.554 62.5919 202.554ZM69.7133 202.806V201.294H70.8053V201.154C70.8053 199.278 72.0093 198.186 73.6753 198.186C74.2773 198.186 74.8093 198.27 75.2433 198.438H76.7973V208H75.0893V200.118C74.8233 199.936 74.3893 199.782 73.8433 199.782C73.1013 199.782 72.5273 200.258 72.5273 201.14V201.294H73.9693V202.806H72.5273V208H70.8053V202.806H69.7133ZM81.7481 208.182C79.8021 208.182 78.2621 206.6 78.2621 204.64C78.2621 202.694 79.8021 201.112 81.7481 201.112C83.6941 201.112 85.2341 202.694 85.2341 204.64C85.2341 206.6 83.6941 208.182 81.7481 208.182ZM81.7481 206.586C82.7841 206.586 83.5261 205.718 83.5261 204.64C83.5261 203.562 82.7841 202.708 81.7481 202.708C80.7121 202.708 79.9701 203.562 79.9701 204.64C79.9701 205.718 80.7121 206.586 81.7481 206.586ZM89.7114 208H87.7794L85.7074 201.294H87.5414L88.7874 206.124L90.1454 201.294H91.9934L93.3794 206.152L94.6534 201.294H96.4874L94.4154 208H92.2874L90.9854 203.45L89.7114 208ZM100.55 208.182C98.4636 208.182 96.9516 206.6 96.9516 204.64C96.9516 202.694 98.3936 201.112 100.326 201.112C102.244 201.112 103.714 202.582 103.714 204.514C103.714 204.738 103.7 205.004 103.672 205.116H98.7016C98.8836 206.04 99.5836 206.684 100.606 206.684C101.292 206.684 101.866 206.39 102.258 205.984L103.14 207.16C102.622 207.734 101.67 208.182 100.55 208.182ZM100.354 202.554C99.5416 202.554 98.9536 203.114 98.7436 203.926H101.95C101.74 203.03 101.138 202.554 100.354 202.554ZM105.083 208V201.294H106.791V202.288C107.113 201.574 107.687 201.112 108.443 201.112C108.891 201.112 109.255 201.224 109.507 201.434L108.807 203.044C108.583 202.876 108.247 202.764 107.911 202.764C107.239 202.764 106.791 203.338 106.791 204.248V208H105.083ZM112.391 208.182C111.313 208.182 110.431 207.902 109.773 207.538L110.319 206.222C111.089 206.586 111.733 206.782 112.475 206.782C113.231 206.782 113.581 206.516 113.581 206.124C113.581 204.92 109.969 205.634 109.969 203.1C109.969 202.092 110.865 201.112 112.587 201.112C113.525 201.112 114.239 201.308 115.093 201.714L114.463 202.988C113.987 202.722 113.273 202.512 112.727 202.512C112.083 202.512 111.691 202.722 111.691 203.086C111.691 204.318 115.275 203.548 115.275 206.096C115.275 207.258 114.239 208.182 112.391 208.182Z" fill="black"/>
</g>
<rect x="32.5" y="73.5" width="231" height="153" rx="8.5" stroke="#EBEBEB"/>
</g>
<defs>
<filter id="filter0_d_37_7485" x="0" y="57" width="296" height="218" filterUnits="userSpaceOnUse" color-interpolation-filters="sRGB">
<feFlood flood-opacity="0" result="BackgroundImageFix"/>
<feColorMatrix in="SourceAlpha" type="matrix" values="0 0 0 0 0 0 0 0 0 0 0 0 0 0 0 0 0 0 127 0" result="hardAlpha"/>
<feOffset dy="16"/>
<feGaussianBlur stdDeviation="16"/>
<feComposite in2="hardAlpha" operator="out"/>
<feColorMatrix type="matrix" values="0 0 0 0 0 0 0 0 0 0 0 0 0 0 0 0 0 0 0.1 0"/>
<feBlend mode="normal" in2="BackgroundImageFix" result="effect1_dropShadow_37_7485"/>
<feBlend mode="normal" in="SourceGraphic" in2="effect1_dropShadow_37_7485" result="shape"/>
</filter>
<clipPath id="clip0_37_7485">
<rect x="33" y="74" width="230" height="152" rx="8" fill="white"/>
</clipPath>
</defs>
</svg>
