<svg width="296" height="255" viewBox="0 0 296 255" fill="none" xmlns="http://www.w3.org/2000/svg">
<path d="M38.208 5.844C40.77 5.844 42.856 7.944 42.856 10.534C42.856 13.096 40.77 15.182 38.208 15.182C35.646 15.182 33.56 13.082 33.56 10.52C33.56 7.93 35.646 5.844 38.208 5.844ZM38.208 13.446C39.748 13.446 40.994 12.13 40.994 10.534C40.994 8.91 39.748 7.58 38.208 7.58C36.668 7.58 35.436 8.896 35.436 10.52C35.436 12.13 36.668 13.446 38.208 13.446ZM43.768 9.806V8.294H44.86V7.902C44.86 6.208 45.826 5.186 47.324 5.186C48.234 5.186 48.822 5.438 49.256 5.872L48.416 7.16C48.22 6.95 47.856 6.782 47.492 6.782C46.932 6.782 46.582 7.16 46.582 7.888V8.294H48.318V9.806H46.582V15H44.86V9.806H43.768ZM49.1273 9.806V8.294H50.2193V8.168C50.2193 6.32 51.4373 5.186 53.4953 5.186C54.7973 5.186 55.6793 5.55 56.3093 6.082L55.4553 7.426C55.0213 7.034 54.2933 6.782 53.5933 6.782C52.5573 6.782 51.9413 7.244 51.9413 8.21V8.294H56.2113V15H54.5033V9.806H51.9413V15H50.2193V9.806H49.1273ZM62.8422 10.324C62.4082 9.918 61.9182 9.708 61.2462 9.708C60.1262 9.708 59.3842 10.562 59.3842 11.64C59.3842 12.718 60.1402 13.586 61.2462 13.586C61.9182 13.586 62.4642 13.348 62.8982 12.928L63.7662 14.188C63.2342 14.776 62.2542 15.182 61.2042 15.182C59.2022 15.182 57.6762 13.6 57.6762 11.64C57.6762 9.694 59.2162 8.112 61.1762 8.112C62.3102 8.112 63.2202 8.49 63.8222 9.106L62.8422 10.324ZM67.8777 15.182C65.7917 15.182 64.2797 13.6 64.2797 11.64C64.2797 9.694 65.7217 8.112 67.6537 8.112C69.5717 8.112 71.0417 9.582 71.0417 11.514C71.0417 11.738 71.0277 12.004 70.9997 12.116H66.0297C66.2117 13.04 66.9117 13.684 67.9337 13.684C68.6197 13.684 69.1937 13.39 69.5857 12.984L70.4677 14.16C69.9497 14.734 68.9977 15.182 67.8777 15.182ZM67.6817 9.554C66.8697 9.554 66.2817 10.114 66.0717 10.926H69.2777C69.0677 10.03 68.4657 9.554 67.6817 9.554ZM75.4751 15V6.026H78.6811C80.8511 6.026 82.2791 7.202 82.2791 8.994C82.2791 10.8 80.8371 11.99 78.6531 11.99H77.2251V15H75.4751ZM78.8211 7.58H77.2251V10.436H78.8211C79.7871 10.436 80.4311 9.862 80.4311 8.994C80.4311 8.14 79.7871 7.58 78.8211 7.58ZM83.6493 15V8.294H85.3573V9.288C85.6793 8.574 86.2533 8.112 87.0093 8.112C87.4573 8.112 87.8213 8.224 88.0733 8.434L87.3733 10.044C87.1493 9.876 86.8133 9.764 86.4773 9.764C85.8053 9.764 85.3573 10.338 85.3573 11.248V15H83.6493ZM91.8445 15.182C89.7585 15.182 88.2465 13.6 88.2465 11.64C88.2465 9.694 89.6885 8.112 91.6205 8.112C93.5385 8.112 95.0085 9.582 95.0085 11.514C95.0085 11.738 94.9945 12.004 94.9665 12.116H89.9965C90.1785 13.04 90.8785 13.684 91.9005 13.684C92.5865 13.684 93.1605 13.39 93.5525 12.984L94.4345 14.16C93.9165 14.734 92.9645 15.182 91.8445 15.182ZM91.6485 9.554C90.8365 9.554 90.2485 10.114 90.0385 10.926H93.2445C93.0345 10.03 92.4325 9.554 91.6485 9.554ZM95.7758 9.806V8.294H96.8678V7.902C96.8678 6.208 97.8338 5.186 99.3318 5.186C100.242 5.186 100.83 5.438 101.264 5.872L100.424 7.16C100.228 6.95 99.8638 6.782 99.4998 6.782C98.9398 6.782 98.5898 7.16 98.5898 7.888V8.294H100.326V9.806H98.5898V15H96.8678V9.806H95.7758ZM104.382 15.182C102.296 15.182 100.784 13.6 100.784 11.64C100.784 9.694 102.226 8.112 104.158 8.112C106.076 8.112 107.546 9.582 107.546 11.514C107.546 11.738 107.532 12.004 107.504 12.116H102.534C102.716 13.04 103.416 13.684 104.438 13.684C105.124 13.684 105.698 13.39 106.09 12.984L106.972 14.16C106.454 14.734 105.502 15.182 104.382 15.182ZM104.186 9.554C103.374 9.554 102.786 10.114 102.576 10.926H105.782C105.572 10.03 104.97 9.554 104.186 9.554ZM108.915 15V8.294H110.623V9.288C110.945 8.574 111.519 8.112 112.275 8.112C112.723 8.112 113.087 8.224 113.339 8.434L112.639 10.044C112.415 9.876 112.079 9.764 111.743 9.764C111.071 9.764 110.623 10.338 110.623 11.248V15H108.915ZM117.11 15.182C115.024 15.182 113.512 13.6 113.512 11.64C113.512 9.694 114.954 8.112 116.886 8.112C118.804 8.112 120.274 9.582 120.274 11.514C120.274 11.738 120.26 12.004 120.232 12.116H115.262C115.444 13.04 116.144 13.684 117.166 13.684C117.852 13.684 118.426 13.39 118.818 12.984L119.7 14.16C119.182 14.734 118.23 15.182 117.11 15.182ZM116.914 9.554C116.102 9.554 115.514 10.114 115.304 10.926H118.51C118.3 10.03 117.698 9.554 116.914 9.554ZM121.643 15V8.294H123.351V9.246C123.701 8.532 124.373 8.112 125.255 8.112C126.795 8.112 127.789 9.19 127.789 10.94V15H126.081V11.192C126.081 10.282 125.563 9.708 124.723 9.708C123.883 9.708 123.351 10.282 123.351 11.192V15H121.643ZM134.373 10.324C133.939 9.918 133.449 9.708 132.777 9.708C131.657 9.708 130.915 10.562 130.915 11.64C130.915 12.718 131.671 13.586 132.777 13.586C133.449 13.586 133.995 13.348 134.429 12.928L135.297 14.188C134.765 14.776 133.785 15.182 132.735 15.182C130.733 15.182 129.207 13.6 129.207 11.64C129.207 9.694 130.747 8.112 132.707 8.112C133.841 8.112 134.751 8.49 135.353 9.106L134.373 10.324ZM139.409 15.182C137.323 15.182 135.811 13.6 135.811 11.64C135.811 9.694 137.253 8.112 139.185 8.112C141.103 8.112 142.573 9.582 142.573 11.514C142.573 11.738 142.559 12.004 142.531 12.116H137.561C137.743 13.04 138.443 13.684 139.465 13.684C140.151 13.684 140.725 13.39 141.117 12.984L141.999 14.16C141.481 14.734 140.529 15.182 139.409 15.182ZM139.213 9.554C138.401 9.554 137.813 10.114 137.603 10.926H140.809C140.599 10.03 139.997 9.554 139.213 9.554Z" fill="black"/>
<path fill-rule="evenodd" clip-rule="evenodd" d="M147 11C147 6.58854 150.589 3 155 3C159.411 3 163 6.58854 163 11C163 15.4115 159.411 19 155 19C150.589 19 147 15.4115 147 11ZM161.769 11C161.769 7.25312 158.747 4.23077 155 4.23077C151.253 4.23077 148.231 7.25312 148.231 11C148.231 14.7469 151.253 17.7692 155 17.7692C158.747 17.7692 161.769 14.7469 161.769 11ZM155.923 14.3846C155.923 14.8944 155.51 15.3077 155 15.3077C154.49 15.3077 154.077 14.8944 154.077 14.3846C154.077 13.8748 154.49 13.4615 155 13.4615C155.51 13.4615 155.923 13.8748 155.923 14.3846ZM152.231 9.42735C152.231 7.92361 153.477 6.69231 155 6.69231C156.523 6.69231 157.769 7.92361 157.769 9.42735C157.769 10.5358 157.039 11.5347 155.974 11.8846L155.692 11.9701V12.8462H154.308V11.9701C154.308 11.3851 154.694 10.851 155.26 10.6667L155.541 10.5812C156.044 10.4156 156.385 9.95086 156.385 9.42735C156.385 8.66346 155.773 8.05983 155 8.05983C154.227 8.05983 153.615 8.66346 153.615 9.42735H152.231Z" fill="#1355E9"/>
<rect x="34" y="27" width="228" height="42" rx="7" fill="white"/>
<rect x="34" y="27" width="228" height="42" rx="7" stroke="#D6D6D6" stroke-width="2"/>
<path d="M47.072 52.014C46.652 51.902 46.12 51.636 45.434 51.188L46.19 49.718C46.946 50.194 48.038 50.53 48.92 50.53C49.802 50.53 50.46 50.208 50.46 49.494C50.46 47.898 45.742 48.654 45.742 45.476C45.742 43.81 47.268 42.83 49.088 42.83C50.222 42.83 51.286 43.138 52.112 43.768L51.258 45.154C50.684 44.776 49.788 44.468 49.004 44.468C48.192 44.468 47.618 44.846 47.618 45.434C47.618 47.072 52.322 46.344 52.322 49.396C52.322 51.244 50.698 52.182 48.794 52.182C48.052 52.182 47.478 52.126 47.072 52.014ZM56.8953 52.182C54.8093 52.182 53.2973 50.6 53.2973 48.64C53.2973 46.694 54.7393 45.112 56.6713 45.112C58.5893 45.112 60.0593 46.582 60.0593 48.514C60.0593 48.738 60.0453 49.004 60.0173 49.116H55.0473C55.2293 50.04 55.9293 50.684 56.9513 50.684C57.6373 50.684 58.2113 50.39 58.6033 49.984L59.4853 51.16C58.9673 51.734 58.0153 52.182 56.8953 52.182ZM56.6993 46.554C55.8873 46.554 55.2993 47.114 55.0893 47.926H58.2953C58.0853 47.03 57.4833 46.554 56.6993 46.554ZM64.0186 50.516L64.2006 52.014C63.9486 52.098 63.6266 52.154 63.3746 52.154C62.4086 52.154 61.4286 51.538 61.4286 49.83V42.368H63.1366V49.872C63.1366 50.39 63.4306 50.586 63.7386 50.586C63.8226 50.586 63.9346 50.558 64.0186 50.516ZM68.7898 52.182C66.7038 52.182 65.1918 50.6 65.1918 48.64C65.1918 46.694 66.6338 45.112 68.5658 45.112C70.4838 45.112 71.9538 46.582 71.9538 48.514C71.9538 48.738 71.9398 49.004 71.9118 49.116H66.9418C67.1238 50.04 67.8238 50.684 68.8458 50.684C69.5318 50.684 70.1058 50.39 70.4978 49.984L71.3798 51.16C70.8618 51.734 69.9098 52.182 68.7898 52.182ZM68.5938 46.554C67.7818 46.554 67.1938 47.114 66.9838 47.926H70.1898C69.9798 47.03 69.3778 46.554 68.5938 46.554ZM78.0551 47.324C77.6211 46.918 77.1311 46.708 76.4591 46.708C75.3391 46.708 74.5971 47.562 74.5971 48.64C74.5971 49.718 75.3531 50.586 76.4591 50.586C77.1311 50.586 77.6771 50.348 78.1111 49.928L78.9791 51.188C78.4471 51.776 77.4671 52.182 76.4171 52.182C74.4151 52.182 72.8891 50.6 72.8891 48.64C72.8891 46.694 74.4291 45.112 76.3891 45.112C77.5231 45.112 78.4331 45.49 79.0351 46.106L78.0551 47.324ZM79.473 46.806V45.294H80.649V43.558H82.371V45.294H84.177V46.806H82.385V49.662C82.385 50.292 82.637 50.586 83.141 50.586C83.463 50.586 83.771 50.446 83.939 50.25L84.695 51.524C84.331 51.888 83.701 52.182 82.875 52.182C81.517 52.182 80.649 51.342 80.649 49.704V46.806H79.473ZM88.897 52V43.026H90.647V50.348H95.029V52H88.897ZM98.961 52.182C97.015 52.182 95.475 50.6 95.475 48.64C95.475 46.694 97.015 45.112 98.961 45.112C100.907 45.112 102.447 46.694 102.447 48.64C102.447 50.6 100.907 52.182 98.961 52.182ZM98.961 50.586C99.997 50.586 100.739 49.718 100.739 48.64C100.739 47.562 99.997 46.708 98.961 46.708C97.925 46.708 97.183 47.562 97.183 48.64C97.183 49.718 97.925 50.586 98.961 50.586ZM108.653 47.324C108.219 46.918 107.729 46.708 107.057 46.708C105.937 46.708 105.195 47.562 105.195 48.64C105.195 49.718 105.951 50.586 107.057 50.586C107.729 50.586 108.275 50.348 108.709 49.928L109.577 51.188C109.045 51.776 108.065 52.182 107.015 52.182C105.013 52.182 103.487 50.6 103.487 48.64C103.487 46.694 105.027 45.112 106.987 45.112C108.121 45.112 109.031 45.49 109.633 46.106L108.653 47.324ZM113.296 52.182C111.532 52.182 110.09 50.74 110.09 48.64C110.09 46.624 111.448 45.112 113.296 45.112C114.206 45.112 114.906 45.518 115.354 46.176V45.294H117.062V52H115.354V51.048C114.906 51.734 114.206 52.182 113.296 52.182ZM113.576 50.586C114.612 50.586 115.354 49.718 115.354 48.64C115.354 47.562 114.612 46.708 113.576 46.708C112.54 46.708 111.798 47.562 111.798 48.64C111.798 49.718 112.54 50.586 113.576 50.586ZM118.274 46.806V45.294H119.45V43.558H121.172V45.294H122.978V46.806H121.186V49.662C121.186 50.292 121.438 50.586 121.942 50.586C122.264 50.586 122.572 50.446 122.74 50.25L123.496 51.524C123.132 51.888 122.502 52.182 121.676 52.182C120.318 52.182 119.45 51.342 119.45 49.704V46.806H118.274ZM125.488 44.398C124.928 44.398 124.494 43.95 124.494 43.39C124.494 42.844 124.928 42.396 125.488 42.396C126.034 42.396 126.496 42.844 126.496 43.39C126.496 43.95 126.034 44.398 125.488 44.398ZM126.342 52H124.634V45.294H126.342V52ZM131.309 52.182C129.363 52.182 127.823 50.6 127.823 48.64C127.823 46.694 129.363 45.112 131.309 45.112C133.255 45.112 134.795 46.694 134.795 48.64C134.795 50.6 133.255 52.182 131.309 52.182ZM131.309 50.586C132.345 50.586 133.087 49.718 133.087 48.64C133.087 47.562 132.345 46.708 131.309 46.708C130.273 46.708 129.531 47.562 129.531 48.64C129.531 49.718 130.273 50.586 131.309 50.586ZM136.268 52V45.294H137.976V46.246C138.326 45.532 138.998 45.112 139.88 45.112C141.42 45.112 142.414 46.19 142.414 47.94V52H140.706V48.192C140.706 47.282 140.188 46.708 139.348 46.708C138.508 46.708 137.976 47.282 137.976 48.192V52H136.268Z" fill="black"/>
<path d="M245 51L240 45.9524L241 45L245 49.2857L249 45L250 45.9524L245 51Z" fill="black"/>
<g filter="url(#filter0_d_37_7476)">
<g clip-path="url(#clip0_37_7476)">
<rect x="33" y="74" width="230" height="132" rx="8" fill="white"/>
<rect width="230" height="44" transform="translate(33 74)" fill="white"/>
<path d="M52.056 100V96.234H47.772V100H46.022V91.026H47.772V94.596H52.056V91.026H53.806V100H52.056ZM58.8341 100.182C56.8881 100.182 55.3481 98.6 55.3481 96.64C55.3481 94.694 56.8881 93.112 58.8341 93.112C60.7801 93.112 62.3201 94.694 62.3201 96.64C62.3201 98.6 60.7801 100.182 58.8341 100.182ZM58.8341 98.586C59.8701 98.586 60.6121 97.718 60.6121 96.64C60.6121 95.562 59.8701 94.708 58.8341 94.708C57.7981 94.708 57.0561 95.562 57.0561 96.64C57.0561 97.718 57.7981 98.586 58.8341 98.586ZM65.5018 100H63.7938V93.294H65.5018V94.316C65.8518 93.588 66.5098 93.112 67.3918 93.112C68.4138 93.112 69.1978 93.616 69.5898 94.512C69.9398 93.714 70.5838 93.112 71.6478 93.112C73.2018 93.112 74.2238 94.148 74.2238 95.94V100H72.5018V96.192C72.5018 95.282 71.9978 94.708 71.1858 94.708C70.3738 94.708 69.8558 95.282 69.8558 96.192V100H68.1478V96.192C68.1478 95.282 67.6438 94.708 66.8318 94.708C66.0198 94.708 65.5018 95.282 65.5018 96.192V100ZM79.2215 100.182C77.1355 100.182 75.6235 98.6 75.6235 96.64C75.6235 94.694 77.0655 93.112 78.9975 93.112C80.9155 93.112 82.3855 94.582 82.3855 96.514C82.3855 96.738 82.3715 97.004 82.3435 97.116H77.3735C77.5555 98.04 78.2555 98.684 79.2775 98.684C79.9635 98.684 80.5375 98.39 80.9295 97.984L81.8115 99.16C81.2935 99.734 80.3415 100.182 79.2215 100.182ZM79.0255 94.554C78.2135 94.554 77.6255 95.114 77.4155 95.926H80.6215C80.4115 95.03 79.8095 94.554 79.0255 94.554Z" fill="black"/>
<rect width="230" height="44" transform="translate(33 118)" fill="#EBEBEB"/>
<path d="M53.484 136.062L52.322 137.406C51.804 136.93 51.076 136.58 50.18 136.58C48.654 136.58 47.436 137.896 47.436 139.52C47.436 141.13 48.654 142.446 50.292 142.446C51.062 142.446 51.832 142.152 52.336 141.634L53.484 142.922C52.7 143.79 51.622 144.182 50.18 144.182C47.562 144.182 45.56 142.082 45.56 139.52C45.56 136.93 47.632 134.844 50.166 134.844C51.678 134.844 52.742 135.306 53.484 136.062ZM57.4942 144.182C55.5482 144.182 54.0082 142.6 54.0082 140.64C54.0082 138.694 55.5482 137.112 57.4942 137.112C59.4402 137.112 60.9802 138.694 60.9802 140.64C60.9802 142.6 59.4402 144.182 57.4942 144.182ZM57.4942 142.586C58.5302 142.586 59.2722 141.718 59.2722 140.64C59.2722 139.562 58.5302 138.708 57.4942 138.708C56.4582 138.708 55.7162 139.562 55.7162 140.64C55.7162 141.718 56.4582 142.586 57.4942 142.586ZM61.852 138.806V137.294H62.944V136.902C62.944 135.208 63.91 134.186 65.408 134.186C66.318 134.186 66.906 134.438 67.34 134.872L66.5 136.16C66.304 135.95 65.94 135.782 65.576 135.782C65.016 135.782 64.666 136.16 64.666 136.888V137.294H66.402V138.806H64.666V144H62.944V138.806H61.852ZM67.2113 138.806V137.294H68.3033V136.902C68.3033 135.208 69.2693 134.186 70.7673 134.186C71.6773 134.186 72.2653 134.438 72.6993 134.872L71.8593 136.16C71.6633 135.95 71.2993 135.782 70.9353 135.782C70.3753 135.782 70.0253 136.16 70.0253 136.888V137.294H71.7613V138.806H70.0253V144H68.3033V138.806H67.2113ZM75.8172 144.182C73.7312 144.182 72.2192 142.6 72.2192 140.64C72.2192 138.694 73.6612 137.112 75.5932 137.112C77.5112 137.112 78.9812 138.582 78.9812 140.514C78.9812 140.738 78.9672 141.004 78.9392 141.116H73.9692C74.1512 142.04 74.8512 142.684 75.8732 142.684C76.5592 142.684 77.1332 142.39 77.5252 141.984L78.4072 143.16C77.8892 143.734 76.9372 144.182 75.8172 144.182ZM75.6212 138.554C74.8092 138.554 74.2212 139.114 74.0112 139.926H77.2172C77.0072 139.03 76.4052 138.554 75.6212 138.554ZM83.5144 144.182C81.4284 144.182 79.9164 142.6 79.9164 140.64C79.9164 138.694 81.3584 137.112 83.2904 137.112C85.2084 137.112 86.6784 138.582 86.6784 140.514C86.6784 140.738 86.6644 141.004 86.6364 141.116H81.6664C81.8484 142.04 82.5484 142.684 83.5704 142.684C84.2564 142.684 84.8304 142.39 85.2224 141.984L86.1044 143.16C85.5864 143.734 84.6344 144.182 83.5144 144.182ZM83.3184 138.554C82.5064 138.554 81.9184 139.114 81.7084 139.926H84.9144C84.7044 139.03 84.1024 138.554 83.3184 138.554ZM93.0998 144.182C92.0218 144.182 91.1398 143.902 90.4818 143.538L91.0278 142.222C91.7978 142.586 92.4418 142.782 93.1838 142.782C93.9398 142.782 94.2898 142.516 94.2898 142.124C94.2898 140.92 90.6778 141.634 90.6778 139.1C90.6778 138.092 91.5738 137.112 93.2958 137.112C94.2338 137.112 94.9478 137.308 95.8018 137.714L95.1718 138.988C94.6958 138.722 93.9818 138.512 93.4358 138.512C92.7918 138.512 92.3998 138.722 92.3998 139.086C92.3998 140.318 95.9838 139.548 95.9838 142.096C95.9838 143.258 94.9478 144.182 93.0998 144.182ZM97.3856 144V134.368H99.0936V138.246C99.4436 137.532 100.116 137.112 100.998 137.112C102.538 137.112 103.532 138.19 103.532 139.94V144H101.824V140.192C101.824 139.282 101.306 138.708 100.466 138.708C99.6256 138.708 99.0936 139.282 99.0936 140.192V144H97.3856ZM108.436 144.182C106.49 144.182 104.95 142.6 104.95 140.64C104.95 138.694 106.49 137.112 108.436 137.112C110.382 137.112 111.922 138.694 111.922 140.64C111.922 142.6 110.382 144.182 108.436 144.182ZM108.436 142.586C109.472 142.586 110.214 141.718 110.214 140.64C110.214 139.562 109.472 138.708 108.436 138.708C107.4 138.708 106.658 139.562 106.658 140.64C106.658 141.718 107.4 142.586 108.436 142.586ZM115.103 146.744H113.395V137.294H115.103V138.246C115.551 137.56 116.251 137.112 117.161 137.112C118.925 137.112 120.381 138.554 120.381 140.654C120.381 142.67 119.023 144.182 117.161 144.182C116.251 144.182 115.551 143.776 115.103 143.104V146.744ZM116.895 142.586C117.917 142.586 118.673 141.732 118.673 140.654C118.673 139.576 117.917 138.708 116.895 138.708C115.859 138.708 115.103 139.576 115.103 140.654C115.103 141.732 115.859 142.586 116.895 142.586Z" fill="#1355E9"/>
<rect width="230" height="44" transform="translate(33 162)" fill="white"/>
<path d="M50.208 178.844C52.77 178.844 54.856 180.944 54.856 183.534C54.856 186.096 52.77 188.182 50.208 188.182C47.646 188.182 45.56 186.082 45.56 183.52C45.56 180.93 47.646 178.844 50.208 178.844ZM50.208 186.446C51.748 186.446 52.994 185.13 52.994 183.534C52.994 181.91 51.748 180.58 50.208 180.58C48.668 180.58 47.436 181.896 47.436 183.52C47.436 185.13 48.668 186.446 50.208 186.446ZM57.994 181.294V184.92C57.994 185.9 58.554 186.558 59.408 186.558C60.262 186.558 60.836 185.9 60.836 184.92V181.294H62.558V185.046C62.558 186.922 61.298 188.168 59.408 188.168C57.518 188.168 56.286 186.922 56.286 185.046V181.294H57.994ZM63.682 182.806V181.294H64.858V179.558H66.58V181.294H68.386V182.806H66.594V185.662C66.594 186.292 66.846 186.586 67.35 186.586C67.672 186.586 67.98 186.446 68.148 186.25L68.904 187.524C68.54 187.888 67.91 188.182 67.084 188.182C65.726 188.182 64.858 187.342 64.858 185.704V182.806H63.682ZM72.0998 188.182C71.0218 188.182 70.1398 187.902 69.4818 187.538L70.0278 186.222C70.7978 186.586 71.4418 186.782 72.1838 186.782C72.9398 186.782 73.2898 186.516 73.2898 186.124C73.2898 184.92 69.6778 185.634 69.6778 183.1C69.6778 182.092 70.5738 181.112 72.2958 181.112C73.2338 181.112 73.9478 181.308 74.8018 181.714L74.1718 182.988C73.6958 182.722 72.9818 182.512 72.4358 182.512C71.7918 182.512 71.3998 182.722 71.3998 183.086C71.3998 184.318 74.9838 183.548 74.9838 186.096C74.9838 187.258 73.9478 188.182 72.0998 188.182ZM77.2396 180.398C76.6796 180.398 76.2456 179.95 76.2456 179.39C76.2456 178.844 76.6796 178.396 77.2396 178.396C77.7856 178.396 78.2476 178.844 78.2476 179.39C78.2476 179.95 77.7856 180.398 77.2396 180.398ZM78.0936 188H76.3856V181.294H78.0936V188ZM82.7806 188.182C81.0166 188.182 79.5746 186.74 79.5746 184.64C79.5746 182.624 80.9326 181.112 82.7806 181.112C83.6906 181.112 84.3906 181.518 84.8386 182.176V178.368H86.5466V188H84.8386V187.048C84.3906 187.734 83.6906 188.182 82.7806 188.182ZM83.0606 186.586C84.0966 186.586 84.8386 185.718 84.8386 184.64C84.8386 183.562 84.0966 182.708 83.0606 182.708C82.0246 182.708 81.2826 183.562 81.2826 184.64C81.2826 185.718 82.0246 186.586 83.0606 186.586ZM91.6082 188.182C89.5222 188.182 88.0102 186.6 88.0102 184.64C88.0102 182.694 89.4522 181.112 91.3842 181.112C93.3022 181.112 94.7722 182.582 94.7722 184.514C94.7722 184.738 94.7582 185.004 94.7302 185.116H89.7602C89.9422 186.04 90.6422 186.684 91.6642 186.684C92.3502 186.684 92.9242 186.39 93.3162 185.984L94.1982 187.16C93.6802 187.734 92.7282 188.182 91.6082 188.182ZM91.4122 182.554C90.6002 182.554 90.0122 183.114 89.8022 183.926H93.0082C92.7982 183.03 92.1962 182.554 91.4122 182.554Z" fill="black"/>
</g>
<rect x="32.5" y="73.5" width="231" height="133" rx="8.5" stroke="#EBEBEB"/>
</g>
<defs>
<filter id="filter0_d_37_7476" x="0" y="57" width="296" height="198" filterUnits="userSpaceOnUse" color-interpolation-filters="sRGB">
<feFlood flood-opacity="0" result="BackgroundImageFix"/>
<feColorMatrix in="SourceAlpha" type="matrix" values="0 0 0 0 0 0 0 0 0 0 0 0 0 0 0 0 0 0 127 0" result="hardAlpha"/>
<feOffset dy="16"/>
<feGaussianBlur stdDeviation="16"/>
<feComposite in2="hardAlpha" operator="out"/>
<feColorMatrix type="matrix" values="0 0 0 0 0 0 0 0 0 0 0 0 0 0 0 0 0 0 0.1 0"/>
<feBlend mode="normal" in2="BackgroundImageFix" result="effect1_dropShadow_37_7476"/>
<feBlend mode="normal" in="SourceGraphic" in2="effect1_dropShadow_37_7476" result="shape"/>
</filter>
<clipPath id="clip0_37_7476">
<rect x="33" y="74" width="230" height="132" rx="8" fill="white"/>
</clipPath>
</defs>
</svg>
