<svg width="296" height="255" viewBox="0 0 296 255" fill="none" xmlns="http://www.w3.org/2000/svg">
<path d="M35.072 15.014C34.652 14.902 34.12 14.636 33.434 14.188L34.19 12.718C34.946 13.194 36.038 13.53 36.92 13.53C37.802 13.53 38.46 13.208 38.46 12.494C38.46 10.898 33.742 11.654 33.742 8.476C33.742 6.81 35.268 5.83 37.088 5.83C38.222 5.83 39.286 6.138 40.112 6.768L39.258 8.154C38.684 7.776 37.788 7.468 37.004 7.468C36.192 7.468 35.618 7.846 35.618 8.434C35.618 10.072 40.322 9.344 40.322 12.396C40.322 14.244 38.698 15.182 36.794 15.182C36.052 15.182 35.478 15.126 35.072 15.014ZM44.8953 15.182C42.8093 15.182 41.2973 13.6 41.2973 11.64C41.2973 9.694 42.7393 8.112 44.6713 8.112C46.5893 8.112 48.0593 9.582 48.0593 11.514C48.0593 11.738 48.0453 12.004 48.0173 12.116H43.0473C43.2293 13.04 43.9293 13.684 44.9513 13.684C45.6373 13.684 46.2113 13.39 46.6033 12.984L47.4853 14.16C46.9673 14.734 46.0153 15.182 44.8953 15.182ZM44.6993 9.554C43.8873 9.554 43.2993 10.114 43.0893 10.926H46.2953C46.0853 10.03 45.4833 9.554 44.6993 9.554ZM52.0186 13.516L52.2006 15.014C51.9486 15.098 51.6266 15.154 51.3746 15.154C50.4086 15.154 49.4286 14.538 49.4286 12.83V5.368H51.1366V12.872C51.1366 13.39 51.4306 13.586 51.7386 13.586C51.8226 13.586 51.9346 13.558 52.0186 13.516ZM56.7898 15.182C54.7038 15.182 53.1918 13.6 53.1918 11.64C53.1918 9.694 54.6338 8.112 56.5658 8.112C58.4838 8.112 59.9538 9.582 59.9538 11.514C59.9538 11.738 59.9398 12.004 59.9118 12.116H54.9418C55.1238 13.04 55.8238 13.684 56.8458 13.684C57.5318 13.684 58.1058 13.39 58.4978 12.984L59.3798 14.16C58.8618 14.734 57.9098 15.182 56.7898 15.182ZM56.5938 9.554C55.7818 9.554 55.1938 10.114 54.9838 10.926H58.1898C57.9798 10.03 57.3778 9.554 56.5938 9.554ZM66.0551 10.324C65.6211 9.918 65.1311 9.708 64.4591 9.708C63.3391 9.708 62.5971 10.562 62.5971 11.64C62.5971 12.718 63.3531 13.586 64.4591 13.586C65.1311 13.586 65.6771 13.348 66.1111 12.928L66.9791 14.188C66.4471 14.776 65.4671 15.182 64.4171 15.182C62.4151 15.182 60.8891 13.6 60.8891 11.64C60.8891 9.694 62.4291 8.112 64.3891 8.112C65.5231 8.112 66.4331 8.49 67.0351 9.106L66.0551 10.324ZM67.473 9.806V8.294H68.649V6.558H70.371V8.294H72.177V9.806H70.385V12.662C70.385 13.292 70.637 13.586 71.141 13.586C71.463 13.586 71.771 13.446 71.939 13.25L72.695 14.524C72.331 14.888 71.701 15.182 70.875 15.182C69.517 15.182 68.649 14.342 68.649 12.704V9.806H67.473ZM78.969 15.266L79.025 15.098L75.959 8.294H77.835L79.795 12.914L81.405 8.294H83.127L80.383 15.854C79.865 17.324 79.011 17.926 77.891 17.926C77.177 17.926 76.491 17.632 76.057 17.226L76.827 15.882C77.149 16.19 77.513 16.33 77.905 16.33C78.381 16.33 78.689 16.05 78.969 15.266ZM87.002 15.182C85.056 15.182 83.516 13.6 83.516 11.64C83.516 9.694 85.056 8.112 87.002 8.112C88.948 8.112 90.488 9.694 90.488 11.64C90.488 13.6 88.948 15.182 87.002 15.182ZM87.002 13.586C88.038 13.586 88.78 12.718 88.78 11.64C88.78 10.562 88.038 9.708 87.002 9.708C85.966 9.708 85.224 10.562 85.224 11.64C85.224 12.718 85.966 13.586 87.002 13.586ZM93.5858 8.294V11.92C93.5858 12.9 94.1458 13.558 94.9998 13.558C95.8538 13.558 96.4278 12.9 96.4278 11.92V8.294H98.1498V12.046C98.1498 13.922 96.8898 15.168 94.9998 15.168C93.1098 15.168 91.8778 13.922 91.8778 12.046V8.294H93.5858ZM99.9598 15V8.294H101.668V9.288C101.99 8.574 102.564 8.112 103.32 8.112C103.768 8.112 104.132 8.224 104.384 8.434L103.684 10.044C103.46 9.876 103.124 9.764 102.788 9.764C102.116 9.764 101.668 10.338 101.668 11.248V15H99.9598ZM107.944 9.806V8.294H109.036V7.902C109.036 6.208 110.002 5.186 111.5 5.186C112.41 5.186 112.998 5.438 113.432 5.872L112.592 7.16C112.396 6.95 112.032 6.782 111.668 6.782C111.108 6.782 110.758 7.16 110.758 7.888V8.294H112.494V9.806H110.758V15H109.036V9.806H107.944ZM116.158 15.182C114.394 15.182 112.952 13.74 112.952 11.64C112.952 9.624 114.31 8.112 116.158 8.112C117.068 8.112 117.768 8.518 118.216 9.176V8.294H119.924V15H118.216V14.048C117.768 14.734 117.068 15.182 116.158 15.182ZM116.438 13.586C117.474 13.586 118.216 12.718 118.216 11.64C118.216 10.562 117.474 9.708 116.438 9.708C115.402 9.708 114.66 10.562 114.66 11.64C114.66 12.718 115.402 13.586 116.438 13.586ZM125.699 15H123.473L121.051 8.294H122.927L124.635 13.474L126.371 8.294H128.121L125.699 15ZM131.983 15.182C130.037 15.182 128.497 13.6 128.497 11.64C128.497 9.694 130.037 8.112 131.983 8.112C133.929 8.112 135.469 9.694 135.469 11.64C135.469 13.6 133.929 15.182 131.983 15.182ZM131.983 13.586C133.019 13.586 133.761 12.718 133.761 11.64C133.761 10.562 133.019 9.708 131.983 9.708C130.947 9.708 130.205 10.562 130.205 11.64C130.205 12.718 130.947 13.586 131.983 13.586ZM136.942 15V8.294H138.65V9.288C138.972 8.574 139.546 8.112 140.302 8.112C140.75 8.112 141.114 8.224 141.366 8.434L140.666 10.044C140.442 9.876 140.106 9.764 139.77 9.764C139.098 9.764 138.65 10.338 138.65 11.248V15H136.942ZM143.388 7.398C142.828 7.398 142.394 6.95 142.394 6.39C142.394 5.844 142.828 5.396 143.388 5.396C143.934 5.396 144.396 5.844 144.396 6.39C144.396 6.95 143.934 7.398 143.388 7.398ZM144.242 15H142.534V8.294H144.242V15ZM145.471 9.806V8.294H146.647V6.558H148.369V8.294H150.175V9.806H148.383V12.662C148.383 13.292 148.635 13.586 149.139 13.586C149.461 13.586 149.769 13.446 149.937 13.25L150.693 14.524C150.329 14.888 149.699 15.182 148.873 15.182C147.515 15.182 146.647 14.342 146.647 12.704V9.806H145.471ZM154.667 15.182C152.581 15.182 151.069 13.6 151.069 11.64C151.069 9.694 152.511 8.112 154.443 8.112C156.361 8.112 157.831 9.582 157.831 11.514C157.831 11.738 157.817 12.004 157.789 12.116H152.819C153.001 13.04 153.701 13.684 154.723 13.684C155.409 13.684 155.983 13.39 156.375 12.984L157.257 14.16C156.739 14.734 155.787 15.182 154.667 15.182ZM154.471 9.554C153.659 9.554 153.071 10.114 152.861 10.926H156.067C155.857 10.03 155.255 9.554 154.471 9.554ZM161.592 9.806V8.294H162.684V7.902C162.684 6.208 163.65 5.186 165.148 5.186C166.058 5.186 166.646 5.438 167.08 5.872L166.24 7.16C166.044 6.95 165.68 6.782 165.316 6.782C164.756 6.782 164.406 7.16 164.406 7.888V8.294H166.142V9.806H164.406V15H162.684V9.806H161.592ZM167.171 15V8.294H168.879V9.288C169.201 8.574 169.775 8.112 170.531 8.112C170.979 8.112 171.343 8.224 171.595 8.434L170.895 10.044C170.671 9.876 170.335 9.764 169.999 9.764C169.327 9.764 168.879 10.338 168.879 11.248V15H167.171ZM174.387 8.294V11.92C174.387 12.9 174.947 13.558 175.801 13.558C176.655 13.558 177.229 12.9 177.229 11.92V8.294H178.951V12.046C178.951 13.922 177.691 15.168 175.801 15.168C173.911 15.168 172.679 13.922 172.679 12.046V8.294H174.387ZM181.615 7.398C181.055 7.398 180.621 6.95 180.621 6.39C180.621 5.844 181.055 5.396 181.615 5.396C182.161 5.396 182.623 5.844 182.623 6.39C182.623 6.95 182.161 7.398 181.615 7.398ZM182.469 15H180.761V8.294H182.469V15ZM183.698 9.806V8.294H184.874V6.558H186.596V8.294H188.402V9.806H186.61V12.662C186.61 13.292 186.862 13.586 187.366 13.586C187.688 13.586 187.996 13.446 188.164 13.25L188.92 14.524C188.556 14.888 187.926 15.182 187.1 15.182C185.742 15.182 184.874 14.342 184.874 12.704V9.806H183.698Z" fill="black"/>
<path fill-rule="evenodd" clip-rule="evenodd" d="M194 11C194 6.58854 197.589 3 202 3C206.411 3 210 6.58854 210 11C210 15.4115 206.411 19 202 19C197.589 19 194 15.4115 194 11ZM208.769 11C208.769 7.25312 205.747 4.23077 202 4.23077C198.253 4.23077 195.231 7.25312 195.231 11C195.231 14.7469 198.253 17.7692 202 17.7692C205.747 17.7692 208.769 14.7469 208.769 11ZM202.923 14.3846C202.923 14.8944 202.51 15.3077 202 15.3077C201.49 15.3077 201.077 14.8944 201.077 14.3846C201.077 13.8748 201.49 13.4615 202 13.4615C202.51 13.4615 202.923 13.8748 202.923 14.3846ZM199.231 9.42735C199.231 7.92361 200.477 6.69231 202 6.69231C203.523 6.69231 204.769 7.92361 204.769 9.42735C204.769 10.5358 204.039 11.5347 202.974 11.8846L202.692 11.9701V12.8462H201.308V11.9701C201.308 11.3851 201.694 10.851 202.26 10.6667L202.541 10.5812C203.044 10.4156 203.385 9.95086 203.385 9.42735C203.385 8.66346 202.773 8.05983 202 8.05983C201.227 8.05983 200.615 8.66346 200.615 9.42735H199.231Z" fill="#1355E9"/>
<rect x="34" y="27" width="228" height="42" rx="7" fill="white"/>
<rect x="34" y="27" width="228" height="42" rx="7" stroke="#D6D6D6" stroke-width="2"/>
<path d="M46.022 52V43.04H51.706V44.678H47.772V46.848H51.146V48.5H47.772V52H46.022ZM52.9793 52V45.294H54.6873V46.288C55.0093 45.574 55.5833 45.112 56.3393 45.112C56.7873 45.112 57.1513 45.224 57.4033 45.434L56.7033 47.044C56.4793 46.876 56.1433 46.764 55.8073 46.764C55.1353 46.764 54.6873 47.338 54.6873 48.248V52H52.9793ZM60.1951 45.294V48.92C60.1951 49.9 60.7551 50.558 61.6091 50.558C62.4631 50.558 63.0371 49.9 63.0371 48.92V45.294H64.7591V49.046C64.7591 50.922 63.4991 52.168 61.6091 52.168C59.7191 52.168 58.4871 50.922 58.4871 49.046V45.294H60.1951ZM67.4232 44.398C66.8632 44.398 66.4292 43.95 66.4292 43.39C66.4292 42.844 66.8632 42.396 67.4232 42.396C67.9692 42.396 68.4312 42.844 68.4312 43.39C68.4312 43.95 67.9692 44.398 67.4232 44.398ZM68.2772 52H66.5692V45.294H68.2772V52ZM69.5062 46.806V45.294H70.6822V43.558H72.4042V45.294H74.2102V46.806H72.4182V49.662C72.4182 50.292 72.6702 50.586 73.1742 50.586C73.4962 50.586 73.8042 50.446 73.9722 50.25L74.7282 51.524C74.3642 51.888 73.7342 52.182 72.9082 52.182C71.5502 52.182 70.6822 51.342 70.6822 49.704V46.806H69.5062ZM81.9122 52.182C79.9662 52.182 78.4262 50.6 78.4262 48.64C78.4262 46.694 79.9662 45.112 81.9122 45.112C83.8582 45.112 85.3982 46.694 85.3982 48.64C85.3982 50.6 83.8582 52.182 81.9122 52.182ZM81.9122 50.586C82.9482 50.586 83.6902 49.718 83.6902 48.64C83.6902 47.562 82.9482 46.708 81.9122 46.708C80.8762 46.708 80.1342 47.562 80.1342 48.64C80.1342 49.718 80.8762 50.586 81.9122 50.586ZM88.5799 54.744H86.8719V45.294H88.5799V46.246C89.0279 45.56 89.7279 45.112 90.6379 45.112C92.4019 45.112 93.8579 46.554 93.8579 48.654C93.8579 50.67 92.4999 52.182 90.6379 52.182C89.7279 52.182 89.0279 51.776 88.5799 51.104V54.744ZM90.3719 50.586C91.3939 50.586 92.1499 49.732 92.1499 48.654C92.1499 47.576 91.3939 46.708 90.3719 46.708C89.3359 46.708 88.5799 47.576 88.5799 48.654C88.5799 49.732 89.3359 50.586 90.3719 50.586ZM94.6215 46.806V45.294H95.7975V43.558H97.5195V45.294H99.3255V46.806H97.5335V49.662C97.5335 50.292 97.7855 50.586 98.2895 50.586C98.6115 50.586 98.9195 50.446 99.0875 50.25L99.8435 51.524C99.4795 51.888 98.8495 52.182 98.0235 52.182C96.6655 52.182 95.7975 51.342 95.7975 49.704V46.806H94.6215ZM101.835 44.398C101.275 44.398 100.841 43.95 100.841 43.39C100.841 42.844 101.275 42.396 101.835 42.396C102.381 42.396 102.843 42.844 102.843 43.39C102.843 43.95 102.381 44.398 101.835 44.398ZM102.689 52H100.981V45.294H102.689V52ZM107.656 52.182C105.71 52.182 104.17 50.6 104.17 48.64C104.17 46.694 105.71 45.112 107.656 45.112C109.602 45.112 111.142 46.694 111.142 48.64C111.142 50.6 109.602 52.182 107.656 52.182ZM107.656 50.586C108.692 50.586 109.434 49.718 109.434 48.64C109.434 47.562 108.692 46.708 107.656 46.708C106.62 46.708 105.878 47.562 105.878 48.64C105.878 49.718 106.62 50.586 107.656 50.586ZM112.616 52V45.294H114.324V46.246C114.674 45.532 115.346 45.112 116.228 45.112C117.768 45.112 118.762 46.19 118.762 47.94V52H117.054V48.192C117.054 47.282 116.536 46.708 115.696 46.708C114.856 46.708 114.324 47.282 114.324 48.192V52H112.616ZM122.672 52.182C121.594 52.182 120.712 51.902 120.054 51.538L120.6 50.222C121.37 50.586 122.014 50.782 122.756 50.782C123.512 50.782 123.862 50.516 123.862 50.124C123.862 48.92 120.25 49.634 120.25 47.1C120.25 46.092 121.146 45.112 122.868 45.112C123.806 45.112 124.52 45.308 125.374 45.714L124.744 46.988C124.268 46.722 123.554 46.512 123.008 46.512C122.364 46.512 121.972 46.722 121.972 47.086C121.972 48.318 125.556 47.548 125.556 50.096C125.556 51.258 124.52 52.182 122.672 52.182Z" fill="black"/>
<path d="M245 51L240 45.9524L241 45L245 49.2857L249 45L250 45.9524L245 51Z" fill="black"/>
<g filter="url(#filter0_d_37_7523)">
<g clip-path="url(#clip0_37_7523)">
<rect x="33" y="74" width="230" height="132" rx="8" fill="white"/>
<rect width="230" height="44" transform="translate(33 74)" fill="white"/>
<path d="M53.484 92.062L52.322 93.406C51.804 92.93 51.076 92.58 50.18 92.58C48.654 92.58 47.436 93.896 47.436 95.52C47.436 97.13 48.654 98.446 50.292 98.446C51.062 98.446 51.832 98.152 52.336 97.634L53.484 98.922C52.7 99.79 51.622 100.182 50.18 100.182C47.562 100.182 45.56 98.082 45.56 95.52C45.56 92.93 47.632 90.844 50.166 90.844C51.678 90.844 52.742 91.306 53.484 92.062ZM54.7157 100V90.368H56.4237V94.246C56.7737 93.532 57.4457 93.112 58.3277 93.112C59.8677 93.112 60.8617 94.19 60.8617 95.94V100H59.1537V96.192C59.1537 95.282 58.6357 94.708 57.7957 94.708C56.9557 94.708 56.4237 95.282 56.4237 96.192V100H54.7157ZM65.8777 100.182C63.7917 100.182 62.2797 98.6 62.2797 96.64C62.2797 94.694 63.7217 93.112 65.6537 93.112C67.5717 93.112 69.0417 94.582 69.0417 96.514C69.0417 96.738 69.0277 97.004 68.9997 97.116H64.0297C64.2117 98.04 64.9117 98.684 65.9337 98.684C66.6197 98.684 67.1937 98.39 67.5857 97.984L68.4677 99.16C67.9497 99.734 66.9977 100.182 65.8777 100.182ZM65.6817 94.554C64.8697 94.554 64.2817 95.114 64.0717 95.926H67.2777C67.0677 95.03 66.4657 94.554 65.6817 94.554ZM70.411 100V93.294H72.119V94.288C72.441 93.574 73.015 93.112 73.771 93.112C74.219 93.112 74.583 93.224 74.835 93.434L74.135 95.044C73.911 94.876 73.575 94.764 73.239 94.764C72.567 94.764 72.119 95.338 72.119 96.248V100H70.411ZM76.0028 100V93.294H77.7108V94.288C78.0328 93.574 78.6068 93.112 79.3628 93.112C79.8108 93.112 80.1748 93.224 80.4268 93.434L79.7268 95.044C79.5028 94.876 79.1668 94.764 78.8308 94.764C78.1588 94.764 77.7108 95.338 77.7108 96.248V100H76.0028ZM82.4486 92.398C81.8886 92.398 81.4546 91.95 81.4546 91.39C81.4546 90.844 81.8886 90.396 82.4486 90.396C82.9946 90.396 83.4566 90.844 83.4566 91.39C83.4566 91.95 82.9946 92.398 82.4486 92.398ZM83.3026 100H81.5946V93.294H83.3026V100ZM88.3816 100.182C86.2956 100.182 84.7836 98.6 84.7836 96.64C84.7836 94.694 86.2256 93.112 88.1576 93.112C90.0756 93.112 91.5456 94.582 91.5456 96.514C91.5456 96.738 91.5316 97.004 91.5036 97.116H86.5336C86.7156 98.04 87.4156 98.684 88.4376 98.684C89.1236 98.684 89.6976 98.39 90.0896 97.984L90.9716 99.16C90.4536 99.734 89.5016 100.182 88.3816 100.182ZM88.1856 94.554C87.3736 94.554 86.7856 95.114 86.5756 95.926H89.7816C89.5716 95.03 88.9696 94.554 88.1856 94.554ZM94.9319 100.182C93.8539 100.182 92.9719 99.902 92.3139 99.538L92.8599 98.222C93.6299 98.586 94.2739 98.782 95.0159 98.782C95.7719 98.782 96.1219 98.516 96.1219 98.124C96.1219 96.92 92.5099 97.634 92.5099 95.1C92.5099 94.092 93.4059 93.112 95.1279 93.112C96.0659 93.112 96.7799 93.308 97.6339 93.714L97.0039 94.988C96.5279 94.722 95.8139 94.512 95.2679 94.512C94.6239 94.512 94.2319 94.722 94.2319 95.086C94.2319 96.318 97.8159 95.548 97.8159 98.096C97.8159 99.258 96.7799 100.182 94.9319 100.182Z" fill="black"/>
<rect width="230" height="44" transform="translate(33 118)" fill="#EBEBEB"/>
<path d="M52.504 144L51.72 141.984H47.8L47.016 144H45.182L48.78 135.026H50.838L54.45 144H52.504ZM48.388 140.43H51.132L49.76 136.888L48.388 140.43ZM57.2713 146.744H55.5633V137.294H57.2713V138.246C57.7193 137.56 58.4193 137.112 59.3293 137.112C61.0933 137.112 62.5493 138.554 62.5493 140.654C62.5493 142.67 61.1913 144.182 59.3293 144.182C58.4193 144.182 57.7193 143.776 57.2713 143.104V146.744ZM59.0633 142.586C60.0853 142.586 60.8413 141.732 60.8413 140.654C60.8413 139.576 60.0853 138.708 59.0633 138.708C58.0273 138.708 57.2713 139.576 57.2713 140.654C57.2713 141.732 58.0273 142.586 59.0633 142.586ZM65.7069 146.744H63.9989V137.294H65.7069V138.246C66.1549 137.56 66.8549 137.112 67.7649 137.112C69.5289 137.112 70.9849 138.554 70.9849 140.654C70.9849 142.67 69.6269 144.182 67.7649 144.182C66.8549 144.182 66.1549 143.776 65.7069 143.104V146.744ZM67.4989 142.586C68.5209 142.586 69.2769 141.732 69.2769 140.654C69.2769 139.576 68.5209 138.708 67.4989 138.708C66.4629 138.708 65.7069 139.576 65.7069 140.654C65.7069 141.732 66.4629 142.586 67.4989 142.586ZM75.0244 142.516L75.2064 144.014C74.9544 144.098 74.6324 144.154 74.3804 144.154C73.4144 144.154 72.4344 143.538 72.4344 141.83V134.368H74.1424V141.872C74.1424 142.39 74.4364 142.586 74.7444 142.586C74.8284 142.586 74.9404 142.558 75.0244 142.516ZM79.7957 144.182C77.7097 144.182 76.1977 142.6 76.1977 140.64C76.1977 138.694 77.6397 137.112 79.5717 137.112C81.4897 137.112 82.9597 138.582 82.9597 140.514C82.9597 140.738 82.9457 141.004 82.9177 141.116H77.9477C78.1297 142.04 78.8297 142.684 79.8517 142.684C80.5377 142.684 81.1117 142.39 81.5037 141.984L82.3857 143.16C81.8677 143.734 80.9157 144.182 79.7957 144.182ZM79.5997 138.554C78.7877 138.554 78.1997 139.114 77.9897 139.926H81.1957C80.9857 139.03 80.3837 138.554 79.5997 138.554ZM86.3459 144.182C85.2679 144.182 84.3859 143.902 83.7279 143.538L84.2739 142.222C85.0439 142.586 85.6879 142.782 86.4299 142.782C87.1859 142.782 87.5359 142.516 87.5359 142.124C87.5359 140.92 83.9239 141.634 83.9239 139.1C83.9239 138.092 84.8199 137.112 86.5419 137.112C87.4799 137.112 88.1939 137.308 89.0479 137.714L88.4179 138.988C87.9419 138.722 87.2279 138.512 86.6819 138.512C86.0379 138.512 85.6459 138.722 85.6459 139.086C85.6459 140.318 89.2299 139.548 89.2299 142.096C89.2299 143.258 88.1939 144.182 86.3459 144.182Z" fill="#1355E9"/>
<rect width="230" height="44" transform="translate(33 162)" fill="white"/>
<path d="M46.022 188V179.04H49.634C51.314 179.04 52.588 180.062 52.588 181.518C52.588 182.568 51.86 183.142 51.258 183.394C52.14 183.66 52.84 184.36 52.84 185.48C52.84 186.824 51.79 188 49.844 188H46.022ZM49.466 180.58H47.772V182.736H49.466C50.236 182.736 50.768 182.288 50.768 181.658C50.768 181.028 50.222 180.58 49.466 180.58ZM49.662 184.178H47.772V186.446H49.662C50.446 186.446 51.02 185.97 51.02 185.312C51.02 184.654 50.446 184.178 49.662 184.178ZM56.9955 188.182C55.2315 188.182 53.7895 186.74 53.7895 184.64C53.7895 182.624 55.1475 181.112 56.9955 181.112C57.9055 181.112 58.6055 181.518 59.0535 182.176V181.294H60.7615V188H59.0535V187.048C58.6055 187.734 57.9055 188.182 56.9955 188.182ZM57.2755 186.586C58.3115 186.586 59.0535 185.718 59.0535 184.64C59.0535 183.562 58.3115 182.708 57.2755 182.708C56.2395 182.708 55.4975 183.562 55.4975 184.64C55.4975 185.718 56.2395 186.586 57.2755 186.586ZM62.659 188V181.294H64.367V182.246C64.717 181.532 65.389 181.112 66.271 181.112C67.811 181.112 68.805 182.19 68.805 183.94V188H67.097V184.192C67.097 183.282 66.579 182.708 65.739 182.708C64.899 182.708 64.367 183.282 64.367 184.192V188H62.659ZM73.4291 188.182C71.6651 188.182 70.2231 186.74 70.2231 184.64C70.2231 182.624 71.5811 181.112 73.4291 181.112C74.3391 181.112 75.0391 181.518 75.4871 182.176V181.294H77.1951V188H75.4871V187.048C75.0391 187.734 74.3391 188.182 73.4291 188.182ZM73.7091 186.586C74.7451 186.586 75.4871 185.718 75.4871 184.64C75.4871 183.562 74.7451 182.708 73.7091 182.708C72.6731 182.708 71.9311 183.562 71.9311 184.64C71.9311 185.718 72.6731 186.586 73.7091 186.586ZM79.0926 188V181.294H80.8006V182.246C81.1506 181.532 81.8226 181.112 82.7046 181.112C84.2446 181.112 85.2386 182.19 85.2386 183.94V188H83.5306V184.192C83.5306 183.282 83.0126 182.708 82.1726 182.708C81.3326 182.708 80.8006 183.282 80.8006 184.192V188H79.0926ZM89.8627 188.182C88.0987 188.182 86.6567 186.74 86.6567 184.64C86.6567 182.624 88.0147 181.112 89.8627 181.112C90.7727 181.112 91.4727 181.518 91.9207 182.176V181.294H93.6287V188H91.9207V187.048C91.4727 187.734 90.7727 188.182 89.8627 188.182ZM90.1427 186.586C91.1787 186.586 91.9207 185.718 91.9207 184.64C91.9207 183.562 91.1787 182.708 90.1427 182.708C89.1067 182.708 88.3647 183.562 88.3647 184.64C88.3647 185.718 89.1067 186.586 90.1427 186.586ZM97.5842 188.182C96.5062 188.182 95.6242 187.902 94.9662 187.538L95.5122 186.222C96.2822 186.586 96.9262 186.782 97.6682 186.782C98.4242 186.782 98.7742 186.516 98.7742 186.124C98.7742 184.92 95.1622 185.634 95.1622 183.1C95.1622 182.092 96.0582 181.112 97.7802 181.112C98.7182 181.112 99.4322 181.308 100.286 181.714L99.6562 182.988C99.1802 182.722 98.4662 182.512 97.9202 182.512C97.2762 182.512 96.8842 182.722 96.8842 183.086C96.8842 184.318 100.468 183.548 100.468 186.096C100.468 187.258 99.4322 188.182 97.5842 188.182Z" fill="black"/>
</g>
<rect x="32.5" y="73.5" width="231" height="133" rx="8.5" stroke="#EBEBEB"/>
</g>
<defs>
<filter id="filter0_d_37_7523" x="0" y="57" width="296" height="198" filterUnits="userSpaceOnUse" color-interpolation-filters="sRGB">
<feFlood flood-opacity="0" result="BackgroundImageFix"/>
<feColorMatrix in="SourceAlpha" type="matrix" values="0 0 0 0 0 0 0 0 0 0 0 0 0 0 0 0 0 0 127 0" result="hardAlpha"/>
<feOffset dy="16"/>
<feGaussianBlur stdDeviation="16"/>
<feComposite in2="hardAlpha" operator="out"/>
<feColorMatrix type="matrix" values="0 0 0 0 0 0 0 0 0 0 0 0 0 0 0 0 0 0 0.1 0"/>
<feBlend mode="normal" in2="BackgroundImageFix" result="effect1_dropShadow_37_7523"/>
<feBlend mode="normal" in="SourceGraphic" in2="effect1_dropShadow_37_7523" result="shape"/>
</filter>
<clipPath id="clip0_37_7523">
<rect x="33" y="74" width="230" height="132" rx="8" fill="white"/>
</clipPath>
</defs>
</svg>
