<svg width="231" height="44" viewBox="0 0 231 44" fill="none" xmlns="http://www.w3.org/2000/svg">
<rect x="1" y="0.5" width="229" height="43" rx="7.5" fill="white"/>
<rect x="1" y="0.5" width="229" height="43" rx="7.5" stroke="#EBEBEB"/>
<path d="M13.522 26V17.04H16.518C19.472 17.04 21.586 18.902 21.586 21.52C21.586 24.138 19.5 26 16.574 26H13.522ZM16.504 18.678H15.328V24.348H16.518C18.436 24.348 19.71 23.228 19.71 21.52C19.71 19.798 18.436 18.678 16.504 18.678ZM26.2683 26.182C24.1823 26.182 22.6703 24.6 22.6703 22.64C22.6703 20.694 24.1123 19.112 26.0443 19.112C27.9623 19.112 29.4323 20.582 29.4323 22.514C29.4323 22.738 29.4183 23.004 29.3903 23.116H24.4203C24.6023 24.04 25.3023 24.684 26.3243 24.684C27.0103 24.684 27.5843 24.39 27.9763 23.984L28.8583 25.16C28.3403 25.734 27.3883 26.182 26.2683 26.182ZM26.0723 20.554C25.2603 20.554 24.6723 21.114 24.4623 21.926H27.6683C27.4583 21.03 26.8563 20.554 26.0723 20.554ZM30.1996 20.806V19.294H31.2916V18.902C31.2916 17.208 32.2576 16.186 33.7556 16.186C34.6656 16.186 35.2536 16.438 35.6876 16.872L34.8476 18.16C34.6516 17.95 34.2876 17.782 33.9236 17.782C33.3636 17.782 33.0136 18.16 33.0136 18.888V19.294H34.7496V20.806H33.0136V26H31.2916V20.806H30.1996ZM38.4135 26.182C36.6495 26.182 35.2075 24.74 35.2075 22.64C35.2075 20.624 36.5655 19.112 38.4135 19.112C39.3235 19.112 40.0235 19.518 40.4715 20.176V19.294H42.1795V26H40.4715V25.048C40.0235 25.734 39.3235 26.182 38.4135 26.182ZM38.6935 24.586C39.7295 24.586 40.4715 23.718 40.4715 22.64C40.4715 21.562 39.7295 20.708 38.6935 20.708C37.6575 20.708 36.9155 21.562 36.9155 22.64C36.9155 23.718 37.6575 24.586 38.6935 24.586ZM45.701 19.294V22.92C45.701 23.9 46.261 24.558 47.115 24.558C47.969 24.558 48.543 23.9 48.543 22.92V19.294H50.265V23.046C50.265 24.922 49.005 26.168 47.115 26.168C45.225 26.168 43.993 24.922 43.993 23.046V19.294H45.701ZM54.665 24.516L54.847 26.014C54.595 26.098 54.273 26.154 54.021 26.154C53.055 26.154 52.075 25.538 52.075 23.83V16.368H53.783V23.872C53.783 24.39 54.077 24.586 54.385 24.586C54.469 24.586 54.581 24.558 54.665 24.516ZM55.5863 20.806V19.294H56.7623V17.558H58.4843V19.294H60.2903V20.806H58.4983V23.662C58.4983 24.292 58.7503 24.586 59.2543 24.586C59.5763 24.586 59.8843 24.446 60.0523 24.25L60.8083 25.524C60.4443 25.888 59.8143 26.182 58.9883 26.182C57.6303 26.182 56.7623 25.342 56.7623 23.704V20.806H55.5863ZM69.1963 16.844C71.7583 16.844 73.8443 18.944 73.8443 21.534C73.8443 24.096 71.7583 26.182 69.1963 26.182C66.6343 26.182 64.5483 24.082 64.5483 21.52C64.5483 18.93 66.6343 16.844 69.1963 16.844ZM69.1963 24.446C70.7363 24.446 71.9823 23.13 71.9823 21.534C71.9823 19.91 70.7363 18.58 69.1963 18.58C67.6563 18.58 66.4243 19.896 66.4243 21.52C66.4243 23.13 67.6563 24.446 69.1963 24.446ZM77.0663 28.744H75.3583V19.294H77.0663V20.246C77.5143 19.56 78.2143 19.112 79.1243 19.112C80.8883 19.112 82.3443 20.554 82.3443 22.654C82.3443 24.67 80.9863 26.182 79.1243 26.182C78.2143 26.182 77.5143 25.776 77.0663 25.104V28.744ZM78.8583 24.586C79.8803 24.586 80.6363 23.732 80.6363 22.654C80.6363 21.576 79.8803 20.708 78.8583 20.708C77.8223 20.708 77.0663 21.576 77.0663 22.654C77.0663 23.732 77.8223 24.586 78.8583 24.586ZM83.1078 20.806V19.294H84.2838V17.558H86.0058V19.294H87.8118V20.806H86.0198V23.662C86.0198 24.292 86.2718 24.586 86.7758 24.586C87.0978 24.586 87.4058 24.446 87.5738 24.25L88.3298 25.524C87.9658 25.888 87.3358 26.182 86.5098 26.182C85.1518 26.182 84.2838 25.342 84.2838 23.704V20.806H83.1078ZM90.3216 18.398C89.7616 18.398 89.3276 17.95 89.3276 17.39C89.3276 16.844 89.7616 16.396 90.3216 16.396C90.8676 16.396 91.3296 16.844 91.3296 17.39C91.3296 17.95 90.8676 18.398 90.3216 18.398ZM91.1756 26H89.4676V19.294H91.1756V26ZM96.1427 26.182C94.1967 26.182 92.6567 24.6 92.6567 22.64C92.6567 20.694 94.1967 19.112 96.1427 19.112C98.0887 19.112 99.6287 20.694 99.6287 22.64C99.6287 24.6 98.0887 26.182 96.1427 26.182ZM96.1427 24.586C97.1787 24.586 97.9207 23.718 97.9207 22.64C97.9207 21.562 97.1787 20.708 96.1427 20.708C95.1067 20.708 94.3647 21.562 94.3647 22.64C94.3647 23.718 95.1067 24.586 96.1427 24.586ZM101.102 26V19.294H102.81V20.246C103.16 19.532 103.832 19.112 104.714 19.112C106.254 19.112 107.248 20.19 107.248 21.94V26H105.54V22.192C105.54 21.282 105.022 20.708 104.182 20.708C103.342 20.708 102.81 21.282 102.81 22.192V26H101.102Z" fill="black"/>
<path d="M212.5 25L207.5 19.9524L208.5 19L212.5 23.2857L216.5 19L217.5 19.9524L212.5 25Z" fill="black"/>
</svg>
