<svg width="230" height="82" viewBox="0 0 230 82" fill="none" xmlns="http://www.w3.org/2000/svg">
<path d="M1.022 15V6.04H4.018C6.972 6.04 9.086 7.902 9.086 10.52C9.086 13.138 7 15 4.074 15H1.022ZM4.004 7.678H2.828V13.348H4.018C5.936 13.348 7.21 12.228 7.21 10.52C7.21 8.798 5.936 7.678 4.004 7.678ZM10.6043 15V8.294H12.3123V9.288C12.6343 8.574 13.2083 8.112 13.9643 8.112C14.4123 8.112 14.7763 8.224 15.0283 8.434L14.3283 10.044C14.1043 9.876 13.7683 9.764 13.4323 9.764C12.7603 9.764 12.3123 10.338 12.3123 11.248V15H10.6043ZM18.6876 15.182C16.7416 15.182 15.2016 13.6 15.2016 11.64C15.2016 9.694 16.7416 8.112 18.6876 8.112C20.6336 8.112 22.1736 9.694 22.1736 11.64C22.1736 13.6 20.6336 15.182 18.6876 15.182ZM18.6876 13.586C19.7236 13.586 20.4656 12.718 20.4656 11.64C20.4656 10.562 19.7236 9.708 18.6876 9.708C17.6516 9.708 16.9096 10.562 16.9096 11.64C16.9096 12.718 17.6516 13.586 18.6876 13.586ZM25.3553 17.744H23.6473V8.294H25.3553V9.246C25.8033 8.56 26.5033 8.112 27.4133 8.112C29.1773 8.112 30.6333 9.554 30.6333 11.654C30.6333 13.67 29.2753 15.182 27.4133 15.182C26.5033 15.182 25.8033 14.776 25.3553 14.104V17.744ZM27.1473 13.586C28.1693 13.586 28.9253 12.732 28.9253 11.654C28.9253 10.576 28.1693 9.708 27.1473 9.708C26.1113 9.708 25.3553 10.576 25.3553 11.654C25.3553 12.732 26.1113 13.586 27.1473 13.586ZM34.8549 15.182C33.0909 15.182 31.6489 13.74 31.6489 11.64C31.6489 9.624 33.0069 8.112 34.8549 8.112C35.7649 8.112 36.4649 8.518 36.9129 9.176V5.368H38.6209V15H36.9129V14.048C36.4649 14.734 35.7649 15.182 34.8549 15.182ZM35.1349 13.586C36.1709 13.586 36.9129 12.718 36.9129 11.64C36.9129 10.562 36.1709 9.708 35.1349 9.708C34.0989 9.708 33.3569 10.562 33.3569 11.64C33.3569 12.718 34.0989 13.586 35.1349 13.586ZM43.5704 15.182C41.6244 15.182 40.0844 13.6 40.0844 11.64C40.0844 9.694 41.6244 8.112 43.5704 8.112C45.5164 8.112 47.0564 9.694 47.0564 11.64C47.0564 13.6 45.5164 15.182 43.5704 15.182ZM43.5704 13.586C44.6064 13.586 45.3484 12.718 45.3484 11.64C45.3484 10.562 44.6064 9.708 43.5704 9.708C42.5344 9.708 41.7924 10.562 41.7924 11.64C41.7924 12.718 42.5344 13.586 43.5704 13.586ZM51.5337 15H49.6017L47.5297 8.294H49.3637L50.6097 13.124L51.9677 8.294H53.8157L55.2017 13.152L56.4757 8.294H58.3097L56.2377 15H54.1097L52.8077 10.45L51.5337 15ZM59.5223 15V8.294H61.2303V9.246C61.5803 8.532 62.2523 8.112 63.1343 8.112C64.6743 8.112 65.6683 9.19 65.6683 10.94V15H63.9603V11.192C63.9603 10.282 63.4423 9.708 62.6023 9.708C61.7623 9.708 61.2303 10.282 61.2303 11.192V15H59.5223ZM70.5845 15V6.026H72.3345V13.348H76.7165V15H70.5845ZM80.3685 15.182C78.6045 15.182 77.1625 13.74 77.1625 11.64C77.1625 9.624 78.5205 8.112 80.3685 8.112C81.2785 8.112 81.9785 8.518 82.4265 9.176V8.294H84.1345V15H82.4265V14.048C81.9785 14.734 81.2785 15.182 80.3685 15.182ZM80.6485 13.586C81.6845 13.586 82.4265 12.718 82.4265 11.64C82.4265 10.562 81.6845 9.708 80.6485 9.708C79.6125 9.708 78.8705 10.562 78.8705 11.64C78.8705 12.718 79.6125 13.586 80.6485 13.586ZM89.7981 8.112C91.5621 8.112 93.0181 9.554 93.0181 11.654C93.0181 13.67 91.6601 15.182 89.7981 15.182C88.8881 15.182 88.1881 14.776 87.7401 14.104V15H86.0321V5.368H87.7401V9.246C88.1881 8.56 88.8881 8.112 89.7981 8.112ZM89.5321 9.708C88.4961 9.708 87.7401 10.576 87.7401 11.654C87.7401 12.732 88.4961 13.586 89.5321 13.586C90.5541 13.586 91.3101 12.732 91.3101 11.654C91.3101 10.576 90.5541 9.708 89.5321 9.708ZM97.6316 15.182C95.5456 15.182 94.0336 13.6 94.0336 11.64C94.0336 9.694 95.4756 8.112 97.4076 8.112C99.3256 8.112 100.796 9.582 100.796 11.514C100.796 11.738 100.782 12.004 100.754 12.116H95.7836C95.9656 13.04 96.6656 13.684 97.6876 13.684C98.3736 13.684 98.9476 13.39 99.3396 12.984L100.222 14.16C99.7036 14.734 98.7516 15.182 97.6316 15.182ZM97.4356 9.554C96.6236 9.554 96.0356 10.114 95.8256 10.926H99.0316C98.8216 10.03 98.2196 9.554 97.4356 9.554ZM104.755 13.516L104.937 15.014C104.685 15.098 104.363 15.154 104.111 15.154C103.145 15.154 102.165 14.538 102.165 12.83V5.368H103.873V12.872C103.873 13.39 104.167 13.586 104.475 13.586C104.559 13.586 104.671 13.558 104.755 13.516Z" fill="black"/>
<path fill-rule="evenodd" clip-rule="evenodd" d="M110 11C110 6.58854 113.589 3 118 3C122.411 3 126 6.58854 126 11C126 15.4115 122.411 19 118 19C113.589 19 110 15.4115 110 11ZM124.769 11C124.769 7.25312 121.747 4.23077 118 4.23077C114.253 4.23077 111.231 7.25312 111.231 11C111.231 14.7469 114.253 17.7692 118 17.7692C121.747 17.7692 124.769 14.7469 124.769 11ZM118.923 14.3846C118.923 14.8944 118.51 15.3077 118 15.3077C117.49 15.3077 117.077 14.8944 117.077 14.3846C117.077 13.8748 117.49 13.4615 118 13.4615C118.51 13.4615 118.923 13.8748 118.923 14.3846ZM115.231 9.42735C115.231 7.92361 116.477 6.69231 118 6.69231C119.523 6.69231 120.769 7.92361 120.769 9.42735C120.769 10.5358 120.039 11.5347 118.974 11.8846L118.692 11.9701V12.8462H117.308V11.9701C117.308 11.3851 117.694 10.851 118.26 10.6667L118.541 10.5812C119.044 10.4156 119.385 9.95086 119.385 9.42735C119.385 8.66346 118.773 8.05983 118 8.05983C117.227 8.05983 116.615 8.66346 116.615 9.42735H115.231Z" fill="#1355E9"/>
<rect x="0.5" y="26.5" width="229" height="55" rx="11.5" stroke="black"/>
<rect x="5.5" y="32.5" width="219" height="43" rx="7.5" fill="white"/>
<rect x="5.5" y="32.5" width="219" height="43" rx="7.5" stroke="#EBEBEB"/>
<path d="M18.022 58V49.04H21.018C23.972 49.04 26.086 50.902 26.086 53.52C26.086 56.138 24 58 21.074 58H18.022ZM21.004 50.678H19.828V56.348H21.018C22.936 56.348 24.21 55.228 24.21 53.52C24.21 51.798 22.936 50.678 21.004 50.678ZM30.7683 58.182C28.6823 58.182 27.1703 56.6 27.1703 54.64C27.1703 52.694 28.6123 51.112 30.5443 51.112C32.4623 51.112 33.9323 52.582 33.9323 54.514C33.9323 54.738 33.9183 55.004 33.8903 55.116H28.9203C29.1023 56.04 29.8023 56.684 30.8243 56.684C31.5103 56.684 32.0843 56.39 32.4763 55.984L33.3583 57.16C32.8403 57.734 31.8883 58.182 30.7683 58.182ZM30.5723 52.554C29.7603 52.554 29.1723 53.114 28.9623 53.926H32.1683C31.9583 53.03 31.3563 52.554 30.5723 52.554ZM34.6996 52.806V51.294H35.7916V50.902C35.7916 49.208 36.7576 48.186 38.2556 48.186C39.1656 48.186 39.7536 48.438 40.1876 48.872L39.3476 50.16C39.1516 49.95 38.7876 49.782 38.4236 49.782C37.8636 49.782 37.5136 50.16 37.5136 50.888V51.294H39.2496V52.806H37.5136V58H35.7916V52.806H34.6996ZM42.9135 58.182C41.1495 58.182 39.7075 56.74 39.7075 54.64C39.7075 52.624 41.0655 51.112 42.9135 51.112C43.8235 51.112 44.5235 51.518 44.9715 52.176V51.294H46.6795V58H44.9715V57.048C44.5235 57.734 43.8235 58.182 42.9135 58.182ZM43.1935 56.586C44.2295 56.586 44.9715 55.718 44.9715 54.64C44.9715 53.562 44.2295 52.708 43.1935 52.708C42.1575 52.708 41.4155 53.562 41.4155 54.64C41.4155 55.718 42.1575 56.586 43.1935 56.586ZM50.201 51.294V54.92C50.201 55.9 50.761 56.558 51.615 56.558C52.469 56.558 53.043 55.9 53.043 54.92V51.294H54.765V55.046C54.765 56.922 53.505 58.168 51.615 58.168C49.725 58.168 48.493 56.922 48.493 55.046V51.294H50.201ZM59.165 56.516L59.347 58.014C59.095 58.098 58.773 58.154 58.521 58.154C57.555 58.154 56.575 57.538 56.575 55.83V48.368H58.283V55.872C58.283 56.39 58.577 56.586 58.885 56.586C58.969 56.586 59.081 56.558 59.165 56.516ZM60.0863 52.806V51.294H61.2623V49.558H62.9843V51.294H64.7903V52.806H62.9983V55.662C62.9983 56.292 63.2503 56.586 63.7543 56.586C64.0763 56.586 64.3843 56.446 64.5523 56.25L65.3083 57.524C64.9443 57.888 64.3143 58.182 63.4883 58.182C62.1303 58.182 61.2623 57.342 61.2623 55.704V52.806H60.0863ZM73.6963 48.844C76.2583 48.844 78.3443 50.944 78.3443 53.534C78.3443 56.096 76.2583 58.182 73.6963 58.182C71.1343 58.182 69.0483 56.082 69.0483 53.52C69.0483 50.93 71.1343 48.844 73.6963 48.844ZM73.6963 56.446C75.2363 56.446 76.4823 55.13 76.4823 53.534C76.4823 51.91 75.2363 50.58 73.6963 50.58C72.1563 50.58 70.9243 51.896 70.9243 53.52C70.9243 55.13 72.1563 56.446 73.6963 56.446ZM81.5663 60.744H79.8583V51.294H81.5663V52.246C82.0143 51.56 82.7143 51.112 83.6243 51.112C85.3883 51.112 86.8443 52.554 86.8443 54.654C86.8443 56.67 85.4863 58.182 83.6243 58.182C82.7143 58.182 82.0143 57.776 81.5663 57.104V60.744ZM83.3583 56.586C84.3803 56.586 85.1363 55.732 85.1363 54.654C85.1363 53.576 84.3803 52.708 83.3583 52.708C82.3223 52.708 81.5663 53.576 81.5663 54.654C81.5663 55.732 82.3223 56.586 83.3583 56.586ZM87.6078 52.806V51.294H88.7838V49.558H90.5058V51.294H92.3118V52.806H90.5198V55.662C90.5198 56.292 90.7718 56.586 91.2758 56.586C91.5978 56.586 91.9058 56.446 92.0738 56.25L92.8298 57.524C92.4658 57.888 91.8358 58.182 91.0098 58.182C89.6518 58.182 88.7838 57.342 88.7838 55.704V52.806H87.6078ZM94.8216 50.398C94.2616 50.398 93.8276 49.95 93.8276 49.39C93.8276 48.844 94.2616 48.396 94.8216 48.396C95.3676 48.396 95.8296 48.844 95.8296 49.39C95.8296 49.95 95.3676 50.398 94.8216 50.398ZM95.6756 58H93.9676V51.294H95.6756V58ZM100.643 58.182C98.6967 58.182 97.1567 56.6 97.1567 54.64C97.1567 52.694 98.6967 51.112 100.643 51.112C102.589 51.112 104.129 52.694 104.129 54.64C104.129 56.6 102.589 58.182 100.643 58.182ZM100.643 56.586C101.679 56.586 102.421 55.718 102.421 54.64C102.421 53.562 101.679 52.708 100.643 52.708C99.6067 52.708 98.8647 53.562 98.8647 54.64C98.8647 55.718 99.6067 56.586 100.643 56.586ZM105.602 58V51.294H107.31V52.246C107.66 51.532 108.332 51.112 109.214 51.112C110.754 51.112 111.748 52.19 111.748 53.94V58H110.04V54.192C110.04 53.282 109.522 52.708 108.682 52.708C107.842 52.708 107.31 53.282 107.31 54.192V58H105.602Z" fill="black"/>
<path d="M207 57L202 51.9524L203 51L207 55.2857L211 51L212 51.9524L207 57Z" fill="black"/>
</svg>
