<svg width="230" height="70" viewBox="0 0 230 70" fill="none" xmlns="http://www.w3.org/2000/svg">
<path d="M1.022 15V6.04H4.018C6.972 6.04 9.086 7.902 9.086 10.52C9.086 13.138 7 15 4.074 15H1.022ZM4.004 7.678H2.828V13.348H4.018C5.936 13.348 7.21 12.228 7.21 10.52C7.21 8.798 5.936 7.678 4.004 7.678ZM10.6043 15V8.294H12.3123V9.288C12.6343 8.574 13.2083 8.112 13.9643 8.112C14.4123 8.112 14.7763 8.224 15.0283 8.434L14.3283 10.044C14.1043 9.876 13.7683 9.764 13.4323 9.764C12.7603 9.764 12.3123 10.338 12.3123 11.248V15H10.6043ZM18.6876 15.182C16.7416 15.182 15.2016 13.6 15.2016 11.64C15.2016 9.694 16.7416 8.112 18.6876 8.112C20.6336 8.112 22.1736 9.694 22.1736 11.64C22.1736 13.6 20.6336 15.182 18.6876 15.182ZM18.6876 13.586C19.7236 13.586 20.4656 12.718 20.4656 11.64C20.4656 10.562 19.7236 9.708 18.6876 9.708C17.6516 9.708 16.9096 10.562 16.9096 11.64C16.9096 12.718 17.6516 13.586 18.6876 13.586ZM25.3553 17.744H23.6473V8.294H25.3553V9.246C25.8033 8.56 26.5033 8.112 27.4133 8.112C29.1773 8.112 30.6333 9.554 30.6333 11.654C30.6333 13.67 29.2753 15.182 27.4133 15.182C26.5033 15.182 25.8033 14.776 25.3553 14.104V17.744ZM27.1473 13.586C28.1693 13.586 28.9253 12.732 28.9253 11.654C28.9253 10.576 28.1693 9.708 27.1473 9.708C26.1113 9.708 25.3553 10.576 25.3553 11.654C25.3553 12.732 26.1113 13.586 27.1473 13.586ZM34.8549 15.182C33.0909 15.182 31.6489 13.74 31.6489 11.64C31.6489 9.624 33.0069 8.112 34.8549 8.112C35.7649 8.112 36.4649 8.518 36.9129 9.176V5.368H38.6209V15H36.9129V14.048C36.4649 14.734 35.7649 15.182 34.8549 15.182ZM35.1349 13.586C36.1709 13.586 36.9129 12.718 36.9129 11.64C36.9129 10.562 36.1709 9.708 35.1349 9.708C34.0989 9.708 33.3569 10.562 33.3569 11.64C33.3569 12.718 34.0989 13.586 35.1349 13.586ZM43.5704 15.182C41.6244 15.182 40.0844 13.6 40.0844 11.64C40.0844 9.694 41.6244 8.112 43.5704 8.112C45.5164 8.112 47.0564 9.694 47.0564 11.64C47.0564 13.6 45.5164 15.182 43.5704 15.182ZM43.5704 13.586C44.6064 13.586 45.3484 12.718 45.3484 11.64C45.3484 10.562 44.6064 9.708 43.5704 9.708C42.5344 9.708 41.7924 10.562 41.7924 11.64C41.7924 12.718 42.5344 13.586 43.5704 13.586ZM51.5337 15H49.6017L47.5297 8.294H49.3637L50.6097 13.124L51.9677 8.294H53.8157L55.2017 13.152L56.4757 8.294H58.3097L56.2377 15H54.1097L52.8077 10.45L51.5337 15ZM59.5223 15V8.294H61.2303V9.246C61.5803 8.532 62.2523 8.112 63.1343 8.112C64.6743 8.112 65.6683 9.19 65.6683 10.94V15H63.9603V11.192C63.9603 10.282 63.4423 9.708 62.6023 9.708C61.7623 9.708 61.2303 10.282 61.2303 11.192V15H59.5223ZM70.5845 15V6.026H72.3345V13.348H76.7165V15H70.5845ZM80.3685 15.182C78.6045 15.182 77.1625 13.74 77.1625 11.64C77.1625 9.624 78.5205 8.112 80.3685 8.112C81.2785 8.112 81.9785 8.518 82.4265 9.176V8.294H84.1345V15H82.4265V14.048C81.9785 14.734 81.2785 15.182 80.3685 15.182ZM80.6485 13.586C81.6845 13.586 82.4265 12.718 82.4265 11.64C82.4265 10.562 81.6845 9.708 80.6485 9.708C79.6125 9.708 78.8705 10.562 78.8705 11.64C78.8705 12.718 79.6125 13.586 80.6485 13.586ZM89.7981 8.112C91.5621 8.112 93.0181 9.554 93.0181 11.654C93.0181 13.67 91.6601 15.182 89.7981 15.182C88.8881 15.182 88.1881 14.776 87.7401 14.104V15H86.0321V5.368H87.7401V9.246C88.1881 8.56 88.8881 8.112 89.7981 8.112ZM89.5321 9.708C88.4961 9.708 87.7401 10.576 87.7401 11.654C87.7401 12.732 88.4961 13.586 89.5321 13.586C90.5541 13.586 91.3101 12.732 91.3101 11.654C91.3101 10.576 90.5541 9.708 89.5321 9.708ZM97.6316 15.182C95.5456 15.182 94.0336 13.6 94.0336 11.64C94.0336 9.694 95.4756 8.112 97.4076 8.112C99.3256 8.112 100.796 9.582 100.796 11.514C100.796 11.738 100.782 12.004 100.754 12.116H95.7836C95.9656 13.04 96.6656 13.684 97.6876 13.684C98.3736 13.684 98.9476 13.39 99.3396 12.984L100.222 14.16C99.7036 14.734 98.7516 15.182 97.6316 15.182ZM97.4356 9.554C96.6236 9.554 96.0356 10.114 95.8256 10.926H99.0316C98.8216 10.03 98.2196 9.554 97.4356 9.554ZM104.755 13.516L104.937 15.014C104.685 15.098 104.363 15.154 104.111 15.154C103.145 15.154 102.165 14.538 102.165 12.83V5.368H103.873V12.872C103.873 13.39 104.167 13.586 104.475 13.586C104.559 13.586 104.671 13.558 104.755 13.516Z" fill="black"/>
<path fill-rule="evenodd" clip-rule="evenodd" d="M110 11C110 6.58854 113.589 3 118 3C122.411 3 126 6.58854 126 11C126 15.4115 122.411 19 118 19C113.589 19 110 15.4115 110 11ZM124.769 11C124.769 7.25312 121.747 4.23077 118 4.23077C114.253 4.23077 111.231 7.25312 111.231 11C111.231 14.7469 114.253 17.7692 118 17.7692C121.747 17.7692 124.769 14.7469 124.769 11ZM118.923 14.3846C118.923 14.8944 118.51 15.3077 118 15.3077C117.49 15.3077 117.077 14.8944 117.077 14.3846C117.077 13.8748 117.49 13.4615 118 13.4615C118.51 13.4615 118.923 13.8748 118.923 14.3846ZM115.231 9.42735C115.231 7.92361 116.477 6.69231 118 6.69231C119.523 6.69231 120.769 7.92361 120.769 9.42735C120.769 10.5358 120.039 11.5347 118.974 11.8846L118.692 11.9701V12.8462H117.308V11.9701C117.308 11.3851 117.694 10.851 118.26 10.6667L118.541 10.5812C119.044 10.4156 119.385 9.95086 119.385 9.42735C119.385 8.66346 118.773 8.05983 118 8.05983C117.227 8.05983 116.615 8.66346 116.615 9.42735H115.231Z" fill="#1355E9"/>
<rect x="0.5" y="26.5" width="229" height="43" rx="7.5" fill="#D6D6D6"/>
<rect x="0.5" y="26.5" width="229" height="43" rx="7.5" stroke="#EBEBEB"/>
<path d="M13.022 52V43.04H16.018C18.972 43.04 21.086 44.902 21.086 47.52C21.086 50.138 19 52 16.074 52H13.022ZM16.004 44.678H14.828V50.348H16.018C17.936 50.348 19.21 49.228 19.21 47.52C19.21 45.798 17.936 44.678 16.004 44.678ZM25.7683 52.182C23.6823 52.182 22.1703 50.6 22.1703 48.64C22.1703 46.694 23.6123 45.112 25.5443 45.112C27.4623 45.112 28.9323 46.582 28.9323 48.514C28.9323 48.738 28.9183 49.004 28.8903 49.116H23.9203C24.1023 50.04 24.8023 50.684 25.8243 50.684C26.5103 50.684 27.0843 50.39 27.4763 49.984L28.3583 51.16C27.8403 51.734 26.8883 52.182 25.7683 52.182ZM25.5723 46.554C24.7603 46.554 24.1723 47.114 23.9623 47.926H27.1683C26.9583 47.03 26.3563 46.554 25.5723 46.554ZM29.6996 46.806V45.294H30.7916V44.902C30.7916 43.208 31.7576 42.186 33.2556 42.186C34.1656 42.186 34.7536 42.438 35.1876 42.872L34.3476 44.16C34.1516 43.95 33.7876 43.782 33.4236 43.782C32.8636 43.782 32.5136 44.16 32.5136 44.888V45.294H34.2496V46.806H32.5136V52H30.7916V46.806H29.6996ZM37.9135 52.182C36.1495 52.182 34.7075 50.74 34.7075 48.64C34.7075 46.624 36.0655 45.112 37.9135 45.112C38.8235 45.112 39.5235 45.518 39.9715 46.176V45.294H41.6795V52H39.9715V51.048C39.5235 51.734 38.8235 52.182 37.9135 52.182ZM38.1935 50.586C39.2295 50.586 39.9715 49.718 39.9715 48.64C39.9715 47.562 39.2295 46.708 38.1935 46.708C37.1575 46.708 36.4155 47.562 36.4155 48.64C36.4155 49.718 37.1575 50.586 38.1935 50.586ZM45.201 45.294V48.92C45.201 49.9 45.761 50.558 46.615 50.558C47.469 50.558 48.043 49.9 48.043 48.92V45.294H49.765V49.046C49.765 50.922 48.505 52.168 46.615 52.168C44.725 52.168 43.493 50.922 43.493 49.046V45.294H45.201ZM54.165 50.516L54.347 52.014C54.095 52.098 53.773 52.154 53.521 52.154C52.555 52.154 51.575 51.538 51.575 49.83V42.368H53.283V49.872C53.283 50.39 53.577 50.586 53.885 50.586C53.969 50.586 54.081 50.558 54.165 50.516ZM55.0863 46.806V45.294H56.2623V43.558H57.9843V45.294H59.7903V46.806H57.9983V49.662C57.9983 50.292 58.2503 50.586 58.7543 50.586C59.0763 50.586 59.3843 50.446 59.5523 50.25L60.3083 51.524C59.9443 51.888 59.3143 52.182 58.4883 52.182C57.1303 52.182 56.2623 51.342 56.2623 49.704V46.806H55.0863ZM68.6963 42.844C71.2583 42.844 73.3443 44.944 73.3443 47.534C73.3443 50.096 71.2583 52.182 68.6963 52.182C66.1343 52.182 64.0483 50.082 64.0483 47.52C64.0483 44.93 66.1343 42.844 68.6963 42.844ZM68.6963 50.446C70.2363 50.446 71.4823 49.13 71.4823 47.534C71.4823 45.91 70.2363 44.58 68.6963 44.58C67.1563 44.58 65.9243 45.896 65.9243 47.52C65.9243 49.13 67.1563 50.446 68.6963 50.446ZM76.5663 54.744H74.8583V45.294H76.5663V46.246C77.0143 45.56 77.7143 45.112 78.6243 45.112C80.3883 45.112 81.8443 46.554 81.8443 48.654C81.8443 50.67 80.4863 52.182 78.6243 52.182C77.7143 52.182 77.0143 51.776 76.5663 51.104V54.744ZM78.3583 50.586C79.3803 50.586 80.1363 49.732 80.1363 48.654C80.1363 47.576 79.3803 46.708 78.3583 46.708C77.3223 46.708 76.5663 47.576 76.5663 48.654C76.5663 49.732 77.3223 50.586 78.3583 50.586ZM82.6078 46.806V45.294H83.7838V43.558H85.5058V45.294H87.3118V46.806H85.5198V49.662C85.5198 50.292 85.7718 50.586 86.2758 50.586C86.5978 50.586 86.9058 50.446 87.0738 50.25L87.8298 51.524C87.4658 51.888 86.8358 52.182 86.0098 52.182C84.6518 52.182 83.7838 51.342 83.7838 49.704V46.806H82.6078ZM89.8216 44.398C89.2616 44.398 88.8276 43.95 88.8276 43.39C88.8276 42.844 89.2616 42.396 89.8216 42.396C90.3676 42.396 90.8296 42.844 90.8296 43.39C90.8296 43.95 90.3676 44.398 89.8216 44.398ZM90.6756 52H88.9676V45.294H90.6756V52ZM95.6427 52.182C93.6967 52.182 92.1567 50.6 92.1567 48.64C92.1567 46.694 93.6967 45.112 95.6427 45.112C97.5887 45.112 99.1287 46.694 99.1287 48.64C99.1287 50.6 97.5887 52.182 95.6427 52.182ZM95.6427 50.586C96.6787 50.586 97.4207 49.718 97.4207 48.64C97.4207 47.562 96.6787 46.708 95.6427 46.708C94.6067 46.708 93.8647 47.562 93.8647 48.64C93.8647 49.718 94.6067 50.586 95.6427 50.586ZM100.602 52V45.294H102.31V46.246C102.66 45.532 103.332 45.112 104.214 45.112C105.754 45.112 106.748 46.19 106.748 47.94V52H105.04V48.192C105.04 47.282 104.522 46.708 103.682 46.708C102.842 46.708 102.31 47.282 102.31 48.192V52H100.602Z" fill="black"/>
<path d="M212 51L207 45.9524L208 45L212 49.2857L216 45L217 45.9524L212 51Z" fill="black"/>
</svg>
