<svg width="232" height="207" viewBox="0 0 232 207" fill="none" xmlns="http://www.w3.org/2000/svg">
<path d="M2.022 15V6.04H5.018C7.972 6.04 10.086 7.902 10.086 10.52C10.086 13.138 8 15 5.074 15H2.022ZM5.004 7.678H3.828V13.348H5.018C6.936 13.348 8.21 12.228 8.21 10.52C8.21 8.798 6.936 7.678 5.004 7.678ZM11.6043 15V8.294H13.3123V9.288C13.6343 8.574 14.2083 8.112 14.9643 8.112C15.4123 8.112 15.7763 8.224 16.0283 8.434L15.3283 10.044C15.1043 9.876 14.7683 9.764 14.4323 9.764C13.7603 9.764 13.3123 10.338 13.3123 11.248V15H11.6043ZM19.6876 15.182C17.7416 15.182 16.2016 13.6 16.2016 11.64C16.2016 9.694 17.7416 8.112 19.6876 8.112C21.6336 8.112 23.1736 9.694 23.1736 11.64C23.1736 13.6 21.6336 15.182 19.6876 15.182ZM19.6876 13.586C20.7236 13.586 21.4656 12.718 21.4656 11.64C21.4656 10.562 20.7236 9.708 19.6876 9.708C18.6516 9.708 17.9096 10.562 17.9096 11.64C17.9096 12.718 18.6516 13.586 19.6876 13.586ZM26.3553 17.744H24.6473V8.294H26.3553V9.246C26.8033 8.56 27.5033 8.112 28.4133 8.112C30.1773 8.112 31.6333 9.554 31.6333 11.654C31.6333 13.67 30.2753 15.182 28.4133 15.182C27.5033 15.182 26.8033 14.776 26.3553 14.104V17.744ZM28.1473 13.586C29.1693 13.586 29.9253 12.732 29.9253 11.654C29.9253 10.576 29.1693 9.708 28.1473 9.708C27.1113 9.708 26.3553 10.576 26.3553 11.654C26.3553 12.732 27.1113 13.586 28.1473 13.586ZM35.8549 15.182C34.0909 15.182 32.6489 13.74 32.6489 11.64C32.6489 9.624 34.0069 8.112 35.8549 8.112C36.7649 8.112 37.4649 8.518 37.9129 9.176V5.368H39.6209V15H37.9129V14.048C37.4649 14.734 36.7649 15.182 35.8549 15.182ZM36.1349 13.586C37.1709 13.586 37.9129 12.718 37.9129 11.64C37.9129 10.562 37.1709 9.708 36.1349 9.708C35.0989 9.708 34.3569 10.562 34.3569 11.64C34.3569 12.718 35.0989 13.586 36.1349 13.586ZM44.5704 15.182C42.6244 15.182 41.0844 13.6 41.0844 11.64C41.0844 9.694 42.6244 8.112 44.5704 8.112C46.5164 8.112 48.0564 9.694 48.0564 11.64C48.0564 13.6 46.5164 15.182 44.5704 15.182ZM44.5704 13.586C45.6064 13.586 46.3484 12.718 46.3484 11.64C46.3484 10.562 45.6064 9.708 44.5704 9.708C43.5344 9.708 42.7924 10.562 42.7924 11.64C42.7924 12.718 43.5344 13.586 44.5704 13.586ZM52.5337 15H50.6017L48.5297 8.294H50.3637L51.6097 13.124L52.9677 8.294H54.8157L56.2017 13.152L57.4757 8.294H59.3097L57.2377 15H55.1097L53.8077 10.45L52.5337 15ZM60.5223 15V8.294H62.2303V9.246C62.5803 8.532 63.2523 8.112 64.1343 8.112C65.6743 8.112 66.6683 9.19 66.6683 10.94V15H64.9603V11.192C64.9603 10.282 64.4423 9.708 63.6023 9.708C62.7623 9.708 62.2303 10.282 62.2303 11.192V15H60.5223ZM71.5845 15V6.026H73.3345V13.348H77.7165V15H71.5845ZM81.3685 15.182C79.6045 15.182 78.1625 13.74 78.1625 11.64C78.1625 9.624 79.5205 8.112 81.3685 8.112C82.2785 8.112 82.9785 8.518 83.4265 9.176V8.294H85.1345V15H83.4265V14.048C82.9785 14.734 82.2785 15.182 81.3685 15.182ZM81.6485 13.586C82.6845 13.586 83.4265 12.718 83.4265 11.64C83.4265 10.562 82.6845 9.708 81.6485 9.708C80.6125 9.708 79.8705 10.562 79.8705 11.64C79.8705 12.718 80.6125 13.586 81.6485 13.586ZM90.7981 8.112C92.5621 8.112 94.0181 9.554 94.0181 11.654C94.0181 13.67 92.6601 15.182 90.7981 15.182C89.8881 15.182 89.1881 14.776 88.7401 14.104V15H87.0321V5.368H88.7401V9.246C89.1881 8.56 89.8881 8.112 90.7981 8.112ZM90.5321 9.708C89.4961 9.708 88.7401 10.576 88.7401 11.654C88.7401 12.732 89.4961 13.586 90.5321 13.586C91.5541 13.586 92.3101 12.732 92.3101 11.654C92.3101 10.576 91.5541 9.708 90.5321 9.708ZM98.6316 15.182C96.5456 15.182 95.0336 13.6 95.0336 11.64C95.0336 9.694 96.4756 8.112 98.4076 8.112C100.326 8.112 101.796 9.582 101.796 11.514C101.796 11.738 101.782 12.004 101.754 12.116H96.7836C96.9656 13.04 97.6656 13.684 98.6876 13.684C99.3736 13.684 99.9476 13.39 100.34 12.984L101.222 14.16C100.704 14.734 99.7516 15.182 98.6316 15.182ZM98.4356 9.554C97.6236 9.554 97.0356 10.114 96.8256 10.926H100.032C99.8216 10.03 99.2196 9.554 98.4356 9.554ZM105.755 13.516L105.937 15.014C105.685 15.098 105.363 15.154 105.111 15.154C104.145 15.154 103.165 14.538 103.165 12.83V5.368H104.873V12.872C104.873 13.39 105.167 13.586 105.475 13.586C105.559 13.586 105.671 13.558 105.755 13.516Z" fill="black"/>
<path fill-rule="evenodd" clip-rule="evenodd" d="M111 11C111 6.58854 114.589 3 119 3C123.411 3 127 6.58854 127 11C127 15.4115 123.411 19 119 19C114.589 19 111 15.4115 111 11ZM125.769 11C125.769 7.25312 122.747 4.23077 119 4.23077C115.253 4.23077 112.231 7.25312 112.231 11C112.231 14.7469 115.253 17.7692 119 17.7692C122.747 17.7692 125.769 14.7469 125.769 11ZM119.923 14.3846C119.923 14.8944 119.51 15.3077 119 15.3077C118.49 15.3077 118.077 14.8944 118.077 14.3846C118.077 13.8748 118.49 13.4615 119 13.4615C119.51 13.4615 119.923 13.8748 119.923 14.3846ZM116.231 9.42735C116.231 7.92361 117.477 6.69231 119 6.69231C120.523 6.69231 121.769 7.92361 121.769 9.42735C121.769 10.5358 121.039 11.5347 119.974 11.8846L119.692 11.9701V12.8462H118.308V11.9701C118.308 11.3851 118.694 10.851 119.26 10.6667L119.541 10.5812C120.044 10.4156 120.385 9.95086 120.385 9.42735C120.385 8.66346 119.773 8.05983 119 8.05983C118.227 8.05983 117.615 8.66346 117.615 9.42735H116.231Z" fill="#1355E9"/>
<rect x="2" y="27" width="228" height="42" rx="7" fill="white"/>
<rect x="2" y="27" width="228" height="42" rx="7" stroke="#D6D6D6" stroke-width="2"/>
<path d="M14.022 52V43.026H17.228C19.398 43.026 20.826 44.202 20.826 45.994C20.826 47.8 19.384 48.99 17.2 48.99H15.772V52H14.022ZM17.368 44.58H15.772V47.436H17.368C18.334 47.436 18.978 46.862 18.978 45.994C18.978 45.14 18.334 44.58 17.368 44.58ZM24.7861 50.516L24.9681 52.014C24.7161 52.098 24.3941 52.154 24.1421 52.154C23.1761 52.154 22.1961 51.538 22.1961 49.83V42.368H23.9041V49.872C23.9041 50.39 24.1981 50.586 24.5061 50.586C24.5901 50.586 24.7021 50.558 24.7861 50.516ZM29.1654 52.182C27.4014 52.182 25.9594 50.74 25.9594 48.64C25.9594 46.624 27.3174 45.112 29.1654 45.112C30.0754 45.112 30.7754 45.518 31.2234 46.176V45.294H32.9314V52H31.2234V51.048C30.7754 51.734 30.0754 52.182 29.1654 52.182ZM29.4454 50.586C30.4814 50.586 31.2234 49.718 31.2234 48.64C31.2234 47.562 30.4814 46.708 29.4454 46.708C28.4094 46.708 27.6674 47.562 27.6674 48.64C27.6674 49.718 28.4094 50.586 29.4454 50.586ZM39.561 47.324C39.127 46.918 38.637 46.708 37.965 46.708C36.845 46.708 36.103 47.562 36.103 48.64C36.103 49.718 36.859 50.586 37.965 50.586C38.637 50.586 39.183 50.348 39.617 49.928L40.485 51.188C39.953 51.776 38.973 52.182 37.923 52.182C35.921 52.182 34.395 50.6 34.395 48.64C34.395 46.694 35.935 45.112 37.895 45.112C39.029 45.112 39.939 45.49 40.541 46.106L39.561 47.324ZM44.5965 52.182C42.5105 52.182 40.9985 50.6 40.9985 48.64C40.9985 46.694 42.4405 45.112 44.3725 45.112C46.2905 45.112 47.7605 46.582 47.7605 48.514C47.7605 48.738 47.7465 49.004 47.7185 49.116H42.7485C42.9305 50.04 43.6305 50.684 44.6525 50.684C45.3385 50.684 45.9125 50.39 46.3045 49.984L47.1865 51.16C46.6685 51.734 45.7165 52.182 44.5965 52.182ZM44.4005 46.554C43.5885 46.554 43.0005 47.114 42.7905 47.926H45.9965C45.7865 47.03 45.1845 46.554 44.4005 46.554ZM49.1297 52V42.368H50.8377V46.246C51.1877 45.532 51.8597 45.112 52.7417 45.112C54.2817 45.112 55.2757 46.19 55.2757 47.94V52H53.5677V48.192C53.5677 47.282 53.0497 46.708 52.2097 46.708C51.3697 46.708 50.8377 47.282 50.8377 48.192V52H49.1297ZM60.1798 52.182C58.2338 52.182 56.6938 50.6 56.6938 48.64C56.6938 46.694 58.2338 45.112 60.1798 45.112C62.1258 45.112 63.6658 46.694 63.6658 48.64C63.6658 50.6 62.1258 52.182 60.1798 52.182ZM60.1798 50.586C61.2158 50.586 61.9578 49.718 61.9578 48.64C61.9578 47.562 61.2158 46.708 60.1798 46.708C59.1438 46.708 58.4018 47.562 58.4018 48.64C58.4018 49.718 59.1438 50.586 60.1798 50.586ZM67.7295 50.516L67.9115 52.014C67.6595 52.098 67.3375 52.154 67.0855 52.154C66.1195 52.154 65.1395 51.538 65.1395 49.83V42.368H66.8475V49.872C66.8475 50.39 67.1415 50.586 67.4495 50.586C67.5335 50.586 67.6455 50.558 67.7295 50.516ZM72.1088 52.182C70.3448 52.182 68.9028 50.74 68.9028 48.64C68.9028 46.624 70.2608 45.112 72.1088 45.112C73.0188 45.112 73.7188 45.518 74.1668 46.176V42.368H75.8748V52H74.1668V51.048C73.7188 51.734 73.0188 52.182 72.1088 52.182ZM72.3888 50.586C73.4248 50.586 74.1668 49.718 74.1668 48.64C74.1668 47.562 73.4248 46.708 72.3888 46.708C71.3528 46.708 70.6108 47.562 70.6108 48.64C70.6108 49.718 71.3528 50.586 72.3888 50.586ZM80.9363 52.182C78.8503 52.182 77.3383 50.6 77.3383 48.64C77.3383 46.694 78.7803 45.112 80.7123 45.112C82.6303 45.112 84.1003 46.582 84.1003 48.514C84.1003 48.738 84.0863 49.004 84.0583 49.116H79.0883C79.2703 50.04 79.9703 50.684 80.9923 50.684C81.6783 50.684 82.2523 50.39 82.6443 49.984L83.5263 51.16C83.0083 51.734 82.0563 52.182 80.9363 52.182ZM80.7403 46.554C79.9283 46.554 79.3403 47.114 79.1303 47.926H82.3363C82.1263 47.03 81.5243 46.554 80.7403 46.554ZM85.4696 52V45.294H87.1776V46.288C87.4996 45.574 88.0736 45.112 88.8296 45.112C89.2776 45.112 89.6416 45.224 89.8936 45.434L89.1936 47.044C88.9696 46.876 88.6336 46.764 88.2976 46.764C87.6256 46.764 87.1776 47.338 87.1776 48.248V52H85.4696ZM93.3695 46.806V45.294H94.5455V43.558H96.2675V45.294H98.0735V46.806H96.2815V49.662C96.2815 50.292 96.5335 50.586 97.0375 50.586C97.3595 50.586 97.6675 50.446 97.8355 50.25L98.5915 51.524C98.2275 51.888 97.5975 52.182 96.7715 52.182C95.4135 52.182 94.5455 51.342 94.5455 49.704V46.806H93.3695ZM102.565 52.182C100.479 52.182 98.9672 50.6 98.9672 48.64C98.9672 46.694 100.409 45.112 102.341 45.112C104.259 45.112 105.729 46.582 105.729 48.514C105.729 48.738 105.715 49.004 105.687 49.116H100.717C100.899 50.04 101.599 50.684 102.621 50.684C103.307 50.684 103.881 50.39 104.273 49.984L105.155 51.16C104.637 51.734 103.685 52.182 102.565 52.182ZM102.369 46.554C101.557 46.554 100.969 47.114 100.759 47.926H103.965C103.755 47.03 103.153 46.554 102.369 46.554ZM105.85 52L108.384 48.626L105.934 45.294H108.062L109.518 47.268L111.002 45.294H112.92L110.47 48.556L113.004 52H110.876L109.336 49.914L107.754 52H105.85ZM113.454 46.806V45.294H114.63V43.558H116.352V45.294H118.158V46.806H116.366V49.662C116.366 50.292 116.618 50.586 117.122 50.586C117.444 50.586 117.752 50.446 117.92 50.25L118.676 51.524C118.312 51.888 117.682 52.182 116.856 52.182C115.498 52.182 114.63 51.342 114.63 49.704V46.806H113.454Z" fill="black"/>
<path d="M213 51L208 45.9524L209 45L213 49.2857L217 45L218 45.9524L213 51Z" fill="black"/>
<g clip-path="url(#clip0_37_7038)">
<rect x="1" y="74" width="230" height="132" rx="8" fill="white"/>
<rect width="230" height="44" transform="translate(1 74)" fill="white"/>
<path d="M14.022 100V91.04H17.018C19.972 91.04 22.086 92.902 22.086 95.52C22.086 98.138 20 100 17.074 100H14.022ZM17.004 92.678H15.828V98.348H17.018C18.936 98.348 20.21 97.228 20.21 95.52C20.21 93.798 18.936 92.678 17.004 92.678ZM23.6043 100V93.294H25.3123V94.288C25.6343 93.574 26.2083 93.112 26.9643 93.112C27.4123 93.112 27.7763 93.224 28.0283 93.434L27.3283 95.044C27.1043 94.876 26.7683 94.764 26.4323 94.764C25.7603 94.764 25.3123 95.338 25.3123 96.248V100H23.6043ZM31.6876 100.182C29.7416 100.182 28.2016 98.6 28.2016 96.64C28.2016 94.694 29.7416 93.112 31.6876 93.112C33.6336 93.112 35.1736 94.694 35.1736 96.64C35.1736 98.6 33.6336 100.182 31.6876 100.182ZM31.6876 98.586C32.7236 98.586 33.4656 97.718 33.4656 96.64C33.4656 95.562 32.7236 94.708 31.6876 94.708C30.6516 94.708 29.9096 95.562 29.9096 96.64C29.9096 97.718 30.6516 98.586 31.6876 98.586ZM38.3553 102.744H36.6473V93.294H38.3553V94.246C38.8033 93.56 39.5033 93.112 40.4133 93.112C42.1773 93.112 43.6333 94.554 43.6333 96.654C43.6333 98.67 42.2753 100.182 40.4133 100.182C39.5033 100.182 38.8033 99.776 38.3553 99.104V102.744ZM40.1473 98.586C41.1693 98.586 41.9253 97.732 41.9253 96.654C41.9253 95.576 41.1693 94.708 40.1473 94.708C39.1113 94.708 38.3553 95.576 38.3553 96.654C38.3553 97.732 39.1113 98.586 40.1473 98.586ZM47.8549 100.182C46.0909 100.182 44.6489 98.74 44.6489 96.64C44.6489 94.624 46.0069 93.112 47.8549 93.112C48.7649 93.112 49.4649 93.518 49.9129 94.176V90.368H51.6209V100H49.9129V99.048C49.4649 99.734 48.7649 100.182 47.8549 100.182ZM48.1349 98.586C49.1709 98.586 49.9129 97.718 49.9129 96.64C49.9129 95.562 49.1709 94.708 48.1349 94.708C47.0989 94.708 46.3569 95.562 46.3569 96.64C46.3569 97.718 47.0989 98.586 48.1349 98.586ZM56.5704 100.182C54.6244 100.182 53.0844 98.6 53.0844 96.64C53.0844 94.694 54.6244 93.112 56.5704 93.112C58.5164 93.112 60.0564 94.694 60.0564 96.64C60.0564 98.6 58.5164 100.182 56.5704 100.182ZM56.5704 98.586C57.6064 98.586 58.3484 97.718 58.3484 96.64C58.3484 95.562 57.6064 94.708 56.5704 94.708C55.5344 94.708 54.7924 95.562 54.7924 96.64C54.7924 97.718 55.5344 98.586 56.5704 98.586ZM64.5337 100H62.6017L60.5297 93.294H62.3637L63.6097 98.124L64.9677 93.294H66.8157L68.2017 98.152L69.4757 93.294H71.3097L69.2377 100H67.1097L65.8077 95.45L64.5337 100ZM72.5223 100V93.294H74.2303V94.246C74.5803 93.532 75.2523 93.112 76.1343 93.112C77.6743 93.112 78.6683 94.19 78.6683 95.94V100H76.9603V96.192C76.9603 95.282 76.4423 94.708 75.6023 94.708C74.7623 94.708 74.2303 95.282 74.2303 96.192V100H72.5223ZM86.5665 100.182C84.6205 100.182 83.0805 98.6 83.0805 96.64C83.0805 94.694 84.6205 93.112 86.5665 93.112C88.5125 93.112 90.0525 94.694 90.0525 96.64C90.0525 98.6 88.5125 100.182 86.5665 100.182ZM86.5665 98.586C87.6025 98.586 88.3445 97.718 88.3445 96.64C88.3445 95.562 87.6025 94.708 86.5665 94.708C85.5305 94.708 84.7885 95.562 84.7885 96.64C84.7885 97.718 85.5305 98.586 86.5665 98.586ZM93.2342 102.744H91.5262V93.294H93.2342V94.246C93.6822 93.56 94.3822 93.112 95.2922 93.112C97.0562 93.112 98.5122 94.554 98.5122 96.654C98.5122 98.67 97.1542 100.182 95.2922 100.182C94.3822 100.182 93.6822 99.776 93.2342 99.104V102.744ZM95.0262 98.586C96.0482 98.586 96.8042 97.732 96.8042 96.654C96.8042 95.576 96.0482 94.708 95.0262 94.708C93.9902 94.708 93.2342 95.576 93.2342 96.654C93.2342 97.732 93.9902 98.586 95.0262 98.586ZM99.2758 94.806V93.294H100.452V91.558H102.174V93.294H103.98V94.806H102.188V97.662C102.188 98.292 102.44 98.586 102.944 98.586C103.266 98.586 103.574 98.446 103.742 98.25L104.498 99.524C104.134 99.888 103.504 100.182 102.678 100.182C101.32 100.182 100.452 99.342 100.452 97.704V94.806H99.2758ZM106.49 92.398C105.93 92.398 105.496 91.95 105.496 91.39C105.496 90.844 105.93 90.396 106.49 90.396C107.036 90.396 107.498 90.844 107.498 91.39C107.498 91.95 107.036 92.398 106.49 92.398ZM107.344 100H105.636V93.294H107.344V100ZM112.311 100.182C110.365 100.182 108.825 98.6 108.825 96.64C108.825 94.694 110.365 93.112 112.311 93.112C114.257 93.112 115.797 94.694 115.797 96.64C115.797 98.6 114.257 100.182 112.311 100.182ZM112.311 98.586C113.347 98.586 114.089 97.718 114.089 96.64C114.089 95.562 113.347 94.708 112.311 94.708C111.275 94.708 110.533 95.562 110.533 96.64C110.533 97.718 111.275 98.586 112.311 98.586ZM117.27 100V93.294H118.978V94.246C119.328 93.532 120 93.112 120.882 93.112C122.422 93.112 123.416 94.19 123.416 95.94V100H121.708V96.192C121.708 95.282 121.19 94.708 120.35 94.708C119.51 94.708 118.978 95.282 118.978 96.192V100H117.27Z" fill="black"/>
<rect width="230" height="44" transform="translate(1 118)" fill="#EBEBEB"/>
<path d="M14.022 144V135.04H17.018C19.972 135.04 22.086 136.902 22.086 139.52C22.086 142.138 20 144 17.074 144H14.022ZM17.004 136.678H15.828V142.348H17.018C18.936 142.348 20.21 141.228 20.21 139.52C20.21 137.798 18.936 136.678 17.004 136.678ZM23.6043 144V137.294H25.3123V138.288C25.6343 137.574 26.2083 137.112 26.9643 137.112C27.4123 137.112 27.7763 137.224 28.0283 137.434L27.3283 139.044C27.1043 138.876 26.7683 138.764 26.4323 138.764C25.7603 138.764 25.3123 139.338 25.3123 140.248V144H23.6043ZM31.6876 144.182C29.7416 144.182 28.2016 142.6 28.2016 140.64C28.2016 138.694 29.7416 137.112 31.6876 137.112C33.6336 137.112 35.1736 138.694 35.1736 140.64C35.1736 142.6 33.6336 144.182 31.6876 144.182ZM31.6876 142.586C32.7236 142.586 33.4656 141.718 33.4656 140.64C33.4656 139.562 32.7236 138.708 31.6876 138.708C30.6516 138.708 29.9096 139.562 29.9096 140.64C29.9096 141.718 30.6516 142.586 31.6876 142.586ZM38.3553 146.744H36.6473V137.294H38.3553V138.246C38.8033 137.56 39.5033 137.112 40.4133 137.112C42.1773 137.112 43.6333 138.554 43.6333 140.654C43.6333 142.67 42.2753 144.182 40.4133 144.182C39.5033 144.182 38.8033 143.776 38.3553 143.104V146.744ZM40.1473 142.586C41.1693 142.586 41.9253 141.732 41.9253 140.654C41.9253 139.576 41.1693 138.708 40.1473 138.708C39.1113 138.708 38.3553 139.576 38.3553 140.654C38.3553 141.732 39.1113 142.586 40.1473 142.586ZM47.8549 144.182C46.0909 144.182 44.6489 142.74 44.6489 140.64C44.6489 138.624 46.0069 137.112 47.8549 137.112C48.7649 137.112 49.4649 137.518 49.9129 138.176V134.368H51.6209V144H49.9129V143.048C49.4649 143.734 48.7649 144.182 47.8549 144.182ZM48.1349 142.586C49.1709 142.586 49.9129 141.718 49.9129 140.64C49.9129 139.562 49.1709 138.708 48.1349 138.708C47.0989 138.708 46.3569 139.562 46.3569 140.64C46.3569 141.718 47.0989 142.586 48.1349 142.586ZM56.5704 144.182C54.6244 144.182 53.0844 142.6 53.0844 140.64C53.0844 138.694 54.6244 137.112 56.5704 137.112C58.5164 137.112 60.0564 138.694 60.0564 140.64C60.0564 142.6 58.5164 144.182 56.5704 144.182ZM56.5704 142.586C57.6064 142.586 58.3484 141.718 58.3484 140.64C58.3484 139.562 57.6064 138.708 56.5704 138.708C55.5344 138.708 54.7924 139.562 54.7924 140.64C54.7924 141.718 55.5344 142.586 56.5704 142.586ZM64.5337 144H62.6017L60.5297 137.294H62.3637L63.6097 142.124L64.9677 137.294H66.8157L68.2017 142.152L69.4757 137.294H71.3097L69.2377 144H67.1097L65.8077 139.45L64.5337 144ZM72.5223 144V137.294H74.2303V138.246C74.5803 137.532 75.2523 137.112 76.1343 137.112C77.6743 137.112 78.6683 138.19 78.6683 139.94V144H76.9603V140.192C76.9603 139.282 76.4423 138.708 75.6023 138.708C74.7623 138.708 74.2303 139.282 74.2303 140.192V144H72.5223ZM86.5665 144.182C84.6205 144.182 83.0805 142.6 83.0805 140.64C83.0805 138.694 84.6205 137.112 86.5665 137.112C88.5125 137.112 90.0525 138.694 90.0525 140.64C90.0525 142.6 88.5125 144.182 86.5665 144.182ZM86.5665 142.586C87.6025 142.586 88.3445 141.718 88.3445 140.64C88.3445 139.562 87.6025 138.708 86.5665 138.708C85.5305 138.708 84.7885 139.562 84.7885 140.64C84.7885 141.718 85.5305 142.586 86.5665 142.586ZM93.2342 146.744H91.5262V137.294H93.2342V138.246C93.6822 137.56 94.3822 137.112 95.2922 137.112C97.0562 137.112 98.5122 138.554 98.5122 140.654C98.5122 142.67 97.1542 144.182 95.2922 144.182C94.3822 144.182 93.6822 143.776 93.2342 143.104V146.744ZM95.0262 142.586C96.0482 142.586 96.8042 141.732 96.8042 140.654C96.8042 139.576 96.0482 138.708 95.0262 138.708C93.9902 138.708 93.2342 139.576 93.2342 140.654C93.2342 141.732 93.9902 142.586 95.0262 142.586ZM99.2758 138.806V137.294H100.452V135.558H102.174V137.294H103.98V138.806H102.188V141.662C102.188 142.292 102.44 142.586 102.944 142.586C103.266 142.586 103.574 142.446 103.742 142.25L104.498 143.524C104.134 143.888 103.504 144.182 102.678 144.182C101.32 144.182 100.452 143.342 100.452 141.704V138.806H99.2758ZM106.49 136.398C105.93 136.398 105.496 135.95 105.496 135.39C105.496 134.844 105.93 134.396 106.49 134.396C107.036 134.396 107.498 134.844 107.498 135.39C107.498 135.95 107.036 136.398 106.49 136.398ZM107.344 144H105.636V137.294H107.344V144ZM112.311 144.182C110.365 144.182 108.825 142.6 108.825 140.64C108.825 138.694 110.365 137.112 112.311 137.112C114.257 137.112 115.797 138.694 115.797 140.64C115.797 142.6 114.257 144.182 112.311 144.182ZM112.311 142.586C113.347 142.586 114.089 141.718 114.089 140.64C114.089 139.562 113.347 138.708 112.311 138.708C111.275 138.708 110.533 139.562 110.533 140.64C110.533 141.718 111.275 142.586 112.311 142.586ZM117.27 144V137.294H118.978V138.246C119.328 137.532 120 137.112 120.882 137.112C122.422 137.112 123.416 138.19 123.416 139.94V144H121.708V140.192C121.708 139.282 121.19 138.708 120.35 138.708C119.51 138.708 118.978 139.282 118.978 140.192V144H117.27Z" fill="#1355E9"/>
<rect width="230" height="44" transform="translate(1 162)" fill="white"/>
<path d="M14.022 188V179.04H17.018C19.972 179.04 22.086 180.902 22.086 183.52C22.086 186.138 20 188 17.074 188H14.022ZM17.004 180.678H15.828V186.348H17.018C18.936 186.348 20.21 185.228 20.21 183.52C20.21 181.798 18.936 180.678 17.004 180.678ZM23.6043 188V181.294H25.3123V182.288C25.6343 181.574 26.2083 181.112 26.9643 181.112C27.4123 181.112 27.7763 181.224 28.0283 181.434L27.3283 183.044C27.1043 182.876 26.7683 182.764 26.4323 182.764C25.7603 182.764 25.3123 183.338 25.3123 184.248V188H23.6043ZM31.6876 188.182C29.7416 188.182 28.2016 186.6 28.2016 184.64C28.2016 182.694 29.7416 181.112 31.6876 181.112C33.6336 181.112 35.1736 182.694 35.1736 184.64C35.1736 186.6 33.6336 188.182 31.6876 188.182ZM31.6876 186.586C32.7236 186.586 33.4656 185.718 33.4656 184.64C33.4656 183.562 32.7236 182.708 31.6876 182.708C30.6516 182.708 29.9096 183.562 29.9096 184.64C29.9096 185.718 30.6516 186.586 31.6876 186.586ZM38.3553 190.744H36.6473V181.294H38.3553V182.246C38.8033 181.56 39.5033 181.112 40.4133 181.112C42.1773 181.112 43.6333 182.554 43.6333 184.654C43.6333 186.67 42.2753 188.182 40.4133 188.182C39.5033 188.182 38.8033 187.776 38.3553 187.104V190.744ZM40.1473 186.586C41.1693 186.586 41.9253 185.732 41.9253 184.654C41.9253 183.576 41.1693 182.708 40.1473 182.708C39.1113 182.708 38.3553 183.576 38.3553 184.654C38.3553 185.732 39.1113 186.586 40.1473 186.586ZM47.8549 188.182C46.0909 188.182 44.6489 186.74 44.6489 184.64C44.6489 182.624 46.0069 181.112 47.8549 181.112C48.7649 181.112 49.4649 181.518 49.9129 182.176V178.368H51.6209V188H49.9129V187.048C49.4649 187.734 48.7649 188.182 47.8549 188.182ZM48.1349 186.586C49.1709 186.586 49.9129 185.718 49.9129 184.64C49.9129 183.562 49.1709 182.708 48.1349 182.708C47.0989 182.708 46.3569 183.562 46.3569 184.64C46.3569 185.718 47.0989 186.586 48.1349 186.586ZM56.5704 188.182C54.6244 188.182 53.0844 186.6 53.0844 184.64C53.0844 182.694 54.6244 181.112 56.5704 181.112C58.5164 181.112 60.0564 182.694 60.0564 184.64C60.0564 186.6 58.5164 188.182 56.5704 188.182ZM56.5704 186.586C57.6064 186.586 58.3484 185.718 58.3484 184.64C58.3484 183.562 57.6064 182.708 56.5704 182.708C55.5344 182.708 54.7924 183.562 54.7924 184.64C54.7924 185.718 55.5344 186.586 56.5704 186.586ZM64.5337 188H62.6017L60.5297 181.294H62.3637L63.6097 186.124L64.9677 181.294H66.8157L68.2017 186.152L69.4757 181.294H71.3097L69.2377 188H67.1097L65.8077 183.45L64.5337 188ZM72.5223 188V181.294H74.2303V182.246C74.5803 181.532 75.2523 181.112 76.1343 181.112C77.6743 181.112 78.6683 182.19 78.6683 183.94V188H76.9603V184.192C76.9603 183.282 76.4423 182.708 75.6023 182.708C74.7623 182.708 74.2303 183.282 74.2303 184.192V188H72.5223ZM86.5665 188.182C84.6205 188.182 83.0805 186.6 83.0805 184.64C83.0805 182.694 84.6205 181.112 86.5665 181.112C88.5125 181.112 90.0525 182.694 90.0525 184.64C90.0525 186.6 88.5125 188.182 86.5665 188.182ZM86.5665 186.586C87.6025 186.586 88.3445 185.718 88.3445 184.64C88.3445 183.562 87.6025 182.708 86.5665 182.708C85.5305 182.708 84.7885 183.562 84.7885 184.64C84.7885 185.718 85.5305 186.586 86.5665 186.586ZM93.2342 190.744H91.5262V181.294H93.2342V182.246C93.6822 181.56 94.3822 181.112 95.2922 181.112C97.0562 181.112 98.5122 182.554 98.5122 184.654C98.5122 186.67 97.1542 188.182 95.2922 188.182C94.3822 188.182 93.6822 187.776 93.2342 187.104V190.744ZM95.0262 186.586C96.0482 186.586 96.8042 185.732 96.8042 184.654C96.8042 183.576 96.0482 182.708 95.0262 182.708C93.9902 182.708 93.2342 183.576 93.2342 184.654C93.2342 185.732 93.9902 186.586 95.0262 186.586ZM99.2758 182.806V181.294H100.452V179.558H102.174V181.294H103.98V182.806H102.188V185.662C102.188 186.292 102.44 186.586 102.944 186.586C103.266 186.586 103.574 186.446 103.742 186.25L104.498 187.524C104.134 187.888 103.504 188.182 102.678 188.182C101.32 188.182 100.452 187.342 100.452 185.704V182.806H99.2758ZM106.49 180.398C105.93 180.398 105.496 179.95 105.496 179.39C105.496 178.844 105.93 178.396 106.49 178.396C107.036 178.396 107.498 178.844 107.498 179.39C107.498 179.95 107.036 180.398 106.49 180.398ZM107.344 188H105.636V181.294H107.344V188ZM112.311 188.182C110.365 188.182 108.825 186.6 108.825 184.64C108.825 182.694 110.365 181.112 112.311 181.112C114.257 181.112 115.797 182.694 115.797 184.64C115.797 186.6 114.257 188.182 112.311 188.182ZM112.311 186.586C113.347 186.586 114.089 185.718 114.089 184.64C114.089 183.562 113.347 182.708 112.311 182.708C111.275 182.708 110.533 183.562 110.533 184.64C110.533 185.718 111.275 186.586 112.311 186.586ZM117.27 188V181.294H118.978V182.246C119.328 181.532 120 181.112 120.882 181.112C122.422 181.112 123.416 182.19 123.416 183.94V188H121.708V184.192C121.708 183.282 121.19 182.708 120.35 182.708C119.51 182.708 118.978 183.282 118.978 184.192V188H117.27Z" fill="black"/>
</g>
<rect x="0.5" y="73.5" width="231" height="133" rx="8.5" stroke="#EBEBEB"/>
<defs>
<clipPath id="clip0_37_7038">
<rect x="1" y="74" width="230" height="132" rx="8" fill="white"/>
</clipPath>
</defs>
</svg>
