<svg width="480" height="150" viewBox="0 0 480 150" fill="none" xmlns="http://www.w3.org/2000/svg">
<path d="M250.73 114V107.59H251.98V112.82H255.11V114H250.73ZM257.719 114.13C256.459 114.13 255.429 113.1 255.429 111.6C255.429 110.16 256.399 109.08 257.719 109.08C258.369 109.08 258.869 109.37 259.189 109.84V109.21H260.409V114H259.189V113.32C258.869 113.81 258.369 114.13 257.719 114.13ZM257.919 112.99C258.659 112.99 259.189 112.37 259.189 111.6C259.189 110.83 258.659 110.22 257.919 110.22C257.179 110.22 256.649 110.83 256.649 111.6C256.649 112.37 257.179 112.99 257.919 112.99ZM264.454 109.08C265.714 109.08 266.754 110.11 266.754 111.61C266.754 113.05 265.784 114.13 264.454 114.13C263.804 114.13 263.304 113.84 262.984 113.36V114H261.764V107.12H262.984V109.89C263.304 109.4 263.804 109.08 264.454 109.08ZM264.264 110.22C263.524 110.22 262.984 110.84 262.984 111.61C262.984 112.38 263.524 112.99 264.264 112.99C264.994 112.99 265.534 112.38 265.534 111.61C265.534 110.84 264.994 110.22 264.264 110.22ZM270.049 114.13C268.559 114.13 267.479 113 267.479 111.6C267.479 110.21 268.509 109.08 269.889 109.08C271.259 109.08 272.309 110.13 272.309 111.51C272.309 111.67 272.299 111.86 272.279 111.94H268.729C268.859 112.6 269.359 113.06 270.089 113.06C270.579 113.06 270.989 112.85 271.269 112.56L271.899 113.4C271.529 113.81 270.849 114.13 270.049 114.13ZM269.909 110.11C269.329 110.11 268.909 110.51 268.759 111.09H271.049C270.899 110.45 270.469 110.11 269.909 110.11ZM275.137 112.94L275.267 114.01C275.087 114.07 274.857 114.11 274.677 114.11C273.987 114.11 273.287 113.67 273.287 112.45V107.12H274.507V112.48C274.507 112.85 274.717 112.99 274.937 112.99C274.997 112.99 275.077 112.97 275.137 112.94Z" fill="black"/>
<path fill-rule="evenodd" clip-rule="evenodd" d="M280 111C280 108.243 282.243 106 285 106C287.757 106 290 108.243 290 111C290 113.757 287.757 116 285 116C282.243 116 280 113.757 280 111ZM289.231 111C289.231 108.658 287.342 106.769 285 106.769C282.658 106.769 280.769 108.658 280.769 111C280.769 113.342 282.658 115.231 285 115.231C287.342 115.231 289.231 113.342 289.231 111ZM285.577 113.115C285.577 113.434 285.319 113.692 285 113.692C284.681 113.692 284.423 113.434 284.423 113.115C284.423 112.797 284.681 112.538 285 112.538C285.319 112.538 285.577 112.797 285.577 113.115ZM283.269 110.017C283.269 109.077 284.048 108.308 285 108.308C285.952 108.308 286.731 109.077 286.731 110.017C286.731 110.71 286.274 111.334 285.608 111.553L285.433 111.606V112.154H284.567V111.606C284.567 111.241 284.809 110.907 285.162 110.792L285.338 110.738C285.652 110.635 285.865 110.344 285.865 110.017C285.865 109.54 285.483 109.162 285 109.162C284.517 109.162 284.135 109.54 284.135 110.017H283.269Z" fill="#1355E9"/>
<rect x="250.5" y="122.5" width="139" height="27" rx="7.5" fill="white"/>
<rect x="250.5" y="122.5" width="139" height="27" rx="7.5" stroke="#EBEBEB"/>
<path d="M262.73 139V132.6H264.87C266.98 132.6 268.49 133.93 268.49 135.8C268.49 137.67 267 139 264.91 139H262.73ZM264.86 133.77H264.02V137.82H264.87C266.24 137.82 267.15 137.02 267.15 135.8C267.15 134.57 266.24 133.77 264.86 133.77ZM271.835 139.13C270.345 139.13 269.265 138 269.265 136.6C269.265 135.21 270.295 134.08 271.675 134.08C273.045 134.08 274.095 135.13 274.095 136.51C274.095 136.67 274.085 136.86 274.065 136.94H270.515C270.645 137.6 271.145 138.06 271.875 138.06C272.365 138.06 272.775 137.85 273.055 137.56L273.685 138.4C273.315 138.81 272.635 139.13 271.835 139.13ZM271.695 135.11C271.115 135.11 270.695 135.51 270.545 136.09H272.835C272.685 135.45 272.255 135.11 271.695 135.11ZM274.643 135.29V134.21H275.423V133.93C275.423 132.72 276.113 131.99 277.183 131.99C277.833 131.99 278.253 132.17 278.563 132.48L277.963 133.4C277.823 133.25 277.563 133.13 277.303 133.13C276.903 133.13 276.653 133.4 276.653 133.92V134.21H277.893V135.29H276.653V139H275.423V135.29H274.643ZM280.51 139.13C279.25 139.13 278.22 138.1 278.22 136.6C278.22 135.16 279.19 134.08 280.51 134.08C281.16 134.08 281.66 134.37 281.98 134.84V134.21H283.2V139H281.98V138.32C281.66 138.81 281.16 139.13 280.51 139.13ZM280.71 137.99C281.45 137.99 281.98 137.37 281.98 136.6C281.98 135.83 281.45 135.22 280.71 135.22C279.97 135.22 279.44 135.83 279.44 136.6C279.44 137.37 279.97 137.99 280.71 137.99ZM285.715 134.21V136.8C285.715 137.5 286.115 137.97 286.725 137.97C287.335 137.97 287.745 137.5 287.745 136.8V134.21H288.975V136.89C288.975 138.23 288.075 139.12 286.725 139.12C285.375 139.12 284.495 138.23 284.495 136.89V134.21H285.715ZM292.118 137.94L292.248 139.01C292.068 139.07 291.838 139.11 291.658 139.11C290.968 139.11 290.268 138.67 290.268 137.45V132.12H291.488V137.48C291.488 137.85 291.698 137.99 291.918 137.99C291.978 137.99 292.058 137.97 292.118 137.94ZM292.776 135.29V134.21H293.616V132.97H294.846V134.21H296.136V135.29H294.856V137.33C294.856 137.78 295.036 137.99 295.396 137.99C295.626 137.99 295.846 137.89 295.966 137.75L296.506 138.66C296.246 138.92 295.796 139.13 295.206 139.13C294.236 139.13 293.616 138.53 293.616 137.36V135.29H292.776ZM302.497 132.46C304.327 132.46 305.817 133.96 305.817 135.81C305.817 137.64 304.327 139.13 302.497 139.13C300.667 139.13 299.177 137.63 299.177 135.8C299.177 133.95 300.667 132.46 302.497 132.46ZM302.497 137.89C303.597 137.89 304.487 136.95 304.487 135.81C304.487 134.65 303.597 133.7 302.497 133.7C301.397 133.7 300.517 134.64 300.517 135.8C300.517 136.95 301.397 137.89 302.497 137.89ZM308.119 140.96H306.899V134.21H308.119V134.89C308.439 134.4 308.939 134.08 309.589 134.08C310.849 134.08 311.889 135.11 311.889 136.61C311.889 138.05 310.919 139.13 309.589 139.13C308.939 139.13 308.439 138.84 308.119 138.36V140.96ZM309.399 137.99C310.129 137.99 310.669 137.38 310.669 136.61C310.669 135.84 310.129 135.22 309.399 135.22C308.659 135.22 308.119 135.84 308.119 136.61C308.119 137.38 308.659 137.99 309.399 137.99ZM312.434 135.29V134.21H313.274V132.97H314.504V134.21H315.794V135.29H314.514V137.33C314.514 137.78 314.694 137.99 315.054 137.99C315.284 137.99 315.504 137.89 315.624 137.75L316.164 138.66C315.904 138.92 315.454 139.13 314.864 139.13C313.894 139.13 313.274 138.53 313.274 137.36V135.29H312.434ZM317.587 133.57C317.187 133.57 316.877 133.25 316.877 132.85C316.877 132.46 317.187 132.14 317.587 132.14C317.977 132.14 318.307 132.46 318.307 132.85C318.307 133.25 317.977 133.57 317.587 133.57ZM318.197 139H316.977V134.21H318.197V139ZM321.745 139.13C320.355 139.13 319.255 138 319.255 136.6C319.255 135.21 320.355 134.08 321.745 134.08C323.135 134.08 324.235 135.21 324.235 136.6C324.235 138 323.135 139.13 321.745 139.13ZM321.745 137.99C322.485 137.99 323.015 137.37 323.015 136.6C323.015 135.83 322.485 135.22 321.745 135.22C321.005 135.22 320.475 135.83 320.475 136.6C320.475 137.37 321.005 137.99 321.745 137.99ZM325.287 139V134.21H326.507V134.89C326.757 134.38 327.237 134.08 327.867 134.08C328.967 134.08 329.677 134.85 329.677 136.1V139H328.457V136.28C328.457 135.63 328.087 135.22 327.487 135.22C326.887 135.22 326.507 135.63 326.507 136.28V139H325.287Z" fill="black"/>
<path d="M374 139L369 133.952L370 133L374 137.286L378 133L379 133.952L374 139Z" fill="black"/>
<path d="M0.876 106V98.308H2.376V104.584H6.132V106H0.876ZM9.26231 106.156C7.75031 106.156 6.51431 104.92 6.51431 103.12C6.51431 101.392 7.67831 100.096 9.26231 100.096C10.0423 100.096 10.6423 100.444 11.0263 101.008V100.252H12.4903V106H11.0263V105.184C10.6423 105.772 10.0423 106.156 9.26231 106.156ZM9.50231 104.788C10.3903 104.788 11.0263 104.044 11.0263 103.12C11.0263 102.196 10.3903 101.464 9.50231 101.464C8.61431 101.464 7.97831 102.196 7.97831 103.12C7.97831 104.044 8.61431 104.788 9.50231 104.788ZM17.3448 100.096C18.8568 100.096 20.1048 101.332 20.1048 103.132C20.1048 104.86 18.9408 106.156 17.3448 106.156C16.5648 106.156 15.9648 105.808 15.5808 105.232V106H14.1168V97.744H15.5808V101.068C15.9648 100.48 16.5648 100.096 17.3448 100.096ZM17.1168 101.464C16.2288 101.464 15.5808 102.208 15.5808 103.132C15.5808 104.056 16.2288 104.788 17.1168 104.788C17.9928 104.788 18.6408 104.056 18.6408 103.132C18.6408 102.208 17.9928 101.464 17.1168 101.464ZM24.0592 106.156C22.2713 106.156 20.9753 104.8 20.9753 103.12C20.9753 101.452 22.2113 100.096 23.8673 100.096C25.5113 100.096 26.7713 101.356 26.7713 103.012C26.7713 103.204 26.7593 103.432 26.7353 103.528H22.4753C22.6313 104.32 23.2313 104.872 24.1073 104.872C24.6953 104.872 25.1873 104.62 25.5233 104.272L26.2793 105.28C25.8353 105.772 25.0193 106.156 24.0592 106.156ZM23.8913 101.332C23.1953 101.332 22.6913 101.812 22.5113 102.508H25.2593C25.0793 101.74 24.5633 101.332 23.8913 101.332ZM30.1649 104.728L30.3209 106.012C30.1049 106.084 29.8289 106.132 29.6129 106.132C28.7849 106.132 27.9449 105.604 27.9449 104.14V97.744H29.4089V104.176C29.4089 104.62 29.6609 104.788 29.9249 104.788C29.9969 104.788 30.0929 104.764 30.1649 104.728Z" fill="black"/>
<path fill-rule="evenodd" clip-rule="evenodd" d="M35 102.333C35 99.0244 37.6914 96.333 41 96.333C44.3086 96.333 47 99.0244 47 102.333C47 105.642 44.3086 108.333 41 108.333C37.6914 108.333 35 105.642 35 102.333ZM46.0769 102.333C46.0769 99.5229 43.8102 97.2561 41 97.2561C38.1898 97.2561 35.9231 99.5229 35.9231 102.333C35.9231 105.143 38.1898 107.41 41 107.41C43.8102 107.41 46.0769 105.143 46.0769 102.333ZM41.6923 104.871C41.6923 105.254 41.3824 105.564 41 105.564C40.6176 105.564 40.3077 105.254 40.3077 104.871C40.3077 104.489 40.6176 104.179 41 104.179C41.3824 104.179 41.6923 104.489 41.6923 104.871ZM38.9231 101.154C38.9231 100.026 39.8581 99.1022 41 99.1022C42.1419 99.1022 43.0769 100.026 43.0769 101.154C43.0769 101.985 42.5293 102.734 41.7302 102.996L41.5192 103.061V103.718H40.4808V103.061C40.4808 102.622 40.7708 102.221 41.1947 102.083L41.4056 102.019C41.7829 101.895 42.0385 101.546 42.0385 101.154C42.0385 100.581 41.5801 100.128 41 100.128C40.4199 100.128 39.9615 100.581 39.9615 101.154H38.9231Z" fill="#1355E9"/>
<rect x="0.5" y="114.5" width="159" height="35" rx="7.5" fill="white"/>
<rect x="0.5" y="114.5" width="159" height="35" rx="7.5" stroke="#EBEBEB"/>
<path d="M12.876 136V128.32H15.444C17.976 128.32 19.788 129.916 19.788 132.16C19.788 134.404 18 136 15.492 136H12.876ZM15.432 129.724H14.424V134.584H15.444C17.088 134.584 18.18 133.624 18.18 132.16C18.18 130.684 17.088 129.724 15.432 129.724ZM23.8014 136.156C22.0134 136.156 20.7174 134.8 20.7174 133.12C20.7174 131.452 21.9534 130.096 23.6094 130.096C25.2534 130.096 26.5134 131.356 26.5134 133.012C26.5134 133.204 26.5014 133.432 26.4774 133.528H22.2174C22.3734 134.32 22.9734 134.872 23.8494 134.872C24.4374 134.872 24.9294 134.62 25.2654 134.272L26.0214 135.28C25.5774 135.772 24.7614 136.156 23.8014 136.156ZM23.6334 131.332C22.9374 131.332 22.4334 131.812 22.2534 132.508H25.0014C24.8214 131.74 24.3054 131.332 23.6334 131.332ZM27.1711 131.548V130.252H28.1071V129.916C28.1071 128.464 28.9351 127.588 30.2191 127.588C30.9991 127.588 31.5031 127.804 31.8751 128.176L31.1551 129.28C30.9871 129.1 30.6751 128.956 30.3631 128.956C29.8831 128.956 29.5831 129.28 29.5831 129.904V130.252H31.0711V131.548H29.5831V136H28.1071V131.548H27.1711ZM34.2115 136.156C32.6995 136.156 31.4635 134.92 31.4635 133.12C31.4635 131.392 32.6275 130.096 34.2115 130.096C34.9915 130.096 35.5915 130.444 35.9755 131.008V130.252H37.4395V136H35.9755V135.184C35.5915 135.772 34.9915 136.156 34.2115 136.156ZM34.4515 134.788C35.3395 134.788 35.9755 134.044 35.9755 133.12C35.9755 132.196 35.3395 131.464 34.4515 131.464C33.5635 131.464 32.9275 132.196 32.9275 133.12C32.9275 134.044 33.5635 134.788 34.4515 134.788ZM40.458 130.252V133.36C40.458 134.2 40.938 134.764 41.67 134.764C42.402 134.764 42.894 134.2 42.894 133.36V130.252H44.37V133.468C44.37 135.076 43.29 136.144 41.67 136.144C40.05 136.144 38.994 135.076 38.994 133.468V130.252H40.458ZM48.1415 134.728L48.2975 136.012C48.0815 136.084 47.8055 136.132 47.5895 136.132C46.7615 136.132 45.9215 135.604 45.9215 134.14V127.744H47.3855V134.176C47.3855 134.62 47.6375 134.788 47.9015 134.788C47.9735 134.788 48.0695 134.764 48.1415 134.728ZM48.9311 131.548V130.252H49.9391V128.764H51.4151V130.252H52.9631V131.548H51.4271V133.996C51.4271 134.536 51.6431 134.788 52.0751 134.788C52.3511 134.788 52.6151 134.668 52.7591 134.5L53.4071 135.592C53.0951 135.904 52.5551 136.156 51.8471 136.156C50.6831 136.156 49.9391 135.436 49.9391 134.032V131.548H48.9311ZM60.5968 128.152C62.7928 128.152 64.5808 129.952 64.5808 132.172C64.5808 134.368 62.7928 136.156 60.5968 136.156C58.4008 136.156 56.6128 134.356 56.6128 132.16C56.6128 129.94 58.4008 128.152 60.5968 128.152ZM60.5968 134.668C61.9168 134.668 62.9848 133.54 62.9848 132.172C62.9848 130.78 61.9168 129.64 60.5968 129.64C59.2768 129.64 58.2208 130.768 58.2208 132.16C58.2208 133.54 59.2768 134.668 60.5968 134.668ZM67.3425 138.352H65.8785V130.252H67.3425V131.068C67.7265 130.48 68.3265 130.096 69.1065 130.096C70.6185 130.096 71.8665 131.332 71.8665 133.132C71.8665 134.86 70.7025 136.156 69.1065 136.156C68.3265 136.156 67.7265 135.808 67.3425 135.232V138.352ZM68.8785 134.788C69.7545 134.788 70.4025 134.056 70.4025 133.132C70.4025 132.208 69.7545 131.464 68.8785 131.464C67.9905 131.464 67.3425 132.208 67.3425 133.132C67.3425 134.056 67.9905 134.788 68.8785 134.788ZM72.521 131.548V130.252H73.529V128.764H75.005V130.252H76.553V131.548H75.017V133.996C75.017 134.536 75.233 134.788 75.665 134.788C75.941 134.788 76.205 134.668 76.349 134.5L76.997 135.592C76.685 135.904 76.145 136.156 75.437 136.156C74.273 136.156 73.529 135.436 73.529 134.032V131.548H72.521ZM78.7043 129.484C78.2243 129.484 77.8523 129.1 77.8523 128.62C77.8523 128.152 78.2243 127.768 78.7043 127.768C79.1723 127.768 79.5683 128.152 79.5683 128.62C79.5683 129.1 79.1723 129.484 78.7043 129.484ZM79.4363 136H77.9723V130.252H79.4363V136ZM83.6937 136.156C82.0257 136.156 80.7057 134.8 80.7057 133.12C80.7057 131.452 82.0257 130.096 83.6937 130.096C85.3617 130.096 86.6817 131.452 86.6817 133.12C86.6817 134.8 85.3617 136.156 83.6937 136.156ZM83.6937 134.788C84.5817 134.788 85.2177 134.044 85.2177 133.12C85.2177 132.196 84.5817 131.464 83.6937 131.464C82.8057 131.464 82.1697 132.196 82.1697 133.12C82.1697 134.044 82.8057 134.788 83.6937 134.788ZM87.9449 136V130.252H89.4089V131.068C89.7089 130.456 90.2849 130.096 91.0409 130.096C92.3609 130.096 93.2129 131.02 93.2129 132.52V136H91.7489V132.736C91.7489 131.956 91.3049 131.464 90.5849 131.464C89.8649 131.464 89.4089 131.956 89.4089 132.736V136H87.9449Z" fill="black"/>
<path d="M144 135L139 129.952L140 129L144 133.286L148 129L149 129.952L144 135Z" fill="black"/>
<path d="M251.022 15V6.04H254.018C256.972 6.04 259.086 7.902 259.086 10.52C259.086 13.138 257 15 254.074 15H251.022ZM254.004 7.678H252.828V13.348H254.018C255.936 13.348 257.21 12.228 257.21 10.52C257.21 8.798 255.936 7.678 254.004 7.678ZM260.604 15V8.294H262.312V9.288C262.634 8.574 263.208 8.112 263.964 8.112C264.412 8.112 264.776 8.224 265.028 8.434L264.328 10.044C264.104 9.876 263.768 9.764 263.432 9.764C262.76 9.764 262.312 10.338 262.312 11.248V15H260.604ZM268.688 15.182C266.742 15.182 265.202 13.6 265.202 11.64C265.202 9.694 266.742 8.112 268.688 8.112C270.634 8.112 272.174 9.694 272.174 11.64C272.174 13.6 270.634 15.182 268.688 15.182ZM268.688 13.586C269.724 13.586 270.466 12.718 270.466 11.64C270.466 10.562 269.724 9.708 268.688 9.708C267.652 9.708 266.91 10.562 266.91 11.64C266.91 12.718 267.652 13.586 268.688 13.586ZM275.355 17.744H273.647V8.294H275.355V9.246C275.803 8.56 276.503 8.112 277.413 8.112C279.177 8.112 280.633 9.554 280.633 11.654C280.633 13.67 279.275 15.182 277.413 15.182C276.503 15.182 275.803 14.776 275.355 14.104V17.744ZM277.147 13.586C278.169 13.586 278.925 12.732 278.925 11.654C278.925 10.576 278.169 9.708 277.147 9.708C276.111 9.708 275.355 10.576 275.355 11.654C275.355 12.732 276.111 13.586 277.147 13.586ZM284.855 15.182C283.091 15.182 281.649 13.74 281.649 11.64C281.649 9.624 283.007 8.112 284.855 8.112C285.765 8.112 286.465 8.518 286.913 9.176V5.368H288.621V15H286.913V14.048C286.465 14.734 285.765 15.182 284.855 15.182ZM285.135 13.586C286.171 13.586 286.913 12.718 286.913 11.64C286.913 10.562 286.171 9.708 285.135 9.708C284.099 9.708 283.357 10.562 283.357 11.64C283.357 12.718 284.099 13.586 285.135 13.586ZM293.57 15.182C291.624 15.182 290.084 13.6 290.084 11.64C290.084 9.694 291.624 8.112 293.57 8.112C295.516 8.112 297.056 9.694 297.056 11.64C297.056 13.6 295.516 15.182 293.57 15.182ZM293.57 13.586C294.606 13.586 295.348 12.718 295.348 11.64C295.348 10.562 294.606 9.708 293.57 9.708C292.534 9.708 291.792 10.562 291.792 11.64C291.792 12.718 292.534 13.586 293.57 13.586ZM301.534 15H299.602L297.53 8.294H299.364L300.61 13.124L301.968 8.294H303.816L305.202 13.152L306.476 8.294H308.31L306.238 15H304.11L302.808 10.45L301.534 15ZM309.522 15V8.294H311.23V9.246C311.58 8.532 312.252 8.112 313.134 8.112C314.674 8.112 315.668 9.19 315.668 10.94V15H313.96V11.192C313.96 10.282 313.442 9.708 312.602 9.708C311.762 9.708 311.23 10.282 311.23 11.192V15H309.522ZM320.585 15V6.026H322.335V13.348H326.717V15H320.585ZM330.369 15.182C328.605 15.182 327.163 13.74 327.163 11.64C327.163 9.624 328.521 8.112 330.369 8.112C331.279 8.112 331.979 8.518 332.427 9.176V8.294H334.135V15H332.427V14.048C331.979 14.734 331.279 15.182 330.369 15.182ZM330.649 13.586C331.685 13.586 332.427 12.718 332.427 11.64C332.427 10.562 331.685 9.708 330.649 9.708C329.613 9.708 328.871 10.562 328.871 11.64C328.871 12.718 329.613 13.586 330.649 13.586ZM339.798 8.112C341.562 8.112 343.018 9.554 343.018 11.654C343.018 13.67 341.66 15.182 339.798 15.182C338.888 15.182 338.188 14.776 337.74 14.104V15H336.032V5.368H337.74V9.246C338.188 8.56 338.888 8.112 339.798 8.112ZM339.532 9.708C338.496 9.708 337.74 10.576 337.74 11.654C337.74 12.732 338.496 13.586 339.532 13.586C340.554 13.586 341.31 12.732 341.31 11.654C341.31 10.576 340.554 9.708 339.532 9.708ZM347.632 15.182C345.546 15.182 344.034 13.6 344.034 11.64C344.034 9.694 345.476 8.112 347.408 8.112C349.326 8.112 350.796 9.582 350.796 11.514C350.796 11.738 350.782 12.004 350.754 12.116H345.784C345.966 13.04 346.666 13.684 347.688 13.684C348.374 13.684 348.948 13.39 349.34 12.984L350.222 14.16C349.704 14.734 348.752 15.182 347.632 15.182ZM347.436 9.554C346.624 9.554 346.036 10.114 345.826 10.926H349.032C348.822 10.03 348.22 9.554 347.436 9.554ZM354.755 13.516L354.937 15.014C354.685 15.098 354.363 15.154 354.111 15.154C353.145 15.154 352.165 14.538 352.165 12.83V5.368H353.873V12.872C353.873 13.39 354.167 13.586 354.475 13.586C354.559 13.586 354.671 13.558 354.755 13.516Z" fill="black"/>
<path fill-rule="evenodd" clip-rule="evenodd" d="M360 11C360 6.58854 363.589 3 368 3C372.411 3 376 6.58854 376 11C376 15.4115 372.411 19 368 19C363.589 19 360 15.4115 360 11ZM374.769 11C374.769 7.25312 371.747 4.23077 368 4.23077C364.253 4.23077 361.231 7.25312 361.231 11C361.231 14.7469 364.253 17.7692 368 17.7692C371.747 17.7692 374.769 14.7469 374.769 11ZM368.923 14.3846C368.923 14.8944 368.51 15.3077 368 15.3077C367.49 15.3077 367.077 14.8944 367.077 14.3846C367.077 13.8748 367.49 13.4615 368 13.4615C368.51 13.4615 368.923 13.8748 368.923 14.3846ZM365.231 9.42735C365.231 7.92361 366.477 6.69231 368 6.69231C369.523 6.69231 370.769 7.92361 370.769 9.42735C370.769 10.5358 370.039 11.5347 368.974 11.8846L368.692 11.9701V12.8462H367.308V11.9701C367.308 11.3851 367.694 10.851 368.26 10.6667L368.541 10.5812C369.044 10.4156 369.385 9.95086 369.385 9.42735C369.385 8.66346 368.773 8.05983 368 8.05983C367.227 8.05983 366.615 8.66346 366.615 9.42735H365.231Z" fill="#1355E9"/>
<rect x="250.5" y="26.5" width="229" height="39" rx="7.5" fill="white"/>
<rect x="250.5" y="26.5" width="229" height="39" rx="7.5" stroke="#EBEBEB"/>
<path d="M263.022 50V41.04H266.018C268.972 41.04 271.086 42.902 271.086 45.52C271.086 48.138 269 50 266.074 50H263.022ZM266.004 42.678H264.828V48.348H266.018C267.936 48.348 269.21 47.228 269.21 45.52C269.21 43.798 267.936 42.678 266.004 42.678ZM275.768 50.182C273.682 50.182 272.17 48.6 272.17 46.64C272.17 44.694 273.612 43.112 275.544 43.112C277.462 43.112 278.932 44.582 278.932 46.514C278.932 46.738 278.918 47.004 278.89 47.116H273.92C274.102 48.04 274.802 48.684 275.824 48.684C276.51 48.684 277.084 48.39 277.476 47.984L278.358 49.16C277.84 49.734 276.888 50.182 275.768 50.182ZM275.572 44.554C274.76 44.554 274.172 45.114 273.962 45.926H277.168C276.958 45.03 276.356 44.554 275.572 44.554ZM279.7 44.806V43.294H280.792V42.902C280.792 41.208 281.758 40.186 283.256 40.186C284.166 40.186 284.754 40.438 285.188 40.872L284.348 42.16C284.152 41.95 283.788 41.782 283.424 41.782C282.864 41.782 282.514 42.16 282.514 42.888V43.294H284.25V44.806H282.514V50H280.792V44.806H279.7ZM287.913 50.182C286.149 50.182 284.707 48.74 284.707 46.64C284.707 44.624 286.065 43.112 287.913 43.112C288.823 43.112 289.523 43.518 289.971 44.176V43.294H291.679V50H289.971V49.048C289.523 49.734 288.823 50.182 287.913 50.182ZM288.193 48.586C289.229 48.586 289.971 47.718 289.971 46.64C289.971 45.562 289.229 44.708 288.193 44.708C287.157 44.708 286.415 45.562 286.415 46.64C286.415 47.718 287.157 48.586 288.193 48.586ZM295.201 43.294V46.92C295.201 47.9 295.761 48.558 296.615 48.558C297.469 48.558 298.043 47.9 298.043 46.92V43.294H299.765V47.046C299.765 48.922 298.505 50.168 296.615 50.168C294.725 50.168 293.493 48.922 293.493 47.046V43.294H295.201ZM304.165 48.516L304.347 50.014C304.095 50.098 303.773 50.154 303.521 50.154C302.555 50.154 301.575 49.538 301.575 47.83V40.368H303.283V47.872C303.283 48.39 303.577 48.586 303.885 48.586C303.969 48.586 304.081 48.558 304.165 48.516ZM305.086 44.806V43.294H306.262V41.558H307.984V43.294H309.79V44.806H307.998V47.662C307.998 48.292 308.25 48.586 308.754 48.586C309.076 48.586 309.384 48.446 309.552 48.25L310.308 49.524C309.944 49.888 309.314 50.182 308.488 50.182C307.13 50.182 306.262 49.342 306.262 47.704V44.806H305.086ZM318.696 40.844C321.258 40.844 323.344 42.944 323.344 45.534C323.344 48.096 321.258 50.182 318.696 50.182C316.134 50.182 314.048 48.082 314.048 45.52C314.048 42.93 316.134 40.844 318.696 40.844ZM318.696 48.446C320.236 48.446 321.482 47.13 321.482 45.534C321.482 43.91 320.236 42.58 318.696 42.58C317.156 42.58 315.924 43.896 315.924 45.52C315.924 47.13 317.156 48.446 318.696 48.446ZM326.566 52.744H324.858V43.294H326.566V44.246C327.014 43.56 327.714 43.112 328.624 43.112C330.388 43.112 331.844 44.554 331.844 46.654C331.844 48.67 330.486 50.182 328.624 50.182C327.714 50.182 327.014 49.776 326.566 49.104V52.744ZM328.358 48.586C329.38 48.586 330.136 47.732 330.136 46.654C330.136 45.576 329.38 44.708 328.358 44.708C327.322 44.708 326.566 45.576 326.566 46.654C326.566 47.732 327.322 48.586 328.358 48.586ZM332.608 44.806V43.294H333.784V41.558H335.506V43.294H337.312V44.806H335.52V47.662C335.52 48.292 335.772 48.586 336.276 48.586C336.598 48.586 336.906 48.446 337.074 48.25L337.83 49.524C337.466 49.888 336.836 50.182 336.01 50.182C334.652 50.182 333.784 49.342 333.784 47.704V44.806H332.608ZM339.822 42.398C339.262 42.398 338.828 41.95 338.828 41.39C338.828 40.844 339.262 40.396 339.822 40.396C340.368 40.396 340.83 40.844 340.83 41.39C340.83 41.95 340.368 42.398 339.822 42.398ZM340.676 50H338.968V43.294H340.676V50ZM345.643 50.182C343.697 50.182 342.157 48.6 342.157 46.64C342.157 44.694 343.697 43.112 345.643 43.112C347.589 43.112 349.129 44.694 349.129 46.64C349.129 48.6 347.589 50.182 345.643 50.182ZM345.643 48.586C346.679 48.586 347.421 47.718 347.421 46.64C347.421 45.562 346.679 44.708 345.643 44.708C344.607 44.708 343.865 45.562 343.865 46.64C343.865 47.718 344.607 48.586 345.643 48.586ZM350.602 50V43.294H352.31V44.246C352.66 43.532 353.332 43.112 354.214 43.112C355.754 43.112 356.748 44.19 356.748 45.94V50H355.04V46.192C355.04 45.282 354.522 44.708 353.682 44.708C352.842 44.708 352.31 45.282 352.31 46.192V50H350.602Z" fill="black"/>
<path d="M464 49L459 43.9524L460 43L464 47.2857L468 43L469 43.9524L464 49Z" fill="black"/>
<path d="M1.022 15V6.04H4.018C6.972 6.04 9.086 7.902 9.086 10.52C9.086 13.138 7 15 4.074 15H1.022ZM4.004 7.678H2.828V13.348H4.018C5.936 13.348 7.21 12.228 7.21 10.52C7.21 8.798 5.936 7.678 4.004 7.678ZM10.6043 15V8.294H12.3123V9.288C12.6343 8.574 13.2083 8.112 13.9643 8.112C14.4123 8.112 14.7763 8.224 15.0283 8.434L14.3283 10.044C14.1043 9.876 13.7683 9.764 13.4323 9.764C12.7603 9.764 12.3123 10.338 12.3123 11.248V15H10.6043ZM18.6876 15.182C16.7416 15.182 15.2016 13.6 15.2016 11.64C15.2016 9.694 16.7416 8.112 18.6876 8.112C20.6336 8.112 22.1736 9.694 22.1736 11.64C22.1736 13.6 20.6336 15.182 18.6876 15.182ZM18.6876 13.586C19.7236 13.586 20.4656 12.718 20.4656 11.64C20.4656 10.562 19.7236 9.708 18.6876 9.708C17.6516 9.708 16.9096 10.562 16.9096 11.64C16.9096 12.718 17.6516 13.586 18.6876 13.586ZM25.3553 17.744H23.6473V8.294H25.3553V9.246C25.8033 8.56 26.5033 8.112 27.4133 8.112C29.1773 8.112 30.6333 9.554 30.6333 11.654C30.6333 13.67 29.2753 15.182 27.4133 15.182C26.5033 15.182 25.8033 14.776 25.3553 14.104V17.744ZM27.1473 13.586C28.1693 13.586 28.9253 12.732 28.9253 11.654C28.9253 10.576 28.1693 9.708 27.1473 9.708C26.1113 9.708 25.3553 10.576 25.3553 11.654C25.3553 12.732 26.1113 13.586 27.1473 13.586ZM34.8549 15.182C33.0909 15.182 31.6489 13.74 31.6489 11.64C31.6489 9.624 33.0069 8.112 34.8549 8.112C35.7649 8.112 36.4649 8.518 36.9129 9.176V5.368H38.6209V15H36.9129V14.048C36.4649 14.734 35.7649 15.182 34.8549 15.182ZM35.1349 13.586C36.1709 13.586 36.9129 12.718 36.9129 11.64C36.9129 10.562 36.1709 9.708 35.1349 9.708C34.0989 9.708 33.3569 10.562 33.3569 11.64C33.3569 12.718 34.0989 13.586 35.1349 13.586ZM43.5704 15.182C41.6244 15.182 40.0844 13.6 40.0844 11.64C40.0844 9.694 41.6244 8.112 43.5704 8.112C45.5164 8.112 47.0564 9.694 47.0564 11.64C47.0564 13.6 45.5164 15.182 43.5704 15.182ZM43.5704 13.586C44.6064 13.586 45.3484 12.718 45.3484 11.64C45.3484 10.562 44.6064 9.708 43.5704 9.708C42.5344 9.708 41.7924 10.562 41.7924 11.64C41.7924 12.718 42.5344 13.586 43.5704 13.586ZM51.5337 15H49.6017L47.5297 8.294H49.3637L50.6097 13.124L51.9677 8.294H53.8157L55.2017 13.152L56.4757 8.294H58.3097L56.2377 15H54.1097L52.8077 10.45L51.5337 15ZM59.5223 15V8.294H61.2303V9.246C61.5803 8.532 62.2523 8.112 63.1343 8.112C64.6743 8.112 65.6683 9.19 65.6683 10.94V15H63.9603V11.192C63.9603 10.282 63.4423 9.708 62.6023 9.708C61.7623 9.708 61.2303 10.282 61.2303 11.192V15H59.5223ZM70.5845 15V6.026H72.3345V13.348H76.7165V15H70.5845ZM80.3685 15.182C78.6045 15.182 77.1625 13.74 77.1625 11.64C77.1625 9.624 78.5205 8.112 80.3685 8.112C81.2785 8.112 81.9785 8.518 82.4265 9.176V8.294H84.1345V15H82.4265V14.048C81.9785 14.734 81.2785 15.182 80.3685 15.182ZM80.6485 13.586C81.6845 13.586 82.4265 12.718 82.4265 11.64C82.4265 10.562 81.6845 9.708 80.6485 9.708C79.6125 9.708 78.8705 10.562 78.8705 11.64C78.8705 12.718 79.6125 13.586 80.6485 13.586ZM89.7981 8.112C91.5621 8.112 93.0181 9.554 93.0181 11.654C93.0181 13.67 91.6601 15.182 89.7981 15.182C88.8881 15.182 88.1881 14.776 87.7401 14.104V15H86.0321V5.368H87.7401V9.246C88.1881 8.56 88.8881 8.112 89.7981 8.112ZM89.5321 9.708C88.4961 9.708 87.7401 10.576 87.7401 11.654C87.7401 12.732 88.4961 13.586 89.5321 13.586C90.5541 13.586 91.3101 12.732 91.3101 11.654C91.3101 10.576 90.5541 9.708 89.5321 9.708ZM97.6316 15.182C95.5456 15.182 94.0336 13.6 94.0336 11.64C94.0336 9.694 95.4756 8.112 97.4076 8.112C99.3256 8.112 100.796 9.582 100.796 11.514C100.796 11.738 100.782 12.004 100.754 12.116H95.7836C95.9656 13.04 96.6656 13.684 97.6876 13.684C98.3736 13.684 98.9476 13.39 99.3396 12.984L100.222 14.16C99.7036 14.734 98.7516 15.182 97.6316 15.182ZM97.4356 9.554C96.6236 9.554 96.0356 10.114 95.8256 10.926H99.0316C98.8216 10.03 98.2196 9.554 97.4356 9.554ZM104.755 13.516L104.937 15.014C104.685 15.098 104.363 15.154 104.111 15.154C103.145 15.154 102.165 14.538 102.165 12.83V5.368H103.873V12.872C103.873 13.39 104.167 13.586 104.475 13.586C104.559 13.586 104.671 13.558 104.755 13.516Z" fill="black"/>
<path fill-rule="evenodd" clip-rule="evenodd" d="M110 11C110 6.58854 113.589 3 118 3C122.411 3 126 6.58854 126 11C126 15.4115 122.411 19 118 19C113.589 19 110 15.4115 110 11ZM124.769 11C124.769 7.25312 121.747 4.23077 118 4.23077C114.253 4.23077 111.231 7.25312 111.231 11C111.231 14.7469 114.253 17.7692 118 17.7692C121.747 17.7692 124.769 14.7469 124.769 11ZM118.923 14.3846C118.923 14.8944 118.51 15.3077 118 15.3077C117.49 15.3077 117.077 14.8944 117.077 14.3846C117.077 13.8748 117.49 13.4615 118 13.4615C118.51 13.4615 118.923 13.8748 118.923 14.3846ZM115.231 9.42735C115.231 7.92361 116.477 6.69231 118 6.69231C119.523 6.69231 120.769 7.92361 120.769 9.42735C120.769 10.5358 120.039 11.5347 118.974 11.8846L118.692 11.9701V12.8462H117.308V11.9701C117.308 11.3851 117.694 10.851 118.26 10.6667L118.541 10.5812C119.044 10.4156 119.385 9.95086 119.385 9.42735C119.385 8.66346 118.773 8.05983 118 8.05983C117.227 8.05983 116.615 8.66346 116.615 9.42735H115.231Z" fill="#1355E9"/>
<rect x="0.5" y="26.5" width="229" height="43" rx="7.5" fill="white"/>
<rect x="0.5" y="26.5" width="229" height="43" rx="7.5" stroke="#EBEBEB"/>
<path d="M13.022 52V43.04H16.018C18.972 43.04 21.086 44.902 21.086 47.52C21.086 50.138 19 52 16.074 52H13.022ZM16.004 44.678H14.828V50.348H16.018C17.936 50.348 19.21 49.228 19.21 47.52C19.21 45.798 17.936 44.678 16.004 44.678ZM25.7683 52.182C23.6823 52.182 22.1703 50.6 22.1703 48.64C22.1703 46.694 23.6123 45.112 25.5443 45.112C27.4623 45.112 28.9323 46.582 28.9323 48.514C28.9323 48.738 28.9183 49.004 28.8903 49.116H23.9203C24.1023 50.04 24.8023 50.684 25.8243 50.684C26.5103 50.684 27.0843 50.39 27.4763 49.984L28.3583 51.16C27.8403 51.734 26.8883 52.182 25.7683 52.182ZM25.5723 46.554C24.7603 46.554 24.1723 47.114 23.9623 47.926H27.1683C26.9583 47.03 26.3563 46.554 25.5723 46.554ZM29.6996 46.806V45.294H30.7916V44.902C30.7916 43.208 31.7576 42.186 33.2556 42.186C34.1656 42.186 34.7536 42.438 35.1876 42.872L34.3476 44.16C34.1516 43.95 33.7876 43.782 33.4236 43.782C32.8636 43.782 32.5136 44.16 32.5136 44.888V45.294H34.2496V46.806H32.5136V52H30.7916V46.806H29.6996ZM37.9135 52.182C36.1495 52.182 34.7075 50.74 34.7075 48.64C34.7075 46.624 36.0655 45.112 37.9135 45.112C38.8235 45.112 39.5235 45.518 39.9715 46.176V45.294H41.6795V52H39.9715V51.048C39.5235 51.734 38.8235 52.182 37.9135 52.182ZM38.1935 50.586C39.2295 50.586 39.9715 49.718 39.9715 48.64C39.9715 47.562 39.2295 46.708 38.1935 46.708C37.1575 46.708 36.4155 47.562 36.4155 48.64C36.4155 49.718 37.1575 50.586 38.1935 50.586ZM45.201 45.294V48.92C45.201 49.9 45.761 50.558 46.615 50.558C47.469 50.558 48.043 49.9 48.043 48.92V45.294H49.765V49.046C49.765 50.922 48.505 52.168 46.615 52.168C44.725 52.168 43.493 50.922 43.493 49.046V45.294H45.201ZM54.165 50.516L54.347 52.014C54.095 52.098 53.773 52.154 53.521 52.154C52.555 52.154 51.575 51.538 51.575 49.83V42.368H53.283V49.872C53.283 50.39 53.577 50.586 53.885 50.586C53.969 50.586 54.081 50.558 54.165 50.516ZM55.0863 46.806V45.294H56.2623V43.558H57.9843V45.294H59.7903V46.806H57.9983V49.662C57.9983 50.292 58.2503 50.586 58.7543 50.586C59.0763 50.586 59.3843 50.446 59.5523 50.25L60.3083 51.524C59.9443 51.888 59.3143 52.182 58.4883 52.182C57.1303 52.182 56.2623 51.342 56.2623 49.704V46.806H55.0863ZM68.6963 42.844C71.2583 42.844 73.3443 44.944 73.3443 47.534C73.3443 50.096 71.2583 52.182 68.6963 52.182C66.1343 52.182 64.0483 50.082 64.0483 47.52C64.0483 44.93 66.1343 42.844 68.6963 42.844ZM68.6963 50.446C70.2363 50.446 71.4823 49.13 71.4823 47.534C71.4823 45.91 70.2363 44.58 68.6963 44.58C67.1563 44.58 65.9243 45.896 65.9243 47.52C65.9243 49.13 67.1563 50.446 68.6963 50.446ZM76.5663 54.744H74.8583V45.294H76.5663V46.246C77.0143 45.56 77.7143 45.112 78.6243 45.112C80.3883 45.112 81.8443 46.554 81.8443 48.654C81.8443 50.67 80.4863 52.182 78.6243 52.182C77.7143 52.182 77.0143 51.776 76.5663 51.104V54.744ZM78.3583 50.586C79.3803 50.586 80.1363 49.732 80.1363 48.654C80.1363 47.576 79.3803 46.708 78.3583 46.708C77.3223 46.708 76.5663 47.576 76.5663 48.654C76.5663 49.732 77.3223 50.586 78.3583 50.586ZM82.6078 46.806V45.294H83.7838V43.558H85.5058V45.294H87.3118V46.806H85.5198V49.662C85.5198 50.292 85.7718 50.586 86.2758 50.586C86.5978 50.586 86.9058 50.446 87.0738 50.25L87.8298 51.524C87.4658 51.888 86.8358 52.182 86.0098 52.182C84.6518 52.182 83.7838 51.342 83.7838 49.704V46.806H82.6078ZM89.8216 44.398C89.2616 44.398 88.8276 43.95 88.8276 43.39C88.8276 42.844 89.2616 42.396 89.8216 42.396C90.3676 42.396 90.8296 42.844 90.8296 43.39C90.8296 43.95 90.3676 44.398 89.8216 44.398ZM90.6756 52H88.9676V45.294H90.6756V52ZM95.6427 52.182C93.6967 52.182 92.1567 50.6 92.1567 48.64C92.1567 46.694 93.6967 45.112 95.6427 45.112C97.5887 45.112 99.1287 46.694 99.1287 48.64C99.1287 50.6 97.5887 52.182 95.6427 52.182ZM95.6427 50.586C96.6787 50.586 97.4207 49.718 97.4207 48.64C97.4207 47.562 96.6787 46.708 95.6427 46.708C94.6067 46.708 93.8647 47.562 93.8647 48.64C93.8647 49.718 94.6067 50.586 95.6427 50.586ZM100.602 52V45.294H102.31V46.246C102.66 45.532 103.332 45.112 104.214 45.112C105.754 45.112 106.748 46.19 106.748 47.94V52H105.04V48.192C105.04 47.282 104.522 46.708 103.682 46.708C102.842 46.708 102.31 47.282 102.31 48.192V52H100.602Z" fill="black"/>
<path d="M212 51L207 45.9524L208 45L212 49.2857L216 45L217 45.9524L212 51Z" fill="black"/>
</svg>
