<svg width="312" height="200" viewBox="0 0 312 200" fill="none" xmlns="http://www.w3.org/2000/svg">
<path d="M80 68C80 55.8497 89.8497 46 102 46H210C222.15 46 232 55.8497 232 68C232 80.1503 222.15 90 210 90H102C89.8497 90 80 80.1503 80 68Z" fill="#1355E9"/>
<path d="M132.212 73.016C131.732 72.888 131.124 72.584 130.34 72.072L131.204 70.392C132.068 70.936 133.316 71.32 134.324 71.32C135.332 71.32 136.084 70.952 136.084 70.136C136.084 68.312 130.692 69.176 130.692 65.544C130.692 63.64 132.436 62.52 134.516 62.52C135.812 62.52 137.028 62.872 137.972 63.592L136.996 65.176C136.34 64.744 135.316 64.392 134.42 64.392C133.492 64.392 132.836 64.824 132.836 65.496C132.836 67.368 138.212 66.536 138.212 70.024C138.212 72.136 136.356 73.208 134.18 73.208C133.332 73.208 132.676 73.144 132.212 73.016ZM141.678 65.336V69.48C141.678 70.6 142.318 71.352 143.294 71.352C144.27 71.352 144.926 70.6 144.926 69.48V65.336H146.894V69.624C146.894 71.768 145.454 73.192 143.294 73.192C141.134 73.192 139.726 71.768 139.726 69.624V65.336H141.678ZM153.267 65.128C155.283 65.128 156.947 66.776 156.947 69.176C156.947 71.48 155.395 73.208 153.267 73.208C152.227 73.208 151.427 72.744 150.915 71.976V73H148.963V61.992H150.915V66.424C151.427 65.64 152.227 65.128 153.267 65.128ZM152.963 66.952C151.779 66.952 150.915 67.944 150.915 69.176C150.915 70.408 151.779 71.384 152.963 71.384C154.131 71.384 154.995 70.408 154.995 69.176C154.995 67.944 154.131 66.952 152.963 66.952ZM160.556 73H158.604V65.336H160.556V66.504C160.956 65.672 161.708 65.128 162.716 65.128C163.884 65.128 164.78 65.704 165.228 66.728C165.628 65.816 166.364 65.128 167.58 65.128C169.356 65.128 170.524 66.312 170.524 68.36V73H168.556V68.648C168.556 67.608 167.98 66.952 167.052 66.952C166.124 66.952 165.532 67.608 165.532 68.648V73H163.58V68.648C163.58 67.608 163.004 66.952 162.076 66.952C161.148 66.952 160.556 67.608 160.556 68.648V73ZM173.595 64.312C172.955 64.312 172.459 63.8 172.459 63.16C172.459 62.536 172.955 62.024 173.595 62.024C174.219 62.024 174.747 62.536 174.747 63.16C174.747 63.8 174.219 64.312 173.595 64.312ZM174.571 73H172.619V65.336H174.571V73ZM175.976 67.064V65.336H177.32V63.352H179.288V65.336H181.352V67.064H179.304V70.328C179.304 71.048 179.592 71.384 180.168 71.384C180.536 71.384 180.888 71.224 181.08 71L181.944 72.456C181.528 72.872 180.808 73.208 179.864 73.208C178.312 73.208 177.32 72.248 177.32 70.376V67.064H175.976Z" fill="white"/>
<path d="M116 134C116 122.954 124.954 114 136 114H176C187.046 114 196 122.954 196 134C196 145.046 187.046 154 176 154H136C124.954 154 116 145.046 116 134Z" fill="#1355E9"/>
<path d="M138.159 138.012C137.799 137.916 137.343 137.688 136.755 137.304L137.403 136.044C138.051 136.452 138.987 136.74 139.743 136.74C140.499 136.74 141.063 136.464 141.063 135.852C141.063 134.484 137.019 135.132 137.019 132.408C137.019 130.98 138.327 130.14 139.887 130.14C140.859 130.14 141.771 130.404 142.479 130.944L141.747 132.132C141.255 131.808 140.487 131.544 139.815 131.544C139.119 131.544 138.627 131.868 138.627 132.372C138.627 133.776 142.659 133.152 142.659 135.768C142.659 137.352 141.267 138.156 139.635 138.156C138.999 138.156 138.507 138.108 138.159 138.012ZM145.259 132.252V135.36C145.259 136.2 145.739 136.764 146.471 136.764C147.203 136.764 147.695 136.2 147.695 135.36V132.252H149.171V135.468C149.171 137.076 148.091 138.144 146.471 138.144C144.851 138.144 143.795 137.076 143.795 135.468V132.252H145.259ZM153.95 132.096C155.462 132.096 156.71 133.332 156.71 135.132C156.71 136.86 155.546 138.156 153.95 138.156C153.17 138.156 152.57 137.808 152.186 137.232V138H150.722V129.744H152.186V133.068C152.57 132.48 153.17 132.096 153.95 132.096ZM153.722 133.464C152.834 133.464 152.186 134.208 152.186 135.132C152.186 136.056 152.834 136.788 153.722 136.788C154.598 136.788 155.246 136.056 155.246 135.132C155.246 134.208 154.598 133.464 153.722 133.464ZM159.417 138H157.953V132.252H159.417V133.128C159.717 132.504 160.281 132.096 161.037 132.096C161.913 132.096 162.585 132.528 162.921 133.296C163.221 132.612 163.773 132.096 164.685 132.096C166.017 132.096 166.893 132.984 166.893 134.52V138H165.417V134.736C165.417 133.956 164.985 133.464 164.289 133.464C163.593 133.464 163.149 133.956 163.149 134.736V138H161.685V134.736C161.685 133.956 161.253 133.464 160.557 133.464C159.861 133.464 159.417 133.956 159.417 134.736V138ZM169.196 131.484C168.716 131.484 168.344 131.1 168.344 130.62C168.344 130.152 168.716 129.768 169.196 129.768C169.664 129.768 170.06 130.152 170.06 130.62C170.06 131.1 169.664 131.484 169.196 131.484ZM169.928 138H168.464V132.252H169.928V138ZM170.982 133.548V132.252H171.99V130.764H173.466V132.252H175.014V133.548H173.478V135.996C173.478 136.536 173.694 136.788 174.126 136.788C174.402 136.788 174.666 136.668 174.81 136.5L175.458 137.592C175.146 137.904 174.606 138.156 173.898 138.156C172.734 138.156 171.99 137.436 171.99 136.032V133.548H170.982Z" fill="white"/>
</svg>
