<svg width="312" height="228" viewBox="0 0 312 228" fill="none" xmlns="http://www.w3.org/2000/svg">
<path d="M24 46C24 33.8497 33.8497 24 46 24H266C278.15 24 288 33.8497 288 46C288 58.1503 278.15 68 266 68H46C33.8497 68 24 58.1503 24 46Z" fill="#131331"/>
<path d="M137.957 51V40.744H141.621C144.101 40.744 145.733 42.088 145.733 44.136C145.733 46.2 144.085 47.56 141.589 47.56H139.957V51H137.957ZM141.781 42.52H139.957V45.784H141.781C142.885 45.784 143.621 45.128 143.621 44.136C143.621 43.16 142.885 42.52 141.781 42.52ZM147.299 51V43.336H149.251V44.472C149.619 43.656 150.275 43.128 151.139 43.128C151.651 43.128 152.067 43.256 152.355 43.496L151.555 45.336C151.299 45.144 150.915 45.016 150.531 45.016C149.763 45.016 149.251 45.672 149.251 46.712V51H147.299ZM156.665 51.208C154.281 51.208 152.553 49.4 152.553 47.16C152.553 44.936 154.201 43.128 156.409 43.128C158.601 43.128 160.281 44.808 160.281 47.016C160.281 47.272 160.265 47.576 160.233 47.704H154.553C154.761 48.76 155.561 49.496 156.729 49.496C157.513 49.496 158.169 49.16 158.617 48.696L159.625 50.04C159.033 50.696 157.945 51.208 156.665 51.208ZM156.441 44.776C155.513 44.776 154.841 45.416 154.601 46.344H158.265C158.025 45.32 157.337 44.776 156.441 44.776ZM164.151 51.208C162.919 51.208 161.911 50.888 161.159 50.472L161.783 48.968C162.663 49.384 163.399 49.608 164.247 49.608C165.111 49.608 165.511 49.304 165.511 48.856C165.511 47.48 161.383 48.296 161.383 45.4C161.383 44.248 162.407 43.128 164.375 43.128C165.447 43.128 166.263 43.352 167.239 43.816L166.519 45.272C165.975 44.968 165.159 44.728 164.535 44.728C163.799 44.728 163.351 44.968 163.351 45.384C163.351 46.792 167.447 45.912 167.447 48.824C167.447 50.152 166.263 51.208 164.151 51.208ZM171.401 51.208C170.169 51.208 169.161 50.888 168.409 50.472L169.033 48.968C169.913 49.384 170.649 49.608 171.497 49.608C172.361 49.608 172.761 49.304 172.761 48.856C172.761 47.48 168.633 48.296 168.633 45.4C168.633 44.248 169.657 43.128 171.625 43.128C172.697 43.128 173.513 43.352 174.489 43.816L173.769 45.272C173.225 44.968 172.409 44.728 171.785 44.728C171.049 44.728 170.601 44.968 170.601 45.384C170.601 46.792 174.697 45.912 174.697 48.824C174.697 50.152 173.513 51.208 171.401 51.208Z" fill="white"/>
<path d="M24.5 114C24.5 102.126 34.1259 92.5 46 92.5H266C277.874 92.5 287.5 102.126 287.5 114C287.5 125.874 277.874 135.5 266 135.5H46C34.1259 135.5 24.5 125.874 24.5 114Z" fill="white"/>
<path d="M24.5 114C24.5 102.126 34.1259 92.5 46 92.5H266C277.874 92.5 287.5 102.126 287.5 114C287.5 125.874 277.874 135.5 266 135.5H46C34.1259 135.5 24.5 125.874 24.5 114Z" stroke="#131331"/>
<path d="M137.957 119V108.744H141.621C144.101 108.744 145.733 110.088 145.733 112.136C145.733 114.2 144.085 115.56 141.589 115.56H139.957V119H137.957ZM141.781 110.52H139.957V113.784H141.781C142.885 113.784 143.621 113.128 143.621 112.136C143.621 111.16 142.885 110.52 141.781 110.52ZM147.299 119V111.336H149.251V112.472C149.619 111.656 150.275 111.128 151.139 111.128C151.651 111.128 152.067 111.256 152.355 111.496L151.555 113.336C151.299 113.144 150.915 113.016 150.531 113.016C149.763 113.016 149.251 113.672 149.251 114.712V119H147.299ZM156.665 119.208C154.281 119.208 152.553 117.4 152.553 115.16C152.553 112.936 154.201 111.128 156.409 111.128C158.601 111.128 160.281 112.808 160.281 115.016C160.281 115.272 160.265 115.576 160.233 115.704H154.553C154.761 116.76 155.561 117.496 156.729 117.496C157.513 117.496 158.169 117.16 158.617 116.696L159.625 118.04C159.033 118.696 157.945 119.208 156.665 119.208ZM156.441 112.776C155.513 112.776 154.841 113.416 154.601 114.344H158.265C158.025 113.32 157.337 112.776 156.441 112.776ZM164.151 119.208C162.919 119.208 161.911 118.888 161.159 118.472L161.783 116.968C162.663 117.384 163.399 117.608 164.247 117.608C165.111 117.608 165.511 117.304 165.511 116.856C165.511 115.48 161.383 116.296 161.383 113.4C161.383 112.248 162.407 111.128 164.375 111.128C165.447 111.128 166.263 111.352 167.239 111.816L166.519 113.272C165.975 112.968 165.159 112.728 164.535 112.728C163.799 112.728 163.351 112.968 163.351 113.384C163.351 114.792 167.447 113.912 167.447 116.824C167.447 118.152 166.263 119.208 164.151 119.208ZM171.401 119.208C170.169 119.208 169.161 118.888 168.409 118.472L169.033 116.968C169.913 117.384 170.649 117.608 171.497 117.608C172.361 117.608 172.761 117.304 172.761 116.856C172.761 115.48 168.633 116.296 168.633 113.4C168.633 112.248 169.657 111.128 171.625 111.128C172.697 111.128 173.513 111.352 174.489 111.816L173.769 113.272C173.225 112.968 172.409 112.728 171.785 112.728C171.049 112.728 170.601 112.968 170.601 113.384C170.601 114.792 174.697 113.912 174.697 116.824C174.697 118.152 173.513 119.208 171.401 119.208Z" fill="#131331"/>
<path d="M137.957 187V176.744H141.621C144.101 176.744 145.733 178.088 145.733 180.136C145.733 182.2 144.085 183.56 141.589 183.56H139.957V187H137.957ZM141.781 178.52H139.957V181.784H141.781C142.885 181.784 143.621 181.128 143.621 180.136C143.621 179.16 142.885 178.52 141.781 178.52ZM147.299 187V179.336H149.251V180.472C149.619 179.656 150.275 179.128 151.139 179.128C151.651 179.128 152.067 179.256 152.355 179.496L151.555 181.336C151.299 181.144 150.915 181.016 150.531 181.016C149.763 181.016 149.251 181.672 149.251 182.712V187H147.299ZM156.665 187.208C154.281 187.208 152.553 185.4 152.553 183.16C152.553 180.936 154.201 179.128 156.409 179.128C158.601 179.128 160.281 180.808 160.281 183.016C160.281 183.272 160.265 183.576 160.233 183.704H154.553C154.761 184.76 155.561 185.496 156.729 185.496C157.513 185.496 158.169 185.16 158.617 184.696L159.625 186.04C159.033 186.696 157.945 187.208 156.665 187.208ZM156.441 180.776C155.513 180.776 154.841 181.416 154.601 182.344H158.265C158.025 181.32 157.337 180.776 156.441 180.776ZM164.151 187.208C162.919 187.208 161.911 186.888 161.159 186.472L161.783 184.968C162.663 185.384 163.399 185.608 164.247 185.608C165.111 185.608 165.511 185.304 165.511 184.856C165.511 183.48 161.383 184.296 161.383 181.4C161.383 180.248 162.407 179.128 164.375 179.128C165.447 179.128 166.263 179.352 167.239 179.816L166.519 181.272C165.975 180.968 165.159 180.728 164.535 180.728C163.799 180.728 163.351 180.968 163.351 181.384C163.351 182.792 167.447 181.912 167.447 184.824C167.447 186.152 166.263 187.208 164.151 187.208ZM171.401 187.208C170.169 187.208 169.161 186.888 168.409 186.472L169.033 184.968C169.913 185.384 170.649 185.608 171.497 185.608C172.361 185.608 172.761 185.304 172.761 184.856C172.761 183.48 168.633 184.296 168.633 181.4C168.633 180.248 169.657 179.128 171.625 179.128C172.697 179.128 173.513 179.352 174.489 179.816L173.769 181.272C173.225 180.968 172.409 180.728 171.785 180.728C171.049 180.728 170.601 180.968 170.601 181.384C170.601 182.792 174.697 181.912 174.697 184.824C174.697 186.152 173.513 187.208 171.401 187.208Z" fill="#131331"/>
<path d="M136.789 189H175.209V189.8H136.789V189Z" fill="#131331"/>
</svg>
