<svg width="312" height="92" viewBox="0 0 312 92" fill="none" xmlns="http://www.w3.org/2000/svg">
<path d="M24 46C24 33.8497 33.8497 24 46 24H266C278.15 24 288 33.8497 288 46C288 58.1503 278.15 68 266 68H46C33.8497 68 24 58.1503 24 46Z" fill="#1355E9"/>
<path d="M136.704 41.928L135.376 43.464C134.784 42.92 133.952 42.52 132.928 42.52C131.184 42.52 129.792 44.024 129.792 45.88C129.792 47.72 131.184 49.224 133.056 49.224C133.936 49.224 134.816 48.888 135.392 48.296L136.704 49.768C135.808 50.76 134.576 51.208 132.928 51.208C129.936 51.208 127.648 48.808 127.648 45.88C127.648 42.92 130.016 40.536 132.912 40.536C134.64 40.536 135.856 41.064 136.704 41.928ZM141.287 51.208C139.063 51.208 137.303 49.4 137.303 47.16C137.303 44.936 139.063 43.128 141.287 43.128C143.511 43.128 145.271 44.936 145.271 47.16C145.271 49.4 143.511 51.208 141.287 51.208ZM141.287 49.384C142.471 49.384 143.319 48.392 143.319 47.16C143.319 45.928 142.471 44.952 141.287 44.952C140.103 44.952 139.255 45.928 139.255 47.16C139.255 48.392 140.103 49.384 141.287 49.384ZM146.955 51V43.336H148.907V44.424C149.307 43.608 150.075 43.128 151.083 43.128C152.843 43.128 153.979 44.36 153.979 46.36V51H152.027V46.648C152.027 45.608 151.435 44.952 150.475 44.952C149.515 44.952 148.907 45.608 148.907 46.648V51H146.955ZM155.408 45.064V43.336H156.656V43.192C156.656 41.08 158.048 39.784 160.4 39.784C161.888 39.784 162.896 40.2 163.616 40.808L162.64 42.344C162.144 41.896 161.312 41.608 160.512 41.608C159.328 41.608 158.624 42.136 158.624 43.24V43.336H163.504V51H161.552V45.064H158.624V51H156.656V45.064H155.408ZM165.674 51V43.336H167.626V44.472C167.994 43.656 168.65 43.128 169.514 43.128C170.026 43.128 170.442 43.256 170.73 43.496L169.93 45.336C169.674 45.144 169.29 45.016 168.906 45.016C168.138 45.016 167.626 45.672 167.626 46.712V51H165.674ZM174.017 51H172.065V43.336H174.017V44.504C174.417 43.672 175.169 43.128 176.177 43.128C177.345 43.128 178.241 43.704 178.689 44.728C179.089 43.816 179.825 43.128 181.041 43.128C182.817 43.128 183.985 44.312 183.985 46.36V51H182.017V46.648C182.017 45.608 181.441 44.952 180.513 44.952C179.585 44.952 178.993 45.608 178.993 46.648V51H177.041V46.648C177.041 45.608 176.465 44.952 175.537 44.952C174.609 44.952 174.017 45.608 174.017 46.648V51Z" fill="white"/>
</svg>
