<svg width="312" height="200" viewBox="0 0 312 200" fill="none" xmlns="http://www.w3.org/2000/svg">
<path d="M58.5 100C58.5 87.8497 68.3497 78 80.5 78H231.5C243.65 78 253.5 87.8497 253.5 100C253.5 112.15 243.65 122 231.5 122H80.5C68.3497 122 58.5 112.15 58.5 100Z" fill="#1355E9"/>
<path d="M92.2038 95.928L90.8758 97.464C90.2838 96.92 89.4518 96.52 88.4278 96.52C86.6838 96.52 85.2918 98.024 85.2918 99.88C85.2918 101.72 86.6838 103.224 88.5558 103.224C89.4358 103.224 90.3158 102.888 90.8918 102.296L92.2038 103.768C91.3078 104.76 90.0758 105.208 88.4278 105.208C85.4358 105.208 83.1478 102.808 83.1478 99.88C83.1478 96.92 85.5158 94.536 88.4118 94.536C90.1398 94.536 91.3558 95.064 92.2038 95.928ZM96.5714 103.304L96.7794 105.016C96.4914 105.112 96.1234 105.176 95.8354 105.176C94.7314 105.176 93.6114 104.472 93.6114 102.52V93.992H95.5634V102.568C95.5634 103.16 95.8994 103.384 96.2514 103.384C96.3474 103.384 96.4754 103.352 96.5714 103.304ZM99.3843 96.312C98.7443 96.312 98.2483 95.8 98.2483 95.16C98.2483 94.536 98.7443 94.024 99.3843 94.024C100.008 94.024 100.536 94.536 100.536 95.16C100.536 95.8 100.008 96.312 99.3843 96.312ZM100.36 105H98.4083V97.336H100.36V105ZM107.957 99.656C107.461 99.192 106.901 98.952 106.133 98.952C104.853 98.952 104.005 99.928 104.005 101.16C104.005 102.392 104.869 103.384 106.133 103.384C106.901 103.384 107.525 103.112 108.021 102.632L109.013 104.072C108.405 104.744 107.285 105.208 106.085 105.208C103.797 105.208 102.053 103.4 102.053 101.16C102.053 98.936 103.813 97.128 106.053 97.128C107.349 97.128 108.389 97.56 109.077 98.264L107.957 99.656ZM112.313 105H110.361V93.992H112.313V100.504L115.353 97.336H117.769L114.409 100.824L118.105 105H115.609L112.313 101.208V105ZM122.549 105V93.992H124.501V98.424C124.901 97.608 125.669 97.128 126.677 97.128C128.437 97.128 129.573 98.36 129.573 100.36V105H127.621V100.648C127.621 99.608 127.029 98.952 126.069 98.952C125.109 98.952 124.501 99.608 124.501 100.648V105H122.549ZM135.306 105.208C132.922 105.208 131.194 103.4 131.194 101.16C131.194 98.936 132.842 97.128 135.05 97.128C137.242 97.128 138.922 98.808 138.922 101.016C138.922 101.272 138.906 101.576 138.874 101.704H133.194C133.402 102.76 134.202 103.496 135.37 103.496C136.154 103.496 136.81 103.16 137.258 102.696L138.266 104.04C137.674 104.696 136.586 105.208 135.306 105.208ZM135.082 98.776C134.154 98.776 133.482 99.416 133.242 100.344H136.906C136.666 99.32 135.978 98.776 135.082 98.776ZM140.486 105V97.336H142.438V98.472C142.806 97.656 143.462 97.128 144.326 97.128C144.838 97.128 145.254 97.256 145.542 97.496L144.742 99.336C144.486 99.144 144.102 99.016 143.718 99.016C142.95 99.016 142.438 99.672 142.438 100.712V105H140.486ZM149.852 105.208C147.468 105.208 145.74 103.4 145.74 101.16C145.74 98.936 147.388 97.128 149.596 97.128C151.788 97.128 153.468 98.808 153.468 101.016C153.468 101.272 153.452 101.576 153.42 101.704H147.74C147.948 102.76 148.748 103.496 149.916 103.496C150.7 103.496 151.356 103.16 151.804 102.696L152.812 104.04C152.22 104.696 151.132 105.208 149.852 105.208ZM149.628 98.776C148.7 98.776 148.028 99.416 147.788 100.344H151.452C151.212 99.32 150.524 98.776 149.628 98.776ZM157.671 99.064V97.336H159.015V95.352H160.983V97.336H163.047V99.064H160.999V102.328C160.999 103.048 161.287 103.384 161.863 103.384C162.231 103.384 162.583 103.224 162.775 103L163.639 104.456C163.223 104.872 162.503 105.208 161.559 105.208C160.007 105.208 159.015 104.248 159.015 102.376V99.064H157.671ZM168.053 105.208C165.829 105.208 164.069 103.4 164.069 101.16C164.069 98.936 165.829 97.128 168.053 97.128C170.277 97.128 172.037 98.936 172.037 101.16C172.037 103.4 170.277 105.208 168.053 105.208ZM168.053 103.384C169.237 103.384 170.085 102.392 170.085 101.16C170.085 99.928 169.237 98.952 168.053 98.952C166.869 98.952 166.021 99.928 166.021 101.16C166.021 102.392 166.869 103.384 168.053 103.384ZM176.455 99.064V97.336H177.703V97.192C177.703 95.08 179.095 93.784 181.447 93.784C182.935 93.784 183.943 94.2 184.663 94.808L183.687 96.344C183.191 95.896 182.359 95.608 181.559 95.608C180.375 95.608 179.671 96.136 179.671 97.24V97.336H184.551V105H182.599V99.064H179.671V105H177.703V99.064H176.455ZM186.721 105V97.336H188.673V98.424C189.073 97.608 189.841 97.128 190.849 97.128C192.609 97.128 193.745 98.36 193.745 100.36V105H191.793V100.648C191.793 99.608 191.201 98.952 190.241 98.952C189.281 98.952 188.673 99.608 188.673 100.648V105H186.721ZM199.029 105.208C197.013 105.208 195.365 103.56 195.365 101.16C195.365 98.856 196.917 97.128 199.029 97.128C200.069 97.128 200.869 97.592 201.381 98.344V97.336H203.333V105H201.381V103.912C200.869 104.696 200.069 105.208 199.029 105.208ZM199.349 103.384C200.533 103.384 201.381 102.392 201.381 101.16C201.381 99.928 200.533 98.952 199.349 98.952C198.165 98.952 197.317 99.928 197.317 101.16C197.317 102.392 198.165 103.384 199.349 103.384ZM208.462 103.304L208.67 105.016C208.382 105.112 208.014 105.176 207.726 105.176C206.622 105.176 205.502 104.472 205.502 102.52V93.992H207.454V102.568C207.454 103.16 207.79 103.384 208.142 103.384C208.238 103.384 208.366 103.352 208.462 103.304ZM211.275 96.312C210.635 96.312 210.139 95.8 210.139 95.16C210.139 94.536 210.635 94.024 211.275 94.024C211.899 94.024 212.427 94.536 212.427 95.16C212.427 95.8 211.899 96.312 211.275 96.312ZM212.251 105H210.299V97.336H212.251V105ZM213.96 103.272L217.752 99.064H214.088V97.336H220.28V99.064L216.488 103.272H220.408V105H213.96V103.272ZM225.399 105.208C223.015 105.208 221.287 103.4 221.287 101.16C221.287 98.936 222.935 97.128 225.143 97.128C227.335 97.128 229.015 98.808 229.015 101.016C229.015 101.272 228.999 101.576 228.967 101.704H223.287C223.495 102.76 224.295 103.496 225.463 103.496C226.247 103.496 226.903 103.16 227.351 102.696L228.359 104.04C227.767 104.696 226.679 105.208 225.399 105.208ZM225.175 98.776C224.247 98.776 223.575 99.416 223.335 100.344H226.999C226.759 99.32 226.071 98.776 225.175 98.776Z" fill="white"/>
</svg>
