<svg width="104" height="44" viewBox="0 0 104 44" fill="none" xmlns="http://www.w3.org/2000/svg">
<path d="M0 22C0 9.84974 9.84974 0 22 0H82C94.1503 0 104 9.84974 104 22V22C104 34.1503 94.1503 44 82 44H22C9.84973 44 0 34.1503 0 22V22Z" fill="#1355E9"/>
<path d="M25.4571 27V16.76H28.8811C32.2571 16.76 34.6731 18.888 34.6731 21.88C34.6731 24.872 32.2891 27 28.9451 27H25.4571ZM28.8651 18.632H27.5211V25.112H28.8811C31.0731 25.112 32.5291 23.832 32.5291 21.88C32.5291 19.912 31.0731 18.632 28.8651 18.632ZM40.0243 27.208C37.6403 27.208 35.9123 25.4 35.9123 23.16C35.9123 20.936 37.5603 19.128 39.7683 19.128C41.9603 19.128 43.6403 20.808 43.6403 23.016C43.6403 23.272 43.6243 23.576 43.5923 23.704H37.9123C38.1203 24.76 38.9203 25.496 40.0883 25.496C40.8723 25.496 41.5283 25.16 41.9763 24.696L42.9843 26.04C42.3923 26.696 41.3043 27.208 40.0243 27.208ZM39.8003 20.776C38.8723 20.776 38.2003 21.416 37.9603 22.344H41.6243C41.3843 21.32 40.6963 20.776 39.8003 20.776ZM44.5172 21.064V19.336H45.7652V18.888C45.7652 16.952 46.8692 15.784 48.5812 15.784C49.6212 15.784 50.2932 16.072 50.7892 16.568L49.8292 18.04C49.6052 17.8 49.1892 17.608 48.7732 17.608C48.1332 17.608 47.7332 18.04 47.7332 18.872V19.336H49.7172V21.064H47.7332V27H45.7652V21.064H44.5172ZM53.9044 27.208C51.8884 27.208 50.2404 25.56 50.2404 23.16C50.2404 20.856 51.7924 19.128 53.9044 19.128C54.9444 19.128 55.7444 19.592 56.2564 20.344V19.336H58.2084V27H56.2564V25.912C55.7444 26.696 54.9444 27.208 53.9044 27.208ZM54.2244 25.384C55.4084 25.384 56.2564 24.392 56.2564 23.16C56.2564 21.928 55.4084 20.952 54.2244 20.952C53.0404 20.952 52.1924 21.928 52.1924 23.16C52.1924 24.392 53.0404 25.384 54.2244 25.384ZM62.2331 19.336V23.48C62.2331 24.6 62.8731 25.352 63.8491 25.352C64.8251 25.352 65.4811 24.6 65.4811 23.48V19.336H67.4491V23.624C67.4491 25.768 66.0091 27.192 63.8491 27.192C61.6891 27.192 60.2811 25.768 60.2811 23.624V19.336H62.2331ZM72.4777 25.304L72.6857 27.016C72.3977 27.112 72.0297 27.176 71.7417 27.176C70.6377 27.176 69.5177 26.472 69.5177 24.52V15.992H71.4697V24.568C71.4697 25.16 71.8057 25.384 72.1577 25.384C72.2537 25.384 72.3817 25.352 72.4777 25.304ZM73.5306 21.064V19.336H74.8746V17.352H76.8426V19.336H78.9066V21.064H76.8586V24.328C76.8586 25.048 77.1466 25.384 77.7226 25.384C78.0906 25.384 78.4426 25.224 78.6346 25L79.4986 26.456C79.0826 26.872 78.3626 27.208 77.4186 27.208C75.8666 27.208 74.8746 26.248 74.8746 24.376V21.064H73.5306Z" fill="white"/>
</svg>
