<svg width="648" height="92" viewBox="0 0 648 92" fill="none" xmlns="http://www.w3.org/2000/svg">
<rect x="49" y="24" width="107" height="44" rx="22" fill="#1355E9"/>
<path d="M74.418 51V40.744H78.082C80.562 40.744 82.194 42.088 82.194 44.136C82.194 46.2 80.546 47.56 78.05 47.56H76.418V51H74.418ZM78.242 42.52H76.418V45.784H78.242C79.346 45.784 80.082 45.128 80.082 44.136C80.082 43.16 79.346 42.52 78.242 42.52ZM83.7599 51V43.336H85.7119V44.472C86.0799 43.656 86.7359 43.128 87.5999 43.128C88.1119 43.128 88.5279 43.256 88.8159 43.496L88.0159 45.336C87.7599 45.144 87.3759 45.016 86.9919 45.016C86.2239 45.016 85.7119 45.672 85.7119 46.712V51H83.7599ZM91.1265 42.312C90.4865 42.312 89.9905 41.8 89.9905 41.16C89.9905 40.536 90.4865 40.024 91.1265 40.024C91.7505 40.024 92.2785 40.536 92.2785 41.16C92.2785 41.8 91.7505 42.312 91.1265 42.312ZM92.1025 51H90.1505V43.336H92.1025V51ZM96.2431 51H94.2911V43.336H96.2431V44.504C96.6431 43.672 97.3951 43.128 98.4031 43.128C99.5711 43.128 100.467 43.704 100.915 44.728C101.315 43.816 102.051 43.128 103.267 43.128C105.043 43.128 106.211 44.312 106.211 46.36V51H104.243V46.648C104.243 45.608 103.667 44.952 102.739 44.952C101.811 44.952 101.219 45.608 101.219 46.648V51H99.2671V46.648C99.2671 45.608 98.6911 44.952 97.7631 44.952C96.8351 44.952 96.2431 45.608 96.2431 46.648V51ZM111.475 51.208C109.459 51.208 107.811 49.56 107.811 47.16C107.811 44.856 109.363 43.128 111.475 43.128C112.515 43.128 113.315 43.592 113.827 44.344V43.336H115.779V51H113.827V49.912C113.315 50.696 112.515 51.208 111.475 51.208ZM111.795 49.384C112.979 49.384 113.827 48.392 113.827 47.16C113.827 45.928 112.979 44.952 111.795 44.952C110.611 44.952 109.763 45.928 109.763 47.16C109.763 48.392 110.611 49.384 111.795 49.384ZM117.947 51V43.336H119.899V44.472C120.267 43.656 120.923 43.128 121.787 43.128C122.299 43.128 122.715 43.256 123.003 43.496L122.203 45.336C121.947 45.144 121.563 45.016 121.179 45.016C120.411 45.016 119.899 45.672 119.899 46.712V51H117.947ZM126.786 51.304L126.85 51.112L123.346 43.336H125.49L127.73 48.616L129.57 43.336H131.538L128.402 51.976C127.81 53.656 126.834 54.344 125.554 54.344C124.738 54.344 123.954 54.008 123.458 53.544L124.338 52.008C124.706 52.36 125.122 52.52 125.57 52.52C126.114 52.52 126.466 52.2 126.786 51.304Z" fill="white"/>
<rect x="181" y="25" width="124" height="42" rx="21" fill="white"/>
<rect x="181" y="25" width="124" height="42" rx="21" stroke="#1355E9" stroke-width="2"/>
<path d="M206.516 51.016C206.036 50.888 205.428 50.584 204.644 50.072L205.508 48.392C206.372 48.936 207.62 49.32 208.628 49.32C209.636 49.32 210.388 48.952 210.388 48.136C210.388 46.312 204.996 47.176 204.996 43.544C204.996 41.64 206.74 40.52 208.82 40.52C210.116 40.52 211.332 40.872 212.276 41.592L211.3 43.176C210.644 42.744 209.62 42.392 208.724 42.392C207.796 42.392 207.14 42.824 207.14 43.496C207.14 45.368 212.516 44.536 212.516 48.024C212.516 50.136 210.66 51.208 208.484 51.208C207.636 51.208 206.98 51.144 206.516 51.016ZM217.743 51.208C215.359 51.208 213.631 49.4 213.631 47.16C213.631 44.936 215.279 43.128 217.487 43.128C219.679 43.128 221.359 44.808 221.359 47.016C221.359 47.272 221.343 47.576 221.311 47.704H215.631C215.839 48.76 216.639 49.496 217.807 49.496C218.591 49.496 219.247 49.16 219.695 48.696L220.703 50.04C220.111 50.696 219.023 51.208 217.743 51.208ZM217.519 44.776C216.591 44.776 215.919 45.416 215.679 46.344H219.343C219.103 45.32 218.415 44.776 217.519 44.776ZM228.332 45.656C227.836 45.192 227.276 44.952 226.508 44.952C225.228 44.952 224.38 45.928 224.38 47.16C224.38 48.392 225.244 49.384 226.508 49.384C227.276 49.384 227.9 49.112 228.396 48.632L229.388 50.072C228.78 50.744 227.66 51.208 226.46 51.208C224.172 51.208 222.428 49.4 222.428 47.16C222.428 44.936 224.188 43.128 226.428 43.128C227.724 43.128 228.764 43.56 229.452 44.264L228.332 45.656ZM233.959 51.208C231.735 51.208 229.975 49.4 229.975 47.16C229.975 44.936 231.735 43.128 233.959 43.128C236.183 43.128 237.943 44.936 237.943 47.16C237.943 49.4 236.183 51.208 233.959 51.208ZM233.959 49.384C235.143 49.384 235.991 48.392 235.991 47.16C235.991 45.928 235.143 44.952 233.959 44.952C232.775 44.952 231.927 45.928 231.927 47.16C231.927 48.392 232.775 49.384 233.959 49.384ZM239.627 51V43.336H241.579V44.424C241.979 43.608 242.747 43.128 243.755 43.128C245.515 43.128 246.651 44.36 246.651 46.36V51H244.699V46.648C244.699 45.608 244.107 44.952 243.147 44.952C242.187 44.952 241.579 45.608 241.579 46.648V51H239.627ZM251.936 51.208C249.92 51.208 248.272 49.56 248.272 47.16C248.272 44.856 249.824 43.128 251.936 43.128C252.976 43.128 253.776 43.592 254.288 44.344V39.992H256.24V51H254.288V49.912C253.776 50.696 252.976 51.208 251.936 51.208ZM252.256 49.384C253.44 49.384 254.288 48.392 254.288 47.16C254.288 45.928 253.44 44.952 252.256 44.952C251.072 44.952 250.224 45.928 250.224 47.16C250.224 48.392 251.072 49.384 252.256 49.384ZM261.576 51.208C259.56 51.208 257.912 49.56 257.912 47.16C257.912 44.856 259.464 43.128 261.576 43.128C262.616 43.128 263.416 43.592 263.928 44.344V43.336H265.88V51H263.928V49.912C263.416 50.696 262.616 51.208 261.576 51.208ZM261.896 49.384C263.08 49.384 263.928 48.392 263.928 47.16C263.928 45.928 263.08 44.952 261.896 44.952C260.712 44.952 259.864 45.928 259.864 47.16C259.864 48.392 260.712 49.384 261.896 49.384ZM268.049 51V43.336H270.001V44.472C270.369 43.656 271.025 43.128 271.889 43.128C272.401 43.128 272.817 43.256 273.105 43.496L272.305 45.336C272.049 45.144 271.665 45.016 271.281 45.016C270.513 45.016 270.001 45.672 270.001 46.712V51H268.049ZM276.888 51.304L276.952 51.112L273.448 43.336H275.592L277.832 48.616L279.672 43.336H281.64L278.504 51.976C277.912 53.656 276.936 54.344 275.656 54.344C274.84 54.344 274.056 54.008 273.56 53.544L274.44 52.008C274.808 52.36 275.224 52.52 275.672 52.52C276.216 52.52 276.568 52.2 276.888 51.304Z" fill="#1355E9"/>
<rect x="330" y="24" width="93" height="44" rx="22" fill="white"/>
<path d="M368.016 40.744H370.128L366.88 51H364.368L362.368 43.224L360.352 51H357.936L354.688 40.744H356.896L359.152 48.664L361.2 40.744H363.712L365.76 48.664L368.016 40.744ZM371.58 51V39.992H373.532V44.424C373.932 43.608 374.7 43.128 375.708 43.128C377.468 43.128 378.604 44.36 378.604 46.36V51H376.652V46.648C376.652 45.608 376.06 44.952 375.1 44.952C374.14 44.952 373.532 45.608 373.532 46.648V51H371.58ZM381.697 42.312C381.057 42.312 380.561 41.8 380.561 41.16C380.561 40.536 381.057 40.024 381.697 40.024C382.321 40.024 382.849 40.536 382.849 41.16C382.849 41.8 382.321 42.312 381.697 42.312ZM382.673 51H380.721V43.336H382.673V51ZM384.077 45.064V43.336H385.421V41.352H387.389V43.336H389.453V45.064H387.405V48.328C387.405 49.048 387.693 49.384 388.269 49.384C388.637 49.384 388.989 49.224 389.181 49L390.045 50.456C389.629 50.872 388.909 51.208 387.965 51.208C386.413 51.208 385.421 50.248 385.421 48.376V45.064H384.077ZM394.587 51.208C392.203 51.208 390.475 49.4 390.475 47.16C390.475 44.936 392.123 43.128 394.331 43.128C396.523 43.128 398.203 44.808 398.203 47.016C398.203 47.272 398.187 47.576 398.155 47.704H392.475C392.683 48.76 393.483 49.496 394.651 49.496C395.435 49.496 396.091 49.16 396.539 48.696L397.547 50.04C396.955 50.696 395.867 51.208 394.587 51.208ZM394.363 44.776C393.435 44.776 392.763 45.416 392.523 46.344H396.187C395.947 45.32 395.259 44.776 394.363 44.776Z" fill="#1355E9"/>
<rect x="447" y="24" width="152" height="44" rx="22" fill="#1355E9"/>
<path fill-rule="evenodd" clip-rule="evenodd" d="M468 39.0333V52.2333C468 53.4433 468.99 54.4333 470.2 54.4333H487.8C489.01 54.4333 490 53.4433 490 52.2333V39.0333C490 37.8233 489.01 36.8333 487.8 36.8333H470.2C468.985 36.8333 468 37.8178 468 39.0333ZM475.7 41.2333C476.915 41.2333 477.9 42.2178 477.9 43.4333C477.9 44.6488 476.915 45.6333 475.7 45.6333C474.485 45.6333 473.5 44.6488 473.5 43.4333C473.5 42.2178 474.485 41.2333 475.7 41.2333ZM472.4 49.0433C472.4 47.9455 474.599 47.3933 475.7 47.3933C476.801 47.3933 479 47.9455 479 49.0433V50.0333H472.4V49.0433ZM485.6 44.5333H481.2V42.3333H485.6V44.5333ZM485.6 48.9333H481.2V46.7333H485.6V48.9333ZM487.8 52.2333H470.2V39.0333H487.8V52.2333Z" fill="white"/>
<path d="M500.301 51V40.744H502.301V51H500.301ZM509.988 45.656C509.492 45.192 508.932 44.952 508.164 44.952C506.884 44.952 506.036 45.928 506.036 47.16C506.036 48.392 506.9 49.384 508.164 49.384C508.932 49.384 509.556 49.112 510.052 48.632L511.044 50.072C510.436 50.744 509.316 51.208 508.116 51.208C505.828 51.208 504.084 49.4 504.084 47.16C504.084 44.936 505.844 43.128 508.084 43.128C509.38 43.128 510.42 43.56 511.108 44.264L509.988 45.656ZM515.615 51.208C513.391 51.208 511.631 49.4 511.631 47.16C511.631 44.936 513.391 43.128 515.615 43.128C517.839 43.128 519.599 44.936 519.599 47.16C519.599 49.4 517.839 51.208 515.615 51.208ZM515.615 49.384C516.799 49.384 517.647 48.392 517.647 47.16C517.647 45.928 516.799 44.952 515.615 44.952C514.431 44.952 513.583 45.928 513.583 47.16C513.583 48.392 514.431 49.384 515.615 49.384ZM521.283 51V43.336H523.235V44.424C523.635 43.608 524.403 43.128 525.411 43.128C527.171 43.128 528.307 44.36 528.307 46.36V51H526.355V46.648C526.355 45.608 525.763 44.952 524.803 44.952C523.843 44.952 523.235 45.608 523.235 46.648V51H521.283ZM533.43 46.744V44.984H535.942V42.232H537.798V44.984H540.326V46.744H537.798V49.48H535.942V46.744H533.43ZM552.654 42.616H549.614V51H547.598V42.616H544.558V40.744H552.654V42.616ZM556.243 51.208C553.859 51.208 552.131 49.4 552.131 47.16C552.131 44.936 553.779 43.128 555.987 43.128C558.179 43.128 559.859 44.808 559.859 47.016C559.859 47.272 559.843 47.576 559.811 47.704H554.131C554.339 48.76 555.139 49.496 556.307 49.496C557.091 49.496 557.747 49.16 558.195 48.696L559.203 50.04C558.611 50.696 557.523 51.208 556.243 51.208ZM556.019 44.776C555.091 44.776 554.419 45.416 554.179 46.344H557.843C557.603 45.32 556.915 44.776 556.019 44.776ZM559.997 51L562.893 47.144L560.093 43.336H562.525L564.189 45.592L565.885 43.336H568.077L565.277 47.064L568.173 51H565.741L563.981 48.616L562.173 51H559.997ZM568.687 45.064V43.336H570.031V41.352H571.999V43.336H574.063V45.064H572.015V48.328C572.015 49.048 572.303 49.384 572.879 49.384C573.247 49.384 573.599 49.224 573.791 49L574.655 50.456C574.239 50.872 573.519 51.208 572.575 51.208C571.023 51.208 570.031 50.248 570.031 48.376V45.064H568.687Z" fill="white"/>
</svg>
