<svg width="264" height="44" viewBox="0 0 264 44" fill="none" xmlns="http://www.w3.org/2000/svg">
<path d="M22 0.5H242C253.874 0.5 263.5 10.1259 263.5 22C263.5 33.8741 253.874 43.5 242 43.5H22C10.1259 43.5 0.5 33.8741 0.5 22C0.5 10.1259 10.1259 0.5 22 0.5Z" fill="white"/>
<path d="M22 0.5H242C253.874 0.5 263.5 10.1259 263.5 22C263.5 33.8741 253.874 43.5 242 43.5H22C10.1259 43.5 0.5 33.8741 0.5 22C0.5 10.1259 10.1259 0.5 22 0.5Z" stroke="#044D90"/>
<path d="M118.392 27V22.696H113.496V27H111.496V16.744H113.496V20.824H118.392V16.744H120.392V27H118.392ZM126.139 27.208C123.914 27.208 122.155 25.4 122.155 23.16C122.155 20.936 123.914 19.128 126.139 19.128C128.363 19.128 130.123 20.936 130.123 23.16C130.123 25.4 128.363 27.208 126.139 27.208ZM126.139 25.384C127.323 25.384 128.171 24.392 128.171 23.16C128.171 21.928 127.323 20.952 126.139 20.952C124.955 20.952 124.107 21.928 124.107 23.16C124.107 24.392 124.955 25.384 126.139 25.384ZM135.879 27H133.335L130.567 19.336H132.711L134.663 25.256L136.647 19.336H138.647L135.879 27ZM143.188 27.208C140.804 27.208 139.076 25.4 139.076 23.16C139.076 20.936 140.724 19.128 142.932 19.128C145.124 19.128 146.804 20.808 146.804 23.016C146.804 23.272 146.788 23.576 146.756 23.704H141.076C141.284 24.76 142.084 25.496 143.252 25.496C144.036 25.496 144.692 25.16 145.14 24.696L146.148 26.04C145.556 26.696 144.468 27.208 143.188 27.208ZM142.964 20.776C142.036 20.776 141.364 21.416 141.124 22.344H144.788C144.548 21.32 143.86 20.776 142.964 20.776ZM148.369 27V19.336H150.321V20.472C150.689 19.656 151.345 19.128 152.209 19.128C152.721 19.128 153.137 19.256 153.425 19.496L152.625 21.336C152.369 21.144 151.985 21.016 151.601 21.016C150.833 21.016 150.321 21.672 150.321 22.712V27H148.369Z" fill="#044D90"/>
</svg>
