<svg width="648" height="92" viewBox="0 0 648 92" fill="none" xmlns="http://www.w3.org/2000/svg">
<path d="M248.5 46C248.5 34.1259 258.126 24.5 270 24.5H378C389.874 24.5 399.5 34.1259 399.5 46C399.5 57.8741 389.874 67.5 378 67.5H270C258.126 67.5 248.5 57.8741 248.5 46Z" stroke="#1355E9"/>
<path d="M287.516 51.016C287.036 50.888 286.428 50.584 285.644 50.072L286.508 48.392C287.372 48.936 288.62 49.32 289.628 49.32C290.636 49.32 291.388 48.952 291.388 48.136C291.388 46.312 285.996 47.176 285.996 43.544C285.996 41.64 287.74 40.52 289.82 40.52C291.116 40.52 292.332 40.872 293.276 41.592L292.3 43.176C291.644 42.744 290.62 42.392 289.724 42.392C288.796 42.392 288.14 42.824 288.14 43.496C288.14 45.368 293.516 44.536 293.516 48.024C293.516 50.136 291.66 51.208 289.484 51.208C288.636 51.208 287.98 51.144 287.516 51.016ZM298.743 51.208C296.359 51.208 294.631 49.4 294.631 47.16C294.631 44.936 296.279 43.128 298.487 43.128C300.679 43.128 302.359 44.808 302.359 47.016C302.359 47.272 302.343 47.576 302.311 47.704H296.631C296.839 48.76 297.639 49.496 298.807 49.496C299.591 49.496 300.247 49.16 300.695 48.696L301.703 50.04C301.111 50.696 300.023 51.208 298.743 51.208ZM298.519 44.776C297.591 44.776 296.919 45.416 296.679 46.344H300.343C300.103 45.32 299.415 44.776 298.519 44.776ZM309.332 45.656C308.836 45.192 308.276 44.952 307.508 44.952C306.228 44.952 305.38 45.928 305.38 47.16C305.38 48.392 306.244 49.384 307.508 49.384C308.276 49.384 308.9 49.112 309.396 48.632L310.388 50.072C309.78 50.744 308.66 51.208 307.46 51.208C305.172 51.208 303.428 49.4 303.428 47.16C303.428 44.936 305.188 43.128 307.428 43.128C308.724 43.128 309.764 43.56 310.452 44.264L309.332 45.656ZM314.959 51.208C312.735 51.208 310.975 49.4 310.975 47.16C310.975 44.936 312.735 43.128 314.959 43.128C317.183 43.128 318.943 44.936 318.943 47.16C318.943 49.4 317.183 51.208 314.959 51.208ZM314.959 49.384C316.143 49.384 316.991 48.392 316.991 47.16C316.991 45.928 316.143 44.952 314.959 44.952C313.775 44.952 312.927 45.928 312.927 47.16C312.927 48.392 313.775 49.384 314.959 49.384ZM320.627 51V43.336H322.579V44.424C322.979 43.608 323.747 43.128 324.755 43.128C326.515 43.128 327.651 44.36 327.651 46.36V51H325.699V46.648C325.699 45.608 325.107 44.952 324.147 44.952C323.187 44.952 322.579 45.608 322.579 46.648V51H320.627ZM332.936 51.208C330.92 51.208 329.272 49.56 329.272 47.16C329.272 44.856 330.824 43.128 332.936 43.128C333.976 43.128 334.776 43.592 335.288 44.344V39.992H337.24V51H335.288V49.912C334.776 50.696 333.976 51.208 332.936 51.208ZM333.256 49.384C334.44 49.384 335.288 48.392 335.288 47.16C335.288 45.928 334.44 44.952 333.256 44.952C332.072 44.952 331.224 45.928 331.224 47.16C331.224 48.392 332.072 49.384 333.256 49.384ZM342.576 51.208C340.56 51.208 338.912 49.56 338.912 47.16C338.912 44.856 340.464 43.128 342.576 43.128C343.616 43.128 344.416 43.592 344.928 44.344V43.336H346.88V51H344.928V49.912C344.416 50.696 343.616 51.208 342.576 51.208ZM342.896 49.384C344.08 49.384 344.928 48.392 344.928 47.16C344.928 45.928 344.08 44.952 342.896 44.952C341.712 44.952 340.864 45.928 340.864 47.16C340.864 48.392 341.712 49.384 342.896 49.384ZM349.049 51V43.336H351.001V44.472C351.369 43.656 352.025 43.128 352.889 43.128C353.401 43.128 353.817 43.256 354.105 43.496L353.305 45.336C353.049 45.144 352.665 45.016 352.281 45.016C351.513 45.016 351.001 45.672 351.001 46.712V51H349.049ZM357.888 51.304L357.952 51.112L354.448 43.336H356.592L358.832 48.616L360.672 43.336H362.64L359.504 51.976C358.912 53.656 357.936 54.344 356.656 54.344C355.84 54.344 355.056 54.008 354.56 53.544L355.44 52.008C355.808 52.36 356.224 52.52 356.672 52.52C357.216 52.52 357.568 52.2 357.888 51.304Z" fill="#1355E9"/>
</svg>
