<svg width="312" height="200" viewBox="0 0 312 200" fill="none" xmlns="http://www.w3.org/2000/svg">
<path d="M80 100C80 87.8497 89.8497 78 102 78H210C222.15 78 232 87.8497 232 100C232 112.15 222.15 122 210 122H102C89.8497 122 80 112.15 80 100Z" fill="#1355E9"/>
<path d="M132.212 105.016C131.732 104.888 131.124 104.584 130.34 104.072L131.204 102.392C132.068 102.936 133.316 103.32 134.324 103.32C135.332 103.32 136.084 102.952 136.084 102.136C136.084 100.312 130.692 101.176 130.692 97.544C130.692 95.64 132.436 94.52 134.516 94.52C135.812 94.52 137.028 94.872 137.972 95.592L136.996 97.176C136.34 96.744 135.316 96.392 134.42 96.392C133.492 96.392 132.836 96.824 132.836 97.496C132.836 99.368 138.212 98.536 138.212 102.024C138.212 104.136 136.356 105.208 134.18 105.208C133.332 105.208 132.676 105.144 132.212 105.016ZM141.678 97.336V101.48C141.678 102.6 142.318 103.352 143.294 103.352C144.27 103.352 144.926 102.6 144.926 101.48V97.336H146.894V101.624C146.894 103.768 145.454 105.192 143.294 105.192C141.134 105.192 139.726 103.768 139.726 101.624V97.336H141.678ZM153.267 97.128C155.283 97.128 156.947 98.776 156.947 101.176C156.947 103.48 155.395 105.208 153.267 105.208C152.227 105.208 151.427 104.744 150.915 103.976V105H148.963V93.992H150.915V98.424C151.427 97.64 152.227 97.128 153.267 97.128ZM152.963 98.952C151.779 98.952 150.915 99.944 150.915 101.176C150.915 102.408 151.779 103.384 152.963 103.384C154.131 103.384 154.995 102.408 154.995 101.176C154.995 99.944 154.131 98.952 152.963 98.952ZM160.556 105H158.604V97.336H160.556V98.504C160.956 97.672 161.708 97.128 162.716 97.128C163.884 97.128 164.78 97.704 165.228 98.728C165.628 97.816 166.364 97.128 167.58 97.128C169.356 97.128 170.524 98.312 170.524 100.36V105H168.556V100.648C168.556 99.608 167.98 98.952 167.052 98.952C166.124 98.952 165.532 99.608 165.532 100.648V105H163.58V100.648C163.58 99.608 163.004 98.952 162.076 98.952C161.148 98.952 160.556 99.608 160.556 100.648V105ZM173.595 96.312C172.955 96.312 172.459 95.8 172.459 95.16C172.459 94.536 172.955 94.024 173.595 94.024C174.219 94.024 174.747 94.536 174.747 95.16C174.747 95.8 174.219 96.312 173.595 96.312ZM174.571 105H172.619V97.336H174.571V105ZM175.976 99.064V97.336H177.32V95.352H179.288V97.336H181.352V99.064H179.304V102.328C179.304 103.048 179.592 103.384 180.168 103.384C180.536 103.384 180.888 103.224 181.08 103L181.944 104.456C181.528 104.872 180.808 105.208 179.864 105.208C178.312 105.208 177.32 104.248 177.32 102.376V99.064H175.976Z" fill="white"/>
</svg>
