<svg width="264" height="44" viewBox="0 0 264 44" fill="none" xmlns="http://www.w3.org/2000/svg">
<path d="M0 22C0 9.84974 9.84974 0 22 0H242C254.15 0 264 9.84974 264 22V22C264 34.1503 254.15 44 242 44H22C9.84973 44 0 34.1503 0 22V22Z" fill="#1355E9"/>
<path d="M25.2305 27V16.76H29.3585C31.2785 16.76 32.7345 17.928 32.7345 19.592C32.7345 20.792 31.9025 21.448 31.2145 21.736C32.2225 22.04 33.0225 22.84 33.0225 24.12C33.0225 25.656 31.8225 27 29.5985 27H25.2305ZM29.1665 18.52H27.2305V20.984H29.1665C30.0465 20.984 30.6545 20.472 30.6545 19.752C30.6545 19.032 30.0305 18.52 29.1665 18.52ZM29.3905 22.632H27.2305V25.224H29.3905C30.2865 25.224 30.9425 24.68 30.9425 23.928C30.9425 23.176 30.2865 22.632 29.3905 22.632ZM36.4596 19.336V23.48C36.4596 24.6 37.0996 25.352 38.0756 25.352C39.0516 25.352 39.7076 24.6 39.7076 23.48V19.336H41.6756V23.624C41.6756 25.768 40.2356 27.192 38.0756 27.192C35.9156 27.192 34.5076 25.768 34.5076 23.624V19.336H36.4596ZM42.9603 21.064V19.336H44.3043V17.352H46.2723V19.336H48.3363V21.064H46.2883V24.328C46.2883 25.048 46.5763 25.384 47.1523 25.384C47.5203 25.384 47.8723 25.224 48.0643 25L48.9283 26.456C48.5123 26.872 47.7923 27.208 46.8483 27.208C45.2963 27.208 44.3043 26.248 44.3043 24.376V21.064H42.9603ZM49.4446 21.064V19.336H50.7886V17.352H52.7566V19.336H54.8206V21.064H52.7726V24.328C52.7726 25.048 53.0606 25.384 53.6366 25.384C54.0046 25.384 54.3566 25.224 54.5486 25L55.4126 26.456C54.9966 26.872 54.2766 27.208 53.3326 27.208C51.7806 27.208 50.7886 26.248 50.7886 24.376V21.064H49.4446ZM59.826 27.208C57.602 27.208 55.842 25.4 55.842 23.16C55.842 20.936 57.602 19.128 59.826 19.128C62.05 19.128 63.81 20.936 63.81 23.16C63.81 25.4 62.05 27.208 59.826 27.208ZM59.826 25.384C61.01 25.384 61.858 24.392 61.858 23.16C61.858 21.928 61.01 20.952 59.826 20.952C58.642 20.952 57.794 21.928 57.794 23.16C57.794 24.392 58.642 25.384 59.826 25.384ZM65.4943 27V19.336H67.4463V20.424C67.8463 19.608 68.6143 19.128 69.6223 19.128C71.3823 19.128 72.5183 20.36 72.5183 22.36V27H70.5663V22.648C70.5663 21.608 69.9743 20.952 69.0143 20.952C68.0543 20.952 67.4463 21.608 67.4463 22.648V27H65.4943ZM78.1368 27V16.744H80.1368V25.112H85.1448V27H78.1368ZM89.3185 27.208C87.3025 27.208 85.6545 25.56 85.6545 23.16C85.6545 20.856 87.2065 19.128 89.3185 19.128C90.3585 19.128 91.1585 19.592 91.6705 20.344V19.336H93.6225V27H91.6705V25.912C91.1585 26.696 90.3585 27.208 89.3185 27.208ZM89.6385 25.384C90.8225 25.384 91.6705 24.392 91.6705 23.16C91.6705 21.928 90.8225 20.952 89.6385 20.952C88.4545 20.952 87.6065 21.928 87.6065 23.16C87.6065 24.392 88.4545 25.384 89.6385 25.384ZM100.095 19.128C102.111 19.128 103.775 20.776 103.775 23.176C103.775 25.48 102.223 27.208 100.095 27.208C99.0551 27.208 98.2551 26.744 97.7431 25.976V27H95.7911V15.992H97.7431V20.424C98.2551 19.64 99.0551 19.128 100.095 19.128ZM99.7911 20.952C98.6071 20.952 97.7431 21.944 97.7431 23.176C97.7431 24.408 98.6071 25.384 99.7911 25.384C100.959 25.384 101.823 24.408 101.823 23.176C101.823 21.944 100.959 20.952 99.7911 20.952ZM109.048 27.208C106.664 27.208 104.936 25.4 104.936 23.16C104.936 20.936 106.584 19.128 108.792 19.128C110.984 19.128 112.664 20.808 112.664 23.016C112.664 23.272 112.648 23.576 112.616 23.704H106.936C107.144 24.76 107.944 25.496 109.112 25.496C109.896 25.496 110.552 25.16 111 24.696L112.008 26.04C111.416 26.696 110.328 27.208 109.048 27.208ZM108.824 20.776C107.896 20.776 107.224 21.416 106.984 22.344H110.648C110.408 21.32 109.72 20.776 108.824 20.776ZM117.189 25.304L117.397 27.016C117.109 27.112 116.741 27.176 116.453 27.176C115.349 27.176 114.229 26.472 114.229 24.52V15.992H116.181V24.568C116.181 25.16 116.517 25.384 116.869 25.384C116.965 25.384 117.093 25.352 117.189 25.304Z" fill="white"/>
<path fill-rule="evenodd" clip-rule="evenodd" d="M219 15.5714V28.4286C219 29.8429 219.9 31 221 31H235C236.1 31 237 29.8429 237 28.4286V15.5714C237 14.1571 236.1 13 235 13H221C219.9 13 219 14.1571 219 15.5714Z" fill="white"/>
</svg>
