<svg width="200" height="124" viewBox="0 0 200 124" fill="none" xmlns="http://www.w3.org/2000/svg">
<rect x="24.5" y="17.5" width="151" height="89" fill="white"/>
<rect x="24.5" y="17.5" width="151" height="89" stroke="#EBEBEB"/>
<rect x="36" y="33" width="34" height="6" fill="#9B9B9B"/>
<rect x="36" y="47" width="61" height="6" fill="#EBEBEB"/>
<rect x="36" y="57" width="94" height="6" fill="#EBEBEB"/>
<rect x="26" y="79" width="44" height="12" fill="white"/>
<rect x="78" y="82" width="34" height="6" fill="#9B9B9B"/>
<rect x="120" y="79" width="44" height="12" fill="#2861BB"/>
<path fill-rule="evenodd" clip-rule="evenodd" d="M162.237 30.0003L159.001 33.2069L159.728 33.9276L162.964 30.721L166.273 34L167 33.2793L163.691 30.0003L167.001 26.7207L166.273 26L162.964 29.2797L159.727 26.0724L159 26.7931L162.237 30.0003Z" fill="black"/>
</svg>
