<svg width="180" height="44" viewBox="0 0 180 44" fill="none" xmlns="http://www.w3.org/2000/svg">
<g clip-path="url(#clip0_6330_30435)">
<path d="M0 22C0 9.84974 9.84974 0 22 0H158C170.15 0 180 9.84974 180 22C180 34.1503 170.15 44 158 44H22C9.84974 44 0 34.1503 0 22Z" fill="#2861BB"/>
<path d="M26.2044 17.9279L24.8764 19.4639C24.2844 18.9199 23.4524 18.5199 22.4284 18.5199C20.6844 18.5199 19.2924 20.0239 19.2924 21.8799C19.2924 23.7199 20.6844 25.2239 22.5564 25.2239C23.4364 25.2239 24.3164 24.8879 24.8924 24.2959L26.2044 25.7679C25.3084 26.7599 24.0764 27.2079 22.4284 27.2079C19.4364 27.2079 17.1484 24.8079 17.1484 21.8799C17.1484 18.9199 19.5164 16.5359 22.4124 16.5359C24.1404 16.5359 25.3564 17.0639 26.2044 17.9279ZM30.572 25.3039L30.78 27.0159C30.492 27.1119 30.124 27.1759 29.836 27.1759C28.732 27.1759 27.612 26.4719 27.612 24.5199V15.9919H29.564V24.5679C29.564 25.1599 29.9 25.3839 30.252 25.3839C30.348 25.3839 30.476 25.3519 30.572 25.3039ZM33.3849 18.3119C32.7449 18.3119 32.2489 17.7999 32.2489 17.1599C32.2489 16.5359 32.7449 16.0239 33.3849 16.0239C34.0089 16.0239 34.5369 16.5359 34.5369 17.1599C34.5369 17.7999 34.0089 18.3119 33.3849 18.3119ZM34.3609 26.9999H32.4089V19.3359H34.3609V26.9999ZM41.9575 21.6559C41.4615 21.1919 40.9015 20.9519 40.1335 20.9519C38.8535 20.9519 38.0055 21.9279 38.0055 23.1599C38.0055 24.3919 38.8695 25.3839 40.1335 25.3839C40.9015 25.3839 41.5255 25.1119 42.0215 24.6319L43.0135 26.0719C42.4055 26.7439 41.2855 27.2079 40.0855 27.2079C37.7975 27.2079 36.0535 25.3999 36.0535 23.1599C36.0535 20.9359 37.8135 19.1279 40.0535 19.1279C41.3495 19.1279 42.3895 19.5599 43.0775 20.2639L41.9575 21.6559ZM46.314 26.9999H44.362V15.9919H46.314V22.5039L49.354 19.3359H51.77L48.41 22.8239L52.106 26.9999H49.61L46.314 23.2079V26.9999ZM56.5495 26.9999V15.9919H58.5015V20.4239C58.9015 19.6079 59.6695 19.1279 60.6775 19.1279C62.4375 19.1279 63.5735 20.3599 63.5735 22.3599V26.9999H61.6215V22.6479C61.6215 21.6079 61.0295 20.9519 60.0695 20.9519C59.1095 20.9519 58.5015 21.6079 58.5015 22.6479V26.9999H56.5495ZM69.3062 27.2079C66.9222 27.2079 65.1942 25.3999 65.1942 23.1599C65.1942 20.9359 66.8422 19.1279 69.0502 19.1279C71.2422 19.1279 72.9222 20.8079 72.9222 23.0159C72.9222 23.2719 72.9062 23.5759 72.8742 23.7039H67.1942C67.4022 24.7599 68.2022 25.4959 69.3702 25.4959C70.1542 25.4959 70.8102 25.1599 71.2582 24.6959L72.2662 26.0399C71.6742 26.6959 70.5862 27.2079 69.3062 27.2079ZM69.0822 20.7759C68.1542 20.7759 67.4822 21.4159 67.2422 22.3439H70.9062C70.6662 21.3199 69.9782 20.7759 69.0822 20.7759ZM74.487 26.9999V19.3359H76.439V20.4719C76.807 19.6559 77.463 19.1279 78.327 19.1279C78.839 19.1279 79.255 19.2559 79.543 19.4959L78.743 21.3359C78.487 21.1439 78.103 21.0159 77.719 21.0159C76.951 21.0159 76.439 21.6719 76.439 22.7119V26.9999H74.487ZM83.853 27.2079C81.469 27.2079 79.741 25.3999 79.741 23.1599C79.741 20.9359 81.389 19.1279 83.597 19.1279C85.789 19.1279 87.469 20.8079 87.469 23.0159C87.469 23.2719 87.453 23.5759 87.421 23.7039H81.741C81.949 24.7599 82.749 25.4959 83.917 25.4959C84.701 25.4959 85.357 25.1599 85.805 24.6959L86.813 26.0399C86.221 26.6959 85.133 27.2079 83.853 27.2079ZM83.629 20.7759C82.701 20.7759 82.029 21.4159 81.789 22.3439H85.453C85.213 21.3199 84.525 20.7759 83.629 20.7759ZM91.6718 21.0639V19.3359H93.0158V17.3519H94.9838V19.3359H97.0478V21.0639H94.9998V24.3279C94.9998 25.0479 95.2878 25.3839 95.8638 25.3839C96.2318 25.3839 96.5838 25.2239 96.7758 24.9999L97.6398 26.4559C97.2238 26.8719 96.5038 27.2079 95.5598 27.2079C94.0078 27.2079 93.0158 26.2479 93.0158 24.3759V21.0639H91.6718ZM102.054 27.2079C99.8292 27.2079 98.0692 25.3999 98.0692 23.1599C98.0692 20.9359 99.8292 19.1279 102.054 19.1279C104.278 19.1279 106.038 20.9359 106.038 23.1599C106.038 25.3999 104.278 27.2079 102.054 27.2079ZM102.054 25.3839C103.238 25.3839 104.086 24.3919 104.086 23.1599C104.086 21.9279 103.238 20.9519 102.054 20.9519C100.87 20.9519 100.022 21.9279 100.022 23.1599C100.022 24.3919 100.87 25.3839 102.054 25.3839ZM110.456 21.0639V19.3359H111.704V19.1919C111.704 17.0799 113.096 15.7839 115.448 15.7839C116.936 15.7839 117.944 16.1999 118.664 16.8079L117.688 18.3439C117.192 17.8959 116.36 17.6079 115.56 17.6079C114.376 17.6079 113.672 18.1359 113.672 19.2399V19.3359H118.552V26.9999H116.6V21.0639H113.672V26.9999H111.704V21.0639H110.456ZM120.722 26.9999V19.3359H122.674V20.4239C123.074 19.6079 123.842 19.1279 124.85 19.1279C126.61 19.1279 127.746 20.3599 127.746 22.3599V26.9999H125.794V22.6479C125.794 21.6079 125.202 20.9519 124.242 20.9519C123.282 20.9519 122.674 21.6079 122.674 22.6479V26.9999H120.722ZM133.03 27.2079C131.014 27.2079 129.366 25.5599 129.366 23.1599C129.366 20.8559 130.918 19.1279 133.03 19.1279C134.07 19.1279 134.87 19.5919 135.382 20.3439V19.3359H137.334V26.9999H135.382V25.9119C134.87 26.6959 134.07 27.2079 133.03 27.2079ZM133.35 25.3839C134.534 25.3839 135.382 24.3919 135.382 23.1599C135.382 21.9279 134.534 20.9519 133.35 20.9519C132.166 20.9519 131.318 21.9279 131.318 23.1599C131.318 24.3919 132.166 25.3839 133.35 25.3839ZM142.463 25.3039L142.671 27.0159C142.383 27.1119 142.015 27.1759 141.727 27.1759C140.623 27.1759 139.503 26.4719 139.503 24.5199V15.9919H141.455V24.5679C141.455 25.1599 141.791 25.3839 142.143 25.3839C142.239 25.3839 142.367 25.3519 142.463 25.3039ZM145.276 18.3119C144.636 18.3119 144.14 17.7999 144.14 17.1599C144.14 16.5359 144.636 16.0239 145.276 16.0239C145.9 16.0239 146.428 16.5359 146.428 17.1599C146.428 17.7999 145.9 18.3119 145.276 18.3119ZM146.252 26.9999H144.3V19.3359H146.252V26.9999ZM147.961 25.2719L151.753 21.0639H148.089V19.3359H154.281V21.0639L150.489 25.2719H154.409V26.9999H147.961V25.2719ZM159.4 27.2079C157.016 27.2079 155.288 25.3999 155.288 23.1599C155.288 20.9359 156.936 19.1279 159.144 19.1279C161.336 19.1279 163.016 20.8079 163.016 23.0159C163.016 23.2719 163 23.5759 162.968 23.7039H157.288C157.496 24.7599 158.296 25.4959 159.464 25.4959C160.248 25.4959 160.904 25.1599 161.352 24.6959L162.36 26.0399C161.768 26.6959 160.68 27.2079 159.4 27.2079ZM159.176 20.7759C158.248 20.7759 157.576 21.4159 157.336 22.3439H161C160.76 21.3199 160.072 20.7759 159.176 20.7759Z" fill="white"/>
</g>
<defs>
<clipPath id="clip0_6330_30435">
<rect width="180" height="44" fill="white"/>
</clipPath>
</defs>
</svg>
