<svg width="264" height="44" viewBox="0 0 264 44" fill="none" xmlns="http://www.w3.org/2000/svg">
<g clip-path="url(#clip0_6330_30496)">
<path d="M0 22C0 9.84974 9.84974 0 22 0H242C254.15 0 264 9.84974 264 22C264 34.1503 254.15 44 242 44H22C9.84973 44 0 34.1503 0 22Z" fill="#2861BB"/>
<path d="M112.704 17.9279L111.376 19.4639C110.784 18.9199 109.952 18.5199 108.928 18.5199C107.184 18.5199 105.792 20.0239 105.792 21.8799C105.792 23.7199 107.184 25.2239 109.056 25.2239C109.936 25.2239 110.816 24.8879 111.392 24.2959L112.704 25.7679C111.808 26.7599 110.576 27.2079 108.928 27.2079C105.936 27.2079 103.648 24.8079 103.648 21.8799C103.648 18.9199 106.016 16.5359 108.912 16.5359C110.64 16.5359 111.856 17.0639 112.704 17.9279ZM117.287 27.2079C115.063 27.2079 113.303 25.3999 113.303 23.1599C113.303 20.9359 115.063 19.1279 117.287 19.1279C119.511 19.1279 121.271 20.9359 121.271 23.1599C121.271 25.3999 119.511 27.2079 117.287 27.2079ZM117.287 25.3839C118.471 25.3839 119.319 24.3919 119.319 23.1599C119.319 21.9279 118.471 20.9519 117.287 20.9519C116.103 20.9519 115.255 21.9279 115.255 23.1599C115.255 24.3919 116.103 25.3839 117.287 25.3839ZM122.955 26.9999V19.3359H124.907V20.4239C125.307 19.6079 126.075 19.1279 127.083 19.1279C128.843 19.1279 129.979 20.3599 129.979 22.3599V26.9999H128.027V22.6479C128.027 21.6079 127.435 20.9519 126.475 20.9519C125.515 20.9519 124.907 21.6079 124.907 22.6479V26.9999H122.955ZM131.408 21.0639V19.3359H132.656V19.1919C132.656 17.0799 134.048 15.7839 136.4 15.7839C137.888 15.7839 138.896 16.1999 139.616 16.8079L138.64 18.3439C138.144 17.8959 137.312 17.6079 136.512 17.6079C135.328 17.6079 134.624 18.1359 134.624 19.2399V19.3359H139.504V26.9999H137.552V21.0639H134.624V26.9999H132.656V21.0639H131.408ZM141.674 26.9999V19.3359H143.626V20.4719C143.994 19.6559 144.65 19.1279 145.514 19.1279C146.026 19.1279 146.442 19.2559 146.73 19.4959L145.93 21.3359C145.674 21.1439 145.29 21.0159 144.906 21.0159C144.138 21.0159 143.626 21.6719 143.626 22.7119V26.9999H141.674ZM150.017 26.9999H148.065V19.3359H150.017V20.5039C150.417 19.6719 151.169 19.1279 152.177 19.1279C153.345 19.1279 154.241 19.7039 154.689 20.7279C155.089 19.8159 155.825 19.1279 157.041 19.1279C158.817 19.1279 159.985 20.3119 159.985 22.3599V26.9999H158.017V22.6479C158.017 21.6079 157.441 20.9519 156.513 20.9519C155.585 20.9519 154.993 21.6079 154.993 22.6479V26.9999H153.041V22.6479C153.041 21.6079 152.465 20.9519 151.537 20.9519C150.609 20.9519 150.017 21.6079 150.017 22.6479V26.9999Z" fill="white"/>
</g>
<defs>
<clipPath id="clip0_6330_30496">
<rect width="264" height="44" fill="white"/>
</clipPath>
</defs>
</svg>
