<svg width="264" height="44" viewBox="0 0 264 44" fill="none" xmlns="http://www.w3.org/2000/svg">
<g clip-path="url(#clip0_6330_30664)">
<path d="M0 22C0 9.84974 9.84974 0 22 0H242C254.15 0 264 9.84974 264 22C264 34.1503 254.15 44 242 44H22C9.84973 44 0 34.1503 0 22Z" fill="#1A3673"/>
<path d="M86.2305 26.9999V16.7599H90.3585C92.2785 16.7599 93.7345 17.9279 93.7345 19.5919C93.7345 20.7919 92.9025 21.4479 92.2145 21.7359C93.2225 22.0399 94.0225 22.8399 94.0225 24.1199C94.0225 25.6559 92.8225 26.9999 90.5985 26.9999H86.2305ZM90.1665 18.5199H88.2305V20.9839H90.1665C91.0465 20.9839 91.6545 20.4719 91.6545 19.7519C91.6545 19.0319 91.0305 18.5199 90.1665 18.5199ZM90.3905 22.6319H88.2305V25.2239H90.3905C91.2865 25.2239 91.9425 24.6799 91.9425 23.9279C91.9425 23.1759 91.2865 22.6319 90.3905 22.6319ZM97.4596 19.3359V23.4799C97.4596 24.5999 98.0996 25.3519 99.0756 25.3519C100.052 25.3519 100.708 24.5999 100.708 23.4799V19.3359H102.676V23.6239C102.676 25.7679 101.236 27.1919 99.0756 27.1919C96.9156 27.1919 95.5076 25.7679 95.5076 23.6239V19.3359H97.4596ZM103.96 21.0639V19.3359H105.304V17.3519H107.272V19.3359H109.336V21.0639H107.288V24.3279C107.288 25.0479 107.576 25.3839 108.152 25.3839C108.52 25.3839 108.872 25.2239 109.064 24.9999L109.928 26.4559C109.512 26.8719 108.792 27.2079 107.848 27.2079C106.296 27.2079 105.304 26.2479 105.304 24.3759V21.0639H103.96ZM110.445 21.0639V19.3359H111.789V17.3519H113.757V19.3359H115.821V21.0639H113.773V24.3279C113.773 25.0479 114.061 25.3839 114.637 25.3839C115.005 25.3839 115.357 25.2239 115.549 24.9999L116.413 26.4559C115.997 26.8719 115.277 27.2079 114.333 27.2079C112.781 27.2079 111.789 26.2479 111.789 24.3759V21.0639H110.445ZM120.826 27.2079C118.602 27.2079 116.842 25.3999 116.842 23.1599C116.842 20.9359 118.602 19.1279 120.826 19.1279C123.05 19.1279 124.81 20.9359 124.81 23.1599C124.81 25.3999 123.05 27.2079 120.826 27.2079ZM120.826 25.3839C122.01 25.3839 122.858 24.3919 122.858 23.1599C122.858 21.9279 122.01 20.9519 120.826 20.9519C119.642 20.9519 118.794 21.9279 118.794 23.1599C118.794 24.3919 119.642 25.3839 120.826 25.3839ZM126.494 26.9999V19.3359H128.446V20.4239C128.846 19.6079 129.614 19.1279 130.622 19.1279C132.382 19.1279 133.518 20.3599 133.518 22.3599V26.9999H131.566V22.6479C131.566 21.6079 130.974 20.9519 130.014 20.9519C129.054 20.9519 128.446 21.6079 128.446 22.6479V26.9999H126.494ZM139.137 26.9999V16.7439H141.137V25.1119H146.145V26.9999H139.137ZM150.319 27.2079C148.303 27.2079 146.655 25.5599 146.655 23.1599C146.655 20.8559 148.207 19.1279 150.319 19.1279C151.359 19.1279 152.159 19.5919 152.671 20.3439V19.3359H154.623V26.9999H152.671V25.9119C152.159 26.6959 151.359 27.2079 150.319 27.2079ZM150.639 25.3839C151.823 25.3839 152.671 24.3919 152.671 23.1599C152.671 21.9279 151.823 20.9519 150.639 20.9519C149.455 20.9519 148.607 21.9279 148.607 23.1599C148.607 24.3919 149.455 25.3839 150.639 25.3839ZM161.095 19.1279C163.111 19.1279 164.775 20.7759 164.775 23.1759C164.775 25.4799 163.223 27.2079 161.095 27.2079C160.055 27.2079 159.255 26.7439 158.743 25.9759V26.9999H156.791V15.9919H158.743V20.4239C159.255 19.6399 160.055 19.1279 161.095 19.1279ZM160.791 20.9519C159.607 20.9519 158.743 21.9439 158.743 23.1759C158.743 24.4079 159.607 25.3839 160.791 25.3839C161.959 25.3839 162.823 24.4079 162.823 23.1759C162.823 21.9439 161.959 20.9519 160.791 20.9519ZM170.048 27.2079C167.664 27.2079 165.936 25.3999 165.936 23.1599C165.936 20.9359 167.584 19.1279 169.792 19.1279C171.984 19.1279 173.664 20.8079 173.664 23.0159C173.664 23.2719 173.648 23.5759 173.616 23.7039H167.936C168.144 24.7599 168.944 25.4959 170.112 25.4959C170.896 25.4959 171.552 25.1599 172 24.6959L173.008 26.0399C172.416 26.6959 171.328 27.2079 170.048 27.2079ZM169.824 20.7759C168.896 20.7759 168.224 21.4159 167.984 22.3439H171.648C171.408 21.3199 170.72 20.7759 169.824 20.7759ZM178.189 25.3039L178.397 27.0159C178.109 27.1119 177.741 27.1759 177.453 27.1759C176.349 27.1759 175.229 26.4719 175.229 24.5199V15.9919H177.181V24.5679C177.181 25.1599 177.517 25.3839 177.869 25.3839C177.965 25.3839 178.093 25.3519 178.189 25.3039Z" fill="white"/>
</g>
<defs>
<clipPath id="clip0_6330_30664">
<rect width="264" height="44" fill="white"/>
</clipPath>
</defs>
</svg>
