<svg width="113" height="44" viewBox="0 0 113 44" fill="none" xmlns="http://www.w3.org/2000/svg">
<g clip-path="url(#clip0_6330_30638)">
<path d="M0 22C0 9.84974 9.84974 0 22 0H91C103.15 0 113 9.84974 113 22C113 34.1503 103.15 44 91 44H22C9.84974 44 0 34.1503 0 22Z" fill="#BAC2D4"/>
<path d="M25.1992 26.9999V16.7599H28.6232C31.9992 16.7599 34.4152 18.8879 34.4152 21.8799C34.4152 24.8719 32.0311 26.9999 28.6872 26.9999H25.1992ZM28.6072 18.6319H27.2632V25.1119H28.6232C30.8152 25.1119 32.2712 23.8319 32.2712 21.8799C32.2712 19.9119 30.8152 18.6319 28.6072 18.6319ZM37.1264 18.3119C36.4864 18.3119 35.9904 17.7999 35.9904 17.1599C35.9904 16.5359 36.4864 16.0239 37.1264 16.0239C37.7504 16.0239 38.2784 16.5359 38.2784 17.1599C38.2784 17.7999 37.7504 18.3119 37.1264 18.3119ZM38.1024 26.9999H36.1504V19.3359H38.1024V26.9999ZM42.643 27.2079C41.411 27.2079 40.403 26.8879 39.651 26.4719L40.275 24.9679C41.155 25.3839 41.891 25.6079 42.739 25.6079C43.603 25.6079 44.003 25.3039 44.003 24.8559C44.003 23.4799 39.875 24.2959 39.875 21.3999C39.875 20.2479 40.899 19.1279 42.867 19.1279C43.939 19.1279 44.755 19.3519 45.731 19.8159L45.011 21.2719C44.467 20.9679 43.651 20.7279 43.027 20.7279C42.291 20.7279 41.843 20.9679 41.843 21.3839C41.843 22.7919 45.939 21.9119 45.939 24.8239C45.939 26.1519 44.755 27.2079 42.643 27.2079ZM50.709 27.2079C48.693 27.2079 47.045 25.5599 47.045 23.1599C47.045 20.8559 48.597 19.1279 50.709 19.1279C51.749 19.1279 52.549 19.5919 53.061 20.3439V19.3359H55.013V26.9999H53.061V25.9119C52.549 26.6959 51.749 27.2079 50.709 27.2079ZM51.029 25.3839C52.213 25.3839 53.061 24.3919 53.061 23.1599C53.061 21.9279 52.213 20.9519 51.029 20.9519C49.845 20.9519 48.997 21.9279 48.997 23.1599C48.997 24.3919 49.845 25.3839 51.029 25.3839ZM61.4857 19.1279C63.5017 19.1279 65.1657 20.7759 65.1657 23.1759C65.1657 25.4799 63.6137 27.2079 61.4857 27.2079C60.4457 27.2079 59.6457 26.7439 59.1337 25.9759V26.9999H57.1817V15.9919H59.1337V20.4239C59.6457 19.6399 60.4457 19.1279 61.4857 19.1279ZM61.1817 20.9519C59.9977 20.9519 59.1337 21.9439 59.1337 23.1759C59.1337 24.4079 59.9977 25.3839 61.1817 25.3839C62.3497 25.3839 63.2137 24.4079 63.2137 23.1759C63.2137 21.9439 62.3497 20.9519 61.1817 20.9519ZM69.7823 25.3039L69.9903 27.0159C69.7023 27.1119 69.3343 27.1759 69.0463 27.1759C67.9423 27.1759 66.8223 26.4719 66.8223 24.5199V15.9919H68.7743V24.5679C68.7743 25.1599 69.1103 25.3839 69.4623 25.3839C69.5583 25.3839 69.6863 25.3519 69.7823 25.3039ZM75.2351 27.2079C72.8512 27.2079 71.1232 25.3999 71.1232 23.1599C71.1232 20.9359 72.7712 19.1279 74.9792 19.1279C77.1712 19.1279 78.8512 20.8079 78.8512 23.0159C78.8512 23.2719 78.8352 23.5759 78.8032 23.7039H73.1232C73.3312 24.7599 74.1312 25.4959 75.2992 25.4959C76.0832 25.4959 76.7392 25.1599 77.1872 24.6959L78.1952 26.0399C77.6032 26.6959 76.5152 27.2079 75.2351 27.2079ZM75.0112 20.7759C74.0832 20.7759 73.4112 21.4159 73.1712 22.3439H76.8352C76.5952 21.3199 75.9072 20.7759 75.0112 20.7759ZM83.584 27.2079C81.568 27.2079 79.92 25.5599 79.92 23.1599C79.92 20.8559 81.472 19.1279 83.584 19.1279C84.624 19.1279 85.424 19.5919 85.936 20.3439V15.9919H87.888V26.9999H85.936V25.9119C85.424 26.6959 84.624 27.2079 83.584 27.2079ZM83.904 25.3839C85.088 25.3839 85.936 24.3919 85.936 23.1599C85.936 21.9279 85.088 20.9519 83.904 20.9519C82.72 20.9519 81.872 21.9279 81.872 23.1599C81.872 24.3919 82.72 25.3839 83.904 25.3839Z" fill="white"/>
</g>
<defs>
<clipPath id="clip0_6330_30638">
<rect width="113" height="44" fill="white"/>
</clipPath>
</defs>
</svg>
