<svg width="312" height="200" viewBox="0 0 312 200" fill="none" xmlns="http://www.w3.org/2000/svg">
<path d="M102 44.5H210C221.874 44.5 231.5 54.1259 231.5 66C231.5 77.8741 221.874 87.5 210 87.5H102C90.1259 87.5 80.5 77.8741 80.5 66C80.5 54.1259 90.1259 44.5 102 44.5Z" stroke="#2861BB"/>
<path d="M145.712 61.928L144.384 63.464C143.792 62.92 142.96 62.52 141.936 62.52C140.192 62.52 138.8 64.024 138.8 65.88C138.8 67.72 140.192 69.224 142.064 69.224C142.944 69.224 143.824 68.888 144.4 68.296L145.712 69.768C144.816 70.76 143.584 71.208 141.936 71.208C138.944 71.208 136.656 68.808 136.656 65.88C136.656 62.92 139.024 60.536 141.92 60.536C143.648 60.536 144.864 61.064 145.712 61.928ZM150.079 69.304L150.287 71.016C149.999 71.112 149.631 71.176 149.343 71.176C148.239 71.176 147.119 70.472 147.119 68.52V59.992H149.071V68.568C149.071 69.16 149.407 69.384 149.759 69.384C149.855 69.384 149.983 69.352 150.079 69.304ZM155.404 71.208C153.18 71.208 151.42 69.4 151.42 67.16C151.42 64.936 153.18 63.128 155.404 63.128C157.628 63.128 159.388 64.936 159.388 67.16C159.388 69.4 157.628 71.208 155.404 71.208ZM155.404 69.384C156.588 69.384 157.436 68.392 157.436 67.16C157.436 65.928 156.588 64.952 155.404 64.952C154.22 64.952 153.372 65.928 153.372 67.16C153.372 68.392 154.22 69.384 155.404 69.384ZM163.378 71.208C162.146 71.208 161.138 70.888 160.386 70.472L161.01 68.968C161.89 69.384 162.626 69.608 163.474 69.608C164.338 69.608 164.738 69.304 164.738 68.856C164.738 67.48 160.61 68.296 160.61 65.4C160.61 64.248 161.634 63.128 163.602 63.128C164.674 63.128 165.49 63.352 166.466 63.816L165.746 65.272C165.202 64.968 164.386 64.728 163.762 64.728C163.026 64.728 162.578 64.968 162.578 65.384C162.578 66.792 166.674 65.912 166.674 68.824C166.674 70.152 165.49 71.208 163.378 71.208ZM171.891 71.208C169.508 71.208 167.78 69.4 167.78 67.16C167.78 64.936 169.428 63.128 171.636 63.128C173.828 63.128 175.508 64.808 175.508 67.016C175.508 67.272 175.492 67.576 175.46 67.704H169.78C169.988 68.76 170.788 69.496 171.956 69.496C172.74 69.496 173.396 69.16 173.844 68.696L174.852 70.04C174.26 70.696 173.172 71.208 171.891 71.208ZM171.668 64.776C170.74 64.776 170.068 65.416 169.828 66.344H173.492C173.252 65.32 172.564 64.776 171.668 64.776Z" fill="#2861BB"/>
<path d="M80 134C80 121.85 89.8497 112 102 112H210C222.15 112 232 121.85 232 134V134C232 146.15 222.15 156 210 156H102C89.8497 156 80 146.15 80 134V134Z" fill="#2861BB"/>
<path d="M132.212 139.016C131.732 138.888 131.124 138.584 130.34 138.072L131.204 136.392C132.068 136.936 133.316 137.32 134.324 137.32C135.332 137.32 136.084 136.952 136.084 136.136C136.084 134.312 130.692 135.176 130.692 131.544C130.692 129.64 132.436 128.52 134.516 128.52C135.812 128.52 137.028 128.872 137.972 129.592L136.996 131.176C136.34 130.744 135.316 130.392 134.42 130.392C133.492 130.392 132.836 130.824 132.836 131.496C132.836 133.368 138.212 132.536 138.212 136.024C138.212 138.136 136.356 139.208 134.18 139.208C133.332 139.208 132.676 139.144 132.212 139.016ZM141.678 131.336V135.48C141.678 136.6 142.318 137.352 143.294 137.352C144.27 137.352 144.926 136.6 144.926 135.48V131.336H146.894V135.624C146.894 137.768 145.454 139.192 143.294 139.192C141.134 139.192 139.726 137.768 139.726 135.624V131.336H141.678ZM153.267 131.128C155.283 131.128 156.947 132.776 156.947 135.176C156.947 137.48 155.395 139.208 153.267 139.208C152.227 139.208 151.427 138.744 150.915 137.976V139H148.963V127.992H150.915V132.424C151.427 131.64 152.227 131.128 153.267 131.128ZM152.963 132.952C151.779 132.952 150.915 133.944 150.915 135.176C150.915 136.408 151.779 137.384 152.963 137.384C154.131 137.384 154.995 136.408 154.995 135.176C154.995 133.944 154.131 132.952 152.963 132.952ZM160.556 139H158.604V131.336H160.556V132.504C160.956 131.672 161.708 131.128 162.716 131.128C163.884 131.128 164.78 131.704 165.228 132.728C165.628 131.816 166.364 131.128 167.58 131.128C169.356 131.128 170.524 132.312 170.524 134.36V139H168.556V134.648C168.556 133.608 167.98 132.952 167.052 132.952C166.124 132.952 165.532 133.608 165.532 134.648V139H163.58V134.648C163.58 133.608 163.004 132.952 162.076 132.952C161.148 132.952 160.556 133.608 160.556 134.648V139ZM173.595 130.312C172.955 130.312 172.459 129.8 172.459 129.16C172.459 128.536 172.955 128.024 173.595 128.024C174.219 128.024 174.747 128.536 174.747 129.16C174.747 129.8 174.219 130.312 173.595 130.312ZM174.571 139H172.619V131.336H174.571V139ZM175.976 133.064V131.336H177.32V129.352H179.288V131.336H181.352V133.064H179.304V136.328C179.304 137.048 179.592 137.384 180.168 137.384C180.536 137.384 180.888 137.224 181.08 137L181.944 138.456C181.528 138.872 180.808 139.208 179.864 139.208C178.312 139.208 177.32 138.248 177.32 136.376V133.064H175.976Z" fill="white"/>
</svg>
