<svg width="152" height="44" viewBox="0 0 152 44" fill="none" xmlns="http://www.w3.org/2000/svg">
<g clip-path="url(#clip0_6330_30444)">
<path d="M0 22C0 9.84974 9.84974 0 22 0H130C142.15 0 152 9.84974 152 22C152 34.1503 142.15 44 130 44H22C9.84973 44 0 34.1503 0 22Z" fill="#2861BB"/>
<path d="M65.7122 17.9279L64.3842 19.4639C63.7922 18.9199 62.9602 18.5199 61.9362 18.5199C60.1922 18.5199 58.8002 20.0239 58.8002 21.8799C58.8002 23.7199 60.1922 25.2239 62.0642 25.2239C62.9442 25.2239 63.8242 24.8879 64.4002 24.2959L65.7122 25.7679C64.8162 26.7599 63.5842 27.2079 61.9362 27.2079C58.9442 27.2079 56.6562 24.8079 56.6562 21.8799C56.6562 18.9199 59.0243 16.5359 61.9202 16.5359C63.6482 16.5359 64.8642 17.0639 65.7122 17.9279ZM70.0799 25.3039L70.2879 27.0159C69.9999 27.1119 69.6319 27.1759 69.3439 27.1759C68.2399 27.1759 67.1199 26.4719 67.1199 24.5199V15.9919H69.0719V24.5679C69.0719 25.1599 69.4079 25.3839 69.7599 25.3839C69.8559 25.3839 69.9839 25.3519 70.0799 25.3039ZM75.4047 27.2079C73.1807 27.2079 71.4207 25.3999 71.4207 23.1599C71.4207 20.9359 73.1807 19.1279 75.4047 19.1279C77.6287 19.1279 79.3887 20.9359 79.3887 23.1599C79.3887 25.3999 77.6287 27.2079 75.4047 27.2079ZM75.4047 25.3839C76.5887 25.3839 77.4367 24.3919 77.4367 23.1599C77.4367 21.9279 76.5887 20.9519 75.4047 20.9519C74.2207 20.9519 73.3727 21.9279 73.3727 23.1599C73.3727 24.3919 74.2207 25.3839 75.4047 25.3839ZM83.3782 27.2079C82.1462 27.2079 81.1381 26.8879 80.3861 26.4719L81.0101 24.9679C81.8901 25.3839 82.6262 25.6079 83.4742 25.6079C84.3382 25.6079 84.7382 25.3039 84.7382 24.8559C84.7382 23.4799 80.6101 24.2959 80.6101 21.3999C80.6101 20.2479 81.6341 19.1279 83.6021 19.1279C84.6741 19.1279 85.4901 19.3519 86.4661 19.8159L85.7461 21.2719C85.2021 20.9679 84.3861 20.7279 83.7621 20.7279C83.0261 20.7279 82.5781 20.9679 82.5781 21.3839C82.5781 22.7919 86.6741 21.9119 86.6741 24.8239C86.6741 26.1519 85.4902 27.2079 83.3782 27.2079ZM91.8922 27.2079C89.5082 27.2079 87.7802 25.3999 87.7802 23.1599C87.7802 20.9359 89.4281 19.1279 91.6361 19.1279C93.8281 19.1279 95.5081 20.8079 95.5081 23.0159C95.5081 23.2719 95.4922 23.5759 95.4602 23.7039H89.7802C89.9882 24.7599 90.7881 25.4959 91.9561 25.4959C92.7401 25.4959 93.3961 25.1599 93.8441 24.6959L94.8521 26.0399C94.2601 26.6959 93.1722 27.2079 91.8922 27.2079ZM91.6682 20.7759C90.7402 20.7759 90.0681 21.4159 89.8281 22.3439H93.4921C93.2521 21.3199 92.5642 20.7759 91.6682 20.7759Z" fill="white"/>
</g>
<defs>
<clipPath id="clip0_6330_30444">
<rect width="152" height="44" fill="white"/>
</clipPath>
</defs>
</svg>
