<svg width="312" height="200" viewBox="0 0 312 200" fill="none" xmlns="http://www.w3.org/2000/svg">
<path d="M102 78.5H210C221.874 78.5 231.5 88.1259 231.5 100C231.5 111.874 221.874 121.5 210 121.5H102C90.1259 121.5 80.5 111.874 80.5 100C80.5 88.1259 90.1259 78.5 102 78.5Z" stroke="#2861BB"/>
<path d="M132.212 105.016C131.732 104.888 131.124 104.584 130.34 104.072L131.204 102.392C132.068 102.936 133.316 103.32 134.324 103.32C135.332 103.32 136.084 102.952 136.084 102.136C136.084 100.312 130.692 101.176 130.692 97.544C130.692 95.64 132.436 94.52 134.516 94.52C135.812 94.52 137.028 94.872 137.972 95.592L136.996 97.176C136.34 96.744 135.316 96.392 134.42 96.392C133.492 96.392 132.836 96.824 132.836 97.496C132.836 99.368 138.212 98.536 138.212 102.024C138.212 104.136 136.356 105.208 134.18 105.208C133.332 105.208 132.676 105.144 132.212 105.016ZM141.678 97.336V101.48C141.678 102.6 142.318 103.352 143.294 103.352C144.27 103.352 144.926 102.6 144.926 101.48V97.336H146.894V101.624C146.894 103.768 145.454 105.192 143.294 105.192C141.134 105.192 139.726 103.768 139.726 101.624V97.336H141.678ZM153.267 97.128C155.283 97.128 156.947 98.776 156.947 101.176C156.947 103.48 155.395 105.208 153.267 105.208C152.227 105.208 151.427 104.744 150.915 103.976V105H148.963V93.992H150.915V98.424C151.427 97.64 152.227 97.128 153.267 97.128ZM152.963 98.952C151.779 98.952 150.915 99.944 150.915 101.176C150.915 102.408 151.779 103.384 152.963 103.384C154.131 103.384 154.995 102.408 154.995 101.176C154.995 99.944 154.131 98.952 152.963 98.952ZM160.556 105H158.604V97.336H160.556V98.504C160.956 97.672 161.708 97.128 162.716 97.128C163.884 97.128 164.78 97.704 165.228 98.728C165.628 97.816 166.364 97.128 167.58 97.128C169.356 97.128 170.524 98.312 170.524 100.36V105H168.556V100.648C168.556 99.608 167.98 98.952 167.052 98.952C166.124 98.952 165.532 99.608 165.532 100.648V105H163.58V100.648C163.58 99.608 163.004 98.952 162.076 98.952C161.148 98.952 160.556 99.608 160.556 100.648V105ZM173.595 96.312C172.955 96.312 172.459 95.8 172.459 95.16C172.459 94.536 172.955 94.024 173.595 94.024C174.219 94.024 174.747 94.536 174.747 95.16C174.747 95.8 174.219 96.312 173.595 96.312ZM174.571 105H172.619V97.336H174.571V105ZM175.976 99.064V97.336H177.32V95.352H179.288V97.336H181.352V99.064H179.304V102.328C179.304 103.048 179.592 103.384 180.168 103.384C180.536 103.384 180.888 103.224 181.08 103L181.944 104.456C181.528 104.872 180.808 105.208 179.864 105.208C178.312 105.208 177.32 104.248 177.32 102.376V99.064H175.976Z" fill="#2861BB"/>
<g clip-path="url(#clip0_6125_52465)" filter="url(#filter0_d_6125_52465)">
<path d="M199.771 123.78C199.491 123.42 199.141 122.69 198.531 121.78C198.181 121.28 197.321 120.33 197.061 119.84C196.873 119.542 196.819 119.18 196.911 118.84C197.068 118.194 197.68 117.766 198.341 117.84C198.852 117.943 199.321 118.193 199.691 118.56C199.949 118.803 200.187 119.067 200.401 119.35C200.561 119.55 200.601 119.63 200.781 119.86C200.961 120.09 201.081 120.32 200.991 119.98C200.921 119.48 200.801 118.64 200.631 117.89C200.501 117.32 200.471 117.23 200.351 116.8C200.231 116.37 200.161 116.01 200.031 115.52C199.912 115.038 199.819 114.551 199.751 114.06C199.625 113.432 199.717 112.779 200.011 112.21C200.36 111.881 200.873 111.795 201.311 111.99C201.751 112.315 202.08 112.77 202.251 113.29C202.513 113.93 202.688 114.603 202.771 115.29C202.931 116.29 203.241 117.75 203.251 118.05C203.251 117.68 203.181 116.9 203.251 116.55C203.32 116.185 203.574 115.882 203.921 115.75C204.219 115.659 204.534 115.638 204.841 115.69C205.151 115.755 205.426 115.933 205.611 116.19C205.843 116.773 205.971 117.393 205.991 118.02C206.018 117.471 206.112 116.926 206.271 116.4C206.438 116.164 206.682 115.995 206.961 115.92C207.291 115.859 207.63 115.859 207.961 115.92C208.232 116.011 208.469 116.181 208.641 116.41C208.853 116.94 208.981 117.5 209.021 118.07C209.021 118.21 209.091 117.68 209.311 117.33C209.425 116.991 209.712 116.738 210.063 116.667C210.414 116.597 210.776 116.718 211.013 116.987C211.25 117.256 211.325 117.631 211.211 117.97C211.211 118.62 211.211 118.59 211.211 119.03C211.211 119.47 211.211 119.86 211.211 120.23C211.174 120.815 211.094 121.397 210.971 121.97C210.797 122.477 210.555 122.958 210.251 123.4C209.765 123.94 209.364 124.55 209.061 125.21C208.986 125.538 208.952 125.874 208.961 126.21C208.96 126.521 209 126.83 209.081 127.13C208.672 127.173 208.26 127.173 207.851 127.13C207.461 127.07 206.981 126.29 206.851 126.05C206.787 125.921 206.655 125.84 206.511 125.84C206.367 125.84 206.235 125.921 206.171 126.05C205.951 126.43 205.461 127.12 205.121 127.16C204.451 127.24 203.071 127.16 201.981 127.16C201.981 127.16 202.161 126.16 201.751 125.8C201.341 125.44 200.921 125.02 200.611 124.74L199.771 123.78Z" fill="white"/>
<path fill-rule="evenodd" clip-rule="evenodd" d="M199.771 123.78C199.491 123.42 199.141 122.69 198.531 121.78C198.181 121.28 197.321 120.33 197.061 119.84C196.873 119.542 196.819 119.18 196.911 118.84C197.068 118.194 197.68 117.766 198.341 117.84C198.852 117.943 199.321 118.193 199.691 118.56C199.949 118.803 200.187 119.067 200.401 119.35C200.561 119.55 200.601 119.63 200.781 119.86C200.961 120.09 201.081 120.32 200.991 119.98C200.921 119.48 200.801 118.64 200.631 117.89C200.501 117.32 200.471 117.23 200.351 116.8C200.231 116.37 200.161 116.01 200.031 115.52C199.912 115.038 199.819 114.551 199.751 114.06C199.625 113.432 199.717 112.779 200.011 112.21C200.36 111.881 200.873 111.795 201.311 111.99C201.751 112.315 202.08 112.77 202.251 113.29C202.513 113.93 202.688 114.603 202.771 115.29C202.931 116.29 203.241 117.75 203.251 118.05C203.251 117.68 203.181 116.9 203.251 116.55C203.32 116.185 203.574 115.882 203.921 115.75C204.219 115.659 204.534 115.638 204.841 115.69C205.151 115.755 205.426 115.933 205.611 116.19C205.843 116.773 205.971 117.393 205.991 118.02C206.018 117.471 206.112 116.926 206.271 116.4C206.438 116.164 206.682 115.995 206.961 115.92C207.291 115.859 207.63 115.859 207.961 115.92C208.232 116.011 208.469 116.181 208.641 116.41C208.853 116.94 208.981 117.5 209.021 118.07C209.021 118.21 209.091 117.68 209.311 117.33C209.425 116.991 209.712 116.738 210.063 116.667C210.414 116.597 210.776 116.718 211.013 116.987C211.25 117.256 211.325 117.631 211.211 117.97C211.211 118.62 211.211 118.59 211.211 119.03C211.211 119.47 211.211 119.86 211.211 120.23C211.174 120.815 211.094 121.397 210.971 121.97C210.797 122.477 210.555 122.958 210.251 123.4C209.765 123.94 209.364 124.55 209.061 125.21C208.986 125.538 208.952 125.874 208.961 126.21C208.96 126.521 209 126.83 209.081 127.13C208.672 127.173 208.26 127.173 207.851 127.13C207.461 127.07 206.981 126.29 206.851 126.05C206.787 125.921 206.655 125.84 206.511 125.84C206.367 125.84 206.235 125.921 206.171 126.05C205.951 126.43 205.461 127.12 205.121 127.16C204.451 127.24 203.071 127.16 201.981 127.16C201.981 127.16 202.161 126.16 201.751 125.8C201.341 125.44 200.921 125.02 200.611 124.74L199.771 123.78Z" stroke="#0F0F0F" stroke-width="0.75" stroke-linecap="round" stroke-linejoin="round"/>
<path d="M208.25 124.326V120.874C208.25 120.667 208.082 120.5 207.875 120.5C207.668 120.5 207.5 120.667 207.5 120.874V124.326C207.5 124.533 207.668 124.7 207.875 124.7C208.082 124.7 208.25 124.533 208.25 124.326Z" fill="#0F0F0F"/>
<path d="M206.27 124.325L206.25 120.871C206.249 120.665 206.08 120.499 205.873 120.5C205.666 120.501 205.499 120.669 205.5 120.875L205.52 124.329C205.521 124.535 205.69 124.701 205.897 124.7C206.104 124.699 206.271 124.531 206.27 124.325Z" fill="#0F0F0F"/>
<path d="M203.5 120.879L203.52 124.325C203.521 124.533 203.69 124.701 203.897 124.7C204.104 124.699 204.271 124.529 204.27 124.321L204.25 120.875C204.249 120.667 204.08 120.499 203.873 120.5C203.666 120.501 203.499 120.671 203.5 120.879Z" fill="#0F0F0F"/>
</g>
<defs>
<filter id="filter0_d_6125_52465" x="193.7" y="110.7" width="20.6" height="20.6" filterUnits="userSpaceOnUse" color-interpolation-filters="sRGB">
<feFlood flood-opacity="0" result="BackgroundImageFix"/>
<feColorMatrix in="SourceAlpha" type="matrix" values="0 0 0 0 0 0 0 0 0 0 0 0 0 0 0 0 0 0 127 0" result="hardAlpha"/>
<feOffset dy="1"/>
<feGaussianBlur stdDeviation="0.9"/>
<feColorMatrix type="matrix" values="0 0 0 0 0 0 0 0 0 0 0 0 0 0 0 0 0 0 0.65 0"/>
<feBlend mode="normal" in2="BackgroundImageFix" result="effect1_dropShadow_6125_52465"/>
<feBlend mode="normal" in="SourceGraphic" in2="effect1_dropShadow_6125_52465" result="shape"/>
</filter>
<clipPath id="clip0_6125_52465">
<rect width="17" height="17" fill="white" transform="translate(195.5 111.5)"/>
</clipPath>
</defs>
</svg>
