<svg width="312" height="92" viewBox="0 0 312 92" fill="none" xmlns="http://www.w3.org/2000/svg">
<path d="M24 46C24 33.8497 33.8497 24 46 24H266C278.15 24 288 33.8497 288 46V46C288 58.1503 278.15 68 266 68H46C33.8497 68 24 58.1503 24 46V46Z" fill="#BF1722"/>
<path d="M133.004 51V40.76H136.428C139.804 40.76 142.22 42.888 142.22 45.88C142.22 48.872 139.836 51 136.492 51H133.004ZM136.412 42.632H135.068V49.112H136.428C138.62 49.112 140.076 47.832 140.076 45.88C140.076 43.912 138.62 42.632 136.412 42.632ZM147.571 51.208C145.187 51.208 143.459 49.4 143.459 47.16C143.459 44.936 145.107 43.128 147.315 43.128C149.507 43.128 151.187 44.808 151.187 47.016C151.187 47.272 151.171 47.576 151.139 47.704H145.459C145.667 48.76 146.467 49.496 147.635 49.496C148.419 49.496 149.075 49.16 149.523 48.696L150.531 50.04C149.939 50.696 148.851 51.208 147.571 51.208ZM147.347 44.776C146.419 44.776 145.747 45.416 145.507 46.344H149.171C148.931 45.32 148.243 44.776 147.347 44.776ZM155.712 49.304L155.92 51.016C155.632 51.112 155.264 51.176 154.976 51.176C153.872 51.176 152.752 50.472 152.752 48.52V39.992H154.704V48.568C154.704 49.16 155.04 49.384 155.392 49.384C155.488 49.384 155.616 49.352 155.712 49.304ZM161.165 51.208C158.781 51.208 157.053 49.4 157.053 47.16C157.053 44.936 158.701 43.128 160.909 43.128C163.101 43.128 164.781 44.808 164.781 47.016C164.781 47.272 164.765 47.576 164.733 47.704H159.053C159.261 48.76 160.061 49.496 161.229 49.496C162.013 49.496 162.669 49.16 163.117 48.696L164.125 50.04C163.533 50.696 162.445 51.208 161.165 51.208ZM160.941 44.776C160.013 44.776 159.341 45.416 159.101 46.344H162.765C162.525 45.32 161.837 44.776 160.941 44.776ZM165.562 45.064V43.336H166.906V41.352H168.874V43.336H170.938V45.064H168.89V48.328C168.89 49.048 169.178 49.384 169.754 49.384C170.122 49.384 170.474 49.224 170.666 49L171.53 50.456C171.114 50.872 170.394 51.208 169.45 51.208C167.898 51.208 166.906 50.248 166.906 48.376V45.064H165.562ZM176.071 51.208C173.687 51.208 171.959 49.4 171.959 47.16C171.959 44.936 173.607 43.128 175.815 43.128C178.007 43.128 179.687 44.808 179.687 47.016C179.687 47.272 179.671 47.576 179.639 47.704H173.959C174.167 48.76 174.967 49.496 176.135 49.496C176.919 49.496 177.575 49.16 178.023 48.696L179.031 50.04C178.439 50.696 177.351 51.208 176.071 51.208ZM175.847 44.776C174.919 44.776 174.247 45.416 174.007 46.344H177.671C177.431 45.32 176.743 44.776 175.847 44.776Z" fill="white"/>
</svg>
