<svg width="264" height="44" viewBox="0 0 264 44" fill="none" xmlns="http://www.w3.org/2000/svg">
<g clip-path="url(#clip0_6330_30485)">
<path d="M0 22C0 9.84974 9.84974 0 22 0H242C254.15 0 264 9.84974 264 22C264 34.1503 254.15 44 242 44H22C9.84973 44 0 34.1503 0 22Z" fill="#2861BB"/>
<path fill-rule="evenodd" clip-rule="evenodd" d="M43 14H42V12H40V14H32V12H30V14H29C27.89 14 27.01 14.9 27.01 16L27 30C27 31.1 27.89 32 29 32H43C44.1 32 45 31.1 45 30V16C45 14.9 44.1 14 43 14ZM43 30H29V20H43V30ZM43 18H29V16H43V18ZM33 24H31V22H33V24ZM37 24H35V22H37V24ZM41 24H39V22H41V24ZM33 28H31V26H33V28ZM37 28H35V26H37V28ZM41 28H39V26H41V28Z" fill="white"/>
<path d="M57.2305 26.9999V16.7599H61.3585C63.2785 16.7599 64.7345 17.9279 64.7345 19.5919C64.7345 20.7919 63.9025 21.4479 63.2145 21.7359C64.2225 22.0399 65.0225 22.8399 65.0225 24.1199C65.0225 25.6559 63.8225 26.9999 61.5985 26.9999H57.2305ZM61.1665 18.5199H59.2305V20.9839H61.1665C62.0465 20.9839 62.6545 20.4719 62.6545 19.7519C62.6545 19.0319 62.0305 18.5199 61.1665 18.5199ZM61.3905 22.6319H59.2305V25.2239H61.3905C62.2865 25.2239 62.9425 24.6799 62.9425 23.9279C62.9425 23.1759 62.2865 22.6319 61.3905 22.6319ZM68.4596 19.3359V23.4799C68.4596 24.5999 69.0996 25.3519 70.0756 25.3519C71.0516 25.3519 71.7076 24.5999 71.7076 23.4799V19.3359H73.6756V23.6239C73.6756 25.7679 72.2356 27.1919 70.0756 27.1919C67.9156 27.1919 66.5076 25.7679 66.5076 23.6239V19.3359H68.4596ZM74.9603 21.0639V19.3359H76.3043V17.3519H78.2723V19.3359H80.3363V21.0639H78.2883V24.3279C78.2883 25.0479 78.5763 25.3839 79.1523 25.3839C79.5203 25.3839 79.8723 25.2239 80.0643 24.9999L80.9283 26.4559C80.5123 26.8719 79.7923 27.2079 78.8483 27.2079C77.2963 27.2079 76.3043 26.2479 76.3043 24.3759V21.0639H74.9603ZM81.4446 21.0639V19.3359H82.7886V17.3519H84.7566V19.3359H86.8206V21.0639H84.7726V24.3279C84.7726 25.0479 85.0606 25.3839 85.6366 25.3839C86.0046 25.3839 86.3566 25.2239 86.5486 24.9999L87.4126 26.4559C86.9966 26.8719 86.2766 27.2079 85.3326 27.2079C83.7806 27.2079 82.7886 26.2479 82.7886 24.3759V21.0639H81.4446ZM91.826 27.2079C89.602 27.2079 87.842 25.3999 87.842 23.1599C87.842 20.9359 89.602 19.1279 91.826 19.1279C94.05 19.1279 95.81 20.9359 95.81 23.1599C95.81 25.3999 94.05 27.2079 91.826 27.2079ZM91.826 25.3839C93.01 25.3839 93.858 24.3919 93.858 23.1599C93.858 21.9279 93.01 20.9519 91.826 20.9519C90.642 20.9519 89.794 21.9279 89.794 23.1599C89.794 24.3919 90.642 25.3839 91.826 25.3839ZM97.4943 26.9999V19.3359H99.4463V20.4239C99.8463 19.6079 100.614 19.1279 101.622 19.1279C103.382 19.1279 104.518 20.3599 104.518 22.3599V26.9999H102.566V22.6479C102.566 21.6079 101.974 20.9519 101.014 20.9519C100.054 20.9519 99.4463 21.6079 99.4463 22.6479V26.9999H97.4943ZM110.137 26.9999V16.7439H112.137V25.1119H117.145V26.9999H110.137ZM121.319 27.2079C119.303 27.2079 117.655 25.5599 117.655 23.1599C117.655 20.8559 119.207 19.1279 121.319 19.1279C122.359 19.1279 123.159 19.5919 123.671 20.3439V19.3359H125.623V26.9999H123.671V25.9119C123.159 26.6959 122.359 27.2079 121.319 27.2079ZM121.639 25.3839C122.823 25.3839 123.671 24.3919 123.671 23.1599C123.671 21.9279 122.823 20.9519 121.639 20.9519C120.455 20.9519 119.607 21.9279 119.607 23.1599C119.607 24.3919 120.455 25.3839 121.639 25.3839ZM132.095 19.1279C134.111 19.1279 135.775 20.7759 135.775 23.1759C135.775 25.4799 134.223 27.2079 132.095 27.2079C131.055 27.2079 130.255 26.7439 129.743 25.9759V26.9999H127.791V15.9919H129.743V20.4239C130.255 19.6399 131.055 19.1279 132.095 19.1279ZM131.791 20.9519C130.607 20.9519 129.743 21.9439 129.743 23.1759C129.743 24.4079 130.607 25.3839 131.791 25.3839C132.959 25.3839 133.823 24.4079 133.823 23.1759C133.823 21.9439 132.959 20.9519 131.791 20.9519ZM141.048 27.2079C138.664 27.2079 136.936 25.3999 136.936 23.1599C136.936 20.9359 138.584 19.1279 140.792 19.1279C142.984 19.1279 144.664 20.8079 144.664 23.0159C144.664 23.2719 144.648 23.5759 144.616 23.7039H138.936C139.144 24.7599 139.944 25.4959 141.112 25.4959C141.896 25.4959 142.552 25.1599 143 24.6959L144.008 26.0399C143.416 26.6959 142.328 27.2079 141.048 27.2079ZM140.824 20.7759C139.896 20.7759 139.224 21.4159 138.984 22.3439H142.648C142.408 21.3199 141.72 20.7759 140.824 20.7759ZM149.189 25.3039L149.397 27.0159C149.109 27.1119 148.741 27.1759 148.453 27.1759C147.349 27.1759 146.229 26.4719 146.229 24.5199V15.9919H148.181V24.5679C148.181 25.1599 148.517 25.3839 148.869 25.3839C148.965 25.3839 149.093 25.3519 149.189 25.3039Z" fill="white"/>
<path d="M219 28V26H225V28H219ZM219 23V21H231V23H219ZM219 18V16H237V18H219Z" fill="white"/>
</g>
<defs>
<clipPath id="clip0_6330_30485">
<rect width="264" height="44" fill="white"/>
</clipPath>
</defs>
</svg>
