<svg width="152" height="44" viewBox="0 0 152 44" fill="none" xmlns="http://www.w3.org/2000/svg">
<g clip-path="url(#clip0_6330_30616)">
<path d="M0 22C0 9.84974 9.84974 0 22 0H130C142.15 0 152 9.84974 152 22C152 34.1503 142.15 44 130 44H22C9.84973 44 0 34.1503 0 22Z" fill="#2861BB"/>
<path d="M47.918 26.9999V16.7439H51.582C54.062 16.7439 55.694 18.0879 55.694 20.1359C55.694 22.1999 54.046 23.5599 51.55 23.5599H49.918V26.9999H47.918ZM51.742 18.5199H49.918V21.7839H51.742C52.846 21.7839 53.582 21.1279 53.582 20.1359C53.582 19.1599 52.846 18.5199 51.742 18.5199ZM57.2599 26.9999V19.3359H59.2119V20.4719C59.5799 19.6559 60.2359 19.1279 61.0999 19.1279C61.6119 19.1279 62.0279 19.2559 62.3159 19.4959L61.5159 21.3359C61.2599 21.1439 60.8759 21.0159 60.4919 21.0159C59.7239 21.0159 59.2119 21.6719 59.2119 22.7119V26.9999H57.2599ZM64.6265 18.3119C63.9865 18.3119 63.4905 17.7999 63.4905 17.1599C63.4905 16.5359 63.9865 16.0239 64.6265 16.0239C65.2505 16.0239 65.7785 16.5359 65.7785 17.1599C65.7785 17.7999 65.2505 18.3119 64.6265 18.3119ZM65.6025 26.9999H63.6505V19.3359H65.6025V26.9999ZM69.7431 26.9999H67.7911V19.3359H69.7431V20.5039C70.1431 19.6719 70.8951 19.1279 71.9031 19.1279C73.0711 19.1279 73.9671 19.7039 74.4151 20.7279C74.8151 19.8159 75.5511 19.1279 76.7671 19.1279C78.5431 19.1279 79.7111 20.3119 79.7111 22.3599V26.9999H77.7431V22.6479C77.7431 21.6079 77.1671 20.9519 76.2391 20.9519C75.3111 20.9519 74.7191 21.6079 74.7191 22.6479V26.9999H72.7671V22.6479C72.7671 21.6079 72.1911 20.9519 71.2631 20.9519C70.3351 20.9519 69.7431 21.6079 69.7431 22.6479V26.9999ZM84.9748 27.2079C82.9588 27.2079 81.3108 25.5599 81.3108 23.1599C81.3108 20.8559 82.8628 19.1279 84.9748 19.1279C86.0148 19.1279 86.8148 19.5919 87.3268 20.3439V19.3359H89.2788V26.9999H87.3268V25.9119C86.8148 26.6959 86.0148 27.2079 84.9748 27.2079ZM85.2948 25.3839C86.4788 25.3839 87.3268 24.3919 87.3268 23.1599C87.3268 21.9279 86.4788 20.9519 85.2948 20.9519C84.1108 20.9519 83.2628 21.9279 83.2628 23.1599C83.2628 24.3919 84.1108 25.3839 85.2948 25.3839ZM91.4474 26.9999V19.3359H93.3994V20.4719C93.7674 19.6559 94.4234 19.1279 95.2874 19.1279C95.7994 19.1279 96.2154 19.2559 96.5034 19.4959L95.7034 21.3359C95.4474 21.1439 95.0634 21.0159 94.6794 21.0159C93.9114 21.0159 93.3994 21.6719 93.3994 22.7119V26.9999H91.4474ZM100.286 27.3039L100.35 27.1119L96.846 19.3359H98.99L101.23 24.6159L103.07 19.3359H105.038L101.902 27.9759C101.31 29.6559 100.334 30.3439 99.054 30.3439C98.238 30.3439 97.454 30.0079 96.958 29.5439L97.838 28.0079C98.206 28.3599 98.622 28.5199 99.07 28.5199C99.614 28.5199 99.966 28.1999 100.286 27.3039Z" fill="white"/>
</g>
<defs>
<clipPath id="clip0_6330_30616">
<rect width="152" height="44" fill="white"/>
</clipPath>
</defs>
</svg>
