<svg width="154" height="56" viewBox="0 0 154 56" fill="none" xmlns="http://www.w3.org/2000/svg">
<g clip-path="url(#clip0_6330_30459)">
<path d="M28 1H126C140.912 1 153 13.0883 153 28C153 42.9117 140.912 55 126 55H28C13.0883 55 1 42.9117 1 28C1 13.0883 13.0883 1 28 1Z" stroke="#1A3673" stroke-width="2"/>
<path d="M6 28C6 15.8497 15.8497 6 28 6H126C138.15 6 148 15.8497 148 28C148 40.1503 138.15 50 126 50H28C15.8497 50 6 40.1503 6 28Z" fill="#2861BB"/>
<path d="M53.2118 33.0159C52.7318 32.8879 52.1238 32.5839 51.3398 32.0719L52.2038 30.3919C53.0678 30.9359 54.3158 31.3199 55.3238 31.3199C56.3318 31.3199 57.0838 30.9519 57.0838 30.1359C57.0838 28.3119 51.6918 29.1759 51.6918 25.5439C51.6918 23.6399 53.4358 22.5199 55.5158 22.5199C56.8118 22.5199 58.0278 22.8719 58.9718 23.5919L57.9958 25.1759C57.3398 24.7439 56.3158 24.3919 55.4198 24.3919C54.4918 24.3919 53.8358 24.8239 53.8358 25.4959C53.8358 27.3679 59.2118 26.5359 59.2118 30.0239C59.2118 32.1359 57.3558 33.2079 55.1798 33.2079C54.3318 33.2079 53.6758 33.1439 53.2118 33.0159ZM62.6784 25.3359V29.4799C62.6784 30.5999 63.3184 31.3519 64.2944 31.3519C65.2704 31.3519 65.9264 30.5999 65.9264 29.4799V25.3359H67.8944V29.6239C67.8944 31.7679 66.4544 33.1919 64.2944 33.1919C62.1344 33.1919 60.7264 31.7679 60.7264 29.6239V25.3359H62.6784ZM74.267 25.1279C76.283 25.1279 77.947 26.7759 77.947 29.1759C77.947 31.4799 76.395 33.2079 74.267 33.2079C73.227 33.2079 72.427 32.7439 71.915 31.9759V32.9999H69.963V21.9919H71.915V26.4239C72.427 25.6399 73.227 25.1279 74.267 25.1279ZM73.963 26.9519C72.779 26.9519 71.915 27.9439 71.915 29.1759C71.915 30.4079 72.779 31.3839 73.963 31.3839C75.131 31.3839 75.995 30.4079 75.995 29.1759C75.995 27.9439 75.131 26.9519 73.963 26.9519ZM81.5556 32.9999H79.6036V25.3359H81.5556V26.5039C81.9556 25.6719 82.7076 25.1279 83.7156 25.1279C84.8836 25.1279 85.7796 25.7039 86.2276 26.7279C86.6276 25.8159 87.3636 25.1279 88.5796 25.1279C90.3556 25.1279 91.5236 26.3119 91.5236 28.3599V32.9999H89.5556V28.6479C89.5556 27.6079 88.9796 26.9519 88.0516 26.9519C87.1236 26.9519 86.5316 27.6079 86.5316 28.6479V32.9999H84.5796V28.6479C84.5796 27.6079 84.0036 26.9519 83.0756 26.9519C82.1476 26.9519 81.5556 27.6079 81.5556 28.6479V32.9999ZM94.5953 24.3119C93.9553 24.3119 93.4593 23.7999 93.4593 23.1599C93.4593 22.5359 93.9553 22.0239 94.5953 22.0239C95.2193 22.0239 95.7473 22.5359 95.7473 23.1599C95.7473 23.7999 95.2193 24.3119 94.5953 24.3119ZM95.5713 32.9999H93.6193V25.3359H95.5713V32.9999ZM96.9759 27.0639V25.3359H98.3199V23.3519H100.288V25.3359H102.352V27.0639H100.304V30.3279C100.304 31.0479 100.592 31.3839 101.168 31.3839C101.536 31.3839 101.888 31.2239 102.08 30.9999L102.944 32.4559C102.528 32.8719 101.808 33.2079 100.864 33.2079C99.3119 33.2079 98.3199 32.2479 98.3199 30.3759V27.0639H96.9759Z" fill="white"/>
</g>
<defs>
<clipPath id="clip0_6330_30459">
<rect width="154" height="56" fill="white"/>
</clipPath>
</defs>
</svg>
