<svg width="80" height="40" viewBox="0 0 80 40" fill="none" xmlns="http://www.w3.org/2000/svg">
<g clip-path="url(#clip0_6330_30469)">
<path d="M0 20C0 8.95431 8.95431 0 20 0H60C71.0457 0 80 8.95431 80 20C80 31.0457 71.0457 40 60 40H20C8.95431 40 0 31.0457 0 20Z" fill="#2861BB"/>
<path d="M22.1579 24.0119C21.7979 23.9159 21.3419 23.6879 20.7539 23.3039L21.4019 22.0439C22.0499 22.4519 22.9859 22.7399 23.7419 22.7399C24.4979 22.7399 25.0619 22.4639 25.0619 21.8519C25.0619 20.4839 21.0179 21.1319 21.0179 18.4079C21.0179 16.9799 22.3259 16.1399 23.8859 16.1399C24.8579 16.1399 25.7699 16.4039 26.4779 16.9439L25.7459 18.1319C25.2539 17.8079 24.4859 17.5439 23.8139 17.5439C23.1179 17.5439 22.6259 17.8679 22.6259 18.3719C22.6259 19.7759 26.6579 19.1519 26.6579 21.7679C26.6579 23.3519 25.2659 24.1559 23.6339 24.1559C22.9979 24.1559 22.5059 24.1079 22.1579 24.0119ZM29.2579 18.2519V21.3599C29.2579 22.1999 29.7379 22.7639 30.4699 22.7639C31.2019 22.7639 31.6939 22.1999 31.6939 21.3599V18.2519H33.1699V21.4679C33.1699 23.0759 32.0899 24.1439 30.4699 24.1439C28.8499 24.1439 27.7939 23.0759 27.7939 21.4679V18.2519H29.2579ZM37.9494 18.0959C39.4614 18.0959 40.7094 19.3319 40.7094 21.1319C40.7094 22.8599 39.5454 24.1559 37.9494 24.1559C37.1694 24.1559 36.5694 23.8079 36.1854 23.2319V23.9999H34.7214V15.7439H36.1854V19.0679C36.5694 18.4799 37.1694 18.0959 37.9494 18.0959ZM37.7214 19.4639C36.8334 19.4639 36.1854 20.2079 36.1854 21.1319C36.1854 22.0559 36.8334 22.7879 37.7214 22.7879C38.5974 22.7879 39.2454 22.0559 39.2454 21.1319C39.2454 20.2079 38.5974 19.4639 37.7214 19.4639ZM43.4158 23.9999H41.9518V18.2519H43.4158V19.1279C43.7158 18.5039 44.2798 18.0959 45.0358 18.0959C45.9118 18.0959 46.5838 18.5279 46.9198 19.2959C47.2198 18.6119 47.7718 18.0959 48.6838 18.0959C50.0158 18.0959 50.8918 18.9839 50.8918 20.5199V23.9999H49.4158V20.7359C49.4158 19.9559 48.9838 19.4639 48.2878 19.4639C47.5918 19.4639 47.1478 19.9559 47.1478 20.7359V23.9999H45.6838V20.7359C45.6838 19.9559 45.2518 19.4639 44.5558 19.4639C43.8598 19.4639 43.4158 19.9559 43.4158 20.7359V23.9999ZM53.1955 17.4839C52.7155 17.4839 52.3435 17.0999 52.3435 16.6199C52.3435 16.1519 52.7155 15.7679 53.1955 15.7679C53.6635 15.7679 54.0595 16.1519 54.0595 16.6199C54.0595 17.0999 53.6635 17.4839 53.1955 17.4839ZM53.9275 23.9999H52.4635V18.2519H53.9275V23.9999ZM54.981 19.5479V18.2519H55.989V16.7639H57.465V18.2519H59.013V19.5479H57.477V21.9959C57.477 22.5359 57.693 22.7879 58.125 22.7879C58.401 22.7879 58.665 22.6679 58.809 22.4999L59.457 23.5919C59.145 23.9039 58.605 24.1559 57.897 24.1559C56.733 24.1559 55.989 23.4359 55.989 22.0319V19.5479H54.981Z" fill="white"/>
</g>
<defs>
<clipPath id="clip0_6330_30469">
<rect width="80" height="40" fill="white"/>
</clipPath>
</defs>
</svg>
