<svg width="152" height="44" viewBox="0 0 152 44" fill="none" xmlns="http://www.w3.org/2000/svg">
<path d="M55.5062 18.6159H52.4662V26.9999H50.4502V18.6159H47.4102V16.7439H55.5062V18.6159ZM59.0952 27.2079C56.7112 27.2079 54.9832 25.3999 54.9832 23.1599C54.9832 20.9359 56.6312 19.1279 58.8392 19.1279C61.0312 19.1279 62.7112 20.8079 62.7112 23.0159C62.7112 23.2719 62.6952 23.5759 62.6632 23.7039H56.9832C57.1912 24.7599 57.9912 25.4959 59.1592 25.4959C59.9432 25.4959 60.5992 25.1599 61.0472 24.6959L62.0552 26.0399C61.4632 26.6959 60.3752 27.2079 59.0952 27.2079ZM58.8712 20.7759C57.9432 20.7759 57.2712 21.4159 57.0312 22.3439H60.6952C60.4552 21.3199 59.7672 20.7759 58.8712 20.7759ZM64.2761 26.9999V19.3359H66.2281V20.4719C66.5961 19.6559 67.2521 19.1279 68.1161 19.1279C68.6281 19.1279 69.0441 19.2559 69.3321 19.4959L68.5321 21.3359C68.2761 21.1439 67.8921 21.0159 67.5081 21.0159C66.7401 21.0159 66.2281 21.6719 66.2281 22.7119V26.9999H64.2761ZM69.8827 21.0639V19.3359H71.2267V17.3519H73.1947V19.3359H75.2587V21.0639H73.2107V24.3279C73.2107 25.0479 73.4987 25.3839 74.0747 25.3839C74.4427 25.3839 74.7947 25.2239 74.9867 24.9999L75.8507 26.4559C75.4347 26.8719 74.7147 27.2079 73.7707 27.2079C72.2187 27.2079 71.2267 26.2479 71.2267 24.3759V21.0639H69.8827ZM78.1271 18.3119C77.4871 18.3119 76.9911 17.7999 76.9911 17.1599C76.9911 16.5359 77.4871 16.0239 78.1271 16.0239C78.7511 16.0239 79.2791 16.5359 79.2791 17.1599C79.2791 17.7999 78.7511 18.3119 78.1271 18.3119ZM79.1031 26.9999H77.1511V19.3359H79.1031V26.9999ZM84.4597 27.2079C82.4437 27.2079 80.7957 25.5599 80.7957 23.1599C80.7957 20.8559 82.3477 19.1279 84.4597 19.1279C85.4997 19.1279 86.2997 19.5919 86.8117 20.3439V19.3359H88.7637V26.9999H86.8117V25.9119C86.2997 26.6959 85.4997 27.2079 84.4597 27.2079ZM84.7797 25.3839C85.9637 25.3839 86.8117 24.3919 86.8117 23.1599C86.8117 21.9279 85.9637 20.9519 84.7797 20.9519C83.5957 20.9519 82.7477 21.9279 82.7477 23.1599C82.7477 24.3919 83.5957 25.3839 84.7797 25.3839ZM90.9324 26.9999V19.3359H92.8844V20.4719C93.2524 19.6559 93.9084 19.1279 94.7724 19.1279C95.2844 19.1279 95.7004 19.2559 95.9884 19.4959L95.1884 21.3359C94.9324 21.1439 94.5483 21.0159 94.1644 21.0159C93.3964 21.0159 92.8844 21.6719 92.8844 22.7119V26.9999H90.9324ZM99.771 27.3039L99.835 27.1119L96.331 19.3359H98.475L100.715 24.6159L102.555 19.3359H104.523L101.387 27.9759C100.795 29.6559 99.819 30.3439 98.539 30.3439C97.723 30.3439 96.939 30.0079 96.443 29.5439L97.323 28.0079C97.691 28.3599 98.107 28.5199 98.555 28.5199C99.099 28.5199 99.451 28.1999 99.771 27.3039Z" fill="#2861BB"/>
<path d="M47.2656 29H104.73V29.8H47.2656V29Z" fill="#2861BB"/>
</svg>
