<svg width="264" height="44" viewBox="0 0 264 44" fill="none" xmlns="http://www.w3.org/2000/svg">
<g clip-path="url(#clip0_6330_30481)">
<path d="M0 22C0 9.84974 9.84974 0 22 0H242C254.15 0 264 9.84974 264 22C264 34.1503 254.15 44 242 44H22C9.84973 44 0 34.1503 0 22Z" fill="#2861BB"/>
<path d="M25.2305 26.9999V16.7599H29.3585C31.2785 16.7599 32.7345 17.9279 32.7345 19.5919C32.7345 20.7919 31.9025 21.4479 31.2145 21.7359C32.2225 22.0399 33.0225 22.8399 33.0225 24.1199C33.0225 25.6559 31.8225 26.9999 29.5985 26.9999H25.2305ZM29.1665 18.5199H27.2305V20.9839H29.1665C30.0465 20.9839 30.6545 20.4719 30.6545 19.7519C30.6545 19.0319 30.0305 18.5199 29.1665 18.5199ZM29.3905 22.6319H27.2305V25.2239H29.3905C30.2865 25.2239 30.9425 24.6799 30.9425 23.9279C30.9425 23.1759 30.2865 22.6319 29.3905 22.6319ZM36.4596 19.3359V23.4799C36.4596 24.5999 37.0996 25.3519 38.0756 25.3519C39.0516 25.3519 39.7076 24.5999 39.7076 23.4799V19.3359H41.6756V23.6239C41.6756 25.7679 40.2356 27.1919 38.0756 27.1919C35.9156 27.1919 34.5076 25.7679 34.5076 23.6239V19.3359H36.4596ZM42.9603 21.0639V19.3359H44.3043V17.3519H46.2723V19.3359H48.3363V21.0639H46.2883V24.3279C46.2883 25.0479 46.5763 25.3839 47.1523 25.3839C47.5203 25.3839 47.8723 25.2239 48.0643 24.9999L48.9283 26.4559C48.5123 26.8719 47.7923 27.2079 46.8483 27.2079C45.2963 27.2079 44.3043 26.2479 44.3043 24.3759V21.0639H42.9603ZM49.4446 21.0639V19.3359H50.7886V17.3519H52.7566V19.3359H54.8206V21.0639H52.7726V24.3279C52.7726 25.0479 53.0606 25.3839 53.6366 25.3839C54.0046 25.3839 54.3566 25.2239 54.5486 24.9999L55.4126 26.4559C54.9966 26.8719 54.2766 27.2079 53.3326 27.2079C51.7806 27.2079 50.7886 26.2479 50.7886 24.3759V21.0639H49.4446ZM59.826 27.2079C57.602 27.2079 55.842 25.3999 55.842 23.1599C55.842 20.9359 57.602 19.1279 59.826 19.1279C62.05 19.1279 63.81 20.9359 63.81 23.1599C63.81 25.3999 62.05 27.2079 59.826 27.2079ZM59.826 25.3839C61.01 25.3839 61.858 24.3919 61.858 23.1599C61.858 21.9279 61.01 20.9519 59.826 20.9519C58.642 20.9519 57.794 21.9279 57.794 23.1599C57.794 24.3919 58.642 25.3839 59.826 25.3839ZM65.4943 26.9999V19.3359H67.4463V20.4239C67.8463 19.6079 68.6143 19.1279 69.6223 19.1279C71.3823 19.1279 72.5183 20.3599 72.5183 22.3599V26.9999H70.5663V22.6479C70.5663 21.6079 69.9743 20.9519 69.0143 20.9519C68.0543 20.9519 67.4463 21.6079 67.4463 22.6479V26.9999H65.4943ZM78.1368 26.9999V16.7439H80.1368V25.1119H85.1448V26.9999H78.1368ZM89.3185 27.2079C87.3025 27.2079 85.6545 25.5599 85.6545 23.1599C85.6545 20.8559 87.2065 19.1279 89.3185 19.1279C90.3585 19.1279 91.1585 19.5919 91.6705 20.3439V19.3359H93.6225V26.9999H91.6705V25.9119C91.1585 26.6959 90.3585 27.2079 89.3185 27.2079ZM89.6385 25.3839C90.8225 25.3839 91.6705 24.3919 91.6705 23.1599C91.6705 21.9279 90.8225 20.9519 89.6385 20.9519C88.4545 20.9519 87.6065 21.9279 87.6065 23.1599C87.6065 24.3919 88.4545 25.3839 89.6385 25.3839ZM100.095 19.1279C102.111 19.1279 103.775 20.7759 103.775 23.1759C103.775 25.4799 102.223 27.2079 100.095 27.2079C99.0551 27.2079 98.2551 26.7439 97.7431 25.9759V26.9999H95.7911V15.9919H97.7431V20.4239C98.2551 19.6399 99.0551 19.1279 100.095 19.1279ZM99.7911 20.9519C98.6071 20.9519 97.7431 21.9439 97.7431 23.1759C97.7431 24.4079 98.6071 25.3839 99.7911 25.3839C100.959 25.3839 101.823 24.4079 101.823 23.1759C101.823 21.9439 100.959 20.9519 99.7911 20.9519ZM109.048 27.2079C106.664 27.2079 104.936 25.3999 104.936 23.1599C104.936 20.9359 106.584 19.1279 108.792 19.1279C110.984 19.1279 112.664 20.8079 112.664 23.0159C112.664 23.2719 112.648 23.5759 112.616 23.7039H106.936C107.144 24.7599 107.944 25.4959 109.112 25.4959C109.896 25.4959 110.552 25.1599 111 24.6959L112.008 26.0399C111.416 26.6959 110.328 27.2079 109.048 27.2079ZM108.824 20.7759C107.896 20.7759 107.224 21.4159 106.984 22.3439H110.648C110.408 21.3199 109.72 20.7759 108.824 20.7759ZM117.189 25.3039L117.397 27.0159C117.109 27.1119 116.741 27.1759 116.453 27.1759C115.349 27.1759 114.229 26.4719 114.229 24.5199V15.9919H116.181V24.5679C116.181 25.1599 116.517 25.3839 116.869 25.3839C116.965 25.3839 117.093 25.3519 117.189 25.3039Z" fill="white"/>
<path fill-rule="evenodd" clip-rule="evenodd" d="M219 15.5714V28.4286C219 29.8429 219.9 31 221 31H235C236.1 31 237 29.8429 237 28.4286V15.5714C237 14.1571 236.1 13 235 13H221C219.9 13 219 14.1571 219 15.5714Z" fill="white"/>
</g>
<defs>
<clipPath id="clip0_6330_30481">
<rect width="264" height="44" fill="white"/>
</clipPath>
</defs>
</svg>
