<svg width="87" height="44" viewBox="0 0 87 44" fill="none" xmlns="http://www.w3.org/2000/svg">
<g clip-path="url(#clip0_6330_30635)">
<path d="M0 22C0 9.84974 9.84974 0 22 0H65C77.1503 0 87 9.84974 87 22C87 34.1503 77.1503 44 65 44H22C9.84973 44 0 34.1503 0 22Z" fill="#1B386F"/>
<path d="M25.457 26.9999V16.7439H29.121C31.601 16.7439 33.233 18.0879 33.233 20.1359C33.233 22.1999 31.585 23.5599 29.089 23.5599H27.457V26.9999H25.457ZM29.281 18.5199H27.457V21.7839H29.281C30.385 21.7839 31.121 21.1279 31.121 20.1359C31.121 19.1599 30.385 18.5199 29.281 18.5199ZM34.7988 26.9999V19.3359H36.7508V20.4719C37.1188 19.6559 37.7748 19.1279 38.6388 19.1279C39.1508 19.1279 39.5668 19.2559 39.8548 19.4959L39.0548 21.3359C38.7988 21.1439 38.4148 21.0159 38.0308 21.0159C37.2628 21.0159 36.7508 21.6719 36.7508 22.7119V26.9999H34.7988ZM44.1648 27.2079C41.7808 27.2079 40.0528 25.3999 40.0528 23.1599C40.0528 20.9359 41.7008 19.1279 43.9088 19.1279C46.1008 19.1279 47.7808 20.8079 47.7808 23.0159C47.7808 23.2719 47.7648 23.5759 47.7328 23.7039H42.0528C42.2608 24.7599 43.0608 25.4959 44.2288 25.4959C45.0128 25.4959 45.6688 25.1599 46.1168 24.6959L47.1248 26.0399C46.5328 26.6959 45.4448 27.2079 44.1648 27.2079ZM43.9408 20.7759C43.0128 20.7759 42.3408 21.4159 42.1008 22.3439H45.7648C45.5248 21.3199 44.8368 20.7759 43.9408 20.7759ZM51.6508 27.2079C50.4188 27.2079 49.4108 26.8879 48.6588 26.4719L49.2828 24.9679C50.1628 25.3839 50.8988 25.6079 51.7468 25.6079C52.6108 25.6079 53.0108 25.3039 53.0108 24.8559C53.0108 23.4799 48.8828 24.2959 48.8828 21.3999C48.8828 20.2479 49.9068 19.1279 51.8748 19.1279C52.9468 19.1279 53.7628 19.3519 54.7388 19.8159L54.0188 21.2719C53.4748 20.9679 52.6588 20.7279 52.0348 20.7279C51.2988 20.7279 50.8508 20.9679 50.8508 21.3839C50.8508 22.7919 54.9468 21.9119 54.9468 24.8239C54.9468 26.1519 53.7628 27.2079 51.6508 27.2079ZM58.9008 27.2079C57.6688 27.2079 56.6608 26.8879 55.9088 26.4719L56.5328 24.9679C57.4128 25.3839 58.1488 25.6079 58.9968 25.6079C59.8608 25.6079 60.2608 25.3039 60.2608 24.8559C60.2608 23.4799 56.1328 24.2959 56.1328 21.3999C56.1328 20.2479 57.1568 19.1279 59.1248 19.1279C60.1968 19.1279 61.0128 19.3519 61.9888 19.8159L61.2688 21.2719C60.7248 20.9679 59.9088 20.7279 59.2848 20.7279C58.5488 20.7279 58.1008 20.9679 58.1008 21.3839C58.1008 22.7919 62.1968 21.9119 62.1968 24.8239C62.1968 26.1519 61.0128 27.2079 58.9008 27.2079Z" fill="white"/>
</g>
<defs>
<clipPath id="clip0_6330_30635">
<rect width="87" height="44" fill="white"/>
</clipPath>
</defs>
</svg>
