<svg width="287" height="44" viewBox="0 0 287 44" fill="none" xmlns="http://www.w3.org/2000/svg">
<path d="M0 22C0 9.84974 9.84974 0 22 0H265C277.15 0 287 9.84974 287 22C287 34.1503 277.15 44 265 44H22C9.84973 44 0 34.1503 0 22Z" fill="#1A3673"/>
<path d="M129.892 27V22.696H124.996V27H122.996V16.744H124.996V20.824H129.892V16.744H131.892V27H129.892ZM137.639 27.208C135.414 27.208 133.655 25.4 133.655 23.16C133.655 20.936 135.414 19.128 137.639 19.128C139.863 19.128 141.623 20.936 141.623 23.16C141.623 25.4 139.863 27.208 137.639 27.208ZM137.639 25.384C138.823 25.384 139.671 24.392 139.671 23.16C139.671 21.928 138.823 20.952 137.639 20.952C136.455 20.952 135.607 21.928 135.607 23.16C135.607 24.392 136.455 25.384 137.639 25.384ZM147.379 27H144.835L142.067 19.336H144.211L146.163 25.256L148.147 19.336H150.147L147.379 27ZM154.688 27.208C152.304 27.208 150.576 25.4 150.576 23.16C150.576 20.936 152.224 19.128 154.432 19.128C156.624 19.128 158.304 20.808 158.304 23.016C158.304 23.272 158.288 23.576 158.256 23.704H152.576C152.784 24.76 153.584 25.496 154.752 25.496C155.536 25.496 156.192 25.16 156.64 24.696L157.648 26.04C157.056 26.696 155.968 27.208 154.688 27.208ZM154.464 20.776C153.536 20.776 152.864 21.416 152.624 22.344H156.288C156.048 21.32 155.36 20.776 154.464 20.776ZM159.869 27V19.336H161.821V20.472C162.189 19.656 162.845 19.128 163.709 19.128C164.221 19.128 164.637 19.256 164.925 19.496L164.125 21.336C163.869 21.144 163.485 21.016 163.101 21.016C162.333 21.016 161.821 21.672 161.821 22.712V27H159.869Z" fill="white"/>
</svg>
