<svg width="264" height="56" viewBox="0 0 264 56" fill="none" xmlns="http://www.w3.org/2000/svg">
<path d="M28 1H236C250.912 1 263 13.0883 263 28C263 42.9117 250.912 55 236 55H28C13.0883 55 1 42.9117 1 28C1 13.0883 13.0883 1 28 1Z" stroke="#1A3673" stroke-width="2"/>
<path d="M112.637 33V22.76H119.133V24.632H114.637V27.112H118.493V29H114.637V33H112.637ZM123.748 33.208C121.524 33.208 119.764 31.4 119.764 29.16C119.764 26.936 121.524 25.128 123.748 25.128C125.972 25.128 127.732 26.936 127.732 29.16C127.732 31.4 125.972 33.208 123.748 33.208ZM123.748 31.384C124.932 31.384 125.78 30.392 125.78 29.16C125.78 27.928 124.932 26.952 123.748 26.952C122.564 26.952 121.716 27.928 121.716 29.16C121.716 30.392 122.564 31.384 123.748 31.384ZM134.824 27.656C134.328 27.192 133.768 26.952 133 26.952C131.72 26.952 130.872 27.928 130.872 29.16C130.872 30.392 131.736 31.384 133 31.384C133.768 31.384 134.392 31.112 134.888 30.632L135.88 32.072C135.272 32.744 134.152 33.208 132.952 33.208C130.664 33.208 128.92 31.4 128.92 29.16C128.92 26.936 130.68 25.128 132.92 25.128C134.216 25.128 135.256 25.56 135.944 26.264L134.824 27.656ZM139.085 25.336V29.48C139.085 30.6 139.725 31.352 140.701 31.352C141.677 31.352 142.333 30.6 142.333 29.48V25.336H144.301V29.624C144.301 31.768 142.861 33.192 140.701 33.192C138.541 33.192 137.133 31.768 137.133 29.624V25.336H139.085ZM148.721 33.208C147.489 33.208 146.481 32.888 145.729 32.472L146.353 30.968C147.233 31.384 147.969 31.608 148.817 31.608C149.681 31.608 150.081 31.304 150.081 30.856C150.081 29.48 145.953 30.296 145.953 27.4C145.953 26.248 146.977 25.128 148.945 25.128C150.017 25.128 150.833 25.352 151.809 25.816L151.089 27.272C150.545 26.968 149.729 26.728 149.105 26.728C148.369 26.728 147.921 26.968 147.921 27.384C147.921 28.792 152.017 27.912 152.017 30.824C152.017 32.152 150.833 33.208 148.721 33.208Z" fill="#1355E9"/>
<path d="M111.469 35H152.529V35.8H111.469V35Z" fill="#1355E9"/>
</svg>
