<svg width="152" height="44" viewBox="0 0 152 44" fill="none" xmlns="http://www.w3.org/2000/svg">
<path d="M0 22C0 9.84974 9.84974 0 22 0H130C142.15 0 152 9.84974 152 22V22C152 34.1503 142.15 44 130 44H22C9.84973 44 0 34.1503 0 22V22Z" fill="#1355E9"/>
<path d="M65.7116 17.928L64.3836 19.464C63.7916 18.92 62.9596 18.52 61.9356 18.52C60.1916 18.52 58.7996 20.024 58.7996 21.88C58.7996 23.72 60.1916 25.224 62.0636 25.224C62.9436 25.224 63.8236 24.888 64.3996 24.296L65.7116 25.768C64.8156 26.76 63.5836 27.208 61.9356 27.208C58.9436 27.208 56.6556 24.808 56.6556 21.88C56.6556 18.92 59.0236 16.536 61.9196 16.536C63.6476 16.536 64.8636 17.064 65.7116 17.928ZM70.0793 25.304L70.2873 27.016C69.9993 27.112 69.6313 27.176 69.3433 27.176C68.2393 27.176 67.1193 26.472 67.1193 24.52V15.992H69.0713V24.568C69.0713 25.16 69.4073 25.384 69.7593 25.384C69.8553 25.384 69.9833 25.352 70.0793 25.304ZM75.4041 27.208C73.1801 27.208 71.4201 25.4 71.4201 23.16C71.4201 20.936 73.1801 19.128 75.4041 19.128C77.6281 19.128 79.3881 20.936 79.3881 23.16C79.3881 25.4 77.6281 27.208 75.4041 27.208ZM75.4041 25.384C76.5881 25.384 77.4361 24.392 77.4361 23.16C77.4361 21.928 76.5881 20.952 75.4041 20.952C74.2201 20.952 73.3721 21.928 73.3721 23.16C73.3721 24.392 74.2201 25.384 75.4041 25.384ZM83.3775 27.208C82.1455 27.208 81.1375 26.888 80.3855 26.472L81.0095 24.968C81.8895 25.384 82.6255 25.608 83.4735 25.608C84.3375 25.608 84.7375 25.304 84.7375 24.856C84.7375 23.48 80.6095 24.296 80.6095 21.4C80.6095 20.248 81.6335 19.128 83.6015 19.128C84.6735 19.128 85.4895 19.352 86.4655 19.816L85.7455 21.272C85.2015 20.968 84.3855 20.728 83.7615 20.728C83.0255 20.728 82.5775 20.968 82.5775 21.384C82.5775 22.792 86.6735 21.912 86.6735 24.824C86.6735 26.152 85.4895 27.208 83.3775 27.208ZM91.8915 27.208C89.5075 27.208 87.7795 25.4 87.7795 23.16C87.7795 20.936 89.4275 19.128 91.6355 19.128C93.8275 19.128 95.5075 20.808 95.5075 23.016C95.5075 23.272 95.4915 23.576 95.4595 23.704H89.7795C89.9875 24.76 90.7875 25.496 91.9555 25.496C92.7395 25.496 93.3955 25.16 93.8435 24.696L94.8515 26.04C94.2595 26.696 93.1715 27.208 91.8915 27.208ZM91.6675 20.776C90.7395 20.776 90.0675 21.416 89.8275 22.344H93.4915C93.2515 21.32 92.5635 20.776 91.6675 20.776Z" fill="white"/>
</svg>
