<svg width="334" height="64" viewBox="0 0 334 64" fill="none" xmlns="http://www.w3.org/2000/svg">
<rect x="80" width="174" height="44" rx="22" fill="#1355E9"/>
<path fill-rule="evenodd" clip-rule="evenodd" d="M107 15.5714V28.4286C107 29.8429 107.9 31 109 31H123C124.1 31 125 29.8429 125 28.4286V15.5714C125 14.1571 124.1 13 123 13H109C107.9 13 107 14.1571 107 15.5714Z" fill="white"/>
<path d="M137.231 27V16.76H141.359C143.279 16.76 144.735 17.928 144.735 19.592C144.735 20.792 143.903 21.448 143.215 21.736C144.223 22.04 145.023 22.84 145.023 24.12C145.023 25.656 143.823 27 141.599 27H137.231ZM141.167 18.52H139.231V20.984H141.167C142.047 20.984 142.655 20.472 142.655 19.752C142.655 19.032 142.031 18.52 141.167 18.52ZM141.391 22.632H139.231V25.224H141.391C142.287 25.224 142.943 24.68 142.943 23.928C142.943 23.176 142.287 22.632 141.391 22.632ZM148.46 19.336V23.48C148.46 24.6 149.1 25.352 150.076 25.352C151.052 25.352 151.708 24.6 151.708 23.48V19.336H153.676V23.624C153.676 25.768 152.236 27.192 150.076 27.192C147.916 27.192 146.508 25.768 146.508 23.624V19.336H148.46ZM154.96 21.064V19.336H156.304V17.352H158.272V19.336H160.336V21.064H158.288V24.328C158.288 25.048 158.576 25.384 159.152 25.384C159.52 25.384 159.872 25.224 160.064 25L160.928 26.456C160.512 26.872 159.792 27.208 158.848 27.208C157.296 27.208 156.304 26.248 156.304 24.376V21.064H154.96ZM161.445 21.064V19.336H162.789V17.352H164.757V19.336H166.821V21.064H164.773V24.328C164.773 25.048 165.061 25.384 165.637 25.384C166.005 25.384 166.357 25.224 166.549 25L167.413 26.456C166.997 26.872 166.277 27.208 165.333 27.208C163.781 27.208 162.789 26.248 162.789 24.376V21.064H161.445ZM171.826 27.208C169.602 27.208 167.842 25.4 167.842 23.16C167.842 20.936 169.602 19.128 171.826 19.128C174.05 19.128 175.81 20.936 175.81 23.16C175.81 25.4 174.05 27.208 171.826 27.208ZM171.826 25.384C173.01 25.384 173.858 24.392 173.858 23.16C173.858 21.928 173.01 20.952 171.826 20.952C170.642 20.952 169.794 21.928 169.794 23.16C169.794 24.392 170.642 25.384 171.826 25.384ZM177.494 27V19.336H179.446V20.424C179.846 19.608 180.614 19.128 181.622 19.128C183.382 19.128 184.518 20.36 184.518 22.36V27H182.566V22.648C182.566 21.608 181.974 20.952 181.014 20.952C180.054 20.952 179.446 21.608 179.446 22.648V27H177.494ZM190.137 27V16.744H192.137V25.112H197.145V27H190.137ZM201.319 27.208C199.303 27.208 197.655 25.56 197.655 23.16C197.655 20.856 199.207 19.128 201.319 19.128C202.359 19.128 203.159 19.592 203.671 20.344V19.336H205.623V27H203.671V25.912C203.159 26.696 202.359 27.208 201.319 27.208ZM201.639 25.384C202.823 25.384 203.671 24.392 203.671 23.16C203.671 21.928 202.823 20.952 201.639 20.952C200.455 20.952 199.607 21.928 199.607 23.16C199.607 24.392 200.455 25.384 201.639 25.384ZM212.095 19.128C214.111 19.128 215.775 20.776 215.775 23.176C215.775 25.48 214.223 27.208 212.095 27.208C211.055 27.208 210.255 26.744 209.743 25.976V27H207.791V15.992H209.743V20.424C210.255 19.64 211.055 19.128 212.095 19.128ZM211.791 20.952C210.607 20.952 209.743 21.944 209.743 23.176C209.743 24.408 210.607 25.384 211.791 25.384C212.959 25.384 213.823 24.408 213.823 23.176C213.823 21.944 212.959 20.952 211.791 20.952ZM221.048 27.208C218.664 27.208 216.936 25.4 216.936 23.16C216.936 20.936 218.584 19.128 220.792 19.128C222.984 19.128 224.664 20.808 224.664 23.016C224.664 23.272 224.648 23.576 224.616 23.704H218.936C219.144 24.76 219.944 25.496 221.112 25.496C221.896 25.496 222.552 25.16 223 24.696L224.008 26.04C223.416 26.696 222.328 27.208 221.048 27.208ZM220.824 20.776C219.896 20.776 219.224 21.416 218.984 22.344H222.648C222.408 21.32 221.72 20.776 220.824 20.776ZM229.189 25.304L229.397 27.016C229.109 27.112 228.741 27.176 228.453 27.176C227.349 27.176 226.229 26.472 226.229 24.52V15.992H228.181V24.568C228.181 25.16 228.517 25.384 228.869 25.384C228.965 25.384 229.093 25.352 229.189 25.304Z" fill="white"/>
<rect x="170" y="34" width="19" height="2" transform="rotate(90 170 34)" fill="#F7D055"/>
<rect y="10" width="24" height="24" rx="12" fill="#F7D055"/>
<path d="M13.6829 16.8182V27H11.8384V18.6129H11.7788L9.39737 20.1342V18.4439L11.9279 16.8182H13.6829Z" fill="black"/>
<rect x="268" y="40" width="24" height="24" rx="12" fill="#F7D055"/>
<path d="M276.557 57V55.6676L280.092 52.2024C280.43 51.861 280.712 51.5578 280.937 51.2926C281.163 51.0275 281.332 50.7706 281.444 50.522C281.557 50.2734 281.613 50.0083 281.613 49.7266C281.613 49.4051 281.54 49.13 281.395 48.9013C281.249 48.6693 281.048 48.4903 280.793 48.3643C280.538 48.2384 280.248 48.1754 279.923 48.1754C279.588 48.1754 279.295 48.245 279.043 48.3842C278.791 48.5201 278.596 48.714 278.456 48.9659C278.32 49.2178 278.252 49.5178 278.252 49.8658H276.498C276.498 49.2195 276.645 48.6577 276.94 48.1804C277.235 47.7031 277.641 47.3336 278.158 47.0717C278.678 46.8099 279.275 46.679 279.948 46.679C280.631 46.679 281.23 46.8066 281.748 47.0618C282.265 47.317 282.666 47.6667 282.951 48.1108C283.239 48.5549 283.383 49.062 283.383 49.6321C283.383 50.0133 283.31 50.3878 283.164 50.7557C283.019 51.1236 282.762 51.5312 282.394 51.9787C282.029 52.4261 281.517 52.968 280.858 53.6044L279.103 55.3892V55.4588H283.537V57H276.557Z" fill="black"/>
<rect x="310" y="10" width="24" height="24" rx="12" fill="#F7D055"/>
<path d="M321.999 27.1392C321.283 27.1392 320.647 27.0166 320.09 26.7713C319.537 26.526 319.099 26.1847 318.778 25.7472C318.456 25.3097 318.286 24.8042 318.266 24.2308H320.135C320.152 24.5059 320.243 24.7462 320.408 24.9517C320.574 25.1539 320.795 25.3113 321.07 25.424C321.345 25.5367 321.653 25.593 321.994 25.593C322.359 25.593 322.682 25.5301 322.964 25.4041C323.246 25.2749 323.466 25.0959 323.625 24.8672C323.784 24.6385 323.862 24.375 323.859 24.0767C323.862 23.7685 323.783 23.4967 323.62 23.2614C323.458 23.026 323.222 22.8421 322.914 22.7095C322.609 22.5769 322.241 22.5107 321.81 22.5107H320.911V21.0888H321.81C322.165 21.0888 322.475 21.0275 322.74 20.9048C323.009 20.7822 323.219 20.6098 323.372 20.3878C323.524 20.1624 323.599 19.9022 323.595 19.6072C323.599 19.3189 323.534 19.0687 323.401 18.8565C323.272 18.6411 323.088 18.4737 322.85 18.3544C322.614 18.2351 322.337 18.1754 322.019 18.1754C321.708 18.1754 321.419 18.2318 321.154 18.3445C320.889 18.4571 320.675 18.6179 320.513 18.8267C320.35 19.0322 320.264 19.2775 320.254 19.5625H318.479C318.493 18.9924 318.657 18.492 318.972 18.0611C319.29 17.6269 319.714 17.2888 320.244 17.0469C320.775 16.8016 321.37 16.679 322.029 16.679C322.709 16.679 323.299 16.8066 323.799 17.0618C324.303 17.3137 324.692 17.6534 324.967 18.081C325.243 18.5085 325.38 18.9808 325.38 19.4979C325.383 20.0713 325.214 20.5518 324.873 20.9396C324.535 21.3274 324.091 21.581 323.541 21.7003V21.7798C324.256 21.8793 324.805 22.1444 325.186 22.5753C325.571 23.0028 325.761 23.5348 325.758 24.1712C325.758 24.7412 325.595 25.2517 325.271 25.7024C324.949 26.1499 324.505 26.5012 323.938 26.7564C323.375 27.0116 322.729 27.1392 321.999 27.1392Z" fill="black"/>
<rect x="168" y="51" width="102" height="2" fill="#F7D055"/>
<rect x="24" y="21" width="80" height="2" fill="#F7D055"/>
<circle cx="102" cy="22" r="5" fill="#F7D055"/>
<circle cx="256" cy="22" r="5" fill="#F7D055"/>
<circle cx="167" cy="35" r="5" fill="#F7D055"/>
<rect x="254" y="21" width="60" height="2" fill="#F7D055"/>
</svg>
