<svg width="264" height="44" viewBox="0 0 264 44" fill="none" xmlns="http://www.w3.org/2000/svg">
<path d="M0 22C0 9.84974 9.84974 0 22 0H242C254.15 0 264 9.84974 264 22V22C264 34.1503 254.15 44 242 44H22C9.84973 44 0 34.1503 0 22V22Z" fill="#1355E9"/>
<path fill-rule="evenodd" clip-rule="evenodd" d="M27 15.5714V28.4286C27 29.8429 27.9 31 29 31H43C44.1 31 45 29.8429 45 28.4286V15.5714C45 14.1571 44.1 13 43 13H29C27.9 13 27 14.1571 27 15.5714Z" fill="white"/>
<path d="M57.2305 27V16.76H61.3585C63.2785 16.76 64.7345 17.928 64.7345 19.592C64.7345 20.792 63.9025 21.448 63.2145 21.736C64.2225 22.04 65.0225 22.84 65.0225 24.12C65.0225 25.656 63.8225 27 61.5985 27H57.2305ZM61.1665 18.52H59.2305V20.984H61.1665C62.0465 20.984 62.6545 20.472 62.6545 19.752C62.6545 19.032 62.0305 18.52 61.1665 18.52ZM61.3905 22.632H59.2305V25.224H61.3905C62.2865 25.224 62.9425 24.68 62.9425 23.928C62.9425 23.176 62.2865 22.632 61.3905 22.632ZM68.4596 19.336V23.48C68.4596 24.6 69.0996 25.352 70.0756 25.352C71.0516 25.352 71.7076 24.6 71.7076 23.48V19.336H73.6756V23.624C73.6756 25.768 72.2356 27.192 70.0756 27.192C67.9156 27.192 66.5076 25.768 66.5076 23.624V19.336H68.4596ZM74.9603 21.064V19.336H76.3043V17.352H78.2723V19.336H80.3363V21.064H78.2883V24.328C78.2883 25.048 78.5763 25.384 79.1523 25.384C79.5203 25.384 79.8723 25.224 80.0643 25L80.9283 26.456C80.5123 26.872 79.7923 27.208 78.8483 27.208C77.2963 27.208 76.3043 26.248 76.3043 24.376V21.064H74.9603ZM81.4446 21.064V19.336H82.7886V17.352H84.7566V19.336H86.8206V21.064H84.7726V24.328C84.7726 25.048 85.0606 25.384 85.6366 25.384C86.0046 25.384 86.3566 25.224 86.5486 25L87.4126 26.456C86.9966 26.872 86.2766 27.208 85.3326 27.208C83.7806 27.208 82.7886 26.248 82.7886 24.376V21.064H81.4446ZM91.826 27.208C89.602 27.208 87.842 25.4 87.842 23.16C87.842 20.936 89.602 19.128 91.826 19.128C94.05 19.128 95.81 20.936 95.81 23.16C95.81 25.4 94.05 27.208 91.826 27.208ZM91.826 25.384C93.01 25.384 93.858 24.392 93.858 23.16C93.858 21.928 93.01 20.952 91.826 20.952C90.642 20.952 89.794 21.928 89.794 23.16C89.794 24.392 90.642 25.384 91.826 25.384ZM97.4943 27V19.336H99.4463V20.424C99.8463 19.608 100.614 19.128 101.622 19.128C103.382 19.128 104.518 20.36 104.518 22.36V27H102.566V22.648C102.566 21.608 101.974 20.952 101.014 20.952C100.054 20.952 99.4463 21.608 99.4463 22.648V27H97.4943ZM110.137 27V16.744H112.137V25.112H117.145V27H110.137ZM121.319 27.208C119.303 27.208 117.655 25.56 117.655 23.16C117.655 20.856 119.207 19.128 121.319 19.128C122.359 19.128 123.159 19.592 123.671 20.344V19.336H125.623V27H123.671V25.912C123.159 26.696 122.359 27.208 121.319 27.208ZM121.639 25.384C122.823 25.384 123.671 24.392 123.671 23.16C123.671 21.928 122.823 20.952 121.639 20.952C120.455 20.952 119.607 21.928 119.607 23.16C119.607 24.392 120.455 25.384 121.639 25.384ZM132.095 19.128C134.111 19.128 135.775 20.776 135.775 23.176C135.775 25.48 134.223 27.208 132.095 27.208C131.055 27.208 130.255 26.744 129.743 25.976V27H127.791V15.992H129.743V20.424C130.255 19.64 131.055 19.128 132.095 19.128ZM131.791 20.952C130.607 20.952 129.743 21.944 129.743 23.176C129.743 24.408 130.607 25.384 131.791 25.384C132.959 25.384 133.823 24.408 133.823 23.176C133.823 21.944 132.959 20.952 131.791 20.952ZM141.048 27.208C138.664 27.208 136.936 25.4 136.936 23.16C136.936 20.936 138.584 19.128 140.792 19.128C142.984 19.128 144.664 20.808 144.664 23.016C144.664 23.272 144.648 23.576 144.616 23.704H138.936C139.144 24.76 139.944 25.496 141.112 25.496C141.896 25.496 142.552 25.16 143 24.696L144.008 26.04C143.416 26.696 142.328 27.208 141.048 27.208ZM140.824 20.776C139.896 20.776 139.224 21.416 138.984 22.344H142.648C142.408 21.32 141.72 20.776 140.824 20.776ZM149.189 25.304L149.397 27.016C149.109 27.112 148.741 27.176 148.453 27.176C147.349 27.176 146.229 26.472 146.229 24.52V15.992H148.181V24.568C148.181 25.16 148.517 25.384 148.869 25.384C148.965 25.384 149.093 25.352 149.189 25.304Z" fill="white"/>
</svg>
