<svg width="264" height="44" viewBox="0 0 264 44" fill="none" xmlns="http://www.w3.org/2000/svg">
<path d="M0 22C0 9.84974 9.84974 0 22 0H242C254.15 0 264 9.84974 264 22V22C264 34.1503 254.15 44 242 44H22C9.84973 44 0 34.1503 0 22V22Z" fill="#1A3673"/>
<path d="M86.2305 27V16.76H90.3585C92.2785 16.76 93.7345 17.928 93.7345 19.592C93.7345 20.792 92.9025 21.448 92.2145 21.736C93.2225 22.04 94.0225 22.84 94.0225 24.12C94.0225 25.656 92.8225 27 90.5985 27H86.2305ZM90.1665 18.52H88.2305V20.984H90.1665C91.0465 20.984 91.6545 20.472 91.6545 19.752C91.6545 19.032 91.0305 18.52 90.1665 18.52ZM90.3905 22.632H88.2305V25.224H90.3905C91.2865 25.224 91.9425 24.68 91.9425 23.928C91.9425 23.176 91.2865 22.632 90.3905 22.632ZM97.4596 19.336V23.48C97.4596 24.6 98.0996 25.352 99.0756 25.352C100.052 25.352 100.708 24.6 100.708 23.48V19.336H102.676V23.624C102.676 25.768 101.236 27.192 99.0756 27.192C96.9156 27.192 95.5076 25.768 95.5076 23.624V19.336H97.4596ZM103.96 21.064V19.336H105.304V17.352H107.272V19.336H109.336V21.064H107.288V24.328C107.288 25.048 107.576 25.384 108.152 25.384C108.52 25.384 108.872 25.224 109.064 25L109.928 26.456C109.512 26.872 108.792 27.208 107.848 27.208C106.296 27.208 105.304 26.248 105.304 24.376V21.064H103.96ZM110.445 21.064V19.336H111.789V17.352H113.757V19.336H115.821V21.064H113.773V24.328C113.773 25.048 114.061 25.384 114.637 25.384C115.005 25.384 115.357 25.224 115.549 25L116.413 26.456C115.997 26.872 115.277 27.208 114.333 27.208C112.781 27.208 111.789 26.248 111.789 24.376V21.064H110.445ZM120.826 27.208C118.602 27.208 116.842 25.4 116.842 23.16C116.842 20.936 118.602 19.128 120.826 19.128C123.05 19.128 124.81 20.936 124.81 23.16C124.81 25.4 123.05 27.208 120.826 27.208ZM120.826 25.384C122.01 25.384 122.858 24.392 122.858 23.16C122.858 21.928 122.01 20.952 120.826 20.952C119.642 20.952 118.794 21.928 118.794 23.16C118.794 24.392 119.642 25.384 120.826 25.384ZM126.494 27V19.336H128.446V20.424C128.846 19.608 129.614 19.128 130.622 19.128C132.382 19.128 133.518 20.36 133.518 22.36V27H131.566V22.648C131.566 21.608 130.974 20.952 130.014 20.952C129.054 20.952 128.446 21.608 128.446 22.648V27H126.494ZM139.137 27V16.744H141.137V25.112H146.145V27H139.137ZM150.319 27.208C148.303 27.208 146.655 25.56 146.655 23.16C146.655 20.856 148.207 19.128 150.319 19.128C151.359 19.128 152.159 19.592 152.671 20.344V19.336H154.623V27H152.671V25.912C152.159 26.696 151.359 27.208 150.319 27.208ZM150.639 25.384C151.823 25.384 152.671 24.392 152.671 23.16C152.671 21.928 151.823 20.952 150.639 20.952C149.455 20.952 148.607 21.928 148.607 23.16C148.607 24.392 149.455 25.384 150.639 25.384ZM161.095 19.128C163.111 19.128 164.775 20.776 164.775 23.176C164.775 25.48 163.223 27.208 161.095 27.208C160.055 27.208 159.255 26.744 158.743 25.976V27H156.791V15.992H158.743V20.424C159.255 19.64 160.055 19.128 161.095 19.128ZM160.791 20.952C159.607 20.952 158.743 21.944 158.743 23.176C158.743 24.408 159.607 25.384 160.791 25.384C161.959 25.384 162.823 24.408 162.823 23.176C162.823 21.944 161.959 20.952 160.791 20.952ZM170.048 27.208C167.664 27.208 165.936 25.4 165.936 23.16C165.936 20.936 167.584 19.128 169.792 19.128C171.984 19.128 173.664 20.808 173.664 23.016C173.664 23.272 173.648 23.576 173.616 23.704H167.936C168.144 24.76 168.944 25.496 170.112 25.496C170.896 25.496 171.552 25.16 172 24.696L173.008 26.04C172.416 26.696 171.328 27.208 170.048 27.208ZM169.824 20.776C168.896 20.776 168.224 21.416 167.984 22.344H171.648C171.408 21.32 170.72 20.776 169.824 20.776ZM178.189 25.304L178.397 27.016C178.109 27.112 177.741 27.176 177.453 27.176C176.349 27.176 175.229 26.472 175.229 24.52V15.992H177.181V24.568C177.181 25.16 177.517 25.384 177.869 25.384C177.965 25.384 178.093 25.352 178.189 25.304Z" fill="white"/>
</svg>
