<svg width="113" height="44" viewBox="0 0 113 44" fill="none" xmlns="http://www.w3.org/2000/svg">
<path d="M0 22C0 9.84974 9.84974 0 22 0H91C103.15 0 113 9.84974 113 22V22C113 34.1503 103.15 44 91 44H22C9.84974 44 0 34.1503 0 22V22Z" fill="#89AAF4"/>
<path d="M25.1993 27V16.76H28.6233C31.9993 16.76 34.4153 18.888 34.4153 21.88C34.4153 24.872 32.0312 27 28.6873 27H25.1993ZM28.6073 18.632H27.2633V25.112H28.6233C30.8153 25.112 32.2713 23.832 32.2713 21.88C32.2713 19.912 30.8153 18.632 28.6073 18.632ZM37.1265 18.312C36.4865 18.312 35.9905 17.8 35.9905 17.16C35.9905 16.536 36.4865 16.024 37.1265 16.024C37.7505 16.024 38.2785 16.536 38.2785 17.16C38.2785 17.8 37.7505 18.312 37.1265 18.312ZM38.1025 27H36.1505V19.336H38.1025V27ZM42.6431 27.208C41.4111 27.208 40.4031 26.888 39.6511 26.472L40.2751 24.968C41.1551 25.384 41.8911 25.608 42.7391 25.608C43.6031 25.608 44.0031 25.304 44.0031 24.856C44.0031 23.48 39.8751 24.296 39.8751 21.4C39.8751 20.248 40.8991 19.128 42.8671 19.128C43.9391 19.128 44.7551 19.352 45.7311 19.816L45.0111 21.272C44.4671 20.968 43.6511 20.728 43.0271 20.728C42.2911 20.728 41.8431 20.968 41.8431 21.384C41.8431 22.792 45.9391 21.912 45.9391 24.824C45.9391 26.152 44.7551 27.208 42.6431 27.208ZM50.7091 27.208C48.6931 27.208 47.0451 25.56 47.0451 23.16C47.0451 20.856 48.5971 19.128 50.7091 19.128C51.7491 19.128 52.5491 19.592 53.0611 20.344V19.336H55.0131V27H53.0611V25.912C52.5491 26.696 51.7491 27.208 50.7091 27.208ZM51.0291 25.384C52.2131 25.384 53.0611 24.392 53.0611 23.16C53.0611 21.928 52.2131 20.952 51.0291 20.952C49.8451 20.952 48.9971 21.928 48.9971 23.16C48.9971 24.392 49.8451 25.384 51.0291 25.384ZM61.4858 19.128C63.5018 19.128 65.1658 20.776 65.1658 23.176C65.1658 25.48 63.6138 27.208 61.4858 27.208C60.4458 27.208 59.6458 26.744 59.1338 25.976V27H57.1818V15.992H59.1338V20.424C59.6458 19.64 60.4458 19.128 61.4858 19.128ZM61.1818 20.952C59.9978 20.952 59.1338 21.944 59.1338 23.176C59.1338 24.408 59.9978 25.384 61.1818 25.384C62.3498 25.384 63.2138 24.408 63.2138 23.176C63.2138 21.944 62.3498 20.952 61.1818 20.952ZM69.7824 25.304L69.9904 27.016C69.7024 27.112 69.3344 27.176 69.0464 27.176C67.9424 27.176 66.8224 26.472 66.8224 24.52V15.992H68.7744V24.568C68.7744 25.16 69.1104 25.384 69.4624 25.384C69.5584 25.384 69.6864 25.352 69.7824 25.304ZM75.2352 27.208C72.8513 27.208 71.1233 25.4 71.1233 23.16C71.1233 20.936 72.7713 19.128 74.9793 19.128C77.1713 19.128 78.8513 20.808 78.8513 23.016C78.8513 23.272 78.8353 23.576 78.8033 23.704H73.1233C73.3313 24.76 74.1313 25.496 75.2993 25.496C76.0833 25.496 76.7393 25.16 77.1873 24.696L78.1953 26.04C77.6033 26.696 76.5153 27.208 75.2352 27.208ZM75.0113 20.776C74.0833 20.776 73.4113 21.416 73.1713 22.344H76.8353C76.5953 21.32 75.9073 20.776 75.0113 20.776ZM83.5841 27.208C81.5681 27.208 79.9201 25.56 79.9201 23.16C79.9201 20.856 81.4721 19.128 83.5841 19.128C84.6241 19.128 85.4241 19.592 85.9361 20.344V15.992H87.8881V27H85.9361V25.912C85.4241 26.696 84.6241 27.208 83.5841 27.208ZM83.9041 25.384C85.0881 25.384 85.9361 24.392 85.9361 23.16C85.9361 21.928 85.0881 20.952 83.9041 20.952C82.7201 20.952 81.8721 21.928 81.8721 23.16C81.8721 24.392 82.7201 25.384 83.9041 25.384Z" fill="white"/>
</svg>
