<svg width="152" height="44" viewBox="0 0 152 44" fill="none" xmlns="http://www.w3.org/2000/svg">
<path d="M55.5056 18.616H52.4656V27H50.4496V18.616H47.4096V16.744H55.5056V18.616ZM59.0946 27.208C56.7106 27.208 54.9826 25.4 54.9826 23.16C54.9826 20.936 56.6306 19.128 58.8386 19.128C61.0306 19.128 62.7106 20.808 62.7106 23.016C62.7106 23.272 62.6946 23.576 62.6626 23.704H56.9826C57.1906 24.76 57.9906 25.496 59.1586 25.496C59.9426 25.496 60.5986 25.16 61.0466 24.696L62.0546 26.04C61.4626 26.696 60.3746 27.208 59.0946 27.208ZM58.8706 20.776C57.9426 20.776 57.2706 21.416 57.0306 22.344H60.6946C60.4546 21.32 59.7666 20.776 58.8706 20.776ZM64.2755 27V19.336H66.2275V20.472C66.5955 19.656 67.2515 19.128 68.1155 19.128C68.6275 19.128 69.0435 19.256 69.3315 19.496L68.5315 21.336C68.2755 21.144 67.8915 21.016 67.5075 21.016C66.7395 21.016 66.2275 21.672 66.2275 22.712V27H64.2755ZM69.8821 21.064V19.336H71.2261V17.352H73.1941V19.336H75.2581V21.064H73.2101V24.328C73.2101 25.048 73.4981 25.384 74.0741 25.384C74.4421 25.384 74.7941 25.224 74.9861 25L75.8501 26.456C75.4341 26.872 74.7141 27.208 73.7701 27.208C72.2181 27.208 71.2261 26.248 71.2261 24.376V21.064H69.8821ZM78.1265 18.312C77.4865 18.312 76.9905 17.8 76.9905 17.16C76.9905 16.536 77.4865 16.024 78.1265 16.024C78.7505 16.024 79.2785 16.536 79.2785 17.16C79.2785 17.8 78.7505 18.312 78.1265 18.312ZM79.1025 27H77.1505V19.336H79.1025V27ZM84.4591 27.208C82.4431 27.208 80.7951 25.56 80.7951 23.16C80.7951 20.856 82.3471 19.128 84.4591 19.128C85.4991 19.128 86.2991 19.592 86.8111 20.344V19.336H88.7631V27H86.8111V25.912C86.2991 26.696 85.4991 27.208 84.4591 27.208ZM84.7791 25.384C85.9631 25.384 86.8111 24.392 86.8111 23.16C86.8111 21.928 85.9631 20.952 84.7791 20.952C83.5951 20.952 82.7471 21.928 82.7471 23.16C82.7471 24.392 83.5951 25.384 84.7791 25.384ZM90.9318 27V19.336H92.8838V20.472C93.2518 19.656 93.9078 19.128 94.7718 19.128C95.2838 19.128 95.6998 19.256 95.9878 19.496L95.1878 21.336C94.9318 21.144 94.5477 21.016 94.1638 21.016C93.3958 21.016 92.8838 21.672 92.8838 22.712V27H90.9318ZM99.7704 27.304L99.8344 27.112L96.3304 19.336H98.4744L100.714 24.616L102.554 19.336H104.522L101.386 27.976C100.794 29.656 99.8184 30.344 98.5384 30.344C97.7224 30.344 96.9384 30.008 96.4424 29.544L97.3224 28.008C97.6904 28.36 98.1064 28.52 98.5544 28.52C99.0984 28.52 99.4504 28.2 99.7704 27.304Z" fill="#1355E9"/>
<path d="M47.2656 29H104.73V29.8H47.2656V29Z" fill="#1355E9"/>
</svg>
