<svg width="152" height="44" viewBox="0 0 152 44" fill="none" xmlns="http://www.w3.org/2000/svg">
<path d="M22 0.5H130C141.874 0.5 151.5 10.1259 151.5 22C151.5 33.8741 141.874 43.5 130 43.5H22C10.1259 43.5 0.5 33.8741 0.5 22C0.5 10.1259 10.1259 0.5 22 0.5Z" stroke="#1355E9"/>
<path d="M39.5164 27.016C39.0364 26.888 38.4284 26.584 37.6444 26.072L38.5084 24.392C39.3724 24.936 40.6204 25.32 41.6284 25.32C42.6364 25.32 43.3884 24.952 43.3884 24.136C43.3884 22.312 37.9964 23.176 37.9964 19.544C37.9964 17.64 39.7404 16.52 41.8204 16.52C43.1164 16.52 44.3324 16.872 45.2764 17.592L44.3004 19.176C43.6444 18.744 42.6204 18.392 41.7244 18.392C40.7964 18.392 40.1404 18.824 40.1404 19.496C40.1404 21.368 45.5164 20.536 45.5164 24.024C45.5164 26.136 43.6604 27.208 41.4844 27.208C40.6364 27.208 39.9804 27.144 39.5164 27.016ZM50.7431 27.208C48.3591 27.208 46.6311 25.4 46.6311 23.16C46.6311 20.936 48.2791 19.128 50.4871 19.128C52.6791 19.128 54.3591 20.808 54.3591 23.016C54.3591 23.272 54.3431 23.576 54.3111 23.704H48.6311C48.8391 24.76 49.6391 25.496 50.8071 25.496C51.5911 25.496 52.2471 25.16 52.6951 24.696L53.7031 26.04C53.1111 26.696 52.0231 27.208 50.7431 27.208ZM50.5191 20.776C49.5911 20.776 48.9191 21.416 48.6791 22.344H52.3431C52.1031 21.32 51.4151 20.776 50.5191 20.776ZM61.3319 21.656C60.8359 21.192 60.2759 20.952 59.5079 20.952C58.2279 20.952 57.3799 21.928 57.3799 23.16C57.3799 24.392 58.2439 25.384 59.5079 25.384C60.2759 25.384 60.8999 25.112 61.3959 24.632L62.3879 26.072C61.7799 26.744 60.6599 27.208 59.4599 27.208C57.1719 27.208 55.4279 25.4 55.4279 23.16C55.4279 20.936 57.1879 19.128 59.4279 19.128C60.7239 19.128 61.7639 19.56 62.4519 20.264L61.3319 21.656ZM66.9588 27.208C64.7348 27.208 62.9748 25.4 62.9748 23.16C62.9748 20.936 64.7348 19.128 66.9588 19.128C69.1828 19.128 70.9428 20.936 70.9428 23.16C70.9428 25.4 69.1828 27.208 66.9588 27.208ZM66.9588 25.384C68.1428 25.384 68.9908 24.392 68.9908 23.16C68.9908 21.928 68.1428 20.952 66.9588 20.952C65.7748 20.952 64.9268 21.928 64.9268 23.16C64.9268 24.392 65.7748 25.384 66.9588 25.384ZM72.6271 27V19.336H74.5791V20.424C74.9791 19.608 75.7471 19.128 76.7551 19.128C78.5151 19.128 79.6511 20.36 79.6511 22.36V27H77.6991V22.648C77.6991 21.608 77.1071 20.952 76.1471 20.952C75.1871 20.952 74.5791 21.608 74.5791 22.648V27H72.6271ZM84.9357 27.208C82.9197 27.208 81.2717 25.56 81.2717 23.16C81.2717 20.856 82.8237 19.128 84.9357 19.128C85.9757 19.128 86.7757 19.592 87.2877 20.344V15.992H89.2397V27H87.2877V25.912C86.7757 26.696 85.9757 27.208 84.9357 27.208ZM85.2557 25.384C86.4397 25.384 87.2877 24.392 87.2877 23.16C87.2877 21.928 86.4397 20.952 85.2557 20.952C84.0717 20.952 83.2237 21.928 83.2237 23.16C83.2237 24.392 84.0717 25.384 85.2557 25.384ZM94.5763 27.208C92.5603 27.208 90.9123 25.56 90.9123 23.16C90.9123 20.856 92.4643 19.128 94.5763 19.128C95.6163 19.128 96.4163 19.592 96.9283 20.344V19.336H98.8803V27H96.9283V25.912C96.4163 26.696 95.6163 27.208 94.5763 27.208ZM94.8963 25.384C96.0803 25.384 96.9283 24.392 96.9283 23.16C96.9283 21.928 96.0803 20.952 94.8963 20.952C93.7123 20.952 92.8643 21.928 92.8643 23.16C92.8643 24.392 93.7123 25.384 94.8963 25.384ZM101.049 27V19.336H103.001V20.472C103.369 19.656 104.025 19.128 104.889 19.128C105.401 19.128 105.817 19.256 106.105 19.496L105.305 21.336C105.049 21.144 104.665 21.016 104.281 21.016C103.513 21.016 103.001 21.672 103.001 22.712V27H101.049ZM109.888 27.304L109.952 27.112L106.448 19.336H108.592L110.832 24.616L112.672 19.336H114.64L111.504 27.976C110.912 29.656 109.936 30.344 108.656 30.344C107.84 30.344 107.056 30.008 106.56 29.544L107.44 28.008C107.808 28.36 108.224 28.52 108.672 28.52C109.216 28.52 109.568 28.2 109.888 27.304Z" fill="#1355E9"/>
</svg>
