<svg width="200" height="124" viewBox="0 0 200 124" fill="none" xmlns="http://www.w3.org/2000/svg">
<path d="M47 62C47 56.4772 51.4772 52 57 52C62.5228 52 67 56.4772 67 62C67 67.5228 62.5228 72 57 72C51.4772 72 47 67.5228 47 62Z" fill="#1355E9"/>
<g filter="url(#filter0_dd_4746_42680)">
<circle cx="57" cy="62" r="5" fill="white"/>
</g>
<path d="M76.1186 67V56.8182H79.7479C80.5367 56.8182 81.1913 56.9541 81.7116 57.2259C82.2353 57.4976 82.6264 57.8738 82.8849 58.3544C83.1435 58.8317 83.2727 59.3835 83.2727 60.0099C83.2727 60.633 83.1418 61.1816 82.88 61.6555C82.6214 62.1262 82.2304 62.4924 81.7067 62.7543C81.1863 63.0161 80.5317 63.147 79.7429 63.147H76.9936V61.8246H79.6037C80.1009 61.8246 80.5052 61.7533 80.8168 61.6108C81.1316 61.4683 81.362 61.2611 81.5078 60.9893C81.6536 60.7176 81.7266 60.3911 81.7266 60.0099C81.7266 59.6255 81.652 59.2924 81.5028 59.0107C81.357 58.7289 81.1267 58.5135 80.8118 58.3643C80.5002 58.2119 80.0909 58.1357 79.5838 58.1357H77.6548V67H76.1186ZM81.1449 62.4062L83.6605 67H81.9105L79.4446 62.4062H81.1449ZM87.245 67.169C86.7611 67.169 86.3236 67.0795 85.9325 66.9006C85.5414 66.7183 85.2315 66.4548 85.0028 66.1101C84.7775 65.7654 84.6648 65.3428 84.6648 64.8423C84.6648 64.4115 84.7476 64.0568 84.9134 63.7784C85.0791 63.5 85.3028 63.2796 85.5845 63.1172C85.8662 62.9548 86.1811 62.8321 86.5291 62.7493C86.8771 62.6664 87.2318 62.6035 87.593 62.5604C88.0504 62.5073 88.4216 62.4643 88.7067 62.4311C88.9917 62.3946 89.1989 62.3366 89.3281 62.2571C89.4574 62.1776 89.522 62.0483 89.522 61.8693V61.8345C89.522 61.4003 89.3994 61.0639 89.1541 60.8253C88.9122 60.5866 88.5509 60.4673 88.0703 60.4673C87.5698 60.4673 87.1754 60.5784 86.8871 60.8004C86.602 61.0192 86.4048 61.2628 86.2955 61.5312L84.8984 61.2131C85.0642 60.7491 85.3061 60.3745 85.6243 60.0895C85.9458 59.8011 86.3153 59.5923 86.733 59.4631C87.1506 59.3305 87.5897 59.2642 88.0504 59.2642C88.3554 59.2642 88.6785 59.3007 89.0199 59.3736C89.3646 59.4432 89.6861 59.5724 89.9844 59.7614C90.286 59.9503 90.5329 60.2204 90.7251 60.5717C90.9174 60.9197 91.0135 61.3722 91.0135 61.929V67H89.5618V65.956H89.5021C89.406 66.1482 89.2618 66.3371 89.0696 66.5227C88.8774 66.7083 88.6304 66.8625 88.3288 66.9851C88.0272 67.1077 87.666 67.169 87.245 67.169ZM87.5682 65.9759C87.9792 65.9759 88.3305 65.8946 88.6222 65.7322C88.9171 65.5698 89.1409 65.3577 89.2933 65.0959C89.4491 64.8307 89.527 64.5473 89.527 64.2457V63.2614C89.474 63.3144 89.3712 63.3641 89.2188 63.4105C89.0696 63.4536 88.8989 63.4917 88.7067 63.5249C88.5144 63.5547 88.3272 63.5829 88.1449 63.6094C87.9626 63.6326 87.8101 63.6525 87.6875 63.669C87.3991 63.7055 87.1357 63.7668 86.897 63.853C86.6617 63.9392 86.4728 64.0634 86.3303 64.2259C86.1911 64.3849 86.1214 64.5971 86.1214 64.8622C86.1214 65.2301 86.2573 65.5085 86.5291 65.6974C86.8009 65.883 87.1473 65.9759 87.5682 65.9759ZM95.8521 67.1491C95.2356 67.1491 94.6854 66.9917 94.2015 66.6768C93.7209 66.3587 93.3431 65.9062 93.068 65.3196C92.7962 64.7296 92.6603 64.022 92.6603 63.1967C92.6603 62.3714 92.7979 61.6655 93.073 61.0788C93.3514 60.4922 93.7325 60.0431 94.2164 59.7315C94.7003 59.42 95.2489 59.2642 95.862 59.2642C96.336 59.2642 96.7172 59.3438 97.0055 59.5028C97.2972 59.6586 97.5225 59.8409 97.6816 60.0497C97.844 60.2585 97.97 60.4425 98.0595 60.6016H98.149V56.8182H99.6355V67H98.1838V65.8118H98.0595C97.97 65.9742 97.8407 66.1598 97.6717 66.3686C97.506 66.5774 97.2773 66.7597 96.9856 66.9155C96.694 67.0713 96.3161 67.1491 95.8521 67.1491ZM96.1802 65.8814C96.6078 65.8814 96.969 65.7687 97.264 65.5433C97.5623 65.3146 97.7877 64.9981 97.9402 64.5938C98.0959 64.1894 98.1738 63.7187 98.1738 63.1818C98.1738 62.6515 98.0976 62.1875 97.9451 61.7898C97.7927 61.392 97.569 61.0821 97.274 60.8601C96.979 60.638 96.6144 60.527 96.1802 60.527C95.7328 60.527 95.3599 60.643 95.0616 60.875C94.7633 61.107 94.5379 61.4235 94.3855 61.8246C94.2363 62.2256 94.1618 62.678 94.1618 63.1818C94.1618 63.6922 94.238 64.1513 94.3904 64.5589C94.5429 64.9666 94.7683 65.2898 95.0666 65.5284C95.3682 65.7637 95.7394 65.8814 96.1802 65.8814ZM101.757 67V59.3636H103.244V67H101.757ZM102.508 58.1854C102.249 58.1854 102.027 58.0992 101.842 57.9268C101.659 57.7512 101.568 57.5424 101.568 57.3004C101.568 57.0552 101.659 56.8464 101.842 56.674C102.027 56.4983 102.249 56.4105 102.508 56.4105C102.766 56.4105 102.987 56.4983 103.169 56.674C103.355 56.8464 103.447 57.0552 103.447 57.3004C103.447 57.5424 103.355 57.7512 103.169 57.9268C102.987 58.0992 102.766 58.1854 102.508 58.1854ZM108.46 67.1541C107.744 67.1541 107.119 66.9901 106.586 66.6619C106.052 66.3338 105.638 65.8748 105.343 65.2848C105.048 64.6948 104.9 64.0054 104.9 63.2166C104.9 62.4245 105.048 61.7318 105.343 61.1385C105.638 60.5452 106.052 60.0845 106.586 59.7564C107.119 59.4283 107.744 59.2642 108.46 59.2642C109.176 59.2642 109.801 59.4283 110.334 59.7564C110.868 60.0845 111.282 60.5452 111.577 61.1385C111.872 61.7318 112.02 62.4245 112.02 63.2166C112.02 64.0054 111.872 64.6948 111.577 65.2848C111.282 65.8748 110.868 66.3338 110.334 66.6619C109.801 66.9901 109.176 67.1541 108.46 67.1541ZM108.465 65.9062C108.929 65.9062 109.314 65.7836 109.618 65.5384C109.923 65.2931 110.149 64.9666 110.295 64.5589C110.444 64.1513 110.518 63.7022 110.518 63.2116C110.518 62.7244 110.444 62.277 110.295 61.8693C110.149 61.4583 109.923 61.1286 109.618 60.88C109.314 60.6314 108.929 60.5071 108.465 60.5071C107.998 60.5071 107.61 60.6314 107.302 60.88C106.997 61.1286 106.77 61.4583 106.621 61.8693C106.475 62.277 106.402 62.7244 106.402 63.2116C106.402 63.7022 106.475 64.1513 106.621 64.5589C106.77 64.9666 106.997 65.2931 107.302 65.5384C107.61 65.7836 107.998 65.9062 108.465 65.9062ZM117.503 67V56.8182H119.04V65.6776H123.653V67H117.503ZM127.509 67.169C127.025 67.169 126.587 67.0795 126.196 66.9006C125.805 66.7183 125.495 66.4548 125.267 66.1101C125.041 65.7654 124.928 65.3428 124.928 64.8423C124.928 64.4115 125.011 64.0568 125.177 63.7784C125.343 63.5 125.566 63.2796 125.848 63.1172C126.13 62.9548 126.445 62.8321 126.793 62.7493C127.141 62.6664 127.495 62.6035 127.857 62.5604C128.314 62.5073 128.685 62.4643 128.97 62.4311C129.255 62.3946 129.463 62.3366 129.592 62.2571C129.721 62.1776 129.786 62.0483 129.786 61.8693V61.8345C129.786 61.4003 129.663 61.0639 129.418 60.8253C129.176 60.5866 128.815 60.4673 128.334 60.4673C127.834 60.4673 127.439 60.5784 127.151 60.8004C126.866 61.0192 126.669 61.2628 126.559 61.5312L125.162 61.2131C125.328 60.7491 125.57 60.3745 125.888 60.0895C126.209 59.8011 126.579 59.5923 126.997 59.4631C127.414 59.3305 127.853 59.2642 128.314 59.2642C128.619 59.2642 128.942 59.3007 129.284 59.3736C129.628 59.4432 129.95 59.5724 130.248 59.7614C130.55 59.9503 130.797 60.2204 130.989 60.5717C131.181 60.9197 131.277 61.3722 131.277 61.929V67H129.825V65.956H129.766C129.67 66.1482 129.526 66.3371 129.333 66.5227C129.141 66.7083 128.894 66.8625 128.593 66.9851C128.291 67.1077 127.93 67.169 127.509 67.169ZM127.832 65.9759C128.243 65.9759 128.594 65.8946 128.886 65.7322C129.181 65.5698 129.405 65.3577 129.557 65.0959C129.713 64.8307 129.791 64.5473 129.791 64.2457V63.2614C129.738 63.3144 129.635 63.3641 129.482 63.4105C129.333 63.4536 129.163 63.4917 128.97 63.5249C128.778 63.5547 128.591 63.5829 128.409 63.6094C128.226 63.6326 128.074 63.6525 127.951 63.669C127.663 63.7055 127.399 63.7668 127.161 63.853C126.925 63.9392 126.736 64.0634 126.594 64.2259C126.455 64.3849 126.385 64.5971 126.385 64.8622C126.385 65.2301 126.521 65.5085 126.793 65.6974C127.065 65.883 127.411 65.9759 127.832 65.9759ZM133.376 67V56.8182H134.863V60.6016H134.952C135.039 60.4425 135.163 60.2585 135.325 60.0497C135.488 59.8409 135.713 59.6586 136.001 59.5028C136.29 59.3438 136.671 59.2642 137.145 59.2642C137.761 59.2642 138.312 59.42 138.795 59.7315C139.279 60.0431 139.659 60.4922 139.934 61.0788C140.212 61.6655 140.352 62.3714 140.352 63.1967C140.352 64.022 140.214 64.7296 139.939 65.3196C139.664 65.9062 139.286 66.3587 138.805 66.6768C138.325 66.9917 137.776 67.1491 137.16 67.1491C136.696 67.1491 136.316 67.0713 136.021 66.9155C135.73 66.7597 135.501 66.5774 135.335 66.3686C135.17 66.1598 135.042 65.9742 134.952 65.8118H134.828V67H133.376ZM134.833 63.1818C134.833 63.7187 134.911 64.1894 135.067 64.5938C135.223 64.9981 135.448 65.3146 135.743 65.5433C136.038 65.7687 136.399 65.8814 136.827 65.8814C137.271 65.8814 137.642 65.7637 137.94 65.5284C138.239 65.2898 138.464 64.9666 138.616 64.5589C138.772 64.1513 138.85 63.6922 138.85 63.1818C138.85 62.678 138.774 62.2256 138.621 61.8246C138.472 61.4235 138.247 61.107 137.945 60.875C137.647 60.643 137.274 60.527 136.827 60.527C136.396 60.527 136.031 60.638 135.733 60.8601C135.438 61.0821 135.214 61.392 135.062 61.7898C134.909 62.1875 134.833 62.6515 134.833 63.1818ZM145.312 67.1541C144.56 67.1541 143.912 66.9934 143.368 66.6719C142.828 66.3471 142.41 65.8913 142.115 65.3047C141.824 64.7147 141.678 64.0237 141.678 63.2315C141.678 62.4493 141.824 61.7599 142.115 61.1634C142.41 60.5668 142.821 60.1011 143.348 59.7663C143.878 59.4316 144.498 59.2642 145.208 59.2642C145.638 59.2642 146.056 59.3355 146.46 59.478C146.865 59.6205 147.228 59.8442 147.549 60.1491C147.871 60.4541 148.124 60.8501 148.31 61.3374C148.495 61.8213 148.588 62.4096 148.588 63.1023V63.6293H142.518V62.5156H147.132C147.132 62.1245 147.052 61.7782 146.893 61.4766C146.734 61.1716 146.51 60.9313 146.222 60.7557C145.937 60.58 145.602 60.4922 145.218 60.4922C144.8 60.4922 144.435 60.5949 144.124 60.8004C143.816 61.0026 143.577 61.2678 143.408 61.5959C143.242 61.9207 143.159 62.2737 143.159 62.6548V63.5249C143.159 64.0353 143.249 64.4695 143.428 64.8274C143.61 65.1854 143.864 65.4588 144.188 65.6477C144.513 65.8333 144.893 65.9261 145.327 65.9261C145.609 65.9261 145.865 65.8864 146.097 65.8068C146.329 65.724 146.53 65.6013 146.699 65.4389C146.868 65.2765 146.997 65.076 147.087 64.8374L148.494 65.0909C148.381 65.5052 148.179 65.8681 147.887 66.1797C147.599 66.4879 147.236 66.7282 146.798 66.9006C146.364 67.0696 145.869 67.1541 145.312 67.1541ZM151.724 56.8182V67H150.238V56.8182H151.724Z" fill="#1A1A1A"/>
<defs>
<filter id="filter0_dd_4746_42680" x="49" y="55" width="16" height="16" filterUnits="userSpaceOnUse" color-interpolation-filters="sRGB">
<feFlood flood-opacity="0" result="BackgroundImageFix"/>
<feColorMatrix in="SourceAlpha" type="matrix" values="0 0 0 0 0 0 0 0 0 0 0 0 0 0 0 0 0 0 127 0" result="hardAlpha"/>
<feOffset dy="1"/>
<feGaussianBlur stdDeviation="1.5"/>
<feColorMatrix type="matrix" values="0 0 0 0 0.101961 0 0 0 0 0.101961 0 0 0 0 0.101961 0 0 0 0.08 0"/>
<feBlend mode="normal" in2="BackgroundImageFix" result="effect1_dropShadow_4746_42680"/>
<feColorMatrix in="SourceAlpha" type="matrix" values="0 0 0 0 0 0 0 0 0 0 0 0 0 0 0 0 0 0 127 0" result="hardAlpha"/>
<feOffset dy="0.5"/>
<feColorMatrix type="matrix" values="0 0 0 0 0.101961 0 0 0 0 0.101961 0 0 0 0 0.101961 0 0 0 0.08 0"/>
<feBlend mode="normal" in2="effect1_dropShadow_4746_42680" result="effect2_dropShadow_4746_42680"/>
<feBlend mode="normal" in="SourceGraphic" in2="effect2_dropShadow_4746_42680" result="shape"/>
</filter>
</defs>
</svg>
