<svg width="264" height="44" viewBox="0 0 264 44" fill="none" xmlns="http://www.w3.org/2000/svg">
<path d="M0 22C0 9.84974 9.84974 0 22 0H242C254.15 0 264 9.84974 264 22V22C264 34.1503 254.15 44 242 44H22C9.84973 44 0 34.1503 0 22V22Z" fill="#1355E9"/>
<path d="M112.704 17.928L111.376 19.464C110.784 18.92 109.952 18.52 108.928 18.52C107.184 18.52 105.792 20.024 105.792 21.88C105.792 23.72 107.184 25.224 109.056 25.224C109.936 25.224 110.816 24.888 111.392 24.296L112.704 25.768C111.808 26.76 110.576 27.208 108.928 27.208C105.936 27.208 103.648 24.808 103.648 21.88C103.648 18.92 106.016 16.536 108.912 16.536C110.64 16.536 111.856 17.064 112.704 17.928ZM117.287 27.208C115.063 27.208 113.303 25.4 113.303 23.16C113.303 20.936 115.063 19.128 117.287 19.128C119.511 19.128 121.271 20.936 121.271 23.16C121.271 25.4 119.511 27.208 117.287 27.208ZM117.287 25.384C118.471 25.384 119.319 24.392 119.319 23.16C119.319 21.928 118.471 20.952 117.287 20.952C116.103 20.952 115.255 21.928 115.255 23.16C115.255 24.392 116.103 25.384 117.287 25.384ZM122.955 27V19.336H124.907V20.424C125.307 19.608 126.075 19.128 127.083 19.128C128.843 19.128 129.979 20.36 129.979 22.36V27H128.027V22.648C128.027 21.608 127.435 20.952 126.475 20.952C125.515 20.952 124.907 21.608 124.907 22.648V27H122.955ZM131.408 21.064V19.336H132.656V19.192C132.656 17.08 134.048 15.784 136.4 15.784C137.888 15.784 138.896 16.2 139.616 16.808L138.64 18.344C138.144 17.896 137.312 17.608 136.512 17.608C135.328 17.608 134.624 18.136 134.624 19.24V19.336H139.504V27H137.552V21.064H134.624V27H132.656V21.064H131.408ZM141.674 27V19.336H143.626V20.472C143.994 19.656 144.65 19.128 145.514 19.128C146.026 19.128 146.442 19.256 146.73 19.496L145.93 21.336C145.674 21.144 145.29 21.016 144.906 21.016C144.138 21.016 143.626 21.672 143.626 22.712V27H141.674ZM150.017 27H148.065V19.336H150.017V20.504C150.417 19.672 151.169 19.128 152.177 19.128C153.345 19.128 154.241 19.704 154.689 20.728C155.089 19.816 155.825 19.128 157.041 19.128C158.817 19.128 159.985 20.312 159.985 22.36V27H158.017V22.648C158.017 21.608 157.441 20.952 156.513 20.952C155.585 20.952 154.993 21.608 154.993 22.648V27H153.041V22.648C153.041 21.608 152.465 20.952 151.537 20.952C150.609 20.952 150.017 21.608 150.017 22.648V27Z" fill="white"/>
</svg>
