<svg width="264" height="44" viewBox="0 0 264 44" fill="none" xmlns="http://www.w3.org/2000/svg">
<path d="M0 22C0 9.84974 9.84974 0 22 0H242C254.15 0 264 9.84974 264 22V22C264 34.1503 254.15 44 242 44H22C9.84973 44 0 34.1503 0 22V22Z" fill="#BF1722"/>
<path d="M109.004 27V16.76H112.428C115.804 16.76 118.22 18.888 118.22 21.88C118.22 24.872 115.836 27 112.492 27H109.004ZM112.412 18.632H111.068V25.112H112.428C114.62 25.112 116.076 23.832 116.076 21.88C116.076 19.912 114.62 18.632 112.412 18.632ZM123.571 27.208C121.187 27.208 119.459 25.4 119.459 23.16C119.459 20.936 121.107 19.128 123.315 19.128C125.507 19.128 127.187 20.808 127.187 23.016C127.187 23.272 127.171 23.576 127.139 23.704H121.459C121.667 24.76 122.467 25.496 123.635 25.496C124.419 25.496 125.075 25.16 125.523 24.696L126.531 26.04C125.939 26.696 124.851 27.208 123.571 27.208ZM123.347 20.776C122.419 20.776 121.747 21.416 121.507 22.344H125.171C124.931 21.32 124.243 20.776 123.347 20.776ZM131.712 25.304L131.92 27.016C131.632 27.112 131.264 27.176 130.976 27.176C129.872 27.176 128.752 26.472 128.752 24.52V15.992H130.704V24.568C130.704 25.16 131.04 25.384 131.392 25.384C131.488 25.384 131.616 25.352 131.712 25.304ZM137.165 27.208C134.781 27.208 133.053 25.4 133.053 23.16C133.053 20.936 134.701 19.128 136.909 19.128C139.101 19.128 140.781 20.808 140.781 23.016C140.781 23.272 140.765 23.576 140.733 23.704H135.053C135.261 24.76 136.061 25.496 137.229 25.496C138.013 25.496 138.669 25.16 139.117 24.696L140.125 26.04C139.533 26.696 138.445 27.208 137.165 27.208ZM136.941 20.776C136.013 20.776 135.341 21.416 135.101 22.344H138.765C138.525 21.32 137.837 20.776 136.941 20.776ZM141.562 21.064V19.336H142.906V17.352H144.874V19.336H146.938V21.064H144.89V24.328C144.89 25.048 145.178 25.384 145.754 25.384C146.122 25.384 146.474 25.224 146.666 25L147.53 26.456C147.114 26.872 146.394 27.208 145.45 27.208C143.898 27.208 142.906 26.248 142.906 24.376V21.064H141.562ZM152.071 27.208C149.687 27.208 147.959 25.4 147.959 23.16C147.959 20.936 149.607 19.128 151.815 19.128C154.007 19.128 155.687 20.808 155.687 23.016C155.687 23.272 155.671 23.576 155.639 23.704H149.959C150.167 24.76 150.967 25.496 152.135 25.496C152.919 25.496 153.575 25.16 154.023 24.696L155.031 26.04C154.439 26.696 153.351 27.208 152.071 27.208ZM151.847 20.776C150.919 20.776 150.247 21.416 150.007 22.344H153.671C153.431 21.32 152.743 20.776 151.847 20.776Z" fill="white"/>
</svg>
