<svg width="152" height="44" viewBox="0 0 152 44" fill="none" xmlns="http://www.w3.org/2000/svg">
<path d="M0 22C0 9.84974 9.84974 0 22 0H130C142.15 0 152 9.84974 152 22V22C152 34.1503 142.15 44 130 44H22C9.84973 44 0 34.1503 0 22V22Z" fill="#D6D6D6"/>
<path d="M60.6414 27.016C60.1614 26.888 59.5534 26.584 58.7694 26.072L59.6334 24.392C60.4974 24.936 61.7454 25.32 62.7534 25.32C63.7614 25.32 64.5134 24.952 64.5134 24.136C64.5134 22.312 59.1214 23.176 59.1214 19.544C59.1214 17.64 60.8654 16.52 62.9454 16.52C64.2414 16.52 65.4574 16.872 66.4014 17.592L65.4254 19.176C64.7694 18.744 63.7454 18.392 62.8494 18.392C61.9214 18.392 61.2654 18.824 61.2654 19.496C61.2654 21.368 66.6414 20.536 66.6414 24.024C66.6414 26.136 64.7854 27.208 62.6094 27.208C61.7614 27.208 61.1054 27.144 60.6414 27.016ZM71.4201 27.208C69.4041 27.208 67.7561 25.56 67.7561 23.16C67.7561 20.856 69.3081 19.128 71.4201 19.128C72.4601 19.128 73.2601 19.592 73.7721 20.344V19.336H75.7241V27H73.7721V25.912C73.2601 26.696 72.4601 27.208 71.4201 27.208ZM71.7401 25.384C72.9241 25.384 73.7721 24.392 73.7721 23.16C73.7721 21.928 72.9241 20.952 71.7401 20.952C70.5561 20.952 69.7081 21.928 69.7081 23.16C69.7081 24.392 70.5561 25.384 71.7401 25.384ZM82.3247 27H79.7807L77.0127 19.336H79.1567L81.1087 25.256L83.0927 19.336H85.0927L82.3247 27ZM89.6337 27.208C87.2497 27.208 85.5217 25.4 85.5217 23.16C85.5217 20.936 87.1697 19.128 89.3777 19.128C91.5697 19.128 93.2497 20.808 93.2497 23.016C93.2497 23.272 93.2337 23.576 93.2017 23.704H87.5217C87.7297 24.76 88.5297 25.496 89.6977 25.496C90.4817 25.496 91.1377 25.16 91.5857 24.696L92.5937 26.04C92.0017 26.696 90.9137 27.208 89.6337 27.208ZM89.4097 20.776C88.4817 20.776 87.8097 21.416 87.5697 22.344H91.2337C90.9937 21.32 90.3057 20.776 89.4097 20.776Z" fill="white"/>
</svg>
