<svg width="264" height="44" viewBox="0 0 264 44" fill="none" xmlns="http://www.w3.org/2000/svg">
<path d="M113.957 27V16.744H117.621C120.101 16.744 121.733 18.088 121.733 20.136C121.733 22.2 120.085 23.56 117.589 23.56H115.957V27H113.957ZM117.781 18.52H115.957V21.784H117.781C118.885 21.784 119.621 21.128 119.621 20.136C119.621 19.16 118.885 18.52 117.781 18.52ZM123.299 27V19.336H125.251V20.472C125.619 19.656 126.275 19.128 127.139 19.128C127.651 19.128 128.067 19.256 128.355 19.496L127.555 21.336C127.299 21.144 126.915 21.016 126.531 21.016C125.763 21.016 125.251 21.672 125.251 22.712V27H123.299ZM132.665 27.208C130.281 27.208 128.553 25.4 128.553 23.16C128.553 20.936 130.201 19.128 132.409 19.128C134.601 19.128 136.281 20.808 136.281 23.016C136.281 23.272 136.265 23.576 136.233 23.704H130.553C130.761 24.76 131.561 25.496 132.729 25.496C133.513 25.496 134.169 25.16 134.617 24.696L135.625 26.04C135.033 26.696 133.945 27.208 132.665 27.208ZM132.441 20.776C131.513 20.776 130.841 21.416 130.601 22.344H134.265C134.025 21.32 133.337 20.776 132.441 20.776ZM140.151 27.208C138.919 27.208 137.911 26.888 137.159 26.472L137.783 24.968C138.663 25.384 139.399 25.608 140.247 25.608C141.111 25.608 141.511 25.304 141.511 24.856C141.511 23.48 137.383 24.296 137.383 21.4C137.383 20.248 138.407 19.128 140.375 19.128C141.447 19.128 142.263 19.352 143.239 19.816L142.519 21.272C141.975 20.968 141.159 20.728 140.535 20.728C139.799 20.728 139.351 20.968 139.351 21.384C139.351 22.792 143.447 21.912 143.447 24.824C143.447 26.152 142.263 27.208 140.151 27.208ZM147.401 27.208C146.169 27.208 145.161 26.888 144.409 26.472L145.033 24.968C145.913 25.384 146.649 25.608 147.497 25.608C148.361 25.608 148.761 25.304 148.761 24.856C148.761 23.48 144.633 24.296 144.633 21.4C144.633 20.248 145.657 19.128 147.625 19.128C148.697 19.128 149.513 19.352 150.489 19.816L149.769 21.272C149.225 20.968 148.409 20.728 147.785 20.728C147.049 20.728 146.601 20.968 146.601 21.384C146.601 22.792 150.697 21.912 150.697 24.824C150.697 26.152 149.513 27.208 147.401 27.208Z" fill="#131331"/>
<path d="M112.789 29H151.209V29.8H112.789V29Z" fill="#131331"/>
</svg>
