<svg width="287" height="44" viewBox="0 0 287 44" fill="none" xmlns="http://www.w3.org/2000/svg">
<path d="M0 22C0 9.84974 9.84974 0 22 0H265C277.15 0 287 9.84974 287 22C287 34.1503 277.15 44 265 44H22C9.84973 44 0 34.1503 0 22Z" fill="#1355E9"/>
<path d="M116.957 27V16.76H120.381C123.757 16.76 126.173 18.888 126.173 21.88C126.173 24.872 123.789 27 120.445 27H116.957ZM120.365 18.632H119.021V25.112H120.381C122.573 25.112 124.029 23.832 124.029 21.88C124.029 19.912 122.573 18.632 120.365 18.632ZM131.524 27.208C129.14 27.208 127.412 25.4 127.412 23.16C127.412 20.936 129.06 19.128 131.268 19.128C133.46 19.128 135.14 20.808 135.14 23.016C135.14 23.272 135.124 23.576 135.092 23.704H129.412C129.62 24.76 130.42 25.496 131.588 25.496C132.372 25.496 133.028 25.16 133.476 24.696L134.484 26.04C133.892 26.696 132.804 27.208 131.524 27.208ZM131.3 20.776C130.372 20.776 129.7 21.416 129.46 22.344H133.124C132.884 21.32 132.196 20.776 131.3 20.776ZM136.017 21.064V19.336H137.265V18.888C137.265 16.952 138.369 15.784 140.081 15.784C141.121 15.784 141.793 16.072 142.289 16.568L141.329 18.04C141.105 17.8 140.689 17.608 140.273 17.608C139.633 17.608 139.233 18.04 139.233 18.872V19.336H141.217V21.064H139.233V27H137.265V21.064H136.017ZM145.404 27.208C143.388 27.208 141.74 25.56 141.74 23.16C141.74 20.856 143.292 19.128 145.404 19.128C146.444 19.128 147.244 19.592 147.756 20.344V19.336H149.708V27H147.756V25.912C147.244 26.696 146.444 27.208 145.404 27.208ZM145.724 25.384C146.908 25.384 147.756 24.392 147.756 23.16C147.756 21.928 146.908 20.952 145.724 20.952C144.54 20.952 143.692 21.928 143.692 23.16C143.692 24.392 144.54 25.384 145.724 25.384ZM153.733 19.336V23.48C153.733 24.6 154.373 25.352 155.349 25.352C156.325 25.352 156.981 24.6 156.981 23.48V19.336H158.949V23.624C158.949 25.768 157.509 27.192 155.349 27.192C153.189 27.192 151.781 25.768 151.781 23.624V19.336H153.733ZM163.978 25.304L164.186 27.016C163.898 27.112 163.53 27.176 163.242 27.176C162.138 27.176 161.018 26.472 161.018 24.52V15.992H162.97V24.568C162.97 25.16 163.306 25.384 163.658 25.384C163.754 25.384 163.882 25.352 163.978 25.304ZM165.031 21.064V19.336H166.375V17.352H168.343V19.336H170.407V21.064H168.359V24.328C168.359 25.048 168.647 25.384 169.223 25.384C169.591 25.384 169.943 25.224 170.135 25L170.999 26.456C170.583 26.872 169.863 27.208 168.919 27.208C167.367 27.208 166.375 26.248 166.375 24.376V21.064H165.031Z" fill="white"/>
</svg>
