<svg width="200" height="124" viewBox="0 0 200 124" fill="none" xmlns="http://www.w3.org/2000/svg">
<rect x="59" y="52" width="82" height="20" rx="10" fill="#1355E9"/>
<path d="M68.1772 66V57.2727H71.4499C72.1204 57.2727 72.6829 57.3977 73.1374 57.6477C73.5948 57.8977 73.94 58.2415 74.1729 58.679C74.4087 59.1136 74.5266 59.608 74.5266 60.1619C74.5266 60.7216 74.4087 61.2187 74.1729 61.6534C73.9371 62.0881 73.5891 62.4304 73.1289 62.6804C72.6687 62.9276 72.1019 63.0511 71.4286 63.0511H69.2596V61.7514H71.2156C71.6076 61.7514 71.9286 61.6832 72.1786 61.5469C72.4286 61.4105 72.6133 61.223 72.7326 60.9844C72.8548 60.7457 72.9158 60.4716 72.9158 60.1619C72.9158 59.8523 72.8548 59.5795 72.7326 59.3438C72.6133 59.108 72.4272 58.9247 72.1744 58.794C71.9244 58.6605 71.6019 58.5938 71.207 58.5938H69.7582V66H68.1772ZM77.4808 57.2727V66H75.8999V57.2727H77.4808ZM79.1928 66V57.2727H80.7738V64.6747H84.6175V66H79.1928ZM85.9897 66V57.2727H87.5707V64.6747H91.4144V66H85.9897ZM95.7631 66V57.2727H97.3441V64.6747H101.188V66H95.7631ZM104.009 66H102.321L105.394 57.2727H107.346L110.422 66H108.735L106.404 59.0625H106.336L104.009 66ZM104.064 62.5781H108.667V63.848H104.064V62.5781ZM111.572 66V57.2727H114.913C115.543 57.2727 116.067 57.3722 116.485 57.571C116.906 57.767 117.219 58.0355 117.427 58.3764C117.637 58.7173 117.742 59.1037 117.742 59.5355C117.742 59.8906 117.674 60.1946 117.538 60.4474C117.401 60.6974 117.218 60.9006 116.988 61.0568C116.758 61.2131 116.501 61.3253 116.217 61.3935V61.4787C116.526 61.4957 116.823 61.5909 117.107 61.7642C117.394 61.9347 117.629 62.1761 117.81 62.4886C117.992 62.8011 118.083 63.179 118.083 63.6222C118.083 64.0739 117.974 64.4801 117.755 64.8409C117.536 65.1989 117.207 65.4815 116.766 65.6889C116.326 65.8963 115.772 66 115.104 66H111.572ZM113.153 64.679H114.853C115.427 64.679 115.84 64.5696 116.093 64.3509C116.349 64.1293 116.477 63.8452 116.477 63.4986C116.477 63.2401 116.413 63.0071 116.285 62.7997C116.157 62.5895 115.975 62.4247 115.739 62.3054C115.504 62.1832 115.222 62.1222 114.896 62.1222H113.153V64.679ZM113.153 60.9844H114.717C114.989 60.9844 115.235 60.9347 115.454 60.8352C115.673 60.733 115.844 60.5895 115.969 60.4048C116.097 60.2173 116.161 59.9957 116.161 59.7401C116.161 59.402 116.042 59.1236 115.803 58.9048C115.567 58.6861 115.217 58.5767 114.751 58.5767H113.153V60.9844ZM119.458 66V57.2727H125.135V58.598H121.039V60.9673H124.841V62.2926H121.039V64.6747H125.169V66H119.458ZM126.748 66V57.2727H128.328V64.6747H132.172V66H126.748Z" fill="white"/>
</svg>
