<svg width="154" height="56" viewBox="0 0 154 56" fill="none" xmlns="http://www.w3.org/2000/svg">
<path d="M28 1H126C140.912 1 153 13.0883 153 28C153 42.9117 140.912 55 126 55H28C13.0883 55 1 42.9117 1 28C1 13.0883 13.0883 1 28 1Z" stroke="#1A3673" stroke-width="2"/>
<path d="M6 28C6 15.8497 15.8497 6 28 6H126C138.15 6 148 15.8497 148 28V28C148 40.1503 138.15 50 126 50H28C15.8497 50 6 40.1503 6 28V28Z" fill="#1355E9"/>
<path d="M53.2118 33.016C52.7318 32.888 52.1238 32.584 51.3398 32.072L52.2038 30.392C53.0678 30.936 54.3158 31.32 55.3238 31.32C56.3318 31.32 57.0838 30.952 57.0838 30.136C57.0838 28.312 51.6918 29.176 51.6918 25.544C51.6918 23.64 53.4358 22.52 55.5158 22.52C56.8118 22.52 58.0278 22.872 58.9718 23.592L57.9958 25.176C57.3398 24.744 56.3158 24.392 55.4198 24.392C54.4918 24.392 53.8358 24.824 53.8358 25.496C53.8358 27.368 59.2118 26.536 59.2118 30.024C59.2118 32.136 57.3558 33.208 55.1798 33.208C54.3318 33.208 53.6758 33.144 53.2118 33.016ZM62.6784 25.336V29.48C62.6784 30.6 63.3184 31.352 64.2944 31.352C65.2704 31.352 65.9264 30.6 65.9264 29.48V25.336H67.8944V29.624C67.8944 31.768 66.4544 33.192 64.2944 33.192C62.1344 33.192 60.7264 31.768 60.7264 29.624V25.336H62.6784ZM74.267 25.128C76.283 25.128 77.947 26.776 77.947 29.176C77.947 31.48 76.395 33.208 74.267 33.208C73.227 33.208 72.427 32.744 71.915 31.976V33H69.963V21.992H71.915V26.424C72.427 25.64 73.227 25.128 74.267 25.128ZM73.963 26.952C72.779 26.952 71.915 27.944 71.915 29.176C71.915 30.408 72.779 31.384 73.963 31.384C75.131 31.384 75.995 30.408 75.995 29.176C75.995 27.944 75.131 26.952 73.963 26.952ZM81.5556 33H79.6036V25.336H81.5556V26.504C81.9556 25.672 82.7076 25.128 83.7156 25.128C84.8836 25.128 85.7796 25.704 86.2276 26.728C86.6276 25.816 87.3636 25.128 88.5796 25.128C90.3556 25.128 91.5236 26.312 91.5236 28.36V33H89.5556V28.648C89.5556 27.608 88.9796 26.952 88.0516 26.952C87.1236 26.952 86.5316 27.608 86.5316 28.648V33H84.5796V28.648C84.5796 27.608 84.0036 26.952 83.0756 26.952C82.1476 26.952 81.5556 27.608 81.5556 28.648V33ZM94.5953 24.312C93.9553 24.312 93.4593 23.8 93.4593 23.16C93.4593 22.536 93.9553 22.024 94.5953 22.024C95.2193 22.024 95.7473 22.536 95.7473 23.16C95.7473 23.8 95.2193 24.312 94.5953 24.312ZM95.5713 33H93.6193V25.336H95.5713V33ZM96.9759 27.064V25.336H98.3199V23.352H100.288V25.336H102.352V27.064H100.304V30.328C100.304 31.048 100.592 31.384 101.168 31.384C101.536 31.384 101.888 31.224 102.08 31L102.944 32.456C102.528 32.872 101.808 33.208 100.864 33.208C99.3119 33.208 98.3199 32.248 98.3199 30.376V27.064H96.9759Z" fill="white"/>
</svg>
