<svg width="64" height="24" viewBox="0 0 64 24" fill="none" xmlns="http://www.w3.org/2000/svg">
<path d="M0 12C0 5.37258 5.37258 0 12 0H52C58.6274 0 64 5.37258 64 12V12C64 18.6274 58.6274 24 52 24H12C5.37258 24 0 18.6274 0 12V12Z" fill="#1355E9"/>
<path d="M14.1588 16.012C13.7988 15.916 13.3428 15.688 12.7548 15.304L13.4028 14.044C14.0508 14.452 14.9868 14.74 15.7428 14.74C16.4988 14.74 17.0628 14.464 17.0628 13.852C17.0628 12.484 13.0188 13.132 13.0188 10.408C13.0188 8.98 14.3268 8.14 15.8868 8.14C16.8588 8.14 17.7708 8.404 18.4788 8.944L17.7468 10.132C17.2548 9.808 16.4868 9.544 15.8148 9.544C15.1188 9.544 14.6268 9.868 14.6268 10.372C14.6268 11.776 18.6588 11.152 18.6588 13.768C18.6588 15.352 17.2668 16.156 15.6348 16.156C14.9988 16.156 14.5068 16.108 14.1588 16.012ZM21.2588 10.252V13.36C21.2588 14.2 21.7388 14.764 22.4708 14.764C23.2028 14.764 23.6948 14.2 23.6948 13.36V10.252H25.1708V13.468C25.1708 15.076 24.0908 16.144 22.4708 16.144C20.8508 16.144 19.7948 15.076 19.7948 13.468V10.252H21.2588ZM29.9503 10.096C31.4623 10.096 32.7103 11.332 32.7103 13.132C32.7103 14.86 31.5463 16.156 29.9503 16.156C29.1703 16.156 28.5703 15.808 28.1863 15.232V16H26.7223V7.744H28.1863V11.068C28.5703 10.48 29.1703 10.096 29.9503 10.096ZM29.7223 11.464C28.8343 11.464 28.1863 12.208 28.1863 13.132C28.1863 14.056 28.8343 14.788 29.7223 14.788C30.5983 14.788 31.2463 14.056 31.2463 13.132C31.2463 12.208 30.5983 11.464 29.7223 11.464ZM35.4167 16H33.9527V10.252H35.4167V11.128C35.7167 10.504 36.2807 10.096 37.0367 10.096C37.9127 10.096 38.5847 10.528 38.9207 11.296C39.2207 10.612 39.7727 10.096 40.6847 10.096C42.0167 10.096 42.8927 10.984 42.8927 12.52V16H41.4167V12.736C41.4167 11.956 40.9847 11.464 40.2887 11.464C39.5927 11.464 39.1487 11.956 39.1487 12.736V16H37.6847V12.736C37.6847 11.956 37.2527 11.464 36.5567 11.464C35.8607 11.464 35.4167 11.956 35.4167 12.736V16ZM45.1964 9.484C44.7164 9.484 44.3444 9.1 44.3444 8.62C44.3444 8.152 44.7164 7.768 45.1964 7.768C45.6644 7.768 46.0604 8.152 46.0604 8.62C46.0604 9.1 45.6644 9.484 45.1964 9.484ZM45.9284 16H44.4644V10.252H45.9284V16ZM46.9819 11.548V10.252H47.9899V8.764H49.4659V10.252H51.0139V11.548H49.4779V13.996C49.4779 14.536 49.6939 14.788 50.1259 14.788C50.4019 14.788 50.6659 14.668 50.8099 14.5L51.4579 15.592C51.1459 15.904 50.6059 16.156 49.8979 16.156C48.7339 16.156 47.9899 15.436 47.9899 14.032V11.548H46.9819Z" fill="white"/>
</svg>
