<svg width="87" height="44" viewBox="0 0 87 44" fill="none" xmlns="http://www.w3.org/2000/svg">
<path d="M0 22C0 9.84974 9.84974 0 22 0H65C77.1503 0 87 9.84974 87 22V22C87 34.1503 77.1503 44 65 44H22C9.84973 44 0 34.1503 0 22V22Z" fill="#131331"/>
<path d="M25.4571 27V16.744H29.1211C31.6011 16.744 33.2331 18.088 33.2331 20.136C33.2331 22.2 31.5851 23.56 29.0891 23.56H27.4571V27H25.4571ZM29.2811 18.52H27.4571V21.784H29.2811C30.3851 21.784 31.1211 21.128 31.1211 20.136C31.1211 19.16 30.3851 18.52 29.2811 18.52ZM34.7989 27V19.336H36.7509V20.472C37.1189 19.656 37.7749 19.128 38.6389 19.128C39.1509 19.128 39.5669 19.256 39.8549 19.496L39.0549 21.336C38.7989 21.144 38.4149 21.016 38.0309 21.016C37.2629 21.016 36.7509 21.672 36.7509 22.712V27H34.7989ZM44.1649 27.208C41.7809 27.208 40.0529 25.4 40.0529 23.16C40.0529 20.936 41.7009 19.128 43.9089 19.128C46.1009 19.128 47.7809 20.808 47.7809 23.016C47.7809 23.272 47.7649 23.576 47.7329 23.704H42.0529C42.2609 24.76 43.0609 25.496 44.2289 25.496C45.0129 25.496 45.6689 25.16 46.1169 24.696L47.1249 26.04C46.5329 26.696 45.4449 27.208 44.1649 27.208ZM43.9409 20.776C43.0129 20.776 42.3409 21.416 42.1009 22.344H45.7649C45.5249 21.32 44.8369 20.776 43.9409 20.776ZM51.6509 27.208C50.4189 27.208 49.4109 26.888 48.6589 26.472L49.2829 24.968C50.1629 25.384 50.8989 25.608 51.7469 25.608C52.6109 25.608 53.0109 25.304 53.0109 24.856C53.0109 23.48 48.8829 24.296 48.8829 21.4C48.8829 20.248 49.9069 19.128 51.8749 19.128C52.9469 19.128 53.7629 19.352 54.7389 19.816L54.0189 21.272C53.4749 20.968 52.6589 20.728 52.0349 20.728C51.2989 20.728 50.8509 20.968 50.8509 21.384C50.8509 22.792 54.9469 21.912 54.9469 24.824C54.9469 26.152 53.7629 27.208 51.6509 27.208ZM58.9009 27.208C57.6689 27.208 56.6609 26.888 55.9089 26.472L56.5329 24.968C57.4129 25.384 58.1489 25.608 58.9969 25.608C59.8609 25.608 60.2609 25.304 60.2609 24.856C60.2609 23.48 56.1329 24.296 56.1329 21.4C56.1329 20.248 57.1569 19.128 59.1249 19.128C60.1969 19.128 61.0129 19.352 61.9889 19.816L61.2689 21.272C60.7249 20.968 59.9089 20.728 59.2849 20.728C58.5489 20.728 58.1009 20.968 58.1009 21.384C58.1009 22.792 62.1969 21.912 62.1969 24.824C62.1969 26.152 61.0129 27.208 58.9009 27.208Z" fill="white"/>
</svg>
