<svg width="275" height="44" viewBox="0 0 275 44" fill="none" xmlns="http://www.w3.org/2000/svg">
<path d="M0 22C0 9.84974 9.84974 0 22 0H253C265.15 0 275 9.84974 275 22C275 34.1503 265.15 44 253 44H22C9.84973 44 0 34.1503 0 22Z" fill="#1355E9"/>
<path d="M118.137 27V16.76H124.633V18.632H120.137V21.112H123.993V23H120.137V27H118.137ZM129.248 27.208C127.024 27.208 125.264 25.4 125.264 23.16C125.264 20.936 127.024 19.128 129.248 19.128C131.472 19.128 133.232 20.936 133.232 23.16C133.232 25.4 131.472 27.208 129.248 27.208ZM129.248 25.384C130.432 25.384 131.28 24.392 131.28 23.16C131.28 21.928 130.432 20.952 129.248 20.952C128.064 20.952 127.216 21.928 127.216 23.16C127.216 24.392 128.064 25.384 129.248 25.384ZM140.324 21.656C139.828 21.192 139.268 20.952 138.5 20.952C137.22 20.952 136.372 21.928 136.372 23.16C136.372 24.392 137.236 25.384 138.5 25.384C139.268 25.384 139.892 25.112 140.388 24.632L141.38 26.072C140.772 26.744 139.652 27.208 138.452 27.208C136.164 27.208 134.42 25.4 134.42 23.16C134.42 20.936 136.18 19.128 138.42 19.128C139.716 19.128 140.756 19.56 141.444 20.264L140.324 21.656ZM144.585 19.336V23.48C144.585 24.6 145.225 25.352 146.201 25.352C147.177 25.352 147.833 24.6 147.833 23.48V19.336H149.801V23.624C149.801 25.768 148.361 27.192 146.201 27.192C144.041 27.192 142.633 25.768 142.633 23.624V19.336H144.585ZM154.221 27.208C152.989 27.208 151.981 26.888 151.229 26.472L151.853 24.968C152.733 25.384 153.469 25.608 154.317 25.608C155.181 25.608 155.581 25.304 155.581 24.856C155.581 23.48 151.453 24.296 151.453 21.4C151.453 20.248 152.477 19.128 154.445 19.128C155.517 19.128 156.333 19.352 157.309 19.816L156.589 21.272C156.045 20.968 155.229 20.728 154.605 20.728C153.869 20.728 153.421 20.968 153.421 21.384C153.421 22.792 157.517 21.912 157.517 24.824C157.517 26.152 156.333 27.208 154.221 27.208Z" fill="white"/>
</svg>
