<svg width="152" height="44" viewBox="0 0 152 44" fill="none" xmlns="http://www.w3.org/2000/svg">
<path d="M22 0.5H130C141.874 0.5 151.5 10.1259 151.5 22C151.5 33.8741 141.874 43.5 130 43.5H22C10.1259 43.5 0.5 33.8741 0.5 22C0.5 10.1259 10.1259 0.5 22 0.5Z" stroke="#1355E9"/>
<path d="M52.2118 27.016C51.7318 26.888 51.1238 26.584 50.3398 26.072L51.2038 24.392C52.0678 24.936 53.3158 25.32 54.3238 25.32C55.3318 25.32 56.0838 24.952 56.0838 24.136C56.0838 22.312 50.6918 23.176 50.6918 19.544C50.6918 17.64 52.4358 16.52 54.5158 16.52C55.8118 16.52 57.0278 16.872 57.9718 17.592L56.9958 19.176C56.3398 18.744 55.3158 18.392 54.4198 18.392C53.4918 18.392 52.8358 18.824 52.8358 19.496C52.8358 21.368 58.2118 20.536 58.2118 24.024C58.2118 26.136 56.3558 27.208 54.1798 27.208C53.3318 27.208 52.6758 27.144 52.2118 27.016ZM61.6784 19.336V23.48C61.6784 24.6 62.3184 25.352 63.2944 25.352C64.2704 25.352 64.9264 24.6 64.9264 23.48V19.336H66.8944V23.624C66.8944 25.768 65.4544 27.192 63.2944 27.192C61.1344 27.192 59.7264 25.768 59.7264 23.624V19.336H61.6784ZM73.267 19.128C75.283 19.128 76.947 20.776 76.947 23.176C76.947 25.48 75.395 27.208 73.267 27.208C72.227 27.208 71.427 26.744 70.915 25.976V27H68.963V15.992H70.915V20.424C71.427 19.64 72.227 19.128 73.267 19.128ZM72.963 20.952C71.779 20.952 70.915 21.944 70.915 23.176C70.915 24.408 71.779 25.384 72.963 25.384C74.131 25.384 74.995 24.408 74.995 23.176C74.995 21.944 74.131 20.952 72.963 20.952ZM80.5556 27H78.6036V19.336H80.5556V20.504C80.9556 19.672 81.7076 19.128 82.7156 19.128C83.8836 19.128 84.7796 19.704 85.2276 20.728C85.6276 19.816 86.3636 19.128 87.5796 19.128C89.3556 19.128 90.5236 20.312 90.5236 22.36V27H88.5556V22.648C88.5556 21.608 87.9796 20.952 87.0516 20.952C86.1236 20.952 85.5316 21.608 85.5316 22.648V27H83.5796V22.648C83.5796 21.608 83.0036 20.952 82.0756 20.952C81.1476 20.952 80.5556 21.608 80.5556 22.648V27ZM93.5953 18.312C92.9553 18.312 92.4593 17.8 92.4593 17.16C92.4593 16.536 92.9553 16.024 93.5953 16.024C94.2193 16.024 94.7473 16.536 94.7473 17.16C94.7473 17.8 94.2193 18.312 93.5953 18.312ZM94.5713 27H92.6193V19.336H94.5713V27ZM95.9759 21.064V19.336H97.3199V17.352H99.2879V19.336H101.352V21.064H99.3039V24.328C99.3039 25.048 99.5919 25.384 100.168 25.384C100.536 25.384 100.888 25.224 101.08 25L101.944 26.456C101.528 26.872 100.808 27.208 99.8639 27.208C98.3119 27.208 97.3199 26.248 97.3199 24.376V21.064H95.9759Z" fill="#1355E9"/>
</svg>
