<svg width="80" height="40" viewBox="0 0 80 40" fill="none" xmlns="http://www.w3.org/2000/svg">
<path d="M0 20C0 8.95431 8.95431 0 20 0H60C71.0457 0 80 8.95431 80 20V20C80 31.0457 71.0457 40 60 40H20C8.95431 40 0 31.0457 0 20V20Z" fill="#1355E9"/>
<path d="M22.1588 24.012C21.7988 23.916 21.3428 23.688 20.7548 23.304L21.4028 22.044C22.0508 22.452 22.9868 22.74 23.7428 22.74C24.4988 22.74 25.0628 22.464 25.0628 21.852C25.0628 20.484 21.0188 21.132 21.0188 18.408C21.0188 16.98 22.3268 16.14 23.8868 16.14C24.8588 16.14 25.7708 16.404 26.4788 16.944L25.7468 18.132C25.2548 17.808 24.4868 17.544 23.8148 17.544C23.1188 17.544 22.6268 17.868 22.6268 18.372C22.6268 19.776 26.6588 19.152 26.6588 21.768C26.6588 23.352 25.2668 24.156 23.6348 24.156C22.9988 24.156 22.5068 24.108 22.1588 24.012ZM29.2588 18.252V21.36C29.2588 22.2 29.7388 22.764 30.4708 22.764C31.2028 22.764 31.6948 22.2 31.6948 21.36V18.252H33.1708V21.468C33.1708 23.076 32.0908 24.144 30.4708 24.144C28.8508 24.144 27.7948 23.076 27.7948 21.468V18.252H29.2588ZM37.9503 18.096C39.4623 18.096 40.7103 19.332 40.7103 21.132C40.7103 22.86 39.5463 24.156 37.9503 24.156C37.1703 24.156 36.5703 23.808 36.1863 23.232V24H34.7223V15.744H36.1863V19.068C36.5703 18.48 37.1703 18.096 37.9503 18.096ZM37.7223 19.464C36.8343 19.464 36.1863 20.208 36.1863 21.132C36.1863 22.056 36.8343 22.788 37.7223 22.788C38.5983 22.788 39.2463 22.056 39.2463 21.132C39.2463 20.208 38.5983 19.464 37.7223 19.464ZM43.4167 24H41.9527V18.252H43.4167V19.128C43.7167 18.504 44.2807 18.096 45.0367 18.096C45.9127 18.096 46.5847 18.528 46.9207 19.296C47.2207 18.612 47.7727 18.096 48.6847 18.096C50.0167 18.096 50.8927 18.984 50.8927 20.52V24H49.4167V20.736C49.4167 19.956 48.9847 19.464 48.2887 19.464C47.5927 19.464 47.1487 19.956 47.1487 20.736V24H45.6847V20.736C45.6847 19.956 45.2527 19.464 44.5567 19.464C43.8607 19.464 43.4167 19.956 43.4167 20.736V24ZM53.1964 17.484C52.7164 17.484 52.3444 17.1 52.3444 16.62C52.3444 16.152 52.7164 15.768 53.1964 15.768C53.6644 15.768 54.0604 16.152 54.0604 16.62C54.0604 17.1 53.6644 17.484 53.1964 17.484ZM53.9284 24H52.4644V18.252H53.9284V24ZM54.9819 19.548V18.252H55.9899V16.764H57.4659V18.252H59.0139V19.548H57.4779V21.996C57.4779 22.536 57.6939 22.788 58.1259 22.788C58.4019 22.788 58.6659 22.668 58.8099 22.5L59.4579 23.592C59.1459 23.904 58.6059 24.156 57.8979 24.156C56.7339 24.156 55.9899 23.436 55.9899 22.032V19.548H54.9819Z" fill="white"/>
</svg>
