<svg width="180" height="44" viewBox="0 0 180 44" fill="none" xmlns="http://www.w3.org/2000/svg">
<path d="M0 22C0 9.84974 9.84974 0 22 0H158C170.15 0 180 9.84974 180 22V22C180 34.1503 170.15 44 158 44H22C9.84974 44 0 34.1503 0 22V22Z" fill="#1355E9"/>
<path d="M26.2038 17.928L24.8758 19.464C24.2838 18.92 23.4518 18.52 22.4278 18.52C20.6838 18.52 19.2918 20.024 19.2918 21.88C19.2918 23.72 20.6838 25.224 22.5558 25.224C23.4358 25.224 24.3158 24.888 24.8918 24.296L26.2038 25.768C25.3078 26.76 24.0758 27.208 22.4278 27.208C19.4358 27.208 17.1478 24.808 17.1478 21.88C17.1478 18.92 19.5158 16.536 22.4118 16.536C24.1398 16.536 25.3558 17.064 26.2038 17.928ZM30.5714 25.304L30.7794 27.016C30.4914 27.112 30.1234 27.176 29.8354 27.176C28.7314 27.176 27.6114 26.472 27.6114 24.52V15.992H29.5634V24.568C29.5634 25.16 29.8994 25.384 30.2514 25.384C30.3474 25.384 30.4754 25.352 30.5714 25.304ZM33.3843 18.312C32.7443 18.312 32.2483 17.8 32.2483 17.16C32.2483 16.536 32.7443 16.024 33.3843 16.024C34.0083 16.024 34.5363 16.536 34.5363 17.16C34.5363 17.8 34.0083 18.312 33.3843 18.312ZM34.3603 27H32.4083V19.336H34.3603V27ZM41.9569 21.656C41.4609 21.192 40.9009 20.952 40.1329 20.952C38.8529 20.952 38.0049 21.928 38.0049 23.16C38.0049 24.392 38.8689 25.384 40.1329 25.384C40.9009 25.384 41.5249 25.112 42.0209 24.632L43.0129 26.072C42.4049 26.744 41.2849 27.208 40.0849 27.208C37.7969 27.208 36.0529 25.4 36.0529 23.16C36.0529 20.936 37.8129 19.128 40.0529 19.128C41.3489 19.128 42.3889 19.56 43.0769 20.264L41.9569 21.656ZM46.3134 27H44.3614V15.992H46.3134V22.504L49.3534 19.336H51.7694L48.4094 22.824L52.1054 27H49.6094L46.3134 23.208V27ZM56.5489 27V15.992H58.5009V20.424C58.9009 19.608 59.6689 19.128 60.6769 19.128C62.4369 19.128 63.5729 20.36 63.5729 22.36V27H61.6209V22.648C61.6209 21.608 61.0289 20.952 60.0689 20.952C59.1089 20.952 58.5009 21.608 58.5009 22.648V27H56.5489ZM69.3056 27.208C66.9216 27.208 65.1936 25.4 65.1936 23.16C65.1936 20.936 66.8416 19.128 69.0496 19.128C71.2416 19.128 72.9216 20.808 72.9216 23.016C72.9216 23.272 72.9056 23.576 72.8736 23.704H67.1936C67.4016 24.76 68.2016 25.496 69.3696 25.496C70.1536 25.496 70.8096 25.16 71.2576 24.696L72.2656 26.04C71.6736 26.696 70.5856 27.208 69.3056 27.208ZM69.0816 20.776C68.1536 20.776 67.4816 21.416 67.2416 22.344H70.9056C70.6656 21.32 69.9776 20.776 69.0816 20.776ZM74.4864 27V19.336H76.4384V20.472C76.8064 19.656 77.4624 19.128 78.3264 19.128C78.8384 19.128 79.2544 19.256 79.5424 19.496L78.7424 21.336C78.4864 21.144 78.1024 21.016 77.7184 21.016C76.9504 21.016 76.4384 21.672 76.4384 22.712V27H74.4864ZM83.8524 27.208C81.4684 27.208 79.7404 25.4 79.7404 23.16C79.7404 20.936 81.3884 19.128 83.5964 19.128C85.7884 19.128 87.4684 20.808 87.4684 23.016C87.4684 23.272 87.4524 23.576 87.4204 23.704H81.7404C81.9484 24.76 82.7484 25.496 83.9164 25.496C84.7004 25.496 85.3564 25.16 85.8044 24.696L86.8124 26.04C86.2204 26.696 85.1324 27.208 83.8524 27.208ZM83.6284 20.776C82.7004 20.776 82.0284 21.416 81.7884 22.344H85.4524C85.2124 21.32 84.5244 20.776 83.6284 20.776ZM91.6712 21.064V19.336H93.0152V17.352H94.9832V19.336H97.0472V21.064H94.9992V24.328C94.9992 25.048 95.2872 25.384 95.8632 25.384C96.2312 25.384 96.5832 25.224 96.7752 25L97.6392 26.456C97.2232 26.872 96.5032 27.208 95.5592 27.208C94.0072 27.208 93.0152 26.248 93.0152 24.376V21.064H91.6712ZM102.053 27.208C99.8286 27.208 98.0686 25.4 98.0686 23.16C98.0686 20.936 99.8286 19.128 102.053 19.128C104.277 19.128 106.037 20.936 106.037 23.16C106.037 25.4 104.277 27.208 102.053 27.208ZM102.053 25.384C103.237 25.384 104.085 24.392 104.085 23.16C104.085 21.928 103.237 20.952 102.053 20.952C100.869 20.952 100.021 21.928 100.021 23.16C100.021 24.392 100.869 25.384 102.053 25.384ZM110.455 21.064V19.336H111.703V19.192C111.703 17.08 113.095 15.784 115.447 15.784C116.935 15.784 117.943 16.2 118.663 16.808L117.687 18.344C117.191 17.896 116.359 17.608 115.559 17.608C114.375 17.608 113.671 18.136 113.671 19.24V19.336H118.551V27H116.599V21.064H113.671V27H111.703V21.064H110.455ZM120.721 27V19.336H122.673V20.424C123.073 19.608 123.841 19.128 124.849 19.128C126.609 19.128 127.745 20.36 127.745 22.36V27H125.793V22.648C125.793 21.608 125.201 20.952 124.241 20.952C123.281 20.952 122.673 21.608 122.673 22.648V27H120.721ZM133.029 27.208C131.013 27.208 129.365 25.56 129.365 23.16C129.365 20.856 130.917 19.128 133.029 19.128C134.069 19.128 134.869 19.592 135.381 20.344V19.336H137.333V27H135.381V25.912C134.869 26.696 134.069 27.208 133.029 27.208ZM133.349 25.384C134.533 25.384 135.381 24.392 135.381 23.16C135.381 21.928 134.533 20.952 133.349 20.952C132.165 20.952 131.317 21.928 131.317 23.16C131.317 24.392 132.165 25.384 133.349 25.384ZM142.462 25.304L142.67 27.016C142.382 27.112 142.014 27.176 141.726 27.176C140.622 27.176 139.502 26.472 139.502 24.52V15.992H141.454V24.568C141.454 25.16 141.79 25.384 142.142 25.384C142.238 25.384 142.366 25.352 142.462 25.304ZM145.275 18.312C144.635 18.312 144.139 17.8 144.139 17.16C144.139 16.536 144.635 16.024 145.275 16.024C145.899 16.024 146.427 16.536 146.427 17.16C146.427 17.8 145.899 18.312 145.275 18.312ZM146.251 27H144.299V19.336H146.251V27ZM147.96 25.272L151.752 21.064H148.088V19.336H154.28V21.064L150.488 25.272H154.408V27H147.96V25.272ZM159.399 27.208C157.015 27.208 155.287 25.4 155.287 23.16C155.287 20.936 156.935 19.128 159.143 19.128C161.335 19.128 163.015 20.808 163.015 23.016C163.015 23.272 162.999 23.576 162.967 23.704H157.287C157.495 24.76 158.295 25.496 159.463 25.496C160.247 25.496 160.903 25.16 161.351 24.696L162.359 26.04C161.767 26.696 160.679 27.208 159.399 27.208ZM159.175 20.776C158.247 20.776 157.575 21.416 157.335 22.344H160.999C160.759 21.32 160.071 20.776 159.175 20.776Z" fill="white"/>
</svg>
