<svg width="24" height="24" viewBox="0 0 24 24" fill="none" xmlns="http://www.w3.org/2000/svg">
<rect width="24" height="24" rx="12" fill="#F7D055"/>
<path d="M8.55717 17V15.6676L12.092 12.2024C12.43 11.861 12.7118 11.5578 12.9371 11.2926C13.1625 11.0275 13.3316 10.7706 13.4442 10.522C13.5569 10.2734 13.6133 10.0083 13.6133 9.72656C13.6133 9.40507 13.5404 9.12997 13.3945 8.90128C13.2487 8.66927 13.0482 8.49029 12.793 8.36435C12.5378 8.2384 12.2478 8.17543 11.9229 8.17543C11.5882 8.17543 11.2949 8.24503 11.043 8.38423C10.7911 8.52012 10.5955 8.71401 10.4563 8.96591C10.3204 9.2178 10.2525 9.51776 10.2525 9.86577H8.49751C8.49751 9.21946 8.645 8.65767 8.93999 8.1804C9.23497 7.70312 9.64098 7.33357 10.158 7.07173C10.6784 6.8099 11.275 6.67898 11.9478 6.67898C12.6306 6.67898 13.2305 6.80658 13.7475 7.06179C14.2646 7.317 14.6656 7.66667 14.9506 8.1108C15.239 8.55492 15.3832 9.06203 15.3832 9.6321C15.3832 10.0133 15.3103 10.3878 15.1644 10.7557C15.0186 11.1236 14.7617 11.5312 14.3938 11.9787C14.0292 12.4261 13.5172 12.968 12.8576 13.6044L11.1026 15.3892V15.4588H15.5373V17H8.55717Z" fill="black"/>
</svg>
