<svg width="24" height="24" viewBox="0 0 24 24" fill="none" xmlns="http://www.w3.org/2000/svg">
<rect width="24" height="24" rx="12" fill="#F7D055"/>
<path d="M11.9994 17.1392C11.2835 17.1392 10.6471 17.0166 10.0903 16.7713C9.53678 16.526 9.09928 16.1847 8.77779 15.7472C8.45629 15.3097 8.2856 14.8042 8.26571 14.2308H10.135C10.1516 14.5059 10.2427 14.7462 10.4085 14.9517C10.5742 15.1539 10.7946 15.3113 11.0697 15.424C11.3448 15.5367 11.653 15.593 11.9944 15.593C12.359 15.593 12.6821 15.5301 12.9639 15.4041C13.2456 15.2749 13.466 15.0959 13.6251 14.8672C13.7842 14.6385 13.8621 14.375 13.8588 14.0767C13.8621 13.7685 13.7825 13.4967 13.6201 13.2614C13.4577 13.026 13.2224 12.8421 12.9142 12.7095C12.6092 12.5769 12.2413 12.5107 11.8105 12.5107H10.9106V11.0888H11.8105C12.1651 11.0888 12.475 11.0275 12.7401 10.9048C13.0086 10.7822 13.2191 10.6098 13.3715 10.3878C13.524 10.1624 13.5986 9.90223 13.5953 9.60724C13.5986 9.31889 13.5339 9.06866 13.4014 8.85653C13.2721 8.6411 13.0882 8.47372 12.8495 8.3544C12.6142 8.23508 12.3374 8.17543 12.0193 8.17543C11.7077 8.17543 11.4194 8.23177 11.1542 8.34446C10.8891 8.45715 10.6753 8.6179 10.5129 8.8267C10.3505 9.0322 10.2643 9.27746 10.2544 9.5625H8.47949C8.49275 8.99242 8.65681 8.49195 8.97168 8.06108C9.28986 7.62689 9.7141 7.28883 10.2444 7.04688C10.7747 6.80161 11.3696 6.67898 12.0292 6.67898C12.7087 6.67898 13.2986 6.80658 13.7991 7.06179C14.3029 7.31368 14.6923 7.65341 14.9674 8.08097C15.2425 8.50852 15.3801 8.98082 15.3801 9.49787C15.3834 10.0713 15.2143 10.5518 14.873 10.9396C14.5349 11.3274 14.0908 11.581 13.5406 11.7003V11.7798C14.2565 11.8793 14.805 12.1444 15.1862 12.5753C15.5706 13.0028 15.7612 13.5348 15.7579 14.1712C15.7579 14.7412 15.5955 15.2517 15.2707 15.7024C14.9492 16.1499 14.5051 16.5012 13.9383 16.7564C13.3749 17.0116 12.7285 17.1392 11.9994 17.1392Z" fill="black"/>
</svg>
