<svg width="24" height="24" viewBox="0 0 24 24" fill="none" xmlns="http://www.w3.org/2000/svg">
<rect width="24" height="24" rx="12" fill="#F7D055"/>
<path d="M12.0149 17.1392C11.352 17.1392 10.7588 17.0149 10.2351 16.7663C9.71141 16.5144 9.29545 16.1697 8.98722 15.7322C8.68229 15.2947 8.51989 14.7943 8.5 14.2308H10.2898C10.3229 14.6484 10.5036 14.9898 10.8317 15.255C11.1598 15.5168 11.5542 15.6477 12.0149 15.6477C12.3762 15.6477 12.6977 15.5649 12.9794 15.3991C13.2611 15.2334 13.4832 15.0031 13.6456 14.7081C13.808 14.4131 13.8875 14.0767 13.8842 13.6989C13.8875 13.3144 13.8063 12.973 13.6406 12.6747C13.4749 12.3764 13.2479 12.1428 12.9595 11.9737C12.6712 11.8014 12.3397 11.7152 11.9652 11.7152C11.6603 11.7119 11.3603 11.7682 11.0653 11.8842C10.7704 12.0002 10.5367 12.1527 10.3643 12.3416L8.69886 12.0682L9.23082 6.81818H15.1371V8.35938H10.7571L10.4638 11.0589H10.5234C10.7124 10.8369 10.9792 10.6529 11.3239 10.5071C11.6686 10.358 12.0464 10.2834 12.4574 10.2834C13.0739 10.2834 13.6241 10.4292 14.108 10.7209C14.5919 11.0092 14.973 11.407 15.2514 11.9141C15.5298 12.4212 15.669 13.0012 15.669 13.6541C15.669 14.3269 15.5133 14.9268 15.2017 15.4538C14.8935 15.9775 14.4643 16.3902 13.9141 16.6918C13.3672 16.9901 12.7341 17.1392 12.0149 17.1392Z" fill="black"/>
</svg>
