<svg width="24" height="24" viewBox="0 0 24 24" fill="none" xmlns="http://www.w3.org/2000/svg">
<rect width="24" height="24" rx="12" fill="#F7D055"/>
<path d="M12.0945 17.1392C11.6072 17.1359 11.1316 17.0514 10.6676 16.8857C10.2036 16.7166 9.78598 16.4432 9.41477 16.0653C9.04356 15.6842 8.74858 15.1787 8.52983 14.549C8.31108 13.916 8.20336 13.1321 8.20668 12.1974C8.20668 11.3258 8.29948 10.5485 8.48509 9.86577C8.67069 9.183 8.9375 8.6063 9.28551 8.13565C9.63352 7.66169 10.0528 7.30043 10.5433 7.05185C11.0372 6.80327 11.589 6.67898 12.1989 6.67898C12.8385 6.67898 13.4053 6.80492 13.8991 7.05682C14.3963 7.30871 14.7973 7.65341 15.1023 8.09091C15.4072 8.52509 15.5961 9.01562 15.669 9.5625H13.8544C13.7616 9.1714 13.571 8.85985 13.2827 8.62784C12.9976 8.39252 12.6364 8.27486 12.1989 8.27486C11.4929 8.27486 10.9493 8.58144 10.5682 9.1946C10.1903 9.80776 9.99976 10.6496 9.99645 11.7202H10.0661C10.2285 11.4285 10.4389 11.1783 10.6974 10.9695C10.956 10.7607 11.2476 10.5999 11.5724 10.4872C11.9006 10.3712 12.2469 10.3132 12.6115 10.3132C13.2081 10.3132 13.7434 10.4557 14.2173 10.7408C14.6946 11.0258 15.0724 11.4186 15.3509 11.919C15.6293 12.4162 15.7668 12.9863 15.7635 13.6293C15.7668 14.2988 15.6143 14.9003 15.3061 15.4339C14.9979 15.9643 14.5687 16.3819 14.0185 16.6868C13.4683 16.9917 12.8269 17.1425 12.0945 17.1392ZM12.0845 15.6477C12.4458 15.6477 12.7689 15.5599 13.054 15.3842C13.339 15.2086 13.5644 14.9716 13.7301 14.6733C13.8958 14.375 13.977 14.0402 13.9737 13.669C13.977 13.3045 13.8975 12.9747 13.7351 12.6797C13.576 12.3847 13.3556 12.151 13.0739 11.9787C12.7921 11.8063 12.4706 11.7202 12.1094 11.7202C11.8409 11.7202 11.5907 11.7715 11.3587 11.8743C11.1267 11.977 10.9245 12.1196 10.7521 12.3018C10.5798 12.4808 10.4439 12.6896 10.3445 12.9283C10.2483 13.1636 10.1986 13.4155 10.1953 13.6839C10.1986 14.0386 10.2815 14.3651 10.4439 14.6634C10.6063 14.9616 10.83 15.2003 11.1151 15.3793C11.4001 15.5582 11.7232 15.6477 12.0845 15.6477Z" fill="black"/>
</svg>
