<svg width="152" height="44" viewBox="0 0 152 44" fill="none" xmlns="http://www.w3.org/2000/svg">
<path d="M0 22C0 9.84974 9.84974 0 22 0H130C142.15 0 152 9.84974 152 22V22C152 34.1503 142.15 44 130 44H22C9.84973 44 0 34.1503 0 22V22Z" fill="#1355E9"/>
<path d="M47.918 27V16.744H51.582C54.062 16.744 55.694 18.088 55.694 20.136C55.694 22.2 54.046 23.56 51.55 23.56H49.918V27H47.918ZM51.742 18.52H49.918V21.784H51.742C52.846 21.784 53.582 21.128 53.582 20.136C53.582 19.16 52.846 18.52 51.742 18.52ZM57.2599 27V19.336H59.2119V20.472C59.5799 19.656 60.2359 19.128 61.0999 19.128C61.6119 19.128 62.0279 19.256 62.3159 19.496L61.5159 21.336C61.2599 21.144 60.8759 21.016 60.4919 21.016C59.7239 21.016 59.2119 21.672 59.2119 22.712V27H57.2599ZM64.6265 18.312C63.9865 18.312 63.4905 17.8 63.4905 17.16C63.4905 16.536 63.9865 16.024 64.6265 16.024C65.2505 16.024 65.7785 16.536 65.7785 17.16C65.7785 17.8 65.2505 18.312 64.6265 18.312ZM65.6025 27H63.6505V19.336H65.6025V27ZM69.7431 27H67.7911V19.336H69.7431V20.504C70.1431 19.672 70.8951 19.128 71.9031 19.128C73.0711 19.128 73.9671 19.704 74.4151 20.728C74.8151 19.816 75.5511 19.128 76.7671 19.128C78.5431 19.128 79.7111 20.312 79.7111 22.36V27H77.7431V22.648C77.7431 21.608 77.1671 20.952 76.2391 20.952C75.3111 20.952 74.7191 21.608 74.7191 22.648V27H72.7671V22.648C72.7671 21.608 72.1911 20.952 71.2631 20.952C70.3351 20.952 69.7431 21.608 69.7431 22.648V27ZM84.9748 27.208C82.9588 27.208 81.3108 25.56 81.3108 23.16C81.3108 20.856 82.8628 19.128 84.9748 19.128C86.0148 19.128 86.8148 19.592 87.3268 20.344V19.336H89.2788V27H87.3268V25.912C86.8148 26.696 86.0148 27.208 84.9748 27.208ZM85.2948 25.384C86.4788 25.384 87.3268 24.392 87.3268 23.16C87.3268 21.928 86.4788 20.952 85.2948 20.952C84.1108 20.952 83.2628 21.928 83.2628 23.16C83.2628 24.392 84.1108 25.384 85.2948 25.384ZM91.4474 27V19.336H93.3994V20.472C93.7674 19.656 94.4234 19.128 95.2874 19.128C95.7994 19.128 96.2154 19.256 96.5034 19.496L95.7034 21.336C95.4474 21.144 95.0634 21.016 94.6794 21.016C93.9114 21.016 93.3994 21.672 93.3994 22.712V27H91.4474ZM100.286 27.304L100.35 27.112L96.846 19.336H98.99L101.23 24.616L103.07 19.336H105.038L101.902 27.976C101.31 29.656 100.334 30.344 99.054 30.344C98.238 30.344 97.454 30.008 96.958 29.544L97.838 28.008C98.206 28.36 98.622 28.52 99.07 28.52C99.614 28.52 99.966 28.2 100.286 27.304Z" fill="white"/>
</svg>
