<svg width="32" height="32" viewBox="0 0 32 32" fill="none" xmlns="http://www.w3.org/2000/svg">
<path d="M9.41 17.41L8 16L16 8L24 16L22.59 17.41L17 11.83V24H15V11.83L9.41 17.41Z" fill="black"/>
<path fill-rule="evenodd" clip-rule="evenodd" d="M16 0C24.8366 -3.86258e-07 32 7.16344 32 16C32 24.8366 24.8366 32 16 32C7.16344 32 3.86258e-07 24.8366 0 16C-3.86258e-07 7.16344 7.16344 3.86258e-07 16 0ZM16 2C23.732 2 30 8.26801 30 16C30 23.732 23.732 30 16 30C8.26801 30 2 23.732 2 16C2 8.26801 8.26801 2 16 2Z" fill="black"/>
</svg>
