<svg width="233" height="96" viewBox="0 0 233 96" fill="none" xmlns="http://www.w3.org/2000/svg">
<g clip-path="url(#clip0_6343_38943)">
<path d="M16 1H8C4.13401 1 1 4.13401 1 8V16C1 19.866 4.13401 23 8 23H16C19.866 23 23 19.866 23 16V8C23 4.13401 19.866 1 16 1Z" fill="#BAC2D4"/>
<path d="M16 1H8C4.13401 1 1 4.13401 1 8V16C1 19.866 4.13401 23 8 23H16C19.866 23 23 19.866 23 16V8C23 4.13401 19.866 1 16 1Z" stroke="#1A3673" stroke-width="2"/>
<path d="M37.1914 16V7.03995H39.9354C42.9174 7.03995 44.9894 8.87395 44.9894 11.52C44.9894 14.166 42.9734 16 40.0614 16H37.1914ZM39.9634 8.22995H38.4794V14.81H39.9634C42.1894 14.81 43.6454 13.508 43.6454 11.52C43.6454 9.53195 42.1894 8.22995 39.9634 8.22995ZM49.8251 16.168C47.7811 16.168 46.3111 14.586 46.3111 12.64C46.3111 10.694 47.7251 9.12595 49.6291 9.12595C51.5051 9.12595 52.9331 10.624 52.9331 12.514C52.9331 12.682 52.9191 12.934 52.8911 13.032H47.5851C47.7391 14.194 48.6211 15.062 49.8671 15.062C50.6231 15.062 51.2951 14.768 51.7431 14.32L52.4011 15.174C51.8551 15.762 50.9031 16.168 49.8251 16.168ZM49.6431 10.19C48.5931 10.19 47.8371 10.946 47.6131 12.01H51.6311C51.4071 10.848 50.6511 10.19 49.6431 10.19ZM53.8394 10.4V9.29395H54.8894V8.52395C54.8894 7.03995 55.7434 6.19995 57.0314 6.19995C57.8154 6.19995 58.3474 6.43795 58.7254 6.84395L58.0814 7.75395C57.8714 7.52995 57.5074 7.36195 57.1294 7.36195C56.4994 7.36195 56.1354 7.78195 56.1354 8.53795V9.29395H57.9134V10.4H56.1354V16H54.8894V10.4H53.8394ZM61.6587 16.168C59.8387 16.168 58.4107 14.67 58.4107 12.64C58.4107 10.652 59.7827 9.12595 61.6587 9.12595C62.7087 9.12595 63.5067 9.62995 64.0107 10.456V9.29395H65.2567V16H64.0107V14.796C63.5067 15.622 62.7087 16.168 61.6587 16.168ZM61.8407 15.006C63.1007 15.006 64.0107 13.942 64.0107 12.64C64.0107 11.324 63.1007 10.288 61.8407 10.288C60.5667 10.288 59.6567 11.324 59.6567 12.64C59.6567 13.942 60.5667 15.006 61.8407 15.006ZM68.6206 9.29395V13.004C68.6206 14.18 69.3066 14.964 70.3426 14.964C71.3926 14.964 72.0926 14.18 72.0926 13.004V9.29395H73.3386V13.102C73.3386 14.922 72.1486 16.126 70.3426 16.126C68.5506 16.126 67.3746 14.922 67.3746 13.102V9.29395H68.6206ZM77.655 14.922L77.795 16.014C77.585 16.084 77.319 16.14 77.109 16.14C76.269 16.14 75.471 15.58 75.471 14.18V6.36795H76.703V14.194C76.703 14.782 77.025 14.992 77.347 14.992C77.445 14.992 77.557 14.964 77.655 14.922ZM78.6935 10.4V9.29395H79.7995V7.62795H81.0455V9.29395H82.9495V10.4H81.0595V13.942C81.0595 14.656 81.3815 15.006 81.9835 15.006C82.3195 15.006 82.6555 14.88 82.8515 14.656L83.4255 15.594C83.1035 15.902 82.5575 16.168 81.8155 16.168C80.5555 16.168 79.7995 15.426 79.7995 13.984V10.4H78.6935ZM87.9261 16V6.36795H89.1581V10.316C89.5361 9.57395 90.2501 9.12595 91.1881 9.12595C92.7561 9.12595 93.7781 10.204 93.7781 11.898V16H92.5461V12.094C92.5461 10.988 91.9021 10.288 90.8521 10.288C89.8021 10.288 89.1581 10.988 89.1581 12.094V16H87.9261ZM98.8365 16.168C96.9185 16.168 95.4205 14.586 95.4205 12.64C95.4205 10.694 96.9185 9.12595 98.8365 9.12595C100.768 9.12595 102.266 10.694 102.266 12.64C102.266 14.586 100.768 16.168 98.8365 16.168ZM98.8505 15.006C100.11 15.006 101.02 13.942 101.02 12.64C101.02 11.324 100.11 10.288 98.8505 10.288C97.5765 10.288 96.6665 11.324 96.6665 12.64C96.6665 13.942 97.5765 15.006 98.8505 15.006ZM106.992 16H105.382L102.848 9.29395H104.22L106.222 14.88L108.252 9.29395H109.526L106.992 16ZM113.618 16.168C111.574 16.168 110.104 14.586 110.104 12.64C110.104 10.694 111.518 9.12595 113.422 9.12595C115.298 9.12595 116.726 10.624 116.726 12.514C116.726 12.682 116.712 12.934 116.684 13.032H111.378C111.532 14.194 112.414 15.062 113.66 15.062C114.416 15.062 115.088 14.768 115.536 14.32L116.194 15.174C115.648 15.762 114.696 16.168 113.618 16.168ZM113.436 10.19C112.386 10.19 111.63 10.946 111.406 12.01H115.424C115.2 10.848 114.444 10.19 113.436 10.19ZM118.332 16V9.29395H119.564V10.246C119.9 9.54595 120.474 9.12595 121.258 9.12595C121.678 9.12595 122.042 9.22395 122.28 9.41995L121.762 10.582C121.538 10.428 121.216 10.316 120.894 10.316C120.082 10.316 119.564 11.016 119.564 12.136V16H118.332Z" fill="black"/>
<path d="M16 36H8C3.58172 36 0 39.5817 0 44V52C0 56.4183 3.58172 60 8 60H16C20.4183 60 24 56.4183 24 52V44C24 39.5817 20.4183 36 16 36Z" fill="#2861BB"/>
<path d="M10.5133 53L19 44.4911L17.5133 43L10.5133 50.0178L7.48673 46.9822L6 48.4734L10.5133 53Z" fill="white"/>
<path d="M44.4715 43.9779L43.6315 44.9579C43.0295 44.4539 42.2735 44.1039 41.2655 44.1039C39.4735 44.1039 38.0315 45.6299 38.0315 47.5199C38.0315 49.3959 39.4735 50.9219 41.3775 50.9219C42.2455 50.9219 43.0715 50.6279 43.6455 50.0959L44.4715 51.0199C43.6455 51.8319 42.6235 52.1679 41.2935 52.1679C38.6895 52.1679 36.6875 50.0819 36.6875 47.5199C36.6875 44.9439 38.7315 42.8579 41.2515 42.8579C42.6795 42.8579 43.6875 43.2639 44.4715 43.9779ZM45.9125 51.9999V42.3679H47.1445V46.3159C47.5225 45.5739 48.2365 45.1259 49.1745 45.1259C50.7425 45.1259 51.7645 46.2039 51.7645 47.8979V51.9999H50.5325V48.0939C50.5325 46.9879 49.8885 46.2879 48.8385 46.2879C47.7885 46.2879 47.1445 46.9879 47.1445 48.0939V51.9999H45.9125ZM56.9209 52.1679C54.8769 52.1679 53.4069 50.5859 53.4069 48.6399C53.4069 46.6939 54.8209 45.1259 56.7249 45.1259C58.6009 45.1259 60.0289 46.6239 60.0289 48.5139C60.0289 48.6819 60.0149 48.9339 59.9869 49.0319H54.6809C54.8349 50.1939 55.7169 51.0619 56.9629 51.0619C57.7189 51.0619 58.3909 50.7679 58.8389 50.3199L59.4969 51.1739C58.9509 51.7619 57.9989 52.1679 56.9209 52.1679ZM56.7389 46.1899C55.6889 46.1899 54.9329 46.9459 54.7089 48.0099H58.7269C58.5029 46.8479 57.7469 46.1899 56.7389 46.1899ZM66.4092 46.9459C65.9472 46.5259 65.3732 46.2879 64.6312 46.2879C63.3012 46.2879 62.3912 47.3239 62.3912 48.6399C62.3912 49.9419 63.3152 51.0059 64.6172 51.0059C65.3592 51.0059 65.9892 50.7679 66.4372 50.3199L67.0812 51.2299C66.5492 51.8039 65.6112 52.1679 64.5892 52.1679C62.6292 52.1679 61.1452 50.5859 61.1452 48.6399C61.1452 46.6939 62.6432 45.1259 64.6032 45.1259C65.6672 45.1259 66.5632 45.4899 67.1232 46.0639L66.4092 46.9459ZM69.6894 51.9999H68.4574V42.3679H69.6894V48.2199L72.8394 45.2939H74.4074L71.0334 48.4299L74.6454 51.9999H73.0214L69.6894 48.6819V51.9999ZM78.1807 52.1679C76.1367 52.1679 74.6667 50.5859 74.6667 48.6399C74.6667 46.6939 76.0807 45.1259 77.9847 45.1259C79.8607 45.1259 81.2887 46.6239 81.2887 48.5139C81.2887 48.6819 81.2747 48.9339 81.2467 49.0319H75.9407C76.0947 50.1939 76.9767 51.0619 78.2227 51.0619C78.9787 51.0619 79.6507 50.7679 80.0987 50.3199L80.7567 51.1739C80.2107 51.7619 79.2587 52.1679 78.1807 52.1679ZM77.9987 46.1899C76.9487 46.1899 76.1927 46.9459 75.9687 48.0099H79.9867C79.7627 46.8479 79.0067 46.1899 77.9987 46.1899ZM85.6529 52.1679C83.8329 52.1679 82.4049 50.6699 82.4049 48.6399C82.4049 46.6519 83.7769 45.1259 85.6529 45.1259C86.7029 45.1259 87.5009 45.6299 88.0049 46.4559V42.3679H89.2509V51.9999H88.0049V50.7959C87.5009 51.6219 86.7029 52.1679 85.6529 52.1679ZM85.8349 51.0059C87.0949 51.0059 88.0049 49.9419 88.0049 48.6399C88.0049 47.3239 87.0949 46.2879 85.8349 46.2879C84.5609 46.2879 83.6509 47.3239 83.6509 48.6399C83.6509 49.9419 84.5609 51.0059 85.8349 51.0059ZM96.5428 52.1679C95.5488 52.1679 94.6528 51.9019 93.9668 51.4959L94.4428 50.4739C95.1988 50.8659 95.8568 51.0899 96.6268 51.0899C97.5648 51.0899 98.0128 50.7259 98.0128 50.1939C98.0128 48.6679 94.2048 49.5919 94.2048 47.0019C94.2048 46.0079 95.1008 45.1259 96.7248 45.1259C97.6348 45.1259 98.3488 45.3499 99.0768 45.6999L98.5868 46.7219C98.1108 46.4559 97.4248 46.2179 96.7808 46.2179C95.9548 46.2179 95.4648 46.4979 95.4648 46.9879C95.4648 48.5279 99.2448 47.6179 99.2448 50.1659C99.2448 51.3139 98.2508 52.1679 96.5428 52.1679ZM100.131 46.3999V45.2939H101.238V43.6279H102.484V45.2939H104.387V46.3999H102.497V49.9419C102.497 50.6559 102.819 51.0059 103.421 51.0059C103.757 51.0059 104.094 50.8799 104.29 50.6559L104.863 51.5939C104.541 51.9019 103.995 52.1679 103.253 52.1679C101.993 52.1679 101.238 51.4259 101.238 49.9839V46.3999H100.131ZM108.581 52.1679C106.761 52.1679 105.333 50.6699 105.333 48.6399C105.333 46.6519 106.705 45.1259 108.581 45.1259C109.631 45.1259 110.428 45.6299 110.932 46.4559V45.2939H112.178V51.9999H110.932V50.7959C110.428 51.6219 109.631 52.1679 108.581 52.1679ZM108.762 51.0059C110.022 51.0059 110.932 49.9419 110.932 48.6399C110.932 47.3239 110.022 46.2879 108.762 46.2879C107.488 46.2879 106.579 47.3239 106.579 48.6399C106.579 49.9419 107.488 51.0059 108.762 51.0059ZM113.652 46.3999V45.2939H114.758V43.6279H116.005V45.2939H117.908V46.3999H116.018V49.9419C116.018 50.6559 116.341 51.0059 116.943 51.0059C117.279 51.0059 117.615 50.8799 117.811 50.6559L118.385 51.5939C118.063 51.9019 117.517 52.1679 116.775 52.1679C115.515 52.1679 114.758 51.4259 114.758 49.9839V46.3999H113.652ZM122.368 52.1679C120.324 52.1679 118.854 50.5859 118.854 48.6399C118.854 46.6939 120.269 45.1259 122.173 45.1259C124.049 45.1259 125.477 46.6239 125.477 48.5139C125.477 48.6819 125.462 48.9339 125.434 49.0319H120.128C120.282 50.1939 121.164 51.0619 122.41 51.0619C123.166 51.0619 123.838 50.7679 124.286 50.3199L124.945 51.1739C124.399 51.7619 123.446 52.1679 122.368 52.1679ZM122.186 46.1899C121.136 46.1899 120.38 46.9459 120.156 48.0099H124.174C123.95 46.8479 123.194 46.1899 122.186 46.1899ZM133.026 51.9999H131.612L129.456 45.2939H130.786L132.34 50.6139L134.02 45.2939H135.378L137.072 50.6279L138.641 45.2939H139.97L137.814 51.9999H136.274L134.636 46.8759L133.026 51.9999ZM142.012 44.1319C141.578 44.1319 141.242 43.7819 141.242 43.3619C141.242 42.9419 141.578 42.5919 142.012 42.5919C142.432 42.5919 142.783 42.9419 142.783 43.3619C142.783 43.7819 142.432 44.1319 142.012 44.1319ZM142.628 51.9999H141.396V45.2939H142.628V51.9999ZM144.113 46.3999V45.2939H145.219V43.6279H146.465V45.2939H148.369V46.3999H146.479V49.9419C146.479 50.6559 146.801 51.0059 147.403 51.0059C147.739 51.0059 148.075 50.8799 148.271 50.6559L148.845 51.5939C148.523 51.9019 147.977 52.1679 147.235 52.1679C145.975 52.1679 145.219 51.4259 145.219 49.9839V46.3999H144.113ZM150.174 51.9999V42.3679H151.406V46.3159C151.784 45.5739 152.498 45.1259 153.436 45.1259C155.004 45.1259 156.026 46.2039 156.026 47.8979V51.9999H154.794V48.0939C154.794 46.9879 154.15 46.2879 153.1 46.2879C152.05 46.2879 151.406 46.9879 151.406 48.0939V51.9999H150.174ZM161.33 51.9999V42.3679H162.562V46.3159C162.94 45.5739 163.654 45.1259 164.592 45.1259C166.16 45.1259 167.182 46.2039 167.182 47.8979V51.9999H165.951V48.0939C165.951 46.9879 165.307 46.2879 164.257 46.2879C163.207 46.2879 162.562 46.9879 162.562 48.0939V51.9999H161.33ZM172.24 52.1679C170.322 52.1679 168.824 50.5859 168.824 48.6399C168.824 46.6939 170.322 45.1259 172.24 45.1259C174.172 45.1259 175.671 46.6939 175.671 48.6399C175.671 50.5859 174.172 52.1679 172.24 52.1679ZM172.255 51.0059C173.515 51.0059 174.424 49.9419 174.424 48.6399C174.424 47.3239 173.515 46.2879 172.255 46.2879C170.981 46.2879 170.07 47.3239 170.07 48.6399C170.07 49.9419 170.981 51.0059 172.255 51.0059ZM180.396 51.9999H178.786L176.253 45.2939H177.624L179.626 50.8799L181.656 45.2939H182.93L180.396 51.9999ZM187.022 52.1679C184.978 52.1679 183.508 50.5859 183.508 48.6399C183.508 46.6939 184.922 45.1259 186.826 45.1259C188.702 45.1259 190.13 46.6239 190.13 48.5139C190.13 48.6819 190.117 48.9339 190.089 49.0319H184.783C184.937 50.1939 185.818 51.0619 187.064 51.0619C187.82 51.0619 188.492 50.7679 188.94 50.3199L189.598 51.1739C189.052 51.7619 188.1 52.1679 187.022 52.1679ZM186.84 46.1899C185.79 46.1899 185.035 46.9459 184.811 48.0099H188.828C188.604 46.8479 187.848 46.1899 186.84 46.1899ZM191.736 51.9999V45.2939H192.968V46.2459C193.304 45.5459 193.878 45.1259 194.662 45.1259C195.082 45.1259 195.446 45.2239 195.684 45.4199L195.166 46.5819C194.942 46.4279 194.62 46.3159 194.298 46.3159C193.486 46.3159 192.968 47.0159 192.968 48.1359V51.9999H191.736Z" fill="black"/>
<path d="M16 72H8C3.58172 72 0 75.5817 0 80V88C0 92.4183 3.58172 96 8 96H16C20.4183 96 24 92.4183 24 88V80C24 75.5817 20.4183 72 16 72Z" fill="#2861BB"/>
<path d="M18 83H6V85H18V83Z" fill="white"/>
<path d="M37.1914 87.9999V79.0259H38.4514V87.9999H37.1914ZM40.7581 87.9999V81.2939H41.9901V82.3159C42.3681 81.5739 43.0821 81.1259 44.0201 81.1259C45.5881 81.1259 46.6101 82.2039 46.6101 83.8979V87.9999H45.3781V84.0939C45.3781 82.9879 44.7341 82.2879 43.6841 82.2879C42.6341 82.2879 41.9901 82.9879 41.9901 84.0939V87.9999H40.7581ZM51.5005 88.1679C49.6805 88.1679 48.2525 86.6699 48.2525 84.6399C48.2525 82.6519 49.6245 81.1259 51.5005 81.1259C52.5505 81.1259 53.3485 81.6299 53.8525 82.4559V78.3679H55.0985V87.9999H53.8525V86.7959C53.3485 87.6219 52.5505 88.1679 51.5005 88.1679ZM51.6825 87.0059C52.9425 87.0059 53.8525 85.9419 53.8525 84.6399C53.8525 83.3239 52.9425 82.2879 51.6825 82.2879C50.4085 82.2879 49.4985 83.3239 49.4985 84.6399C49.4985 85.9419 50.4085 87.0059 51.6825 87.0059ZM60.3524 88.1679C58.3084 88.1679 56.8384 86.5859 56.8384 84.6399C56.8384 82.6939 58.2524 81.1259 60.1564 81.1259C62.0324 81.1259 63.4604 82.6239 63.4604 84.5139C63.4604 84.6819 63.4464 84.9339 63.4184 85.0319H58.1124C58.2664 86.1939 59.1484 87.0619 60.3944 87.0619C61.1504 87.0619 61.8224 86.7679 62.2704 86.3199L62.9284 87.1739C62.3824 87.7619 61.4304 88.1679 60.3524 88.1679ZM60.1704 82.1899C59.1204 82.1899 58.3644 82.9459 58.1404 84.0099H62.1584C61.9344 82.8479 61.1784 82.1899 60.1704 82.1899ZM64.3107 82.3999V81.2939H65.4167V79.6279H66.6627V81.2939H68.5667V82.3999H66.6767V85.9419C66.6767 86.6559 66.9987 87.0059 67.6007 87.0059C67.9367 87.0059 68.2727 86.8799 68.4687 86.6559L69.0427 87.5939C68.7207 87.9019 68.1747 88.1679 67.4327 88.1679C66.1727 88.1679 65.4167 87.4259 65.4167 85.9839V82.3999H64.3107ZM73.0263 88.1679C70.9823 88.1679 69.5123 86.5859 69.5123 84.6399C69.5123 82.6939 70.9263 81.1259 72.8303 81.1259C74.7063 81.1259 76.1343 82.6239 76.1343 84.5139C76.1343 84.6819 76.1203 84.9339 76.0923 85.0319H70.7863C70.9403 86.1939 71.8223 87.0619 73.0683 87.0619C73.8243 87.0619 74.4963 86.7679 74.9443 86.3199L75.6023 87.1739C75.0563 87.7619 74.1043 88.1679 73.0263 88.1679ZM72.8443 82.1899C71.7943 82.1899 71.0383 82.9459 70.8143 84.0099H74.8323C74.6083 82.8479 73.8523 82.1899 72.8443 82.1899ZM77.7405 87.9999V81.2939H78.9725V82.2459C79.3085 81.5459 79.8825 81.1259 80.6665 81.1259C81.0865 81.1259 81.4505 81.2239 81.6885 81.4199L81.1705 82.5819C80.9465 82.4279 80.6245 82.3159 80.3025 82.3159C79.4905 82.3159 78.9725 83.0159 78.9725 84.1359V87.9999H77.7405ZM84.2362 87.9999H83.0042V81.2939H84.2362V82.3579C84.6002 81.6019 85.3002 81.1259 86.2102 81.1259C87.2882 81.1259 88.1002 81.6719 88.4782 82.6099C88.8002 81.7419 89.5282 81.1259 90.6062 81.1259C92.1602 81.1259 93.1682 82.1759 93.1682 83.8979V87.9999H91.9222V84.0939C91.9222 82.9879 91.3202 82.2879 90.3122 82.2879C89.3182 82.2879 88.7022 82.9879 88.7022 84.0939V87.9999H87.4562V84.0939C87.4562 82.9879 86.8542 82.2879 85.8602 82.2879C84.8522 82.2879 84.2362 82.9879 84.2362 84.0939V87.9999ZM95.8976 80.1319C95.4636 80.1319 95.1276 79.7819 95.1276 79.3619C95.1276 78.9419 95.4636 78.5919 95.8976 78.5919C96.3176 78.5919 96.6676 78.9419 96.6676 79.3619C96.6676 79.7819 96.3176 80.1319 95.8976 80.1319ZM96.5136 87.9999H95.2816V81.2939H96.5136V87.9999ZM98.7542 87.9999V81.2939H99.9862V82.3159C100.364 81.5739 101.078 81.1259 102.016 81.1259C103.584 81.1259 104.606 82.2039 104.606 83.8979V87.9999H103.374V84.0939C103.374 82.9879 102.73 82.2879 101.68 82.2879C100.63 82.2879 99.9862 82.9879 99.9862 84.0939V87.9999H98.7542ZM109.496 88.1679C107.676 88.1679 106.248 86.6699 106.248 84.6399C106.248 82.6519 107.62 81.1259 109.496 81.1259C110.546 81.1259 111.344 81.6299 111.848 82.4559V81.2939H113.094V87.9999H111.848V86.7959C111.344 87.6219 110.546 88.1679 109.496 88.1679ZM109.678 87.0059C110.938 87.0059 111.848 85.9419 111.848 84.6399C111.848 83.3239 110.938 82.2879 109.678 82.2879C108.404 82.2879 107.494 83.3239 107.494 84.6399C107.494 85.9419 108.404 87.0059 109.678 87.0059ZM114.568 82.3999V81.2939H115.674V79.6279H116.92V81.2939H118.824V82.3999H116.934V85.9419C116.934 86.6559 117.256 87.0059 117.858 87.0059C118.194 87.0059 118.53 86.8799 118.726 86.6559L119.3 87.5939C118.978 87.9019 118.432 88.1679 117.69 88.1679C116.43 88.1679 115.674 87.4259 115.674 85.9839V82.3999H114.568ZM123.284 88.1679C121.24 88.1679 119.77 86.5859 119.77 84.6399C119.77 82.6939 121.184 81.1259 123.088 81.1259C124.964 81.1259 126.392 82.6239 126.392 84.5139C126.392 84.6819 126.378 84.9339 126.35 85.0319H121.044C121.198 86.1939 122.08 87.0619 123.326 87.0619C124.082 87.0619 124.754 86.7679 125.202 86.3199L125.86 87.1739C125.314 87.7619 124.362 88.1679 123.284 88.1679ZM123.102 82.1899C122.052 82.1899 121.296 82.9459 121.072 84.0099H125.09C124.866 82.8479 124.11 82.1899 123.102 82.1899ZM133.06 88.1679C132.066 88.1679 131.17 87.9019 130.484 87.4959L130.96 86.4739C131.716 86.8659 132.374 87.0899 133.144 87.0899C134.082 87.0899 134.53 86.7259 134.53 86.1939C134.53 84.6679 130.722 85.5919 130.722 83.0019C130.722 82.0079 131.618 81.1259 133.242 81.1259C134.152 81.1259 134.866 81.3499 135.594 81.6999L135.104 82.7219C134.628 82.4559 133.942 82.2179 133.298 82.2179C132.472 82.2179 131.982 82.4979 131.982 82.9879C131.982 84.5279 135.762 83.6179 135.762 86.1659C135.762 87.3139 134.768 88.1679 133.06 88.1679ZM136.648 82.3999V81.2939H137.754V79.6279H139V81.2939H140.904V82.3999H139.014V85.9419C139.014 86.6559 139.336 87.0059 139.938 87.0059C140.274 87.0059 140.61 86.8799 140.806 86.6559L141.38 87.5939C141.058 87.9019 140.512 88.1679 139.77 88.1679C138.51 88.1679 137.754 87.4259 137.754 85.9839V82.3999H136.648ZM145.098 88.1679C143.278 88.1679 141.85 86.6699 141.85 84.6399C141.85 82.6519 143.222 81.1259 145.098 81.1259C146.148 81.1259 146.946 81.6299 147.45 82.4559V81.2939H148.696V87.9999H147.45V86.7959C146.946 87.6219 146.148 88.1679 145.098 88.1679ZM145.28 87.0059C146.54 87.0059 147.45 85.9419 147.45 84.6399C147.45 83.3239 146.54 82.2879 145.28 82.2879C144.006 82.2879 143.096 83.3239 143.096 84.6399C143.096 85.9419 144.006 87.0059 145.28 87.0059ZM150.17 82.3999V81.2939H151.276V79.6279H152.522V81.2939H154.426V82.3999H152.536V85.9419C152.536 86.6559 152.858 87.0059 153.46 87.0059C153.796 87.0059 154.132 86.8799 154.328 86.6559L154.902 87.5939C154.58 87.9019 154.034 88.1679 153.292 88.1679C152.032 88.1679 151.276 87.4259 151.276 85.9839V82.3999H150.17ZM158.885 88.1679C156.841 88.1679 155.371 86.5859 155.371 84.6399C155.371 82.6939 156.785 81.1259 158.689 81.1259C160.565 81.1259 161.993 82.6239 161.993 84.5139C161.993 84.6819 161.979 84.9339 161.951 85.0319H156.645C156.799 86.1939 157.681 87.0619 158.927 87.0619C159.683 87.0619 160.355 86.7679 160.803 86.3199L161.461 87.1739C160.915 87.7619 159.963 88.1679 158.885 88.1679ZM158.703 82.1899C157.653 82.1899 156.897 82.9459 156.673 84.0099H160.691C160.467 82.8479 159.711 82.1899 158.703 82.1899ZM169.543 87.9999H168.129L165.973 81.2939H167.303L168.857 86.6139L170.537 81.2939H171.895L173.589 86.6279L175.157 81.2939H176.487L174.331 87.9999H172.791L171.153 82.8759L169.543 87.9999ZM178.53 80.1319C178.096 80.1319 177.76 79.7819 177.76 79.3619C177.76 78.9419 178.096 78.5919 178.53 78.5919C178.95 78.5919 179.3 78.9419 179.3 79.3619C179.3 79.7819 178.95 80.1319 178.53 80.1319ZM179.146 87.9999H177.914V81.2939H179.146V87.9999ZM180.631 82.3999V81.2939H181.737V79.6279H182.983V81.2939H184.887V82.3999H182.997V85.9419C182.997 86.6559 183.319 87.0059 183.921 87.0059C184.257 87.0059 184.593 86.8799 184.789 86.6559L185.363 87.5939C185.041 87.9019 184.495 88.1679 183.753 88.1679C182.493 88.1679 181.737 87.4259 181.737 85.9839V82.3999H180.631ZM186.691 87.9999V78.3679H187.923V82.3159C188.301 81.5739 189.015 81.1259 189.953 81.1259C191.521 81.1259 192.543 82.2039 192.543 83.8979V87.9999H191.311V84.0939C191.311 82.9879 190.667 82.2879 189.617 82.2879C188.567 82.2879 187.923 82.9879 187.923 84.0939V87.9999H186.691ZM197.848 87.9999V78.3679H199.08V82.3159C199.458 81.5739 200.172 81.1259 201.11 81.1259C202.678 81.1259 203.7 82.2039 203.7 83.8979V87.9999H202.468V84.0939C202.468 82.9879 201.824 82.2879 200.774 82.2879C199.724 82.2879 199.08 82.9879 199.08 84.0939V87.9999H197.848ZM208.758 88.1679C206.84 88.1679 205.342 86.5859 205.342 84.6399C205.342 82.6939 206.84 81.1259 208.758 81.1259C210.69 81.1259 212.188 82.6939 212.188 84.6399C212.188 86.5859 210.69 88.1679 208.758 88.1679ZM208.772 87.0059C210.032 87.0059 210.942 85.9419 210.942 84.6399C210.942 83.3239 210.032 82.2879 208.772 82.2879C207.498 82.2879 206.588 83.3239 206.588 84.6399C206.588 85.9419 207.498 87.0059 208.772 87.0059ZM216.914 87.9999H215.304L212.77 81.2939H214.142L216.144 86.8799L218.174 81.2939H219.448L216.914 87.9999ZM223.54 88.1679C221.496 88.1679 220.026 86.5859 220.026 84.6399C220.026 82.6939 221.44 81.1259 223.344 81.1259C225.22 81.1259 226.648 82.6239 226.648 84.5139C226.648 84.6819 226.634 84.9339 226.606 85.0319H221.3C221.454 86.1939 222.336 87.0619 223.582 87.0619C224.338 87.0619 225.01 86.7679 225.458 86.3199L226.116 87.1739C225.57 87.7619 224.618 88.1679 223.54 88.1679ZM223.358 82.1899C222.308 82.1899 221.552 82.9459 221.328 84.0099H225.346C225.122 82.8479 224.366 82.1899 223.358 82.1899ZM228.254 87.9999V81.2939H229.486V82.2459C229.822 81.5459 230.396 81.1259 231.18 81.1259C231.6 81.1259 231.964 81.2239 232.202 81.4199L231.684 82.5819C231.46 82.4279 231.138 82.3159 230.816 82.3159C230.004 82.3159 229.486 83.0159 229.486 84.1359V87.9999H228.254Z" fill="black"/>
</g>
<defs>
<clipPath id="clip0_6343_38943">
<rect width="233" height="96" fill="white"/>
</clipPath>
</defs>
</svg>
