<svg width="198" height="44" viewBox="0 0 198 44" fill="none" xmlns="http://www.w3.org/2000/svg">
<path d="M16.5 11H8.5C4.63401 11 1.5 14.134 1.5 18V26C1.5 29.866 4.63401 33 8.5 33H16.5C20.366 33 23.5 29.866 23.5 26V18C23.5 14.134 20.366 11 16.5 11Z" fill="white"/>
<path d="M16.5 11H8.5C4.63401 11 1.5 14.134 1.5 18V26C1.5 29.866 4.63401 33 8.5 33H16.5C20.366 33 23.5 29.866 23.5 26V18C23.5 14.134 20.366 11 16.5 11Z" stroke="#BF1722" stroke-width="2"/>
<path d="M43.8784 25.9999L38.9084 19.0839V25.9999H37.6484V17.0259H39.0204L43.9904 23.9839V17.0259H45.2504V25.9999H43.8784ZM50.5428 26.1679C48.4988 26.1679 47.0288 24.5859 47.0288 22.6399C47.0288 20.6939 48.4428 19.1259 50.3468 19.1259C52.2228 19.1259 53.6508 20.6239 53.6508 22.5139C53.6508 22.6819 53.6368 22.9339 53.6088 23.0319H48.3028C48.4568 24.1939 49.3388 25.0619 50.5848 25.0619C51.3408 25.0619 52.0128 24.7679 52.4608 24.3199L53.1188 25.1739C52.5728 25.7619 51.6208 26.1679 50.5428 26.1679ZM50.3608 20.1899C49.3108 20.1899 48.5548 20.9459 48.3308 22.0099H52.3488C52.1248 20.8479 51.3688 20.1899 50.3608 20.1899ZM55.9291 27.0779C56.3771 27.4139 57.1191 27.7779 58.0851 27.7779C59.4851 27.7779 60.2971 27.0219 60.2971 25.5939V24.6559C59.8071 25.4539 58.9951 25.9859 57.9591 25.9859C56.1671 25.9859 54.7671 24.5299 54.7671 22.5559C54.7671 20.6099 56.1671 19.1539 57.9591 19.1539C58.9951 19.1539 59.8071 19.6439 60.2971 20.4139V19.2939H61.5431V25.5239C61.5431 28.0019 59.9751 28.9119 58.1411 28.9119C56.9231 28.9119 55.9431 28.6039 55.2851 28.0579L55.9291 27.0779ZM58.1691 24.8239C59.4151 24.8239 60.2971 23.8019 60.2971 22.5419C60.2971 21.2959 59.4151 20.2879 58.1691 20.2879C56.9231 20.2879 56.0131 21.2959 56.0131 22.5419C56.0131 23.8019 56.9231 24.8239 58.1691 24.8239ZM66.5464 26.1679C64.7264 26.1679 63.2984 24.6699 63.2984 22.6399C63.2984 20.6519 64.6704 19.1259 66.5464 19.1259C67.5964 19.1259 68.3944 19.6299 68.8984 20.4559V19.2939H70.1444V25.9999H68.8984V24.7959C68.3944 25.6219 67.5964 26.1679 66.5464 26.1679ZM66.7284 25.0059C67.9884 25.0059 68.8984 23.9419 68.8984 22.6399C68.8984 21.3239 67.9884 20.2879 66.7284 20.2879C65.4544 20.2879 64.5444 21.3239 64.5444 22.6399C64.5444 23.9419 65.4544 25.0059 66.7284 25.0059ZM71.6183 20.3999V19.2939H72.7243V17.6279H73.9703V19.2939H75.8743V20.3999H73.9843V23.9419C73.9843 24.6559 74.3063 25.0059 74.9083 25.0059C75.2443 25.0059 75.5803 24.8799 75.7763 24.6559L76.3503 25.5939C76.0283 25.9019 75.4823 26.1679 74.7403 26.1679C73.4803 26.1679 72.7243 25.4259 72.7243 23.9839V20.3999H71.6183ZM78.295 18.1319C77.861 18.1319 77.525 17.7819 77.525 17.3619C77.525 16.9419 77.861 16.5919 78.295 16.5919C78.715 16.5919 79.065 16.9419 79.065 17.3619C79.065 17.7819 78.715 18.1319 78.295 18.1319ZM78.911 25.9999H77.679V19.2939H78.911V25.9999ZM84.3857 25.9999H82.7757L80.2417 19.2939H81.6137L83.6157 24.8799L85.6457 19.2939H86.9197L84.3857 25.9999ZM91.0116 26.1679C88.9676 26.1679 87.4976 24.5859 87.4976 22.6399C87.4976 20.6939 88.9116 19.1259 90.8156 19.1259C92.6916 19.1259 94.1196 20.6239 94.1196 22.5139C94.1196 22.6819 94.1056 22.9339 94.0776 23.0319H88.7716C88.9256 24.1939 89.8076 25.0619 91.0536 25.0619C91.8096 25.0619 92.4816 24.7679 92.9296 24.3199L93.5876 25.1739C93.0416 25.7619 92.0896 26.1679 91.0116 26.1679ZM90.8296 20.1899C89.7796 20.1899 89.0236 20.9459 88.7996 22.0099H92.8176C92.5936 20.8479 91.8376 20.1899 90.8296 20.1899ZM106.247 17.9779L105.407 18.9579C104.805 18.4539 104.049 18.1039 103.041 18.1039C101.249 18.1039 99.8077 19.6299 99.8077 21.5199C99.8077 23.3959 101.249 24.9219 103.153 24.9219C104.021 24.9219 104.847 24.6279 105.421 24.0959L106.247 25.0199C105.421 25.8319 104.399 26.1679 103.069 26.1679C100.465 26.1679 98.4637 24.0819 98.4637 21.5199C98.4637 18.9439 100.507 16.8579 103.027 16.8579C104.455 16.8579 105.463 17.2639 106.247 17.9779ZM107.688 25.9999V16.3679H108.92V20.3159C109.298 19.5739 110.012 19.1259 110.95 19.1259C112.518 19.1259 113.54 20.2039 113.54 21.8979V25.9999H112.308V22.0939C112.308 20.9879 111.664 20.2879 110.614 20.2879C109.564 20.2879 108.92 20.9879 108.92 22.0939V25.9999H107.688ZM118.697 26.1679C116.653 26.1679 115.183 24.5859 115.183 22.6399C115.183 20.6939 116.597 19.1259 118.501 19.1259C120.377 19.1259 121.805 20.6239 121.805 22.5139C121.805 22.6819 121.791 22.9339 121.763 23.0319H116.457C116.611 24.1939 117.493 25.0619 118.739 25.0619C119.495 25.0619 120.167 24.7679 120.615 24.3199L121.273 25.1739C120.727 25.7619 119.775 26.1679 118.697 26.1679ZM118.515 20.1899C117.465 20.1899 116.709 20.9459 116.485 22.0099H120.503C120.279 20.8479 119.523 20.1899 118.515 20.1899ZM128.185 20.9459C127.723 20.5259 127.149 20.2879 126.407 20.2879C125.077 20.2879 124.167 21.3239 124.167 22.6399C124.167 23.9419 125.091 25.0059 126.393 25.0059C127.135 25.0059 127.765 24.7679 128.213 24.3199L128.857 25.2299C128.325 25.8039 127.387 26.1679 126.365 26.1679C124.405 26.1679 122.921 24.5859 122.921 22.6399C122.921 20.6939 124.419 19.1259 126.379 19.1259C127.443 19.1259 128.339 19.4899 128.899 20.0639L128.185 20.9459ZM131.465 25.9999H130.233V16.3679H131.465V22.2199L134.615 19.2939H136.183L132.809 22.4299L136.421 25.9999H134.797L131.465 22.6819V25.9999ZM141.118 19.1259C142.938 19.1259 144.366 20.6239 144.366 22.6539C144.366 24.6419 142.994 26.1679 141.118 26.1679C140.068 26.1679 139.27 25.6639 138.766 24.8379V25.9999H137.534V16.3679H138.766V20.4979C139.27 19.6719 140.068 19.1259 141.118 19.1259ZM140.964 20.2879C139.69 20.2879 138.766 21.3519 138.766 22.6539C138.766 23.9699 139.69 25.0059 140.964 25.0059C142.224 25.0059 143.134 23.9699 143.134 22.6539C143.134 21.3519 142.224 20.2879 140.964 20.2879ZM149.046 26.1679C147.128 26.1679 145.63 24.5859 145.63 22.6399C145.63 20.6939 147.128 19.1259 149.046 19.1259C150.978 19.1259 152.476 20.6939 152.476 22.6399C152.476 24.5859 150.978 26.1679 149.046 26.1679ZM149.06 25.0059C150.32 25.0059 151.23 23.9419 151.23 22.6399C151.23 21.3239 150.32 20.2879 149.06 20.2879C147.786 20.2879 146.876 21.3239 146.876 22.6399C146.876 23.9419 147.786 25.0059 149.06 25.0059ZM152.907 25.9999L155.497 22.5839L153.019 19.2939H154.559L156.309 21.6319L158.101 19.2939H159.501L157.023 22.5699L159.599 25.9999H158.059L156.197 23.5219L154.307 25.9999H152.907ZM165.121 26.0139C164.715 25.9019 164.183 25.6359 163.511 25.2019L164.113 24.1099C164.911 24.6279 165.975 24.9639 166.885 24.9639C167.977 24.9639 168.817 24.5019 168.817 23.5779C168.817 21.6599 163.805 22.5699 163.805 19.3779C163.805 17.8519 165.191 16.8439 166.983 16.8439C168.131 16.8439 169.097 17.1379 169.867 17.6839L169.237 18.7199C168.663 18.3559 167.795 18.0339 166.927 18.0339C165.877 18.0339 165.149 18.5939 165.149 19.3499C165.149 21.3939 170.147 20.4979 170.147 23.4939C170.147 25.2859 168.621 26.1679 166.801 26.1679C166.087 26.1679 165.527 26.1119 165.121 26.0139ZM171.053 20.3999V19.2939H172.159V17.6279H173.405V19.2939H175.309V20.3999H173.419V23.9419C173.419 24.6559 173.741 25.0059 174.343 25.0059C174.679 25.0059 175.015 24.8799 175.211 24.6559L175.785 25.5939C175.463 25.9019 174.917 26.1679 174.175 26.1679C172.915 26.1679 172.159 25.4259 172.159 23.9839V20.3999H171.053ZM179.503 26.1679C177.683 26.1679 176.255 24.6699 176.255 22.6399C176.255 20.6519 177.627 19.1259 179.503 19.1259C180.553 19.1259 181.351 19.6299 181.855 20.4559V19.2939H183.101V25.9999H181.855V24.7959C181.351 25.6219 180.553 26.1679 179.503 26.1679ZM179.685 25.0059C180.945 25.0059 181.855 23.9419 181.855 22.6399C181.855 21.3239 180.945 20.2879 179.685 20.2879C178.411 20.2879 177.501 21.3239 177.501 22.6399C177.501 23.9419 178.411 25.0059 179.685 25.0059ZM184.575 20.3999V19.2939H185.681V17.6279H186.927V19.2939H188.831V20.3999H186.941V23.9419C186.941 24.6559 187.263 25.0059 187.865 25.0059C188.201 25.0059 188.537 24.8799 188.733 24.6559L189.307 25.5939C188.985 25.9019 188.439 26.1679 187.697 26.1679C186.437 26.1679 185.681 25.4259 185.681 23.9839V20.3999H184.575ZM193.29 26.1679C191.246 26.1679 189.776 24.5859 189.776 22.6399C189.776 20.6939 191.19 19.1259 193.094 19.1259C194.97 19.1259 196.398 20.6239 196.398 22.5139C196.398 22.6819 196.384 22.9339 196.356 23.0319H191.05C191.204 24.1939 192.086 25.0619 193.332 25.0619C194.088 25.0619 194.76 24.7679 195.208 24.3199L195.866 25.1739C195.32 25.7619 194.368 26.1679 193.29 26.1679ZM193.108 20.1899C192.058 20.1899 191.302 20.9459 191.078 22.0099H195.096C194.872 20.8479 194.116 20.1899 193.108 20.1899Z" fill="#BF1722"/>
</svg>
