<svg width="106" height="44" viewBox="0 0 106 44" fill="none" xmlns="http://www.w3.org/2000/svg">
<path d="M22.5 10H14.5C10.0817 10 6.5 13.5817 6.5 18V26C6.5 30.4183 10.0817 34 14.5 34H22.5C26.9183 34 30.5 30.4183 30.5 26V18C30.5 13.5817 26.9183 10 22.5 10Z" fill="#131331"/>
<path d="M17.0133 27L25.5 18.4911L24.0133 17L17.0133 24.0178L13.9867 20.9822L12.5 22.4734L17.0133 27Z" fill="white"/>
<path d="M50.9715 17.9779L50.1315 18.9579C49.5295 18.4539 48.7735 18.1039 47.7655 18.1039C45.9735 18.1039 44.5315 19.6299 44.5315 21.5199C44.5315 23.3959 45.9735 24.9219 47.8775 24.9219C48.7455 24.9219 49.5715 24.6279 50.1455 24.0959L50.9715 25.0199C50.1455 25.8319 49.1235 26.1679 47.7935 26.1679C45.1895 26.1679 43.1875 24.0819 43.1875 21.5199C43.1875 18.9439 45.2315 16.8579 47.7515 16.8579C49.1795 16.8579 50.1875 17.2639 50.9715 17.9779ZM52.4125 25.9999V16.3679H53.6445V20.3159C54.0225 19.5739 54.7365 19.1259 55.6745 19.1259C57.2425 19.1259 58.2645 20.2039 58.2645 21.8979V25.9999H57.0325V22.0939C57.0325 20.9879 56.3885 20.2879 55.3385 20.2879C54.2885 20.2879 53.6445 20.9879 53.6445 22.0939V25.9999H52.4125ZM63.4209 26.1679C61.3769 26.1679 59.9069 24.5859 59.9069 22.6399C59.9069 20.6939 61.3209 19.1259 63.2249 19.1259C65.1009 19.1259 66.5289 20.6239 66.5289 22.5139C66.5289 22.6819 66.5149 22.9339 66.4869 23.0319H61.1809C61.3349 24.1939 62.2169 25.0619 63.4629 25.0619C64.2189 25.0619 64.8909 24.7679 65.3389 24.3199L65.9969 25.1739C65.4509 25.7619 64.4989 26.1679 63.4209 26.1679ZM63.2389 20.1899C62.1889 20.1899 61.4329 20.9459 61.2089 22.0099H65.2269C65.0029 20.8479 64.2469 20.1899 63.2389 20.1899ZM72.9092 20.9459C72.4472 20.5259 71.8732 20.2879 71.1312 20.2879C69.8012 20.2879 68.8912 21.3239 68.8912 22.6399C68.8912 23.9419 69.8152 25.0059 71.1172 25.0059C71.8592 25.0059 72.4892 24.7679 72.9372 24.3199L73.5812 25.2299C73.0492 25.8039 72.1112 26.1679 71.0892 26.1679C69.1292 26.1679 67.6452 24.5859 67.6452 22.6399C67.6452 20.6939 69.1432 19.1259 71.1032 19.1259C72.1672 19.1259 73.0632 19.4899 73.6232 20.0639L72.9092 20.9459ZM76.1894 25.9999H74.9574V16.3679H76.1894V22.2199L79.3394 19.2939H80.9074L77.5334 22.4299L81.1454 25.9999H79.5214L76.1894 22.6819V25.9999ZM85.8422 19.1259C87.6622 19.1259 89.0902 20.6239 89.0902 22.6539C89.0902 24.6419 87.7182 26.1679 85.8422 26.1679C84.7922 26.1679 83.9942 25.6639 83.4902 24.8379V25.9999H82.2582V16.3679H83.4902V20.4979C83.9942 19.6719 84.7922 19.1259 85.8422 19.1259ZM85.6882 20.2879C84.4142 20.2879 83.4902 21.3519 83.4902 22.6539C83.4902 23.9699 84.4142 25.0059 85.6882 25.0059C86.9482 25.0059 87.8582 23.9699 87.8582 22.6539C87.8582 21.3519 86.9482 20.2879 85.6882 20.2879ZM93.7702 26.1679C91.8522 26.1679 90.3542 24.5859 90.3542 22.6399C90.3542 20.6939 91.8522 19.1259 93.7702 19.1259C95.7022 19.1259 97.2002 20.6939 97.2002 22.6399C97.2002 24.5859 95.7022 26.1679 93.7702 26.1679ZM93.7842 25.0059C95.0442 25.0059 95.9542 23.9419 95.9542 22.6399C95.9542 21.3239 95.0442 20.2879 93.7842 20.2879C92.5102 20.2879 91.6002 21.3239 91.6002 22.6399C91.6002 23.9419 92.5102 25.0059 93.7842 25.0059ZM97.6314 25.9999L100.222 22.5839L97.7434 19.2939H99.2834L101.033 21.6319L102.825 19.2939H104.225L101.748 22.5699L104.323 25.9999H102.783L100.921 23.5219L99.0314 25.9999H97.6314Z" fill="black"/>
</svg>
