<svg width="240" height="108" viewBox="0 0 240 108" fill="none" xmlns="http://www.w3.org/2000/svg">
<path d="M30 18C30 11.3726 24.6274 6 18 6C11.3726 6 6 11.3726 6 18C6 24.6274 11.3726 30 18 30C24.6274 30 30 24.6274 30 18Z" fill="#BAC2D4"/>
<path d="M22 7H14C10.134 7 7 10.134 7 14V22C7 25.866 10.134 29 14 29H22C25.866 29 29 25.866 29 22V14C29 10.134 25.866 7 22 7Z" stroke="#131331" stroke-width="2"/>
<path d="M50.4715 13.9779L49.6315 14.9579C49.0295 14.4539 48.2735 14.1039 47.2655 14.1039C45.4735 14.1039 44.0315 15.6299 44.0315 17.5199C44.0315 19.3959 45.4735 20.9219 47.3775 20.9219C48.2455 20.9219 49.0715 20.6279 49.6455 20.0959L50.4715 21.0199C49.6455 21.8319 48.6235 22.1679 47.2935 22.1679C44.6895 22.1679 42.6875 20.0819 42.6875 17.5199C42.6875 14.9439 44.7315 12.8579 47.2515 12.8579C48.6795 12.8579 49.6875 13.2639 50.4715 13.9779ZM51.9125 21.9999V12.3679H53.1445V16.3159C53.5225 15.5739 54.2365 15.1259 55.1745 15.1259C56.7425 15.1259 57.7645 16.2039 57.7645 17.8979V21.9999H56.5325V18.0939C56.5325 16.9879 55.8885 16.2879 54.8385 16.2879C53.7885 16.2879 53.1445 16.9879 53.1445 18.0939V21.9999H51.9125ZM62.9209 22.1679C60.8769 22.1679 59.4069 20.5859 59.4069 18.6399C59.4069 16.6939 60.8209 15.1259 62.7249 15.1259C64.6009 15.1259 66.0289 16.6239 66.0289 18.5139C66.0289 18.6819 66.0149 18.9339 65.9869 19.0319H60.6809C60.8349 20.1939 61.7169 21.0619 62.9629 21.0619C63.7189 21.0619 64.3909 20.7679 64.8389 20.3199L65.4969 21.1739C64.9509 21.7619 63.9989 22.1679 62.9209 22.1679ZM62.7389 16.1899C61.6889 16.1899 60.9329 16.9459 60.7089 18.0099H64.7269C64.5029 16.8479 63.7469 16.1899 62.7389 16.1899ZM72.4092 16.9459C71.9472 16.5259 71.3732 16.2879 70.6312 16.2879C69.3012 16.2879 68.3912 17.3239 68.3912 18.6399C68.3912 19.9419 69.3152 21.0059 70.6172 21.0059C71.3592 21.0059 71.9892 20.7679 72.4372 20.3199L73.0812 21.2299C72.5492 21.8039 71.6112 22.1679 70.5892 22.1679C68.6292 22.1679 67.1452 20.5859 67.1452 18.6399C67.1452 16.6939 68.6432 15.1259 70.6032 15.1259C71.6672 15.1259 72.5632 15.4899 73.1232 16.0639L72.4092 16.9459ZM75.6894 21.9999H74.4574V12.3679H75.6894V18.2199L78.8394 15.2939H80.4074L77.0334 18.4299L80.6454 21.9999H79.0214L75.6894 18.6819V21.9999ZM85.3422 15.1259C87.1622 15.1259 88.5902 16.6239 88.5902 18.6539C88.5902 20.6419 87.2182 22.1679 85.3422 22.1679C84.2922 22.1679 83.4942 21.6639 82.9902 20.8379V21.9999H81.7582V12.3679H82.9902V16.4979C83.4942 15.6719 84.2922 15.1259 85.3422 15.1259ZM85.1882 16.2879C83.9142 16.2879 82.9902 17.3519 82.9902 18.6539C82.9902 19.9699 83.9142 21.0059 85.1882 21.0059C86.4482 21.0059 87.3582 19.9699 87.3582 18.6539C87.3582 17.3519 86.4482 16.2879 85.1882 16.2879ZM93.2702 22.1679C91.3522 22.1679 89.8542 20.5859 89.8542 18.6399C89.8542 16.6939 91.3522 15.1259 93.2702 15.1259C95.2022 15.1259 96.7002 16.6939 96.7002 18.6399C96.7002 20.5859 95.2022 22.1679 93.2702 22.1679ZM93.2842 21.0059C94.5442 21.0059 95.4542 19.9419 95.4542 18.6399C95.4542 17.3239 94.5442 16.2879 93.2842 16.2879C92.0102 16.2879 91.1002 17.3239 91.1002 18.6399C91.1002 19.9419 92.0102 21.0059 93.2842 21.0059ZM97.1314 21.9999L99.7214 18.5839L97.2434 15.2939H98.7834L100.533 17.6319L102.325 15.2939H103.725L101.248 18.5699L103.823 21.9999H102.283L100.421 19.5219L98.5314 21.9999H97.1314ZM109.555 24.7439H108.322V15.2939H109.555V16.4979C110.059 15.6719 110.856 15.1259 111.906 15.1259C113.726 15.1259 115.154 16.6239 115.154 18.6539C115.154 20.6419 113.782 22.1679 111.906 22.1679C110.856 22.1679 110.059 21.6639 109.555 20.8379V24.7439ZM111.753 21.0059C113.013 21.0059 113.923 19.9699 113.923 18.6539C113.923 17.3519 113.013 16.2879 111.753 16.2879C110.479 16.2879 109.555 17.3519 109.555 18.6539C109.555 19.9699 110.479 21.0059 111.753 21.0059ZM116.908 21.9999V15.2939H118.141V16.2459C118.477 15.5459 119.051 15.1259 119.835 15.1259C120.255 15.1259 120.619 15.2239 120.857 15.4199L120.339 16.5819C120.115 16.4279 119.793 16.3159 119.471 16.3159C118.659 16.3159 118.141 17.0159 118.141 18.1359V21.9999H116.908ZM124.635 22.1679C122.591 22.1679 121.122 20.5859 121.122 18.6399C121.122 16.6939 122.535 15.1259 124.439 15.1259C126.315 15.1259 127.743 16.6239 127.743 18.5139C127.743 18.6819 127.729 18.9339 127.701 19.0319H122.395C122.549 20.1939 123.432 21.0619 124.678 21.0619C125.434 21.0619 126.105 20.7679 126.553 20.3199L127.212 21.1739C126.666 21.7619 125.713 22.1679 124.635 22.1679ZM124.454 16.1899C123.404 16.1899 122.647 16.9459 122.423 18.0099H126.441C126.217 16.8479 125.462 16.1899 124.454 16.1899ZM131.158 22.1679C130.164 22.1679 129.267 21.9019 128.581 21.4959L129.057 20.4739C129.813 20.8659 130.472 21.0899 131.242 21.0899C132.18 21.0899 132.628 20.7259 132.628 20.1939C132.628 18.6679 128.819 19.5919 128.819 17.0019C128.819 16.0079 129.715 15.1259 131.339 15.1259C132.249 15.1259 132.963 15.3499 133.691 15.6999L133.201 16.7219C132.725 16.4559 132.039 16.2179 131.395 16.2179C130.569 16.2179 130.079 16.4979 130.079 16.9879C130.079 18.5279 133.859 17.6179 133.859 20.1659C133.859 21.3139 132.866 22.1679 131.158 22.1679ZM137.393 22.1679C136.399 22.1679 135.502 21.9019 134.816 21.4959L135.292 20.4739C136.048 20.8659 136.707 21.0899 137.477 21.0899C138.415 21.0899 138.862 20.7259 138.862 20.1939C138.862 18.6679 135.054 19.5919 135.054 17.0019C135.054 16.0079 135.95 15.1259 137.574 15.1259C138.484 15.1259 139.198 15.3499 139.926 15.6999L139.436 16.7219C138.96 16.4559 138.274 16.2179 137.63 16.2179C136.804 16.2179 136.314 16.4979 136.314 16.9879C136.314 18.5279 140.094 17.6179 140.094 20.1659C140.094 21.3139 139.101 22.1679 137.393 22.1679ZM144.76 22.1679C142.716 22.1679 141.246 20.5859 141.246 18.6399C141.246 16.6939 142.66 15.1259 144.564 15.1259C146.44 15.1259 147.868 16.6239 147.868 18.5139C147.868 18.6819 147.854 18.9339 147.826 19.0319H142.52C142.674 20.1939 143.556 21.0619 144.802 21.0619C145.558 21.0619 146.23 20.7679 146.678 20.3199L147.337 21.1739C146.791 21.7619 145.838 22.1679 144.76 22.1679ZM144.578 16.1899C143.528 16.1899 142.772 16.9459 142.548 18.0099H146.566C146.342 16.8479 145.586 16.1899 144.578 16.1899ZM152.233 22.1679C150.413 22.1679 148.985 20.6699 148.985 18.6399C148.985 16.6519 150.357 15.1259 152.233 15.1259C153.283 15.1259 154.081 15.6299 154.585 16.4559V12.3679H155.831V21.9999H154.585V20.7959C154.081 21.6219 153.283 22.1679 152.233 22.1679ZM152.415 21.0059C153.675 21.0059 154.585 19.9419 154.585 18.6399C154.585 17.3239 153.675 16.2879 152.415 16.2879C151.141 16.2879 150.231 17.3239 150.231 18.6399C150.231 19.9419 151.141 21.0059 152.415 21.0059ZM163.122 22.1679C162.128 22.1679 161.232 21.9019 160.546 21.4959L161.022 20.4739C161.778 20.8659 162.436 21.0899 163.206 21.0899C164.144 21.0899 164.592 20.7259 164.592 20.1939C164.592 18.6679 160.785 19.5919 160.785 17.0019C160.785 16.0079 161.68 15.1259 163.304 15.1259C164.214 15.1259 164.928 15.3499 165.656 15.6999L165.166 16.7219C164.69 16.4559 164.004 16.2179 163.36 16.2179C162.534 16.2179 162.044 16.4979 162.044 16.9879C162.044 18.5279 165.824 17.6179 165.824 20.1659C165.824 21.3139 164.83 22.1679 163.122 22.1679ZM166.712 16.3999V15.2939H167.817V13.6279H169.063V15.2939H170.967V16.3999H169.077V19.9419C169.077 20.6559 169.399 21.0059 170.001 21.0059C170.337 21.0059 170.673 20.8799 170.869 20.6559L171.443 21.5939C171.121 21.9019 170.575 22.1679 169.833 22.1679C168.573 22.1679 167.817 21.4259 167.817 19.9839V16.3999H166.712ZM175.16 22.1679C173.34 22.1679 171.912 20.6699 171.912 18.6399C171.912 16.6519 173.284 15.1259 175.16 15.1259C176.21 15.1259 177.008 15.6299 177.512 16.4559V15.2939H178.758V21.9999H177.512V20.7959C177.008 21.6219 176.21 22.1679 175.16 22.1679ZM175.342 21.0059C176.602 21.0059 177.512 19.9419 177.512 18.6399C177.512 17.3239 176.602 16.2879 175.342 16.2879C174.068 16.2879 173.158 17.3239 173.158 18.6399C173.158 19.9419 174.068 21.0059 175.342 21.0059ZM180.232 16.3999V15.2939H181.339V13.6279H182.584V15.2939H184.488V16.3999H182.598V19.9419C182.598 20.6559 182.92 21.0059 183.522 21.0059C183.858 21.0059 184.195 20.8799 184.391 20.6559L184.964 21.5939C184.642 21.9019 184.096 22.1679 183.354 22.1679C182.094 22.1679 181.339 21.4259 181.339 19.9839V16.3999H180.232ZM188.949 22.1679C186.905 22.1679 185.434 20.5859 185.434 18.6399C185.434 16.6939 186.849 15.1259 188.753 15.1259C190.629 15.1259 192.056 16.6239 192.056 18.5139C192.056 18.6819 192.042 18.9339 192.014 19.0319H186.708C186.862 20.1939 187.744 21.0619 188.99 21.0619C189.746 21.0619 190.419 20.7679 190.867 20.3199L191.524 21.1739C190.978 21.7619 190.027 22.1679 188.949 22.1679ZM188.766 16.1899C187.716 16.1899 186.96 16.9459 186.736 18.0099H190.755C190.531 16.8479 189.774 16.1899 188.766 16.1899Z" fill="black"/>
<path d="M22 42H14C9.58172 42 6 45.5817 6 50V58C6 62.4183 9.58172 66 14 66H22C26.4183 66 30 62.4183 30 58V50C30 45.5817 26.4183 42 22 42Z" fill="#131331"/>
<path d="M16.5133 59L25 50.4911L23.5133 49L16.5133 56.0178L13.4867 52.9822L12 54.4734L16.5133 59Z" fill="white"/>
<path d="M50.4715 49.9779L49.6315 50.9579C49.0295 50.4539 48.2735 50.1039 47.2655 50.1039C45.4735 50.1039 44.0315 51.6299 44.0315 53.5199C44.0315 55.3959 45.4735 56.9219 47.3775 56.9219C48.2455 56.9219 49.0715 56.6279 49.6455 56.0959L50.4715 57.0199C49.6455 57.8319 48.6235 58.1679 47.2935 58.1679C44.6895 58.1679 42.6875 56.0819 42.6875 53.5199C42.6875 50.9439 44.7315 48.8579 47.2515 48.8579C48.6795 48.8579 49.6875 49.2639 50.4715 49.9779ZM51.9125 57.9999V48.3679H53.1445V52.3159C53.5225 51.5739 54.2365 51.1259 55.1745 51.1259C56.7425 51.1259 57.7645 52.2039 57.7645 53.8979V57.9999H56.5325V54.0939C56.5325 52.9879 55.8885 52.2879 54.8385 52.2879C53.7885 52.2879 53.1445 52.9879 53.1445 54.0939V57.9999H51.9125ZM62.9209 58.1679C60.8769 58.1679 59.4069 56.5859 59.4069 54.6399C59.4069 52.6939 60.8209 51.1259 62.7249 51.1259C64.6009 51.1259 66.0289 52.6239 66.0289 54.5139C66.0289 54.6819 66.0149 54.9339 65.9869 55.0319H60.6809C60.8349 56.1939 61.7169 57.0619 62.9629 57.0619C63.7189 57.0619 64.3909 56.7679 64.8389 56.3199L65.4969 57.1739C64.9509 57.7619 63.9989 58.1679 62.9209 58.1679ZM62.7389 52.1899C61.6889 52.1899 60.9329 52.9459 60.7089 54.0099H64.7269C64.5029 52.8479 63.7469 52.1899 62.7389 52.1899ZM72.4092 52.9459C71.9472 52.5259 71.3732 52.2879 70.6312 52.2879C69.3012 52.2879 68.3912 53.3239 68.3912 54.6399C68.3912 55.9419 69.3152 57.0059 70.6172 57.0059C71.3592 57.0059 71.9892 56.7679 72.4372 56.3199L73.0812 57.2299C72.5492 57.8039 71.6112 58.1679 70.5892 58.1679C68.6292 58.1679 67.1452 56.5859 67.1452 54.6399C67.1452 52.6939 68.6432 51.1259 70.6032 51.1259C71.6672 51.1259 72.5632 51.4899 73.1232 52.0639L72.4092 52.9459ZM75.6894 57.9999H74.4574V48.3679H75.6894V54.2199L78.8394 51.2939H80.4074L77.0334 54.4299L80.6454 57.9999H79.0214L75.6894 54.6819V57.9999ZM84.1807 58.1679C82.1367 58.1679 80.6667 56.5859 80.6667 54.6399C80.6667 52.6939 82.0807 51.1259 83.9847 51.1259C85.8607 51.1259 87.2887 52.6239 87.2887 54.5139C87.2887 54.6819 87.2747 54.9339 87.2467 55.0319H81.9407C82.0947 56.1939 82.9767 57.0619 84.2227 57.0619C84.9787 57.0619 85.6507 56.7679 86.0987 56.3199L86.7567 57.1739C86.2107 57.7619 85.2587 58.1679 84.1807 58.1679ZM83.9987 52.1899C82.9487 52.1899 82.1927 52.9459 81.9687 54.0099H85.9867C85.7627 52.8479 85.0067 52.1899 83.9987 52.1899ZM91.6529 58.1679C89.8329 58.1679 88.4049 56.6699 88.4049 54.6399C88.4049 52.6519 89.7769 51.1259 91.6529 51.1259C92.7029 51.1259 93.5009 51.6299 94.0049 52.4559V48.3679H95.2509V57.9999H94.0049V56.7959C93.5009 57.6219 92.7029 58.1679 91.6529 58.1679ZM91.8349 57.0059C93.0949 57.0059 94.0049 55.9419 94.0049 54.6399C94.0049 53.3239 93.0949 52.2879 91.8349 52.2879C90.5609 52.2879 89.6509 53.3239 89.6509 54.6399C89.6509 55.9419 90.5609 57.0059 91.8349 57.0059ZM103.41 58.1679C101.59 58.1679 100.163 56.6699 100.163 54.6399C100.163 52.6519 101.534 51.1259 103.41 51.1259C104.46 51.1259 105.259 51.6299 105.763 52.4559V51.2939H107.008V57.9999H105.763V56.7959C105.259 57.6219 104.46 58.1679 103.41 58.1679ZM103.593 57.0059C104.853 57.0059 105.763 55.9419 105.763 54.6399C105.763 53.3239 104.853 52.2879 103.593 52.2879C102.319 52.2879 101.408 53.3239 101.408 54.6399C101.408 55.9419 102.319 57.0059 103.593 57.0059ZM109.238 57.9999V51.2939H110.471V52.3159C110.849 51.5739 111.563 51.1259 112.501 51.1259C114.069 51.1259 115.09 52.2039 115.09 53.8979V57.9999H113.859V54.0939C113.859 52.9879 113.215 52.2879 112.165 52.2879C111.115 52.2879 110.471 52.9879 110.471 54.0939V57.9999H109.238ZM119.982 58.1679C118.162 58.1679 116.734 56.6699 116.734 54.6399C116.734 52.6519 118.106 51.1259 119.982 51.1259C121.032 51.1259 121.829 51.6299 122.333 52.4559V48.3679H123.579V57.9999H122.333V56.7959C121.829 57.6219 121.032 58.1679 119.982 58.1679ZM120.163 57.0059C121.423 57.0059 122.333 55.9419 122.333 54.6399C122.333 53.3239 121.423 52.2879 120.163 52.2879C118.889 52.2879 117.979 53.3239 117.979 54.6399C117.979 55.9419 118.889 57.0059 120.163 57.0059ZM131.738 58.1679C129.918 58.1679 128.49 56.6699 128.49 54.6399C128.49 52.6519 129.862 51.1259 131.738 51.1259C132.788 51.1259 133.586 51.6299 134.09 52.4559V51.2939H135.337V57.9999H134.09V56.7959C133.586 57.6219 132.788 58.1679 131.738 58.1679ZM131.921 57.0059C133.181 57.0059 134.09 55.9419 134.09 54.6399C134.09 53.3239 133.181 52.2879 131.921 52.2879C130.647 52.2879 129.736 53.3239 129.736 54.6399C129.736 55.9419 130.647 57.0059 131.921 57.0059ZM142.34 52.9459C141.878 52.5259 141.304 52.2879 140.562 52.2879C139.232 52.2879 138.322 53.3239 138.322 54.6399C138.322 55.9419 139.246 57.0059 140.548 57.0059C141.29 57.0059 141.92 56.7679 142.368 56.3199L143.012 57.2299C142.48 57.8039 141.542 58.1679 140.52 58.1679C138.56 58.1679 137.076 56.5859 137.076 54.6399C137.076 52.6939 138.575 51.1259 140.535 51.1259C141.599 51.1259 142.494 51.4899 143.054 52.0639L142.34 52.9459ZM143.633 52.3999V51.2939H144.74V49.6279H145.985V51.2939H147.889V52.3999H145.999V55.9419C145.999 56.6559 146.321 57.0059 146.923 57.0059C147.259 57.0059 147.595 56.8799 147.791 56.6559L148.365 57.5939C148.043 57.9019 147.497 58.1679 146.755 58.1679C145.495 58.1679 144.74 57.4259 144.74 55.9839V52.3999H143.633ZM150.309 50.1319C149.875 50.1319 149.539 49.7819 149.539 49.3619C149.539 48.9419 149.875 48.5919 150.309 48.5919C150.729 48.5919 151.079 48.9419 151.079 49.3619C151.079 49.7819 150.729 50.1319 150.309 50.1319ZM150.925 57.9999H149.693V51.2939H150.925V57.9999ZM156.4 57.9999H154.79L152.257 51.2939H153.628L155.63 56.8799L157.66 51.2939H158.934L156.4 57.9999ZM163.026 58.1679C160.982 58.1679 159.512 56.5859 159.512 54.6399C159.512 52.6939 160.926 51.1259 162.83 51.1259C164.706 51.1259 166.134 52.6239 166.134 54.5139C166.134 54.6819 166.12 54.9339 166.092 55.0319H160.786C160.94 56.1939 161.822 57.0619 163.068 57.0619C163.824 57.0619 164.496 56.7679 164.944 56.3199L165.602 57.1739C165.056 57.7619 164.104 58.1679 163.026 58.1679ZM162.844 52.1899C161.794 52.1899 161.038 52.9459 160.814 54.0099H164.832C164.608 52.8479 163.852 52.1899 162.844 52.1899ZM172.145 60.7439H170.912V51.2939H172.145V52.4979C172.649 51.6719 173.446 51.1259 174.496 51.1259C176.316 51.1259 177.744 52.6239 177.744 54.6539C177.744 56.6419 176.372 58.1679 174.496 58.1679C173.446 58.1679 172.649 57.6639 172.145 56.8379V60.7439ZM174.342 57.0059C175.602 57.0059 176.512 55.9699 176.512 54.6539C176.512 53.3519 175.602 52.2879 174.342 52.2879C173.068 52.2879 172.145 53.3519 172.145 54.6539C172.145 55.9699 173.068 57.0059 174.342 57.0059ZM179.498 57.9999V51.2939H180.73V52.2459C181.066 51.5459 181.64 51.1259 182.424 51.1259C182.844 51.1259 183.209 51.2239 183.447 51.4199L182.928 52.5819C182.704 52.4279 182.383 52.3159 182.061 52.3159C181.249 52.3159 180.73 53.0159 180.73 54.1359V57.9999H179.498ZM187.225 58.1679C185.181 58.1679 183.712 56.5859 183.712 54.6399C183.712 52.6939 185.125 51.1259 187.029 51.1259C188.905 51.1259 190.333 52.6239 190.333 54.5139C190.333 54.6819 190.319 54.9339 190.291 55.0319H184.985C185.139 56.1939 186.022 57.0619 187.268 57.0619C188.024 57.0619 188.695 56.7679 189.143 56.3199L189.801 57.1739C189.255 57.7619 188.303 58.1679 187.225 58.1679ZM187.044 52.1899C185.994 52.1899 185.237 52.9459 185.013 54.0099H189.031C188.807 52.8479 188.052 52.1899 187.044 52.1899ZM193.747 58.1679C192.753 58.1679 191.857 57.9019 191.171 57.4959L191.647 56.4739C192.403 56.8659 193.061 57.0899 193.831 57.0899C194.769 57.0899 195.217 56.7259 195.217 56.1939C195.217 54.6679 191.41 55.5919 191.41 53.0019C191.41 52.0079 192.305 51.1259 193.929 51.1259C194.839 51.1259 195.553 51.3499 196.281 51.6999L195.791 52.7219C195.315 52.4559 194.629 52.2179 193.985 52.2179C193.159 52.2179 192.669 52.4979 192.669 52.9879C192.669 54.5279 196.449 53.6179 196.449 56.1659C196.449 57.3139 195.455 58.1679 193.747 58.1679ZM199.982 58.1679C198.988 58.1679 198.092 57.9019 197.406 57.4959L197.882 56.4739C198.638 56.8659 199.296 57.0899 200.066 57.0899C201.004 57.0899 201.452 56.7259 201.452 56.1939C201.452 54.6679 197.645 55.5919 197.645 53.0019C197.645 52.0079 198.54 51.1259 200.164 51.1259C201.074 51.1259 201.788 51.3499 202.516 51.6999L202.026 52.7219C201.55 52.4559 200.864 52.2179 200.22 52.2179C199.394 52.2179 198.904 52.4979 198.904 52.9879C198.904 54.5279 202.684 53.6179 202.684 56.1659C202.684 57.3139 201.69 58.1679 199.982 58.1679Z" fill="black"/>
<path d="M22 78H14C9.58172 78 6 81.5817 6 86V94C6 98.4183 9.58172 102 14 102H22C26.4183 102 30 98.4183 30 94V86C30 81.5817 26.4183 78 22 78Z" fill="#131331"/>
<path d="M24 89H12V91H24V89Z" fill="white"/>
<path d="M43.1914 93.9999V85.0259H44.4514V93.9999H43.1914ZM46.7581 93.9999V87.2939H47.9901V88.3159C48.3681 87.5739 49.0821 87.1259 50.0201 87.1259C51.5881 87.1259 52.6101 88.2039 52.6101 89.8979V93.9999H51.3781V90.0939C51.3781 88.9879 50.7341 88.2879 49.6841 88.2879C48.6341 88.2879 47.9901 88.9879 47.9901 90.0939V93.9999H46.7581ZM57.5005 94.1679C55.6805 94.1679 54.2525 92.6699 54.2525 90.6399C54.2525 88.6519 55.6245 87.1259 57.5005 87.1259C58.5505 87.1259 59.3485 87.6299 59.8525 88.4559V84.3679H61.0985V93.9999H59.8525V92.7959C59.3485 93.6219 58.5505 94.1679 57.5005 94.1679ZM57.6825 93.0059C58.9425 93.0059 59.8525 91.9419 59.8525 90.6399C59.8525 89.3239 58.9425 88.2879 57.6825 88.2879C56.4085 88.2879 55.4985 89.3239 55.4985 90.6399C55.4985 91.9419 56.4085 93.0059 57.6825 93.0059ZM66.3524 94.1679C64.3084 94.1679 62.8384 92.5859 62.8384 90.6399C62.8384 88.6939 64.2524 87.1259 66.1564 87.1259C68.0324 87.1259 69.4604 88.6239 69.4604 90.5139C69.4604 90.6819 69.4464 90.9339 69.4184 91.0319H64.1124C64.2664 92.1939 65.1484 93.0619 66.3944 93.0619C67.1504 93.0619 67.8224 92.7679 68.2704 92.3199L68.9284 93.1739C68.3824 93.7619 67.4304 94.1679 66.3524 94.1679ZM66.1704 88.1899C65.1204 88.1899 64.3644 88.9459 64.1404 90.0099H68.1584C67.9344 88.8479 67.1784 88.1899 66.1704 88.1899ZM70.3107 88.3999V87.2939H71.4167V85.6279H72.6627V87.2939H74.5667V88.3999H72.6767V91.9419C72.6767 92.6559 72.9987 93.0059 73.6007 93.0059C73.9367 93.0059 74.2727 92.8799 74.4687 92.6559L75.0427 93.5939C74.7207 93.9019 74.1747 94.1679 73.4327 94.1679C72.1727 94.1679 71.4167 93.4259 71.4167 91.9839V88.3999H70.3107ZM79.0263 94.1679C76.9823 94.1679 75.5123 92.5859 75.5123 90.6399C75.5123 88.6939 76.9263 87.1259 78.8303 87.1259C80.7063 87.1259 82.1343 88.6239 82.1343 90.5139C82.1343 90.6819 82.1203 90.9339 82.0923 91.0319H76.7863C76.9403 92.1939 77.8223 93.0619 79.0683 93.0619C79.8243 93.0619 80.4963 92.7679 80.9443 92.3199L81.6023 93.1739C81.0563 93.7619 80.1043 94.1679 79.0263 94.1679ZM78.8443 88.1899C77.7943 88.1899 77.0383 88.9459 76.8143 90.0099H80.8323C80.6083 88.8479 79.8523 88.1899 78.8443 88.1899ZM83.7405 93.9999V87.2939H84.9725V88.2459C85.3085 87.5459 85.8825 87.1259 86.6665 87.1259C87.0865 87.1259 87.4505 87.2239 87.6885 87.4199L87.1705 88.5819C86.9465 88.4279 86.6245 88.3159 86.3025 88.3159C85.4905 88.3159 84.9725 89.0159 84.9725 90.1359V93.9999H83.7405ZM90.2362 93.9999H89.0042V87.2939H90.2362V88.3579C90.6002 87.6019 91.3002 87.1259 92.2102 87.1259C93.2882 87.1259 94.1002 87.6719 94.4782 88.6099C94.8002 87.7419 95.5282 87.1259 96.6062 87.1259C98.1602 87.1259 99.1682 88.1759 99.1682 89.8979V93.9999H97.9222V90.0939C97.9222 88.9879 97.3202 88.2879 96.3122 88.2879C95.3182 88.2879 94.7022 88.9879 94.7022 90.0939V93.9999H93.4562V90.0939C93.4562 88.9879 92.8542 88.2879 91.8602 88.2879C90.8522 88.2879 90.2362 88.9879 90.2362 90.0939V93.9999ZM101.897 86.1319C101.463 86.1319 101.127 85.7819 101.127 85.3619C101.127 84.9419 101.463 84.5919 101.897 84.5919C102.317 84.5919 102.667 84.9419 102.667 85.3619C102.667 85.7819 102.317 86.1319 101.897 86.1319ZM102.513 93.9999H101.281V87.2939H102.513V93.9999ZM104.754 93.9999V87.2939H105.986V88.3159C106.364 87.5739 107.078 87.1259 108.016 87.1259C109.584 87.1259 110.606 88.2039 110.606 89.8979V93.9999H109.374V90.0939C109.374 88.9879 108.73 88.2879 107.68 88.2879C106.63 88.2879 105.986 88.9879 105.986 90.0939V93.9999H104.754ZM115.496 94.1679C113.676 94.1679 112.248 92.6699 112.248 90.6399C112.248 88.6519 113.62 87.1259 115.496 87.1259C116.546 87.1259 117.344 87.6299 117.848 88.4559V87.2939H119.094V93.9999H117.848V92.7959C117.344 93.6219 116.546 94.1679 115.496 94.1679ZM115.678 93.0059C116.938 93.0059 117.848 91.9419 117.848 90.6399C117.848 89.3239 116.938 88.2879 115.678 88.2879C114.404 88.2879 113.494 89.3239 113.494 90.6399C113.494 91.9419 114.404 93.0059 115.678 93.0059ZM120.568 88.3999V87.2939H121.674V85.6279H122.92V87.2939H124.824V88.3999H122.934V91.9419C122.934 92.6559 123.256 93.0059 123.858 93.0059C124.194 93.0059 124.53 92.8799 124.726 92.6559L125.3 93.5939C124.978 93.9019 124.432 94.1679 123.69 94.1679C122.43 94.1679 121.674 93.4259 121.674 91.9839V88.3999H120.568ZM129.284 94.1679C127.24 94.1679 125.77 92.5859 125.77 90.6399C125.77 88.6939 127.184 87.1259 129.088 87.1259C130.964 87.1259 132.392 88.6239 132.392 90.5139C132.392 90.6819 132.378 90.9339 132.35 91.0319H127.044C127.198 92.1939 128.08 93.0619 129.326 93.0619C130.082 93.0619 130.754 92.7679 131.202 92.3199L131.86 93.1739C131.314 93.7619 130.362 94.1679 129.284 94.1679ZM129.102 88.1899C128.052 88.1899 127.296 88.9459 127.072 90.0099H131.09C130.866 88.8479 130.11 88.1899 129.102 88.1899ZM139.928 94.1679C138.108 94.1679 136.68 92.6699 136.68 90.6399C136.68 88.6519 138.052 87.1259 139.928 87.1259C140.978 87.1259 141.776 87.6299 142.28 88.4559V87.2939H143.526V93.9999H142.28V92.7959C141.776 93.6219 140.978 94.1679 139.928 94.1679ZM140.11 93.0059C141.37 93.0059 142.28 91.9419 142.28 90.6399C142.28 89.3239 141.37 88.2879 140.11 88.2879C138.836 88.2879 137.926 89.3239 137.926 90.6399C137.926 91.9419 138.836 93.0059 140.11 93.0059ZM145.756 93.9999V87.2939H146.988V88.3159C147.366 87.5739 148.08 87.1259 149.018 87.1259C150.586 87.1259 151.608 88.2039 151.608 89.8979V93.9999H150.376V90.0939C150.376 88.9879 149.732 88.2879 148.682 88.2879C147.632 88.2879 146.988 88.9879 146.988 90.0939V93.9999H145.756ZM156.498 94.1679C154.678 94.1679 153.25 92.6699 153.25 90.6399C153.25 88.6519 154.622 87.1259 156.498 87.1259C157.548 87.1259 158.346 87.6299 158.85 88.4559V84.3679H160.096V93.9999H158.85V92.7959C158.346 93.6219 157.548 94.1679 156.498 94.1679ZM156.68 93.0059C157.94 93.0059 158.85 91.9419 158.85 90.6399C158.85 89.3239 157.94 88.2879 156.68 88.2879C155.406 88.2879 154.496 89.3239 154.496 90.6399C154.496 91.9419 155.406 93.0059 156.68 93.0059ZM168.256 94.1679C166.436 94.1679 165.008 92.6699 165.008 90.6399C165.008 88.6519 166.38 87.1259 168.256 87.1259C169.306 87.1259 170.104 87.6299 170.608 88.4559V87.2939H171.854V93.9999H170.608V92.7959C170.104 93.6219 169.306 94.1679 168.256 94.1679ZM168.438 93.0059C169.698 93.0059 170.608 91.9419 170.608 90.6399C170.608 89.3239 169.698 88.2879 168.438 88.2879C167.164 88.2879 166.254 89.3239 166.254 90.6399C166.254 91.9419 167.164 93.0059 168.438 93.0059ZM178.858 88.9459C178.396 88.5259 177.822 88.2879 177.08 88.2879C175.75 88.2879 174.84 89.3239 174.84 90.6399C174.84 91.9419 175.764 93.0059 177.066 93.0059C177.808 93.0059 178.438 92.7679 178.886 92.3199L179.53 93.2299C178.998 93.8039 178.06 94.1679 177.038 94.1679C175.078 94.1679 173.594 92.5859 173.594 90.6399C173.594 88.6939 175.092 87.1259 177.052 87.1259C178.116 87.1259 179.012 87.4899 179.572 88.0639L178.858 88.9459ZM180.15 88.3999V87.2939H181.256V85.6279H182.502V87.2939H184.406V88.3999H182.516V91.9419C182.516 92.6559 182.838 93.0059 183.44 93.0059C183.776 93.0059 184.112 92.8799 184.308 92.6559L184.882 93.5939C184.56 93.9019 184.014 94.1679 183.272 94.1679C182.012 94.1679 181.256 93.4259 181.256 91.9839V88.3999H180.15ZM186.827 86.1319C186.393 86.1319 186.057 85.7819 186.057 85.3619C186.057 84.9419 186.393 84.5919 186.827 84.5919C187.247 84.5919 187.597 84.9419 187.597 85.3619C187.597 85.7819 187.247 86.1319 186.827 86.1319ZM187.443 93.9999H186.211V87.2939H187.443V93.9999ZM192.918 93.9999H191.308L188.774 87.2939H190.146L192.148 92.8799L194.178 87.2939H195.452L192.918 93.9999ZM199.543 94.1679C197.499 94.1679 196.029 92.5859 196.029 90.6399C196.029 88.6939 197.443 87.1259 199.347 87.1259C201.223 87.1259 202.651 88.6239 202.651 90.5139C202.651 90.6819 202.637 90.9339 202.609 91.0319H197.303C197.457 92.1939 198.339 93.0619 199.585 93.0619C200.341 93.0619 201.013 92.7679 201.461 92.3199L202.119 93.1739C201.573 93.7619 200.621 94.1679 199.543 94.1679ZM199.361 88.1899C198.311 88.1899 197.555 88.9459 197.331 90.0099H201.349C201.125 88.8479 200.369 88.1899 199.361 88.1899ZM208.662 96.7439H207.43V87.2939H208.662V88.4979C209.166 87.6719 209.964 87.1259 211.014 87.1259C212.834 87.1259 214.262 88.6239 214.262 90.6539C214.262 92.6419 212.89 94.1679 211.014 94.1679C209.964 94.1679 209.166 93.6639 208.662 92.8379V96.7439ZM210.86 93.0059C212.12 93.0059 213.03 91.9699 213.03 90.6539C213.03 89.3519 212.12 88.2879 210.86 88.2879C209.586 88.2879 208.662 89.3519 208.662 90.6539C208.662 91.9699 209.586 93.0059 210.86 93.0059ZM216.016 93.9999V87.2939H217.248V88.2459C217.584 87.5459 218.158 87.1259 218.942 87.1259C219.362 87.1259 219.726 87.2239 219.964 87.4199L219.446 88.5819C219.222 88.4279 218.9 88.3159 218.578 88.3159C217.766 88.3159 217.248 89.0159 217.248 90.1359V93.9999H216.016ZM223.743 94.1679C221.699 94.1679 220.229 92.5859 220.229 90.6399C220.229 88.6939 221.643 87.1259 223.547 87.1259C225.423 87.1259 226.851 88.6239 226.851 90.5139C226.851 90.6819 226.837 90.9339 226.809 91.0319H221.503C221.657 92.1939 222.539 93.0619 223.785 93.0619C224.541 93.0619 225.213 92.7679 225.661 92.3199L226.319 93.1739C225.773 93.7619 224.821 94.1679 223.743 94.1679ZM223.561 88.1899C222.511 88.1899 221.755 88.9459 221.531 90.0099H225.549C225.325 88.8479 224.569 88.1899 223.561 88.1899ZM230.265 94.1679C229.271 94.1679 228.375 93.9019 227.689 93.4959L228.165 92.4739C228.921 92.8659 229.579 93.0899 230.349 93.0899C231.287 93.0899 231.735 92.7259 231.735 92.1939C231.735 90.6679 227.927 91.5919 227.927 89.0019C227.927 88.0079 228.823 87.1259 230.447 87.1259C231.357 87.1259 232.071 87.3499 232.799 87.6999L232.309 88.7219C231.833 88.4559 231.147 88.2179 230.503 88.2179C229.677 88.2179 229.187 88.4979 229.187 88.9879C229.187 90.5279 232.967 89.6179 232.967 92.1659C232.967 93.3139 231.973 94.1679 230.265 94.1679ZM236.499 94.1679C235.505 94.1679 234.609 93.9019 233.923 93.4959L234.399 92.4739C235.155 92.8659 235.813 93.0899 236.583 93.0899C237.521 93.0899 237.969 92.7259 237.969 92.1939C237.969 90.6679 234.161 91.5919 234.161 89.0019C234.161 88.0079 235.057 87.1259 236.681 87.1259C237.591 87.1259 238.305 87.3499 239.033 87.6999L238.543 88.7219C238.067 88.4559 237.381 88.2179 236.737 88.2179C235.911 88.2179 235.421 88.4979 235.421 88.9879C235.421 90.5279 239.201 89.6179 239.201 92.1659C239.201 93.3139 238.207 94.1679 236.499 94.1679Z" fill="black"/>
</svg>
