<svg width="286" height="51" viewBox="0 0 286 51" fill="none" xmlns="http://www.w3.org/2000/svg">
<g clip-path="url(#clip0_6343_38774)">
<path d="M120.5 0H112.5C108.082 0 104.5 3.58172 104.5 8V16C104.5 20.4183 108.082 24 112.5 24H120.5C124.918 24 128.5 20.4183 128.5 16V8C128.5 3.58172 124.918 0 120.5 0Z" fill="#2861BB"/>
<path d="M115.013 17L123.5 8.49112L122.013 7L115.013 14.0178L111.987 10.9822L110.5 12.4734L115.013 17Z" fill="white"/>
<path d="M148.971 7.97792L148.132 8.95792C147.53 8.45392 146.774 8.10392 145.766 8.10392C143.974 8.10392 142.531 9.62992 142.531 11.5199C142.531 13.3959 143.974 14.9219 145.878 14.9219C146.746 14.9219 147.571 14.6279 148.145 14.0959L148.971 15.0199C148.145 15.8319 147.124 16.1679 145.794 16.1679C143.19 16.1679 141.188 14.0819 141.188 11.5199C141.188 8.94392 143.231 6.85792 145.751 6.85792C147.179 6.85792 148.187 7.26392 148.971 7.97792ZM150.412 15.9999V6.36792H151.645V10.3159C152.023 9.57392 152.736 9.12592 153.674 9.12592C155.242 9.12592 156.264 10.2039 156.264 11.8979V15.9999H155.033V12.0939C155.033 10.9879 154.389 10.2879 153.339 10.2879C152.289 10.2879 151.645 10.9879 151.645 12.0939V15.9999H150.412ZM161.421 16.1679C159.377 16.1679 157.906 14.5859 157.906 12.6399C157.906 10.6939 159.321 9.12592 161.225 9.12592C163.101 9.12592 164.528 10.6239 164.528 12.5139C164.528 12.6819 164.514 12.9339 164.486 13.0319H159.18C159.334 14.1939 160.216 15.0619 161.462 15.0619C162.218 15.0619 162.891 14.7679 163.339 14.3199L163.996 15.1739C163.45 15.7619 162.499 16.1679 161.421 16.1679ZM161.238 10.1899C160.188 10.1899 159.432 10.9459 159.208 12.0099H163.227C163.003 10.8479 162.246 10.1899 161.238 10.1899ZM170.91 10.9459C170.448 10.5259 169.874 10.2879 169.132 10.2879C167.802 10.2879 166.891 11.3239 166.891 12.6399C166.891 13.9419 167.815 15.0059 169.117 15.0059C169.859 15.0059 170.489 14.7679 170.938 14.3199L171.581 15.2299C171.049 15.8039 170.111 16.1679 169.089 16.1679C167.129 16.1679 165.645 14.5859 165.645 12.6399C165.645 10.6939 167.144 9.12592 169.104 9.12592C170.168 9.12592 171.063 9.48992 171.623 10.0639L170.91 10.9459ZM174.189 15.9999H172.957V6.36792H174.189V12.2199L177.339 9.29392H178.908L175.533 12.4299L179.145 15.9999H177.521L174.189 12.6819V15.9999ZM183.842 9.12592C185.662 9.12592 187.09 10.6239 187.09 12.6539C187.09 14.6419 185.718 16.1679 183.842 16.1679C182.792 16.1679 181.994 15.6639 181.49 14.8379V15.9999H180.258V6.36792H181.49V10.4979C181.994 9.67192 182.792 9.12592 183.842 9.12592ZM183.688 10.2879C182.414 10.2879 181.49 11.3519 181.49 12.6539C181.49 13.9699 182.414 15.0059 183.688 15.0059C184.948 15.0059 185.858 13.9699 185.858 12.6539C185.858 11.3519 184.948 10.2879 183.688 10.2879ZM191.77 16.1679C189.852 16.1679 188.354 14.5859 188.354 12.6399C188.354 10.6939 189.852 9.12592 191.77 9.12592C193.702 9.12592 195.201 10.6939 195.201 12.6399C195.201 14.5859 193.702 16.1679 191.77 16.1679ZM191.785 15.0059C193.045 15.0059 193.954 13.9419 193.954 12.6399C193.954 11.3239 193.045 10.2879 191.785 10.2879C190.511 10.2879 189.6 11.3239 189.6 12.6399C189.6 13.9419 190.511 15.0059 191.785 15.0059ZM195.632 15.9999L198.221 12.5839L195.743 9.29392H197.283L199.033 11.6319L200.826 9.29392H202.225L199.747 12.5699L202.324 15.9999H200.783L198.921 13.5219L197.031 15.9999H195.632Z" fill="black"/>
<path d="M24 12C24 5.37258 18.6274 0 12 0C5.37258 0 0 5.37258 0 12C0 18.6274 5.37258 24 12 24C18.6274 24 24 18.6274 24 12Z" fill="#F7D055"/>
<path d="M13.684 6.81812V16.9999H11.8395V8.61287H11.7799L9.39844 10.1341V8.44382L11.929 6.81812H13.684Z" fill="black"/>
<path d="M240 39C240 32.3726 234.627 27 228 27C221.373 27 216 32.3726 216 39C216 45.6274 221.373 51 228 51C234.627 51 240 45.6274 240 39Z" fill="#F7D055"/>
<path d="M224.555 44V42.6676L228.09 39.2024C228.428 38.861 228.71 38.5578 228.935 38.2926C229.161 38.0275 229.33 37.7706 229.442 37.522C229.555 37.2734 229.611 37.0083 229.611 36.7266C229.611 36.4051 229.538 36.13 229.393 35.9013C229.247 35.6693 229.046 35.4903 228.791 35.3643C228.536 35.2384 228.246 35.1754 227.921 35.1754C227.586 35.1754 227.293 35.245 227.041 35.3842C226.789 35.5201 226.594 35.714 226.454 35.9659C226.318 36.2178 226.25 36.5178 226.25 36.8658H224.496C224.496 36.2195 224.643 35.6577 224.938 35.1804C225.233 34.7031 225.639 34.3336 226.156 34.0717C226.676 33.8099 227.273 33.679 227.946 33.679C228.629 33.679 229.228 33.8066 229.746 34.0618C230.263 34.317 230.664 34.6667 230.949 35.1108C231.237 35.5549 231.381 36.062 231.381 36.6321C231.381 37.0133 231.308 37.3878 231.162 37.7557C231.017 38.1236 230.76 38.5312 230.392 38.9787C230.027 39.4261 229.515 39.968 228.856 40.6044L227.101 42.3892V42.4588H231.535V44H224.555Z" fill="black"/>
<path d="M286 12C286 5.37258 280.627 0 274 0C267.373 0 262 5.37258 262 12C262 18.6274 267.373 24 274 24C280.627 24 286 18.6274 286 12Z" fill="#F7D055"/>
<path d="M273.999 17.1392C273.283 17.1392 272.647 17.0166 272.09 16.7713C271.537 16.526 271.099 16.1847 270.778 15.7472C270.456 15.3097 270.286 14.8042 270.266 14.2308H272.135C272.152 14.5059 272.243 14.7462 272.408 14.9517C272.574 15.1539 272.795 15.3113 273.07 15.424C273.345 15.5367 273.653 15.593 273.994 15.593C274.359 15.593 274.682 15.5301 274.964 15.4041C275.246 15.2749 275.466 15.0959 275.625 14.8672C275.784 14.6385 275.862 14.375 275.859 14.0767C275.862 13.7685 275.783 13.4967 275.62 13.2614C275.458 13.026 275.222 12.8421 274.914 12.7095C274.609 12.5769 274.241 12.5107 273.81 12.5107H272.911V11.0888H273.81C274.165 11.0888 274.475 11.0275 274.74 10.9048C275.009 10.7822 275.219 10.6098 275.372 10.3878C275.524 10.1624 275.599 9.9022 275.595 9.60721C275.599 9.31886 275.534 9.06864 275.401 8.85651C275.272 8.64108 275.088 8.47369 274.85 8.35437C274.614 8.23505 274.337 8.17541 274.019 8.17541C273.708 8.17541 273.419 8.23174 273.154 8.34443C272.889 8.45712 272.675 8.61788 272.513 8.82668C272.35 9.03218 272.264 9.27744 272.254 9.56248H270.479C270.493 8.9924 270.657 8.49193 270.972 8.06106C271.29 7.62687 271.714 7.2888 272.244 7.04685C272.775 6.80158 273.37 6.67896 274.029 6.67896C274.709 6.67896 275.299 6.80656 275.799 7.06177C276.303 7.31366 276.692 7.65339 276.967 8.08095C277.243 8.5085 277.38 8.9808 277.38 9.49785C277.383 10.0713 277.214 10.5518 276.873 10.9396C276.535 11.3274 276.091 11.581 275.541 11.7003V11.7798C276.256 11.8793 276.805 12.1444 277.186 12.5753C277.571 13.0028 277.761 13.5348 277.758 14.1712C277.758 14.7412 277.595 15.2517 277.271 15.7024C276.949 16.1499 276.505 16.5012 275.938 16.7564C275.375 17.0116 274.729 17.1392 273.999 17.1392Z" fill="black"/>
<path d="M218 38H116V40H218V38Z" fill="#F7D055"/>
<path d="M104 11H24V13H104V11Z" fill="#F7D055"/>
<path d="M102 17C104.761 17 107 14.7614 107 12C107 9.23858 104.761 7 102 7C99.2386 7 97 9.23858 97 12C97 14.7614 99.2386 17 102 17Z" fill="#F7D055"/>
<path d="M208 17C210.761 17 213 14.7614 213 12C213 9.23858 210.761 7 208 7C205.239 7 203 9.23858 203 12C203 14.7614 205.239 17 208 17Z" fill="#F7D055"/>
<path d="M117 25C119.761 25 122 22.7614 122 20C122 17.2386 119.761 15 117 15C114.239 15 112 17.2386 112 20C112 22.7614 114.239 25 117 25Z" fill="#F7D055"/>
<path d="M266 11H206V13H266V11Z" fill="#F7D055"/>
</g>
<defs>
<clipPath id="clip0_6343_38774">
<rect width="286" height="51" fill="white"/>
</clipPath>
</defs>
</svg>
