<svg width="240" height="132" viewBox="0 0 240 132" fill="none" xmlns="http://www.w3.org/2000/svg">
<g clip-path="url(#clip0_6343_38979)">
<path d="M24 1H12C5.92487 1 1 5.92487 1 12V24C1 30.0751 5.92487 35 12 35H24C30.0751 35 35 30.0751 35 24V12C35 5.92487 30.0751 1 24 1Z" stroke="black" stroke-width="2"/>
<path d="M22 7H14C10.134 7 7 10.134 7 14V22C7 25.866 10.134 29 14 29H22C25.866 29 29 25.866 29 22V14C29 10.134 25.866 7 22 7Z" stroke="#5D5D5D" stroke-width="2"/>
<path d="M50.4715 13.9779L49.6315 14.9579C49.0295 14.4539 48.2735 14.1039 47.2655 14.1039C45.4735 14.1039 44.0315 15.6299 44.0315 17.5199C44.0315 19.3959 45.4735 20.9219 47.3775 20.9219C48.2455 20.9219 49.0715 20.6279 49.6455 20.0959L50.4715 21.0199C49.6455 21.8319 48.6235 22.1679 47.2935 22.1679C44.6895 22.1679 42.6875 20.0819 42.6875 17.5199C42.6875 14.9439 44.7315 12.8579 47.2515 12.8579C48.6795 12.8579 49.6875 13.2639 50.4715 13.9779ZM51.9125 21.9999V12.3679H53.1445V16.3159C53.5225 15.5739 54.2365 15.1259 55.1745 15.1259C56.7425 15.1259 57.7645 16.2039 57.7645 17.8979V21.9999H56.5325V18.0939C56.5325 16.9879 55.8885 16.2879 54.8385 16.2879C53.7885 16.2879 53.1445 16.9879 53.1445 18.0939V21.9999H51.9125ZM62.9209 22.1679C60.8769 22.1679 59.4069 20.5859 59.4069 18.6399C59.4069 16.6939 60.8209 15.1259 62.7249 15.1259C64.6009 15.1259 66.0289 16.6239 66.0289 18.5139C66.0289 18.6819 66.0149 18.9339 65.9869 19.0319H60.6809C60.8349 20.1939 61.7169 21.0619 62.9629 21.0619C63.7189 21.0619 64.3909 20.7679 64.8389 20.3199L65.4969 21.1739C64.9509 21.7619 63.9989 22.1679 62.9209 22.1679ZM62.7389 16.1899C61.6889 16.1899 60.9329 16.9459 60.7089 18.0099H64.7269C64.5029 16.8479 63.7469 16.1899 62.7389 16.1899ZM72.4092 16.9459C71.9472 16.5259 71.3732 16.2879 70.6312 16.2879C69.3012 16.2879 68.3912 17.3239 68.3912 18.6399C68.3912 19.9419 69.3152 21.0059 70.6172 21.0059C71.3592 21.0059 71.9892 20.7679 72.4372 20.3199L73.0812 21.2299C72.5492 21.8039 71.6112 22.1679 70.5892 22.1679C68.6292 22.1679 67.1452 20.5859 67.1452 18.6399C67.1452 16.6939 68.6432 15.1259 70.6032 15.1259C71.6672 15.1259 72.5632 15.4899 73.1232 16.0639L72.4092 16.9459ZM75.6894 21.9999H74.4574V12.3679H75.6894V18.2199L78.8394 15.2939H80.4074L77.0334 18.4299L80.6454 21.9999H79.0214L75.6894 18.6819V21.9999ZM85.3422 15.1259C87.1622 15.1259 88.5902 16.6239 88.5902 18.6539C88.5902 20.6419 87.2182 22.1679 85.3422 22.1679C84.2922 22.1679 83.4942 21.6639 82.9902 20.8379V21.9999H81.7582V12.3679H82.9902V16.4979C83.4942 15.6719 84.2922 15.1259 85.3422 15.1259ZM85.1882 16.2879C83.9142 16.2879 82.9902 17.3519 82.9902 18.6539C82.9902 19.9699 83.9142 21.0059 85.1882 21.0059C86.4482 21.0059 87.3582 19.9699 87.3582 18.6539C87.3582 17.3519 86.4482 16.2879 85.1882 16.2879ZM93.2702 22.1679C91.3522 22.1679 89.8542 20.5859 89.8542 18.6399C89.8542 16.6939 91.3522 15.1259 93.2702 15.1259C95.2022 15.1259 96.7002 16.6939 96.7002 18.6399C96.7002 20.5859 95.2022 22.1679 93.2702 22.1679ZM93.2842 21.0059C94.5442 21.0059 95.4542 19.9419 95.4542 18.6399C95.4542 17.3239 94.5442 16.2879 93.2842 16.2879C92.0102 16.2879 91.1002 17.3239 91.1002 18.6399C91.1002 19.9419 92.0102 21.0059 93.2842 21.0059ZM97.1314 21.9999L99.7214 18.5839L97.2434 15.2939H98.7834L100.533 17.6319L102.325 15.2939H103.725L101.248 18.5699L103.823 21.9999H102.283L100.421 19.5219L98.5314 21.9999H97.1314ZM109.555 24.7439H108.322V15.2939H109.555V16.4979C110.059 15.6719 110.856 15.1259 111.906 15.1259C113.726 15.1259 115.154 16.6239 115.154 18.6539C115.154 20.6419 113.782 22.1679 111.906 22.1679C110.856 22.1679 110.059 21.6639 109.555 20.8379V24.7439ZM111.753 21.0059C113.013 21.0059 113.923 19.9699 113.923 18.6539C113.923 17.3519 113.013 16.2879 111.753 16.2879C110.479 16.2879 109.555 17.3519 109.555 18.6539C109.555 19.9699 110.479 21.0059 111.753 21.0059ZM116.908 21.9999V15.2939H118.141V16.2459C118.477 15.5459 119.051 15.1259 119.835 15.1259C120.255 15.1259 120.619 15.2239 120.857 15.4199L120.339 16.5819C120.115 16.4279 119.793 16.3159 119.471 16.3159C118.659 16.3159 118.141 17.0159 118.141 18.1359V21.9999H116.908ZM124.635 22.1679C122.591 22.1679 121.122 20.5859 121.122 18.6399C121.122 16.6939 122.535 15.1259 124.439 15.1259C126.315 15.1259 127.743 16.6239 127.743 18.5139C127.743 18.6819 127.729 18.9339 127.701 19.0319H122.395C122.549 20.1939 123.432 21.0619 124.678 21.0619C125.434 21.0619 126.105 20.7679 126.553 20.3199L127.212 21.1739C126.666 21.7619 125.713 22.1679 124.635 22.1679ZM124.454 16.1899C123.404 16.1899 122.647 16.9459 122.423 18.0099H126.441C126.217 16.8479 125.462 16.1899 124.454 16.1899ZM131.158 22.1679C130.164 22.1679 129.267 21.9019 128.581 21.4959L129.057 20.4739C129.813 20.8659 130.472 21.0899 131.242 21.0899C132.18 21.0899 132.628 20.7259 132.628 20.1939C132.628 18.6679 128.819 19.5919 128.819 17.0019C128.819 16.0079 129.715 15.1259 131.339 15.1259C132.249 15.1259 132.963 15.3499 133.691 15.6999L133.201 16.7219C132.725 16.4559 132.039 16.2179 131.395 16.2179C130.569 16.2179 130.079 16.4979 130.079 16.9879C130.079 18.5279 133.859 17.6179 133.859 20.1659C133.859 21.3139 132.866 22.1679 131.158 22.1679ZM137.393 22.1679C136.399 22.1679 135.502 21.9019 134.816 21.4959L135.292 20.4739C136.048 20.8659 136.707 21.0899 137.477 21.0899C138.415 21.0899 138.862 20.7259 138.862 20.1939C138.862 18.6679 135.054 19.5919 135.054 17.0019C135.054 16.0079 135.95 15.1259 137.574 15.1259C138.484 15.1259 139.198 15.3499 139.926 15.6999L139.436 16.7219C138.96 16.4559 138.274 16.2179 137.63 16.2179C136.804 16.2179 136.314 16.4979 136.314 16.9879C136.314 18.5279 140.094 17.6179 140.094 20.1659C140.094 21.3139 139.101 22.1679 137.393 22.1679ZM144.76 22.1679C142.716 22.1679 141.246 20.5859 141.246 18.6399C141.246 16.6939 142.66 15.1259 144.564 15.1259C146.44 15.1259 147.868 16.6239 147.868 18.5139C147.868 18.6819 147.854 18.9339 147.826 19.0319H142.52C142.674 20.1939 143.556 21.0619 144.802 21.0619C145.558 21.0619 146.23 20.7679 146.678 20.3199L147.337 21.1739C146.791 21.7619 145.838 22.1679 144.76 22.1679ZM144.578 16.1899C143.528 16.1899 142.772 16.9459 142.548 18.0099H146.566C146.342 16.8479 145.586 16.1899 144.578 16.1899ZM152.233 22.1679C150.413 22.1679 148.985 20.6699 148.985 18.6399C148.985 16.6519 150.357 15.1259 152.233 15.1259C153.283 15.1259 154.081 15.6299 154.585 16.4559V12.3679H155.831V21.9999H154.585V20.7959C154.081 21.6219 153.283 22.1679 152.233 22.1679ZM152.415 21.0059C153.675 21.0059 154.585 19.9419 154.585 18.6399C154.585 17.3239 153.675 16.2879 152.415 16.2879C151.141 16.2879 150.231 17.3239 150.231 18.6399C150.231 19.9419 151.141 21.0059 152.415 21.0059ZM163.122 22.1679C162.128 22.1679 161.232 21.9019 160.546 21.4959L161.022 20.4739C161.778 20.8659 162.436 21.0899 163.206 21.0899C164.144 21.0899 164.592 20.7259 164.592 20.1939C164.592 18.6679 160.785 19.5919 160.785 17.0019C160.785 16.0079 161.68 15.1259 163.304 15.1259C164.214 15.1259 164.928 15.3499 165.656 15.6999L165.166 16.7219C164.69 16.4559 164.004 16.2179 163.36 16.2179C162.534 16.2179 162.044 16.4979 162.044 16.9879C162.044 18.5279 165.824 17.6179 165.824 20.1659C165.824 21.3139 164.83 22.1679 163.122 22.1679ZM166.712 16.3999V15.2939H167.817V13.6279H169.063V15.2939H170.967V16.3999H169.077V19.9419C169.077 20.6559 169.399 21.0059 170.001 21.0059C170.337 21.0059 170.673 20.8799 170.869 20.6559L171.443 21.5939C171.121 21.9019 170.575 22.1679 169.833 22.1679C168.573 22.1679 167.817 21.4259 167.817 19.9839V16.3999H166.712ZM175.16 22.1679C173.34 22.1679 171.912 20.6699 171.912 18.6399C171.912 16.6519 173.284 15.1259 175.16 15.1259C176.21 15.1259 177.008 15.6299 177.512 16.4559V15.2939H178.758V21.9999H177.512V20.7959C177.008 21.6219 176.21 22.1679 175.16 22.1679ZM175.342 21.0059C176.602 21.0059 177.512 19.9419 177.512 18.6399C177.512 17.3239 176.602 16.2879 175.342 16.2879C174.068 16.2879 173.158 17.3239 173.158 18.6399C173.158 19.9419 174.068 21.0059 175.342 21.0059ZM180.232 16.3999V15.2939H181.339V13.6279H182.584V15.2939H184.488V16.3999H182.598V19.9419C182.598 20.6559 182.92 21.0059 183.522 21.0059C183.858 21.0059 184.195 20.8799 184.391 20.6559L184.964 21.5939C184.642 21.9019 184.096 22.1679 183.354 22.1679C182.094 22.1679 181.339 21.4259 181.339 19.9839V16.3999H180.232ZM188.949 22.1679C186.905 22.1679 185.434 20.5859 185.434 18.6399C185.434 16.6939 186.849 15.1259 188.753 15.1259C190.629 15.1259 192.056 16.6239 192.056 18.5139C192.056 18.6819 192.042 18.9339 192.014 19.0319H186.708C186.862 20.1939 187.744 21.0619 188.99 21.0619C189.746 21.0619 190.419 20.7679 190.867 20.3199L191.524 21.1739C190.978 21.7619 190.027 22.1679 188.949 22.1679ZM188.766 16.1899C187.716 16.1899 186.96 16.9459 186.736 18.0099H190.755C190.531 16.8479 189.774 16.1899 188.766 16.1899Z" fill="black"/>
<path d="M24 49H12C5.92487 49 1 53.9249 1 60V72C1 78.0751 5.92487 83 12 83H24C30.0751 83 35 78.0751 35 72V60C35 53.9249 30.0751 49 24 49Z" stroke="black" stroke-width="2"/>
<path d="M22 54H14C9.58172 54 6 57.5817 6 62V70C6 74.4183 9.58172 78 14 78H22C26.4183 78 30 74.4183 30 70V62C30 57.5817 26.4183 54 22 54Z" fill="#2861BB"/>
<path d="M16.5133 71L25 62.4911L23.5133 61L16.5133 68.0178L13.4867 64.9822L12 66.4734L16.5133 71Z" fill="white"/>
<path d="M50.4715 61.9779L49.6315 62.9579C49.0295 62.4539 48.2735 62.1039 47.2655 62.1039C45.4735 62.1039 44.0315 63.6299 44.0315 65.5199C44.0315 67.3959 45.4735 68.9219 47.3775 68.9219C48.2455 68.9219 49.0715 68.6279 49.6455 68.0959L50.4715 69.0199C49.6455 69.8319 48.6235 70.1679 47.2935 70.1679C44.6895 70.1679 42.6875 68.0819 42.6875 65.5199C42.6875 62.9439 44.7315 60.8579 47.2515 60.8579C48.6795 60.8579 49.6875 61.2639 50.4715 61.9779ZM51.9125 69.9999V60.3679H53.1445V64.3159C53.5225 63.5739 54.2365 63.1259 55.1745 63.1259C56.7425 63.1259 57.7645 64.2039 57.7645 65.8979V69.9999H56.5325V66.0939C56.5325 64.9879 55.8885 64.2879 54.8385 64.2879C53.7885 64.2879 53.1445 64.9879 53.1445 66.0939V69.9999H51.9125ZM62.9209 70.1679C60.8769 70.1679 59.4069 68.5859 59.4069 66.6399C59.4069 64.6939 60.8209 63.1259 62.7249 63.1259C64.6009 63.1259 66.0289 64.6239 66.0289 66.5139C66.0289 66.6819 66.0149 66.9339 65.9869 67.0319H60.6809C60.8349 68.1939 61.7169 69.0619 62.9629 69.0619C63.7189 69.0619 64.3909 68.7679 64.8389 68.3199L65.4969 69.1739C64.9509 69.7619 63.9989 70.1679 62.9209 70.1679ZM62.7389 64.1899C61.6889 64.1899 60.9329 64.9459 60.7089 66.0099H64.7269C64.5029 64.8479 63.7469 64.1899 62.7389 64.1899ZM72.4092 64.9459C71.9472 64.5259 71.3732 64.2879 70.6312 64.2879C69.3012 64.2879 68.3912 65.3239 68.3912 66.6399C68.3912 67.9419 69.3152 69.0059 70.6172 69.0059C71.3592 69.0059 71.9892 68.7679 72.4372 68.3199L73.0812 69.2299C72.5492 69.8039 71.6112 70.1679 70.5892 70.1679C68.6292 70.1679 67.1452 68.5859 67.1452 66.6399C67.1452 64.6939 68.6432 63.1259 70.6032 63.1259C71.6672 63.1259 72.5632 63.4899 73.1232 64.0639L72.4092 64.9459ZM75.6894 69.9999H74.4574V60.3679H75.6894V66.2199L78.8394 63.2939H80.4074L77.0334 66.4299L80.6454 69.9999H79.0214L75.6894 66.6819V69.9999ZM84.1807 70.1679C82.1367 70.1679 80.6667 68.5859 80.6667 66.6399C80.6667 64.6939 82.0807 63.1259 83.9847 63.1259C85.8607 63.1259 87.2887 64.6239 87.2887 66.5139C87.2887 66.6819 87.2747 66.9339 87.2467 67.0319H81.9407C82.0947 68.1939 82.9767 69.0619 84.2227 69.0619C84.9787 69.0619 85.6507 68.7679 86.0987 68.3199L86.7567 69.1739C86.2107 69.7619 85.2587 70.1679 84.1807 70.1679ZM83.9987 64.1899C82.9487 64.1899 82.1927 64.9459 81.9687 66.0099H85.9867C85.7627 64.8479 85.0067 64.1899 83.9987 64.1899ZM91.6529 70.1679C89.8329 70.1679 88.4049 68.6699 88.4049 66.6399C88.4049 64.6519 89.7769 63.1259 91.6529 63.1259C92.7029 63.1259 93.5009 63.6299 94.0049 64.4559V60.3679H95.2509V69.9999H94.0049V68.7959C93.5009 69.6219 92.7029 70.1679 91.6529 70.1679ZM91.8349 69.0059C93.0949 69.0059 94.0049 67.9419 94.0049 66.6399C94.0049 65.3239 93.0949 64.2879 91.8349 64.2879C90.5609 64.2879 89.6509 65.3239 89.6509 66.6399C89.6509 67.9419 90.5609 69.0059 91.8349 69.0059ZM103.41 70.1679C101.59 70.1679 100.163 68.6699 100.163 66.6399C100.163 64.6519 101.534 63.1259 103.41 63.1259C104.46 63.1259 105.259 63.6299 105.763 64.4559V63.2939H107.008V69.9999H105.763V68.7959C105.259 69.6219 104.46 70.1679 103.41 70.1679ZM103.593 69.0059C104.853 69.0059 105.763 67.9419 105.763 66.6399C105.763 65.3239 104.853 64.2879 103.593 64.2879C102.319 64.2879 101.408 65.3239 101.408 66.6399C101.408 67.9419 102.319 69.0059 103.593 69.0059ZM109.238 69.9999V63.2939H110.471V64.3159C110.849 63.5739 111.563 63.1259 112.501 63.1259C114.069 63.1259 115.09 64.2039 115.09 65.8979V69.9999H113.859V66.0939C113.859 64.9879 113.215 64.2879 112.165 64.2879C111.115 64.2879 110.471 64.9879 110.471 66.0939V69.9999H109.238ZM119.982 70.1679C118.162 70.1679 116.734 68.6699 116.734 66.6399C116.734 64.6519 118.106 63.1259 119.982 63.1259C121.032 63.1259 121.829 63.6299 122.333 64.4559V60.3679H123.579V69.9999H122.333V68.7959C121.829 69.6219 121.032 70.1679 119.982 70.1679ZM120.163 69.0059C121.423 69.0059 122.333 67.9419 122.333 66.6399C122.333 65.3239 121.423 64.2879 120.163 64.2879C118.889 64.2879 117.979 65.3239 117.979 66.6399C117.979 67.9419 118.889 69.0059 120.163 69.0059ZM131.738 70.1679C129.918 70.1679 128.49 68.6699 128.49 66.6399C128.49 64.6519 129.862 63.1259 131.738 63.1259C132.788 63.1259 133.586 63.6299 134.09 64.4559V63.2939H135.337V69.9999H134.09V68.7959C133.586 69.6219 132.788 70.1679 131.738 70.1679ZM131.921 69.0059C133.181 69.0059 134.09 67.9419 134.09 66.6399C134.09 65.3239 133.181 64.2879 131.921 64.2879C130.647 64.2879 129.736 65.3239 129.736 66.6399C129.736 67.9419 130.647 69.0059 131.921 69.0059ZM142.34 64.9459C141.878 64.5259 141.304 64.2879 140.562 64.2879C139.232 64.2879 138.322 65.3239 138.322 66.6399C138.322 67.9419 139.246 69.0059 140.548 69.0059C141.29 69.0059 141.92 68.7679 142.368 68.3199L143.012 69.2299C142.48 69.8039 141.542 70.1679 140.52 70.1679C138.56 70.1679 137.076 68.5859 137.076 66.6399C137.076 64.6939 138.575 63.1259 140.535 63.1259C141.599 63.1259 142.494 63.4899 143.054 64.0639L142.34 64.9459ZM143.633 64.3999V63.2939H144.74V61.6279H145.985V63.2939H147.889V64.3999H145.999V67.9419C145.999 68.6559 146.321 69.0059 146.923 69.0059C147.259 69.0059 147.595 68.8799 147.791 68.6559L148.365 69.5939C148.043 69.9019 147.497 70.1679 146.755 70.1679C145.495 70.1679 144.74 69.4259 144.74 67.9839V64.3999H143.633ZM150.309 62.1319C149.875 62.1319 149.539 61.7819 149.539 61.3619C149.539 60.9419 149.875 60.5919 150.309 60.5919C150.729 60.5919 151.079 60.9419 151.079 61.3619C151.079 61.7819 150.729 62.1319 150.309 62.1319ZM150.925 69.9999H149.693V63.2939H150.925V69.9999ZM156.4 69.9999H154.79L152.257 63.2939H153.628L155.63 68.8799L157.66 63.2939H158.934L156.4 69.9999ZM163.026 70.1679C160.982 70.1679 159.512 68.5859 159.512 66.6399C159.512 64.6939 160.926 63.1259 162.83 63.1259C164.706 63.1259 166.134 64.6239 166.134 66.5139C166.134 66.6819 166.12 66.9339 166.092 67.0319H160.786C160.94 68.1939 161.822 69.0619 163.068 69.0619C163.824 69.0619 164.496 68.7679 164.944 68.3199L165.602 69.1739C165.056 69.7619 164.104 70.1679 163.026 70.1679ZM162.844 64.1899C161.794 64.1899 161.038 64.9459 160.814 66.0099H164.832C164.608 64.8479 163.852 64.1899 162.844 64.1899ZM172.145 72.7439H170.912V63.2939H172.145V64.4979C172.649 63.6719 173.446 63.1259 174.496 63.1259C176.316 63.1259 177.744 64.6239 177.744 66.6539C177.744 68.6419 176.372 70.1679 174.496 70.1679C173.446 70.1679 172.649 69.6639 172.145 68.8379V72.7439ZM174.342 69.0059C175.602 69.0059 176.512 67.9699 176.512 66.6539C176.512 65.3519 175.602 64.2879 174.342 64.2879C173.068 64.2879 172.145 65.3519 172.145 66.6539C172.145 67.9699 173.068 69.0059 174.342 69.0059ZM179.498 69.9999V63.2939H180.73V64.2459C181.066 63.5459 181.64 63.1259 182.424 63.1259C182.844 63.1259 183.209 63.2239 183.447 63.4199L182.928 64.5819C182.704 64.4279 182.383 64.3159 182.061 64.3159C181.249 64.3159 180.73 65.0159 180.73 66.1359V69.9999H179.498ZM187.225 70.1679C185.181 70.1679 183.712 68.5859 183.712 66.6399C183.712 64.6939 185.125 63.1259 187.029 63.1259C188.905 63.1259 190.333 64.6239 190.333 66.5139C190.333 66.6819 190.319 66.9339 190.291 67.0319H184.985C185.139 68.1939 186.022 69.0619 187.268 69.0619C188.024 69.0619 188.695 68.7679 189.143 68.3199L189.801 69.1739C189.255 69.7619 188.303 70.1679 187.225 70.1679ZM187.044 64.1899C185.994 64.1899 185.237 64.9459 185.013 66.0099H189.031C188.807 64.8479 188.052 64.1899 187.044 64.1899ZM193.747 70.1679C192.753 70.1679 191.857 69.9019 191.171 69.4959L191.647 68.4739C192.403 68.8659 193.061 69.0899 193.831 69.0899C194.769 69.0899 195.217 68.7259 195.217 68.1939C195.217 66.6679 191.41 67.5919 191.41 65.0019C191.41 64.0079 192.305 63.1259 193.929 63.1259C194.839 63.1259 195.553 63.3499 196.281 63.6999L195.791 64.7219C195.315 64.4559 194.629 64.2179 193.985 64.2179C193.159 64.2179 192.669 64.4979 192.669 64.9879C192.669 66.5279 196.449 65.6179 196.449 68.1659C196.449 69.3139 195.455 70.1679 193.747 70.1679ZM199.982 70.1679C198.988 70.1679 198.092 69.9019 197.406 69.4959L197.882 68.4739C198.638 68.8659 199.296 69.0899 200.066 69.0899C201.004 69.0899 201.452 68.7259 201.452 68.1939C201.452 66.6679 197.645 67.5919 197.645 65.0019C197.645 64.0079 198.54 63.1259 200.164 63.1259C201.074 63.1259 201.788 63.3499 202.516 63.6999L202.026 64.7219C201.55 64.4559 200.864 64.2179 200.22 64.2179C199.394 64.2179 198.904 64.4979 198.904 64.9879C198.904 66.5279 202.684 65.6179 202.684 68.1659C202.684 69.3139 201.69 70.1679 199.982 70.1679Z" fill="black"/>
<path d="M24 97H12C5.92487 97 1 101.925 1 108V120C1 126.075 5.92487 131 12 131H24C30.0751 131 35 126.075 35 120V108C35 101.925 30.0751 97 24 97Z" stroke="black" stroke-width="2"/>
<path d="M22 102H14C9.58172 102 6 105.582 6 110V118C6 122.418 9.58172 126 14 126H22C26.4183 126 30 122.418 30 118V110C30 105.582 26.4183 102 22 102Z" fill="#2861BB"/>
<path d="M24 113H12V115H24V113Z" fill="white"/>
<path d="M43.1914 118V109.026H44.4514V118H43.1914ZM46.7581 118V111.294H47.9901V112.316C48.3681 111.574 49.0821 111.126 50.0201 111.126C51.5881 111.126 52.6101 112.204 52.6101 113.898V118H51.3781V114.094C51.3781 112.988 50.7341 112.288 49.6841 112.288C48.6341 112.288 47.9901 112.988 47.9901 114.094V118H46.7581ZM57.5005 118.168C55.6805 118.168 54.2525 116.67 54.2525 114.64C54.2525 112.652 55.6245 111.126 57.5005 111.126C58.5505 111.126 59.3485 111.63 59.8525 112.456V108.368H61.0985V118H59.8525V116.796C59.3485 117.622 58.5505 118.168 57.5005 118.168ZM57.6825 117.006C58.9425 117.006 59.8525 115.942 59.8525 114.64C59.8525 113.324 58.9425 112.288 57.6825 112.288C56.4085 112.288 55.4985 113.324 55.4985 114.64C55.4985 115.942 56.4085 117.006 57.6825 117.006ZM66.3524 118.168C64.3084 118.168 62.8384 116.586 62.8384 114.64C62.8384 112.694 64.2524 111.126 66.1564 111.126C68.0324 111.126 69.4604 112.624 69.4604 114.514C69.4604 114.682 69.4464 114.934 69.4184 115.032H64.1124C64.2664 116.194 65.1484 117.062 66.3944 117.062C67.1504 117.062 67.8224 116.768 68.2704 116.32L68.9284 117.174C68.3824 117.762 67.4304 118.168 66.3524 118.168ZM66.1704 112.19C65.1204 112.19 64.3644 112.946 64.1404 114.01H68.1584C67.9344 112.848 67.1784 112.19 66.1704 112.19ZM70.3107 112.4V111.294H71.4167V109.628H72.6627V111.294H74.5667V112.4H72.6767V115.942C72.6767 116.656 72.9987 117.006 73.6007 117.006C73.9367 117.006 74.2727 116.88 74.4687 116.656L75.0427 117.594C74.7207 117.902 74.1747 118.168 73.4327 118.168C72.1727 118.168 71.4167 117.426 71.4167 115.984V112.4H70.3107ZM79.0263 118.168C76.9823 118.168 75.5123 116.586 75.5123 114.64C75.5123 112.694 76.9263 111.126 78.8303 111.126C80.7063 111.126 82.1343 112.624 82.1343 114.514C82.1343 114.682 82.1203 114.934 82.0923 115.032H76.7863C76.9403 116.194 77.8223 117.062 79.0683 117.062C79.8243 117.062 80.4963 116.768 80.9443 116.32L81.6023 117.174C81.0563 117.762 80.1043 118.168 79.0263 118.168ZM78.8443 112.19C77.7943 112.19 77.0383 112.946 76.8143 114.01H80.8323C80.6083 112.848 79.8523 112.19 78.8443 112.19ZM83.7405 118V111.294H84.9725V112.246C85.3085 111.546 85.8825 111.126 86.6665 111.126C87.0865 111.126 87.4505 111.224 87.6885 111.42L87.1705 112.582C86.9465 112.428 86.6245 112.316 86.3025 112.316C85.4905 112.316 84.9725 113.016 84.9725 114.136V118H83.7405ZM90.2362 118H89.0042V111.294H90.2362V112.358C90.6002 111.602 91.3002 111.126 92.2102 111.126C93.2882 111.126 94.1002 111.672 94.4782 112.61C94.8002 111.742 95.5282 111.126 96.6062 111.126C98.1602 111.126 99.1682 112.176 99.1682 113.898V118H97.9222V114.094C97.9222 112.988 97.3202 112.288 96.3122 112.288C95.3182 112.288 94.7022 112.988 94.7022 114.094V118H93.4562V114.094C93.4562 112.988 92.8542 112.288 91.8602 112.288C90.8522 112.288 90.2362 112.988 90.2362 114.094V118ZM101.897 110.132C101.463 110.132 101.127 109.782 101.127 109.362C101.127 108.942 101.463 108.592 101.897 108.592C102.317 108.592 102.667 108.942 102.667 109.362C102.667 109.782 102.317 110.132 101.897 110.132ZM102.513 118H101.281V111.294H102.513V118ZM104.754 118V111.294H105.986V112.316C106.364 111.574 107.078 111.126 108.016 111.126C109.584 111.126 110.606 112.204 110.606 113.898V118H109.374V114.094C109.374 112.988 108.73 112.288 107.68 112.288C106.63 112.288 105.986 112.988 105.986 114.094V118H104.754ZM115.496 118.168C113.676 118.168 112.248 116.67 112.248 114.64C112.248 112.652 113.62 111.126 115.496 111.126C116.546 111.126 117.344 111.63 117.848 112.456V111.294H119.094V118H117.848V116.796C117.344 117.622 116.546 118.168 115.496 118.168ZM115.678 117.006C116.938 117.006 117.848 115.942 117.848 114.64C117.848 113.324 116.938 112.288 115.678 112.288C114.404 112.288 113.494 113.324 113.494 114.64C113.494 115.942 114.404 117.006 115.678 117.006ZM120.568 112.4V111.294H121.674V109.628H122.92V111.294H124.824V112.4H122.934V115.942C122.934 116.656 123.256 117.006 123.858 117.006C124.194 117.006 124.53 116.88 124.726 116.656L125.3 117.594C124.978 117.902 124.432 118.168 123.69 118.168C122.43 118.168 121.674 117.426 121.674 115.984V112.4H120.568ZM129.284 118.168C127.24 118.168 125.77 116.586 125.77 114.64C125.77 112.694 127.184 111.126 129.088 111.126C130.964 111.126 132.392 112.624 132.392 114.514C132.392 114.682 132.378 114.934 132.35 115.032H127.044C127.198 116.194 128.08 117.062 129.326 117.062C130.082 117.062 130.754 116.768 131.202 116.32L131.86 117.174C131.314 117.762 130.362 118.168 129.284 118.168ZM129.102 112.19C128.052 112.19 127.296 112.946 127.072 114.01H131.09C130.866 112.848 130.11 112.19 129.102 112.19ZM139.928 118.168C138.108 118.168 136.68 116.67 136.68 114.64C136.68 112.652 138.052 111.126 139.928 111.126C140.978 111.126 141.776 111.63 142.28 112.456V111.294H143.526V118H142.28V116.796C141.776 117.622 140.978 118.168 139.928 118.168ZM140.11 117.006C141.37 117.006 142.28 115.942 142.28 114.64C142.28 113.324 141.37 112.288 140.11 112.288C138.836 112.288 137.926 113.324 137.926 114.64C137.926 115.942 138.836 117.006 140.11 117.006ZM145.756 118V111.294H146.988V112.316C147.366 111.574 148.08 111.126 149.018 111.126C150.586 111.126 151.608 112.204 151.608 113.898V118H150.376V114.094C150.376 112.988 149.732 112.288 148.682 112.288C147.632 112.288 146.988 112.988 146.988 114.094V118H145.756ZM156.498 118.168C154.678 118.168 153.25 116.67 153.25 114.64C153.25 112.652 154.622 111.126 156.498 111.126C157.548 111.126 158.346 111.63 158.85 112.456V108.368H160.096V118H158.85V116.796C158.346 117.622 157.548 118.168 156.498 118.168ZM156.68 117.006C157.94 117.006 158.85 115.942 158.85 114.64C158.85 113.324 157.94 112.288 156.68 112.288C155.406 112.288 154.496 113.324 154.496 114.64C154.496 115.942 155.406 117.006 156.68 117.006ZM168.256 118.168C166.436 118.168 165.008 116.67 165.008 114.64C165.008 112.652 166.38 111.126 168.256 111.126C169.306 111.126 170.104 111.63 170.608 112.456V111.294H171.854V118H170.608V116.796C170.104 117.622 169.306 118.168 168.256 118.168ZM168.438 117.006C169.698 117.006 170.608 115.942 170.608 114.64C170.608 113.324 169.698 112.288 168.438 112.288C167.164 112.288 166.254 113.324 166.254 114.64C166.254 115.942 167.164 117.006 168.438 117.006ZM178.858 112.946C178.396 112.526 177.822 112.288 177.08 112.288C175.75 112.288 174.84 113.324 174.84 114.64C174.84 115.942 175.764 117.006 177.066 117.006C177.808 117.006 178.438 116.768 178.886 116.32L179.53 117.23C178.998 117.804 178.06 118.168 177.038 118.168C175.078 118.168 173.594 116.586 173.594 114.64C173.594 112.694 175.092 111.126 177.052 111.126C178.116 111.126 179.012 111.49 179.572 112.064L178.858 112.946ZM180.15 112.4V111.294H181.256V109.628H182.502V111.294H184.406V112.4H182.516V115.942C182.516 116.656 182.838 117.006 183.44 117.006C183.776 117.006 184.112 116.88 184.308 116.656L184.882 117.594C184.56 117.902 184.014 118.168 183.272 118.168C182.012 118.168 181.256 117.426 181.256 115.984V112.4H180.15ZM186.827 110.132C186.393 110.132 186.057 109.782 186.057 109.362C186.057 108.942 186.393 108.592 186.827 108.592C187.247 108.592 187.597 108.942 187.597 109.362C187.597 109.782 187.247 110.132 186.827 110.132ZM187.443 118H186.211V111.294H187.443V118ZM192.918 118H191.308L188.774 111.294H190.146L192.148 116.88L194.178 111.294H195.452L192.918 118ZM199.543 118.168C197.499 118.168 196.029 116.586 196.029 114.64C196.029 112.694 197.443 111.126 199.347 111.126C201.223 111.126 202.651 112.624 202.651 114.514C202.651 114.682 202.637 114.934 202.609 115.032H197.303C197.457 116.194 198.339 117.062 199.585 117.062C200.341 117.062 201.013 116.768 201.461 116.32L202.119 117.174C201.573 117.762 200.621 118.168 199.543 118.168ZM199.361 112.19C198.311 112.19 197.555 112.946 197.331 114.01H201.349C201.125 112.848 200.369 112.19 199.361 112.19ZM208.662 120.744H207.43V111.294H208.662V112.498C209.166 111.672 209.964 111.126 211.014 111.126C212.834 111.126 214.262 112.624 214.262 114.654C214.262 116.642 212.89 118.168 211.014 118.168C209.964 118.168 209.166 117.664 208.662 116.838V120.744ZM210.86 117.006C212.12 117.006 213.03 115.97 213.03 114.654C213.03 113.352 212.12 112.288 210.86 112.288C209.586 112.288 208.662 113.352 208.662 114.654C208.662 115.97 209.586 117.006 210.86 117.006ZM216.016 118V111.294H217.248V112.246C217.584 111.546 218.158 111.126 218.942 111.126C219.362 111.126 219.726 111.224 219.964 111.42L219.446 112.582C219.222 112.428 218.9 112.316 218.578 112.316C217.766 112.316 217.248 113.016 217.248 114.136V118H216.016ZM223.743 118.168C221.699 118.168 220.229 116.586 220.229 114.64C220.229 112.694 221.643 111.126 223.547 111.126C225.423 111.126 226.851 112.624 226.851 114.514C226.851 114.682 226.837 114.934 226.809 115.032H221.503C221.657 116.194 222.539 117.062 223.785 117.062C224.541 117.062 225.213 116.768 225.661 116.32L226.319 117.174C225.773 117.762 224.821 118.168 223.743 118.168ZM223.561 112.19C222.511 112.19 221.755 112.946 221.531 114.01H225.549C225.325 112.848 224.569 112.19 223.561 112.19ZM230.265 118.168C229.271 118.168 228.375 117.902 227.689 117.496L228.165 116.474C228.921 116.866 229.579 117.09 230.349 117.09C231.287 117.09 231.735 116.726 231.735 116.194C231.735 114.668 227.927 115.592 227.927 113.002C227.927 112.008 228.823 111.126 230.447 111.126C231.357 111.126 232.071 111.35 232.799 111.7L232.309 112.722C231.833 112.456 231.147 112.218 230.503 112.218C229.677 112.218 229.187 112.498 229.187 112.988C229.187 114.528 232.967 113.618 232.967 116.166C232.967 117.314 231.973 118.168 230.265 118.168ZM236.499 118.168C235.505 118.168 234.609 117.902 233.923 117.496L234.399 116.474C235.155 116.866 235.813 117.09 236.583 117.09C237.521 117.09 237.969 116.726 237.969 116.194C237.969 114.668 234.161 115.592 234.161 113.002C234.161 112.008 235.057 111.126 236.681 111.126C237.591 111.126 238.305 111.35 239.033 111.7L238.543 112.722C238.067 112.456 237.381 112.218 236.737 112.218C235.911 112.218 235.421 112.498 235.421 112.988C235.421 114.528 239.201 113.618 239.201 116.166C239.201 117.314 238.207 118.168 236.499 118.168Z" fill="black"/>
</g>
<defs>
<clipPath id="clip0_6343_38979">
<rect width="240" height="132" fill="white"/>
</clipPath>
</defs>
</svg>
