<svg width="186" height="44" viewBox="0 0 186 44" fill="none" xmlns="http://www.w3.org/2000/svg">
<path d="M16 10H8C3.58172 10 0 13.5817 0 18V26C0 30.4183 3.58172 34 8 34H16C20.4183 34 24 30.4183 24 26V18C24 13.5817 20.4183 10 16 10Z" fill="#2861BB"/>
<path d="M10.5133 27L19 18.4911L17.5133 17L10.5133 24.0178L7.48673 20.9822L6 22.4734L10.5133 27Z" fill="white"/>
<path d="M37.1914 26V17.04H39.9354C42.9174 17.04 44.9894 18.874 44.9894 21.52C44.9894 24.166 42.9734 26 40.0614 26H37.1914ZM39.9634 18.2299H38.4794V24.8099H39.9634C42.1894 24.8099 43.6454 23.508 43.6454 21.52C43.6454 19.532 42.1894 18.2299 39.9634 18.2299ZM49.8251 26.1679C47.7811 26.1679 46.3111 24.5859 46.3111 22.6399C46.3111 20.6939 47.7251 19.1259 49.6291 19.1259C51.5051 19.1259 52.9331 20.624 52.9331 22.514C52.9331 22.682 52.9191 22.9339 52.8911 23.0319H47.5851C47.7391 24.1939 48.6211 25.062 49.8671 25.062C50.6231 25.062 51.2951 24.768 51.7431 24.32L52.4011 25.174C51.8551 25.762 50.9031 26.1679 49.8251 26.1679ZM49.6431 20.19C48.5931 20.19 47.8371 20.946 47.6131 22.01H51.6311C51.4071 20.848 50.6511 20.19 49.6431 20.19ZM53.8394 20.4V19.294H54.8894V18.524C54.8894 17.04 55.7434 16.2 57.0314 16.2C57.8154 16.2 58.3474 16.438 58.7254 16.844L58.0814 17.754C57.8714 17.53 57.5074 17.3619 57.1294 17.3619C56.4994 17.3619 56.1354 17.782 56.1354 18.538V19.294H57.9134V20.4H56.1354V26H54.8894V20.4H53.8394ZM61.6587 26.1679C59.8387 26.1679 58.4107 24.6699 58.4107 22.6399C58.4107 20.6519 59.7827 19.1259 61.6587 19.1259C62.7087 19.1259 63.5067 19.6299 64.0107 20.4559V19.294H65.2567V26H64.0107V24.7959C63.5067 25.6219 62.7087 26.1679 61.6587 26.1679ZM61.8407 25.006C63.1007 25.006 64.0107 23.9419 64.0107 22.6399C64.0107 21.3239 63.1007 20.288 61.8407 20.288C60.5667 20.288 59.6567 21.3239 59.6567 22.6399C59.6567 23.9419 60.5667 25.006 61.8407 25.006ZM68.6206 19.294V23.004C68.6206 24.18 69.3066 24.964 70.3426 24.964C71.3926 24.964 72.0926 24.18 72.0926 23.004V19.294H73.3386V23.1019C73.3386 24.9219 72.1486 26.1259 70.3426 26.1259C68.5506 26.1259 67.3746 24.9219 67.3746 23.1019V19.294H68.6206ZM77.655 24.922L77.795 26.014C77.585 26.084 77.319 26.1399 77.109 26.1399C76.269 26.1399 75.471 25.58 75.471 24.18V16.368H76.703V24.194C76.703 24.782 77.025 24.992 77.347 24.992C77.445 24.992 77.557 24.964 77.655 24.922ZM78.6935 20.4V19.294H79.7995V17.628H81.0455V19.294H82.9495V20.4H81.0595V23.9419C81.0595 24.6559 81.3815 25.006 81.9835 25.006C82.3195 25.006 82.6555 24.88 82.8515 24.656L83.4255 25.594C83.1035 25.902 82.5575 26.1679 81.8155 26.1679C80.5555 26.1679 79.7995 25.4259 79.7995 23.9839V20.4H78.6935ZM95.2761 17.978L94.4361 18.958C93.8341 18.454 93.0781 18.104 92.0701 18.104C90.2781 18.104 88.8361 19.63 88.8361 21.52C88.8361 23.396 90.2781 24.922 92.1821 24.922C93.0501 24.922 93.8761 24.628 94.4501 24.096L95.2761 25.02C94.4501 25.832 93.4281 26.1679 92.0981 26.1679C89.4941 26.1679 87.4921 24.082 87.4921 21.52C87.4921 18.944 89.5361 16.858 92.0561 16.858C93.4841 16.858 94.4921 17.264 95.2761 17.978ZM96.7171 26V16.368H97.9491V20.316C98.3271 19.574 99.0411 19.1259 99.9791 19.1259C101.547 19.1259 102.569 20.204 102.569 21.898V26H101.337V22.094C101.337 20.988 100.693 20.288 99.6431 20.288C98.5931 20.288 97.9491 20.988 97.9491 22.094V26H96.7171ZM107.725 26.1679C105.681 26.1679 104.211 24.5859 104.211 22.6399C104.211 20.6939 105.625 19.1259 107.529 19.1259C109.405 19.1259 110.833 20.624 110.833 22.514C110.833 22.682 110.819 22.9339 110.791 23.0319H105.485C105.639 24.1939 106.521 25.062 107.767 25.062C108.523 25.062 109.195 24.768 109.643 24.32L110.301 25.174C109.755 25.762 108.803 26.1679 107.725 26.1679ZM107.543 20.19C106.493 20.19 105.737 20.946 105.513 22.01H109.531C109.307 20.848 108.551 20.19 107.543 20.19ZM117.213 20.9459C116.751 20.5259 116.177 20.288 115.435 20.288C114.105 20.288 113.195 21.3239 113.195 22.6399C113.195 23.9419 114.119 25.006 115.421 25.006C116.163 25.006 116.793 24.768 117.241 24.32L117.885 25.2299C117.353 25.8039 116.415 26.1679 115.393 26.1679C113.433 26.1679 111.949 24.5859 111.949 22.6399C111.949 20.6939 113.447 19.1259 115.407 19.1259C116.471 19.1259 117.367 19.4899 117.927 20.0639L117.213 20.9459ZM120.494 26H119.262V16.368H120.494V22.2199L123.644 19.294H125.212L121.838 22.43L125.45 26H123.826L120.494 22.6819V26ZM130.146 19.1259C131.966 19.1259 133.394 20.6239 133.394 22.6539C133.394 24.6419 132.022 26.1679 130.146 26.1679C129.096 26.1679 128.298 25.6639 127.794 24.8379V26H126.562V16.368H127.794V20.4979C128.298 19.6719 129.096 19.1259 130.146 19.1259ZM129.992 20.288C128.718 20.288 127.794 21.3519 127.794 22.6539C127.794 23.9699 128.718 25.006 129.992 25.006C131.252 25.006 132.162 23.9699 132.162 22.6539C132.162 21.3519 131.252 20.288 129.992 20.288ZM138.074 26.1679C136.156 26.1679 134.658 24.5859 134.658 22.6399C134.658 20.6939 136.156 19.1259 138.074 19.1259C140.006 19.1259 141.504 20.6939 141.504 22.6399C141.504 24.5859 140.006 26.1679 138.074 26.1679ZM138.088 25.006C139.348 25.006 140.258 23.9419 140.258 22.6399C140.258 21.3239 139.348 20.288 138.088 20.288C136.814 20.288 135.904 21.3239 135.904 22.6399C135.904 23.9419 136.814 25.006 138.088 25.006ZM141.936 26L144.526 22.584L142.048 19.294H143.588L145.338 21.632L147.13 19.294H148.53L146.052 22.57L148.628 26H147.088L145.226 23.5219L143.336 26H141.936ZM154.149 26.014C153.743 25.902 153.211 25.636 152.539 25.202L153.141 24.11C153.939 24.628 155.003 24.964 155.913 24.964C157.005 24.964 157.845 24.5019 157.845 23.5779C157.845 21.6599 152.833 22.57 152.833 19.378C152.833 17.852 154.219 16.844 156.011 16.844C157.159 16.844 158.125 17.138 158.895 17.684L158.265 18.7199C157.691 18.3559 156.823 18.034 155.955 18.034C154.905 18.034 154.177 18.594 154.177 19.35C154.177 21.394 159.175 20.4979 159.175 23.4939C159.175 25.2859 157.649 26.1679 155.829 26.1679C155.115 26.1679 154.555 26.112 154.149 26.014ZM160.082 20.4V19.294H161.188V17.628H162.434V19.294H164.338V20.4H162.448V23.9419C162.448 24.6559 162.77 25.006 163.372 25.006C163.708 25.006 164.044 24.88 164.24 24.656L164.814 25.594C164.492 25.902 163.946 26.1679 163.204 26.1679C161.944 26.1679 161.188 25.4259 161.188 23.9839V20.4H160.082ZM168.531 26.1679C166.711 26.1679 165.283 24.6699 165.283 22.6399C165.283 20.6519 166.655 19.1259 168.531 19.1259C169.581 19.1259 170.379 19.6299 170.883 20.4559V19.294H172.129V26H170.883V24.7959C170.379 25.6219 169.581 26.1679 168.531 26.1679ZM168.713 25.006C169.973 25.006 170.883 23.9419 170.883 22.6399C170.883 21.3239 169.973 20.288 168.713 20.288C167.439 20.288 166.529 21.3239 166.529 22.6399C166.529 23.9419 167.439 25.006 168.713 25.006ZM173.603 20.4V19.294H174.709V17.628H175.955V19.294H177.859V20.4H175.969V23.9419C175.969 24.6559 176.291 25.006 176.893 25.006C177.229 25.006 177.565 24.88 177.761 24.656L178.335 25.594C178.013 25.902 177.467 26.1679 176.725 26.1679C175.465 26.1679 174.709 25.4259 174.709 23.9839V20.4H173.603ZM182.319 26.1679C180.275 26.1679 178.805 24.5859 178.805 22.6399C178.805 20.6939 180.219 19.1259 182.123 19.1259C183.999 19.1259 185.427 20.624 185.427 22.514C185.427 22.682 185.413 22.9339 185.385 23.0319H180.079C180.233 24.1939 181.115 25.062 182.361 25.062C183.117 25.062 183.789 24.768 184.237 24.32L184.895 25.174C184.349 25.762 183.397 26.1679 182.319 26.1679ZM182.137 20.19C181.087 20.19 180.331 20.946 180.107 22.01H184.125C183.901 20.848 183.145 20.19 182.137 20.19Z" fill="black"/>
</svg>
