<svg width="233" height="60" viewBox="0 0 233 60" fill="none" xmlns="http://www.w3.org/2000/svg">
<g clip-path="url(#clip0_6343_38953)">
<path d="M16 0H8C3.58172 0 0 3.58172 0 8V16C0 20.4183 3.58172 24 8 24H16C20.4183 24 24 20.4183 24 16V8C24 3.58172 20.4183 0 16 0Z" fill="#2861BB"/>
<path d="M10.5133 17L19 8.49112L17.5133 7L10.5133 14.0178L7.48673 10.9822L6 12.4734L10.5133 17Z" fill="white"/>
<path d="M44.4715 7.97792L43.6315 8.95792C43.0295 8.45392 42.2735 8.10392 41.2655 8.10392C39.4735 8.10392 38.0315 9.62992 38.0315 11.5199C38.0315 13.3959 39.4735 14.9219 41.3775 14.9219C42.2455 14.9219 43.0715 14.6279 43.6455 14.0959L44.4715 15.0199C43.6455 15.8319 42.6235 16.1679 41.2935 16.1679C38.6895 16.1679 36.6875 14.0819 36.6875 11.5199C36.6875 8.94392 38.7315 6.85792 41.2515 6.85792C42.6795 6.85792 43.6875 7.26392 44.4715 7.97792ZM45.9125 15.9999V6.36792H47.1445V10.3159C47.5225 9.57392 48.2365 9.12592 49.1745 9.12592C50.7425 9.12592 51.7645 10.2039 51.7645 11.8979V15.9999H50.5325V12.0939C50.5325 10.9879 49.8885 10.2879 48.8385 10.2879C47.7885 10.2879 47.1445 10.9879 47.1445 12.0939V15.9999H45.9125ZM56.9209 16.1679C54.8769 16.1679 53.4069 14.5859 53.4069 12.6399C53.4069 10.6939 54.8209 9.12592 56.7249 9.12592C58.6009 9.12592 60.0289 10.6239 60.0289 12.5139C60.0289 12.6819 60.0149 12.9339 59.9869 13.0319H54.6809C54.8349 14.1939 55.7169 15.0619 56.9629 15.0619C57.7189 15.0619 58.3909 14.7679 58.8389 14.3199L59.4969 15.1739C58.9509 15.7619 57.9989 16.1679 56.9209 16.1679ZM56.7389 10.1899C55.6889 10.1899 54.9329 10.9459 54.7089 12.0099H58.7269C58.5029 10.8479 57.7469 10.1899 56.7389 10.1899ZM66.4092 10.9459C65.9472 10.5259 65.3732 10.2879 64.6312 10.2879C63.3012 10.2879 62.3912 11.3239 62.3912 12.6399C62.3912 13.9419 63.3152 15.0059 64.6172 15.0059C65.3592 15.0059 65.9892 14.7679 66.4372 14.3199L67.0812 15.2299C66.5492 15.8039 65.6112 16.1679 64.5892 16.1679C62.6292 16.1679 61.1452 14.5859 61.1452 12.6399C61.1452 10.6939 62.6432 9.12592 64.6032 9.12592C65.6672 9.12592 66.5632 9.48992 67.1232 10.0639L66.4092 10.9459ZM69.6894 15.9999H68.4574V6.36792H69.6894V12.2199L72.8394 9.29392H74.4074L71.0334 12.4299L74.6454 15.9999H73.0214L69.6894 12.6819V15.9999ZM78.1807 16.1679C76.1367 16.1679 74.6667 14.5859 74.6667 12.6399C74.6667 10.6939 76.0807 9.12592 77.9847 9.12592C79.8607 9.12592 81.2887 10.6239 81.2887 12.5139C81.2887 12.6819 81.2747 12.9339 81.2467 13.0319H75.9407C76.0947 14.1939 76.9767 15.0619 78.2227 15.0619C78.9787 15.0619 79.6507 14.7679 80.0987 14.3199L80.7567 15.1739C80.2107 15.7619 79.2587 16.1679 78.1807 16.1679ZM77.9987 10.1899C76.9487 10.1899 76.1927 10.9459 75.9687 12.0099H79.9867C79.7627 10.8479 79.0067 10.1899 77.9987 10.1899ZM85.6529 16.1679C83.8329 16.1679 82.4049 14.6699 82.4049 12.6399C82.4049 10.6519 83.7769 9.12592 85.6529 9.12592C86.7029 9.12592 87.5009 9.62992 88.0049 10.4559V6.36792H89.2509V15.9999H88.0049V14.7959C87.5009 15.6219 86.7029 16.1679 85.6529 16.1679ZM85.8349 15.0059C87.0949 15.0059 88.0049 13.9419 88.0049 12.6399C88.0049 11.3239 87.0949 10.2879 85.8349 10.2879C84.5609 10.2879 83.6509 11.3239 83.6509 12.6399C83.6509 13.9419 84.5609 15.0059 85.8349 15.0059Z" fill="black"/>
<path d="M16 36H8C3.58172 36 0 39.5817 0 44V52C0 56.4183 3.58172 60 8 60H16C20.4183 60 24 56.4183 24 52V44C24 39.5817 20.4183 36 16 36Z" fill="#2861BB"/>
<path d="M18 47H6V49H18V47Z" fill="white"/>
<path d="M37.1914 51.9999V43.0259H38.4514V51.9999H37.1914ZM40.7581 51.9999V45.2939H41.9901V46.3159C42.3681 45.5739 43.0821 45.1259 44.0201 45.1259C45.5881 45.1259 46.6101 46.2039 46.6101 47.8979V51.9999H45.3781V48.0939C45.3781 46.9879 44.7341 46.2879 43.6841 46.2879C42.6341 46.2879 41.9901 46.9879 41.9901 48.0939V51.9999H40.7581ZM51.5005 52.1679C49.6805 52.1679 48.2525 50.6699 48.2525 48.6399C48.2525 46.6519 49.6245 45.1259 51.5005 45.1259C52.5505 45.1259 53.3485 45.6299 53.8525 46.4559V42.3679H55.0985V51.9999H53.8525V50.7959C53.3485 51.6219 52.5505 52.1679 51.5005 52.1679ZM51.6825 51.0059C52.9425 51.0059 53.8525 49.9419 53.8525 48.6399C53.8525 47.3239 52.9425 46.2879 51.6825 46.2879C50.4085 46.2879 49.4985 47.3239 49.4985 48.6399C49.4985 49.9419 50.4085 51.0059 51.6825 51.0059ZM60.3524 52.1679C58.3084 52.1679 56.8384 50.5859 56.8384 48.6399C56.8384 46.6939 58.2524 45.1259 60.1564 45.1259C62.0324 45.1259 63.4604 46.6239 63.4604 48.5139C63.4604 48.6819 63.4464 48.9339 63.4184 49.0319H58.1124C58.2664 50.1939 59.1484 51.0619 60.3944 51.0619C61.1504 51.0619 61.8224 50.7679 62.2704 50.3199L62.9284 51.1739C62.3824 51.7619 61.4304 52.1679 60.3524 52.1679ZM60.1704 46.1899C59.1204 46.1899 58.3644 46.9459 58.1404 48.0099H62.1584C61.9344 46.8479 61.1784 46.1899 60.1704 46.1899ZM64.3107 46.3999V45.2939H65.4167V43.6279H66.6627V45.2939H68.5667V46.3999H66.6767V49.9419C66.6767 50.6559 66.9987 51.0059 67.6007 51.0059C67.9367 51.0059 68.2727 50.8799 68.4687 50.6559L69.0427 51.5939C68.7207 51.9019 68.1747 52.1679 67.4327 52.1679C66.1727 52.1679 65.4167 51.4259 65.4167 49.9839V46.3999H64.3107ZM73.0263 52.1679C70.9823 52.1679 69.5123 50.5859 69.5123 48.6399C69.5123 46.6939 70.9263 45.1259 72.8303 45.1259C74.7063 45.1259 76.1343 46.6239 76.1343 48.5139C76.1343 48.6819 76.1203 48.9339 76.0923 49.0319H70.7863C70.9403 50.1939 71.8223 51.0619 73.0683 51.0619C73.8243 51.0619 74.4963 50.7679 74.9443 50.3199L75.6023 51.1739C75.0563 51.7619 74.1043 52.1679 73.0263 52.1679ZM72.8443 46.1899C71.7943 46.1899 71.0383 46.9459 70.8143 48.0099H74.8323C74.6083 46.8479 73.8523 46.1899 72.8443 46.1899ZM77.7405 51.9999V45.2939H78.9725V46.2459C79.3085 45.5459 79.8825 45.1259 80.6665 45.1259C81.0865 45.1259 81.4505 45.2239 81.6885 45.4199L81.1705 46.5819C80.9465 46.4279 80.6245 46.3159 80.3025 46.3159C79.4905 46.3159 78.9725 47.0159 78.9725 48.1359V51.9999H77.7405ZM84.2362 51.9999H83.0042V45.2939H84.2362V46.3579C84.6002 45.6019 85.3002 45.1259 86.2102 45.1259C87.2882 45.1259 88.1002 45.6719 88.4782 46.6099C88.8002 45.7419 89.5282 45.1259 90.6062 45.1259C92.1602 45.1259 93.1682 46.1759 93.1682 47.8979V51.9999H91.9222V48.0939C91.9222 46.9879 91.3202 46.2879 90.3122 46.2879C89.3182 46.2879 88.7022 46.9879 88.7022 48.0939V51.9999H87.4562V48.0939C87.4562 46.9879 86.8542 46.2879 85.8602 46.2879C84.8522 46.2879 84.2362 46.9879 84.2362 48.0939V51.9999ZM95.8976 44.1319C95.4636 44.1319 95.1276 43.7819 95.1276 43.3619C95.1276 42.9419 95.4636 42.5919 95.8976 42.5919C96.3176 42.5919 96.6676 42.9419 96.6676 43.3619C96.6676 43.7819 96.3176 44.1319 95.8976 44.1319ZM96.5136 51.9999H95.2816V45.2939H96.5136V51.9999ZM98.7542 51.9999V45.2939H99.9862V46.3159C100.364 45.5739 101.078 45.1259 102.016 45.1259C103.584 45.1259 104.606 46.2039 104.606 47.8979V51.9999H103.374V48.0939C103.374 46.9879 102.73 46.2879 101.68 46.2879C100.63 46.2879 99.9862 46.9879 99.9862 48.0939V51.9999H98.7542ZM109.496 52.1679C107.676 52.1679 106.248 50.6699 106.248 48.6399C106.248 46.6519 107.62 45.1259 109.496 45.1259C110.546 45.1259 111.344 45.6299 111.848 46.4559V45.2939H113.094V51.9999H111.848V50.7959C111.344 51.6219 110.546 52.1679 109.496 52.1679ZM109.678 51.0059C110.938 51.0059 111.848 49.9419 111.848 48.6399C111.848 47.3239 110.938 46.2879 109.678 46.2879C108.404 46.2879 107.494 47.3239 107.494 48.6399C107.494 49.9419 108.404 51.0059 109.678 51.0059ZM114.568 46.3999V45.2939H115.674V43.6279H116.92V45.2939H118.824V46.3999H116.934V49.9419C116.934 50.6559 117.256 51.0059 117.858 51.0059C118.194 51.0059 118.53 50.8799 118.726 50.6559L119.3 51.5939C118.978 51.9019 118.432 52.1679 117.69 52.1679C116.43 52.1679 115.674 51.4259 115.674 49.9839V46.3999H114.568ZM123.284 52.1679C121.24 52.1679 119.77 50.5859 119.77 48.6399C119.77 46.6939 121.184 45.1259 123.088 45.1259C124.964 45.1259 126.392 46.6239 126.392 48.5139C126.392 48.6819 126.378 48.9339 126.35 49.0319H121.044C121.198 50.1939 122.08 51.0619 123.326 51.0619C124.082 51.0619 124.754 50.7679 125.202 50.3199L125.86 51.1739C125.314 51.7619 124.362 52.1679 123.284 52.1679ZM123.102 46.1899C122.052 46.1899 121.296 46.9459 121.072 48.0099H125.09C124.866 46.8479 124.11 46.1899 123.102 46.1899ZM131.786 44.1319C131.352 44.1319 131.016 43.7819 131.016 43.3619C131.016 42.9419 131.352 42.5919 131.786 42.5919C132.206 42.5919 132.556 42.9419 132.556 43.3619C132.556 43.7819 132.206 44.1319 131.786 44.1319ZM132.402 51.9999H131.17V45.2939H132.402V51.9999ZM134.642 51.9999V45.2939H135.874V46.3159C136.252 45.5739 136.966 45.1259 137.904 45.1259C139.472 45.1259 140.494 46.2039 140.494 47.8979V51.9999H139.262V48.0939C139.262 46.9879 138.618 46.2879 137.568 46.2879C136.518 46.2879 135.874 46.9879 135.874 48.0939V51.9999H134.642ZM150.573 46.9459C150.111 46.5259 149.537 46.2879 148.795 46.2879C147.465 46.2879 146.555 47.3239 146.555 48.6399C146.555 49.9419 147.479 51.0059 148.781 51.0059C149.523 51.0059 150.153 50.7679 150.601 50.3199L151.245 51.2299C150.713 51.8039 149.775 52.1679 148.753 52.1679C146.793 52.1679 145.309 50.5859 145.309 48.6399C145.309 46.6939 146.807 45.1259 148.767 45.1259C149.831 45.1259 150.727 45.4899 151.287 46.0639L150.573 46.9459ZM152.621 51.9999V42.3679H153.853V46.3159C154.231 45.5739 154.945 45.1259 155.883 45.1259C157.451 45.1259 158.473 46.2039 158.473 47.8979V51.9999H157.241V48.0939C157.241 46.9879 156.597 46.2879 155.547 46.2879C154.497 46.2879 153.853 46.9879 153.853 48.0939V51.9999H152.621ZM163.629 52.1679C161.585 52.1679 160.115 50.5859 160.115 48.6399C160.115 46.6939 161.529 45.1259 163.433 45.1259C165.309 45.1259 166.737 46.6239 166.737 48.5139C166.737 48.6819 166.723 48.9339 166.695 49.0319H161.389C161.543 50.1939 162.425 51.0619 163.671 51.0619C164.427 51.0619 165.099 50.7679 165.547 50.3199L166.205 51.1739C165.659 51.7619 164.707 52.1679 163.629 52.1679ZM163.447 46.1899C162.397 46.1899 161.641 46.9459 161.417 48.0099H165.435C165.211 46.8479 164.455 46.1899 163.447 46.1899ZM173.118 46.9459C172.656 46.5259 172.082 46.2879 171.34 46.2879C170.01 46.2879 169.1 47.3239 169.1 48.6399C169.1 49.9419 170.024 51.0059 171.326 51.0059C172.068 51.0059 172.698 50.7679 173.146 50.3199L173.79 51.2299C173.258 51.8039 172.32 52.1679 171.298 52.1679C169.338 52.1679 167.854 50.5859 167.854 48.6399C167.854 46.6939 169.352 45.1259 171.312 45.1259C172.376 45.1259 173.272 45.4899 173.832 46.0639L173.118 46.9459ZM176.398 51.9999H175.166V42.3679H176.398V48.2199L179.548 45.2939H181.116L177.742 48.4299L181.354 51.9999H179.73L176.398 48.6819V51.9999ZM184.889 52.1679C182.845 52.1679 181.375 50.5859 181.375 48.6399C181.375 46.6939 182.789 45.1259 184.693 45.1259C186.569 45.1259 187.997 46.6239 187.997 48.5139C187.997 48.6819 187.983 48.9339 187.955 49.0319H182.649C182.803 50.1939 183.685 51.0619 184.931 51.0619C185.687 51.0619 186.359 50.7679 186.807 50.3199L187.465 51.1739C186.919 51.7619 185.967 52.1679 184.889 52.1679ZM184.707 46.1899C183.657 46.1899 182.901 46.9459 182.677 48.0099H186.695C186.471 46.8479 185.715 46.1899 184.707 46.1899ZM192.361 52.1679C190.541 52.1679 189.113 50.6699 189.113 48.6399C189.113 46.6519 190.485 45.1259 192.361 45.1259C193.411 45.1259 194.209 45.6299 194.713 46.4559V42.3679H195.959V51.9999H194.713V50.7959C194.209 51.6219 193.411 52.1679 192.361 52.1679ZM192.543 51.0059C193.803 51.0059 194.713 49.9419 194.713 48.6399C194.713 47.3239 193.803 46.2879 192.543 46.2879C191.269 46.2879 190.359 47.3239 190.359 48.6399C190.359 49.9419 191.269 51.0059 192.543 51.0059ZM203.251 52.1679C202.257 52.1679 201.361 51.9019 200.675 51.4959L201.151 50.4739C201.907 50.8659 202.565 51.0899 203.335 51.0899C204.273 51.0899 204.721 50.7259 204.721 50.1939C204.721 48.6679 200.913 49.5919 200.913 47.0019C200.913 46.0079 201.809 45.1259 203.433 45.1259C204.343 45.1259 205.057 45.3499 205.785 45.6999L205.295 46.7219C204.819 46.4559 204.133 46.2179 203.489 46.2179C202.663 46.2179 202.173 46.4979 202.173 46.9879C202.173 48.5279 205.953 47.6179 205.953 50.1659C205.953 51.3139 204.959 52.1679 203.251 52.1679ZM206.84 46.3999V45.2939H207.946V43.6279H209.192V45.2939H211.096V46.3999H209.206V49.9419C209.206 50.6559 209.528 51.0059 210.13 51.0059C210.466 51.0059 210.802 50.8799 210.998 50.6559L211.572 51.5939C211.25 51.9019 210.704 52.1679 209.962 52.1679C208.702 52.1679 207.946 51.4259 207.946 49.9839V46.3999H206.84ZM215.289 52.1679C213.469 52.1679 212.041 50.6699 212.041 48.6399C212.041 46.6519 213.413 45.1259 215.289 45.1259C216.339 45.1259 217.137 45.6299 217.641 46.4559V45.2939H218.887V51.9999H217.641V50.7959C217.137 51.6219 216.339 52.1679 215.289 52.1679ZM215.471 51.0059C216.731 51.0059 217.641 49.9419 217.641 48.6399C217.641 47.3239 216.731 46.2879 215.471 46.2879C214.197 46.2879 213.287 47.3239 213.287 48.6399C213.287 49.9419 214.197 51.0059 215.471 51.0059ZM220.361 46.3999V45.2939H221.467V43.6279H222.713V45.2939H224.617V46.3999H222.727V49.9419C222.727 50.6559 223.049 51.0059 223.651 51.0059C223.987 51.0059 224.323 50.8799 224.519 50.6559L225.093 51.5939C224.771 51.9019 224.225 52.1679 223.483 52.1679C222.223 52.1679 221.467 51.4259 221.467 49.9839V46.3999H220.361ZM229.077 52.1679C227.033 52.1679 225.563 50.5859 225.563 48.6399C225.563 46.6939 226.977 45.1259 228.881 45.1259C230.757 45.1259 232.185 46.6239 232.185 48.5139C232.185 48.6819 232.171 48.9339 232.143 49.0319H226.837C226.991 50.1939 227.873 51.0619 229.119 51.0619C229.875 51.0619 230.547 50.7679 230.995 50.3199L231.653 51.1739C231.107 51.7619 230.155 52.1679 229.077 52.1679ZM228.895 46.1899C227.845 46.1899 227.089 46.9459 226.865 48.0099H230.883C230.659 46.8479 229.903 46.1899 228.895 46.1899Z" fill="black"/>
</g>
<defs>
<clipPath id="clip0_6343_38953">
<rect width="233" height="60" fill="white"/>
</clipPath>
</defs>
</svg>
