<svg width="200" height="124" viewBox="0 0 200 124" fill="none" xmlns="http://www.w3.org/2000/svg">
<rect x="24" y="40" width="152" height="44" rx="22" fill="#794CFF"/>
<path d="M54.2305 67V56.76H58.3585C60.2785 56.76 61.7345 57.928 61.7345 59.592C61.7345 60.792 60.9025 61.448 60.2145 61.736C61.2225 62.04 62.0225 62.84 62.0225 64.12C62.0225 65.656 60.8225 67 58.5985 67H54.2305ZM58.1665 58.52H56.2305V60.984H58.1665C59.0465 60.984 59.6545 60.472 59.6545 59.752C59.6545 59.032 59.0305 58.52 58.1665 58.52ZM58.3905 62.632H56.2305V65.224H58.3905C59.2865 65.224 59.9425 64.68 59.9425 63.928C59.9425 63.176 59.2865 62.632 58.3905 62.632ZM65.4596 59.336V63.48C65.4596 64.6 66.0996 65.352 67.0756 65.352C68.0516 65.352 68.7076 64.6 68.7076 63.48V59.336H70.6756V63.624C70.6756 65.768 69.2356 67.192 67.0756 67.192C64.9156 67.192 63.5076 65.768 63.5076 63.624V59.336H65.4596ZM71.9603 61.064V59.336H73.3043V57.352H75.2723V59.336H77.3363V61.064H75.2883V64.328C75.2883 65.048 75.5763 65.384 76.1523 65.384C76.5203 65.384 76.8723 65.224 77.0643 65L77.9283 66.456C77.5123 66.872 76.7923 67.208 75.8483 67.208C74.2963 67.208 73.3043 66.248 73.3043 64.376V61.064H71.9603ZM78.4446 61.064V59.336H79.7886V57.352H81.7566V59.336H83.8206V61.064H81.7726V64.328C81.7726 65.048 82.0606 65.384 82.6366 65.384C83.0046 65.384 83.3566 65.224 83.5486 65L84.4126 66.456C83.9966 66.872 83.2766 67.208 82.3326 67.208C80.7806 67.208 79.7886 66.248 79.7886 64.376V61.064H78.4446ZM88.826 67.208C86.602 67.208 84.842 65.4 84.842 63.16C84.842 60.936 86.602 59.128 88.826 59.128C91.05 59.128 92.81 60.936 92.81 63.16C92.81 65.4 91.05 67.208 88.826 67.208ZM88.826 65.384C90.01 65.384 90.858 64.392 90.858 63.16C90.858 61.928 90.01 60.952 88.826 60.952C87.642 60.952 86.794 61.928 86.794 63.16C86.794 64.392 87.642 65.384 88.826 65.384ZM94.4943 67V59.336H96.4463V60.424C96.8463 59.608 97.6143 59.128 98.6223 59.128C100.382 59.128 101.518 60.36 101.518 62.36V67H99.5663V62.648C99.5663 61.608 98.9743 60.952 98.0143 60.952C97.0543 60.952 96.4463 61.608 96.4463 62.648V67H94.4943ZM107.137 67V56.744H109.137V65.112H114.145V67H107.137ZM118.319 67.208C116.303 67.208 114.655 65.56 114.655 63.16C114.655 60.856 116.207 59.128 118.319 59.128C119.359 59.128 120.159 59.592 120.671 60.344V59.336H122.623V67H120.671V65.912C120.159 66.696 119.359 67.208 118.319 67.208ZM118.639 65.384C119.823 65.384 120.671 64.392 120.671 63.16C120.671 61.928 119.823 60.952 118.639 60.952C117.455 60.952 116.607 61.928 116.607 63.16C116.607 64.392 117.455 65.384 118.639 65.384ZM129.095 59.128C131.111 59.128 132.775 60.776 132.775 63.176C132.775 65.48 131.223 67.208 129.095 67.208C128.055 67.208 127.255 66.744 126.743 65.976V67H124.791V55.992H126.743V60.424C127.255 59.64 128.055 59.128 129.095 59.128ZM128.791 60.952C127.607 60.952 126.743 61.944 126.743 63.176C126.743 64.408 127.607 65.384 128.791 65.384C129.959 65.384 130.823 64.408 130.823 63.176C130.823 61.944 129.959 60.952 128.791 60.952ZM138.048 67.208C135.664 67.208 133.936 65.4 133.936 63.16C133.936 60.936 135.584 59.128 137.792 59.128C139.984 59.128 141.664 60.808 141.664 63.016C141.664 63.272 141.648 63.576 141.616 63.704H135.936C136.144 64.76 136.944 65.496 138.112 65.496C138.896 65.496 139.552 65.16 140 64.696L141.008 66.04C140.416 66.696 139.328 67.208 138.048 67.208ZM137.824 60.776C136.896 60.776 136.224 61.416 135.984 62.344H139.648C139.408 61.32 138.72 60.776 137.824 60.776ZM146.189 65.304L146.397 67.016C146.109 67.112 145.741 67.176 145.453 67.176C144.349 67.176 143.229 66.472 143.229 64.52V55.992H145.181V64.568C145.181 65.16 145.517 65.384 145.869 65.384C145.965 65.384 146.093 65.352 146.189 65.304Z" fill="white"/>
</svg>
