<svg width="200" height="124" viewBox="0 0 200 124" fill="none" xmlns="http://www.w3.org/2000/svg">
<path d="M21 62L26.0476 57L27 58L22.7143 62L27 66L26.0476 67L21 62Z" fill="#794CFF"/>
<rect x="38" y="44" width="36" height="36" rx="8" fill="#DFDFDF"/>
<path d="M57.4425 57.2727V66H55.8615V58.8111H55.8104L53.7692 60.1151V58.6662L55.9382 57.2727H57.4425Z" fill="black"/>
<rect x="78" y="40" width="44" height="44" rx="12" fill="#794CFF"/>
<path d="M95.9041 68V66.2273L100.046 62.392C100.398 62.0511 100.694 61.7443 100.933 61.4716C101.175 61.1989 101.359 60.9318 101.484 60.6705C101.609 60.4053 101.671 60.1193 101.671 59.8125C101.671 59.4716 101.594 59.178 101.438 58.9318C101.283 58.6818 101.071 58.4905 100.802 58.358C100.533 58.2216 100.228 58.1534 99.8871 58.1534C99.531 58.1534 99.2204 58.2254 98.9553 58.3693C98.6901 58.5133 98.4856 58.7197 98.3416 58.9886C98.1977 59.2576 98.1257 59.5777 98.1257 59.9489H95.7905C95.7905 59.1875 95.9628 58.5265 96.3075 57.9659C96.6522 57.4053 97.1352 56.9716 97.7564 56.6648C98.3776 56.358 99.0935 56.2045 99.9041 56.2045C100.737 56.2045 101.463 56.3523 102.08 56.6477C102.701 56.9394 103.184 57.3447 103.529 57.8636C103.874 58.3826 104.046 58.9773 104.046 59.6477C104.046 60.0871 103.959 60.5208 103.785 60.9489C103.614 61.3769 103.309 61.8523 102.87 62.375C102.431 62.8939 101.811 63.517 101.012 64.2443L99.3132 65.9091V65.9886H104.2V68H95.9041Z" fill="white"/>
<rect x="126" y="44" width="36" height="36" rx="8" fill="#DFDFDF"/>
<path d="M143.999 66.1193C143.386 66.1193 142.84 66.0142 142.363 65.804C141.889 65.5937 141.514 65.3011 141.238 64.9261C140.963 64.5511 140.816 64.1179 140.799 63.6264H142.401C142.416 63.8622 142.494 64.0682 142.636 64.2443C142.778 64.4176 142.967 64.5526 143.203 64.6491C143.438 64.7457 143.703 64.794 143.995 64.794C144.308 64.794 144.585 64.7401 144.826 64.6321C145.068 64.5213 145.257 64.3679 145.393 64.1719C145.529 63.9759 145.596 63.75 145.593 63.4943C145.596 63.2301 145.528 62.9972 145.389 62.7955C145.249 62.5937 145.048 62.4361 144.784 62.3224C144.522 62.2088 144.207 62.152 143.838 62.152H143.066V60.9332H143.838C144.142 60.9332 144.407 60.8807 144.634 60.7756C144.865 60.6705 145.045 60.5227 145.176 60.3324C145.306 60.1392 145.37 59.9162 145.367 59.6634C145.37 59.4162 145.315 59.2017 145.201 59.0199C145.09 58.8352 144.933 58.6918 144.728 58.5895C144.526 58.4872 144.289 58.4361 144.017 58.4361C143.749 58.4361 143.502 58.4844 143.275 58.581C143.048 58.6776 142.865 58.8153 142.725 58.9943C142.586 59.1705 142.512 59.3807 142.504 59.625H140.982C140.994 59.1364 141.134 58.7074 141.404 58.3381C141.677 57.9659 142.041 57.6761 142.495 57.4688C142.95 57.2585 143.46 57.1534 144.025 57.1534C144.607 57.1534 145.113 57.2628 145.542 57.4815C145.974 57.6974 146.308 57.9886 146.544 58.3551C146.779 58.7216 146.897 59.1264 146.897 59.5696C146.9 60.0611 146.755 60.473 146.463 60.8054C146.173 61.1378 145.792 61.3551 145.32 61.4574V61.5256C145.934 61.6108 146.404 61.8381 146.731 62.2074C147.061 62.5739 147.224 63.0298 147.221 63.5753C147.221 64.0639 147.082 64.5014 146.803 64.8878C146.528 65.2713 146.147 65.5724 145.661 65.7912C145.178 66.0099 144.624 66.1193 143.999 66.1193Z" fill="black"/>
<path d="M179 62L173.952 67L173 66L177.286 62L173 58L173.952 57L179 62Z" fill="#794CFF"/>
</svg>
