<svg width="200" height="124" viewBox="0 0 200 124" fill="none" xmlns="http://www.w3.org/2000/svg">
<rect x="25" y="41" width="150" height="42" rx="7" fill="white"/>
<rect x="25" y="41" width="150" height="42" rx="7" stroke="#EBEBEB" stroke-width="2"/>
<rect x="36" y="59" width="72" height="6" fill="#9B9B9B"/>
<path d="M145 72C144.45 72 143.979 71.8042 143.588 71.4125C143.196 71.0208 143 70.55 143 70V56C143 55.45 143.196 54.9792 143.588 54.5875C143.979 54.1958 144.45 54 145 54H146V52H148V54H156V52H158V54H159C159.55 54 160.021 54.1958 160.413 54.5875C160.804 54.9792 161 55.45 161 56V70C161 70.55 160.804 71.0208 160.413 71.4125C160.021 71.8042 159.55 72 159 72H145ZM145 70H159V60H145V70ZM145 58H159V56H145V58Z" fill="#794CFF"/>
</svg>
