<svg width="200" height="124" viewBox="0 0 200 124" fill="none" xmlns="http://www.w3.org/2000/svg">
<rect x="20.5" y="48.5" width="47" height="27" rx="3.5" stroke="#EBEBEB"/>
<path d="M29.1167 66V57.2727H30.6976V64.6747H34.5414V66H29.1167ZM37.7289 66.1321C37.3141 66.1321 36.9405 66.0582 36.6081 65.9105C36.2786 65.7599 36.0172 65.5384 35.824 65.2457C35.6337 64.9531 35.5385 64.5923 35.5385 64.1634C35.5385 63.794 35.6067 63.4886 35.7431 63.2472C35.8794 63.0057 36.0655 62.8125 36.3013 62.6676C36.5371 62.5227 36.8027 62.4134 37.0982 62.3395C37.3965 62.2628 37.7047 62.2074 38.0229 62.1733C38.4064 62.1335 38.7175 62.098 38.9561 62.0668C39.1948 62.0327 39.3681 61.9815 39.476 61.9134C39.5868 61.8423 39.6422 61.733 39.6422 61.5852V61.5597C39.6422 61.2386 39.5471 60.9901 39.3567 60.8139C39.1664 60.6378 38.8922 60.5497 38.5343 60.5497C38.1564 60.5497 37.8567 60.6321 37.6351 60.7969C37.4164 60.9616 37.2686 61.1562 37.1919 61.3807L35.7516 61.1761C35.8652 60.7784 36.0527 60.446 36.3141 60.179C36.5755 59.9091 36.8951 59.7074 37.2729 59.5739C37.6507 59.4375 38.0684 59.3693 38.5257 59.3693C38.8411 59.3693 39.155 59.4062 39.4675 59.4801C39.78 59.554 40.0655 59.6761 40.324 59.8466C40.5826 60.0142 40.79 60.2429 40.9462 60.5327C41.1053 60.8224 41.1848 61.1847 41.1848 61.6193V66H39.7019V65.1009H39.6507C39.557 65.2827 39.4249 65.4531 39.2544 65.6122C39.0868 65.7685 38.8752 65.8949 38.6195 65.9915C38.3667 66.0852 38.0698 66.1321 37.7289 66.1321ZM38.1294 64.9986C38.4391 64.9986 38.7076 64.9375 38.9348 64.8153C39.1621 64.6903 39.3368 64.5256 39.459 64.321C39.584 64.1165 39.6465 63.8935 39.6465 63.652V62.8807C39.5982 62.9205 39.5158 62.9574 39.3993 62.9915C39.2857 63.0256 39.1578 63.0554 39.0158 63.081C38.8738 63.1065 38.7331 63.1293 38.5939 63.1491C38.4547 63.169 38.334 63.1861 38.2317 63.2003C38.0016 63.2315 37.7956 63.2827 37.6138 63.3537C37.432 63.4247 37.2885 63.5241 37.1834 63.652C37.0783 63.777 37.0257 63.9389 37.0257 64.1378C37.0257 64.4219 37.1294 64.6364 37.3368 64.7812C37.5442 64.9261 37.8084 64.9986 38.1294 64.9986ZM42.8042 66V57.2727H44.3468V60.5369H44.4107C44.4902 60.3778 44.6025 60.2088 44.7473 60.0298C44.8922 59.848 45.0882 59.6932 45.3354 59.5653C45.5826 59.4347 45.8979 59.3693 46.2814 59.3693C46.7871 59.3693 47.2431 59.4986 47.6493 59.7571C48.0584 60.0128 48.3823 60.392 48.6209 60.8949C48.8624 61.3949 48.9831 62.0085 48.9831 62.7358C48.9831 63.4545 48.8652 64.0653 48.6294 64.5682C48.3936 65.071 48.0726 65.4545 47.6664 65.7188C47.2601 65.983 46.7999 66.1151 46.2857 66.1151C45.9107 66.1151 45.5996 66.0526 45.3525 65.9276C45.1053 65.8026 44.9064 65.652 44.7559 65.4759C44.6081 65.2969 44.4931 65.1278 44.4107 64.9688H44.3212V66H42.8042ZM44.3169 62.7273C44.3169 63.1506 44.3766 63.5213 44.4959 63.8395C44.6181 64.1577 44.7928 64.4062 45.0201 64.5852C45.2502 64.7614 45.5286 64.8494 45.8553 64.8494C46.1962 64.8494 46.4817 64.7585 46.7118 64.5767C46.9419 64.392 47.1152 64.1406 47.2317 63.8224C47.351 63.5014 47.4107 63.1364 47.4107 62.7273C47.4107 62.321 47.3525 61.9602 47.236 61.6449C47.1195 61.3295 46.9462 61.0824 46.7161 60.9034C46.486 60.7244 46.199 60.6349 45.8553 60.6349C45.5257 60.6349 45.2459 60.7216 45.0158 60.8949C44.7857 61.0682 44.611 61.3111 44.4917 61.6236C44.3752 61.9361 44.3169 62.304 44.3169 62.7273ZM53.1923 66.1278C52.536 66.1278 51.9693 65.9915 51.492 65.7188C51.0176 65.4432 50.6525 65.054 50.3968 64.5511C50.1412 64.0455 50.0133 63.4503 50.0133 62.7656C50.0133 62.0923 50.1412 61.5014 50.3968 60.9929C50.6554 60.4815 51.0162 60.0838 51.4792 59.7997C51.9423 59.5128 52.4863 59.3693 53.1113 59.3693C53.5147 59.3693 53.8954 59.4347 54.2534 59.5653C54.6142 59.6932 54.9324 59.892 55.2079 60.1619C55.4863 60.4318 55.7051 60.7756 55.8642 61.1932C56.0233 61.608 56.1028 62.1023 56.1028 62.6761V63.1491H50.7377V62.1094H54.6241C54.6213 61.8139 54.5574 61.5511 54.4324 61.321C54.3074 61.0881 54.1326 60.9048 53.9082 60.7713C53.6866 60.6378 53.4281 60.571 53.1326 60.571C52.8173 60.571 52.5403 60.6477 52.3017 60.8011C52.063 60.9517 51.877 61.1506 51.7434 61.3977C51.6127 61.642 51.546 61.9105 51.5431 62.2031V63.1108C51.5431 63.4915 51.6127 63.8182 51.752 64.0909C51.8912 64.3608 52.0858 64.5682 52.3358 64.7131C52.5858 64.8551 52.8784 64.9261 53.2136 64.9261C53.438 64.9261 53.6412 64.8949 53.823 64.8324C54.0048 64.767 54.1625 64.6719 54.296 64.5469C54.4295 64.4219 54.5304 64.267 54.5985 64.0824L56.0389 64.2443C55.948 64.625 55.7747 64.9574 55.519 65.2415C55.2662 65.5227 54.9423 65.7415 54.5474 65.8977C54.1525 66.0511 53.7008 66.1278 53.1923 66.1278ZM58.9505 57.2727V66H57.4078V57.2727H58.9505Z" fill="black"/>
<rect x="76.5" y="48.5" width="47" height="27" rx="3.5" stroke="#EBEBEB"/>
<path d="M85.1167 66V57.2727H86.6976V64.6747H90.5414V66H85.1167ZM93.7289 66.1321C93.3141 66.1321 92.9405 66.0582 92.6081 65.9105C92.2786 65.7599 92.0172 65.5384 91.824 65.2457C91.6337 64.9531 91.5385 64.5923 91.5385 64.1634C91.5385 63.794 91.6067 63.4886 91.7431 63.2472C91.8794 63.0057 92.0655 62.8125 92.3013 62.6676C92.5371 62.5227 92.8027 62.4134 93.0982 62.3395C93.3965 62.2628 93.7047 62.2074 94.0229 62.1733C94.4064 62.1335 94.7175 62.098 94.9561 62.0668C95.1948 62.0327 95.3681 61.9815 95.476 61.9134C95.5868 61.8423 95.6422 61.733 95.6422 61.5852V61.5597C95.6422 61.2386 95.5471 60.9901 95.3567 60.8139C95.1664 60.6378 94.8922 60.5497 94.5343 60.5497C94.1564 60.5497 93.8567 60.6321 93.6351 60.7969C93.4164 60.9616 93.2686 61.1562 93.1919 61.3807L91.7516 61.1761C91.8652 60.7784 92.0527 60.446 92.3141 60.179C92.5755 59.9091 92.8951 59.7074 93.2729 59.5739C93.6507 59.4375 94.0684 59.3693 94.5257 59.3693C94.8411 59.3693 95.155 59.4062 95.4675 59.4801C95.78 59.554 96.0655 59.6761 96.324 59.8466C96.5826 60.0142 96.79 60.2429 96.9462 60.5327C97.1053 60.8224 97.1848 61.1847 97.1848 61.6193V66H95.7019V65.1009H95.6507C95.557 65.2827 95.4249 65.4531 95.2544 65.6122C95.0868 65.7685 94.8752 65.8949 94.6195 65.9915C94.3667 66.0852 94.0698 66.1321 93.7289 66.1321ZM94.1294 64.9986C94.4391 64.9986 94.7076 64.9375 94.9348 64.8153C95.1621 64.6903 95.3368 64.5256 95.459 64.321C95.584 64.1165 95.6465 63.8935 95.6465 63.652V62.8807C95.5982 62.9205 95.5158 62.9574 95.3993 62.9915C95.2857 63.0256 95.1578 63.0554 95.0158 63.081C94.8738 63.1065 94.7331 63.1293 94.5939 63.1491C94.4547 63.169 94.334 63.1861 94.2317 63.2003C94.0016 63.2315 93.7956 63.2827 93.6138 63.3537C93.432 63.4247 93.2885 63.5241 93.1834 63.652C93.0783 63.777 93.0257 63.9389 93.0257 64.1378C93.0257 64.4219 93.1294 64.6364 93.3368 64.7812C93.5442 64.9261 93.8084 64.9986 94.1294 64.9986ZM98.8042 66V57.2727H100.347V60.5369H100.411C100.49 60.3778 100.602 60.2088 100.747 60.0298C100.892 59.848 101.088 59.6932 101.335 59.5653C101.583 59.4347 101.898 59.3693 102.281 59.3693C102.787 59.3693 103.243 59.4986 103.649 59.7571C104.058 60.0128 104.382 60.392 104.621 60.8949C104.862 61.3949 104.983 62.0085 104.983 62.7358C104.983 63.4545 104.865 64.0653 104.629 64.5682C104.394 65.071 104.073 65.4545 103.666 65.7188C103.26 65.983 102.8 66.1151 102.286 66.1151C101.911 66.1151 101.6 66.0526 101.352 65.9276C101.105 65.8026 100.906 65.652 100.756 65.4759C100.608 65.2969 100.493 65.1278 100.411 64.9688H100.321V66H98.8042ZM100.317 62.7273C100.317 63.1506 100.377 63.5213 100.496 63.8395C100.618 64.1577 100.793 64.4062 101.02 64.5852C101.25 64.7614 101.529 64.8494 101.855 64.8494C102.196 64.8494 102.482 64.7585 102.712 64.5767C102.942 64.392 103.115 64.1406 103.232 63.8224C103.351 63.5014 103.411 63.1364 103.411 62.7273C103.411 62.321 103.352 61.9602 103.236 61.6449C103.119 61.3295 102.946 61.0824 102.716 60.9034C102.486 60.7244 102.199 60.6349 101.855 60.6349C101.526 60.6349 101.246 60.7216 101.016 60.8949C100.786 61.0682 100.611 61.3111 100.492 61.6236C100.375 61.9361 100.317 62.304 100.317 62.7273ZM109.192 66.1278C108.536 66.1278 107.969 65.9915 107.492 65.7188C107.018 65.4432 106.653 65.054 106.397 64.5511C106.141 64.0455 106.013 63.4503 106.013 62.7656C106.013 62.0923 106.141 61.5014 106.397 60.9929C106.655 60.4815 107.016 60.0838 107.479 59.7997C107.942 59.5128 108.486 59.3693 109.111 59.3693C109.515 59.3693 109.895 59.4347 110.253 59.5653C110.614 59.6932 110.932 59.892 111.208 60.1619C111.486 60.4318 111.705 60.7756 111.864 61.1932C112.023 61.608 112.103 62.1023 112.103 62.6761V63.1491H106.738V62.1094H110.624C110.621 61.8139 110.557 61.5511 110.432 61.321C110.307 61.0881 110.133 60.9048 109.908 60.7713C109.687 60.6378 109.428 60.571 109.133 60.571C108.817 60.571 108.54 60.6477 108.302 60.8011C108.063 60.9517 107.877 61.1506 107.743 61.3977C107.613 61.642 107.546 61.9105 107.543 62.2031V63.1108C107.543 63.4915 107.613 63.8182 107.752 64.0909C107.891 64.3608 108.086 64.5682 108.336 64.7131C108.586 64.8551 108.878 64.9261 109.214 64.9261C109.438 64.9261 109.641 64.8949 109.823 64.8324C110.005 64.767 110.162 64.6719 110.296 64.5469C110.43 64.4219 110.53 64.267 110.599 64.0824L112.039 64.2443C111.948 64.625 111.775 64.9574 111.519 65.2415C111.266 65.5227 110.942 65.7415 110.547 65.8977C110.153 66.0511 109.701 66.1278 109.192 66.1278ZM114.95 57.2727V66H113.408V57.2727H114.95Z" fill="black"/>
<rect x="132.5" y="48.5" width="47" height="27" rx="3.5" stroke="#EBEBEB"/>
<path d="M141.117 66V57.2727H142.698V64.6747H146.541V66H141.117ZM149.729 66.1321C149.314 66.1321 148.941 66.0582 148.608 65.9105C148.279 65.7599 148.017 65.5384 147.824 65.2457C147.634 64.9531 147.539 64.5923 147.539 64.1634C147.539 63.794 147.607 63.4886 147.743 63.2472C147.879 63.0057 148.066 62.8125 148.301 62.6676C148.537 62.5227 148.803 62.4134 149.098 62.3395C149.396 62.2628 149.705 62.2074 150.023 62.1733C150.406 62.1335 150.718 62.098 150.956 62.0668C151.195 62.0327 151.368 61.9815 151.476 61.9134C151.587 61.8423 151.642 61.733 151.642 61.5852V61.5597C151.642 61.2386 151.547 60.9901 151.357 60.8139C151.166 60.6378 150.892 60.5497 150.534 60.5497C150.156 60.5497 149.857 60.6321 149.635 60.7969C149.416 60.9616 149.269 61.1562 149.192 61.3807L147.752 61.1761C147.865 60.7784 148.053 60.446 148.314 60.179C148.575 59.9091 148.895 59.7074 149.273 59.5739C149.651 59.4375 150.068 59.3693 150.526 59.3693C150.841 59.3693 151.155 59.4062 151.468 59.4801C151.78 59.554 152.066 59.6761 152.324 59.8466C152.583 60.0142 152.79 60.2429 152.946 60.5327C153.105 60.8224 153.185 61.1847 153.185 61.6193V66H151.702V65.1009H151.651C151.557 65.2827 151.425 65.4531 151.254 65.6122C151.087 65.7685 150.875 65.8949 150.619 65.9915C150.367 66.0852 150.07 66.1321 149.729 66.1321ZM150.129 64.9986C150.439 64.9986 150.708 64.9375 150.935 64.8153C151.162 64.6903 151.337 64.5256 151.459 64.321C151.584 64.1165 151.646 63.8935 151.646 63.652V62.8807C151.598 62.9205 151.516 62.9574 151.399 62.9915C151.286 63.0256 151.158 63.0554 151.016 63.081C150.874 63.1065 150.733 63.1293 150.594 63.1491C150.455 63.169 150.334 63.1861 150.232 63.2003C150.002 63.2315 149.796 63.2827 149.614 63.3537C149.432 63.4247 149.289 63.5241 149.183 63.652C149.078 63.777 149.026 63.9389 149.026 64.1378C149.026 64.4219 149.129 64.6364 149.337 64.7812C149.544 64.9261 149.808 64.9986 150.129 64.9986ZM154.804 66V57.2727H156.347V60.5369H156.411C156.49 60.3778 156.602 60.2088 156.747 60.0298C156.892 59.848 157.088 59.6932 157.335 59.5653C157.583 59.4347 157.898 59.3693 158.281 59.3693C158.787 59.3693 159.243 59.4986 159.649 59.7571C160.058 60.0128 160.382 60.392 160.621 60.8949C160.862 61.3949 160.983 62.0085 160.983 62.7358C160.983 63.4545 160.865 64.0653 160.629 64.5682C160.394 65.071 160.073 65.4545 159.666 65.7188C159.26 65.983 158.8 66.1151 158.286 66.1151C157.911 66.1151 157.6 66.0526 157.352 65.9276C157.105 65.8026 156.906 65.652 156.756 65.4759C156.608 65.2969 156.493 65.1278 156.411 64.9688H156.321V66H154.804ZM156.317 62.7273C156.317 63.1506 156.377 63.5213 156.496 63.8395C156.618 64.1577 156.793 64.4062 157.02 64.5852C157.25 64.7614 157.529 64.8494 157.855 64.8494C158.196 64.8494 158.482 64.7585 158.712 64.5767C158.942 64.392 159.115 64.1406 159.232 63.8224C159.351 63.5014 159.411 63.1364 159.411 62.7273C159.411 62.321 159.352 61.9602 159.236 61.6449C159.119 61.3295 158.946 61.0824 158.716 60.9034C158.486 60.7244 158.199 60.6349 157.855 60.6349C157.526 60.6349 157.246 60.7216 157.016 60.8949C156.786 61.0682 156.611 61.3111 156.492 61.6236C156.375 61.9361 156.317 62.304 156.317 62.7273ZM165.192 66.1278C164.536 66.1278 163.969 65.9915 163.492 65.7188C163.018 65.4432 162.653 65.054 162.397 64.5511C162.141 64.0455 162.013 63.4503 162.013 62.7656C162.013 62.0923 162.141 61.5014 162.397 60.9929C162.655 60.4815 163.016 60.0838 163.479 59.7997C163.942 59.5128 164.486 59.3693 165.111 59.3693C165.515 59.3693 165.895 59.4347 166.253 59.5653C166.614 59.6932 166.932 59.892 167.208 60.1619C167.486 60.4318 167.705 60.7756 167.864 61.1932C168.023 61.608 168.103 62.1023 168.103 62.6761V63.1491H162.738V62.1094H166.624C166.621 61.8139 166.557 61.5511 166.432 61.321C166.307 61.0881 166.133 60.9048 165.908 60.7713C165.687 60.6378 165.428 60.571 165.133 60.571C164.817 60.571 164.54 60.6477 164.302 60.8011C164.063 60.9517 163.877 61.1506 163.743 61.3977C163.613 61.642 163.546 61.9105 163.543 62.2031V63.1108C163.543 63.4915 163.613 63.8182 163.752 64.0909C163.891 64.3608 164.086 64.5682 164.336 64.7131C164.586 64.8551 164.878 64.9261 165.214 64.9261C165.438 64.9261 165.641 64.8949 165.823 64.8324C166.005 64.767 166.162 64.6719 166.296 64.5469C166.43 64.4219 166.53 64.267 166.599 64.0824L168.039 64.2443C167.948 64.625 167.775 64.9574 167.519 65.2415C167.266 65.5227 166.942 65.7415 166.547 65.8977C166.153 66.0511 165.701 66.1278 165.192 66.1278ZM170.95 57.2727V66H169.408V57.2727H170.95Z" fill="black"/>
</svg>
