<svg width="200" height="124" viewBox="0 0 200 124" fill="none" xmlns="http://www.w3.org/2000/svg">
<path d="M14.4588 66V57.2727H17.6548C18.2741 57.2727 18.7869 57.375 19.1932 57.5795C19.5994 57.7812 19.9034 58.0554 20.1051 58.402C20.3068 58.7457 20.4077 59.1335 20.4077 59.5653C20.4077 59.929 20.3409 60.2358 20.2074 60.4858C20.0739 60.733 19.8949 60.9318 19.6705 61.0824C19.4489 61.2301 19.2045 61.3381 18.9375 61.4062V61.4915C19.2273 61.5057 19.5099 61.5994 19.7855 61.7727C20.0639 61.9432 20.294 62.1861 20.4759 62.5014C20.6577 62.8168 20.7486 63.2003 20.7486 63.652C20.7486 64.098 20.6435 64.4986 20.4332 64.8537C20.2259 65.206 19.9048 65.4858 19.4702 65.6932C19.0355 65.8977 18.4801 66 17.804 66H14.4588ZM15.7756 64.8707H17.6761C18.3068 64.8707 18.7585 64.7486 19.0312 64.5043C19.304 64.2599 19.4403 63.9545 19.4403 63.5881C19.4403 63.3125 19.3707 63.0597 19.2315 62.8295C19.0923 62.5994 18.8935 62.4162 18.6349 62.2798C18.3793 62.1435 18.0753 62.0753 17.723 62.0753H15.7756V64.8707ZM15.7756 61.0483H17.5398C17.8352 61.0483 18.1009 60.9915 18.3366 60.8778C18.5753 60.7642 18.7642 60.6051 18.9034 60.4006C19.0455 60.1932 19.1165 59.9489 19.1165 59.6676C19.1165 59.3068 18.9901 59.0043 18.7372 58.7599C18.4844 58.5156 18.0966 58.3935 17.5739 58.3935H15.7756V61.0483ZM22.2081 66V59.4545H23.4396V60.4943H23.5078C23.6271 60.142 23.8374 59.8651 24.1385 59.6634C24.4425 59.4588 24.7862 59.3565 25.1697 59.3565C25.2493 59.3565 25.343 59.3594 25.451 59.3651C25.5618 59.3707 25.6484 59.3778 25.7109 59.3864V60.6051C25.6598 60.5909 25.5689 60.5753 25.4382 60.5582C25.3075 60.5384 25.1768 60.5284 25.0462 60.5284C24.745 60.5284 24.4766 60.5923 24.2408 60.7202C24.0078 60.8452 23.8232 61.0199 23.6868 61.2443C23.5504 61.4659 23.4822 61.7187 23.4822 62.0028V66H22.2081ZM29.4002 66.1321C28.7553 66.1321 28.1999 65.9943 27.734 65.7188C27.271 65.4403 26.913 65.0497 26.6602 64.5469C26.4102 64.0412 26.2852 63.4489 26.2852 62.7699C26.2852 62.0994 26.4102 61.5085 26.6602 60.9972C26.913 60.4858 27.2653 60.0866 27.717 59.7997C28.1715 59.5128 28.7028 59.3693 29.3107 59.3693C29.68 59.3693 30.038 59.4304 30.3846 59.5526C30.7312 59.6747 31.0423 59.8665 31.3178 60.1278C31.5934 60.3892 31.8107 60.7287 31.9698 61.1463C32.1289 61.5611 32.2085 62.0653 32.2085 62.6591V63.1108H27.0053V62.1562H30.9599C30.9599 61.821 30.8917 61.5241 30.7553 61.2656C30.619 61.0043 30.4272 60.7983 30.18 60.6477C29.9357 60.4972 29.6488 60.4219 29.3192 60.4219C28.9613 60.4219 28.6488 60.5099 28.3817 60.6861C28.1175 60.8594 27.913 61.0866 27.7681 61.3679C27.6261 61.6463 27.555 61.9489 27.555 62.2756V63.0213C27.555 63.4588 27.6317 63.831 27.7852 64.1378C27.9414 64.4446 28.1587 64.679 28.4371 64.8409C28.7156 65 29.0408 65.0795 29.413 65.0795C29.6545 65.0795 29.8746 65.0455 30.0735 64.9773C30.2724 64.9062 30.4442 64.8011 30.5891 64.6619C30.734 64.5227 30.8448 64.3509 30.9215 64.1463L32.1275 64.3636C32.0309 64.7187 31.8576 65.0298 31.6076 65.2969C31.3604 65.5611 31.0494 65.767 30.6744 65.9148C30.3022 66.0597 29.8775 66.1321 29.4002 66.1321ZM35.527 66.1449C35.1122 66.1449 34.7372 66.0682 34.402 65.9148C34.0668 65.7585 33.8011 65.5327 33.6051 65.2372C33.4119 64.9418 33.3153 64.5795 33.3153 64.1506C33.3153 63.7812 33.3864 63.4773 33.5284 63.2386C33.6705 63 33.8622 62.8111 34.1037 62.6719C34.3452 62.5327 34.6151 62.4276 34.9134 62.3565C35.2116 62.2855 35.5156 62.2315 35.8253 62.1946C36.2173 62.1491 36.5355 62.1122 36.7798 62.0838C37.0241 62.0526 37.2017 62.0028 37.3125 61.9347C37.4233 61.8665 37.4787 61.7557 37.4787 61.6023V61.5724C37.4787 61.2003 37.3736 60.9119 37.1634 60.7074C36.956 60.5028 36.6463 60.4006 36.2344 60.4006C35.8054 60.4006 35.4673 60.4957 35.2202 60.6861C34.9759 60.8736 34.8068 61.0824 34.7131 61.3125L33.5156 61.0398C33.6577 60.642 33.8651 60.321 34.1378 60.0767C34.4134 59.8295 34.7301 59.6506 35.0881 59.5398C35.446 59.4261 35.8224 59.3693 36.2173 59.3693C36.4787 59.3693 36.7557 59.4006 37.0483 59.4631C37.3438 59.5227 37.6193 59.6335 37.875 59.7955C38.1335 59.9574 38.3452 60.1889 38.5099 60.4901C38.6747 60.7884 38.7571 61.1761 38.7571 61.6534V66H37.5128V65.1051H37.4616C37.3793 65.2699 37.2557 65.4318 37.0909 65.5909C36.9261 65.75 36.7145 65.8821 36.456 65.9872C36.1974 66.0923 35.8878 66.1449 35.527 66.1449ZM35.804 65.1222C36.1563 65.1222 36.4574 65.0526 36.7074 64.9134C36.9602 64.7741 37.152 64.5923 37.2827 64.3679C37.4162 64.1406 37.483 63.8977 37.483 63.6392V62.7955C37.4375 62.8409 37.3494 62.8835 37.2188 62.9233C37.0909 62.9602 36.9446 62.9929 36.7798 63.0213C36.6151 63.0469 36.4545 63.071 36.2983 63.0938C36.142 63.1136 36.0114 63.1307 35.9062 63.1449C35.6591 63.1761 35.4332 63.2287 35.2287 63.3026C35.027 63.3764 34.8651 63.483 34.7429 63.6222C34.6236 63.7585 34.5639 63.9403 34.5639 64.1676C34.5639 64.483 34.6804 64.7216 34.9134 64.8835C35.1463 65.0426 35.4432 65.1222 35.804 65.1222ZM42.9045 66.1278C42.3761 66.1278 41.9045 65.9929 41.4897 65.723C41.0778 65.4503 40.7539 65.0625 40.5181 64.5597C40.2852 64.054 40.1687 63.4474 40.1687 62.7401C40.1687 62.0327 40.2866 61.4276 40.5224 60.9247C40.761 60.4219 41.0877 60.0369 41.5025 59.7699C41.9173 59.5028 42.3874 59.3693 42.913 59.3693C43.3192 59.3693 43.646 59.4375 43.8931 59.5739C44.1431 59.7074 44.3363 59.8636 44.4727 60.0426C44.6119 60.2216 44.7198 60.3793 44.7965 60.5156H44.8732V57.2727H46.1474V66H44.9031V64.9815H44.7965C44.7198 65.1207 44.609 65.2798 44.4641 65.4588C44.3221 65.6378 44.1261 65.794 43.8761 65.9276C43.6261 66.0611 43.3022 66.1278 42.9045 66.1278ZM43.1857 65.0412C43.5522 65.0412 43.8619 64.9446 44.1147 64.7514C44.3704 64.5554 44.5636 64.2841 44.6942 63.9375C44.8278 63.5909 44.8945 63.1875 44.8945 62.7273C44.8945 62.2727 44.8292 61.875 44.6985 61.5341C44.5678 61.1932 44.3761 60.9276 44.1232 60.7372C43.8704 60.5469 43.5579 60.4517 43.1857 60.4517C42.8022 60.4517 42.4826 60.5511 42.2269 60.75C41.9712 60.9489 41.7781 61.2202 41.6474 61.5639C41.5195 61.9077 41.4556 62.2955 41.4556 62.7273C41.4556 63.1648 41.521 63.5582 41.6516 63.9077C41.7823 64.2571 41.9755 64.5341 42.2312 64.7386C42.4897 64.9403 42.8079 65.0412 43.1857 65.0412ZM50.723 66.1321C50.0895 66.1321 49.544 65.9886 49.0866 65.7017C48.6321 65.4119 48.2827 65.0128 48.0384 64.5043C47.794 63.9957 47.6719 63.4134 47.6719 62.7571C47.6719 62.0923 47.7969 61.5057 48.0469 60.9972C48.2969 60.4858 48.6491 60.0866 49.1037 59.7997C49.5582 59.5128 50.0938 59.3693 50.7102 59.3693C51.2074 59.3693 51.6506 59.4616 52.0398 59.6463C52.429 59.8281 52.7429 60.0838 52.9815 60.4134C53.223 60.7429 53.3665 61.1278 53.4119 61.5682H52.1719C52.1037 61.2614 51.9474 60.9972 51.7031 60.7756C51.4616 60.554 51.1378 60.4432 50.7315 60.4432C50.3764 60.4432 50.0653 60.5369 49.7983 60.7244C49.5341 60.9091 49.3281 61.1733 49.1804 61.517C49.0327 61.858 48.9588 62.2614 48.9588 62.7273C48.9588 63.2045 49.0313 63.6165 49.1761 63.9631C49.321 64.3097 49.5256 64.5781 49.7898 64.7685C50.0568 64.9588 50.3707 65.054 50.7315 65.054C50.973 65.054 51.1918 65.0099 51.3878 64.9219C51.5866 64.831 51.7528 64.7017 51.8864 64.5341C52.0227 64.3665 52.1179 64.1648 52.1719 63.929H53.4119C53.3665 64.3523 53.2287 64.7301 52.9986 65.0625C52.7685 65.3949 52.4602 65.6562 52.0739 65.8466C51.6903 66.0369 51.2401 66.1321 50.723 66.1321ZM54.7745 66V59.4545H56.006V60.4943H56.0742C56.1935 60.142 56.4038 59.8651 56.7049 59.6634C57.0089 59.4588 57.3526 59.3565 57.7362 59.3565C57.8157 59.3565 57.9094 59.3594 58.0174 59.3651C58.1282 59.3707 58.2148 59.3778 58.2773 59.3864V60.6051C58.2262 60.5909 58.1353 60.5753 58.0046 60.5582C57.8739 60.5384 57.7433 60.5284 57.6126 60.5284C57.3114 60.5284 57.043 60.5923 56.8072 60.7202C56.5742 60.8452 56.3896 61.0199 56.2532 61.2443C56.1168 61.4659 56.0487 61.7187 56.0487 62.0028V66H54.7745ZM63.5263 63.2855V59.4545H64.8047V66H63.5518V64.8665H63.4837C63.3331 65.2159 63.0916 65.5071 62.7592 65.7401C62.4297 65.9702 62.0192 66.0852 61.5277 66.0852C61.1072 66.0852 60.7351 65.9929 60.4112 65.8082C60.0902 65.6207 59.8374 65.3438 59.6527 64.9773C59.4709 64.6108 59.38 64.1577 59.38 63.6179V59.4545H60.6541V63.4645C60.6541 63.9105 60.7777 64.2656 61.0249 64.5298C61.272 64.794 61.593 64.9261 61.9879 64.9261C62.2266 64.9261 62.4638 64.8665 62.6996 64.7472C62.9382 64.6278 63.1357 64.4474 63.2919 64.206C63.451 63.9645 63.5291 63.6577 63.5263 63.2855ZM66.5167 66V59.4545H67.7397V60.5199H67.8207C67.957 60.1591 68.18 59.8778 68.4897 59.6761C68.7994 59.4716 69.1701 59.3693 69.6019 59.3693C70.0394 59.3693 70.4059 59.4716 70.7013 59.6761C70.9996 59.8807 71.2198 60.1619 71.3619 60.5199H71.43C71.5863 60.1705 71.8349 59.892 72.1758 59.6847C72.5167 59.4744 72.9229 59.3693 73.3945 59.3693C73.9883 59.3693 74.4727 59.5554 74.8477 59.9276C75.2255 60.2997 75.4144 60.8608 75.4144 61.6108V66H74.1403V61.7301C74.1403 61.2869 74.0195 60.9659 73.7781 60.767C73.5366 60.5682 73.2482 60.4688 72.913 60.4688C72.4982 60.4688 72.1758 60.5966 71.9457 60.8523C71.7156 61.1051 71.6005 61.4304 71.6005 61.8281V66H70.3306V61.6491C70.3306 61.294 70.2198 61.0085 69.9982 60.7926C69.7766 60.5767 69.4883 60.4688 69.1332 60.4688C68.8917 60.4688 68.6687 60.5327 68.4641 60.6605C68.2624 60.7855 68.0991 60.9602 67.9741 61.1847C67.8519 61.4091 67.7908 61.669 67.7908 61.9645V66H66.5167ZM77.2244 66V57.2727H78.4986V60.5156H78.5753C78.6491 60.3793 78.7557 60.2216 78.8949 60.0426C79.0341 59.8636 79.2273 59.7074 79.4744 59.5739C79.7216 59.4375 80.0483 59.3693 80.4545 59.3693C80.983 59.3693 81.4545 59.5028 81.8693 59.7699C82.2841 60.0369 82.6094 60.4219 82.8452 60.9247C83.0838 61.4276 83.2031 62.0327 83.2031 62.7401C83.2031 63.4474 83.0852 64.054 82.8494 64.5597C82.6136 65.0625 82.2898 65.4503 81.8778 65.723C81.4659 65.9929 80.9957 66.1278 80.4673 66.1278C80.0696 66.1278 79.7443 66.0611 79.4915 65.9276C79.2415 65.794 79.0455 65.6378 78.9034 65.4588C78.7614 65.2798 78.652 65.1207 78.5753 64.9815H78.4688V66H77.2244ZM78.473 62.7273C78.473 63.1875 78.5398 63.5909 78.6733 63.9375C78.8068 64.2841 79 64.5554 79.2528 64.7514C79.5057 64.9446 79.8153 65.0412 80.1818 65.0412C80.5625 65.0412 80.8807 64.9403 81.1364 64.7386C81.392 64.5341 81.5852 64.2571 81.7159 63.9077C81.8494 63.5582 81.9162 63.1648 81.9162 62.7273C81.9162 62.2955 81.8509 61.9077 81.7202 61.5639C81.5923 61.2202 81.3991 60.9489 81.1406 60.75C80.8849 60.5511 80.5653 60.4517 80.1818 60.4517C79.8125 60.4517 79.5 60.5469 79.2443 60.7372C78.9915 60.9276 78.7997 61.1932 78.669 61.5341C78.5384 61.875 78.473 62.2727 78.473 62.7273ZM91.1037 57.2727V66H89.7827V58.5938H89.7315L87.6435 59.9574V58.696L89.821 57.2727H91.1037Z" fill="#794CFF"/>
<path d="M103.68 56.8636L100.868 67.3125H99.7301L102.543 56.8636H103.68Z" fill="black"/>
<path d="M118.707 60.1108H117.378C117.327 59.8267 117.232 59.5767 117.092 59.3608C116.953 59.1449 116.783 58.9616 116.581 58.8111C116.379 58.6605 116.153 58.5469 115.903 58.4702C115.656 58.3935 115.393 58.3551 115.115 58.3551C114.612 58.3551 114.162 58.4815 113.764 58.7344C113.369 58.9872 113.057 59.358 112.827 59.8466C112.599 60.3352 112.486 60.9318 112.486 61.6364C112.486 62.3466 112.599 62.946 112.827 63.4347C113.057 63.9233 113.371 64.2926 113.768 64.5426C114.166 64.7926 114.614 64.9176 115.111 64.9176C115.386 64.9176 115.648 64.8807 115.895 64.8068C116.145 64.7301 116.371 64.6179 116.572 64.4702C116.774 64.3224 116.945 64.142 117.084 63.929C117.226 63.7131 117.324 63.4659 117.378 63.1875L118.707 63.1918C118.636 63.6207 118.499 64.0156 118.294 64.3764C118.092 64.7344 117.832 65.044 117.514 65.3054C117.199 65.5639 116.838 65.7642 116.432 65.9062C116.026 66.0483 115.582 66.1193 115.102 66.1193C114.347 66.1193 113.673 65.9403 113.082 65.5824C112.491 65.2216 112.026 64.706 111.685 64.0355C111.347 63.3651 111.178 62.5653 111.178 61.6364C111.178 60.7045 111.348 59.9048 111.689 59.2372C112.03 58.5668 112.496 58.0526 113.087 57.6946C113.678 57.3338 114.349 57.1534 115.102 57.1534C115.565 57.1534 115.997 57.2202 116.398 57.3537C116.801 57.4844 117.163 57.6776 117.484 57.9332C117.805 58.1861 118.071 58.4957 118.281 58.8622C118.491 59.2259 118.634 59.642 118.707 60.1108ZM124.327 63.2855V59.4545H125.605V66H124.353V64.8665H124.284C124.134 65.2159 123.892 65.5071 123.56 65.7401C123.23 65.9702 122.82 66.0852 122.328 66.0852C121.908 66.0852 121.536 65.9929 121.212 65.8082C120.891 65.6207 120.638 65.3438 120.453 64.9773C120.272 64.6108 120.181 64.1577 120.181 63.6179V59.4545H121.455V63.4645C121.455 63.9105 121.578 64.2656 121.826 64.5298C122.073 64.794 122.394 64.9261 122.789 64.9261C123.027 64.9261 123.265 64.8665 123.5 64.7472C123.739 64.6278 123.936 64.4474 124.093 64.206C124.252 63.9645 124.33 63.6577 124.327 63.2855ZM127.317 66V59.4545H128.549V60.4943H128.617C128.737 60.142 128.947 59.8651 129.248 59.6634C129.552 59.4588 129.896 59.3565 130.279 59.3565C130.359 59.3565 130.452 59.3594 130.56 59.3651C130.671 59.3707 130.758 59.3778 130.82 59.3864V60.6051C130.769 60.5909 130.678 60.5753 130.548 60.5582C130.417 60.5384 130.286 60.5284 130.156 60.5284C129.854 60.5284 129.586 60.5923 129.35 60.7202C129.117 60.8452 128.933 61.0199 128.796 61.2443C128.66 61.4659 128.592 61.7187 128.592 62.0028V66H127.317ZM131.923 66V59.4545H133.154V60.4943H133.223C133.342 60.142 133.552 59.8651 133.853 59.6634C134.157 59.4588 134.501 59.3565 134.885 59.3565C134.964 59.3565 135.058 59.3594 135.166 59.3651C135.277 59.3707 135.363 59.3778 135.426 59.3864V60.6051C135.375 60.5909 135.284 60.5753 135.153 60.5582C135.022 60.5384 134.892 60.5284 134.761 60.5284C134.46 60.5284 134.191 60.5923 133.956 60.7202C133.723 60.8452 133.538 61.0199 133.402 61.2443C133.265 61.4659 133.197 61.7187 133.197 62.0028V66H131.923ZM139.115 66.1321C138.47 66.1321 137.915 65.9943 137.449 65.7188C136.986 65.4403 136.628 65.0497 136.375 64.5469C136.125 64.0412 136 63.4489 136 62.7699C136 62.0994 136.125 61.5085 136.375 60.9972C136.628 60.4858 136.98 60.0866 137.432 59.7997C137.886 59.5128 138.418 59.3693 139.026 59.3693C139.395 59.3693 139.753 59.4304 140.099 59.5526C140.446 59.6747 140.757 59.8665 141.033 60.1278C141.308 60.3892 141.526 60.7287 141.685 61.1463C141.844 61.5611 141.923 62.0653 141.923 62.6591V63.1108H136.72V62.1562H140.675C140.675 61.821 140.607 61.5241 140.47 61.2656C140.334 61.0043 140.142 60.7983 139.895 60.6477C139.651 60.4972 139.364 60.4219 139.034 60.4219C138.676 60.4219 138.364 60.5099 138.097 60.6861C137.832 60.8594 137.628 61.0866 137.483 61.3679C137.341 61.6463 137.27 61.9489 137.27 62.2756V63.0213C137.27 63.4588 137.347 63.831 137.5 64.1378C137.656 64.4446 137.874 64.679 138.152 64.8409C138.43 65 138.756 65.0795 139.128 65.0795C139.369 65.0795 139.589 65.0455 139.788 64.9773C139.987 64.9062 140.159 64.8011 140.304 64.6619C140.449 64.5227 140.56 64.3509 140.636 64.1463L141.842 64.3636C141.746 64.7187 141.572 65.0298 141.322 65.2969C141.075 65.5611 140.764 65.767 140.389 65.9148C140.017 66.0597 139.592 66.1321 139.115 66.1321ZM144.611 62.1136V66H143.337V59.4545H144.56V60.5199H144.641C144.792 60.1733 145.027 59.8949 145.348 59.6847C145.672 59.4744 146.08 59.3693 146.571 59.3693C147.017 59.3693 147.408 59.4631 147.743 59.6506C148.078 59.8352 148.338 60.1108 148.523 60.4773C148.708 60.8437 148.8 61.2969 148.8 61.8366V66H147.526V61.9901C147.526 61.5156 147.402 61.1449 147.155 60.8778C146.908 60.608 146.569 60.473 146.137 60.473C145.841 60.473 145.578 60.5369 145.348 60.6648C145.121 60.7926 144.941 60.9801 144.807 61.2273C144.676 61.4716 144.611 61.767 144.611 62.1136ZM153.564 59.4545V60.4773H149.989V59.4545H153.564ZM150.948 57.8864H152.222V64.0781C152.222 64.3253 152.259 64.5114 152.333 64.6364C152.407 64.7585 152.502 64.8423 152.618 64.8878C152.738 64.9304 152.867 64.9517 153.006 64.9517C153.108 64.9517 153.198 64.9446 153.275 64.9304C153.351 64.9162 153.411 64.9048 153.453 64.8963L153.684 65.9489C153.61 65.9773 153.505 66.0057 153.368 66.0341C153.232 66.0653 153.061 66.0824 152.857 66.0852C152.522 66.0909 152.209 66.0312 151.919 65.9062C151.63 65.7812 151.395 65.5881 151.216 65.3267C151.037 65.0653 150.948 64.7372 150.948 64.3423V57.8864ZM158.252 66V57.2727H161.363C162.042 57.2727 162.604 57.3963 163.05 57.6435C163.496 57.8906 163.83 58.2287 164.051 58.6577C164.273 59.0838 164.384 59.5639 164.384 60.098C164.384 60.6349 164.272 61.1179 164.047 61.5469C163.826 61.973 163.49 62.3111 163.042 62.5611C162.596 62.8082 162.034 62.9318 161.358 62.9318H159.219V61.8153H161.239C161.668 61.8153 162.016 61.7415 162.283 61.5938C162.55 61.4432 162.746 61.2386 162.871 60.9801C162.996 60.7216 163.059 60.4276 163.059 60.098C163.059 59.7685 162.996 59.4759 162.871 59.2202C162.746 58.9645 162.549 58.7642 162.279 58.6193C162.012 58.4744 161.659 58.402 161.222 58.402H159.569V66H158.252ZM167.672 66.1449C167.257 66.1449 166.882 66.0682 166.547 65.9148C166.211 65.7585 165.946 65.5327 165.75 65.2372C165.556 64.9418 165.46 64.5795 165.46 64.1506C165.46 63.7812 165.531 63.4773 165.673 63.2386C165.815 63 166.007 62.8111 166.248 62.6719C166.49 62.5327 166.76 62.4276 167.058 62.3565C167.356 62.2855 167.66 62.2315 167.97 62.1946C168.362 62.1491 168.68 62.1122 168.924 62.0838C169.169 62.0526 169.346 62.0028 169.457 61.9347C169.568 61.8665 169.623 61.7557 169.623 61.6023V61.5724C169.623 61.2003 169.518 60.9119 169.308 60.7074C169.1 60.5028 168.791 60.4006 168.379 60.4006C167.95 60.4006 167.612 60.4957 167.365 60.6861C167.12 60.8736 166.951 61.0824 166.858 61.3125L165.66 61.0398C165.802 60.642 166.01 60.321 166.282 60.0767C166.558 59.8295 166.875 59.6506 167.233 59.5398C167.591 59.4261 167.967 59.3693 168.362 59.3693C168.623 59.3693 168.9 59.4006 169.193 59.4631C169.488 59.5227 169.764 59.6335 170.02 59.7955C170.278 59.9574 170.49 60.1889 170.654 60.4901C170.819 60.7884 170.902 61.1761 170.902 61.6534V66H169.657V65.1051H169.606C169.524 65.2699 169.4 65.4318 169.235 65.5909C169.071 65.75 168.859 65.8821 168.6 65.9872C168.342 66.0923 168.032 66.1449 167.672 66.1449ZM167.949 65.1222C168.301 65.1222 168.602 65.0526 168.852 64.9134C169.105 64.7741 169.297 64.5923 169.427 64.3679C169.561 64.1406 169.627 63.8977 169.627 63.6392V62.7955C169.582 62.8409 169.494 62.8835 169.363 62.9233C169.235 62.9602 169.089 62.9929 168.924 63.0213C168.76 63.0469 168.599 63.071 168.443 63.0938C168.287 63.1136 168.156 63.1307 168.051 63.1449C167.804 63.1761 167.578 63.2287 167.373 63.3026C167.172 63.3764 167.01 63.483 166.887 63.6222C166.768 63.7585 166.708 63.9403 166.708 64.1676C166.708 64.483 166.825 64.7216 167.058 64.8835C167.291 65.0426 167.588 65.1222 167.949 65.1222ZM175.343 68.5909C174.823 68.5909 174.376 68.5227 174.001 68.3864C173.629 68.25 173.325 68.0696 173.089 67.8452C172.853 67.6207 172.677 67.375 172.56 67.108L173.656 66.6562C173.732 66.7812 173.835 66.9134 173.962 67.0526C174.093 67.1946 174.269 67.3153 174.491 67.4148C174.715 67.5142 175.004 67.5639 175.356 67.5639C175.839 67.5639 176.238 67.446 176.553 67.2102C176.869 66.9773 177.026 66.6051 177.026 66.0938V64.8068H176.945C176.869 64.946 176.758 65.1009 176.613 65.2713C176.471 65.4418 176.275 65.5895 176.025 65.7145C175.775 65.8395 175.45 65.902 175.049 65.902C174.532 65.902 174.066 65.7812 173.651 65.5398C173.239 65.2955 172.913 64.9361 172.671 64.4616C172.433 63.9844 172.313 63.3977 172.313 62.7017C172.313 62.0057 172.431 61.4091 172.667 60.9119C172.906 60.4148 173.232 60.0341 173.647 59.7699C174.062 59.5028 174.532 59.3693 175.058 59.3693C175.464 59.3693 175.792 59.4375 176.042 59.5739C176.292 59.7074 176.487 59.8636 176.626 60.0426C176.768 60.2216 176.877 60.3793 176.954 60.5156H177.048V59.4545H178.296V66.1449C178.296 66.7074 178.165 67.169 177.904 67.5298C177.643 67.8906 177.289 68.1577 176.843 68.331C176.4 68.5043 175.9 68.5909 175.343 68.5909ZM175.33 64.8452C175.697 64.8452 176.006 64.7599 176.259 64.5895C176.515 64.4162 176.708 64.169 176.839 63.848C176.972 63.5241 177.039 63.1364 177.039 62.6847C177.039 62.2443 176.974 61.8565 176.843 61.5213C176.712 61.1861 176.521 60.9247 176.268 60.7372C176.015 60.5469 175.702 60.4517 175.33 60.4517C174.947 60.4517 174.627 60.5511 174.371 60.75C174.116 60.946 173.923 61.2131 173.792 61.5511C173.664 61.8892 173.6 62.267 173.6 62.6847C173.6 63.1136 173.665 63.4901 173.796 63.8139C173.927 64.1378 174.12 64.3906 174.376 64.5724C174.634 64.7543 174.952 64.8452 175.33 64.8452ZM182.826 66.1321C182.181 66.1321 181.626 65.9943 181.16 65.7188C180.697 65.4403 180.339 65.0497 180.086 64.5469C179.836 64.0412 179.711 63.4489 179.711 62.7699C179.711 62.0994 179.836 61.5085 180.086 60.9972C180.339 60.4858 180.691 60.0866 181.143 59.7997C181.597 59.5128 182.129 59.3693 182.737 59.3693C183.106 59.3693 183.464 59.4304 183.81 59.5526C184.157 59.6747 184.468 59.8665 184.744 60.1278C185.019 60.3892 185.237 60.7287 185.396 61.1463C185.555 61.5611 185.634 62.0653 185.634 62.6591V63.1108H180.431V62.1562H184.386C184.386 61.821 184.317 61.5241 184.181 61.2656C184.045 61.0043 183.853 60.7983 183.606 60.6477C183.362 60.4972 183.075 60.4219 182.745 60.4219C182.387 60.4219 182.075 60.5099 181.808 60.6861C181.543 60.8594 181.339 61.0866 181.194 61.3679C181.052 61.6463 180.981 61.9489 180.981 62.2756V63.0213C180.981 63.4588 181.058 63.831 181.211 64.1378C181.367 64.4446 181.585 64.679 181.863 64.8409C182.141 65 182.467 65.0795 182.839 65.0795C183.08 65.0795 183.3 65.0455 183.499 64.9773C183.698 64.9062 183.87 64.8011 184.015 64.6619C184.16 64.5227 184.271 64.3509 184.347 64.1463L185.553 64.3636C185.457 64.7187 185.283 65.0298 185.033 65.2969C184.786 65.5611 184.475 65.767 184.1 65.9148C183.728 66.0597 183.303 66.1321 182.826 66.1321Z" fill="black"/>
</svg>
