<svg width="149" height="24" viewBox="0 0 149 24" fill="none" xmlns="http://www.w3.org/2000/svg">
<g clip-path="url(#clip0_6343_39208)">
<path d="M16 1H8C4.13401 1 1 4.13401 1 8V16C1 19.866 4.13401 23 8 23H16C19.866 23 23 19.866 23 16V8C23 4.13401 19.866 1 16 1Z" fill="white"/>
<path d="M16 1H8C4.13401 1 1 4.13401 1 8V16C1 19.866 4.13401 23 8 23H16C19.866 23 23 19.866 23 16V8C23 4.13401 19.866 1 16 1Z" stroke="#5D5D5D" stroke-width="2"/>
<path d="M37.1914 16V7.03995H39.9354C42.9174 7.03995 44.9894 8.87395 44.9894 11.52C44.9894 14.166 42.9734 16 40.0614 16H37.1914ZM39.9634 8.22995H38.4794V14.81H39.9634C42.1894 14.81 43.6454 13.508 43.6454 11.52C43.6454 9.53195 42.1894 8.22995 39.9634 8.22995ZM49.8251 16.168C47.7811 16.168 46.3111 14.586 46.3111 12.64C46.3111 10.694 47.7251 9.12595 49.6291 9.12595C51.5051 9.12595 52.9331 10.624 52.9331 12.514C52.9331 12.682 52.9191 12.934 52.8911 13.032H47.5851C47.7391 14.194 48.6211 15.062 49.8671 15.062C50.6231 15.062 51.2951 14.768 51.7431 14.32L52.4011 15.174C51.8551 15.762 50.9031 16.168 49.8251 16.168ZM49.6431 10.19C48.5931 10.19 47.8371 10.946 47.6131 12.01H51.6311C51.4071 10.848 50.6511 10.19 49.6431 10.19ZM53.8394 10.4V9.29395H54.8894V8.52395C54.8894 7.03995 55.7434 6.19995 57.0314 6.19995C57.8154 6.19995 58.3474 6.43795 58.7254 6.84395L58.0814 7.75395C57.8714 7.52995 57.5074 7.36195 57.1294 7.36195C56.4994 7.36195 56.1354 7.78195 56.1354 8.53795V9.29395H57.9134V10.4H56.1354V16H54.8894V10.4H53.8394ZM61.6587 16.168C59.8387 16.168 58.4107 14.67 58.4107 12.64C58.4107 10.652 59.7827 9.12595 61.6587 9.12595C62.7087 9.12595 63.5067 9.62995 64.0107 10.456V9.29395H65.2567V16H64.0107V14.796C63.5067 15.622 62.7087 16.168 61.6587 16.168ZM61.8407 15.006C63.1007 15.006 64.0107 13.942 64.0107 12.64C64.0107 11.324 63.1007 10.288 61.8407 10.288C60.5667 10.288 59.6567 11.324 59.6567 12.64C59.6567 13.942 60.5667 15.006 61.8407 15.006ZM68.6206 9.29395V13.004C68.6206 14.18 69.3066 14.964 70.3426 14.964C71.3926 14.964 72.0926 14.18 72.0926 13.004V9.29395H73.3386V13.102C73.3386 14.922 72.1486 16.126 70.3426 16.126C68.5506 16.126 67.3746 14.922 67.3746 13.102V9.29395H68.6206ZM77.655 14.922L77.795 16.014C77.585 16.084 77.319 16.14 77.109 16.14C76.269 16.14 75.471 15.58 75.471 14.18V6.36795H76.703V14.194C76.703 14.782 77.025 14.992 77.347 14.992C77.445 14.992 77.557 14.964 77.655 14.922ZM78.6935 10.4V9.29395H79.7995V7.62795H81.0455V9.29395H82.9495V10.4H81.0595V13.942C81.0595 14.656 81.3815 15.006 81.9835 15.006C82.3195 15.006 82.6555 14.88 82.8515 14.656L83.4255 15.594C83.1035 15.902 82.5575 16.168 81.8155 16.168C80.5555 16.168 79.7995 15.426 79.7995 13.984V10.4H78.6935ZM95.2761 7.97795L94.4361 8.95795C93.8341 8.45395 93.0781 8.10395 92.0701 8.10395C90.2781 8.10395 88.8361 9.62995 88.8361 11.52C88.8361 13.396 90.2781 14.922 92.1821 14.922C93.0501 14.922 93.8761 14.628 94.4501 14.096L95.2761 15.02C94.4501 15.832 93.4281 16.168 92.0981 16.168C89.4941 16.168 87.4921 14.082 87.4921 11.52C87.4921 8.94395 89.5361 6.85795 92.0561 6.85795C93.4841 6.85795 94.4921 7.26395 95.2761 7.97795ZM96.7171 16V6.36795H97.9491V10.316C98.3271 9.57395 99.0411 9.12595 99.9791 9.12595C101.547 9.12595 102.569 10.204 102.569 11.898V16H101.337V12.094C101.337 10.988 100.693 10.288 99.6431 10.288C98.5931 10.288 97.9491 10.988 97.9491 12.094V16H96.7171ZM107.725 16.168C105.681 16.168 104.211 14.586 104.211 12.64C104.211 10.694 105.625 9.12595 107.529 9.12595C109.405 9.12595 110.833 10.624 110.833 12.514C110.833 12.682 110.819 12.934 110.791 13.032H105.485C105.639 14.194 106.521 15.062 107.767 15.062C108.523 15.062 109.195 14.768 109.643 14.32L110.301 15.174C109.755 15.762 108.803 16.168 107.725 16.168ZM107.543 10.19C106.493 10.19 105.737 10.946 105.513 12.01H109.531C109.307 10.848 108.551 10.19 107.543 10.19ZM117.213 10.946C116.751 10.526 116.177 10.288 115.435 10.288C114.105 10.288 113.195 11.324 113.195 12.64C113.195 13.942 114.119 15.006 115.421 15.006C116.163 15.006 116.793 14.768 117.241 14.32L117.885 15.23C117.353 15.804 116.415 16.168 115.393 16.168C113.433 16.168 111.949 14.586 111.949 12.64C111.949 10.694 113.447 9.12595 115.407 9.12595C116.471 9.12595 117.367 9.48995 117.927 10.064L117.213 10.946ZM120.494 16H119.262V6.36795H120.494V12.22L123.644 9.29395H125.212L121.838 12.43L125.45 16H123.826L120.494 12.682V16ZM130.146 9.12595C131.966 9.12595 133.394 10.624 133.394 12.654C133.394 14.642 132.022 16.168 130.146 16.168C129.096 16.168 128.298 15.664 127.794 14.838V16H126.562V6.36795H127.794V10.498C128.298 9.67195 129.096 9.12595 130.146 9.12595ZM129.992 10.288C128.718 10.288 127.794 11.352 127.794 12.654C127.794 13.97 128.718 15.006 129.992 15.006C131.252 15.006 132.162 13.97 132.162 12.654C132.162 11.352 131.252 10.288 129.992 10.288ZM138.074 16.168C136.156 16.168 134.658 14.586 134.658 12.64C134.658 10.694 136.156 9.12595 138.074 9.12595C140.006 9.12595 141.504 10.694 141.504 12.64C141.504 14.586 140.006 16.168 138.074 16.168ZM138.088 15.006C139.348 15.006 140.258 13.942 140.258 12.64C140.258 11.324 139.348 10.288 138.088 10.288C136.814 10.288 135.904 11.324 135.904 12.64C135.904 13.942 136.814 15.006 138.088 15.006ZM141.936 16L144.526 12.584L142.048 9.29395H143.588L145.338 11.632L147.13 9.29395H148.53L146.052 12.57L148.628 16H147.088L145.226 13.522L143.336 16H141.936Z" fill="black"/>
</g>
<defs>
<clipPath id="clip0_6343_39208">
<rect width="149" height="24" fill="white"/>
</clipPath>
</defs>
</svg>
