<svg width="174" height="60" viewBox="0 0 174 60" fill="none" xmlns="http://www.w3.org/2000/svg">
<g clip-path="url(#clip0_6343_39146)">
<path d="M16.5 0H8.5C4.08172 0 0.5 3.58172 0.5 8V16C0.5 20.4183 4.08172 24 8.5 24H16.5C20.9183 24 24.5 20.4183 24.5 16V8C24.5 3.58172 20.9183 0 16.5 0Z" fill="#2861BB"/>
<path d="M18.5 11H6.5V13H18.5V11Z" fill="white"/>
<path d="M44.1729 16L43.2489 13.704H38.9649L38.0409 16H36.7109L40.4069 7.02595H41.8909L45.5869 16H44.1729ZM39.4269 12.57H42.7869L41.1069 8.38395L39.4269 12.57ZM49.1018 14.922L49.2418 16.014C49.0318 16.084 48.7658 16.14 48.5558 16.14C47.7158 16.14 46.9178 15.58 46.9178 14.18V6.36795H48.1498V14.194C48.1498 14.782 48.4718 14.992 48.7938 14.992C48.8918 14.992 49.0038 14.964 49.1018 14.922ZM52.9026 14.922L53.0426 16.014C52.8326 16.084 52.5666 16.14 52.3566 16.14C51.5166 16.14 50.7186 15.58 50.7186 14.18V6.36795H51.9506V14.194C51.9506 14.782 52.2726 14.992 52.5946 14.992C52.6926 14.992 52.8046 14.964 52.9026 14.922ZM64.1269 16L59.1569 9.08395V16H57.8969V7.02595H59.2689L64.2389 13.984V7.02595H65.4989V16H64.1269ZM70.6934 16.168C68.7754 16.168 67.2774 14.586 67.2774 12.64C67.2774 10.694 68.7754 9.12595 70.6934 9.12595C72.6254 9.12595 74.1234 10.694 74.1234 12.64C74.1234 14.586 72.6254 16.168 70.6934 16.168ZM70.7074 15.006C71.9674 15.006 72.8774 13.942 72.8774 12.64C72.8774 11.324 71.9674 10.288 70.7074 10.288C69.4334 10.288 68.5234 11.324 68.5234 12.64C68.5234 13.942 69.4334 15.006 70.7074 15.006ZM75.1188 10.4V9.29395H76.2248V7.62795H77.4708V9.29395H79.3748V10.4H77.4848V13.942C77.4848 14.656 77.8068 15.006 78.4088 15.006C78.7448 15.006 79.0808 14.88 79.2768 14.656L79.8508 15.594C79.5288 15.902 78.9828 16.168 78.2408 16.168C76.9808 16.168 76.2248 15.426 76.2248 13.984V10.4H75.1188ZM81.7955 8.13195C81.3615 8.13195 81.0255 7.78195 81.0255 7.36195C81.0255 6.94195 81.3615 6.59195 81.7955 6.59195C82.2155 6.59195 82.5655 6.94195 82.5655 7.36195C82.5655 7.78195 82.2155 8.13195 81.7955 8.13195ZM82.4115 16H81.1795V9.29395H82.4115V16ZM83.9522 10.4V9.29395H85.0022V8.95795C85.0022 7.19395 86.1362 6.19995 87.9422 6.19995C89.1042 6.19995 89.9722 6.56395 90.5462 7.08195L89.9022 8.04795C89.4402 7.62795 88.7262 7.36195 87.9982 7.36195C86.8642 7.36195 86.2482 7.92195 86.2482 8.99995V9.29395H90.4762V16H89.2302V10.4H86.2482V16H85.0022V10.4H83.9522ZM97.4789 10.946C97.0169 10.526 96.4429 10.288 95.7009 10.288C94.3709 10.288 93.4609 11.324 93.4609 12.64C93.4609 13.942 94.3849 15.006 95.6869 15.006C96.4289 15.006 97.0589 14.768 97.5069 14.32L98.1509 15.23C97.6189 15.804 96.6809 16.168 95.6589 16.168C93.6989 16.168 92.2149 14.586 92.2149 12.64C92.2149 10.694 93.7129 9.12595 95.6729 9.12595C96.7369 9.12595 97.6329 9.48995 98.1929 10.064L97.4789 10.946ZM102.094 16.168C100.274 16.168 98.8457 14.67 98.8457 12.64C98.8457 10.652 100.218 9.12595 102.094 9.12595C103.144 9.12595 103.942 9.62995 104.446 10.456V9.29395H105.692V16H104.446V14.796C103.942 15.622 103.144 16.168 102.094 16.168ZM102.276 15.006C103.536 15.006 104.446 13.942 104.446 12.64C104.446 11.324 103.536 10.288 102.276 10.288C101.002 10.288 100.092 11.324 100.092 12.64C100.092 13.942 101.002 15.006 102.276 15.006ZM107.166 10.4V9.29395H108.272V7.62795H109.518V9.29395H111.422V10.4H109.532V13.942C109.532 14.656 109.854 15.006 110.456 15.006C110.792 15.006 111.128 14.88 111.324 14.656L111.898 15.594C111.576 15.902 111.03 16.168 110.288 16.168C109.028 16.168 108.272 15.426 108.272 13.984V10.4H107.166ZM113.842 8.13195C113.408 8.13195 113.072 7.78195 113.072 7.36195C113.072 6.94195 113.408 6.59195 113.842 6.59195C114.262 6.59195 114.612 6.94195 114.612 7.36195C114.612 7.78195 114.262 8.13195 113.842 8.13195ZM114.458 16H113.226V9.29395H114.458V16ZM119.625 16.168C117.707 16.168 116.209 14.586 116.209 12.64C116.209 10.694 117.707 9.12595 119.625 9.12595C121.557 9.12595 123.055 10.694 123.055 12.64C123.055 14.586 121.557 16.168 119.625 16.168ZM119.639 15.006C120.899 15.006 121.809 13.942 121.809 12.64C121.809 11.324 120.899 10.288 119.639 10.288C118.365 10.288 117.455 11.324 117.455 12.64C117.455 13.942 118.365 15.006 119.639 15.006ZM124.807 16V9.29395H126.039V10.316C126.417 9.57395 127.131 9.12595 128.069 9.12595C129.637 9.12595 130.659 10.204 130.659 11.898V16H129.427V12.094C129.427 10.988 128.783 10.288 127.733 10.288C126.683 10.288 126.039 10.988 126.039 12.094V16H124.807ZM134.681 16.168C133.687 16.168 132.791 15.902 132.105 15.496L132.581 14.474C133.337 14.866 133.995 15.09 134.765 15.09C135.703 15.09 136.151 14.726 136.151 14.194C136.151 12.668 132.343 13.592 132.343 11.002C132.343 10.008 133.239 9.12595 134.863 9.12595C135.773 9.12595 136.487 9.34995 137.215 9.69995L136.725 10.722C136.249 10.456 135.563 10.218 134.919 10.218C134.093 10.218 133.603 10.498 133.603 10.988C133.603 12.528 137.383 11.618 137.383 14.166C137.383 15.314 136.389 16.168 134.681 16.168Z" fill="black"/>
<path d="M28.5 37H20.5C16.634 37 13.5 40.134 13.5 44V52C13.5 55.866 16.634 59 20.5 59H28.5C32.366 59 35.5 55.866 35.5 52V44C35.5 40.134 32.366 37 28.5 37Z" fill="white"/>
<path d="M28.5 37H20.5C16.634 37 13.5 40.134 13.5 44V52C13.5 55.866 16.634 59 20.5 59H28.5C32.366 59 35.5 55.866 35.5 52V44C35.5 40.134 32.366 37 28.5 37Z" stroke="#5D5D5D" stroke-width="2"/>
<path d="M54.2974 50.2359L50.9514 45.0419V51.9999H49.6914V43.0259H51.1334L54.3534 48.0659L57.6014 43.0259H58.8894V51.9999H57.6294V45.1679L54.2974 50.2359ZM64.1275 52.1679C62.2095 52.1679 60.7115 50.5859 60.7115 48.6399C60.7115 46.6939 62.2095 45.1259 64.1275 45.1259C66.0595 45.1259 67.5575 46.6939 67.5575 48.6399C67.5575 50.5859 66.0595 52.1679 64.1275 52.1679ZM64.1415 51.0059C65.4015 51.0059 66.3115 49.9419 66.3115 48.6399C66.3115 47.3239 65.4015 46.2879 64.1415 46.2879C62.8675 46.2879 61.9575 47.3239 61.9575 48.6399C61.9575 49.9419 62.8675 51.0059 64.1415 51.0059ZM69.3089 51.9999V45.2939H70.5409V46.3159C70.9189 45.5739 71.6329 45.1259 72.5709 45.1259C74.1389 45.1259 75.1609 46.2039 75.1609 47.8979V51.9999H73.9289V48.0939C73.9289 46.9879 73.2849 46.2879 72.2349 46.2879C71.1849 46.2879 70.5409 46.9879 70.5409 48.0939V51.9999H69.3089ZM76.5373 46.3999V45.2939H77.6433V43.6279H78.8893V45.2939H80.7933V46.3999H78.9033V49.9419C78.9033 50.6559 79.2253 51.0059 79.8273 51.0059C80.1633 51.0059 80.4993 50.8799 80.6953 50.6559L81.2693 51.5939C80.9473 51.9019 80.4013 52.1679 79.6593 52.1679C78.3993 52.1679 77.6433 51.4259 77.6433 49.9839V46.3999H76.5373ZM82.598 51.9999V42.3679H83.83V46.3159C84.208 45.5739 84.922 45.1259 85.86 45.1259C87.428 45.1259 88.45 46.2039 88.45 47.8979V51.9999H87.218V48.0939C87.218 46.9879 86.574 46.2879 85.524 46.2879C84.474 46.2879 83.83 46.9879 83.83 48.0939V51.9999H82.598ZM92.7663 50.9219L92.9063 52.0139C92.6963 52.0839 92.4303 52.1399 92.2203 52.1399C91.3803 52.1399 90.5823 51.5799 90.5823 50.1799V42.3679H91.8143V50.1939C91.8143 50.7819 92.1363 50.9919 92.4583 50.9919C92.5563 50.9919 92.6683 50.9639 92.7663 50.9219ZM96.3949 52.6579L96.6049 52.0839L93.5669 45.2939H94.9109L97.1649 50.5299L99.0689 45.2939H100.328L97.4309 53.0919C96.9829 54.3099 96.2969 54.9119 95.2609 54.9119C94.6729 54.9119 94.0709 54.6739 93.6509 54.2959L94.2249 53.3299C94.5329 53.6099 94.8969 53.7499 95.2889 53.7499C95.7789 53.7499 96.1009 53.4699 96.3949 52.6579ZM111.086 51.9999L106.116 45.0839V51.9999H104.856V43.0259H106.228L111.198 49.9839V43.0259H112.458V51.9999H111.086ZM117.75 52.1679C115.706 52.1679 114.236 50.5859 114.236 48.6399C114.236 46.6939 115.65 45.1259 117.554 45.1259C119.43 45.1259 120.858 46.6239 120.858 48.5139C120.858 48.6819 120.844 48.9339 120.816 49.0319H115.51C115.664 50.1939 116.546 51.0619 117.792 51.0619C118.548 51.0619 119.22 50.7679 119.668 50.3199L120.326 51.1739C119.78 51.7619 118.828 52.1679 117.75 52.1679ZM117.568 46.1899C116.518 46.1899 115.762 46.9459 115.538 48.0099H119.556C119.332 46.8479 118.576 46.1899 117.568 46.1899ZM124.977 51.9999H123.563L121.407 45.2939H122.737L124.291 50.6139L125.971 45.2939H127.329L129.023 50.6279L130.591 45.2939H131.921L129.765 51.9999H128.225L126.587 46.8759L124.977 51.9999ZM135.115 52.1679C134.121 52.1679 133.225 51.9019 132.539 51.4959L133.015 50.4739C133.771 50.8659 134.429 51.0899 135.199 51.0899C136.137 51.0899 136.585 50.7259 136.585 50.1939C136.585 48.6679 132.777 49.5919 132.777 47.0019C132.777 46.0079 133.673 45.1259 135.297 45.1259C136.207 45.1259 136.921 45.3499 137.649 45.6999L137.159 46.7219C136.683 46.4559 135.997 46.2179 135.353 46.2179C134.527 46.2179 134.037 46.4979 134.037 46.9879C134.037 48.5279 137.817 47.6179 137.817 50.1659C137.817 51.3139 136.823 52.1679 135.115 52.1679ZM141.643 50.9219L141.783 52.0139C141.573 52.0839 141.307 52.1399 141.097 52.1399C140.257 52.1399 139.459 51.5799 139.459 50.1799V42.3679H140.691V50.1939C140.691 50.7819 141.013 50.9919 141.335 50.9919C141.433 50.9919 141.545 50.9639 141.643 50.9219ZM146.461 52.1679C144.417 52.1679 142.947 50.5859 142.947 48.6399C142.947 46.6939 144.361 45.1259 146.265 45.1259C148.141 45.1259 149.569 46.6239 149.569 48.5139C149.569 48.6819 149.555 48.9339 149.527 49.0319H144.221C144.375 50.1939 145.257 51.0619 146.503 51.0619C147.259 51.0619 147.931 50.7679 148.379 50.3199L149.037 51.1739C148.491 51.7619 147.539 52.1679 146.461 52.1679ZM146.279 46.1899C145.229 46.1899 144.473 46.9459 144.249 48.0099H148.267C148.043 46.8479 147.287 46.1899 146.279 46.1899ZM150.42 46.3999V45.2939H151.526V43.6279H152.772V45.2939H154.676V46.3999H152.786V49.9419C152.786 50.6559 153.108 51.0059 153.71 51.0059C154.046 51.0059 154.382 50.8799 154.578 50.6559L155.152 51.5939C154.83 51.9019 154.284 52.1679 153.542 52.1679C152.282 52.1679 151.526 51.4259 151.526 49.9839V46.3999H150.42ZM155.724 46.3999V45.2939H156.83V43.6279H158.076V45.2939H159.98V46.3999H158.09V49.9419C158.09 50.6559 158.412 51.0059 159.014 51.0059C159.35 51.0059 159.686 50.8799 159.882 50.6559L160.456 51.5939C160.134 51.9019 159.588 52.1679 158.846 52.1679C157.586 52.1679 156.83 51.4259 156.83 49.9839V46.3999H155.724ZM164.44 52.1679C162.396 52.1679 160.926 50.5859 160.926 48.6399C160.926 46.6939 162.34 45.1259 164.244 45.1259C166.12 45.1259 167.548 46.6239 167.548 48.5139C167.548 48.6819 167.534 48.9339 167.506 49.0319H162.2C162.354 50.1939 163.236 51.0619 164.482 51.0619C165.238 51.0619 165.91 50.7679 166.358 50.3199L167.016 51.1739C166.47 51.7619 165.518 52.1679 164.44 52.1679ZM164.258 46.1899C163.208 46.1899 162.452 46.9459 162.228 48.0099H166.246C166.022 46.8479 165.266 46.1899 164.258 46.1899ZM169.154 51.9999V45.2939H170.386V46.2459C170.722 45.5459 171.296 45.1259 172.08 45.1259C172.5 45.1259 172.864 45.2239 173.102 45.4199L172.584 46.5819C172.36 46.4279 172.038 46.3159 171.716 46.3159C170.904 46.3159 170.386 47.0159 170.386 48.1359V51.9999H169.154Z" fill="black"/>
</g>
<defs>
<clipPath id="clip0_6343_39146">
<rect width="174" height="60" fill="white"/>
</clipPath>
</defs>
</svg>
