<svg width="258" height="44" viewBox="0 0 258 44" fill="none" xmlns="http://www.w3.org/2000/svg">
<path d="M16 11H8C4.13401 11 1 14.134 1 18V26C1 29.866 4.13401 33 8 33H16C19.866 33 23 29.866 23 26V18C23 14.134 19.866 11 16 11Z" fill="white"/>
<path d="M16 11H8C4.13401 11 1 14.134 1 18V26C1 29.866 4.13401 33 8 33H16C19.866 33 23 29.866 23 26V18C23 14.134 19.866 11 16 11Z" stroke="#5D5D5D" stroke-width="2"/>
<path d="M37.1914 25.9999V17.0259H38.4514V25.9999H37.1914ZM46.688 26.1679C44.868 26.1679 43.44 24.6699 43.44 22.6399C43.44 20.6519 44.812 19.1259 46.688 19.1259C47.738 19.1259 48.536 19.6299 49.04 20.4559V19.2939H50.286V25.9999H49.04V24.7959C48.536 25.6219 47.738 26.1679 46.688 26.1679ZM46.87 25.0059C48.13 25.0059 49.04 23.9419 49.04 22.6399C49.04 21.3239 48.13 20.2879 46.87 20.2879C45.596 20.2879 44.686 21.3239 44.686 22.6399C44.686 23.9419 45.596 25.0059 46.87 25.0059ZM53.1879 27.0779C53.6359 27.4139 54.3779 27.7779 55.3439 27.7779C56.7439 27.7779 57.5559 27.0219 57.5559 25.5939V24.6559C57.0659 25.4539 56.2539 25.9859 55.2179 25.9859C53.4259 25.9859 52.0259 24.5299 52.0259 22.5559C52.0259 20.6099 53.4259 19.1539 55.2179 19.1539C56.2539 19.1539 57.0659 19.6439 57.5559 20.4139V19.2939H58.8019V25.5239C58.8019 28.0019 57.2339 28.9119 55.3999 28.9119C54.1819 28.9119 53.2019 28.6039 52.5439 28.0579L53.1879 27.0779ZM55.4279 24.8239C56.6739 24.8239 57.5559 23.8019 57.5559 22.5419C57.5559 21.2959 56.6739 20.2879 55.4279 20.2879C54.1819 20.2879 53.2719 21.2959 53.2719 22.5419C53.2719 23.8019 54.1819 24.8239 55.4279 24.8239ZM61.0472 25.9999V19.2939H62.2792V20.2459C62.6152 19.5459 63.1892 19.1259 63.9732 19.1259C64.3932 19.1259 64.7572 19.2239 64.9952 19.4199L64.4772 20.5819C64.2532 20.4279 63.9312 20.3159 63.6092 20.3159C62.7972 20.3159 62.2792 21.0159 62.2792 22.1359V25.9999H61.0472ZM68.7743 26.1679C66.7303 26.1679 65.2603 24.5859 65.2603 22.6399C65.2603 20.6939 66.6743 19.1259 68.5783 19.1259C70.4543 19.1259 71.8823 20.6239 71.8823 22.5139C71.8823 22.6819 71.8683 22.9339 71.8403 23.0319H66.5343C66.6883 24.1939 67.5703 25.0619 68.8163 25.0619C69.5723 25.0619 70.2443 24.7679 70.6923 24.3199L71.3503 25.1739C70.8043 25.7619 69.8523 26.1679 68.7743 26.1679ZM68.5923 20.1899C67.5423 20.1899 66.7863 20.9459 66.5623 22.0099H70.5803C70.3563 20.8479 69.6003 20.1899 68.5923 20.1899ZM76.5126 26.1679C74.4686 26.1679 72.9986 24.5859 72.9986 22.6399C72.9986 20.6939 74.4126 19.1259 76.3166 19.1259C78.1926 19.1259 79.6206 20.6239 79.6206 22.5139C79.6206 22.6819 79.6066 22.9339 79.5786 23.0319H74.2726C74.4266 24.1939 75.3086 25.0619 76.5546 25.0619C77.3106 25.0619 77.9826 24.7679 78.4306 24.3199L79.0886 25.1739C78.5426 25.7619 77.5906 26.1679 76.5126 26.1679ZM76.3306 20.1899C75.2806 20.1899 74.5246 20.9459 74.3006 22.0099H78.3186C78.0946 20.8479 77.3386 20.1899 76.3306 20.1899ZM83.6427 20.3999V19.2939H84.7487V17.6279H85.9947V19.2939H87.8987V20.3999H86.0087V23.9419C86.0087 24.6559 86.3307 25.0059 86.9327 25.0059C87.2687 25.0059 87.6047 24.8799 87.8007 24.6559L88.3747 25.5939C88.0527 25.9019 87.5067 26.1679 86.7647 26.1679C85.5047 26.1679 84.7487 25.4259 84.7487 23.9839V20.3999H83.6427ZM92.2603 26.1679C90.3423 26.1679 88.8443 24.5859 88.8443 22.6399C88.8443 20.6939 90.3423 19.1259 92.2603 19.1259C94.1923 19.1259 95.6903 20.6939 95.6903 22.6399C95.6903 24.5859 94.1923 26.1679 92.2603 26.1679ZM92.2743 25.0059C93.5343 25.0059 94.4443 23.9419 94.4443 22.6399C94.4443 21.3239 93.5343 20.2879 92.2743 20.2879C91.0003 20.2879 90.0903 21.3239 90.0903 22.6399C90.0903 23.9419 91.0003 25.0059 92.2743 25.0059ZM99.8576 20.3999V19.2939H100.963V17.6279H102.209V19.2939H104.113V20.3999H102.223V23.9419C102.223 24.6559 102.545 25.0059 103.147 25.0059C103.483 25.0059 103.819 24.8799 104.015 24.6559L104.589 25.5939C104.267 25.9019 103.721 26.1679 102.979 26.1679C101.719 26.1679 100.963 25.4259 100.963 23.9839V20.3999H99.8576ZM105.918 25.9999V16.3679H107.15V20.3159C107.528 19.5739 108.242 19.1259 109.18 19.1259C110.748 19.1259 111.77 20.2039 111.77 21.8979V25.9999H110.538V22.0939C110.538 20.9879 109.894 20.2879 108.844 20.2879C107.794 20.2879 107.15 20.9879 107.15 22.0939V25.9999H105.918ZM116.926 26.1679C114.882 26.1679 113.412 24.5859 113.412 22.6399C113.412 20.6939 114.826 19.1259 116.73 19.1259C118.606 19.1259 120.034 20.6239 120.034 22.5139C120.034 22.6819 120.02 22.9339 119.992 23.0319H114.686C114.84 24.1939 115.722 25.0619 116.968 25.0619C117.724 25.0619 118.396 24.7679 118.844 24.3199L119.502 25.1739C118.956 25.7619 118.004 26.1679 116.926 26.1679ZM116.744 20.1899C115.694 20.1899 114.938 20.9459 114.714 22.0099H118.732C118.508 20.8479 117.752 20.1899 116.744 20.1899ZM124.056 20.3999V19.2939H125.162V17.6279H126.408V19.2939H128.312V20.3999H126.422V23.9419C126.422 24.6559 126.744 25.0059 127.346 25.0059C127.682 25.0059 128.018 24.8799 128.214 24.6559L128.788 25.5939C128.466 25.9019 127.92 26.1679 127.178 26.1679C125.918 26.1679 125.162 25.4259 125.162 23.9839V20.3999H124.056ZM132.772 26.1679C130.728 26.1679 129.258 24.5859 129.258 22.6399C129.258 20.6939 130.672 19.1259 132.576 19.1259C134.452 19.1259 135.88 20.6239 135.88 22.5139C135.88 22.6819 135.866 22.9339 135.838 23.0319H130.532C130.686 24.1939 131.568 25.0619 132.814 25.0619C133.57 25.0619 134.242 24.7679 134.69 24.3199L135.348 25.1739C134.802 25.7619 133.85 26.1679 132.772 26.1679ZM132.59 20.1899C131.54 20.1899 130.784 20.9459 130.56 22.0099H134.578C134.354 20.8479 133.598 20.1899 132.59 20.1899ZM137.486 25.9999V19.2939H138.718V20.2459C139.054 19.5459 139.628 19.1259 140.412 19.1259C140.832 19.1259 141.196 19.2239 141.434 19.4199L140.916 20.5819C140.692 20.4279 140.37 20.3159 140.048 20.3159C139.236 20.3159 138.718 21.0159 138.718 22.1359V25.9999H137.486ZM143.982 25.9999H142.75V19.2939H143.982V20.3579C144.346 19.6019 145.046 19.1259 145.956 19.1259C147.034 19.1259 147.846 19.6719 148.224 20.6099C148.546 19.7419 149.274 19.1259 150.352 19.1259C151.906 19.1259 152.914 20.1759 152.914 21.8979V25.9999H151.668V22.0939C151.668 20.9879 151.066 20.2879 150.058 20.2879C149.064 20.2879 148.448 20.9879 148.448 22.0939V25.9999H147.202V22.0939C147.202 20.9879 146.6 20.2879 145.606 20.2879C144.598 20.2879 143.982 20.9879 143.982 22.0939V25.9999ZM156.917 26.1679C155.923 26.1679 155.027 25.9019 154.341 25.4959L154.817 24.4739C155.573 24.8659 156.231 25.0899 157.001 25.0899C157.939 25.0899 158.387 24.7259 158.387 24.1939C158.387 22.6679 154.579 23.5919 154.579 21.0019C154.579 20.0079 155.475 19.1259 157.099 19.1259C158.009 19.1259 158.723 19.3499 159.451 19.6999L158.961 20.7219C158.485 20.4559 157.799 20.2179 157.155 20.2179C156.329 20.2179 155.839 20.4979 155.839 20.9879C155.839 22.5279 159.619 21.6179 159.619 24.1659C159.619 25.3139 158.625 26.1679 156.917 26.1679ZM167.192 26.1679C165.371 26.1679 163.944 24.6699 163.944 22.6399C163.944 20.6519 165.316 19.1259 167.192 19.1259C168.242 19.1259 169.04 19.6299 169.544 20.4559V19.2939H170.79V25.9999H169.544V24.7959C169.04 25.6219 168.242 26.1679 167.192 26.1679ZM167.374 25.0059C168.634 25.0059 169.544 23.9419 169.544 22.6399C169.544 21.3239 168.634 20.2879 167.374 20.2879C166.1 20.2879 165.19 21.3239 165.19 22.6399C165.19 23.9419 166.1 25.0059 167.374 25.0059ZM173.019 25.9999V19.2939H174.251V20.3159C174.629 19.5739 175.343 19.1259 176.281 19.1259C177.849 19.1259 178.871 20.2039 178.871 21.8979V25.9999H177.639V22.0939C177.639 20.9879 176.995 20.2879 175.945 20.2879C174.895 20.2879 174.251 20.9879 174.251 22.0939V25.9999H173.019ZM183.762 26.1679C181.942 26.1679 180.514 24.6699 180.514 22.6399C180.514 20.6519 181.886 19.1259 183.762 19.1259C184.812 19.1259 185.61 19.6299 186.114 20.4559V16.3679H187.36V25.9999H186.114V24.7959C185.61 25.6219 184.812 26.1679 183.762 26.1679ZM183.944 25.0059C185.204 25.0059 186.114 23.9419 186.114 22.6399C186.114 21.3239 185.204 20.2879 183.944 20.2879C182.67 20.2879 181.76 21.3239 181.76 22.6399C181.76 23.9419 182.67 25.0059 183.944 25.0059ZM197.536 20.9459C197.074 20.5259 196.5 20.2879 195.758 20.2879C194.428 20.2879 193.518 21.3239 193.518 22.6399C193.518 23.9419 194.442 25.0059 195.744 25.0059C196.486 25.0059 197.116 24.7679 197.564 24.3199L198.208 25.2299C197.676 25.8039 196.738 26.1679 195.716 26.1679C193.756 26.1679 192.272 24.5859 192.272 22.6399C192.272 20.6939 193.77 19.1259 195.73 19.1259C196.794 19.1259 197.69 19.4899 198.25 20.0639L197.536 20.9459ZM202.318 26.1679C200.4 26.1679 198.902 24.5859 198.902 22.6399C198.902 20.6939 200.4 19.1259 202.318 19.1259C204.25 19.1259 205.748 20.6939 205.748 22.6399C205.748 24.5859 204.25 26.1679 202.318 26.1679ZM202.332 25.0059C203.592 25.0059 204.502 23.9419 204.502 22.6399C204.502 21.3239 203.592 20.2879 202.332 20.2879C201.058 20.2879 200.148 21.3239 200.148 22.6399C200.148 23.9419 201.058 25.0059 202.332 25.0059ZM207.5 25.9999V19.2939H208.732V20.3159C209.11 19.5739 209.824 19.1259 210.762 19.1259C212.33 19.1259 213.352 20.2039 213.352 21.8979V25.9999H212.12V22.0939C212.12 20.9879 211.476 20.2879 210.426 20.2879C209.376 20.2879 208.732 20.9879 208.732 22.0939V25.9999H207.5ZM218.242 26.1679C216.422 26.1679 214.994 24.6699 214.994 22.6399C214.994 20.6519 216.366 19.1259 218.242 19.1259C219.292 19.1259 220.09 19.6299 220.594 20.4559V16.3679H221.84V25.9999H220.594V24.7959C220.09 25.6219 219.292 26.1679 218.242 26.1679ZM218.424 25.0059C219.684 25.0059 220.594 23.9419 220.594 22.6399C220.594 21.3239 219.684 20.2879 218.424 20.2879C217.15 20.2879 216.24 21.3239 216.24 22.6399C216.24 23.9419 217.15 25.0059 218.424 25.0059ZM224.686 18.1319C224.252 18.1319 223.916 17.7819 223.916 17.3619C223.916 16.9419 224.252 16.5919 224.686 16.5919C225.106 16.5919 225.456 16.9419 225.456 17.3619C225.456 17.7819 225.106 18.1319 224.686 18.1319ZM225.302 25.9999H224.07V19.2939H225.302V25.9999ZM226.787 20.3999V19.2939H227.893V17.6279H229.139V19.2939H231.043V20.3999H229.153V23.9419C229.153 24.6559 229.475 25.0059 230.077 25.0059C230.413 25.0059 230.749 24.8799 230.945 24.6559L231.519 25.5939C231.197 25.9019 230.651 26.1679 229.909 26.1679C228.649 26.1679 227.893 25.4259 227.893 23.9839V20.3999H226.787ZM233.464 18.1319C233.03 18.1319 232.694 17.7819 232.694 17.3619C232.694 16.9419 233.03 16.5919 233.464 16.5919C233.884 16.5919 234.234 16.9419 234.234 17.3619C234.234 17.7819 233.884 18.1319 233.464 18.1319ZM234.08 25.9999H232.848V19.2939H234.08V25.9999ZM239.246 26.1679C237.328 26.1679 235.83 24.5859 235.83 22.6399C235.83 20.6939 237.328 19.1259 239.246 19.1259C241.178 19.1259 242.676 20.6939 242.676 22.6399C242.676 24.5859 241.178 26.1679 239.246 26.1679ZM239.26 25.0059C240.52 25.0059 241.43 23.9419 241.43 22.6399C241.43 21.3239 240.52 20.2879 239.26 20.2879C237.986 20.2879 237.076 21.3239 237.076 22.6399C237.076 23.9419 237.986 25.0059 239.26 25.0059ZM244.428 25.9999V19.2939H245.66V20.3159C246.038 19.5739 246.752 19.1259 247.69 19.1259C249.258 19.1259 250.28 20.2039 250.28 21.8979V25.9999H249.048V22.0939C249.048 20.9879 248.404 20.2879 247.354 20.2879C246.304 20.2879 245.66 20.9879 245.66 22.0939V25.9999H244.428ZM254.302 26.1679C253.308 26.1679 252.412 25.9019 251.726 25.4959L252.202 24.4739C252.958 24.8659 253.616 25.0899 254.386 25.0899C255.324 25.0899 255.772 24.7259 255.772 24.1939C255.772 22.6679 251.964 23.5919 251.964 21.0019C251.964 20.0079 252.86 19.1259 254.484 19.1259C255.394 19.1259 256.108 19.3499 256.836 19.6999L256.346 20.7219C255.87 20.4559 255.184 20.2179 254.54 20.2179C253.714 20.2179 253.224 20.4979 253.224 20.9879C253.224 22.5279 257.004 21.6179 257.004 24.1659C257.004 25.3139 256.01 26.1679 254.302 26.1679Z" fill="black"/>
</svg>
