<svg width="150" height="44" viewBox="0 0 150 44" fill="none" xmlns="http://www.w3.org/2000/svg">
<path d="M16.5 10H8.5C4.08172 10 0.5 13.5817 0.5 18V26C0.5 30.4183 4.08172 34 8.5 34H16.5C20.9183 34 24.5 30.4183 24.5 26V18C24.5 13.5817 20.9183 10 16.5 10Z" fill="#2861BB"/>
<path d="M11.0133 27L19.5 18.4911L18.0133 17L11.0133 24.0178L7.98673 20.9822L6.5 22.4734L11.0133 27Z" fill="white"/>
<path d="M37.6914 26V17.04H40.4354C43.4174 17.04 45.4894 18.874 45.4894 21.52C45.4894 24.166 43.4734 26 40.5614 26H37.6914ZM40.4634 18.2299H38.9794V24.8099H40.4634C42.6894 24.8099 44.1454 23.508 44.1454 21.52C44.1454 19.532 42.6894 18.2299 40.4634 18.2299ZM50.3251 26.1679C48.2811 26.1679 46.8111 24.5859 46.8111 22.6399C46.8111 20.6939 48.2251 19.1259 50.1291 19.1259C52.0051 19.1259 53.4331 20.624 53.4331 22.514C53.4331 22.682 53.4191 22.9339 53.3911 23.0319H48.0851C48.2391 24.1939 49.1211 25.062 50.3671 25.062C51.1231 25.062 51.7951 24.768 52.2431 24.32L52.9011 25.174C52.3551 25.762 51.4031 26.1679 50.3251 26.1679ZM50.1431 20.19C49.0931 20.19 48.3371 20.946 48.1131 22.01H52.1311C51.9071 20.848 51.1511 20.19 50.1431 20.19ZM54.3394 20.4V19.294H55.3894V18.524C55.3894 17.04 56.2434 16.2 57.5314 16.2C58.3154 16.2 58.8474 16.438 59.2254 16.844L58.5814 17.754C58.3714 17.53 58.0074 17.3619 57.6294 17.3619C56.9994 17.3619 56.6354 17.782 56.6354 18.538V19.294H58.4134V20.4H56.6354V26H55.3894V20.4H54.3394ZM62.1587 26.1679C60.3387 26.1679 58.9107 24.6699 58.9107 22.6399C58.9107 20.6519 60.2827 19.1259 62.1587 19.1259C63.2087 19.1259 64.0067 19.6299 64.5107 20.4559V19.294H65.7567V26H64.5107V24.7959C64.0067 25.6219 63.2087 26.1679 62.1587 26.1679ZM62.3407 25.006C63.6007 25.006 64.5107 23.9419 64.5107 22.6399C64.5107 21.3239 63.6007 20.288 62.3407 20.288C61.0667 20.288 60.1567 21.3239 60.1567 22.6399C60.1567 23.9419 61.0667 25.006 62.3407 25.006ZM69.1206 19.294V23.004C69.1206 24.18 69.8066 24.964 70.8426 24.964C71.8926 24.964 72.5926 24.18 72.5926 23.004V19.294H73.8386V23.1019C73.8386 24.9219 72.6486 26.1259 70.8426 26.1259C69.0506 26.1259 67.8746 24.9219 67.8746 23.1019V19.294H69.1206ZM78.155 24.922L78.295 26.014C78.085 26.084 77.819 26.1399 77.609 26.1399C76.769 26.1399 75.971 25.58 75.971 24.18V16.368H77.203V24.194C77.203 24.782 77.525 24.992 77.847 24.992C77.945 24.992 78.057 24.964 78.155 24.922ZM79.1935 20.4V19.294H80.2995V17.628H81.5455V19.294H83.4495V20.4H81.5595V23.9419C81.5595 24.6559 81.8815 25.006 82.4835 25.006C82.8195 25.006 83.1555 24.88 83.3515 24.656L83.9255 25.594C83.6035 25.902 83.0575 26.1679 82.3155 26.1679C81.0555 26.1679 80.2995 25.4259 80.2995 23.9839V20.4H79.1935ZM95.7761 17.978L94.9361 18.958C94.3341 18.454 93.5781 18.104 92.5701 18.104C90.7781 18.104 89.3361 19.63 89.3361 21.52C89.3361 23.396 90.7781 24.922 92.6821 24.922C93.5501 24.922 94.3761 24.628 94.9501 24.096L95.7761 25.02C94.9501 25.832 93.9281 26.1679 92.5981 26.1679C89.9941 26.1679 87.9921 24.082 87.9921 21.52C87.9921 18.944 90.0361 16.858 92.5561 16.858C93.9841 16.858 94.9921 17.264 95.7761 17.978ZM97.2171 26V16.368H98.4491V20.316C98.8271 19.574 99.5411 19.1259 100.479 19.1259C102.047 19.1259 103.069 20.204 103.069 21.898V26H101.837V22.094C101.837 20.988 101.193 20.288 100.143 20.288C99.0931 20.288 98.4491 20.988 98.4491 22.094V26H97.2171ZM108.225 26.1679C106.181 26.1679 104.711 24.5859 104.711 22.6399C104.711 20.6939 106.125 19.1259 108.029 19.1259C109.905 19.1259 111.333 20.624 111.333 22.514C111.333 22.682 111.319 22.9339 111.291 23.0319H105.985C106.139 24.1939 107.021 25.062 108.267 25.062C109.023 25.062 109.695 24.768 110.143 24.32L110.801 25.174C110.255 25.762 109.303 26.1679 108.225 26.1679ZM108.043 20.19C106.993 20.19 106.237 20.946 106.013 22.01H110.031C109.807 20.848 109.051 20.19 108.043 20.19ZM117.713 20.9459C117.251 20.5259 116.677 20.288 115.935 20.288C114.605 20.288 113.695 21.3239 113.695 22.6399C113.695 23.9419 114.619 25.006 115.921 25.006C116.663 25.006 117.293 24.768 117.741 24.32L118.385 25.2299C117.853 25.8039 116.915 26.1679 115.893 26.1679C113.933 26.1679 112.449 24.5859 112.449 22.6399C112.449 20.6939 113.947 19.1259 115.907 19.1259C116.971 19.1259 117.867 19.4899 118.427 20.0639L117.713 20.9459ZM120.994 26H119.762V16.368H120.994V22.2199L124.144 19.294H125.712L122.338 22.43L125.95 26H124.326L120.994 22.6819V26ZM130.646 19.1259C132.466 19.1259 133.894 20.6239 133.894 22.6539C133.894 24.6419 132.522 26.1679 130.646 26.1679C129.596 26.1679 128.798 25.6639 128.294 24.8379V26H127.062V16.368H128.294V20.4979C128.798 19.6719 129.596 19.1259 130.646 19.1259ZM130.492 20.288C129.218 20.288 128.294 21.3519 128.294 22.6539C128.294 23.9699 129.218 25.006 130.492 25.006C131.752 25.006 132.662 23.9699 132.662 22.6539C132.662 21.3519 131.752 20.288 130.492 20.288ZM138.574 26.1679C136.656 26.1679 135.158 24.5859 135.158 22.6399C135.158 20.6939 136.656 19.1259 138.574 19.1259C140.506 19.1259 142.004 20.6939 142.004 22.6399C142.004 24.5859 140.506 26.1679 138.574 26.1679ZM138.588 25.006C139.848 25.006 140.758 23.9419 140.758 22.6399C140.758 21.3239 139.848 20.288 138.588 20.288C137.314 20.288 136.404 21.3239 136.404 22.6399C136.404 23.9419 137.314 25.006 138.588 25.006ZM142.436 26L145.026 22.584L142.548 19.294H144.088L145.838 21.632L147.63 19.294H149.03L146.552 22.57L149.128 26H147.588L145.726 23.5219L143.836 26H142.436Z" fill="black"/>
</svg>
