<svg width="264" height="44" viewBox="0 0 264 44" fill="none" xmlns="http://www.w3.org/2000/svg">
<g clip-path="url(#clip0_6343_39153)">
<path d="M16.5 11H8.5C4.63401 11 1.5 14.134 1.5 18V26C1.5 29.866 4.63401 33 8.5 33H16.5C20.366 33 23.5 29.866 23.5 26V18C23.5 14.134 20.366 11 16.5 11Z" fill="white"/>
<path d="M16.5 11H8.5C4.63401 11 1.5 14.134 1.5 18V26C1.5 29.866 4.63401 33 8.5 33H16.5C20.366 33 23.5 29.866 23.5 26V18C23.5 14.134 20.366 11 16.5 11Z" stroke="#5D5D5D" stroke-width="2"/>
<path d="M44.9715 17.9779L44.1315 18.9579C43.5295 18.4539 42.7735 18.1039 41.7655 18.1039C39.9735 18.1039 38.5315 19.6299 38.5315 21.5199C38.5315 23.3959 39.9735 24.9219 41.8775 24.9219C42.7455 24.9219 43.5715 24.6279 44.1455 24.0959L44.9715 25.0199C44.1455 25.8319 43.1235 26.1679 41.7935 26.1679C39.1895 26.1679 37.1875 24.0819 37.1875 21.5199C37.1875 18.9439 39.2315 16.8579 41.7515 16.8579C43.1795 16.8579 44.1875 17.2639 44.9715 17.9779ZM46.4125 25.9999V16.3679H47.6445V20.3159C48.0225 19.5739 48.7365 19.1259 49.6745 19.1259C51.2425 19.1259 52.2645 20.2039 52.2645 21.8979V25.9999H51.0325V22.0939C51.0325 20.9879 50.3885 20.2879 49.3385 20.2879C48.2885 20.2879 47.6445 20.9879 47.6445 22.0939V25.9999H46.4125ZM57.4209 26.1679C55.3769 26.1679 53.9069 24.5859 53.9069 22.6399C53.9069 20.6939 55.3209 19.1259 57.2249 19.1259C59.1009 19.1259 60.5289 20.6239 60.5289 22.5139C60.5289 22.6819 60.5149 22.9339 60.4869 23.0319H55.1809C55.3349 24.1939 56.2169 25.0619 57.4629 25.0619C58.2189 25.0619 58.8909 24.7679 59.3389 24.3199L59.9969 25.1739C59.4509 25.7619 58.4989 26.1679 57.4209 26.1679ZM57.2389 20.1899C56.1889 20.1899 55.4329 20.9459 55.2089 22.0099H59.2269C59.0029 20.8479 58.2469 20.1899 57.2389 20.1899ZM66.9092 20.9459C66.4472 20.5259 65.8732 20.2879 65.1312 20.2879C63.8012 20.2879 62.8912 21.3239 62.8912 22.6399C62.8912 23.9419 63.8152 25.0059 65.1172 25.0059C65.8592 25.0059 66.4892 24.7679 66.9372 24.3199L67.5812 25.2299C67.0492 25.8039 66.1112 26.1679 65.0892 26.1679C63.1292 26.1679 61.6452 24.5859 61.6452 22.6399C61.6452 20.6939 63.1432 19.1259 65.1032 19.1259C66.1672 19.1259 67.0632 19.4899 67.6232 20.0639L66.9092 20.9459ZM70.1894 25.9999H68.9574V16.3679H70.1894V22.2199L73.3394 19.2939H74.9074L71.5334 22.4299L75.1454 25.9999H73.5214L70.1894 22.6819V25.9999ZM79.8422 19.1259C81.6622 19.1259 83.0902 20.6239 83.0902 22.6539C83.0902 24.6419 81.7182 26.1679 79.8422 26.1679C78.7922 26.1679 77.9942 25.6639 77.4902 24.8379V25.9999H76.2582V16.3679H77.4902V20.4979C77.9942 19.6719 78.7922 19.1259 79.8422 19.1259ZM79.6882 20.2879C78.4142 20.2879 77.4902 21.3519 77.4902 22.6539C77.4902 23.9699 78.4142 25.0059 79.6882 25.0059C80.9482 25.0059 81.8582 23.9699 81.8582 22.6539C81.8582 21.3519 80.9482 20.2879 79.6882 20.2879ZM87.7702 26.1679C85.8522 26.1679 84.3542 24.5859 84.3542 22.6399C84.3542 20.6939 85.8522 19.1259 87.7702 19.1259C89.7022 19.1259 91.2002 20.6939 91.2002 22.6399C91.2002 24.5859 89.7022 26.1679 87.7702 26.1679ZM87.7842 25.0059C89.0442 25.0059 89.9542 23.9419 89.9542 22.6399C89.9542 21.3239 89.0442 20.2879 87.7842 20.2879C86.5102 20.2879 85.6002 21.3239 85.6002 22.6399C85.6002 23.9419 86.5102 25.0059 87.7842 25.0059ZM91.6314 25.9999L94.2214 22.5839L91.7434 19.2939H93.2834L95.0334 21.6319L96.8254 19.2939H98.2254L95.7474 22.5699L98.3234 25.9999H96.7834L94.9214 23.5219L93.0314 25.9999H91.6314Z" fill="black"/>
<path d="M132.5 0H131.5V44H132.5V0Z" fill="#EBEBEB"/>
<path d="M172.971 17.9779L172.132 18.9579C171.53 18.4539 170.774 18.1039 169.766 18.1039C167.974 18.1039 166.531 19.6299 166.531 21.5199C166.531 23.3959 167.974 24.9219 169.878 24.9219C170.746 24.9219 171.571 24.6279 172.145 24.0959L172.971 25.0199C172.145 25.8319 171.124 26.1679 169.794 26.1679C167.19 26.1679 165.188 24.0819 165.188 21.5199C165.188 18.9439 167.231 16.8579 169.751 16.8579C171.179 16.8579 172.187 17.2639 172.971 17.9779ZM174.412 25.9999V16.3679H175.645V20.3159C176.023 19.5739 176.736 19.1259 177.674 19.1259C179.242 19.1259 180.264 20.2039 180.264 21.8979V25.9999H179.033V22.0939C179.033 20.9879 178.389 20.2879 177.339 20.2879C176.289 20.2879 175.645 20.9879 175.645 22.0939V25.9999H174.412ZM185.421 26.1679C183.377 26.1679 181.906 24.5859 181.906 22.6399C181.906 20.6939 183.321 19.1259 185.225 19.1259C187.101 19.1259 188.528 20.6239 188.528 22.5139C188.528 22.6819 188.514 22.9339 188.486 23.0319H183.18C183.334 24.1939 184.216 25.0619 185.462 25.0619C186.218 25.0619 186.891 24.7679 187.339 24.3199L187.996 25.1739C187.45 25.7619 186.499 26.1679 185.421 26.1679ZM185.238 20.1899C184.188 20.1899 183.432 20.9459 183.208 22.0099H187.227C187.003 20.8479 186.246 20.1899 185.238 20.1899ZM194.91 20.9459C194.448 20.5259 193.874 20.2879 193.132 20.2879C191.802 20.2879 190.891 21.3239 190.891 22.6399C190.891 23.9419 191.815 25.0059 193.117 25.0059C193.859 25.0059 194.489 24.7679 194.938 24.3199L195.581 25.2299C195.049 25.8039 194.111 26.1679 193.089 26.1679C191.129 26.1679 189.645 24.5859 189.645 22.6399C189.645 20.6939 191.144 19.1259 193.104 19.1259C194.168 19.1259 195.063 19.4899 195.623 20.0639L194.91 20.9459ZM198.189 25.9999H196.957V16.3679H198.189V22.2199L201.339 19.2939H202.908L199.533 22.4299L203.145 25.9999H201.521L198.189 22.6819V25.9999ZM207.842 19.1259C209.662 19.1259 211.09 20.6239 211.09 22.6539C211.09 24.6419 209.718 26.1679 207.842 26.1679C206.792 26.1679 205.994 25.6639 205.49 24.8379V25.9999H204.258V16.3679H205.49V20.4979C205.994 19.6719 206.792 19.1259 207.842 19.1259ZM207.688 20.2879C206.414 20.2879 205.49 21.3519 205.49 22.6539C205.49 23.9699 206.414 25.0059 207.688 25.0059C208.948 25.0059 209.858 23.9699 209.858 22.6539C209.858 21.3519 208.948 20.2879 207.688 20.2879ZM215.77 26.1679C213.852 26.1679 212.354 24.5859 212.354 22.6399C212.354 20.6939 213.852 19.1259 215.77 19.1259C217.702 19.1259 219.201 20.6939 219.201 22.6399C219.201 24.5859 217.702 26.1679 215.77 26.1679ZM215.785 25.0059C217.045 25.0059 217.954 23.9419 217.954 22.6399C217.954 21.3239 217.045 20.2879 215.785 20.2879C214.511 20.2879 213.6 21.3239 213.6 22.6399C213.6 23.9419 214.511 25.0059 215.785 25.0059ZM219.632 25.9999L222.221 22.5839L219.743 19.2939H221.283L223.033 21.6319L224.826 19.2939H226.225L223.747 22.5699L226.324 25.9999H224.783L222.921 23.5219L221.031 25.9999H219.632Z" fill="black"/>
<path d="M255.5 11H247.5C243.634 11 240.5 14.134 240.5 18V26C240.5 29.866 243.634 33 247.5 33H255.5C259.366 33 262.5 29.866 262.5 26V18C262.5 14.134 259.366 11 255.5 11Z" fill="white"/>
<path d="M255.5 11H247.5C243.634 11 240.5 14.134 240.5 18V26C240.5 29.866 243.634 33 247.5 33H255.5C259.366 33 262.5 29.866 262.5 26V18C262.5 14.134 259.366 11 255.5 11Z" stroke="#5D5D5D" stroke-width="2"/>
</g>
<defs>
<clipPath id="clip0_6343_39153">
<rect width="264" height="44" fill="white"/>
</clipPath>
</defs>
</svg>
