<svg width="215" height="96" viewBox="0 0 215 96" fill="none" xmlns="http://www.w3.org/2000/svg">
<path d="M16 1H8C4.13401 1 1 4.13401 1 8V16C1 19.866 4.13401 23 8 23H16C19.866 23 23 19.866 23 16V8C23 4.13401 19.866 1 16 1Z" stroke="#D6D6D6" stroke-width="2"/>
<path d="M37.1914 15.9999V7.02592H42.8894V8.21592H38.4514V10.9039H42.3294V12.0939H38.4514V14.8099H42.8894V15.9999H37.1914ZM45.7636 15.9999H44.5316V9.29392H45.7636V10.3579C46.1276 9.60192 46.8276 9.12592 47.7376 9.12592C48.8156 9.12592 49.6276 9.67192 50.0056 10.6099C50.3276 9.74192 51.0556 9.12592 52.1336 9.12592C53.6876 9.12592 54.6956 10.1759 54.6956 11.8979V15.9999H53.4496V12.0939C53.4496 10.9879 52.8476 10.2879 51.8396 10.2879C50.8456 10.2879 50.2296 10.9879 50.2296 12.0939V15.9999H48.9836V12.0939C48.9836 10.9879 48.3816 10.2879 47.3876 10.2879C46.3796 10.2879 45.7636 10.9879 45.7636 12.0939V15.9999ZM58.0409 18.7439H56.8089V9.29392H58.0409V10.4979C58.5449 9.67192 59.3429 9.12592 60.3929 9.12592C62.2129 9.12592 63.6409 10.6239 63.6409 12.6539C63.6409 14.6419 62.2689 16.1679 60.3929 16.1679C59.3429 16.1679 58.5449 15.6639 58.0409 14.8379V18.7439ZM60.2389 15.0059C61.4989 15.0059 62.4089 13.9699 62.4089 12.6539C62.4089 11.3519 61.4989 10.2879 60.2389 10.2879C58.9649 10.2879 58.0409 11.3519 58.0409 12.6539C58.0409 13.9699 58.9649 15.0059 60.2389 15.0059ZM64.6388 10.3999V9.29392H65.7448V7.62792H66.9908V9.29392H68.8948V10.3999H67.0048V13.9419C67.0048 14.6559 67.3268 15.0059 67.9288 15.0059C68.2648 15.0059 68.6008 14.8799 68.7968 14.6559L69.3708 15.5939C69.0488 15.9019 68.5028 16.1679 67.7608 16.1679C66.5008 16.1679 65.7448 15.4259 65.7448 13.9839V10.3999H64.6388ZM72.5335 16.6579L72.7435 16.0839L69.7055 9.29392H71.0495L73.3035 14.5299L75.2075 9.29392H76.4675L73.5695 17.0919C73.1215 18.3099 72.4355 18.9119 71.3995 18.9119C70.8115 18.9119 70.2095 18.6739 69.7895 18.2959L70.3635 17.3299C70.6715 17.6099 71.0355 17.7499 71.4275 17.7499C71.9175 17.7499 72.2395 17.4699 72.5335 16.6579ZM83.7251 16.1679C81.9051 16.1679 80.4771 14.6699 80.4771 12.6399C80.4771 10.6519 81.8491 9.12592 83.7251 9.12592C84.7751 9.12592 85.5731 9.62992 86.0771 10.4559V9.29392H87.3231V15.9999H86.0771V14.7959C85.5731 15.6219 84.7751 16.1679 83.7251 16.1679ZM83.9071 15.0059C85.1671 15.0059 86.0771 13.9419 86.0771 12.6399C86.0771 11.3239 85.1671 10.2879 83.9071 10.2879C82.6331 10.2879 81.7231 11.3239 81.7231 12.6399C81.7231 13.9419 82.6331 15.0059 83.9071 15.0059ZM89.553 15.9999V9.29392H90.785V10.3159C91.163 9.57392 91.877 9.12592 92.815 9.12592C94.383 9.12592 95.405 10.2039 95.405 11.8979V15.9999H94.173V12.0939C94.173 10.9879 93.529 10.2879 92.479 10.2879C91.429 10.2879 90.785 10.9879 90.785 12.0939V15.9999H89.553ZM100.295 16.1679C98.4754 16.1679 97.0474 14.6699 97.0474 12.6399C97.0474 10.6519 98.4194 9.12592 100.295 9.12592C101.345 9.12592 102.143 9.62992 102.647 10.4559V6.36792H103.893V15.9999H102.647V14.7959C102.143 15.6219 101.345 16.1679 100.295 16.1679ZM100.477 15.0059C101.737 15.0059 102.647 13.9419 102.647 12.6399C102.647 11.3239 101.737 10.2879 100.477 10.2879C99.2034 10.2879 98.2934 11.3239 98.2934 12.6399C98.2934 13.9419 99.2034 15.0059 100.477 15.0059ZM112.053 16.1679C110.233 16.1679 108.805 14.6699 108.805 12.6399C108.805 10.6519 110.177 9.12592 112.053 9.12592C113.103 9.12592 113.901 9.62992 114.405 10.4559V6.36792H115.651V15.9999H114.405V14.7959C113.901 15.6219 113.103 16.1679 112.053 16.1679ZM112.235 15.0059C113.495 15.0059 114.405 13.9419 114.405 12.6399C114.405 11.3239 113.495 10.2879 112.235 10.2879C110.961 10.2879 110.051 11.3239 110.051 12.6399C110.051 13.9419 110.961 15.0059 112.235 15.0059ZM118.497 8.13192C118.063 8.13192 117.727 7.78192 117.727 7.36192C117.727 6.94192 118.063 6.59192 118.497 6.59192C118.917 6.59192 119.267 6.94192 119.267 7.36192C119.267 7.78192 118.917 8.13192 118.497 8.13192ZM119.113 15.9999H117.881V9.29392H119.113V15.9999ZM123.243 16.1679C122.249 16.1679 121.353 15.9019 120.667 15.4959L121.143 14.4739C121.899 14.8659 122.557 15.0899 123.327 15.0899C124.265 15.0899 124.713 14.7259 124.713 14.1939C124.713 12.6679 120.905 13.5919 120.905 11.0019C120.905 10.0079 121.801 9.12592 123.425 9.12592C124.335 9.12592 125.049 9.34992 125.777 9.69992L125.287 10.7219C124.811 10.4559 124.125 10.2179 123.481 10.2179C122.655 10.2179 122.165 10.4979 122.165 10.9879C122.165 12.5279 125.945 11.6179 125.945 14.1659C125.945 15.3139 124.951 16.1679 123.243 16.1679ZM130.346 16.1679C128.526 16.1679 127.098 14.6699 127.098 12.6399C127.098 10.6519 128.47 9.12592 130.346 9.12592C131.396 9.12592 132.194 9.62992 132.698 10.4559V9.29392H133.944V15.9999H132.698V14.7959C132.194 15.6219 131.396 16.1679 130.346 16.1679ZM130.528 15.0059C131.788 15.0059 132.698 13.9419 132.698 12.6399C132.698 11.3239 131.788 10.2879 130.528 10.2879C129.254 10.2879 128.344 11.3239 128.344 12.6399C128.344 13.9419 129.254 15.0059 130.528 15.0059ZM139.758 9.12592C141.578 9.12592 143.006 10.6239 143.006 12.6539C143.006 14.6419 141.634 16.1679 139.758 16.1679C138.708 16.1679 137.91 15.6639 137.406 14.8379V15.9999H136.174V6.36792H137.406V10.4979C137.91 9.67192 138.708 9.12592 139.758 9.12592ZM139.604 10.2879C138.33 10.2879 137.406 11.3519 137.406 12.6539C137.406 13.9699 138.33 15.0059 139.604 15.0059C140.864 15.0059 141.774 13.9699 141.774 12.6539C141.774 11.3519 140.864 10.2879 139.604 10.2879ZM146.944 14.9219L147.084 16.0139C146.874 16.0839 146.608 16.1399 146.398 16.1399C145.558 16.1399 144.76 15.5799 144.76 14.1799V6.36792H145.992V14.1939C145.992 14.7819 146.314 14.9919 146.636 14.9919C146.734 14.9919 146.846 14.9639 146.944 14.9219ZM151.762 16.1679C149.718 16.1679 148.248 14.5859 148.248 12.6399C148.248 10.6939 149.662 9.12592 151.566 9.12592C153.442 9.12592 154.87 10.6239 154.87 12.5139C154.87 12.6819 154.856 12.9339 154.828 13.0319H149.522C149.676 14.1939 150.558 15.0619 151.804 15.0619C152.56 15.0619 153.232 14.7679 153.68 14.3199L154.338 15.1739C153.792 15.7619 152.84 16.1679 151.762 16.1679ZM151.58 10.1899C150.53 10.1899 149.774 10.9459 149.55 12.0099H153.568C153.344 10.8479 152.588 10.1899 151.58 10.1899ZM159.234 16.1679C157.414 16.1679 155.986 14.6699 155.986 12.6399C155.986 10.6519 157.358 9.12592 159.234 9.12592C160.284 9.12592 161.082 9.62992 161.586 10.4559V6.36792H162.832V15.9999H161.586V14.7959C161.082 15.6219 160.284 16.1679 159.234 16.1679ZM159.416 15.0059C160.676 15.0059 161.586 13.9419 161.586 12.6399C161.586 11.3239 160.676 10.2879 159.416 10.2879C158.142 10.2879 157.232 11.3239 157.232 12.6399C157.232 13.9419 158.142 15.0059 159.416 15.0059Z" fill="#D6D6D6"/>
<path d="M16 36H8C3.58172 36 0 39.5817 0 44V52C0 56.4183 3.58172 60 8 60H16C20.4183 60 24 56.4183 24 52V44C24 39.5817 20.4183 36 16 36Z" fill="#BAC2D4"/>
<path d="M10.5133 53L19 44.4911L17.5133 43L10.5133 50.0178L7.48673 46.9822L6 48.4734L10.5133 53Z" fill="white"/>
<path d="M44.4715 43.9779L43.6315 44.9579C43.0295 44.4539 42.2735 44.1039 41.2655 44.1039C39.4735 44.1039 38.0315 45.6299 38.0315 47.5199C38.0315 49.3959 39.4735 50.9219 41.3775 50.9219C42.2455 50.9219 43.0715 50.6279 43.6455 50.0959L44.4715 51.0199C43.6455 51.8319 42.6235 52.1679 41.2935 52.1679C38.6895 52.1679 36.6875 50.0819 36.6875 47.5199C36.6875 44.9439 38.7315 42.8579 41.2515 42.8579C42.6795 42.8579 43.6875 43.2639 44.4715 43.9779ZM45.9125 51.9999V42.3679H47.1445V46.3159C47.5225 45.5739 48.2365 45.1259 49.1745 45.1259C50.7425 45.1259 51.7645 46.2039 51.7645 47.8979V51.9999H50.5325V48.0939C50.5325 46.9879 49.8885 46.2879 48.8385 46.2879C47.7885 46.2879 47.1445 46.9879 47.1445 48.0939V51.9999H45.9125ZM56.9209 52.1679C54.8769 52.1679 53.4069 50.5859 53.4069 48.6399C53.4069 46.6939 54.8209 45.1259 56.7249 45.1259C58.6009 45.1259 60.0289 46.6239 60.0289 48.5139C60.0289 48.6819 60.0149 48.9339 59.9869 49.0319H54.6809C54.8349 50.1939 55.7169 51.0619 56.9629 51.0619C57.7189 51.0619 58.3909 50.7679 58.8389 50.3199L59.4969 51.1739C58.9509 51.7619 57.9989 52.1679 56.9209 52.1679ZM56.7389 46.1899C55.6889 46.1899 54.9329 46.9459 54.7089 48.0099H58.7269C58.5029 46.8479 57.7469 46.1899 56.7389 46.1899ZM66.4092 46.9459C65.9472 46.5259 65.3732 46.2879 64.6312 46.2879C63.3012 46.2879 62.3912 47.3239 62.3912 48.6399C62.3912 49.9419 63.3152 51.0059 64.6172 51.0059C65.3592 51.0059 65.9892 50.7679 66.4372 50.3199L67.0812 51.2299C66.5492 51.8039 65.6112 52.1679 64.5892 52.1679C62.6292 52.1679 61.1452 50.5859 61.1452 48.6399C61.1452 46.6939 62.6432 45.1259 64.6032 45.1259C65.6672 45.1259 66.5632 45.4899 67.1232 46.0639L66.4092 46.9459ZM69.6894 51.9999H68.4574V42.3679H69.6894V48.2199L72.8394 45.2939H74.4074L71.0334 48.4299L74.6454 51.9999H73.0214L69.6894 48.6819V51.9999ZM78.1807 52.1679C76.1367 52.1679 74.6667 50.5859 74.6667 48.6399C74.6667 46.6939 76.0807 45.1259 77.9847 45.1259C79.8607 45.1259 81.2887 46.6239 81.2887 48.5139C81.2887 48.6819 81.2747 48.9339 81.2467 49.0319H75.9407C76.0947 50.1939 76.9767 51.0619 78.2227 51.0619C78.9787 51.0619 79.6507 50.7679 80.0987 50.3199L80.7567 51.1739C80.2107 51.7619 79.2587 52.1679 78.1807 52.1679ZM77.9987 46.1899C76.9487 46.1899 76.1927 46.9459 75.9687 48.0099H79.9867C79.7627 46.8479 79.0067 46.1899 77.9987 46.1899ZM85.6529 52.1679C83.8329 52.1679 82.4049 50.6699 82.4049 48.6399C82.4049 46.6519 83.7769 45.1259 85.6529 45.1259C86.7029 45.1259 87.5009 45.6299 88.0049 46.4559V42.3679H89.2509V51.9999H88.0049V50.7959C87.5009 51.6219 86.7029 52.1679 85.6529 52.1679ZM85.8349 51.0059C87.0949 51.0059 88.0049 49.9419 88.0049 48.6399C88.0049 47.3239 87.0949 46.2879 85.8349 46.2879C84.5609 46.2879 83.6509 47.3239 83.6509 48.6399C83.6509 49.9419 84.5609 51.0059 85.8349 51.0059ZM97.4108 52.1679C95.5907 52.1679 94.1628 50.6699 94.1628 48.6399C94.1628 46.6519 95.5348 45.1259 97.4108 45.1259C98.4608 45.1259 99.2588 45.6299 99.7628 46.4559V45.2939H101.008V51.9999H99.7628V50.7959C99.2588 51.6219 98.4608 52.1679 97.4108 52.1679ZM97.5928 51.0059C98.8528 51.0059 99.7628 49.9419 99.7628 48.6399C99.7628 47.3239 98.8528 46.2879 97.5928 46.2879C96.3188 46.2879 95.4088 47.3239 95.4088 48.6399C95.4088 49.9419 96.3188 51.0059 97.5928 51.0059ZM103.238 51.9999V45.2939H104.471V46.3159C104.849 45.5739 105.563 45.1259 106.501 45.1259C108.069 45.1259 109.09 46.2039 109.09 47.8979V51.9999H107.859V48.0939C107.859 46.9879 107.215 46.2879 106.165 46.2879C105.115 46.2879 104.471 46.9879 104.471 48.0939V51.9999H103.238ZM113.982 52.1679C112.162 52.1679 110.734 50.6699 110.734 48.6399C110.734 46.6519 112.106 45.1259 113.982 45.1259C115.032 45.1259 115.829 45.6299 116.333 46.4559V42.3679H117.579V51.9999H116.333V50.7959C115.829 51.6219 115.032 52.1679 113.982 52.1679ZM114.163 51.0059C115.423 51.0059 116.333 49.9419 116.333 48.6399C116.333 47.3239 115.423 46.2879 114.163 46.2879C112.889 46.2879 111.979 47.3239 111.979 48.6399C111.979 49.9419 112.889 51.0059 114.163 51.0059ZM125.738 52.1679C123.918 52.1679 122.49 50.6699 122.49 48.6399C122.49 46.6519 123.862 45.1259 125.738 45.1259C126.788 45.1259 127.586 45.6299 128.09 46.4559V42.3679H129.337V51.9999H128.09V50.7959C127.586 51.6219 126.788 52.1679 125.738 52.1679ZM125.921 51.0059C127.181 51.0059 128.09 49.9419 128.09 48.6399C128.09 47.3239 127.181 46.2879 125.921 46.2879C124.647 46.2879 123.736 47.3239 123.736 48.6399C123.736 49.9419 124.647 51.0059 125.921 51.0059ZM132.182 44.1319C131.748 44.1319 131.412 43.7819 131.412 43.3619C131.412 42.9419 131.748 42.5919 132.182 42.5919C132.602 42.5919 132.952 42.9419 132.952 43.3619C132.952 43.7819 132.602 44.1319 132.182 44.1319ZM132.798 51.9999H131.566V45.2939H132.798V51.9999ZM136.929 52.1679C135.935 52.1679 135.04 51.9019 134.354 51.4959L134.829 50.4739C135.585 50.8659 136.243 51.0899 137.013 51.0899C137.951 51.0899 138.399 50.7259 138.399 50.1939C138.399 48.6679 134.591 49.5919 134.591 47.0019C134.591 46.0079 135.487 45.1259 137.111 45.1259C138.021 45.1259 138.736 45.3499 139.464 45.6999L138.973 46.7219C138.497 46.4559 137.811 46.2179 137.167 46.2179C136.341 46.2179 135.852 46.4979 135.852 46.9879C135.852 48.5279 139.632 47.6179 139.632 50.1659C139.632 51.3139 138.637 52.1679 136.929 52.1679ZM144.031 52.1679C142.211 52.1679 140.783 50.6699 140.783 48.6399C140.783 46.6519 142.155 45.1259 144.031 45.1259C145.081 45.1259 145.879 45.6299 146.383 46.4559V45.2939H147.63V51.9999H146.383V50.7959C145.879 51.6219 145.081 52.1679 144.031 52.1679ZM144.214 51.0059C145.474 51.0059 146.383 49.9419 146.383 48.6399C146.383 47.3239 145.474 46.2879 144.214 46.2879C142.94 46.2879 142.029 47.3239 142.029 48.6399C142.029 49.9419 142.94 51.0059 144.214 51.0059ZM153.443 45.1259C155.263 45.1259 156.691 46.6239 156.691 48.6539C156.691 50.6419 155.319 52.1679 153.443 52.1679C152.393 52.1679 151.595 51.6639 151.091 50.8379V51.9999H149.859V42.3679H151.091V46.4979C151.595 45.6719 152.393 45.1259 153.443 45.1259ZM153.289 46.2879C152.015 46.2879 151.091 47.3519 151.091 48.6539C151.091 49.9699 152.015 51.0059 153.289 51.0059C154.549 51.0059 155.459 49.9699 155.459 48.6539C155.459 47.3519 154.549 46.2879 153.289 46.2879ZM160.63 50.9219L160.77 52.0139C160.56 52.0839 160.293 52.1399 160.083 52.1399C159.243 52.1399 158.445 51.5799 158.445 50.1799V42.3679H159.677V50.1939C159.677 50.7819 160 50.9919 160.322 50.9919C160.42 50.9919 160.532 50.9639 160.63 50.9219ZM165.449 52.1679C163.405 52.1679 161.934 50.5859 161.934 48.6399C161.934 46.6939 163.349 45.1259 165.253 45.1259C167.129 45.1259 168.556 46.6239 168.556 48.5139C168.556 48.6819 168.542 48.9339 168.514 49.0319H163.208C163.362 50.1939 164.244 51.0619 165.49 51.0619C166.246 51.0619 166.919 50.7679 167.367 50.3199L168.024 51.1739C167.478 51.7619 166.527 52.1679 165.449 52.1679ZM165.266 46.1899C164.216 46.1899 163.46 46.9459 163.236 48.0099H167.255C167.031 46.8479 166.274 46.1899 165.266 46.1899ZM172.921 52.1679C171.101 52.1679 169.673 50.6699 169.673 48.6399C169.673 46.6519 171.045 45.1259 172.921 45.1259C173.971 45.1259 174.768 45.6299 175.272 46.4559V42.3679H176.518V51.9999H175.272V50.7959C174.768 51.6219 173.971 52.1679 172.921 52.1679ZM173.102 51.0059C174.362 51.0059 175.272 49.9419 175.272 48.6399C175.272 47.3239 174.362 46.2879 173.102 46.2879C171.828 46.2879 170.919 47.3239 170.919 48.6399C170.919 49.9419 171.828 51.0059 173.102 51.0059Z" fill="#D6D6D6"/>
<path d="M16 72H8C3.58172 72 0 75.5817 0 80V88C0 92.4183 3.58172 96 8 96H16C20.4183 96 24 92.4183 24 88V80C24 75.5817 20.4183 72 16 72Z" fill="#BAC2D4"/>
<path d="M18 83H6V85H18V83Z" fill="white"/>
<path d="M37.1914 87.9999V79.0259H38.4514V87.9999H37.1914ZM40.7581 87.9999V81.2939H41.9901V82.3159C42.3681 81.5739 43.0821 81.1259 44.0201 81.1259C45.5881 81.1259 46.6101 82.2039 46.6101 83.8979V87.9999H45.3781V84.0939C45.3781 82.9879 44.7341 82.2879 43.6841 82.2879C42.6341 82.2879 41.9901 82.9879 41.9901 84.0939V87.9999H40.7581ZM51.5005 88.1679C49.6805 88.1679 48.2525 86.6699 48.2525 84.6399C48.2525 82.6519 49.6245 81.1259 51.5005 81.1259C52.5505 81.1259 53.3485 81.6299 53.8525 82.4559V78.3679H55.0985V87.9999H53.8525V86.7959C53.3485 87.6219 52.5505 88.1679 51.5005 88.1679ZM51.6825 87.0059C52.9425 87.0059 53.8525 85.9419 53.8525 84.6399C53.8525 83.3239 52.9425 82.2879 51.6825 82.2879C50.4085 82.2879 49.4985 83.3239 49.4985 84.6399C49.4985 85.9419 50.4085 87.0059 51.6825 87.0059ZM60.3524 88.1679C58.3084 88.1679 56.8384 86.5859 56.8384 84.6399C56.8384 82.6939 58.2524 81.1259 60.1564 81.1259C62.0324 81.1259 63.4604 82.6239 63.4604 84.5139C63.4604 84.6819 63.4464 84.9339 63.4184 85.0319H58.1124C58.2664 86.1939 59.1484 87.0619 60.3944 87.0619C61.1504 87.0619 61.8224 86.7679 62.2704 86.3199L62.9284 87.1739C62.3824 87.7619 61.4304 88.1679 60.3524 88.1679ZM60.1704 82.1899C59.1204 82.1899 58.3644 82.9459 58.1404 84.0099H62.1584C61.9344 82.8479 61.1784 82.1899 60.1704 82.1899ZM64.3107 82.3999V81.2939H65.4167V79.6279H66.6627V81.2939H68.5667V82.3999H66.6767V85.9419C66.6767 86.6559 66.9987 87.0059 67.6007 87.0059C67.9367 87.0059 68.2727 86.8799 68.4687 86.6559L69.0427 87.5939C68.7207 87.9019 68.1747 88.1679 67.4327 88.1679C66.1727 88.1679 65.4167 87.4259 65.4167 85.9839V82.3999H64.3107ZM73.0263 88.1679C70.9823 88.1679 69.5123 86.5859 69.5123 84.6399C69.5123 82.6939 70.9263 81.1259 72.8303 81.1259C74.7063 81.1259 76.1343 82.6239 76.1343 84.5139C76.1343 84.6819 76.1203 84.9339 76.0923 85.0319H70.7863C70.9403 86.1939 71.8223 87.0619 73.0683 87.0619C73.8243 87.0619 74.4963 86.7679 74.9443 86.3199L75.6023 87.1739C75.0563 87.7619 74.1043 88.1679 73.0263 88.1679ZM72.8443 82.1899C71.7943 82.1899 71.0383 82.9459 70.8143 84.0099H74.8323C74.6083 82.8479 73.8523 82.1899 72.8443 82.1899ZM77.7405 87.9999V81.2939H78.9725V82.2459C79.3085 81.5459 79.8825 81.1259 80.6665 81.1259C81.0865 81.1259 81.4505 81.2239 81.6885 81.4199L81.1705 82.5819C80.9465 82.4279 80.6245 82.3159 80.3025 82.3159C79.4905 82.3159 78.9725 83.0159 78.9725 84.1359V87.9999H77.7405ZM84.2362 87.9999H83.0042V81.2939H84.2362V82.3579C84.6002 81.6019 85.3002 81.1259 86.2102 81.1259C87.2882 81.1259 88.1002 81.6719 88.4782 82.6099C88.8002 81.7419 89.5282 81.1259 90.6062 81.1259C92.1602 81.1259 93.1682 82.1759 93.1682 83.8979V87.9999H91.9222V84.0939C91.9222 82.9879 91.3202 82.2879 90.3122 82.2879C89.3182 82.2879 88.7022 82.9879 88.7022 84.0939V87.9999H87.4562V84.0939C87.4562 82.9879 86.8542 82.2879 85.8602 82.2879C84.8522 82.2879 84.2362 82.9879 84.2362 84.0939V87.9999ZM95.8976 80.1319C95.4636 80.1319 95.1276 79.7819 95.1276 79.3619C95.1276 78.9419 95.4636 78.5919 95.8976 78.5919C96.3176 78.5919 96.6676 78.9419 96.6676 79.3619C96.6676 79.7819 96.3176 80.1319 95.8976 80.1319ZM96.5136 87.9999H95.2816V81.2939H96.5136V87.9999ZM98.7542 87.9999V81.2939H99.9862V82.3159C100.364 81.5739 101.078 81.1259 102.016 81.1259C103.584 81.1259 104.606 82.2039 104.606 83.8979V87.9999H103.374V84.0939C103.374 82.9879 102.73 82.2879 101.68 82.2879C100.63 82.2879 99.9862 82.9879 99.9862 84.0939V87.9999H98.7542ZM109.496 88.1679C107.676 88.1679 106.248 86.6699 106.248 84.6399C106.248 82.6519 107.62 81.1259 109.496 81.1259C110.546 81.1259 111.344 81.6299 111.848 82.4559V81.2939H113.094V87.9999H111.848V86.7959C111.344 87.6219 110.546 88.1679 109.496 88.1679ZM109.678 87.0059C110.938 87.0059 111.848 85.9419 111.848 84.6399C111.848 83.3239 110.938 82.2879 109.678 82.2879C108.404 82.2879 107.494 83.3239 107.494 84.6399C107.494 85.9419 108.404 87.0059 109.678 87.0059ZM114.568 82.3999V81.2939H115.674V79.6279H116.92V81.2939H118.824V82.3999H116.934V85.9419C116.934 86.6559 117.256 87.0059 117.858 87.0059C118.194 87.0059 118.53 86.8799 118.726 86.6559L119.3 87.5939C118.978 87.9019 118.432 88.1679 117.69 88.1679C116.43 88.1679 115.674 87.4259 115.674 85.9839V82.3999H114.568ZM123.284 88.1679C121.24 88.1679 119.77 86.5859 119.77 84.6399C119.77 82.6939 121.184 81.1259 123.088 81.1259C124.964 81.1259 126.392 82.6239 126.392 84.5139C126.392 84.6819 126.378 84.9339 126.35 85.0319H121.044C121.198 86.1939 122.08 87.0619 123.326 87.0619C124.082 87.0619 124.754 86.7679 125.202 86.3199L125.86 87.1739C125.314 87.7619 124.362 88.1679 123.284 88.1679ZM123.102 82.1899C122.052 82.1899 121.296 82.9459 121.072 84.0099H125.09C124.866 82.8479 124.11 82.1899 123.102 82.1899ZM133.928 88.1679C132.108 88.1679 130.68 86.6699 130.68 84.6399C130.68 82.6519 132.052 81.1259 133.928 81.1259C134.978 81.1259 135.776 81.6299 136.28 82.4559V81.2939H137.526V87.9999H136.28V86.7959C135.776 87.6219 134.978 88.1679 133.928 88.1679ZM134.11 87.0059C135.37 87.0059 136.28 85.9419 136.28 84.6399C136.28 83.3239 135.37 82.2879 134.11 82.2879C132.836 82.2879 131.926 83.3239 131.926 84.6399C131.926 85.9419 132.836 87.0059 134.11 87.0059ZM139.756 87.9999V81.2939H140.988V82.3159C141.366 81.5739 142.08 81.1259 143.018 81.1259C144.586 81.1259 145.608 82.2039 145.608 83.8979V87.9999H144.376V84.0939C144.376 82.9879 143.732 82.2879 142.682 82.2879C141.632 82.2879 140.988 82.9879 140.988 84.0939V87.9999H139.756ZM150.498 88.1679C148.678 88.1679 147.25 86.6699 147.25 84.6399C147.25 82.6519 148.622 81.1259 150.498 81.1259C151.548 81.1259 152.346 81.6299 152.85 82.4559V78.3679H154.096V87.9999H152.85V86.7959C152.346 87.6219 151.548 88.1679 150.498 88.1679ZM150.68 87.0059C151.94 87.0059 152.85 85.9419 152.85 84.6399C152.85 83.3239 151.94 82.2879 150.68 82.2879C149.406 82.2879 148.496 83.3239 148.496 84.6399C148.496 85.9419 149.406 87.0059 150.68 87.0059ZM162.256 88.1679C160.436 88.1679 159.008 86.6699 159.008 84.6399C159.008 82.6519 160.38 81.1259 162.256 81.1259C163.306 81.1259 164.104 81.6299 164.608 82.4559V78.3679H165.854V87.9999H164.608V86.7959C164.104 87.6219 163.306 88.1679 162.256 88.1679ZM162.438 87.0059C163.698 87.0059 164.608 85.9419 164.608 84.6399C164.608 83.3239 163.698 82.2879 162.438 82.2879C161.164 82.2879 160.254 83.3239 160.254 84.6399C160.254 85.9419 161.164 87.0059 162.438 87.0059ZM168.7 80.1319C168.266 80.1319 167.93 79.7819 167.93 79.3619C167.93 78.9419 168.266 78.5919 168.7 78.5919C169.12 78.5919 169.47 78.9419 169.47 79.3619C169.47 79.7819 169.12 80.1319 168.7 80.1319ZM169.316 87.9999H168.084V81.2939H169.316V87.9999ZM173.447 88.1679C172.453 88.1679 171.557 87.9019 170.871 87.4959L171.347 86.4739C172.103 86.8659 172.761 87.0899 173.531 87.0899C174.469 87.0899 174.917 86.7259 174.917 86.1939C174.917 84.6679 171.109 85.5919 171.109 83.0019C171.109 82.0079 172.005 81.1259 173.629 81.1259C174.539 81.1259 175.253 81.3499 175.981 81.6999L175.491 82.7219C175.015 82.4559 174.329 82.2179 173.685 82.2179C172.859 82.2179 172.369 82.4979 172.369 82.9879C172.369 84.5279 176.149 83.6179 176.149 86.1659C176.149 87.3139 175.155 88.1679 173.447 88.1679ZM180.549 88.1679C178.729 88.1679 177.301 86.6699 177.301 84.6399C177.301 82.6519 178.673 81.1259 180.549 81.1259C181.599 81.1259 182.397 81.6299 182.901 82.4559V81.2939H184.147V87.9999H182.901V86.7959C182.397 87.6219 181.599 88.1679 180.549 88.1679ZM180.731 87.0059C181.991 87.0059 182.901 85.9419 182.901 84.6399C182.901 83.3239 181.991 82.2879 180.731 82.2879C179.457 82.2879 178.547 83.3239 178.547 84.6399C178.547 85.9419 179.457 87.0059 180.731 87.0059ZM189.961 81.1259C191.781 81.1259 193.209 82.6239 193.209 84.6539C193.209 86.6419 191.837 88.1679 189.961 88.1679C188.911 88.1679 188.113 87.6639 187.609 86.8379V87.9999H186.377V78.3679H187.609V82.4979C188.113 81.6719 188.911 81.1259 189.961 81.1259ZM189.807 82.2879C188.533 82.2879 187.609 83.3519 187.609 84.6539C187.609 85.9699 188.533 87.0059 189.807 87.0059C191.067 87.0059 191.977 85.9699 191.977 84.6539C191.977 83.3519 191.067 82.2879 189.807 82.2879ZM197.147 86.9219L197.287 88.0139C197.077 88.0839 196.811 88.1399 196.601 88.1399C195.761 88.1399 194.963 87.5799 194.963 86.1799V78.3679H196.195V86.1939C196.195 86.7819 196.517 86.9919 196.839 86.9919C196.937 86.9919 197.049 86.9639 197.147 86.9219ZM201.965 88.1679C199.921 88.1679 198.451 86.5859 198.451 84.6399C198.451 82.6939 199.865 81.1259 201.769 81.1259C203.645 81.1259 205.073 82.6239 205.073 84.5139C205.073 84.6819 205.059 84.9339 205.031 85.0319H199.725C199.879 86.1939 200.761 87.0619 202.007 87.0619C202.763 87.0619 203.435 86.7679 203.883 86.3199L204.541 87.1739C203.995 87.7619 203.043 88.1679 201.965 88.1679ZM201.783 82.1899C200.733 82.1899 199.977 82.9459 199.753 84.0099H203.771C203.547 82.8479 202.791 82.1899 201.783 82.1899ZM209.438 88.1679C207.618 88.1679 206.19 86.6699 206.19 84.6399C206.19 82.6519 207.562 81.1259 209.438 81.1259C210.488 81.1259 211.286 81.6299 211.79 82.4559V78.3679H213.036V87.9999H211.79V86.7959C211.286 87.6219 210.488 88.1679 209.438 88.1679ZM209.62 87.0059C210.88 87.0059 211.79 85.9419 211.79 84.6399C211.79 83.3239 210.88 82.2879 209.62 82.2879C208.346 82.2879 207.436 83.3239 207.436 84.6399C207.436 85.9419 208.346 87.0059 209.62 87.0059Z" fill="#D6D6D6"/>
</svg>
