<svg width="144" height="60" viewBox="0 0 144 60" fill="none" xmlns="http://www.w3.org/2000/svg">
<path d="M16.5 0H8.5C4.08172 0 0.5 3.58172 0.5 8V16C0.5 20.4183 4.08172 24 8.5 24H16.5C20.9183 24 24.5 20.4183 24.5 16V8C24.5 3.58172 20.9183 0 16.5 0Z" fill="#2861BB"/>
<path d="M11.0133 17L19.5 8.49112L18.0133 7L11.0133 14.0178L7.98673 10.9822L6.5 12.4734L11.0133 17Z" fill="white"/>
<path d="M37.6914 15.9999V7.02592H40.8274C42.8994 7.02592 44.2574 8.14592 44.2574 9.86792C44.2574 11.5899 42.8854 12.7239 40.7994 12.7239H38.9514V15.9999H37.6914ZM40.9394 8.15992H38.9514V11.5899H40.9394C42.1294 11.5899 42.9414 10.9039 42.9414 9.86792C42.9414 8.83192 42.1294 8.15992 40.9394 8.15992ZM45.9339 15.9999V9.29392H47.1659V10.2459C47.5019 9.54592 48.0759 9.12592 48.8599 9.12592C49.2799 9.12592 49.6439 9.22392 49.8819 9.41992L49.3639 10.5819C49.1399 10.4279 48.8179 10.3159 48.4959 10.3159C47.6839 10.3159 47.1659 11.0159 47.1659 12.1359V15.9999H45.9339ZM53.563 16.1679C51.645 16.1679 50.147 14.5859 50.147 12.6399C50.147 10.6939 51.645 9.12592 53.563 9.12592C55.495 9.12592 56.993 10.6939 56.993 12.6399C56.993 14.5859 55.495 16.1679 53.563 16.1679ZM53.577 15.0059C54.837 15.0059 55.747 13.9419 55.747 12.6399C55.747 11.3239 54.837 10.2879 53.577 10.2879C52.303 10.2879 51.393 11.3239 51.393 12.6399C51.393 13.9419 52.303 15.0059 53.577 15.0059ZM61.5024 16.1679C59.6824 16.1679 58.2544 14.6699 58.2544 12.6399C58.2544 10.6519 59.6264 9.12592 61.5024 9.12592C62.5524 9.12592 63.3504 9.62992 63.8544 10.4559V6.36792H65.1004V15.9999H63.8544V14.7959C63.3504 15.6219 62.5524 16.1679 61.5024 16.1679ZM61.6844 15.0059C62.9444 15.0059 63.8544 13.9419 63.8544 12.6399C63.8544 11.3239 62.9444 10.2879 61.6844 10.2879C60.4104 10.2879 59.5004 11.3239 59.5004 12.6399C59.5004 13.9419 60.4104 15.0059 61.6844 15.0059ZM68.4644 9.29392V13.0039C68.4644 14.1799 69.1504 14.9639 70.1864 14.9639C71.2364 14.9639 71.9364 14.1799 71.9364 13.0039V9.29392H73.1824V13.1019C73.1824 14.9219 71.9924 16.1259 70.1864 16.1259C68.3944 16.1259 67.2184 14.9219 67.2184 13.1019V9.29392H68.4644ZM80.0888 10.9459C79.6268 10.5259 79.0528 10.2879 78.3108 10.2879C76.9808 10.2879 76.0708 11.3239 76.0708 12.6399C76.0708 13.9419 76.9948 15.0059 78.2968 15.0059C79.0388 15.0059 79.6688 14.7679 80.1168 14.3199L80.7608 15.2299C80.2288 15.8039 79.2908 16.1679 78.2688 16.1679C76.3088 16.1679 74.8248 14.5859 74.8248 12.6399C74.8248 10.6939 76.3228 9.12592 78.2828 9.12592C79.3468 9.12592 80.2428 9.48992 80.8028 10.0639L80.0888 10.9459ZM81.381 10.3999V9.29392H82.487V7.62792H83.733V9.29392H85.637V10.3999H83.747V13.9419C83.747 14.6559 84.069 15.0059 84.671 15.0059C85.007 15.0059 85.343 14.8799 85.539 14.6559L86.113 15.5939C85.791 15.9019 85.245 16.1679 84.503 16.1679C83.243 16.1679 82.487 15.4259 82.487 13.9839V10.3999H81.381ZM90.5716 12.4999V7.02592H91.8316V12.4999C91.8316 13.9559 92.7416 14.9219 94.0856 14.9219C95.4436 14.9219 96.3256 13.9559 96.3256 12.4999V7.02592H97.5996V12.4999C97.5996 14.7119 96.1856 16.1679 94.0716 16.1679C91.9576 16.1679 90.5716 14.7119 90.5716 12.4999ZM101.033 18.7439H99.8011V9.29392H101.033V10.4979C101.537 9.67192 102.335 9.12592 103.385 9.12592C105.205 9.12592 106.633 10.6239 106.633 12.6539C106.633 14.6419 105.261 16.1679 103.385 16.1679C102.335 16.1679 101.537 15.6639 101.033 14.8379V18.7439ZM103.231 15.0059C104.491 15.0059 105.401 13.9699 105.401 12.6539C105.401 11.3519 104.491 10.2879 103.231 10.2879C101.957 10.2879 101.033 11.3519 101.033 12.6539C101.033 13.9699 101.957 15.0059 103.231 15.0059ZM111.145 16.1679C109.325 16.1679 107.897 14.6699 107.897 12.6399C107.897 10.6519 109.269 9.12592 111.145 9.12592C112.195 9.12592 112.993 9.62992 113.497 10.4559V6.36792H114.743V15.9999H113.497V14.7959C112.993 15.6219 112.195 16.1679 111.145 16.1679ZM111.327 15.0059C112.587 15.0059 113.497 13.9419 113.497 12.6399C113.497 11.3239 112.587 10.2879 111.327 10.2879C110.053 10.2879 109.143 11.3239 109.143 12.6399C109.143 13.9419 110.053 15.0059 111.327 15.0059ZM119.731 16.1679C117.911 16.1679 116.483 14.6699 116.483 12.6399C116.483 10.6519 117.855 9.12592 119.731 9.12592C120.781 9.12592 121.579 9.62992 122.083 10.4559V9.29392H123.329V15.9999H122.083V14.7959C121.579 15.6219 120.781 16.1679 119.731 16.1679ZM119.913 15.0059C121.173 15.0059 122.083 13.9419 122.083 12.6399C122.083 11.3239 121.173 10.2879 119.913 10.2879C118.639 10.2879 117.729 11.3239 117.729 12.6399C117.729 13.9419 118.639 15.0059 119.913 15.0059ZM124.803 10.3999V9.29392H125.909V7.62792H127.155V9.29392H129.059V10.3999H127.169V13.9419C127.169 14.6559 127.491 15.0059 128.093 15.0059C128.429 15.0059 128.765 14.8799 128.961 14.6559L129.535 15.5939C129.213 15.9019 128.667 16.1679 127.925 16.1679C126.665 16.1679 125.909 15.4259 125.909 13.9839V10.3999H124.803ZM133.518 16.1679C131.474 16.1679 130.004 14.5859 130.004 12.6399C130.004 10.6939 131.418 9.12592 133.322 9.12592C135.198 9.12592 136.626 10.6239 136.626 12.5139C136.626 12.6819 136.612 12.9339 136.584 13.0319H131.278C131.432 14.1939 132.314 15.0619 133.56 15.0619C134.316 15.0619 134.988 14.7679 135.436 14.3199L136.094 15.1739C135.548 15.7619 134.596 16.1679 133.518 16.1679ZM133.336 10.1899C132.286 10.1899 131.53 10.9459 131.306 12.0099H135.324C135.1 10.8479 134.344 10.1899 133.336 10.1899ZM140.04 16.1679C139.046 16.1679 138.15 15.9019 137.464 15.4959L137.94 14.4739C138.696 14.8659 139.354 15.0899 140.124 15.0899C141.062 15.0899 141.51 14.7259 141.51 14.1939C141.51 12.6679 137.702 13.5919 137.702 11.0019C137.702 10.0079 138.598 9.12592 140.222 9.12592C141.132 9.12592 141.846 9.34992 142.574 9.69992L142.084 10.7219C141.608 10.4559 140.922 10.2179 140.278 10.2179C139.452 10.2179 138.962 10.4979 138.962 10.9879C138.962 12.5279 142.742 11.6179 142.742 14.1659C142.742 15.3139 141.748 16.1679 140.04 16.1679Z" fill="black"/>
<path d="M16.5 37H8.5C4.63401 37 1.5 40.134 1.5 44V52C1.5 55.866 4.63401 59 8.5 59H16.5C20.366 59 23.5 55.866 23.5 52V44C23.5 40.134 20.366 37 16.5 37Z" fill="white"/>
<path d="M16.5 37H8.5C4.63401 37 1.5 40.134 1.5 44V52C1.5 55.866 4.63401 59 8.5 59H16.5C20.366 59 23.5 55.866 23.5 52V44C23.5 40.134 20.366 37 16.5 37Z" stroke="#5D5D5D" stroke-width="2"/>
<path d="M37.6914 52V43.026H43.3894V44.216H38.9514V46.904H42.8294V48.094H38.9514V50.81H43.3894V52H37.6914ZM48.2656 52H46.6556L44.1216 45.294H45.4936L47.4956 50.88L49.5256 45.294H50.7996L48.2656 52ZM54.8915 52.168C52.8475 52.168 51.3775 50.586 51.3775 48.64C51.3775 46.694 52.7915 45.126 54.6955 45.126C56.5715 45.126 57.9995 46.624 57.9995 48.514C57.9995 48.682 57.9855 48.934 57.9575 49.032H52.6515C52.8055 50.194 53.6875 51.062 54.9335 51.062C55.6895 51.062 56.3615 50.768 56.8095 50.32L57.4675 51.174C56.9215 51.762 55.9695 52.168 54.8915 52.168ZM54.7095 46.19C53.6595 46.19 52.9035 46.946 52.6795 48.01H56.6975C56.4735 46.848 55.7175 46.19 54.7095 46.19ZM59.6058 52V45.294H60.8378V46.316C61.2158 45.574 61.9298 45.126 62.8678 45.126C64.4358 45.126 65.4578 46.204 65.4578 47.898V52H64.2258V48.094C64.2258 46.988 63.5818 46.288 62.5318 46.288C61.4818 46.288 60.8378 46.988 60.8378 48.094V52H59.6058ZM66.8342 46.4V45.294H67.9402V43.628H69.1862V45.294H71.0902V46.4H69.2002V49.942C69.2002 50.656 69.5222 51.006 70.1242 51.006C70.4602 51.006 70.7962 50.88 70.9922 50.656L71.5662 51.594C71.2442 51.902 70.6982 52.168 69.9562 52.168C68.6962 52.168 67.9402 51.426 67.9402 49.984V46.4H66.8342ZM76.1367 52V43.026H77.3967V52H76.1367ZM79.7034 52V45.294H80.9354V46.316C81.3134 45.574 82.0274 45.126 82.9654 45.126C84.5334 45.126 85.5554 46.204 85.5554 47.898V52H84.3234V48.094C84.3234 46.988 83.6794 46.288 82.6294 46.288C81.5794 46.288 80.9354 46.988 80.9354 48.094V52H79.7034ZM90.8671 52H89.2571L86.7231 45.294H88.0951L90.0971 50.88L92.1271 45.294H93.4011L90.8671 52ZM95.3448 44.132C94.9108 44.132 94.5748 43.782 94.5748 43.362C94.5748 42.942 94.9108 42.592 95.3448 42.592C95.7648 42.592 96.1148 42.942 96.1148 43.362C96.1148 43.782 95.7648 44.132 95.3448 44.132ZM95.9608 52H94.7288V45.294H95.9608V52ZM97.4455 46.4V45.294H98.5515V43.628H99.7975V45.294H101.701V46.4H99.8115V49.942C99.8115 50.656 100.133 51.006 100.735 51.006C101.071 51.006 101.407 50.88 101.603 50.656L102.177 51.594C101.855 51.902 101.309 52.168 100.567 52.168C99.3075 52.168 98.5515 51.426 98.5515 49.984V46.4H97.4455ZM105.895 52.168C104.075 52.168 102.647 50.67 102.647 48.64C102.647 46.652 104.019 45.126 105.895 45.126C106.945 45.126 107.743 45.63 108.247 46.456V45.294H109.493V52H108.247V50.796C107.743 51.622 106.945 52.168 105.895 52.168ZM106.077 51.006C107.337 51.006 108.247 49.942 108.247 48.64C108.247 47.324 107.337 46.288 106.077 46.288C104.803 46.288 103.893 47.324 103.893 48.64C103.893 49.942 104.803 51.006 106.077 51.006ZM110.967 46.4V45.294H112.073V43.628H113.319V45.294H115.223V46.4H113.333V49.942C113.333 50.656 113.655 51.006 114.257 51.006C114.593 51.006 114.929 50.88 115.125 50.656L115.699 51.594C115.377 51.902 114.831 52.168 114.089 52.168C112.829 52.168 112.073 51.426 112.073 49.984V46.4H110.967ZM117.643 44.132C117.209 44.132 116.873 43.782 116.873 43.362C116.873 42.942 117.209 42.592 117.643 42.592C118.063 42.592 118.413 42.942 118.413 43.362C118.413 43.782 118.063 44.132 117.643 44.132ZM118.259 52H117.027V45.294H118.259V52ZM123.426 52.168C121.508 52.168 120.01 50.586 120.01 48.64C120.01 46.694 121.508 45.126 123.426 45.126C125.358 45.126 126.856 46.694 126.856 48.64C126.856 50.586 125.358 52.168 123.426 52.168ZM123.44 51.006C124.7 51.006 125.61 49.942 125.61 48.64C125.61 47.324 124.7 46.288 123.44 46.288C122.166 46.288 121.256 47.324 121.256 48.64C121.256 49.942 122.166 51.006 123.44 51.006ZM128.607 52V45.294H129.839V46.316C130.217 45.574 130.931 45.126 131.869 45.126C133.437 45.126 134.459 46.204 134.459 47.898V52H133.227V48.094C133.227 46.988 132.583 46.288 131.533 46.288C130.483 46.288 129.839 46.988 129.839 48.094V52H128.607ZM138.482 52.168C137.488 52.168 136.592 51.902 135.906 51.496L136.382 50.474C137.138 50.866 137.796 51.09 138.566 51.09C139.504 51.09 139.952 50.726 139.952 50.194C139.952 48.668 136.144 49.592 136.144 47.002C136.144 46.008 137.04 45.126 138.664 45.126C139.574 45.126 140.288 45.35 141.016 45.7L140.526 46.722C140.05 46.456 139.364 46.218 138.72 46.218C137.894 46.218 137.404 46.498 137.404 46.988C137.404 48.528 141.184 47.618 141.184 50.166C141.184 51.314 140.19 52.168 138.482 52.168Z" fill="black"/>
</svg>
