<svg width="174" height="52" viewBox="0 0 174 52" fill="none" xmlns="http://www.w3.org/2000/svg">
<path d="M21.8333 10H11.1667C5.27564 10 0.5 14.7756 0.5 20.6667V31.3333C0.5 37.2244 5.27564 42 11.1667 42H21.8333C27.7244 42 32.5 37.2244 32.5 31.3333V20.6667C32.5 14.7756 27.7244 10 21.8333 10Z" fill="#2861BB"/>
<path d="M14.5177 32.6668L25.8333 21.3217L23.851 19.3335L14.5177 28.6905L10.4823 24.6432L8.5 26.6313L14.5177 32.6668Z" fill="white"/>
<path d="M45.8594 31V20.76H48.9954C52.4034 20.76 54.7714 22.856 54.7714 25.88C54.7714 28.904 52.4674 31 49.1394 31H45.8594ZM49.0274 22.1201H47.3314V29.64H49.0274C51.5714 29.64 53.2354 28.152 53.2354 25.88C53.2354 23.608 51.5714 22.1201 49.0274 22.1201ZM60.2979 31.192C57.9619 31.192 56.2819 29.384 56.2819 27.16C56.2819 24.936 57.8979 23.144 60.0739 23.144C62.2179 23.144 63.8499 24.8561 63.8499 27.0161C63.8499 27.2081 63.8339 27.496 63.8019 27.608H57.7379C57.9139 28.936 58.9219 29.928 60.3459 29.928C61.2099 29.928 61.9779 29.592 62.4899 29.08L63.2419 30.056C62.6179 30.728 61.5299 31.192 60.2979 31.192ZM60.0899 24.3601C58.8899 24.3601 58.0259 25.2241 57.7699 26.4401H62.3619C62.1059 25.1121 61.2419 24.3601 60.0899 24.3601ZM64.8857 24.6V23.3361H66.0857V22.456C66.0857 20.76 67.0617 19.8 68.5337 19.8C69.4297 19.8 70.0377 20.072 70.4697 20.536L69.7337 21.576C69.4937 21.32 69.0777 21.128 68.6457 21.128C67.9257 21.128 67.5097 21.608 67.5097 22.472V23.3361H69.5417V24.6H67.5097V31H66.0857V24.6H64.8857ZM73.822 31.192C71.742 31.192 70.11 29.48 70.11 27.16C70.11 24.888 71.678 23.144 73.822 23.144C75.022 23.144 75.934 23.72 76.51 24.664V23.3361H77.934V31H76.51V29.6241C75.934 30.5681 75.022 31.192 73.822 31.192ZM74.03 29.864C75.47 29.864 76.51 28.648 76.51 27.16C76.51 25.656 75.47 24.472 74.03 24.472C72.574 24.472 71.534 25.656 71.534 27.16C71.534 28.648 72.574 29.864 74.03 29.864ZM81.7785 23.3361V27.576C81.7785 28.92 82.5625 29.816 83.7465 29.816C84.9465 29.816 85.7465 28.92 85.7465 27.576V23.3361H87.1705V27.688C87.1705 29.768 85.8105 31.144 83.7465 31.144C81.6985 31.144 80.3545 29.768 80.3545 27.688V23.3361H81.7785ZM92.1035 29.768L92.2635 31.0161C92.0235 31.0961 91.7195 31.16 91.4795 31.16C90.5195 31.16 89.6075 30.52 89.6075 28.92V19.9921H91.0155V28.9361C91.0155 29.6081 91.3835 29.848 91.7515 29.848C91.8635 29.848 91.9915 29.816 92.1035 29.768ZM93.2904 24.6V23.3361H94.5544V21.432H95.9784V23.3361H98.1544V24.6H95.9944V28.6481C95.9944 29.4641 96.3624 29.864 97.0504 29.864C97.4344 29.864 97.8184 29.7201 98.0424 29.4641L98.6984 30.536C98.3304 30.888 97.7064 31.192 96.8584 31.192C95.4184 31.192 94.5544 30.344 94.5544 28.696V24.6H93.2904ZM112.242 21.8321L111.282 22.952C110.594 22.376 109.73 21.976 108.578 21.976C106.53 21.976 104.882 23.72 104.882 25.88C104.882 28.024 106.53 29.768 108.706 29.768C109.698 29.768 110.641 29.432 111.298 28.824L112.242 29.88C111.298 30.808 110.13 31.192 108.61 31.192C105.634 31.192 103.346 28.808 103.346 25.88C103.346 22.936 105.682 20.552 108.562 20.552C110.194 20.552 111.346 21.0161 112.242 21.8321ZM113.888 31V19.9921H115.296V24.504C115.728 23.656 116.544 23.144 117.616 23.144C119.408 23.144 120.576 24.376 120.576 26.312V31H119.168V26.536C119.168 25.272 118.432 24.472 117.232 24.472C116.032 24.472 115.296 25.272 115.296 26.536V31H113.888ZM126.469 31.192C124.133 31.192 122.453 29.384 122.453 27.16C122.453 24.936 124.069 23.144 126.245 23.144C128.389 23.144 130.021 24.8561 130.021 27.0161C130.021 27.2081 130.005 27.496 129.973 27.608H123.909C124.085 28.936 125.093 29.928 126.517 29.928C127.381 29.928 128.149 29.592 128.661 29.08L129.413 30.056C128.789 30.728 127.701 31.192 126.469 31.192ZM126.261 24.3601C125.061 24.3601 124.197 25.2241 123.941 26.4401H128.533C128.277 25.1121 127.413 24.3601 126.261 24.3601ZM137.313 25.2241C136.785 24.7441 136.129 24.472 135.281 24.472C133.761 24.472 132.721 25.656 132.721 27.16C132.721 28.648 133.777 29.864 135.265 29.864C136.113 29.864 136.833 29.592 137.345 29.08L138.081 30.1201C137.473 30.7761 136.401 31.192 135.233 31.192C132.993 31.192 131.297 29.384 131.297 27.16C131.297 24.936 133.009 23.144 135.249 23.144C136.465 23.144 137.489 23.56 138.129 24.216L137.313 25.2241ZM141.062 31H139.654V19.9921H141.062V26.68L144.662 23.3361H146.454L142.598 26.92L146.726 31H144.87L141.062 27.208V31ZM152.094 23.144C154.174 23.144 155.806 24.8561 155.806 27.1761C155.806 29.4481 154.238 31.192 152.094 31.192C150.894 31.192 149.982 30.6161 149.406 29.6721V31H147.998V19.9921H149.406V24.712C149.982 23.768 150.894 23.144 152.094 23.144ZM151.918 24.472C150.462 24.472 149.406 25.6881 149.406 27.1761C149.406 28.6801 150.462 29.864 151.918 29.864C153.358 29.864 154.398 28.6801 154.398 27.1761C154.398 25.6881 153.358 24.472 151.918 24.472ZM161.154 31.192C158.962 31.192 157.25 29.384 157.25 27.16C157.25 24.936 158.962 23.144 161.154 23.144C163.362 23.144 165.074 24.936 165.074 27.16C165.074 29.384 163.362 31.192 161.154 31.192ZM161.17 29.864C162.61 29.864 163.65 28.648 163.65 27.16C163.65 25.656 162.61 24.472 161.17 24.472C159.714 24.472 158.674 25.656 158.674 27.16C158.674 28.648 159.714 29.864 161.17 29.864ZM165.567 31L168.527 27.0961L165.695 23.3361H167.455L169.455 26.008L171.503 23.3361H173.103L170.271 27.08L173.215 31H171.455L169.327 28.168L167.167 31H165.567Z" fill="black"/>
</svg>
