<svg width="100" height="44" viewBox="0 0 100 44" fill="none" xmlns="http://www.w3.org/2000/svg">
<path d="M16.5 10H8.5C4.08172 10 0.5 13.5817 0.5 18V26C0.5 30.4183 4.08172 34 8.5 34H16.5C20.9183 34 24.5 30.4183 24.5 26V18C24.5 13.5817 20.9183 10 16.5 10Z" fill="#2861BB"/>
<path d="M11.0133 27L19.5 18.4911L18.0133 17L11.0133 24.0178L7.98673 20.9822L6.5 22.4734L11.0133 27Z" fill="white"/>
<path d="M44.9715 17.9779L44.1315 18.9579C43.5295 18.4539 42.7735 18.1039 41.7655 18.1039C39.9735 18.1039 38.5315 19.6299 38.5315 21.5199C38.5315 23.3959 39.9735 24.9219 41.8775 24.9219C42.7455 24.9219 43.5715 24.6279 44.1455 24.0959L44.9715 25.0199C44.1455 25.8319 43.1235 26.1679 41.7935 26.1679C39.1895 26.1679 37.1875 24.0819 37.1875 21.5199C37.1875 18.9439 39.2315 16.8579 41.7515 16.8579C43.1795 16.8579 44.1875 17.2639 44.9715 17.9779ZM46.4125 25.9999V16.3679H47.6445V20.3159C48.0225 19.5739 48.7365 19.1259 49.6745 19.1259C51.2425 19.1259 52.2645 20.2039 52.2645 21.8979V25.9999H51.0325V22.0939C51.0325 20.9879 50.3885 20.2879 49.3385 20.2879C48.2885 20.2879 47.6445 20.9879 47.6445 22.0939V25.9999H46.4125ZM57.4209 26.1679C55.3769 26.1679 53.9069 24.5859 53.9069 22.6399C53.9069 20.6939 55.3209 19.1259 57.2249 19.1259C59.1009 19.1259 60.5289 20.6239 60.5289 22.5139C60.5289 22.6819 60.5149 22.9339 60.4869 23.0319H55.1809C55.3349 24.1939 56.2169 25.0619 57.4629 25.0619C58.2189 25.0619 58.8909 24.7679 59.3389 24.3199L59.9969 25.1739C59.4509 25.7619 58.4989 26.1679 57.4209 26.1679ZM57.2389 20.1899C56.1889 20.1899 55.4329 20.9459 55.2089 22.0099H59.2269C59.0029 20.8479 58.2469 20.1899 57.2389 20.1899ZM66.9092 20.9459C66.4472 20.5259 65.8732 20.2879 65.1312 20.2879C63.8012 20.2879 62.8912 21.3239 62.8912 22.6399C62.8912 23.9419 63.8152 25.0059 65.1172 25.0059C65.8592 25.0059 66.4892 24.7679 66.9372 24.3199L67.5812 25.2299C67.0492 25.8039 66.1112 26.1679 65.0892 26.1679C63.1292 26.1679 61.6452 24.5859 61.6452 22.6399C61.6452 20.6939 63.1432 19.1259 65.1032 19.1259C66.1672 19.1259 67.0632 19.4899 67.6232 20.0639L66.9092 20.9459ZM70.1894 25.9999H68.9574V16.3679H70.1894V22.2199L73.3394 19.2939H74.9074L71.5334 22.4299L75.1454 25.9999H73.5214L70.1894 22.6819V25.9999ZM79.8422 19.1259C81.6622 19.1259 83.0902 20.6239 83.0902 22.6539C83.0902 24.6419 81.7182 26.1679 79.8422 26.1679C78.7922 26.1679 77.9942 25.6639 77.4902 24.8379V25.9999H76.2582V16.3679H77.4902V20.4979C77.9942 19.6719 78.7922 19.1259 79.8422 19.1259ZM79.6882 20.2879C78.4142 20.2879 77.4902 21.3519 77.4902 22.6539C77.4902 23.9699 78.4142 25.0059 79.6882 25.0059C80.9482 25.0059 81.8582 23.9699 81.8582 22.6539C81.8582 21.3519 80.9482 20.2879 79.6882 20.2879ZM87.7702 26.1679C85.8522 26.1679 84.3542 24.5859 84.3542 22.6399C84.3542 20.6939 85.8522 19.1259 87.7702 19.1259C89.7022 19.1259 91.2002 20.6939 91.2002 22.6399C91.2002 24.5859 89.7022 26.1679 87.7702 26.1679ZM87.7842 25.0059C89.0442 25.0059 89.9542 23.9419 89.9542 22.6399C89.9542 21.3239 89.0442 20.2879 87.7842 20.2879C86.5102 20.2879 85.6002 21.3239 85.6002 22.6399C85.6002 23.9419 86.5102 25.0059 87.7842 25.0059ZM91.6314 25.9999L94.2214 22.5839L91.7434 19.2939H93.2834L95.0334 21.6319L96.8254 19.2939H98.2254L95.7474 22.5699L98.3234 25.9999H96.7834L94.9214 23.5219L93.0314 25.9999H91.6314Z" fill="black"/>
</svg>
