<svg width="258" height="44" viewBox="0 0 258 44" fill="none" xmlns="http://www.w3.org/2000/svg">
<path d="M16 11H8C4.13401 11 1 14.134 1 18V26C1 29.866 4.13401 33 8 33H16C19.866 33 23 29.866 23 26V18C23 14.134 19.866 11 16 11Z" fill="white"/>
<path d="M16 11H8C4.13401 11 1 14.134 1 18V26C1 29.866 4.13401 33 8 33H16C19.866 33 23 29.866 23 26V18C23 14.134 19.866 11 16 11Z" stroke="#5D5D5D" stroke-width="2"/>
<path d="M37.1914 26.0002V17.0262H38.4514V26.0002H37.1914ZM46.688 26.1682C44.868 26.1682 43.44 24.6702 43.44 22.6402C43.44 20.6522 44.812 19.1262 46.688 19.1262C47.738 19.1262 48.536 19.6302 49.04 20.4562V19.2942H50.286V26.0002H49.04V24.7962C48.536 25.6222 47.738 26.1682 46.688 26.1682ZM46.87 25.0062C48.13 25.0062 49.04 23.9422 49.04 22.6402C49.04 21.3242 48.13 20.2882 46.87 20.2882C45.596 20.2882 44.686 21.3242 44.686 22.6402C44.686 23.9422 45.596 25.0062 46.87 25.0062ZM53.1879 27.0782C53.6359 27.4142 54.3779 27.7782 55.3439 27.7782C56.7439 27.7782 57.5559 27.0222 57.5559 25.5942V24.6562C57.0659 25.4542 56.2539 25.9862 55.2179 25.9862C53.4259 25.9862 52.0259 24.5302 52.0259 22.5562C52.0259 20.6102 53.4259 19.1542 55.2179 19.1542C56.2539 19.1542 57.0659 19.6442 57.5559 20.4142V19.2942H58.8019V25.5242C58.8019 28.0022 57.2339 28.9122 55.3999 28.9122C54.1819 28.9122 53.2019 28.6042 52.5439 28.0582L53.1879 27.0782ZM55.4279 24.8242C56.6739 24.8242 57.5559 23.8022 57.5559 22.5422C57.5559 21.2962 56.6739 20.2882 55.4279 20.2882C54.1819 20.2882 53.2719 21.2962 53.2719 22.5422C53.2719 23.8022 54.1819 24.8242 55.4279 24.8242ZM61.0472 26.0002V19.2942H62.2792V20.2462C62.6152 19.5462 63.1892 19.1262 63.9732 19.1262C64.3932 19.1262 64.7572 19.2242 64.9952 19.4202L64.4772 20.5822C64.2532 20.4282 63.9312 20.3162 63.6092 20.3162C62.7972 20.3162 62.2792 21.0162 62.2792 22.1362V26.0002H61.0472ZM68.7743 26.1682C66.7303 26.1682 65.2603 24.5862 65.2603 22.6402C65.2603 20.6942 66.6743 19.1262 68.5783 19.1262C70.4543 19.1262 71.8823 20.6242 71.8823 22.5142C71.8823 22.6822 71.8683 22.9342 71.8403 23.0322H66.5343C66.6883 24.1942 67.5703 25.0622 68.8163 25.0622C69.5723 25.0622 70.2443 24.7682 70.6923 24.3202L71.3503 25.1742C70.8043 25.7622 69.8523 26.1682 68.7743 26.1682ZM68.5923 20.1902C67.5423 20.1902 66.7863 20.9462 66.5623 22.0102H70.5803C70.3563 20.8482 69.6003 20.1902 68.5923 20.1902ZM76.5126 26.1682C74.4686 26.1682 72.9986 24.5862 72.9986 22.6402C72.9986 20.6942 74.4126 19.1262 76.3166 19.1262C78.1926 19.1262 79.6206 20.6242 79.6206 22.5142C79.6206 22.6822 79.6066 22.9342 79.5786 23.0322H74.2726C74.4266 24.1942 75.3086 25.0622 76.5546 25.0622C77.3106 25.0622 77.9826 24.7682 78.4306 24.3202L79.0886 25.1742C78.5426 25.7622 77.5906 26.1682 76.5126 26.1682ZM76.3306 20.1902C75.2806 20.1902 74.5246 20.9462 74.3006 22.0102H78.3186C78.0946 20.8482 77.3386 20.1902 76.3306 20.1902ZM83.6427 20.4002V19.2942H84.7487V17.6282H85.9947V19.2942H87.8987V20.4002H86.0087V23.9422C86.0087 24.6562 86.3307 25.0062 86.9327 25.0062C87.2687 25.0062 87.6047 24.8802 87.8007 24.6562L88.3747 25.5942C88.0527 25.9022 87.5067 26.1682 86.7647 26.1682C85.5047 26.1682 84.7487 25.4262 84.7487 23.9842V20.4002H83.6427ZM92.2603 26.1682C90.3423 26.1682 88.8443 24.5862 88.8443 22.6402C88.8443 20.6942 90.3423 19.1262 92.2603 19.1262C94.1923 19.1262 95.6903 20.6942 95.6903 22.6402C95.6903 24.5862 94.1923 26.1682 92.2603 26.1682ZM92.2743 25.0062C93.5343 25.0062 94.4443 23.9422 94.4443 22.6402C94.4443 21.3242 93.5343 20.2882 92.2743 20.2882C91.0003 20.2882 90.0903 21.3242 90.0903 22.6402C90.0903 23.9422 91.0003 25.0062 92.2743 25.0062ZM99.8576 20.4002V19.2942H100.963V17.6282H102.209V19.2942H104.113V20.4002H102.223V23.9422C102.223 24.6562 102.545 25.0062 103.147 25.0062C103.483 25.0062 103.819 24.8802 104.015 24.6562L104.589 25.5942C104.267 25.9022 103.721 26.1682 102.979 26.1682C101.719 26.1682 100.963 25.4262 100.963 23.9842V20.4002H99.8576ZM105.918 26.0002V16.3682H107.15V20.3162C107.528 19.5742 108.242 19.1262 109.18 19.1262C110.748 19.1262 111.77 20.2042 111.77 21.8982V26.0002H110.538V22.0942C110.538 20.9882 109.894 20.2882 108.844 20.2882C107.794 20.2882 107.15 20.9882 107.15 22.0942V26.0002H105.918ZM116.926 26.1682C114.882 26.1682 113.412 24.5862 113.412 22.6402C113.412 20.6942 114.826 19.1262 116.73 19.1262C118.606 19.1262 120.034 20.6242 120.034 22.5142C120.034 22.6822 120.02 22.9342 119.992 23.0322H114.686C114.84 24.1942 115.722 25.0622 116.968 25.0622C117.724 25.0622 118.396 24.7682 118.844 24.3202L119.502 25.1742C118.956 25.7622 118.004 26.1682 116.926 26.1682ZM116.744 20.1902C115.694 20.1902 114.938 20.9462 114.714 22.0102H118.732C118.508 20.8482 117.752 20.1902 116.744 20.1902ZM124.056 20.4002V19.2942H125.162V17.6282H126.408V19.2942H128.312V20.4002H126.422V23.9422C126.422 24.6562 126.744 25.0062 127.346 25.0062C127.682 25.0062 128.018 24.8802 128.214 24.6562L128.788 25.5942C128.466 25.9022 127.92 26.1682 127.178 26.1682C125.918 26.1682 125.162 25.4262 125.162 23.9842V20.4002H124.056ZM132.772 26.1682C130.728 26.1682 129.258 24.5862 129.258 22.6402C129.258 20.6942 130.672 19.1262 132.576 19.1262C134.452 19.1262 135.88 20.6242 135.88 22.5142C135.88 22.6822 135.866 22.9342 135.838 23.0322H130.532C130.686 24.1942 131.568 25.0622 132.814 25.0622C133.57 25.0622 134.242 24.7682 134.69 24.3202L135.348 25.1742C134.802 25.7622 133.85 26.1682 132.772 26.1682ZM132.59 20.1902C131.54 20.1902 130.784 20.9462 130.56 22.0102H134.578C134.354 20.8482 133.598 20.1902 132.59 20.1902ZM137.486 26.0002V19.2942H138.718V20.2462C139.054 19.5462 139.628 19.1262 140.412 19.1262C140.832 19.1262 141.196 19.2242 141.434 19.4202L140.916 20.5822C140.692 20.4282 140.37 20.3162 140.048 20.3162C139.236 20.3162 138.718 21.0162 138.718 22.1362V26.0002H137.486ZM143.982 26.0002H142.75V19.2942H143.982V20.3582C144.346 19.6022 145.046 19.1262 145.956 19.1262C147.034 19.1262 147.846 19.6722 148.224 20.6102C148.546 19.7422 149.274 19.1262 150.352 19.1262C151.906 19.1262 152.914 20.1762 152.914 21.8982V26.0002H151.668V22.0942C151.668 20.9882 151.066 20.2882 150.058 20.2882C149.064 20.2882 148.448 20.9882 148.448 22.0942V26.0002H147.202V22.0942C147.202 20.9882 146.6 20.2882 145.606 20.2882C144.598 20.2882 143.982 20.9882 143.982 22.0942V26.0002ZM156.917 26.1682C155.923 26.1682 155.027 25.9022 154.341 25.4962L154.817 24.4742C155.573 24.8662 156.231 25.0902 157.001 25.0902C157.939 25.0902 158.387 24.7262 158.387 24.1942C158.387 22.6682 154.579 23.5922 154.579 21.0022C154.579 20.0082 155.475 19.1262 157.099 19.1262C158.009 19.1262 158.723 19.3502 159.451 19.7002L158.961 20.7222C158.485 20.4562 157.799 20.2182 157.155 20.2182C156.329 20.2182 155.839 20.4982 155.839 20.9882C155.839 22.5282 159.619 21.6182 159.619 24.1662C159.619 25.3142 158.625 26.1682 156.917 26.1682ZM167.192 26.1682C165.371 26.1682 163.944 24.6702 163.944 22.6402C163.944 20.6522 165.316 19.1262 167.192 19.1262C168.242 19.1262 169.04 19.6302 169.544 20.4562V19.2942H170.79V26.0002H169.544V24.7962C169.04 25.6222 168.242 26.1682 167.192 26.1682ZM167.374 25.0062C168.634 25.0062 169.544 23.9422 169.544 22.6402C169.544 21.3242 168.634 20.2882 167.374 20.2882C166.1 20.2882 165.19 21.3242 165.19 22.6402C165.19 23.9422 166.1 25.0062 167.374 25.0062ZM173.019 26.0002V19.2942H174.251V20.3162C174.629 19.5742 175.343 19.1262 176.281 19.1262C177.849 19.1262 178.871 20.2042 178.871 21.8982V26.0002H177.639V22.0942C177.639 20.9882 176.995 20.2882 175.945 20.2882C174.895 20.2882 174.251 20.9882 174.251 22.0942V26.0002H173.019ZM183.762 26.1682C181.942 26.1682 180.514 24.6702 180.514 22.6402C180.514 20.6522 181.886 19.1262 183.762 19.1262C184.812 19.1262 185.61 19.6302 186.114 20.4562V16.3682H187.36V26.0002H186.114V24.7962C185.61 25.6222 184.812 26.1682 183.762 26.1682ZM183.944 25.0062C185.204 25.0062 186.114 23.9422 186.114 22.6402C186.114 21.3242 185.204 20.2882 183.944 20.2882C182.67 20.2882 181.76 21.3242 181.76 22.6402C181.76 23.9422 182.67 25.0062 183.944 25.0062ZM197.536 20.9462C197.074 20.5262 196.5 20.2882 195.758 20.2882C194.428 20.2882 193.518 21.3242 193.518 22.6402C193.518 23.9422 194.442 25.0062 195.744 25.0062C196.486 25.0062 197.116 24.7682 197.564 24.3202L198.208 25.2302C197.676 25.8042 196.738 26.1682 195.716 26.1682C193.756 26.1682 192.272 24.5862 192.272 22.6402C192.272 20.6942 193.77 19.1262 195.73 19.1262C196.794 19.1262 197.69 19.4902 198.25 20.0642L197.536 20.9462ZM202.318 26.1682C200.4 26.1682 198.902 24.5862 198.902 22.6402C198.902 20.6942 200.4 19.1262 202.318 19.1262C204.25 19.1262 205.748 20.6942 205.748 22.6402C205.748 24.5862 204.25 26.1682 202.318 26.1682ZM202.332 25.0062C203.592 25.0062 204.502 23.9422 204.502 22.6402C204.502 21.3242 203.592 20.2882 202.332 20.2882C201.058 20.2882 200.148 21.3242 200.148 22.6402C200.148 23.9422 201.058 25.0062 202.332 25.0062ZM207.5 26.0002V19.2942H208.732V20.3162C209.11 19.5742 209.824 19.1262 210.762 19.1262C212.33 19.1262 213.352 20.2042 213.352 21.8982V26.0002H212.12V22.0942C212.12 20.9882 211.476 20.2882 210.426 20.2882C209.376 20.2882 208.732 20.9882 208.732 22.0942V26.0002H207.5ZM218.242 26.1682C216.422 26.1682 214.994 24.6702 214.994 22.6402C214.994 20.6522 216.366 19.1262 218.242 19.1262C219.292 19.1262 220.09 19.6302 220.594 20.4562V16.3682H221.84V26.0002H220.594V24.7962C220.09 25.6222 219.292 26.1682 218.242 26.1682ZM218.424 25.0062C219.684 25.0062 220.594 23.9422 220.594 22.6402C220.594 21.3242 219.684 20.2882 218.424 20.2882C217.15 20.2882 216.24 21.3242 216.24 22.6402C216.24 23.9422 217.15 25.0062 218.424 25.0062ZM224.686 18.1322C224.252 18.1322 223.916 17.7822 223.916 17.3622C223.916 16.9422 224.252 16.5922 224.686 16.5922C225.106 16.5922 225.456 16.9422 225.456 17.3622C225.456 17.7822 225.106 18.1322 224.686 18.1322ZM225.302 26.0002H224.07V19.2942H225.302V26.0002ZM226.787 20.4002V19.2942H227.893V17.6282H229.139V19.2942H231.043V20.4002H229.153V23.9422C229.153 24.6562 229.475 25.0062 230.077 25.0062C230.413 25.0062 230.749 24.8802 230.945 24.6562L231.519 25.5942C231.197 25.9022 230.651 26.1682 229.909 26.1682C228.649 26.1682 227.893 25.4262 227.893 23.9842V20.4002H226.787ZM233.464 18.1322C233.03 18.1322 232.694 17.7822 232.694 17.3622C232.694 16.9422 233.03 16.5922 233.464 16.5922C233.884 16.5922 234.234 16.9422 234.234 17.3622C234.234 17.7822 233.884 18.1322 233.464 18.1322ZM234.08 26.0002H232.848V19.2942H234.08V26.0002ZM239.246 26.1682C237.328 26.1682 235.83 24.5862 235.83 22.6402C235.83 20.6942 237.328 19.1262 239.246 19.1262C241.178 19.1262 242.676 20.6942 242.676 22.6402C242.676 24.5862 241.178 26.1682 239.246 26.1682ZM239.26 25.0062C240.52 25.0062 241.43 23.9422 241.43 22.6402C241.43 21.3242 240.52 20.2882 239.26 20.2882C237.986 20.2882 237.076 21.3242 237.076 22.6402C237.076 23.9422 237.986 25.0062 239.26 25.0062ZM244.428 26.0002V19.2942H245.66V20.3162C246.038 19.5742 246.752 19.1262 247.69 19.1262C249.258 19.1262 250.28 20.2042 250.28 21.8982V26.0002H249.048V22.0942C249.048 20.9882 248.404 20.2882 247.354 20.2882C246.304 20.2882 245.66 20.9882 245.66 22.0942V26.0002H244.428ZM254.302 26.1682C253.308 26.1682 252.412 25.9022 251.726 25.4962L252.202 24.4742C252.958 24.8662 253.616 25.0902 254.386 25.0902C255.324 25.0902 255.772 24.7262 255.772 24.1942C255.772 22.6682 251.964 23.5922 251.964 21.0022C251.964 20.0082 252.86 19.1262 254.484 19.1262C255.394 19.1262 256.108 19.3502 256.836 19.7002L256.346 20.7222C255.87 20.4562 255.184 20.2182 254.54 20.2182C253.714 20.2182 253.224 20.4982 253.224 20.9882C253.224 22.5282 257.004 21.6182 257.004 24.1662C257.004 25.3142 256.01 26.1682 254.302 26.1682Z" fill="black"/>
</svg>
