<svg width="264" height="44" viewBox="0 0 264 44" fill="none" xmlns="http://www.w3.org/2000/svg">
<g clip-path="url(#clip0_6343_38280)">
<path d="M16.5 11H8.5C4.63401 11 1.5 14.134 1.5 18V26C1.5 29.866 4.63401 33 8.5 33H16.5C20.366 33 23.5 29.866 23.5 26V18C23.5 14.134 20.366 11 16.5 11Z" fill="white"/>
<path d="M16.5 11H8.5C4.63401 11 1.5 14.134 1.5 18V26C1.5 29.866 4.63401 33 8.5 33H16.5C20.366 33 23.5 29.866 23.5 26V18C23.5 14.134 20.366 11 16.5 11Z" stroke="#5D5D5D" stroke-width="2"/>
<path d="M44.9715 17.9782L44.1315 18.9582C43.5295 18.4542 42.7735 18.1042 41.7655 18.1042C39.9735 18.1042 38.5315 19.6302 38.5315 21.5202C38.5315 23.3962 39.9735 24.9222 41.8775 24.9222C42.7455 24.9222 43.5715 24.6282 44.1455 24.0962L44.9715 25.0202C44.1455 25.8322 43.1235 26.1682 41.7935 26.1682C39.1895 26.1682 37.1875 24.0822 37.1875 21.5202C37.1875 18.9442 39.2315 16.8582 41.7515 16.8582C43.1795 16.8582 44.1875 17.2642 44.9715 17.9782ZM46.4125 26.0002V16.3682H47.6445V20.3162C48.0225 19.5742 48.7365 19.1262 49.6745 19.1262C51.2425 19.1262 52.2645 20.2042 52.2645 21.8982V26.0002H51.0325V22.0942C51.0325 20.9882 50.3885 20.2882 49.3385 20.2882C48.2885 20.2882 47.6445 20.9882 47.6445 22.0942V26.0002H46.4125ZM57.4209 26.1682C55.3769 26.1682 53.9069 24.5862 53.9069 22.6402C53.9069 20.6942 55.3209 19.1262 57.2249 19.1262C59.1009 19.1262 60.5289 20.6242 60.5289 22.5142C60.5289 22.6822 60.5149 22.9342 60.4869 23.0322H55.1809C55.3349 24.1942 56.2169 25.0622 57.4629 25.0622C58.2189 25.0622 58.8909 24.7682 59.3389 24.3202L59.9969 25.1742C59.4509 25.7622 58.4989 26.1682 57.4209 26.1682ZM57.2389 20.1902C56.1889 20.1902 55.4329 20.9462 55.2089 22.0102H59.2269C59.0029 20.8482 58.2469 20.1902 57.2389 20.1902ZM66.9092 20.9462C66.4472 20.5262 65.8732 20.2882 65.1312 20.2882C63.8012 20.2882 62.8912 21.3242 62.8912 22.6402C62.8912 23.9422 63.8152 25.0062 65.1172 25.0062C65.8592 25.0062 66.4892 24.7682 66.9372 24.3202L67.5812 25.2302C67.0492 25.8042 66.1112 26.1682 65.0892 26.1682C63.1292 26.1682 61.6452 24.5862 61.6452 22.6402C61.6452 20.6942 63.1432 19.1262 65.1032 19.1262C66.1672 19.1262 67.0632 19.4902 67.6232 20.0642L66.9092 20.9462ZM70.1894 26.0002H68.9574V16.3682H70.1894V22.2202L73.3394 19.2942H74.9074L71.5334 22.4302L75.1454 26.0002H73.5214L70.1894 22.6822V26.0002ZM79.8422 19.1262C81.6622 19.1262 83.0902 20.6242 83.0902 22.6542C83.0902 24.6422 81.7182 26.1682 79.8422 26.1682C78.7922 26.1682 77.9942 25.6642 77.4902 24.8382V26.0002H76.2582V16.3682H77.4902V20.4982C77.9942 19.6722 78.7922 19.1262 79.8422 19.1262ZM79.6882 20.2882C78.4142 20.2882 77.4902 21.3522 77.4902 22.6542C77.4902 23.9702 78.4142 25.0062 79.6882 25.0062C80.9482 25.0062 81.8582 23.9702 81.8582 22.6542C81.8582 21.3522 80.9482 20.2882 79.6882 20.2882ZM87.7702 26.1682C85.8522 26.1682 84.3542 24.5862 84.3542 22.6402C84.3542 20.6942 85.8522 19.1262 87.7702 19.1262C89.7022 19.1262 91.2002 20.6942 91.2002 22.6402C91.2002 24.5862 89.7022 26.1682 87.7702 26.1682ZM87.7842 25.0062C89.0442 25.0062 89.9542 23.9422 89.9542 22.6402C89.9542 21.3242 89.0442 20.2882 87.7842 20.2882C86.5102 20.2882 85.6002 21.3242 85.6002 22.6402C85.6002 23.9422 86.5102 25.0062 87.7842 25.0062ZM91.6314 26.0002L94.2214 22.5842L91.7434 19.2942H93.2834L95.0334 21.6322L96.8254 19.2942H98.2254L95.7474 22.5702L98.3234 26.0002H96.7834L94.9214 23.5222L93.0314 26.0002H91.6314Z" fill="black"/>
<path d="M132.5 0H131.5V44H132.5V0Z" fill="#EBEBEB"/>
<path d="M172.971 17.9782L172.132 18.9582C171.53 18.4542 170.774 18.1042 169.766 18.1042C167.974 18.1042 166.531 19.6302 166.531 21.5202C166.531 23.3962 167.974 24.9222 169.878 24.9222C170.746 24.9222 171.571 24.6282 172.145 24.0962L172.971 25.0202C172.145 25.8322 171.124 26.1682 169.794 26.1682C167.19 26.1682 165.188 24.0822 165.188 21.5202C165.188 18.9442 167.231 16.8582 169.751 16.8582C171.179 16.8582 172.187 17.2642 172.971 17.9782ZM174.412 26.0002V16.3682H175.645V20.3162C176.023 19.5742 176.736 19.1262 177.674 19.1262C179.242 19.1262 180.264 20.2042 180.264 21.8982V26.0002H179.033V22.0942C179.033 20.9882 178.389 20.2882 177.339 20.2882C176.289 20.2882 175.645 20.9882 175.645 22.0942V26.0002H174.412ZM185.421 26.1682C183.377 26.1682 181.906 24.5862 181.906 22.6402C181.906 20.6942 183.321 19.1262 185.225 19.1262C187.101 19.1262 188.528 20.6242 188.528 22.5142C188.528 22.6822 188.514 22.9342 188.486 23.0322H183.18C183.334 24.1942 184.216 25.0622 185.462 25.0622C186.218 25.0622 186.891 24.7682 187.339 24.3202L187.996 25.1742C187.45 25.7622 186.499 26.1682 185.421 26.1682ZM185.238 20.1902C184.188 20.1902 183.432 20.9462 183.208 22.0102H187.227C187.003 20.8482 186.246 20.1902 185.238 20.1902ZM194.91 20.9462C194.448 20.5262 193.874 20.2882 193.132 20.2882C191.802 20.2882 190.891 21.3242 190.891 22.6402C190.891 23.9422 191.815 25.0062 193.117 25.0062C193.859 25.0062 194.489 24.7682 194.938 24.3202L195.581 25.2302C195.049 25.8042 194.111 26.1682 193.089 26.1682C191.129 26.1682 189.645 24.5862 189.645 22.6402C189.645 20.6942 191.144 19.1262 193.104 19.1262C194.168 19.1262 195.063 19.4902 195.623 20.0642L194.91 20.9462ZM198.189 26.0002H196.957V16.3682H198.189V22.2202L201.339 19.2942H202.908L199.533 22.4302L203.145 26.0002H201.521L198.189 22.6822V26.0002ZM207.842 19.1262C209.662 19.1262 211.09 20.6242 211.09 22.6542C211.09 24.6422 209.718 26.1682 207.842 26.1682C206.792 26.1682 205.994 25.6642 205.49 24.8382V26.0002H204.258V16.3682H205.49V20.4982C205.994 19.6722 206.792 19.1262 207.842 19.1262ZM207.688 20.2882C206.414 20.2882 205.49 21.3522 205.49 22.6542C205.49 23.9702 206.414 25.0062 207.688 25.0062C208.948 25.0062 209.858 23.9702 209.858 22.6542C209.858 21.3522 208.948 20.2882 207.688 20.2882ZM215.77 26.1682C213.852 26.1682 212.354 24.5862 212.354 22.6402C212.354 20.6942 213.852 19.1262 215.77 19.1262C217.702 19.1262 219.201 20.6942 219.201 22.6402C219.201 24.5862 217.702 26.1682 215.77 26.1682ZM215.785 25.0062C217.045 25.0062 217.954 23.9422 217.954 22.6402C217.954 21.3242 217.045 20.2882 215.785 20.2882C214.511 20.2882 213.6 21.3242 213.6 22.6402C213.6 23.9422 214.511 25.0062 215.785 25.0062ZM219.632 26.0002L222.221 22.5842L219.743 19.2942H221.283L223.033 21.6322L224.826 19.2942H226.225L223.747 22.5702L226.324 26.0002H224.783L222.921 23.5222L221.031 26.0002H219.632Z" fill="black"/>
<path d="M255.5 11H247.5C243.634 11 240.5 14.134 240.5 18V26C240.5 29.866 243.634 33 247.5 33H255.5C259.366 33 262.5 29.866 262.5 26V18C262.5 14.134 259.366 11 255.5 11Z" fill="white"/>
<path d="M255.5 11H247.5C243.634 11 240.5 14.134 240.5 18V26C240.5 29.866 243.634 33 247.5 33H255.5C259.366 33 262.5 29.866 262.5 26V18C262.5 14.134 259.366 11 255.5 11Z" stroke="#5D5D5D" stroke-width="2"/>
</g>
<defs>
<clipPath id="clip0_6343_38280">
<rect width="264" height="44" fill="white"/>
</clipPath>
</defs>
</svg>
