<svg width="122" height="44" viewBox="0 0 122 44" fill="none" xmlns="http://www.w3.org/2000/svg">
<path d="M11.1667 14H5.83333C2.88781 14 0.5 16.3878 0.5 19.3333V24.6667C0.5 27.6122 2.88781 30 5.83333 30H11.1667C14.1122 30 16.5 27.6122 16.5 24.6667V19.3333C16.5 16.3878 14.1122 14 11.1667 14Z" fill="#1355E9"/>
<path d="M7.50885 25.3332L13.1667 19.6606L12.1755 18.6665L7.50885 23.345L5.49115 21.3213L4.5 22.3154L7.50885 25.3332Z" fill="white"/>
<path d="M25.5195 26.0001V18.3201H27.8715C30.4275 18.3201 32.2035 19.8921 32.2035 22.1601C32.2035 24.4281 30.4755 26.0001 27.9795 26.0001H25.5195ZM27.8955 19.3401H26.6235V24.9801H27.8955C29.8035 24.9801 31.0515 23.8641 31.0515 22.1601C31.0515 20.4561 29.8035 19.3401 27.8955 19.3401ZM36.3484 26.1441C34.5964 26.1441 33.3364 24.7881 33.3364 23.1201C33.3364 21.4521 34.5484 20.1081 36.1804 20.1081C37.7884 20.1081 39.0124 21.3921 39.0124 23.0121C39.0124 23.1561 39.0004 23.3721 38.9764 23.4561H34.4284C34.5604 24.4521 35.3164 25.1961 36.3844 25.1961C37.0324 25.1961 37.6084 24.9441 37.9924 24.5601L38.5564 25.2921C38.0884 25.7961 37.2724 26.1441 36.3484 26.1441ZM36.1924 21.0201C35.2924 21.0201 34.6444 21.6681 34.4524 22.5801H37.8964C37.7044 21.5841 37.0564 21.0201 36.1924 21.0201ZM39.7892 21.2001V20.2521H40.6892V19.5921C40.6892 18.3201 41.4212 17.6001 42.5252 17.6001C43.1972 17.6001 43.6532 17.8041 43.9772 18.1521L43.4252 18.9321C43.2452 18.7401 42.9332 18.5961 42.6092 18.5961C42.0692 18.5961 41.7572 18.9561 41.7572 19.6041V20.2521H43.2812V21.2001H41.7572V26.0001H40.6892V21.2001H39.7892ZM46.4915 26.1441C44.9315 26.1441 43.7075 24.8601 43.7075 23.1201C43.7075 21.4161 44.8835 20.1081 46.4915 20.1081C47.3915 20.1081 48.0755 20.5401 48.5075 21.2481V20.2521H49.5755V26.0001H48.5075V24.9681C48.0755 25.6761 47.3915 26.1441 46.4915 26.1441ZM46.6475 25.1481C47.7275 25.1481 48.5075 24.2361 48.5075 23.1201C48.5075 21.9921 47.7275 21.1041 46.6475 21.1041C45.5555 21.1041 44.7755 21.9921 44.7755 23.1201C44.7755 24.2361 45.5555 25.1481 46.6475 25.1481ZM52.4588 20.2521V23.4321C52.4588 24.4401 53.0468 25.1121 53.9348 25.1121C54.8348 25.1121 55.4348 24.4401 55.4348 23.4321V20.2521H56.5028V23.5161C56.5028 25.0761 55.4828 26.1081 53.9348 26.1081C52.3988 26.1081 51.3908 25.0761 51.3908 23.5161V20.2521H52.4588ZM60.2026 25.0761L60.3226 26.0121C60.1426 26.0721 59.9146 26.1201 59.7346 26.1201C59.0146 26.1201 58.3306 25.6401 58.3306 24.4401V17.7441H59.3866V24.4521C59.3866 24.9561 59.6626 25.1361 59.9386 25.1361C60.0226 25.1361 60.1186 25.1121 60.2026 25.0761ZM61.0928 21.2001V20.2521H62.0408V18.8241H63.1088V20.2521H64.7408V21.2001H63.1208V24.2361C63.1208 24.8481 63.3968 25.1481 63.9128 25.1481C64.2008 25.1481 64.4888 25.0401 64.6568 24.8481L65.1488 25.6521C64.8728 25.9161 64.4048 26.1441 63.7688 26.1441C62.6888 26.1441 62.0408 25.5081 62.0408 24.2721V21.2001H61.0928ZM75.3064 19.1241L74.5864 19.9641C74.0704 19.5321 73.4224 19.2321 72.5584 19.2321C71.0224 19.2321 69.7864 20.5401 69.7864 22.1601C69.7864 23.7681 71.0224 25.0761 72.6544 25.0761C73.3984 25.0761 74.1064 24.8241 74.5984 24.3681L75.3064 25.1601C74.5984 25.8561 73.7224 26.1441 72.5824 26.1441C70.3504 26.1441 68.6344 24.3561 68.6344 22.1601C68.6344 19.9521 70.3864 18.1641 72.5464 18.1641C73.7704 18.1641 74.6344 18.5121 75.3064 19.1241ZM76.5415 26.0001V17.7441H77.5975V21.1281C77.9215 20.4921 78.5335 20.1081 79.3375 20.1081C80.6815 20.1081 81.5575 21.0321 81.5575 22.4841V26.0001H80.5015V22.6521C80.5015 21.7041 79.9495 21.1041 79.0495 21.1041C78.1495 21.1041 77.5975 21.7041 77.5975 22.6521V26.0001H76.5415ZM85.9773 26.1441C84.2253 26.1441 82.9653 24.7881 82.9653 23.1201C82.9653 21.4521 84.1773 20.1081 85.8093 20.1081C87.4173 20.1081 88.6413 21.3921 88.6413 23.0121C88.6413 23.1561 88.6293 23.3721 88.6053 23.4561H84.0573C84.1893 24.4521 84.9453 25.1961 86.0133 25.1961C86.6613 25.1961 87.2373 24.9441 87.6213 24.5601L88.1853 25.2921C87.7173 25.7961 86.9013 26.1441 85.9773 26.1441ZM85.8213 21.0201C84.9213 21.0201 84.2733 21.6681 84.0813 22.5801H87.5253C87.3333 21.5841 86.6853 21.0201 85.8213 21.0201ZM94.1101 21.6681C93.7141 21.3081 93.2221 21.1041 92.5861 21.1041C91.4461 21.1041 90.6661 21.9921 90.6661 23.1201C90.6661 24.2361 91.4581 25.1481 92.5741 25.1481C93.2101 25.1481 93.7501 24.9441 94.1341 24.5601L94.6861 25.3401C94.2301 25.8321 93.4261 26.1441 92.5501 26.1441C90.8701 26.1441 89.5981 24.7881 89.5981 23.1201C89.5981 21.4521 90.8821 20.1081 92.5621 20.1081C93.4741 20.1081 94.2421 20.4201 94.7221 20.9121L94.1101 21.6681ZM96.9218 26.0001H95.8658V17.7441H96.9218V22.7601L99.6218 20.2521H100.966L98.0737 22.9401L101.17 26.0001H99.7778L96.9218 23.1561V26.0001ZM105.196 20.1081C106.756 20.1081 107.98 21.3921 107.98 23.1321C107.98 24.8361 106.804 26.1441 105.196 26.1441C104.296 26.1441 103.612 25.7121 103.18 25.0041V26.0001H102.124V17.7441H103.18V21.2841C103.612 20.5761 104.296 20.1081 105.196 20.1081ZM105.064 21.1041C103.972 21.1041 103.18 22.0161 103.18 23.1321C103.18 24.2601 103.972 25.1481 105.064 25.1481C106.144 25.1481 106.924 24.2601 106.924 23.1321C106.924 22.0161 106.144 21.1041 105.064 21.1041ZM111.991 26.1441C110.347 26.1441 109.063 24.7881 109.063 23.1201C109.063 21.4521 110.347 20.1081 111.991 20.1081C113.647 20.1081 114.931 21.4521 114.931 23.1201C114.931 24.7881 113.647 26.1441 111.991 26.1441ZM112.003 25.1481C113.083 25.1481 113.863 24.2361 113.863 23.1201C113.863 21.9921 113.083 21.1041 112.003 21.1041C110.911 21.1041 110.131 21.9921 110.131 23.1201C110.131 24.2361 110.911 25.1481 112.003 25.1481ZM115.301 26.0001L117.521 23.0721L115.397 20.2521H116.717L118.217 22.2561L119.753 20.2521H120.953L118.829 23.0601L121.037 26.0001H119.717L118.121 23.8761L116.501 26.0001H115.301Z" fill="black"/>
</svg>
