<svg width="186" height="44" viewBox="0 0 186 44" fill="none" xmlns="http://www.w3.org/2000/svg">
<path d="M16 10H8C3.58172 10 0 13.5817 0 18V26C0 30.4183 3.58172 34 8 34H16C20.4183 34 24 30.4183 24 26V18C24 13.5817 20.4183 10 16 10Z" fill="#1355E9"/>
<path d="M10.5133 27L19 18.4911L17.5133 17L10.5133 24.0178L7.48673 20.9822L6 22.4734L10.5133 27Z" fill="white"/>
<path d="M37.1914 26.0002V17.0402H39.9354C42.9174 17.0402 44.9894 18.8742 44.9894 21.5202C44.9894 24.1662 42.9734 26.0002 40.0614 26.0002H37.1914ZM39.9634 18.2302H38.4794V24.8102H39.9634C42.1894 24.8102 43.6454 23.5082 43.6454 21.5202C43.6454 19.5322 42.1894 18.2302 39.9634 18.2302ZM49.8251 26.1682C47.7811 26.1682 46.3111 24.5862 46.3111 22.6402C46.3111 20.6942 47.7251 19.1262 49.6291 19.1262C51.5051 19.1262 52.9331 20.6242 52.9331 22.5142C52.9331 22.6822 52.9191 22.9342 52.8911 23.0322H47.5851C47.7391 24.1942 48.6211 25.0622 49.8671 25.0622C50.6231 25.0622 51.2951 24.7682 51.7431 24.3202L52.4011 25.1742C51.8551 25.7622 50.9031 26.1682 49.8251 26.1682ZM49.6431 20.1902C48.5931 20.1902 47.8371 20.9462 47.6131 22.0102H51.6311C51.4071 20.8482 50.6511 20.1902 49.6431 20.1902ZM53.8394 20.4002V19.2942H54.8894V18.5242C54.8894 17.0402 55.7434 16.2002 57.0314 16.2002C57.8154 16.2002 58.3474 16.4382 58.7254 16.8442L58.0814 17.7542C57.8714 17.5302 57.5074 17.3622 57.1294 17.3622C56.4994 17.3622 56.1354 17.7822 56.1354 18.5382V19.2942H57.9134V20.4002H56.1354V26.0002H54.8894V20.4002H53.8394ZM61.6587 26.1682C59.8387 26.1682 58.4107 24.6702 58.4107 22.6402C58.4107 20.6522 59.7827 19.1262 61.6587 19.1262C62.7087 19.1262 63.5067 19.6302 64.0107 20.4562V19.2942H65.2567V26.0002H64.0107V24.7962C63.5067 25.6222 62.7087 26.1682 61.6587 26.1682ZM61.8407 25.0062C63.1007 25.0062 64.0107 23.9422 64.0107 22.6402C64.0107 21.3242 63.1007 20.2882 61.8407 20.2882C60.5667 20.2882 59.6567 21.3242 59.6567 22.6402C59.6567 23.9422 60.5667 25.0062 61.8407 25.0062ZM68.6206 19.2942V23.0042C68.6206 24.1802 69.3066 24.9642 70.3426 24.9642C71.3926 24.9642 72.0926 24.1802 72.0926 23.0042V19.2942H73.3386V23.1022C73.3386 24.9222 72.1486 26.1262 70.3426 26.1262C68.5506 26.1262 67.3746 24.9222 67.3746 23.1022V19.2942H68.6206ZM77.655 24.9222L77.795 26.0142C77.585 26.0842 77.319 26.1402 77.109 26.1402C76.269 26.1402 75.471 25.5802 75.471 24.1802V16.3682H76.703V24.1942C76.703 24.7822 77.025 24.9922 77.347 24.9922C77.445 24.9922 77.557 24.9642 77.655 24.9222ZM78.6935 20.4002V19.2942H79.7995V17.6282H81.0455V19.2942H82.9495V20.4002H81.0595V23.9422C81.0595 24.6562 81.3815 25.0062 81.9835 25.0062C82.3195 25.0062 82.6555 24.8802 82.8515 24.6562L83.4255 25.5942C83.1035 25.9022 82.5575 26.1682 81.8155 26.1682C80.5555 26.1682 79.7995 25.4262 79.7995 23.9842V20.4002H78.6935ZM95.2761 17.9782L94.4361 18.9582C93.8341 18.4542 93.0781 18.1042 92.0701 18.1042C90.2781 18.1042 88.8361 19.6302 88.8361 21.5202C88.8361 23.3962 90.2781 24.9222 92.1821 24.9222C93.0501 24.9222 93.8761 24.6282 94.4501 24.0962L95.2761 25.0202C94.4501 25.8322 93.4281 26.1682 92.0981 26.1682C89.4941 26.1682 87.4921 24.0822 87.4921 21.5202C87.4921 18.9442 89.5361 16.8582 92.0561 16.8582C93.4841 16.8582 94.4921 17.2642 95.2761 17.9782ZM96.7171 26.0002V16.3682H97.9491V20.3162C98.3271 19.5742 99.0411 19.1262 99.9791 19.1262C101.547 19.1262 102.569 20.2042 102.569 21.8982V26.0002H101.337V22.0942C101.337 20.9882 100.693 20.2882 99.6431 20.2882C98.5931 20.2882 97.9491 20.9882 97.9491 22.0942V26.0002H96.7171ZM107.725 26.1682C105.681 26.1682 104.211 24.5862 104.211 22.6402C104.211 20.6942 105.625 19.1262 107.529 19.1262C109.405 19.1262 110.833 20.6242 110.833 22.5142C110.833 22.6822 110.819 22.9342 110.791 23.0322H105.485C105.639 24.1942 106.521 25.0622 107.767 25.0622C108.523 25.0622 109.195 24.7682 109.643 24.3202L110.301 25.1742C109.755 25.7622 108.803 26.1682 107.725 26.1682ZM107.543 20.1902C106.493 20.1902 105.737 20.9462 105.513 22.0102H109.531C109.307 20.8482 108.551 20.1902 107.543 20.1902ZM117.213 20.9462C116.751 20.5262 116.177 20.2882 115.435 20.2882C114.105 20.2882 113.195 21.3242 113.195 22.6402C113.195 23.9422 114.119 25.0062 115.421 25.0062C116.163 25.0062 116.793 24.7682 117.241 24.3202L117.885 25.2302C117.353 25.8042 116.415 26.1682 115.393 26.1682C113.433 26.1682 111.949 24.5862 111.949 22.6402C111.949 20.6942 113.447 19.1262 115.407 19.1262C116.471 19.1262 117.367 19.4902 117.927 20.0642L117.213 20.9462ZM120.494 26.0002H119.262V16.3682H120.494V22.2202L123.644 19.2942H125.212L121.838 22.4302L125.45 26.0002H123.826L120.494 22.6822V26.0002ZM130.146 19.1262C131.966 19.1262 133.394 20.6242 133.394 22.6542C133.394 24.6422 132.022 26.1682 130.146 26.1682C129.096 26.1682 128.298 25.6642 127.794 24.8382V26.0002H126.562V16.3682H127.794V20.4982C128.298 19.6722 129.096 19.1262 130.146 19.1262ZM129.992 20.2882C128.718 20.2882 127.794 21.3522 127.794 22.6542C127.794 23.9702 128.718 25.0062 129.992 25.0062C131.252 25.0062 132.162 23.9702 132.162 22.6542C132.162 21.3522 131.252 20.2882 129.992 20.2882ZM138.074 26.1682C136.156 26.1682 134.658 24.5862 134.658 22.6402C134.658 20.6942 136.156 19.1262 138.074 19.1262C140.006 19.1262 141.504 20.6942 141.504 22.6402C141.504 24.5862 140.006 26.1682 138.074 26.1682ZM138.088 25.0062C139.348 25.0062 140.258 23.9422 140.258 22.6402C140.258 21.3242 139.348 20.2882 138.088 20.2882C136.814 20.2882 135.904 21.3242 135.904 22.6402C135.904 23.9422 136.814 25.0062 138.088 25.0062ZM141.936 26.0002L144.526 22.5842L142.048 19.2942H143.588L145.338 21.6322L147.13 19.2942H148.53L146.052 22.5702L148.628 26.0002H147.088L145.226 23.5222L143.336 26.0002H141.936ZM154.149 26.0142C153.743 25.9022 153.211 25.6362 152.539 25.2022L153.141 24.1102C153.939 24.6282 155.003 24.9642 155.913 24.9642C157.005 24.9642 157.845 24.5022 157.845 23.5782C157.845 21.6602 152.833 22.5702 152.833 19.3782C152.833 17.8522 154.219 16.8442 156.011 16.8442C157.159 16.8442 158.125 17.1382 158.895 17.6842L158.265 18.7202C157.691 18.3562 156.823 18.0342 155.955 18.0342C154.905 18.0342 154.177 18.5942 154.177 19.3502C154.177 21.3942 159.175 20.4982 159.175 23.4942C159.175 25.2862 157.649 26.1682 155.829 26.1682C155.115 26.1682 154.555 26.1122 154.149 26.0142ZM160.082 20.4002V19.2942H161.188V17.6282H162.434V19.2942H164.338V20.4002H162.448V23.9422C162.448 24.6562 162.77 25.0062 163.372 25.0062C163.708 25.0062 164.044 24.8802 164.24 24.6562L164.814 25.5942C164.492 25.9022 163.946 26.1682 163.204 26.1682C161.944 26.1682 161.188 25.4262 161.188 23.9842V20.4002H160.082ZM168.531 26.1682C166.711 26.1682 165.283 24.6702 165.283 22.6402C165.283 20.6522 166.655 19.1262 168.531 19.1262C169.581 19.1262 170.379 19.6302 170.883 20.4562V19.2942H172.129V26.0002H170.883V24.7962C170.379 25.6222 169.581 26.1682 168.531 26.1682ZM168.713 25.0062C169.973 25.0062 170.883 23.9422 170.883 22.6402C170.883 21.3242 169.973 20.2882 168.713 20.2882C167.439 20.2882 166.529 21.3242 166.529 22.6402C166.529 23.9422 167.439 25.0062 168.713 25.0062ZM173.603 20.4002V19.2942H174.709V17.6282H175.955V19.2942H177.859V20.4002H175.969V23.9422C175.969 24.6562 176.291 25.0062 176.893 25.0062C177.229 25.0062 177.565 24.8802 177.761 24.6562L178.335 25.5942C178.013 25.9022 177.467 26.1682 176.725 26.1682C175.465 26.1682 174.709 25.4262 174.709 23.9842V20.4002H173.603ZM182.319 26.1682C180.275 26.1682 178.805 24.5862 178.805 22.6402C178.805 20.6942 180.219 19.1262 182.123 19.1262C183.999 19.1262 185.427 20.6242 185.427 22.5142C185.427 22.6822 185.413 22.9342 185.385 23.0322H180.079C180.233 24.1942 181.115 25.0622 182.361 25.0622C183.117 25.0622 183.789 24.7682 184.237 24.3202L184.895 25.1742C184.349 25.7622 183.397 26.1682 182.319 26.1682ZM182.137 20.1902C181.087 20.1902 180.331 20.9462 180.107 22.0102H184.125C183.901 20.8482 183.145 20.1902 182.137 20.1902Z" fill="black"/>
</svg>
