<svg width="286" height="51" viewBox="0 0 286 51" fill="none" xmlns="http://www.w3.org/2000/svg">
<g clip-path="url(#clip0_6343_38175)">
<path d="M120.5 0H112.5C108.082 0 104.5 3.58172 104.5 8V16C104.5 20.4183 108.082 24 112.5 24H120.5C124.918 24 128.5 20.4183 128.5 16V8C128.5 3.58172 124.918 0 120.5 0Z" fill="#1355E9"/>
<path d="M115.013 17L123.5 8.49112L122.013 7L115.013 14.0178L111.987 10.9822L110.5 12.4734L115.013 17Z" fill="white"/>
<path d="M148.971 7.97816L148.132 8.95816C147.53 8.45416 146.774 8.10416 145.766 8.10416C143.974 8.10416 142.531 9.63016 142.531 11.5202C142.531 13.3962 143.974 14.9222 145.878 14.9222C146.746 14.9222 147.571 14.6282 148.145 14.0962L148.971 15.0202C148.145 15.8322 147.124 16.1682 145.794 16.1682C143.19 16.1682 141.188 14.0822 141.188 11.5202C141.188 8.94416 143.231 6.85816 145.751 6.85816C147.179 6.85816 148.187 7.26416 148.971 7.97816ZM150.412 16.0002V6.36816H151.645V10.3162C152.023 9.57416 152.736 9.12616 153.674 9.12616C155.242 9.12616 156.264 10.2042 156.264 11.8982V16.0002H155.033V12.0942C155.033 10.9882 154.389 10.2882 153.339 10.2882C152.289 10.2882 151.645 10.9882 151.645 12.0942V16.0002H150.412ZM161.421 16.1682C159.377 16.1682 157.906 14.5862 157.906 12.6402C157.906 10.6942 159.321 9.12616 161.225 9.12616C163.101 9.12616 164.528 10.6242 164.528 12.5142C164.528 12.6822 164.514 12.9342 164.486 13.0322H159.18C159.334 14.1942 160.216 15.0622 161.462 15.0622C162.218 15.0622 162.891 14.7682 163.339 14.3202L163.996 15.1742C163.45 15.7622 162.499 16.1682 161.421 16.1682ZM161.238 10.1902C160.188 10.1902 159.432 10.9462 159.208 12.0102H163.227C163.003 10.8482 162.246 10.1902 161.238 10.1902ZM170.91 10.9462C170.448 10.5262 169.874 10.2882 169.132 10.2882C167.802 10.2882 166.891 11.3242 166.891 12.6402C166.891 13.9422 167.815 15.0062 169.117 15.0062C169.859 15.0062 170.489 14.7682 170.938 14.3202L171.581 15.2302C171.049 15.8042 170.111 16.1682 169.089 16.1682C167.129 16.1682 165.645 14.5862 165.645 12.6402C165.645 10.6942 167.144 9.12616 169.104 9.12616C170.168 9.12616 171.063 9.49016 171.623 10.0642L170.91 10.9462ZM174.189 16.0002H172.957V6.36816H174.189V12.2202L177.339 9.29416H178.908L175.533 12.4302L179.145 16.0002H177.521L174.189 12.6822V16.0002ZM183.842 9.12616C185.662 9.12616 187.09 10.6242 187.09 12.6542C187.09 14.6422 185.718 16.1682 183.842 16.1682C182.792 16.1682 181.994 15.6642 181.49 14.8382V16.0002H180.258V6.36816H181.49V10.4982C181.994 9.67216 182.792 9.12616 183.842 9.12616ZM183.688 10.2882C182.414 10.2882 181.49 11.3522 181.49 12.6542C181.49 13.9702 182.414 15.0062 183.688 15.0062C184.948 15.0062 185.858 13.9702 185.858 12.6542C185.858 11.3522 184.948 10.2882 183.688 10.2882ZM191.77 16.1682C189.852 16.1682 188.354 14.5862 188.354 12.6402C188.354 10.6942 189.852 9.12616 191.77 9.12616C193.702 9.12616 195.201 10.6942 195.201 12.6402C195.201 14.5862 193.702 16.1682 191.77 16.1682ZM191.785 15.0062C193.045 15.0062 193.954 13.9422 193.954 12.6402C193.954 11.3242 193.045 10.2882 191.785 10.2882C190.511 10.2882 189.6 11.3242 189.6 12.6402C189.6 13.9422 190.511 15.0062 191.785 15.0062ZM195.632 16.0002L198.221 12.5842L195.743 9.29416H197.283L199.033 11.6322L200.826 9.29416H202.225L199.747 12.5702L202.324 16.0002H200.783L198.921 13.5222L197.031 16.0002H195.632Z" fill="black"/>
<path d="M24 12C24 5.37258 18.6274 0 12 0C5.37258 0 0 5.37258 0 12C0 18.6274 5.37258 24 12 24C18.6274 24 24 18.6274 24 12Z" fill="#F7D055"/>
<path d="M13.684 6.81836V17.0002H11.8395V8.61311H11.7799L9.39844 10.1344V8.44407L11.929 6.81836H13.684Z" fill="black"/>
<path d="M240 39C240 32.3726 234.627 27 228 27C221.373 27 216 32.3726 216 39C216 45.6274 221.373 51 228 51C234.627 51 240 45.6274 240 39Z" fill="#F7D055"/>
<path d="M224.555 44.0002V42.6678L228.09 39.2026C228.428 38.8612 228.71 38.558 228.935 38.2928C229.161 38.0277 229.33 37.7708 229.442 37.5222C229.555 37.2736 229.611 37.0085 229.611 36.7268C229.611 36.4053 229.538 36.1302 229.393 35.9015C229.247 35.6695 229.046 35.4905 228.791 35.3645C228.536 35.2386 228.246 35.1756 227.921 35.1756C227.586 35.1756 227.293 35.2452 227.041 35.3844C226.789 35.5203 226.594 35.7142 226.454 35.9661C226.318 36.218 226.25 36.518 226.25 36.866H224.496C224.496 36.2197 224.643 35.6579 224.938 35.1806C225.233 34.7033 225.639 34.3338 226.156 34.0719C226.676 33.8101 227.273 33.6792 227.946 33.6792C228.629 33.6792 229.228 33.8068 229.746 34.062C230.263 34.3172 230.664 34.6669 230.949 35.111C231.237 35.5551 231.381 36.0622 231.381 36.6323C231.381 37.0135 231.308 37.388 231.162 37.7559C231.017 38.1238 230.76 38.5314 230.392 38.9789C230.027 39.4263 229.515 39.9682 228.856 40.6046L227.101 42.3894V42.459H231.535V44.0002H224.555Z" fill="black"/>
<path d="M286 12C286 5.37258 280.627 0 274 0C267.373 0 262 5.37258 262 12C262 18.6274 267.373 24 274 24C280.627 24 286 18.6274 286 12Z" fill="#F7D055"/>
<path d="M273.999 17.1394C273.283 17.1394 272.647 17.0168 272.09 16.7715C271.537 16.5262 271.099 16.1849 270.778 15.7474C270.456 15.3099 270.286 14.8044 270.266 14.231H272.135C272.152 14.5061 272.243 14.7464 272.408 14.9519C272.574 15.1541 272.795 15.3115 273.07 15.4242C273.345 15.5369 273.653 15.5932 273.994 15.5932C274.359 15.5932 274.682 15.5303 274.964 15.4043C275.246 15.2751 275.466 15.0961 275.625 14.8674C275.784 14.6387 275.862 14.3752 275.859 14.0769C275.862 13.7687 275.783 13.4969 275.62 13.2616C275.458 13.0262 275.222 12.8423 274.914 12.7097C274.609 12.5771 274.241 12.5109 273.81 12.5109H272.911V11.089H273.81C274.165 11.089 274.475 11.0277 274.74 10.905C275.009 10.7824 275.219 10.61 275.372 10.388C275.524 10.1626 275.599 9.90245 275.595 9.60746C275.599 9.31911 275.534 9.06888 275.401 8.85675C275.272 8.64132 275.088 8.47394 274.85 8.35462C274.614 8.2353 274.337 8.17565 274.019 8.17565C273.708 8.17565 273.419 8.23199 273.154 8.34468C272.889 8.45737 272.675 8.61812 272.513 8.82692C272.35 9.03242 272.264 9.27768 272.254 9.56272H270.479C270.493 8.99264 270.657 8.49217 270.972 8.0613C271.29 7.62711 271.714 7.28905 272.244 7.0471C272.775 6.80183 273.37 6.6792 274.029 6.6792C274.709 6.6792 275.299 6.8068 275.799 7.06201C276.303 7.3139 276.692 7.65363 276.967 8.08119C277.243 8.50874 277.38 8.98104 277.38 9.49809C277.383 10.0715 277.214 10.552 276.873 10.9398C276.535 11.3276 276.091 11.5812 275.541 11.7005V11.78C276.256 11.8795 276.805 12.1446 277.186 12.5755C277.571 13.003 277.761 13.535 277.758 14.1714C277.758 14.7414 277.595 15.2519 277.271 15.7026C276.949 16.1501 276.505 16.5014 275.938 16.7566C275.375 17.0118 274.729 17.1394 273.999 17.1394Z" fill="black"/>
<path d="M218 38H116V40H218V38Z" fill="#F7D055"/>
<path d="M104 11H24V13H104V11Z" fill="#F7D055"/>
<path d="M102 17C104.761 17 107 14.7614 107 12C107 9.23858 104.761 7 102 7C99.2386 7 97 9.23858 97 12C97 14.7614 99.2386 17 102 17Z" fill="#F7D055"/>
<path d="M208 17C210.761 17 213 14.7614 213 12C213 9.23858 210.761 7 208 7C205.239 7 203 9.23858 203 12C203 14.7614 205.239 17 208 17Z" fill="#F7D055"/>
<path d="M117 25C119.761 25 122 22.7614 122 20C122 17.2386 119.761 15 117 15C114.239 15 112 17.2386 112 20C112 22.7614 114.239 25 117 25Z" fill="#F7D055"/>
<path d="M266 11H206V13H266V11Z" fill="#F7D055"/>
</g>
<defs>
<clipPath id="clip0_6343_38175">
<rect width="286" height="51" fill="white"/>
</clipPath>
</defs>
</svg>
