<svg width="184" height="40" viewBox="0 0 184 40" fill="none" xmlns="http://www.w3.org/2000/svg">
<g clip-path="url(#clip0_6343_38326)">
<path d="M26.6667 0H13.3333C5.96952 0 0 5.96952 0 13.3333V26.6667C0 34.0305 5.96952 40 13.3333 40H26.6667C34.0305 40 40 34.0305 40 26.6667V13.3333C40 5.96952 34.0305 0 26.6667 0Z" fill="#1355E9"/>
<path d="M17.5221 28.3332L31.6667 14.1517L29.1888 11.6665L17.5221 23.3628L12.4779 18.3036L10 20.7888L17.5221 28.3332Z" fill="white"/>
<path d="M85.3333 4H74.6667C68.7756 4 64 8.77564 64 14.6667V25.3333C64 31.2244 68.7756 36 74.6667 36H85.3333C91.2244 36 96 31.2244 96 25.3333V14.6667C96 8.77564 91.2244 4 85.3333 4Z" fill="#1355E9"/>
<path d="M78.0177 26.6668L89.3333 15.3217L87.351 13.3335L78.0177 22.6905L73.9823 18.6432L72 20.6313L78.0177 26.6668Z" fill="white"/>
<path d="M136 8H128C123.582 8 120 11.5817 120 16V24C120 28.4183 123.582 32 128 32H136C140.418 32 144 28.4183 144 24V16C144 11.5817 140.418 8 136 8Z" fill="#1355E9"/>
<path d="M130.513 25L139 16.4911L137.513 15L130.513 22.0178L127.487 18.9822L126 20.4734L130.513 25Z" fill="white"/>
<path d="M178.667 12H173.333C170.388 12 168 14.3878 168 17.3333V22.6667C168 25.6122 170.388 28 173.333 28H178.667C181.612 28 184 25.6122 184 22.6667V17.3333C184 14.3878 181.612 12 178.667 12Z" fill="#1355E9"/>
<path d="M175.009 23.3332L180.667 17.6606L179.676 16.6665L175.009 21.345L172.991 19.3213L172 20.3154L175.009 23.3332Z" fill="white"/>
</g>
<defs>
<clipPath id="clip0_6343_38326">
<rect width="184" height="40" fill="white"/>
</clipPath>
</defs>
</svg>
