<svg width="215" height="96" viewBox="0 0 215 96" fill="none" xmlns="http://www.w3.org/2000/svg">
<path d="M16 1H8C4.13401 1 1 4.13401 1 8V16C1 19.866 4.13401 23 8 23H16C19.866 23 23 19.866 23 16V8C23 4.13401 19.866 1 16 1Z" stroke="#D6D6D6" stroke-width="2"/>
<path d="M37.1914 16.0002V7.02616H42.8894V8.21616H38.4514V10.9042H42.3294V12.0942H38.4514V14.8102H42.8894V16.0002H37.1914ZM45.7636 16.0002H44.5316V9.29416H45.7636V10.3582C46.1276 9.60216 46.8276 9.12616 47.7376 9.12616C48.8156 9.12616 49.6276 9.67216 50.0056 10.6102C50.3276 9.74216 51.0556 9.12616 52.1336 9.12616C53.6876 9.12616 54.6956 10.1762 54.6956 11.8982V16.0002H53.4496V12.0942C53.4496 10.9882 52.8476 10.2882 51.8396 10.2882C50.8456 10.2882 50.2296 10.9882 50.2296 12.0942V16.0002H48.9836V12.0942C48.9836 10.9882 48.3816 10.2882 47.3876 10.2882C46.3796 10.2882 45.7636 10.9882 45.7636 12.0942V16.0002ZM58.0409 18.7442H56.8089V9.29416H58.0409V10.4982C58.5449 9.67216 59.3429 9.12616 60.3929 9.12616C62.2129 9.12616 63.6409 10.6242 63.6409 12.6542C63.6409 14.6422 62.2689 16.1682 60.3929 16.1682C59.3429 16.1682 58.5449 15.6642 58.0409 14.8382V18.7442ZM60.2389 15.0062C61.4989 15.0062 62.4089 13.9702 62.4089 12.6542C62.4089 11.3522 61.4989 10.2882 60.2389 10.2882C58.9649 10.2882 58.0409 11.3522 58.0409 12.6542C58.0409 13.9702 58.9649 15.0062 60.2389 15.0062ZM64.6388 10.4002V9.29416H65.7448V7.62816H66.9908V9.29416H68.8948V10.4002H67.0048V13.9422C67.0048 14.6562 67.3268 15.0062 67.9288 15.0062C68.2648 15.0062 68.6008 14.8802 68.7968 14.6562L69.3708 15.5942C69.0488 15.9022 68.5028 16.1682 67.7608 16.1682C66.5008 16.1682 65.7448 15.4262 65.7448 13.9842V10.4002H64.6388ZM72.5335 16.6582L72.7435 16.0842L69.7055 9.29416H71.0495L73.3035 14.5302L75.2075 9.29416H76.4675L73.5695 17.0922C73.1215 18.3102 72.4355 18.9122 71.3995 18.9122C70.8115 18.9122 70.2095 18.6742 69.7895 18.2962L70.3635 17.3302C70.6715 17.6102 71.0355 17.7502 71.4275 17.7502C71.9175 17.7502 72.2395 17.4702 72.5335 16.6582ZM83.7251 16.1682C81.9051 16.1682 80.4771 14.6702 80.4771 12.6402C80.4771 10.6522 81.8491 9.12616 83.7251 9.12616C84.7751 9.12616 85.5731 9.63016 86.0771 10.4562V9.29416H87.3231V16.0002H86.0771V14.7962C85.5731 15.6222 84.7751 16.1682 83.7251 16.1682ZM83.9071 15.0062C85.1671 15.0062 86.0771 13.9422 86.0771 12.6402C86.0771 11.3242 85.1671 10.2882 83.9071 10.2882C82.6331 10.2882 81.7231 11.3242 81.7231 12.6402C81.7231 13.9422 82.6331 15.0062 83.9071 15.0062ZM89.553 16.0002V9.29416H90.785V10.3162C91.163 9.57416 91.877 9.12616 92.815 9.12616C94.383 9.12616 95.405 10.2042 95.405 11.8982V16.0002H94.173V12.0942C94.173 10.9882 93.529 10.2882 92.479 10.2882C91.429 10.2882 90.785 10.9882 90.785 12.0942V16.0002H89.553ZM100.295 16.1682C98.4754 16.1682 97.0474 14.6702 97.0474 12.6402C97.0474 10.6522 98.4194 9.12616 100.295 9.12616C101.345 9.12616 102.143 9.63016 102.647 10.4562V6.36816H103.893V16.0002H102.647V14.7962C102.143 15.6222 101.345 16.1682 100.295 16.1682ZM100.477 15.0062C101.737 15.0062 102.647 13.9422 102.647 12.6402C102.647 11.3242 101.737 10.2882 100.477 10.2882C99.2034 10.2882 98.2934 11.3242 98.2934 12.6402C98.2934 13.9422 99.2034 15.0062 100.477 15.0062ZM112.053 16.1682C110.233 16.1682 108.805 14.6702 108.805 12.6402C108.805 10.6522 110.177 9.12616 112.053 9.12616C113.103 9.12616 113.901 9.63016 114.405 10.4562V6.36816H115.651V16.0002H114.405V14.7962C113.901 15.6222 113.103 16.1682 112.053 16.1682ZM112.235 15.0062C113.495 15.0062 114.405 13.9422 114.405 12.6402C114.405 11.3242 113.495 10.2882 112.235 10.2882C110.961 10.2882 110.051 11.3242 110.051 12.6402C110.051 13.9422 110.961 15.0062 112.235 15.0062ZM118.497 8.13216C118.063 8.13216 117.727 7.78216 117.727 7.36216C117.727 6.94216 118.063 6.59216 118.497 6.59216C118.917 6.59216 119.267 6.94216 119.267 7.36216C119.267 7.78216 118.917 8.13216 118.497 8.13216ZM119.113 16.0002H117.881V9.29416H119.113V16.0002ZM123.243 16.1682C122.249 16.1682 121.353 15.9022 120.667 15.4962L121.143 14.4742C121.899 14.8662 122.557 15.0902 123.327 15.0902C124.265 15.0902 124.713 14.7262 124.713 14.1942C124.713 12.6682 120.905 13.5922 120.905 11.0022C120.905 10.0082 121.801 9.12616 123.425 9.12616C124.335 9.12616 125.049 9.35016 125.777 9.70016L125.287 10.7222C124.811 10.4562 124.125 10.2182 123.481 10.2182C122.655 10.2182 122.165 10.4982 122.165 10.9882C122.165 12.5282 125.945 11.6182 125.945 14.1662C125.945 15.3142 124.951 16.1682 123.243 16.1682ZM130.346 16.1682C128.526 16.1682 127.098 14.6702 127.098 12.6402C127.098 10.6522 128.47 9.12616 130.346 9.12616C131.396 9.12616 132.194 9.63016 132.698 10.4562V9.29416H133.944V16.0002H132.698V14.7962C132.194 15.6222 131.396 16.1682 130.346 16.1682ZM130.528 15.0062C131.788 15.0062 132.698 13.9422 132.698 12.6402C132.698 11.3242 131.788 10.2882 130.528 10.2882C129.254 10.2882 128.344 11.3242 128.344 12.6402C128.344 13.9422 129.254 15.0062 130.528 15.0062ZM139.758 9.12616C141.578 9.12616 143.006 10.6242 143.006 12.6542C143.006 14.6422 141.634 16.1682 139.758 16.1682C138.708 16.1682 137.91 15.6642 137.406 14.8382V16.0002H136.174V6.36816H137.406V10.4982C137.91 9.67216 138.708 9.12616 139.758 9.12616ZM139.604 10.2882C138.33 10.2882 137.406 11.3522 137.406 12.6542C137.406 13.9702 138.33 15.0062 139.604 15.0062C140.864 15.0062 141.774 13.9702 141.774 12.6542C141.774 11.3522 140.864 10.2882 139.604 10.2882ZM146.944 14.9222L147.084 16.0142C146.874 16.0842 146.608 16.1402 146.398 16.1402C145.558 16.1402 144.76 15.5802 144.76 14.1802V6.36816H145.992V14.1942C145.992 14.7822 146.314 14.9922 146.636 14.9922C146.734 14.9922 146.846 14.9642 146.944 14.9222ZM151.762 16.1682C149.718 16.1682 148.248 14.5862 148.248 12.6402C148.248 10.6942 149.662 9.12616 151.566 9.12616C153.442 9.12616 154.87 10.6242 154.87 12.5142C154.87 12.6822 154.856 12.9342 154.828 13.0322H149.522C149.676 14.1942 150.558 15.0622 151.804 15.0622C152.56 15.0622 153.232 14.7682 153.68 14.3202L154.338 15.1742C153.792 15.7622 152.84 16.1682 151.762 16.1682ZM151.58 10.1902C150.53 10.1902 149.774 10.9462 149.55 12.0102H153.568C153.344 10.8482 152.588 10.1902 151.58 10.1902ZM159.234 16.1682C157.414 16.1682 155.986 14.6702 155.986 12.6402C155.986 10.6522 157.358 9.12616 159.234 9.12616C160.284 9.12616 161.082 9.63016 161.586 10.4562V6.36816H162.832V16.0002H161.586V14.7962C161.082 15.6222 160.284 16.1682 159.234 16.1682ZM159.416 15.0062C160.676 15.0062 161.586 13.9422 161.586 12.6402C161.586 11.3242 160.676 10.2882 159.416 10.2882C158.142 10.2882 157.232 11.3242 157.232 12.6402C157.232 13.9422 158.142 15.0062 159.416 15.0062Z" fill="#D6D6D6"/>
<path d="M16 36H8C3.58172 36 0 39.5817 0 44V52C0 56.4183 3.58172 60 8 60H16C20.4183 60 24 56.4183 24 52V44C24 39.5817 20.4183 36 16 36Z" fill="#89AAF4"/>
<path d="M10.5133 53L19 44.4911L17.5133 43L10.5133 50.0178L7.48673 46.9822L6 48.4734L10.5133 53Z" fill="white"/>
<path d="M44.4715 43.9782L43.6315 44.9582C43.0295 44.4542 42.2735 44.1042 41.2655 44.1042C39.4735 44.1042 38.0315 45.6302 38.0315 47.5202C38.0315 49.3962 39.4735 50.9222 41.3775 50.9222C42.2455 50.9222 43.0715 50.6282 43.6455 50.0962L44.4715 51.0202C43.6455 51.8322 42.6235 52.1682 41.2935 52.1682C38.6895 52.1682 36.6875 50.0822 36.6875 47.5202C36.6875 44.9442 38.7315 42.8582 41.2515 42.8582C42.6795 42.8582 43.6875 43.2642 44.4715 43.9782ZM45.9125 52.0002V42.3682H47.1445V46.3162C47.5225 45.5742 48.2365 45.1262 49.1745 45.1262C50.7425 45.1262 51.7645 46.2042 51.7645 47.8982V52.0002H50.5325V48.0942C50.5325 46.9882 49.8885 46.2882 48.8385 46.2882C47.7885 46.2882 47.1445 46.9882 47.1445 48.0942V52.0002H45.9125ZM56.9209 52.1682C54.8769 52.1682 53.4069 50.5862 53.4069 48.6402C53.4069 46.6942 54.8209 45.1262 56.7249 45.1262C58.6009 45.1262 60.0289 46.6242 60.0289 48.5142C60.0289 48.6822 60.0149 48.9342 59.9869 49.0322H54.6809C54.8349 50.1942 55.7169 51.0622 56.9629 51.0622C57.7189 51.0622 58.3909 50.7682 58.8389 50.3202L59.4969 51.1742C58.9509 51.7622 57.9989 52.1682 56.9209 52.1682ZM56.7389 46.1902C55.6889 46.1902 54.9329 46.9462 54.7089 48.0102H58.7269C58.5029 46.8482 57.7469 46.1902 56.7389 46.1902ZM66.4092 46.9462C65.9472 46.5262 65.3732 46.2882 64.6312 46.2882C63.3012 46.2882 62.3912 47.3242 62.3912 48.6402C62.3912 49.9422 63.3152 51.0062 64.6172 51.0062C65.3592 51.0062 65.9892 50.7682 66.4372 50.3202L67.0812 51.2302C66.5492 51.8042 65.6112 52.1682 64.5892 52.1682C62.6292 52.1682 61.1452 50.5862 61.1452 48.6402C61.1452 46.6942 62.6432 45.1262 64.6032 45.1262C65.6672 45.1262 66.5632 45.4902 67.1232 46.0642L66.4092 46.9462ZM69.6894 52.0002H68.4574V42.3682H69.6894V48.2202L72.8394 45.2942H74.4074L71.0334 48.4302L74.6454 52.0002H73.0214L69.6894 48.6822V52.0002ZM78.1807 52.1682C76.1367 52.1682 74.6667 50.5862 74.6667 48.6402C74.6667 46.6942 76.0807 45.1262 77.9847 45.1262C79.8607 45.1262 81.2887 46.6242 81.2887 48.5142C81.2887 48.6822 81.2747 48.9342 81.2467 49.0322H75.9407C76.0947 50.1942 76.9767 51.0622 78.2227 51.0622C78.9787 51.0622 79.6507 50.7682 80.0987 50.3202L80.7567 51.1742C80.2107 51.7622 79.2587 52.1682 78.1807 52.1682ZM77.9987 46.1902C76.9487 46.1902 76.1927 46.9462 75.9687 48.0102H79.9867C79.7627 46.8482 79.0067 46.1902 77.9987 46.1902ZM85.6529 52.1682C83.8329 52.1682 82.4049 50.6702 82.4049 48.6402C82.4049 46.6522 83.7769 45.1262 85.6529 45.1262C86.7029 45.1262 87.5009 45.6302 88.0049 46.4562V42.3682H89.2509V52.0002H88.0049V50.7962C87.5009 51.6222 86.7029 52.1682 85.6529 52.1682ZM85.8349 51.0062C87.0949 51.0062 88.0049 49.9422 88.0049 48.6402C88.0049 47.3242 87.0949 46.2882 85.8349 46.2882C84.5609 46.2882 83.6509 47.3242 83.6509 48.6402C83.6509 49.9422 84.5609 51.0062 85.8349 51.0062ZM97.4108 52.1682C95.5907 52.1682 94.1628 50.6702 94.1628 48.6402C94.1628 46.6522 95.5348 45.1262 97.4108 45.1262C98.4608 45.1262 99.2588 45.6302 99.7628 46.4562V45.2942H101.008V52.0002H99.7628V50.7962C99.2588 51.6222 98.4608 52.1682 97.4108 52.1682ZM97.5928 51.0062C98.8528 51.0062 99.7628 49.9422 99.7628 48.6402C99.7628 47.3242 98.8528 46.2882 97.5928 46.2882C96.3188 46.2882 95.4088 47.3242 95.4088 48.6402C95.4088 49.9422 96.3188 51.0062 97.5928 51.0062ZM103.238 52.0002V45.2942H104.471V46.3162C104.849 45.5742 105.563 45.1262 106.501 45.1262C108.069 45.1262 109.09 46.2042 109.09 47.8982V52.0002H107.859V48.0942C107.859 46.9882 107.215 46.2882 106.165 46.2882C105.115 46.2882 104.471 46.9882 104.471 48.0942V52.0002H103.238ZM113.982 52.1682C112.162 52.1682 110.734 50.6702 110.734 48.6402C110.734 46.6522 112.106 45.1262 113.982 45.1262C115.032 45.1262 115.829 45.6302 116.333 46.4562V42.3682H117.579V52.0002H116.333V50.7962C115.829 51.6222 115.032 52.1682 113.982 52.1682ZM114.163 51.0062C115.423 51.0062 116.333 49.9422 116.333 48.6402C116.333 47.3242 115.423 46.2882 114.163 46.2882C112.889 46.2882 111.979 47.3242 111.979 48.6402C111.979 49.9422 112.889 51.0062 114.163 51.0062ZM125.738 52.1682C123.918 52.1682 122.49 50.6702 122.49 48.6402C122.49 46.6522 123.862 45.1262 125.738 45.1262C126.788 45.1262 127.586 45.6302 128.09 46.4562V42.3682H129.337V52.0002H128.09V50.7962C127.586 51.6222 126.788 52.1682 125.738 52.1682ZM125.921 51.0062C127.181 51.0062 128.09 49.9422 128.09 48.6402C128.09 47.3242 127.181 46.2882 125.921 46.2882C124.647 46.2882 123.736 47.3242 123.736 48.6402C123.736 49.9422 124.647 51.0062 125.921 51.0062ZM132.182 44.1322C131.748 44.1322 131.412 43.7822 131.412 43.3622C131.412 42.9422 131.748 42.5922 132.182 42.5922C132.602 42.5922 132.952 42.9422 132.952 43.3622C132.952 43.7822 132.602 44.1322 132.182 44.1322ZM132.798 52.0002H131.566V45.2942H132.798V52.0002ZM136.929 52.1682C135.935 52.1682 135.04 51.9022 134.354 51.4962L134.829 50.4742C135.585 50.8662 136.243 51.0902 137.013 51.0902C137.951 51.0902 138.399 50.7262 138.399 50.1942C138.399 48.6682 134.591 49.5922 134.591 47.0022C134.591 46.0082 135.487 45.1262 137.111 45.1262C138.021 45.1262 138.736 45.3502 139.464 45.7002L138.973 46.7222C138.497 46.4562 137.811 46.2182 137.167 46.2182C136.341 46.2182 135.852 46.4982 135.852 46.9882C135.852 48.5282 139.632 47.6182 139.632 50.1662C139.632 51.3142 138.637 52.1682 136.929 52.1682ZM144.031 52.1682C142.211 52.1682 140.783 50.6702 140.783 48.6402C140.783 46.6522 142.155 45.1262 144.031 45.1262C145.081 45.1262 145.879 45.6302 146.383 46.4562V45.2942H147.63V52.0002H146.383V50.7962C145.879 51.6222 145.081 52.1682 144.031 52.1682ZM144.214 51.0062C145.474 51.0062 146.383 49.9422 146.383 48.6402C146.383 47.3242 145.474 46.2882 144.214 46.2882C142.94 46.2882 142.029 47.3242 142.029 48.6402C142.029 49.9422 142.94 51.0062 144.214 51.0062ZM153.443 45.1262C155.263 45.1262 156.691 46.6242 156.691 48.6542C156.691 50.6422 155.319 52.1682 153.443 52.1682C152.393 52.1682 151.595 51.6642 151.091 50.8382V52.0002H149.859V42.3682H151.091V46.4982C151.595 45.6722 152.393 45.1262 153.443 45.1262ZM153.289 46.2882C152.015 46.2882 151.091 47.3522 151.091 48.6542C151.091 49.9702 152.015 51.0062 153.289 51.0062C154.549 51.0062 155.459 49.9702 155.459 48.6542C155.459 47.3522 154.549 46.2882 153.289 46.2882ZM160.63 50.9222L160.77 52.0142C160.56 52.0842 160.293 52.1402 160.083 52.1402C159.243 52.1402 158.445 51.5802 158.445 50.1802V42.3682H159.677V50.1942C159.677 50.7822 160 50.9922 160.322 50.9922C160.42 50.9922 160.532 50.9642 160.63 50.9222ZM165.449 52.1682C163.405 52.1682 161.934 50.5862 161.934 48.6402C161.934 46.6942 163.349 45.1262 165.253 45.1262C167.129 45.1262 168.556 46.6242 168.556 48.5142C168.556 48.6822 168.542 48.9342 168.514 49.0322H163.208C163.362 50.1942 164.244 51.0622 165.49 51.0622C166.246 51.0622 166.919 50.7682 167.367 50.3202L168.024 51.1742C167.478 51.7622 166.527 52.1682 165.449 52.1682ZM165.266 46.1902C164.216 46.1902 163.46 46.9462 163.236 48.0102H167.255C167.031 46.8482 166.274 46.1902 165.266 46.1902ZM172.921 52.1682C171.101 52.1682 169.673 50.6702 169.673 48.6402C169.673 46.6522 171.045 45.1262 172.921 45.1262C173.971 45.1262 174.768 45.6302 175.272 46.4562V42.3682H176.518V52.0002H175.272V50.7962C174.768 51.6222 173.971 52.1682 172.921 52.1682ZM173.102 51.0062C174.362 51.0062 175.272 49.9422 175.272 48.6402C175.272 47.3242 174.362 46.2882 173.102 46.2882C171.828 46.2882 170.919 47.3242 170.919 48.6402C170.919 49.9422 171.828 51.0062 173.102 51.0062Z" fill="#D6D6D6"/>
<path d="M16 72H8C3.58172 72 0 75.5817 0 80V88C0 92.4183 3.58172 96 8 96H16C20.4183 96 24 92.4183 24 88V80C24 75.5817 20.4183 72 16 72Z" fill="#89AAF4"/>
<path d="M18 83H6V85H18V83Z" fill="white"/>
<path d="M37.1914 88.0002V79.0262H38.4514V88.0002H37.1914ZM40.7581 88.0002V81.2942H41.9901V82.3162C42.3681 81.5742 43.0821 81.1262 44.0201 81.1262C45.5881 81.1262 46.6101 82.2042 46.6101 83.8982V88.0002H45.3781V84.0942C45.3781 82.9882 44.7341 82.2882 43.6841 82.2882C42.6341 82.2882 41.9901 82.9882 41.9901 84.0942V88.0002H40.7581ZM51.5005 88.1682C49.6805 88.1682 48.2525 86.6702 48.2525 84.6402C48.2525 82.6522 49.6245 81.1262 51.5005 81.1262C52.5505 81.1262 53.3485 81.6302 53.8525 82.4562V78.3682H55.0985V88.0002H53.8525V86.7962C53.3485 87.6222 52.5505 88.1682 51.5005 88.1682ZM51.6825 87.0062C52.9425 87.0062 53.8525 85.9422 53.8525 84.6402C53.8525 83.3242 52.9425 82.2882 51.6825 82.2882C50.4085 82.2882 49.4985 83.3242 49.4985 84.6402C49.4985 85.9422 50.4085 87.0062 51.6825 87.0062ZM60.3524 88.1682C58.3084 88.1682 56.8384 86.5862 56.8384 84.6402C56.8384 82.6942 58.2524 81.1262 60.1564 81.1262C62.0324 81.1262 63.4604 82.6242 63.4604 84.5142C63.4604 84.6822 63.4464 84.9342 63.4184 85.0322H58.1124C58.2664 86.1942 59.1484 87.0622 60.3944 87.0622C61.1504 87.0622 61.8224 86.7682 62.2704 86.3202L62.9284 87.1742C62.3824 87.7622 61.4304 88.1682 60.3524 88.1682ZM60.1704 82.1902C59.1204 82.1902 58.3644 82.9462 58.1404 84.0102H62.1584C61.9344 82.8482 61.1784 82.1902 60.1704 82.1902ZM64.3107 82.4002V81.2942H65.4167V79.6282H66.6627V81.2942H68.5667V82.4002H66.6767V85.9422C66.6767 86.6562 66.9987 87.0062 67.6007 87.0062C67.9367 87.0062 68.2727 86.8802 68.4687 86.6562L69.0427 87.5942C68.7207 87.9022 68.1747 88.1682 67.4327 88.1682C66.1727 88.1682 65.4167 87.4262 65.4167 85.9842V82.4002H64.3107ZM73.0263 88.1682C70.9823 88.1682 69.5123 86.5862 69.5123 84.6402C69.5123 82.6942 70.9263 81.1262 72.8303 81.1262C74.7063 81.1262 76.1343 82.6242 76.1343 84.5142C76.1343 84.6822 76.1203 84.9342 76.0923 85.0322H70.7863C70.9403 86.1942 71.8223 87.0622 73.0683 87.0622C73.8243 87.0622 74.4963 86.7682 74.9443 86.3202L75.6023 87.1742C75.0563 87.7622 74.1043 88.1682 73.0263 88.1682ZM72.8443 82.1902C71.7943 82.1902 71.0383 82.9462 70.8143 84.0102H74.8323C74.6083 82.8482 73.8523 82.1902 72.8443 82.1902ZM77.7405 88.0002V81.2942H78.9725V82.2462C79.3085 81.5462 79.8825 81.1262 80.6665 81.1262C81.0865 81.1262 81.4505 81.2242 81.6885 81.4202L81.1705 82.5822C80.9465 82.4282 80.6245 82.3162 80.3025 82.3162C79.4905 82.3162 78.9725 83.0162 78.9725 84.1362V88.0002H77.7405ZM84.2362 88.0002H83.0042V81.2942H84.2362V82.3582C84.6002 81.6022 85.3002 81.1262 86.2102 81.1262C87.2882 81.1262 88.1002 81.6722 88.4782 82.6102C88.8002 81.7422 89.5282 81.1262 90.6062 81.1262C92.1602 81.1262 93.1682 82.1762 93.1682 83.8982V88.0002H91.9222V84.0942C91.9222 82.9882 91.3202 82.2882 90.3122 82.2882C89.3182 82.2882 88.7022 82.9882 88.7022 84.0942V88.0002H87.4562V84.0942C87.4562 82.9882 86.8542 82.2882 85.8602 82.2882C84.8522 82.2882 84.2362 82.9882 84.2362 84.0942V88.0002ZM95.8976 80.1322C95.4636 80.1322 95.1276 79.7822 95.1276 79.3622C95.1276 78.9422 95.4636 78.5922 95.8976 78.5922C96.3176 78.5922 96.6676 78.9422 96.6676 79.3622C96.6676 79.7822 96.3176 80.1322 95.8976 80.1322ZM96.5136 88.0002H95.2816V81.2942H96.5136V88.0002ZM98.7542 88.0002V81.2942H99.9862V82.3162C100.364 81.5742 101.078 81.1262 102.016 81.1262C103.584 81.1262 104.606 82.2042 104.606 83.8982V88.0002H103.374V84.0942C103.374 82.9882 102.73 82.2882 101.68 82.2882C100.63 82.2882 99.9862 82.9882 99.9862 84.0942V88.0002H98.7542ZM109.496 88.1682C107.676 88.1682 106.248 86.6702 106.248 84.6402C106.248 82.6522 107.62 81.1262 109.496 81.1262C110.546 81.1262 111.344 81.6302 111.848 82.4562V81.2942H113.094V88.0002H111.848V86.7962C111.344 87.6222 110.546 88.1682 109.496 88.1682ZM109.678 87.0062C110.938 87.0062 111.848 85.9422 111.848 84.6402C111.848 83.3242 110.938 82.2882 109.678 82.2882C108.404 82.2882 107.494 83.3242 107.494 84.6402C107.494 85.9422 108.404 87.0062 109.678 87.0062ZM114.568 82.4002V81.2942H115.674V79.6282H116.92V81.2942H118.824V82.4002H116.934V85.9422C116.934 86.6562 117.256 87.0062 117.858 87.0062C118.194 87.0062 118.53 86.8802 118.726 86.6562L119.3 87.5942C118.978 87.9022 118.432 88.1682 117.69 88.1682C116.43 88.1682 115.674 87.4262 115.674 85.9842V82.4002H114.568ZM123.284 88.1682C121.24 88.1682 119.77 86.5862 119.77 84.6402C119.77 82.6942 121.184 81.1262 123.088 81.1262C124.964 81.1262 126.392 82.6242 126.392 84.5142C126.392 84.6822 126.378 84.9342 126.35 85.0322H121.044C121.198 86.1942 122.08 87.0622 123.326 87.0622C124.082 87.0622 124.754 86.7682 125.202 86.3202L125.86 87.1742C125.314 87.7622 124.362 88.1682 123.284 88.1682ZM123.102 82.1902C122.052 82.1902 121.296 82.9462 121.072 84.0102H125.09C124.866 82.8482 124.11 82.1902 123.102 82.1902ZM133.928 88.1682C132.108 88.1682 130.68 86.6702 130.68 84.6402C130.68 82.6522 132.052 81.1262 133.928 81.1262C134.978 81.1262 135.776 81.6302 136.28 82.4562V81.2942H137.526V88.0002H136.28V86.7962C135.776 87.6222 134.978 88.1682 133.928 88.1682ZM134.11 87.0062C135.37 87.0062 136.28 85.9422 136.28 84.6402C136.28 83.3242 135.37 82.2882 134.11 82.2882C132.836 82.2882 131.926 83.3242 131.926 84.6402C131.926 85.9422 132.836 87.0062 134.11 87.0062ZM139.756 88.0002V81.2942H140.988V82.3162C141.366 81.5742 142.08 81.1262 143.018 81.1262C144.586 81.1262 145.608 82.2042 145.608 83.8982V88.0002H144.376V84.0942C144.376 82.9882 143.732 82.2882 142.682 82.2882C141.632 82.2882 140.988 82.9882 140.988 84.0942V88.0002H139.756ZM150.498 88.1682C148.678 88.1682 147.25 86.6702 147.25 84.6402C147.25 82.6522 148.622 81.1262 150.498 81.1262C151.548 81.1262 152.346 81.6302 152.85 82.4562V78.3682H154.096V88.0002H152.85V86.7962C152.346 87.6222 151.548 88.1682 150.498 88.1682ZM150.68 87.0062C151.94 87.0062 152.85 85.9422 152.85 84.6402C152.85 83.3242 151.94 82.2882 150.68 82.2882C149.406 82.2882 148.496 83.3242 148.496 84.6402C148.496 85.9422 149.406 87.0062 150.68 87.0062ZM162.256 88.1682C160.436 88.1682 159.008 86.6702 159.008 84.6402C159.008 82.6522 160.38 81.1262 162.256 81.1262C163.306 81.1262 164.104 81.6302 164.608 82.4562V78.3682H165.854V88.0002H164.608V86.7962C164.104 87.6222 163.306 88.1682 162.256 88.1682ZM162.438 87.0062C163.698 87.0062 164.608 85.9422 164.608 84.6402C164.608 83.3242 163.698 82.2882 162.438 82.2882C161.164 82.2882 160.254 83.3242 160.254 84.6402C160.254 85.9422 161.164 87.0062 162.438 87.0062ZM168.7 80.1322C168.266 80.1322 167.93 79.7822 167.93 79.3622C167.93 78.9422 168.266 78.5922 168.7 78.5922C169.12 78.5922 169.47 78.9422 169.47 79.3622C169.47 79.7822 169.12 80.1322 168.7 80.1322ZM169.316 88.0002H168.084V81.2942H169.316V88.0002ZM173.447 88.1682C172.453 88.1682 171.557 87.9022 170.871 87.4962L171.347 86.4742C172.103 86.8662 172.761 87.0902 173.531 87.0902C174.469 87.0902 174.917 86.7262 174.917 86.1942C174.917 84.6682 171.109 85.5922 171.109 83.0022C171.109 82.0082 172.005 81.1262 173.629 81.1262C174.539 81.1262 175.253 81.3502 175.981 81.7002L175.491 82.7222C175.015 82.4562 174.329 82.2182 173.685 82.2182C172.859 82.2182 172.369 82.4982 172.369 82.9882C172.369 84.5282 176.149 83.6182 176.149 86.1662C176.149 87.3142 175.155 88.1682 173.447 88.1682ZM180.549 88.1682C178.729 88.1682 177.301 86.6702 177.301 84.6402C177.301 82.6522 178.673 81.1262 180.549 81.1262C181.599 81.1262 182.397 81.6302 182.901 82.4562V81.2942H184.147V88.0002H182.901V86.7962C182.397 87.6222 181.599 88.1682 180.549 88.1682ZM180.731 87.0062C181.991 87.0062 182.901 85.9422 182.901 84.6402C182.901 83.3242 181.991 82.2882 180.731 82.2882C179.457 82.2882 178.547 83.3242 178.547 84.6402C178.547 85.9422 179.457 87.0062 180.731 87.0062ZM189.961 81.1262C191.781 81.1262 193.209 82.6242 193.209 84.6542C193.209 86.6422 191.837 88.1682 189.961 88.1682C188.911 88.1682 188.113 87.6642 187.609 86.8382V88.0002H186.377V78.3682H187.609V82.4982C188.113 81.6722 188.911 81.1262 189.961 81.1262ZM189.807 82.2882C188.533 82.2882 187.609 83.3522 187.609 84.6542C187.609 85.9702 188.533 87.0062 189.807 87.0062C191.067 87.0062 191.977 85.9702 191.977 84.6542C191.977 83.3522 191.067 82.2882 189.807 82.2882ZM197.147 86.9222L197.287 88.0142C197.077 88.0842 196.811 88.1402 196.601 88.1402C195.761 88.1402 194.963 87.5802 194.963 86.1802V78.3682H196.195V86.1942C196.195 86.7822 196.517 86.9922 196.839 86.9922C196.937 86.9922 197.049 86.9642 197.147 86.9222ZM201.965 88.1682C199.921 88.1682 198.451 86.5862 198.451 84.6402C198.451 82.6942 199.865 81.1262 201.769 81.1262C203.645 81.1262 205.073 82.6242 205.073 84.5142C205.073 84.6822 205.059 84.9342 205.031 85.0322H199.725C199.879 86.1942 200.761 87.0622 202.007 87.0622C202.763 87.0622 203.435 86.7682 203.883 86.3202L204.541 87.1742C203.995 87.7622 203.043 88.1682 201.965 88.1682ZM201.783 82.1902C200.733 82.1902 199.977 82.9462 199.753 84.0102H203.771C203.547 82.8482 202.791 82.1902 201.783 82.1902ZM209.438 88.1682C207.618 88.1682 206.19 86.6702 206.19 84.6402C206.19 82.6522 207.562 81.1262 209.438 81.1262C210.488 81.1262 211.286 81.6302 211.79 82.4562V78.3682H213.036V88.0002H211.79V86.7962C211.286 87.6222 210.488 88.1682 209.438 88.1682ZM209.62 87.0062C210.88 87.0062 211.79 85.9422 211.79 84.6402C211.79 83.3242 210.88 82.2882 209.62 82.2882C208.346 82.2882 207.436 83.3242 207.436 84.6402C207.436 85.9422 208.346 87.0062 209.62 87.0062Z" fill="#D6D6D6"/>
</svg>
