<svg width="106" height="44" viewBox="0 0 106 44" fill="none" xmlns="http://www.w3.org/2000/svg">
<path d="M22.5 10H14.5C10.0817 10 6.5 13.5817 6.5 18V26C6.5 30.4183 10.0817 34 14.5 34H22.5C26.9183 34 30.5 30.4183 30.5 26V18C30.5 13.5817 26.9183 10 22.5 10Z" fill="#131331"/>
<path d="M17.0133 27L25.5 18.4911L24.0133 17L17.0133 24.0178L13.9867 20.9822L12.5 22.4734L17.0133 27Z" fill="white"/>
<path d="M50.9715 17.9782L50.1315 18.9582C49.5295 18.4542 48.7735 18.1042 47.7655 18.1042C45.9735 18.1042 44.5315 19.6302 44.5315 21.5202C44.5315 23.3962 45.9735 24.9222 47.8775 24.9222C48.7455 24.9222 49.5715 24.6282 50.1455 24.0962L50.9715 25.0202C50.1455 25.8322 49.1235 26.1682 47.7935 26.1682C45.1895 26.1682 43.1875 24.0822 43.1875 21.5202C43.1875 18.9442 45.2315 16.8582 47.7515 16.8582C49.1795 16.8582 50.1875 17.2642 50.9715 17.9782ZM52.4125 26.0002V16.3682H53.6445V20.3162C54.0225 19.5742 54.7365 19.1262 55.6745 19.1262C57.2425 19.1262 58.2645 20.2042 58.2645 21.8982V26.0002H57.0325V22.0942C57.0325 20.9882 56.3885 20.2882 55.3385 20.2882C54.2885 20.2882 53.6445 20.9882 53.6445 22.0942V26.0002H52.4125ZM63.4209 26.1682C61.3769 26.1682 59.9069 24.5862 59.9069 22.6402C59.9069 20.6942 61.3209 19.1262 63.2249 19.1262C65.1009 19.1262 66.5289 20.6242 66.5289 22.5142C66.5289 22.6822 66.5149 22.9342 66.4869 23.0322H61.1809C61.3349 24.1942 62.2169 25.0622 63.4629 25.0622C64.2189 25.0622 64.8909 24.7682 65.3389 24.3202L65.9969 25.1742C65.4509 25.7622 64.4989 26.1682 63.4209 26.1682ZM63.2389 20.1902C62.1889 20.1902 61.4329 20.9462 61.2089 22.0102H65.2269C65.0029 20.8482 64.2469 20.1902 63.2389 20.1902ZM72.9092 20.9462C72.4472 20.5262 71.8732 20.2882 71.1312 20.2882C69.8012 20.2882 68.8912 21.3242 68.8912 22.6402C68.8912 23.9422 69.8152 25.0062 71.1172 25.0062C71.8592 25.0062 72.4892 24.7682 72.9372 24.3202L73.5812 25.2302C73.0492 25.8042 72.1112 26.1682 71.0892 26.1682C69.1292 26.1682 67.6452 24.5862 67.6452 22.6402C67.6452 20.6942 69.1432 19.1262 71.1032 19.1262C72.1672 19.1262 73.0632 19.4902 73.6232 20.0642L72.9092 20.9462ZM76.1894 26.0002H74.9574V16.3682H76.1894V22.2202L79.3394 19.2942H80.9074L77.5334 22.4302L81.1454 26.0002H79.5214L76.1894 22.6822V26.0002ZM85.8422 19.1262C87.6622 19.1262 89.0902 20.6242 89.0902 22.6542C89.0902 24.6422 87.7182 26.1682 85.8422 26.1682C84.7922 26.1682 83.9942 25.6642 83.4902 24.8382V26.0002H82.2582V16.3682H83.4902V20.4982C83.9942 19.6722 84.7922 19.1262 85.8422 19.1262ZM85.6882 20.2882C84.4142 20.2882 83.4902 21.3522 83.4902 22.6542C83.4902 23.9702 84.4142 25.0062 85.6882 25.0062C86.9482 25.0062 87.8582 23.9702 87.8582 22.6542C87.8582 21.3522 86.9482 20.2882 85.6882 20.2882ZM93.7702 26.1682C91.8522 26.1682 90.3542 24.5862 90.3542 22.6402C90.3542 20.6942 91.8522 19.1262 93.7702 19.1262C95.7022 19.1262 97.2002 20.6942 97.2002 22.6402C97.2002 24.5862 95.7022 26.1682 93.7702 26.1682ZM93.7842 25.0062C95.0442 25.0062 95.9542 23.9422 95.9542 22.6402C95.9542 21.3242 95.0442 20.2882 93.7842 20.2882C92.5102 20.2882 91.6002 21.3242 91.6002 22.6402C91.6002 23.9422 92.5102 25.0062 93.7842 25.0062ZM97.6314 26.0002L100.222 22.5842L97.7434 19.2942H99.2834L101.033 21.6322L102.825 19.2942H104.225L101.748 22.5702L104.323 26.0002H102.783L100.921 23.5222L99.0314 26.0002H97.6314Z" fill="black"/>
</svg>
