<svg width="48" height="48" viewBox="0 0 48 48" fill="none" xmlns="http://www.w3.org/2000/svg">
<rect x="1" y="1" width="46" height="46" rx="23" fill="#A629E1"/>
<rect x="1" y="1" width="46" height="46" rx="23" stroke="#7D00B7" stroke-width="2"/>
<path d="M13.8016 34.8002V29.7002L29.6116 13.9202C29.8516 13.6802 30.1216 13.5002 30.4216 13.3802C30.7216 13.2602 31.0216 13.2002 31.3216 13.2002C31.6416 13.2002 31.9466 13.2602 32.2366 13.3802C32.5266 13.5002 32.7816 13.6802 33.0016 13.9202L34.6816 15.6002C34.9216 15.8202 35.1016 16.0752 35.2216 16.3652C35.3416 16.6552 35.4016 16.9602 35.4016 17.2802C35.4016 17.5802 35.3416 17.8802 35.2216 18.1802C35.1016 18.4802 34.9216 18.7502 34.6816 18.9902L18.9016 34.8002H13.8016ZM16.2016 32.4002H17.8816L29.6716 20.6402L28.8316 19.7702L27.9616 18.9302L16.2016 30.7202V32.4002ZM28.8316 19.7702L27.9616 18.9302L29.6716 20.6402L28.8316 19.7702ZM25.8016 34.8002C27.2816 34.8002 28.6516 34.4302 29.9116 33.6902C31.1716 32.9502 31.8016 31.9202 31.8016 30.6002C31.8016 29.8802 31.6116 29.2602 31.2316 28.7402C30.8516 28.2202 30.3416 27.7702 29.7016 27.3902L27.9316 29.1602C28.3916 29.3602 28.7516 29.5802 29.0116 29.8202C29.2716 30.0602 29.4016 30.3202 29.4016 30.6002C29.4016 31.0602 29.0366 31.4752 28.3066 31.8452C27.5766 32.2152 26.7416 32.4002 25.8016 32.4002C25.4616 32.4002 25.1766 32.5152 24.9466 32.7452C24.7166 32.9752 24.6016 33.2602 24.6016 33.6002C24.6016 33.9402 24.7166 34.2252 24.9466 34.4552C25.1766 34.6852 25.4616 34.8002 25.8016 34.8002ZM14.4916 25.6202L16.2916 23.8202C15.8916 23.6602 15.5766 23.4952 15.3466 23.3252C15.1166 23.1552 15.0016 22.9802 15.0016 22.8002C15.0016 22.5602 15.1816 22.3202 15.5416 22.0802C15.9016 21.8402 16.6616 21.4702 17.8216 20.9702C19.5816 20.2102 20.7516 19.5202 21.3316 18.9002C21.9116 18.2802 22.2016 17.5802 22.2016 16.8002C22.2016 15.7002 21.7616 14.8252 20.8816 14.1752C20.0016 13.5252 18.8416 13.2002 17.4016 13.2002C16.5016 13.2002 15.6966 13.3602 14.9866 13.6802C14.2766 14.0002 13.7316 14.3902 13.3516 14.8502C13.1316 15.1102 13.0416 15.4002 13.0816 15.7202C13.1216 16.0402 13.2716 16.3002 13.5316 16.5002C13.7916 16.7202 14.0816 16.8102 14.4016 16.7702C14.7216 16.7302 14.9916 16.6002 15.2116 16.3802C15.4916 16.1002 15.8016 15.9002 16.1416 15.7802C16.4816 15.6602 16.9016 15.6002 17.4016 15.6002C18.2216 15.6002 18.8266 15.7202 19.2166 15.9602C19.6066 16.2002 19.8016 16.4802 19.8016 16.8002C19.8016 17.0802 19.6266 17.3352 19.2766 17.5652C18.9266 17.7952 18.1216 18.2002 16.8616 18.7802C15.2616 19.4802 14.1516 20.1152 13.5316 20.6852C12.9116 21.2552 12.6016 21.9602 12.6016 22.8002C12.6016 23.4402 12.7716 23.9852 13.1116 24.4352C13.4516 24.8852 13.9116 25.2802 14.4916 25.6202Z" fill="white"/>
</svg>
