<svg width="48" height="48" viewBox="0 0 48 48" fill="none" xmlns="http://www.w3.org/2000/svg">
<rect x="1" y="1" width="46" height="46" rx="23" fill="#00853C"/>
<rect x="1" y="1" width="46" height="46" rx="23" stroke="#007032" stroke-width="2"/>
<path d="M15.6296 34.8002C14.6129 34.8002 13.8902 34.3452 13.4615 33.4352C13.0329 32.5252 13.1375 31.6802 13.7755 30.9002L20.4145 22.8002V15.6002H19.2183C18.8794 15.6002 18.5953 15.4852 18.366 15.2552C18.1367 15.0252 18.0221 14.7402 18.0221 14.4002C18.0221 14.0602 18.1367 13.7752 18.366 13.5452C18.5953 13.3152 18.8794 13.2002 19.2183 13.2002H28.788C29.1269 13.2002 29.411 13.3152 29.6403 13.5452C29.8695 13.7752 29.9842 14.0602 29.9842 14.4002C29.9842 14.7402 29.8695 15.0252 29.6403 15.2552C29.411 15.4852 29.1269 15.6002 28.788 15.6002H27.5918V22.8002L34.2307 30.9002C34.8687 31.6802 34.9734 32.5252 34.5447 33.4352C34.1161 34.3452 33.3934 34.8002 32.3766 34.8002H15.6296ZM18.0221 31.2002H29.9842L25.9171 26.4002H22.0892L18.0221 31.2002ZM15.6296 32.4002H32.3766L25.1993 23.6402V15.6002H22.8069V23.6402L15.6296 32.4002Z" fill="white"/>
</svg>
