<svg width="48" height="48" viewBox="0 0 48 48" fill="none" xmlns="http://www.w3.org/2000/svg">
<rect x="1" y="1" width="46" height="46" rx="23" fill="#F7D055"/>
<rect x="1" y="1" width="46" height="46" rx="23" stroke="#ECC036" stroke-width="2"/>
<path d="M24.0031 16.8C23.3431 16.8 22.7781 16.565 22.3081 16.095C21.8381 15.625 21.6031 15.06 21.6031 14.4C21.6031 13.74 21.8381 13.175 22.3081 12.705C22.7781 12.235 23.3431 12 24.0031 12C24.6631 12 25.2281 12.235 25.6981 12.705C26.1681 13.175 26.4031 13.74 26.4031 14.4C26.4031 15.06 26.1681 15.625 25.6981 16.095C25.2281 16.565 24.6631 16.8 24.0031 16.8ZM20.4031 36V20.4C19.2031 20.3 17.9831 20.15 16.7431 19.95C15.5031 19.75 14.3231 19.5 13.2031 19.2L13.8031 16.8C15.3631 17.22 17.0231 17.525 18.7831 17.715C20.5431 17.905 22.2831 18 24.0031 18C25.7231 18 27.4631 17.905 29.2231 17.715C30.9831 17.525 32.6431 17.22 34.2031 16.8L34.8031 19.2C33.6831 19.5 32.5031 19.75 31.2631 19.95C30.0231 20.15 28.8031 20.3 27.6031 20.4V36H25.2031V28.8H22.8031V36H20.4031Z" fill="black"/>
</svg>
