<svg width="40" height="40" viewBox="0 0 40 40" fill="none" xmlns="http://www.w3.org/2000/svg">
<path d="M39.6351 12.7392C38.9775 12.6878 38.313 12.6617 37.6425 12.6617C34.3076 12.6617 31.1212 13.317 28.1981 14.4956C28.1588 14.4051 28.1275 14.3246 28.1197 14.3038C26.6806 10.4454 24.342 6.95702 21.2676 4.15427L20.0003 3L18.7331 4.15427C15.6569 6.95725 13.3174 10.4469 11.8783 14.3071C11.8736 14.3199 11.852 14.3907 11.8205 14.4956C8.89224 13.3122 5.69945 12.6617 2.35742 12.6617C1.68694 12.6617 1.02245 12.6878 0.364944 12.7392C0.125436 13.9993 0 15.3009 0 16.6323C0 27.8811 8.95446 37 20.0003 37C22.7713 37 25.4112 36.4249 27.8106 35.3875C34.9752 32.2893 40 25.0587 40 16.6323C40 15.3009 39.8745 13.9993 39.6351 12.7392ZM15.3155 15.9968C16.3314 13.1417 17.9229 10.5145 20.0003 8.28922C22.077 10.5146 23.6683 13.1417 24.6841 15.9969C24.6933 16.0226 24.7215 16.1014 24.7536 16.1912C23.0319 17.2112 21.4373 18.4293 20 19.8148C18.5631 18.4298 16.9691 17.212 15.2482 16.1923C15.2828 16.0914 15.3089 16.0153 15.3155 15.9968ZM20.0004 33.1313C11.0526 33.1313 3.79923 25.7106 3.79923 16.5985C13.1802 17.2284 20.9481 23.8555 23.4209 32.762C22.3182 33.0033 21.1738 33.1313 20.0004 33.1313ZM27.013 31.5029C26.088 28.2584 24.5623 25.274 22.5666 22.683C26.1662 19.2007 30.9287 16.9525 36.2008 16.5985C36.2008 23.1521 32.4487 28.8307 27.013 31.5029Z" fill="#1A3673"/>
</svg>
