<svg width="40" height="40" viewBox="0 0 40 40" fill="none" xmlns="http://www.w3.org/2000/svg">
<path d="M12.7226 13.919H17.7817C17.7817 13.599 17.6298 13.3764 17.4621 13.1307C17.1659 12.6967 16.8206 12.1908 17.1769 10.9498C15.4608 11.3198 13.8385 12.4344 12.7226 13.919Z" fill="#1355E9"/>
<path d="M22.7517 10.9498C24.4725 11.3198 25.9354 12.6452 27.2107 13.919H22.1469C22.1469 13.6014 22.2982 13.3801 22.4655 13.1354C22.7619 12.7019 23.1084 12.1952 22.7517 10.9498Z" fill="#1355E9"/>
<path d="M10.683 17.8155C10.683 17.8155 15.789 18.2323 16.1126 18.2323V18.237C16.5345 18.2791 16.9003 18.326 16.5345 19.0238C16.1594 19.7169 12.7695 26.1143 12.7695 26.1143C11.1003 24.0302 10.0313 21.431 10.683 17.8155Z" fill="#1355E9"/>
<path d="M16.0235 28.5308C16.0235 28.5308 19.6431 22.8219 19.9667 22.8219C20.2902 22.8219 23.9145 28.5308 23.9145 28.5308C22.8455 29.0881 21.4952 29.3644 19.9667 29.3644C18.4381 29.3644 17.0878 29.0834 16.0235 28.5308Z" fill="#1355E9"/>
<path d="M23.8208 18.2323V18.2276C24.149 18.2276 29.255 17.8108 29.255 17.8108C29.902 21.4263 28.833 24.0255 27.1638 26.1096C27.1638 26.1096 23.7739 19.7122 23.4082 19.0191C23.0333 18.3217 23.4084 18.2791 23.8208 18.2323Z" fill="#1355E9"/>
<path fill-rule="evenodd" clip-rule="evenodd" d="M40 28.8721H28.8644L28.8675 40H11.1403V28.8721H0V11.1279H11.1403V0H28.8644V11.1279H40V28.8721ZM17.462 15.3521C18.1934 15.3568 18.7795 15.1461 19.1218 14.7902C19.5578 14.3452 19.5906 13.6755 18.9905 12.9403C17.9261 11.6383 18.8451 10.3926 19.9657 10.4347C21.0816 10.4815 22.0053 11.6383 20.9457 12.9403C20.3408 13.6755 20.3736 14.3406 20.8144 14.7902C21.152 15.1414 21.7427 15.3568 22.4742 15.3568H30.037C29.24 13.6334 28.9915 13.1744 27.6224 11.9942C25.8078 10.4254 22.4273 8.97822 20.0548 8.97822C17.0212 8.97822 14.2783 10.2099 12.2903 12.1956C11.3807 13.1042 10.6352 14.172 10.0867 15.3521H17.462ZM16.4357 22.4398C17.0536 21.2882 17.6034 20.2637 17.9215 19.6701C18.9858 17.675 17.823 16.8414 16.2523 16.7478C15.7177 16.7171 15.0612 16.6453 14.3132 16.5636C13.0076 16.421 11.423 16.2479 9.72093 16.2092C9.30364 17.3706 9.07389 18.6398 9.07389 19.9464C9.07389 23.4027 10.6774 26.489 13.1859 28.5028C13.6563 27.6194 15.1865 24.7677 16.4357 22.4398ZM26.1501 29.0741C26.1501 29.0741 21.2129 21.9415 20.941 21.4779C20.6597 21.0189 20.4252 20.7332 19.961 20.7332C19.4969 20.7332 19.2624 21.0142 18.9858 21.4779C18.742 21.8853 14.766 27.6551 13.8423 28.9945C15.6099 30.2122 17.748 30.9146 20.0548 30.9146C22.3616 30.9146 24.4106 30.2356 26.1501 29.0741ZM31.0357 19.9464C31.0357 18.6258 30.806 17.3613 30.3793 16.1905C28.607 16.2207 26.9556 16.4068 25.6052 16.559C24.8621 16.6427 24.2101 16.7162 23.6792 16.7478C22.0991 16.8414 20.941 17.6797 22.0006 19.6701C23.0743 21.6605 26.6424 28.3342 26.7831 28.6152C29.3712 26.606 31.0357 23.4729 31.0357 19.9511V19.9464Z" fill="#1355E9"/>
</svg>
