<svg width="40" height="34" viewBox="0 0 40 34" fill="none" xmlns="http://www.w3.org/2000/svg">
<path d="M39.6351 9.73923C38.9775 9.68783 38.313 9.66168 37.6425 9.66168C34.3076 9.66168 31.1212 10.317 28.1981 11.4956C28.1588 11.4051 28.1275 11.3246 28.1197 11.3038C26.6806 7.44545 24.342 3.95702 21.2676 1.15427L20.0003 0L18.7331 1.15427C15.6569 3.95725 13.3174 7.4469 11.8783 11.3071C11.8736 11.3199 11.852 11.3907 11.8205 11.4956C8.89224 10.3122 5.69945 9.66168 2.35742 9.66168C1.68694 9.66168 1.02245 9.68783 0.364944 9.73923C0.125436 10.9993 0 12.3009 0 13.6323C0 24.8811 8.95446 34 20.0003 34C22.7713 34 25.4112 33.4249 27.8106 32.3875C34.9752 29.2893 40 22.0587 40 13.6323C40 12.3009 39.8745 10.9993 39.6351 9.73923ZM15.3155 12.9968C16.3314 10.1417 17.9229 7.51455 20.0003 5.28922C22.077 7.51456 23.6683 10.1417 24.6841 12.9969C24.6933 13.0226 24.7215 13.1014 24.7536 13.1912C23.0319 14.2112 21.4373 15.4293 20 16.8148C18.5631 15.4298 16.9691 14.212 15.2482 13.1923C15.2828 13.0914 15.3089 13.0153 15.3155 12.9968ZM20.0004 30.1313C11.0526 30.1313 3.79923 22.7106 3.79923 13.5985C13.1802 14.2284 20.9481 20.8555 23.4209 29.762C22.3182 30.0033 21.1738 30.1313 20.0004 30.1313ZM27.013 28.5029C26.088 25.2584 24.5623 22.274 22.5666 19.683C26.1662 16.2007 30.9287 13.9525 36.2008 13.5985C36.2008 20.1521 32.4487 25.8307 27.013 28.5029Z" fill="#1A3673"/>
</svg>
