<svg width="174" height="52" viewBox="0 0 174 52" fill="none" xmlns="http://www.w3.org/2000/svg">
<path d="M21.8333 10H11.1667C5.27564 10 0.5 14.7756 0.5 20.6667V31.3333C0.5 37.2244 5.27564 42 11.1667 42H21.8333C27.7244 42 32.5 37.2244 32.5 31.3333V20.6667C32.5 14.7756 27.7244 10 21.8333 10Z" fill="#794CFF"/>
<path d="M14.5177 32.6668L25.8333 21.3217L23.851 19.3335L14.5177 28.6905L10.4823 24.6432L8.5 26.6313L14.5177 32.6668Z" fill="white"/>
<path d="M45.8594 30.9998V20.7598H48.9954C52.4034 20.7598 54.7714 22.8558 54.7714 25.8798C54.7714 28.9038 52.4674 30.9998 49.1394 30.9998H45.8594ZM49.0274 22.1198H47.3314V29.6398H49.0274C51.5714 29.6398 53.2354 28.1518 53.2354 25.8798C53.2354 23.6078 51.5714 22.1198 49.0274 22.1198ZM60.2979 31.1918C57.9619 31.1918 56.2819 29.3838 56.2819 27.1598C56.2819 24.9358 57.8979 23.1438 60.0739 23.1438C62.2179 23.1438 63.8499 24.8558 63.8499 27.0158C63.8499 27.2078 63.8339 27.4958 63.8019 27.6078H57.7379C57.9139 28.9358 58.9219 29.9278 60.3459 29.9278C61.2099 29.9278 61.9779 29.5918 62.4899 29.0798L63.2419 30.0558C62.6179 30.7278 61.5299 31.1918 60.2979 31.1918ZM60.0899 24.3598C58.8899 24.3598 58.0259 25.2238 57.7699 26.4398H62.3619C62.1059 25.1118 61.2419 24.3598 60.0899 24.3598ZM64.8857 24.5998V23.3358H66.0857V22.4558C66.0857 20.7598 67.0617 19.7998 68.5337 19.7998C69.4297 19.7998 70.0377 20.0718 70.4697 20.5358L69.7337 21.5758C69.4937 21.3198 69.0777 21.1278 68.6457 21.1278C67.9257 21.1278 67.5097 21.6078 67.5097 22.4718V23.3358H69.5417V24.5998H67.5097V30.9998H66.0857V24.5998H64.8857ZM73.822 31.1918C71.742 31.1918 70.11 29.4798 70.11 27.1598C70.11 24.8878 71.678 23.1438 73.822 23.1438C75.022 23.1438 75.934 23.7198 76.51 24.6638V23.3358H77.934V30.9998H76.51V29.6238C75.934 30.5678 75.022 31.1918 73.822 31.1918ZM74.03 29.8638C75.47 29.8638 76.51 28.6478 76.51 27.1598C76.51 25.6558 75.47 24.4718 74.03 24.4718C72.574 24.4718 71.534 25.6558 71.534 27.1598C71.534 28.6478 72.574 29.8638 74.03 29.8638ZM81.7785 23.3358V27.5758C81.7785 28.9198 82.5625 29.8158 83.7465 29.8158C84.9465 29.8158 85.7465 28.9198 85.7465 27.5758V23.3358H87.1705V27.6878C87.1705 29.7678 85.8105 31.1438 83.7465 31.1438C81.6985 31.1438 80.3545 29.7678 80.3545 27.6878V23.3358H81.7785ZM92.1035 29.7678L92.2635 31.0158C92.0235 31.0958 91.7195 31.1598 91.4795 31.1598C90.5195 31.1598 89.6075 30.5198 89.6075 28.9198V19.9918H91.0155V28.9358C91.0155 29.6078 91.3835 29.8478 91.7515 29.8478C91.8635 29.8478 91.9915 29.8158 92.1035 29.7678ZM93.2904 24.5998V23.3358H94.5544V21.4318H95.9784V23.3358H98.1544V24.5998H95.9944V28.6478C95.9944 29.4638 96.3624 29.8638 97.0504 29.8638C97.4344 29.8638 97.8184 29.7198 98.0424 29.4638L98.6984 30.5358C98.3304 30.8878 97.7064 31.1918 96.8584 31.1918C95.4184 31.1918 94.5544 30.3438 94.5544 28.6958V24.5998H93.2904ZM112.242 21.8318L111.282 22.9518C110.594 22.3758 109.73 21.9758 108.578 21.9758C106.53 21.9758 104.882 23.7198 104.882 25.8798C104.882 28.0238 106.53 29.7678 108.706 29.7678C109.698 29.7678 110.641 29.4318 111.298 28.8238L112.242 29.8798C111.298 30.8078 110.13 31.1918 108.61 31.1918C105.634 31.1918 103.346 28.8078 103.346 25.8798C103.346 22.9358 105.682 20.5518 108.562 20.5518C110.194 20.5518 111.346 21.0158 112.242 21.8318ZM113.888 30.9998V19.9918H115.296V24.5038C115.728 23.6558 116.544 23.1438 117.616 23.1438C119.408 23.1438 120.576 24.3758 120.576 26.3118V30.9998H119.168V26.5358C119.168 25.2718 118.432 24.4718 117.232 24.4718C116.032 24.4718 115.296 25.2718 115.296 26.5358V30.9998H113.888ZM126.469 31.1918C124.133 31.1918 122.453 29.3838 122.453 27.1598C122.453 24.9358 124.069 23.1438 126.245 23.1438C128.389 23.1438 130.021 24.8558 130.021 27.0158C130.021 27.2078 130.005 27.4958 129.973 27.6078H123.909C124.085 28.9358 125.093 29.9278 126.517 29.9278C127.381 29.9278 128.149 29.5918 128.661 29.0798L129.413 30.0558C128.789 30.7278 127.701 31.1918 126.469 31.1918ZM126.261 24.3598C125.061 24.3598 124.197 25.2238 123.941 26.4398H128.533C128.277 25.1118 127.413 24.3598 126.261 24.3598ZM137.313 25.2238C136.785 24.7438 136.129 24.4718 135.281 24.4718C133.761 24.4718 132.721 25.6558 132.721 27.1598C132.721 28.6478 133.777 29.8638 135.265 29.8638C136.113 29.8638 136.833 29.5918 137.345 29.0798L138.081 30.1198C137.473 30.7758 136.401 31.1918 135.233 31.1918C132.993 31.1918 131.297 29.3838 131.297 27.1598C131.297 24.9358 133.009 23.1438 135.249 23.1438C136.465 23.1438 137.489 23.5598 138.129 24.2158L137.313 25.2238ZM141.062 30.9998H139.654V19.9918H141.062V26.6798L144.662 23.3358H146.454L142.598 26.9198L146.726 30.9998H144.87L141.062 27.2078V30.9998ZM152.094 23.1438C154.174 23.1438 155.806 24.8558 155.806 27.1758C155.806 29.4478 154.238 31.1918 152.094 31.1918C150.894 31.1918 149.982 30.6158 149.406 29.6718V30.9998H147.998V19.9918H149.406V24.7118C149.982 23.7678 150.894 23.1438 152.094 23.1438ZM151.918 24.4718C150.462 24.4718 149.406 25.6878 149.406 27.1758C149.406 28.6798 150.462 29.8638 151.918 29.8638C153.358 29.8638 154.398 28.6798 154.398 27.1758C154.398 25.6878 153.358 24.4718 151.918 24.4718ZM161.154 31.1918C158.962 31.1918 157.25 29.3838 157.25 27.1598C157.25 24.9358 158.962 23.1438 161.154 23.1438C163.362 23.1438 165.074 24.9358 165.074 27.1598C165.074 29.3838 163.362 31.1918 161.154 31.1918ZM161.17 29.8638C162.61 29.8638 163.65 28.6478 163.65 27.1598C163.65 25.6558 162.61 24.4718 161.17 24.4718C159.714 24.4718 158.674 25.6558 158.674 27.1598C158.674 28.6478 159.714 29.8638 161.17 29.8638ZM165.567 30.9998L168.527 27.0958L165.695 23.3358H167.455L169.455 26.0078L171.503 23.3358H173.103L170.271 27.0798L173.215 30.9998H171.455L169.327 28.1678L167.167 30.9998H165.567Z" fill="black"/>
</svg>
