<svg width="100" height="72" viewBox="0 0 100 72" fill="none" xmlns="http://www.w3.org/2000/svg">
<path d="M16.5 11H8.5C4.63401 11 1.5 14.134 1.5 18V26C1.5 29.866 4.63401 33 8.5 33H16.5C20.366 33 23.5 29.866 23.5 26V18C23.5 14.134 20.366 11 16.5 11Z" fill="white"/>
<path d="M16.5 11H8.5C4.63401 11 1.5 14.134 1.5 18V26C1.5 29.866 4.63401 33 8.5 33H16.5C20.366 33 23.5 29.866 23.5 26V18C23.5 14.134 20.366 11 16.5 11Z" stroke="#5D5D5D" stroke-width="2"/>
<path d="M44.9715 17.9782L44.1315 18.9582C43.5295 18.4542 42.7735 18.1042 41.7655 18.1042C39.9735 18.1042 38.5315 19.6302 38.5315 21.5202C38.5315 23.3962 39.9735 24.9222 41.8775 24.9222C42.7455 24.9222 43.5715 24.6282 44.1455 24.0962L44.9715 25.0202C44.1455 25.8322 43.1235 26.1682 41.7935 26.1682C39.1895 26.1682 37.1875 24.0822 37.1875 21.5202C37.1875 18.9442 39.2315 16.8582 41.7515 16.8582C43.1795 16.8582 44.1875 17.2642 44.9715 17.9782ZM46.4125 26.0002V16.3682H47.6445V20.3162C48.0225 19.5742 48.7365 19.1262 49.6745 19.1262C51.2425 19.1262 52.2645 20.2042 52.2645 21.8982V26.0002H51.0325V22.0942C51.0325 20.9882 50.3885 20.2882 49.3385 20.2882C48.2885 20.2882 47.6445 20.9882 47.6445 22.0942V26.0002H46.4125ZM57.4209 26.1682C55.3769 26.1682 53.9069 24.5862 53.9069 22.6402C53.9069 20.6942 55.3209 19.1262 57.2249 19.1262C59.1009 19.1262 60.5289 20.6242 60.5289 22.5142C60.5289 22.6822 60.5149 22.9342 60.4869 23.0322H55.1809C55.3349 24.1942 56.2169 25.0622 57.4629 25.0622C58.2189 25.0622 58.8909 24.7682 59.3389 24.3202L59.9969 25.1742C59.4509 25.7622 58.4989 26.1682 57.4209 26.1682ZM57.2389 20.1902C56.1889 20.1902 55.4329 20.9462 55.2089 22.0102H59.2269C59.0029 20.8482 58.2469 20.1902 57.2389 20.1902ZM66.9092 20.9462C66.4472 20.5262 65.8732 20.2882 65.1312 20.2882C63.8012 20.2882 62.8912 21.3242 62.8912 22.6402C62.8912 23.9422 63.8152 25.0062 65.1172 25.0062C65.8592 25.0062 66.4892 24.7682 66.9372 24.3202L67.5812 25.2302C67.0492 25.8042 66.1112 26.1682 65.0892 26.1682C63.1292 26.1682 61.6452 24.5862 61.6452 22.6402C61.6452 20.6942 63.1432 19.1262 65.1032 19.1262C66.1672 19.1262 67.0632 19.4902 67.6232 20.0642L66.9092 20.9462ZM70.1894 26.0002H68.9574V16.3682H70.1894V22.2202L73.3394 19.2942H74.9074L71.5334 22.4302L75.1454 26.0002H73.5214L70.1894 22.6822V26.0002ZM79.8422 19.1262C81.6622 19.1262 83.0902 20.6242 83.0902 22.6542C83.0902 24.6422 81.7182 26.1682 79.8422 26.1682C78.7922 26.1682 77.9942 25.6642 77.4902 24.8382V26.0002H76.2582V16.3682H77.4902V20.4982C77.9942 19.6722 78.7922 19.1262 79.8422 19.1262ZM79.6882 20.2882C78.4142 20.2882 77.4902 21.3522 77.4902 22.6542C77.4902 23.9702 78.4142 25.0062 79.6882 25.0062C80.9482 25.0062 81.8582 23.9702 81.8582 22.6542C81.8582 21.3522 80.9482 20.2882 79.6882 20.2882ZM87.7702 26.1682C85.8522 26.1682 84.3542 24.5862 84.3542 22.6402C84.3542 20.6942 85.8522 19.1262 87.7702 19.1262C89.7022 19.1262 91.2002 20.6942 91.2002 22.6402C91.2002 24.5862 89.7022 26.1682 87.7702 26.1682ZM87.7842 25.0062C89.0442 25.0062 89.9542 23.9422 89.9542 22.6402C89.9542 21.3242 89.0442 20.2882 87.7842 20.2882C86.5102 20.2882 85.6002 21.3242 85.6002 22.6402C85.6002 23.9422 86.5102 25.0062 87.7842 25.0062ZM91.6314 26.0002L94.2214 22.5842L91.7434 19.2942H93.2834L95.0334 21.6322L96.8254 19.2942H98.2254L95.7474 22.5702L98.3234 26.0002H96.7834L94.9214 23.5222L93.0314 26.0002H91.6314Z" fill="black"/>
<path d="M16.5 39H8.5C4.63401 39 1.5 42.134 1.5 46V54C1.5 57.866 4.63401 61 8.5 61H16.5C20.366 61 23.5 57.866 23.5 54V46C23.5 42.134 20.366 39 16.5 39Z" fill="white"/>
<path d="M16.5 39H8.5C4.63401 39 1.5 42.134 1.5 46V54C1.5 57.866 4.63401 61 8.5 61H16.5C20.366 61 23.5 57.866 23.5 54V46C23.5 42.134 20.366 39 16.5 39Z" stroke="#5D5D5D" stroke-width="2"/>
<path d="M44.9715 45.9782L44.1315 46.9582C43.5295 46.4542 42.7735 46.1042 41.7655 46.1042C39.9735 46.1042 38.5315 47.6302 38.5315 49.5202C38.5315 51.3962 39.9735 52.9222 41.8775 52.9222C42.7455 52.9222 43.5715 52.6282 44.1455 52.0962L44.9715 53.0202C44.1455 53.8322 43.1235 54.1682 41.7935 54.1682C39.1895 54.1682 37.1875 52.0822 37.1875 49.5202C37.1875 46.9442 39.2315 44.8582 41.7515 44.8582C43.1795 44.8582 44.1875 45.2642 44.9715 45.9782ZM46.4125 54.0002V44.3682H47.6445V48.3162C48.0225 47.5742 48.7365 47.1262 49.6745 47.1262C51.2425 47.1262 52.2645 48.2042 52.2645 49.8982V54.0002H51.0325V50.0942C51.0325 48.9882 50.3885 48.2882 49.3385 48.2882C48.2885 48.2882 47.6445 48.9882 47.6445 50.0942V54.0002H46.4125ZM57.4209 54.1682C55.3769 54.1682 53.9069 52.5862 53.9069 50.6402C53.9069 48.6942 55.3209 47.1262 57.2249 47.1262C59.1009 47.1262 60.5289 48.6242 60.5289 50.5142C60.5289 50.6822 60.5149 50.9342 60.4869 51.0322H55.1809C55.3349 52.1942 56.2169 53.0622 57.4629 53.0622C58.2189 53.0622 58.8909 52.7682 59.3389 52.3202L59.9969 53.1742C59.4509 53.7622 58.4989 54.1682 57.4209 54.1682ZM57.2389 48.1902C56.1889 48.1902 55.4329 48.9462 55.2089 50.0102H59.2269C59.0029 48.8482 58.2469 48.1902 57.2389 48.1902ZM66.9092 48.9462C66.4472 48.5262 65.8732 48.2882 65.1312 48.2882C63.8012 48.2882 62.8912 49.3242 62.8912 50.6402C62.8912 51.9422 63.8152 53.0062 65.1172 53.0062C65.8592 53.0062 66.4892 52.7682 66.9372 52.3202L67.5812 53.2302C67.0492 53.8042 66.1112 54.1682 65.0892 54.1682C63.1292 54.1682 61.6452 52.5862 61.6452 50.6402C61.6452 48.6942 63.1432 47.1262 65.1032 47.1262C66.1672 47.1262 67.0632 47.4902 67.6232 48.0642L66.9092 48.9462ZM70.1894 54.0002H68.9574V44.3682H70.1894V50.2202L73.3394 47.2942H74.9074L71.5334 50.4302L75.1454 54.0002H73.5214L70.1894 50.6822V54.0002ZM79.8422 47.1262C81.6622 47.1262 83.0902 48.6242 83.0902 50.6542C83.0902 52.6422 81.7182 54.1682 79.8422 54.1682C78.7922 54.1682 77.9942 53.6642 77.4902 52.8382V54.0002H76.2582V44.3682H77.4902V48.4982C77.9942 47.6722 78.7922 47.1262 79.8422 47.1262ZM79.6882 48.2882C78.4142 48.2882 77.4902 49.3522 77.4902 50.6542C77.4902 51.9702 78.4142 53.0062 79.6882 53.0062C80.9482 53.0062 81.8582 51.9702 81.8582 50.6542C81.8582 49.3522 80.9482 48.2882 79.6882 48.2882ZM87.7702 54.1682C85.8522 54.1682 84.3542 52.5862 84.3542 50.6402C84.3542 48.6942 85.8522 47.1262 87.7702 47.1262C89.7022 47.1262 91.2002 48.6942 91.2002 50.6402C91.2002 52.5862 89.7022 54.1682 87.7702 54.1682ZM87.7842 53.0062C89.0442 53.0062 89.9542 51.9422 89.9542 50.6402C89.9542 49.3242 89.0442 48.2882 87.7842 48.2882C86.5102 48.2882 85.6002 49.3242 85.6002 50.6402C85.6002 51.9422 86.5102 53.0062 87.7842 53.0062ZM91.6314 54.0002L94.2214 50.5842L91.7434 47.2942H93.2834L95.0334 49.6322L96.8254 47.2942H98.2254L95.7474 50.5702L98.3234 54.0002H96.7834L94.9214 51.5222L93.0314 54.0002H91.6314Z" fill="black"/>
</svg>
