<svg width="233" height="96" viewBox="0 0 233 96" fill="none" xmlns="http://www.w3.org/2000/svg">
<g clip-path="url(#clip0_6343_38674)">
<path d="M16 1H8C4.13401 1 1 4.13401 1 8V16C1 19.866 4.13401 23 8 23H16C19.866 23 23 19.866 23 16V8C23 4.13401 19.866 1 16 1Z" fill="#BBAFE9"/>
<path d="M16 1H8C4.13401 1 1 4.13401 1 8V16C1 19.866 4.13401 23 8 23H16C19.866 23 23 19.866 23 16V8C23 4.13401 19.866 1 16 1Z" stroke="#733AC4" stroke-width="2"/>
<path d="M37.1914 16.0002V7.0402H39.9354C42.9174 7.0402 44.9894 8.8742 44.9894 11.5202C44.9894 14.1662 42.9734 16.0002 40.0614 16.0002H37.1914ZM39.9634 8.2302H38.4794V14.8102H39.9634C42.1894 14.8102 43.6454 13.5082 43.6454 11.5202C43.6454 9.5322 42.1894 8.2302 39.9634 8.2302ZM49.8251 16.1682C47.7811 16.1682 46.3111 14.5862 46.3111 12.6402C46.3111 10.6942 47.7251 9.1262 49.6291 9.1262C51.5051 9.1262 52.9331 10.6242 52.9331 12.5142C52.9331 12.6822 52.9191 12.9342 52.8911 13.0322H47.5851C47.7391 14.1942 48.6211 15.0622 49.8671 15.0622C50.6231 15.0622 51.2951 14.7682 51.7431 14.3202L52.4011 15.1742C51.8551 15.7622 50.9031 16.1682 49.8251 16.1682ZM49.6431 10.1902C48.5931 10.1902 47.8371 10.9462 47.6131 12.0102H51.6311C51.4071 10.8482 50.6511 10.1902 49.6431 10.1902ZM53.8394 10.4002V9.2942H54.8894V8.5242C54.8894 7.0402 55.7434 6.2002 57.0314 6.2002C57.8154 6.2002 58.3474 6.4382 58.7254 6.8442L58.0814 7.7542C57.8714 7.5302 57.5074 7.3622 57.1294 7.3622C56.4994 7.3622 56.1354 7.7822 56.1354 8.5382V9.2942H57.9134V10.4002H56.1354V16.0002H54.8894V10.4002H53.8394ZM61.6587 16.1682C59.8387 16.1682 58.4107 14.6702 58.4107 12.6402C58.4107 10.6522 59.7827 9.1262 61.6587 9.1262C62.7087 9.1262 63.5067 9.6302 64.0107 10.4562V9.2942H65.2567V16.0002H64.0107V14.7962C63.5067 15.6222 62.7087 16.1682 61.6587 16.1682ZM61.8407 15.0062C63.1007 15.0062 64.0107 13.9422 64.0107 12.6402C64.0107 11.3242 63.1007 10.2882 61.8407 10.2882C60.5667 10.2882 59.6567 11.3242 59.6567 12.6402C59.6567 13.9422 60.5667 15.0062 61.8407 15.0062ZM68.6206 9.2942V13.0042C68.6206 14.1802 69.3066 14.9642 70.3426 14.9642C71.3926 14.9642 72.0926 14.1802 72.0926 13.0042V9.2942H73.3386V13.1022C73.3386 14.9222 72.1486 16.1262 70.3426 16.1262C68.5506 16.1262 67.3746 14.9222 67.3746 13.1022V9.2942H68.6206ZM77.655 14.9222L77.795 16.0142C77.585 16.0842 77.319 16.1402 77.109 16.1402C76.269 16.1402 75.471 15.5802 75.471 14.1802V6.3682H76.703V14.1942C76.703 14.7822 77.025 14.9922 77.347 14.9922C77.445 14.9922 77.557 14.9642 77.655 14.9222ZM78.6935 10.4002V9.2942H79.7995V7.6282H81.0455V9.2942H82.9495V10.4002H81.0595V13.9422C81.0595 14.6562 81.3815 15.0062 81.9835 15.0062C82.3195 15.0062 82.6555 14.8802 82.8515 14.6562L83.4255 15.5942C83.1035 15.9022 82.5575 16.1682 81.8155 16.1682C80.5555 16.1682 79.7995 15.4262 79.7995 13.9842V10.4002H78.6935ZM87.9261 16.0002V6.3682H89.1581V10.3162C89.5361 9.5742 90.2501 9.1262 91.1881 9.1262C92.7561 9.1262 93.7781 10.2042 93.7781 11.8982V16.0002H92.5461V12.0942C92.5461 10.9882 91.9021 10.2882 90.8521 10.2882C89.8021 10.2882 89.1581 10.9882 89.1581 12.0942V16.0002H87.9261ZM98.8365 16.1682C96.9185 16.1682 95.4205 14.5862 95.4205 12.6402C95.4205 10.6942 96.9185 9.1262 98.8365 9.1262C100.768 9.1262 102.266 10.6942 102.266 12.6402C102.266 14.5862 100.768 16.1682 98.8365 16.1682ZM98.8505 15.0062C100.11 15.0062 101.02 13.9422 101.02 12.6402C101.02 11.3242 100.11 10.2882 98.8505 10.2882C97.5765 10.2882 96.6665 11.3242 96.6665 12.6402C96.6665 13.9422 97.5765 15.0062 98.8505 15.0062ZM106.992 16.0002H105.382L102.848 9.2942H104.22L106.222 14.8802L108.252 9.2942H109.526L106.992 16.0002ZM113.618 16.1682C111.574 16.1682 110.104 14.5862 110.104 12.6402C110.104 10.6942 111.518 9.1262 113.422 9.1262C115.298 9.1262 116.726 10.6242 116.726 12.5142C116.726 12.6822 116.712 12.9342 116.684 13.0322H111.378C111.532 14.1942 112.414 15.0622 113.66 15.0622C114.416 15.0622 115.088 14.7682 115.536 14.3202L116.194 15.1742C115.648 15.7622 114.696 16.1682 113.618 16.1682ZM113.436 10.1902C112.386 10.1902 111.63 10.9462 111.406 12.0102H115.424C115.2 10.8482 114.444 10.1902 113.436 10.1902ZM118.332 16.0002V9.2942H119.564V10.2462C119.9 9.5462 120.474 9.1262 121.258 9.1262C121.678 9.1262 122.042 9.2242 122.28 9.4202L121.762 10.5822C121.538 10.4282 121.216 10.3162 120.894 10.3162C120.082 10.3162 119.564 11.0162 119.564 12.1362V16.0002H118.332Z" fill="black"/>
<path d="M16 36H8C3.58172 36 0 39.5817 0 44V52C0 56.4183 3.58172 60 8 60H16C20.4183 60 24 56.4183 24 52V44C24 39.5817 20.4183 36 16 36Z" fill="#794CFF"/>
<path d="M10.5133 53L19 44.4911L17.5133 43L10.5133 50.0178L7.48673 46.9822L6 48.4734L10.5133 53Z" fill="white"/>
<path d="M44.4715 43.9782L43.6315 44.9582C43.0295 44.4542 42.2735 44.1042 41.2655 44.1042C39.4735 44.1042 38.0315 45.6302 38.0315 47.5202C38.0315 49.3962 39.4735 50.9222 41.3775 50.9222C42.2455 50.9222 43.0715 50.6282 43.6455 50.0962L44.4715 51.0202C43.6455 51.8322 42.6235 52.1682 41.2935 52.1682C38.6895 52.1682 36.6875 50.0822 36.6875 47.5202C36.6875 44.9442 38.7315 42.8582 41.2515 42.8582C42.6795 42.8582 43.6875 43.2642 44.4715 43.9782ZM45.9125 52.0002V42.3682H47.1445V46.3162C47.5225 45.5742 48.2365 45.1262 49.1745 45.1262C50.7425 45.1262 51.7645 46.2042 51.7645 47.8982V52.0002H50.5325V48.0942C50.5325 46.9882 49.8885 46.2882 48.8385 46.2882C47.7885 46.2882 47.1445 46.9882 47.1445 48.0942V52.0002H45.9125ZM56.9209 52.1682C54.8769 52.1682 53.4069 50.5862 53.4069 48.6402C53.4069 46.6942 54.8209 45.1262 56.7249 45.1262C58.6009 45.1262 60.0289 46.6242 60.0289 48.5142C60.0289 48.6822 60.0149 48.9342 59.9869 49.0322H54.6809C54.8349 50.1942 55.7169 51.0622 56.9629 51.0622C57.7189 51.0622 58.3909 50.7682 58.8389 50.3202L59.4969 51.1742C58.9509 51.7622 57.9989 52.1682 56.9209 52.1682ZM56.7389 46.1902C55.6889 46.1902 54.9329 46.9462 54.7089 48.0102H58.7269C58.5029 46.8482 57.7469 46.1902 56.7389 46.1902ZM66.4092 46.9462C65.9472 46.5262 65.3732 46.2882 64.6312 46.2882C63.3012 46.2882 62.3912 47.3242 62.3912 48.6402C62.3912 49.9422 63.3152 51.0062 64.6172 51.0062C65.3592 51.0062 65.9892 50.7682 66.4372 50.3202L67.0812 51.2302C66.5492 51.8042 65.6112 52.1682 64.5892 52.1682C62.6292 52.1682 61.1452 50.5862 61.1452 48.6402C61.1452 46.6942 62.6432 45.1262 64.6032 45.1262C65.6672 45.1262 66.5632 45.4902 67.1232 46.0642L66.4092 46.9462ZM69.6894 52.0002H68.4574V42.3682H69.6894V48.2202L72.8394 45.2942H74.4074L71.0334 48.4302L74.6454 52.0002H73.0214L69.6894 48.6822V52.0002ZM78.1807 52.1682C76.1367 52.1682 74.6667 50.5862 74.6667 48.6402C74.6667 46.6942 76.0807 45.1262 77.9847 45.1262C79.8607 45.1262 81.2887 46.6242 81.2887 48.5142C81.2887 48.6822 81.2747 48.9342 81.2467 49.0322H75.9407C76.0947 50.1942 76.9767 51.0622 78.2227 51.0622C78.9787 51.0622 79.6507 50.7682 80.0987 50.3202L80.7567 51.1742C80.2107 51.7622 79.2587 52.1682 78.1807 52.1682ZM77.9987 46.1902C76.9487 46.1902 76.1927 46.9462 75.9687 48.0102H79.9867C79.7627 46.8482 79.0067 46.1902 77.9987 46.1902ZM85.6529 52.1682C83.8329 52.1682 82.4049 50.6702 82.4049 48.6402C82.4049 46.6522 83.7769 45.1262 85.6529 45.1262C86.7029 45.1262 87.5009 45.6302 88.0049 46.4562V42.3682H89.2509V52.0002H88.0049V50.7962C87.5009 51.6222 86.7029 52.1682 85.6529 52.1682ZM85.8349 51.0062C87.0949 51.0062 88.0049 49.9422 88.0049 48.6402C88.0049 47.3242 87.0949 46.2882 85.8349 46.2882C84.5609 46.2882 83.6509 47.3242 83.6509 48.6402C83.6509 49.9422 84.5609 51.0062 85.8349 51.0062ZM96.5428 52.1682C95.5488 52.1682 94.6528 51.9022 93.9668 51.4962L94.4428 50.4742C95.1988 50.8662 95.8568 51.0902 96.6268 51.0902C97.5648 51.0902 98.0128 50.7262 98.0128 50.1942C98.0128 48.6682 94.2048 49.5922 94.2048 47.0022C94.2048 46.0082 95.1008 45.1262 96.7248 45.1262C97.6348 45.1262 98.3488 45.3502 99.0768 45.7002L98.5868 46.7222C98.1108 46.4562 97.4248 46.2182 96.7808 46.2182C95.9548 46.2182 95.4648 46.4982 95.4648 46.9882C95.4648 48.5282 99.2448 47.6182 99.2448 50.1662C99.2448 51.3142 98.2508 52.1682 96.5428 52.1682ZM100.131 46.4002V45.2942H101.238V43.6282H102.484V45.2942H104.387V46.4002H102.497V49.9422C102.497 50.6562 102.819 51.0062 103.421 51.0062C103.757 51.0062 104.094 50.8802 104.29 50.6562L104.863 51.5942C104.541 51.9022 103.995 52.1682 103.253 52.1682C101.993 52.1682 101.238 51.4262 101.238 49.9842V46.4002H100.131ZM108.581 52.1682C106.761 52.1682 105.333 50.6702 105.333 48.6402C105.333 46.6522 106.705 45.1262 108.581 45.1262C109.631 45.1262 110.428 45.6302 110.932 46.4562V45.2942H112.178V52.0002H110.932V50.7962C110.428 51.6222 109.631 52.1682 108.581 52.1682ZM108.762 51.0062C110.022 51.0062 110.932 49.9422 110.932 48.6402C110.932 47.3242 110.022 46.2882 108.762 46.2882C107.488 46.2882 106.579 47.3242 106.579 48.6402C106.579 49.9422 107.488 51.0062 108.762 51.0062ZM113.652 46.4002V45.2942H114.758V43.6282H116.005V45.2942H117.908V46.4002H116.018V49.9422C116.018 50.6562 116.341 51.0062 116.943 51.0062C117.279 51.0062 117.615 50.8802 117.811 50.6562L118.385 51.5942C118.063 51.9022 117.517 52.1682 116.775 52.1682C115.515 52.1682 114.758 51.4262 114.758 49.9842V46.4002H113.652ZM122.368 52.1682C120.324 52.1682 118.854 50.5862 118.854 48.6402C118.854 46.6942 120.269 45.1262 122.173 45.1262C124.049 45.1262 125.477 46.6242 125.477 48.5142C125.477 48.6822 125.462 48.9342 125.434 49.0322H120.128C120.282 50.1942 121.164 51.0622 122.41 51.0622C123.166 51.0622 123.838 50.7682 124.286 50.3202L124.945 51.1742C124.399 51.7622 123.446 52.1682 122.368 52.1682ZM122.186 46.1902C121.136 46.1902 120.38 46.9462 120.156 48.0102H124.174C123.95 46.8482 123.194 46.1902 122.186 46.1902ZM133.026 52.0002H131.612L129.456 45.2942H130.786L132.34 50.6142L134.02 45.2942H135.378L137.072 50.6282L138.641 45.2942H139.97L137.814 52.0002H136.274L134.636 46.8762L133.026 52.0002ZM142.012 44.1322C141.578 44.1322 141.242 43.7822 141.242 43.3622C141.242 42.9422 141.578 42.5922 142.012 42.5922C142.432 42.5922 142.783 42.9422 142.783 43.3622C142.783 43.7822 142.432 44.1322 142.012 44.1322ZM142.628 52.0002H141.396V45.2942H142.628V52.0002ZM144.113 46.4002V45.2942H145.219V43.6282H146.465V45.2942H148.369V46.4002H146.479V49.9422C146.479 50.6562 146.801 51.0062 147.403 51.0062C147.739 51.0062 148.075 50.8802 148.271 50.6562L148.845 51.5942C148.523 51.9022 147.977 52.1682 147.235 52.1682C145.975 52.1682 145.219 51.4262 145.219 49.9842V46.4002H144.113ZM150.174 52.0002V42.3682H151.406V46.3162C151.784 45.5742 152.498 45.1262 153.436 45.1262C155.004 45.1262 156.026 46.2042 156.026 47.8982V52.0002H154.794V48.0942C154.794 46.9882 154.15 46.2882 153.1 46.2882C152.05 46.2882 151.406 46.9882 151.406 48.0942V52.0002H150.174ZM161.33 52.0002V42.3682H162.562V46.3162C162.94 45.5742 163.654 45.1262 164.592 45.1262C166.16 45.1262 167.182 46.2042 167.182 47.8982V52.0002H165.951V48.0942C165.951 46.9882 165.307 46.2882 164.257 46.2882C163.207 46.2882 162.562 46.9882 162.562 48.0942V52.0002H161.33ZM172.24 52.1682C170.322 52.1682 168.824 50.5862 168.824 48.6402C168.824 46.6942 170.322 45.1262 172.24 45.1262C174.172 45.1262 175.671 46.6942 175.671 48.6402C175.671 50.5862 174.172 52.1682 172.24 52.1682ZM172.255 51.0062C173.515 51.0062 174.424 49.9422 174.424 48.6402C174.424 47.3242 173.515 46.2882 172.255 46.2882C170.981 46.2882 170.07 47.3242 170.07 48.6402C170.07 49.9422 170.981 51.0062 172.255 51.0062ZM180.396 52.0002H178.786L176.253 45.2942H177.624L179.626 50.8802L181.656 45.2942H182.93L180.396 52.0002ZM187.022 52.1682C184.978 52.1682 183.508 50.5862 183.508 48.6402C183.508 46.6942 184.922 45.1262 186.826 45.1262C188.702 45.1262 190.13 46.6242 190.13 48.5142C190.13 48.6822 190.117 48.9342 190.089 49.0322H184.783C184.937 50.1942 185.818 51.0622 187.064 51.0622C187.82 51.0622 188.492 50.7682 188.94 50.3202L189.598 51.1742C189.052 51.7622 188.1 52.1682 187.022 52.1682ZM186.84 46.1902C185.79 46.1902 185.035 46.9462 184.811 48.0102H188.828C188.604 46.8482 187.848 46.1902 186.84 46.1902ZM191.736 52.0002V45.2942H192.968V46.2462C193.304 45.5462 193.878 45.1262 194.662 45.1262C195.082 45.1262 195.446 45.2242 195.684 45.4202L195.166 46.5822C194.942 46.4282 194.62 46.3162 194.298 46.3162C193.486 46.3162 192.968 47.0162 192.968 48.1362V52.0002H191.736Z" fill="black"/>
<path d="M16 72H8C3.58172 72 0 75.5817 0 80V88C0 92.4183 3.58172 96 8 96H16C20.4183 96 24 92.4183 24 88V80C24 75.5817 20.4183 72 16 72Z" fill="#794CFF"/>
<path d="M18 83H6V85H18V83Z" fill="white"/>
<path d="M37.1914 88.0002V79.0262H38.4514V88.0002H37.1914ZM40.7581 88.0002V81.2942H41.9901V82.3162C42.3681 81.5742 43.0821 81.1262 44.0201 81.1262C45.5881 81.1262 46.6101 82.2042 46.6101 83.8982V88.0002H45.3781V84.0942C45.3781 82.9882 44.7341 82.2882 43.6841 82.2882C42.6341 82.2882 41.9901 82.9882 41.9901 84.0942V88.0002H40.7581ZM51.5005 88.1682C49.6805 88.1682 48.2525 86.6702 48.2525 84.6402C48.2525 82.6522 49.6245 81.1262 51.5005 81.1262C52.5505 81.1262 53.3485 81.6302 53.8525 82.4562V78.3682H55.0985V88.0002H53.8525V86.7962C53.3485 87.6222 52.5505 88.1682 51.5005 88.1682ZM51.6825 87.0062C52.9425 87.0062 53.8525 85.9422 53.8525 84.6402C53.8525 83.3242 52.9425 82.2882 51.6825 82.2882C50.4085 82.2882 49.4985 83.3242 49.4985 84.6402C49.4985 85.9422 50.4085 87.0062 51.6825 87.0062ZM60.3524 88.1682C58.3084 88.1682 56.8384 86.5862 56.8384 84.6402C56.8384 82.6942 58.2524 81.1262 60.1564 81.1262C62.0324 81.1262 63.4604 82.6242 63.4604 84.5142C63.4604 84.6822 63.4464 84.9342 63.4184 85.0322H58.1124C58.2664 86.1942 59.1484 87.0622 60.3944 87.0622C61.1504 87.0622 61.8224 86.7682 62.2704 86.3202L62.9284 87.1742C62.3824 87.7622 61.4304 88.1682 60.3524 88.1682ZM60.1704 82.1902C59.1204 82.1902 58.3644 82.9462 58.1404 84.0102H62.1584C61.9344 82.8482 61.1784 82.1902 60.1704 82.1902ZM64.3107 82.4002V81.2942H65.4167V79.6282H66.6627V81.2942H68.5667V82.4002H66.6767V85.9422C66.6767 86.6562 66.9987 87.0062 67.6007 87.0062C67.9367 87.0062 68.2727 86.8802 68.4687 86.6562L69.0427 87.5942C68.7207 87.9022 68.1747 88.1682 67.4327 88.1682C66.1727 88.1682 65.4167 87.4262 65.4167 85.9842V82.4002H64.3107ZM73.0263 88.1682C70.9823 88.1682 69.5123 86.5862 69.5123 84.6402C69.5123 82.6942 70.9263 81.1262 72.8303 81.1262C74.7063 81.1262 76.1343 82.6242 76.1343 84.5142C76.1343 84.6822 76.1203 84.9342 76.0923 85.0322H70.7863C70.9403 86.1942 71.8223 87.0622 73.0683 87.0622C73.8243 87.0622 74.4963 86.7682 74.9443 86.3202L75.6023 87.1742C75.0563 87.7622 74.1043 88.1682 73.0263 88.1682ZM72.8443 82.1902C71.7943 82.1902 71.0383 82.9462 70.8143 84.0102H74.8323C74.6083 82.8482 73.8523 82.1902 72.8443 82.1902ZM77.7405 88.0002V81.2942H78.9725V82.2462C79.3085 81.5462 79.8825 81.1262 80.6665 81.1262C81.0865 81.1262 81.4505 81.2242 81.6885 81.4202L81.1705 82.5822C80.9465 82.4282 80.6245 82.3162 80.3025 82.3162C79.4905 82.3162 78.9725 83.0162 78.9725 84.1362V88.0002H77.7405ZM84.2362 88.0002H83.0042V81.2942H84.2362V82.3582C84.6002 81.6022 85.3002 81.1262 86.2102 81.1262C87.2882 81.1262 88.1002 81.6722 88.4782 82.6102C88.8002 81.7422 89.5282 81.1262 90.6062 81.1262C92.1602 81.1262 93.1682 82.1762 93.1682 83.8982V88.0002H91.9222V84.0942C91.9222 82.9882 91.3202 82.2882 90.3122 82.2882C89.3182 82.2882 88.7022 82.9882 88.7022 84.0942V88.0002H87.4562V84.0942C87.4562 82.9882 86.8542 82.2882 85.8602 82.2882C84.8522 82.2882 84.2362 82.9882 84.2362 84.0942V88.0002ZM95.8976 80.1322C95.4636 80.1322 95.1276 79.7822 95.1276 79.3622C95.1276 78.9422 95.4636 78.5922 95.8976 78.5922C96.3176 78.5922 96.6676 78.9422 96.6676 79.3622C96.6676 79.7822 96.3176 80.1322 95.8976 80.1322ZM96.5136 88.0002H95.2816V81.2942H96.5136V88.0002ZM98.7542 88.0002V81.2942H99.9862V82.3162C100.364 81.5742 101.078 81.1262 102.016 81.1262C103.584 81.1262 104.606 82.2042 104.606 83.8982V88.0002H103.374V84.0942C103.374 82.9882 102.73 82.2882 101.68 82.2882C100.63 82.2882 99.9862 82.9882 99.9862 84.0942V88.0002H98.7542ZM109.496 88.1682C107.676 88.1682 106.248 86.6702 106.248 84.6402C106.248 82.6522 107.62 81.1262 109.496 81.1262C110.546 81.1262 111.344 81.6302 111.848 82.4562V81.2942H113.094V88.0002H111.848V86.7962C111.344 87.6222 110.546 88.1682 109.496 88.1682ZM109.678 87.0062C110.938 87.0062 111.848 85.9422 111.848 84.6402C111.848 83.3242 110.938 82.2882 109.678 82.2882C108.404 82.2882 107.494 83.3242 107.494 84.6402C107.494 85.9422 108.404 87.0062 109.678 87.0062ZM114.568 82.4002V81.2942H115.674V79.6282H116.92V81.2942H118.824V82.4002H116.934V85.9422C116.934 86.6562 117.256 87.0062 117.858 87.0062C118.194 87.0062 118.53 86.8802 118.726 86.6562L119.3 87.5942C118.978 87.9022 118.432 88.1682 117.69 88.1682C116.43 88.1682 115.674 87.4262 115.674 85.9842V82.4002H114.568ZM123.284 88.1682C121.24 88.1682 119.77 86.5862 119.77 84.6402C119.77 82.6942 121.184 81.1262 123.088 81.1262C124.964 81.1262 126.392 82.6242 126.392 84.5142C126.392 84.6822 126.378 84.9342 126.35 85.0322H121.044C121.198 86.1942 122.08 87.0622 123.326 87.0622C124.082 87.0622 124.754 86.7682 125.202 86.3202L125.86 87.1742C125.314 87.7622 124.362 88.1682 123.284 88.1682ZM123.102 82.1902C122.052 82.1902 121.296 82.9462 121.072 84.0102H125.09C124.866 82.8482 124.11 82.1902 123.102 82.1902ZM133.06 88.1682C132.066 88.1682 131.17 87.9022 130.484 87.4962L130.96 86.4742C131.716 86.8662 132.374 87.0902 133.144 87.0902C134.082 87.0902 134.53 86.7262 134.53 86.1942C134.53 84.6682 130.722 85.5922 130.722 83.0022C130.722 82.0082 131.618 81.1262 133.242 81.1262C134.152 81.1262 134.866 81.3502 135.594 81.7002L135.104 82.7222C134.628 82.4562 133.942 82.2182 133.298 82.2182C132.472 82.2182 131.982 82.4982 131.982 82.9882C131.982 84.5282 135.762 83.6182 135.762 86.1662C135.762 87.3142 134.768 88.1682 133.06 88.1682ZM136.648 82.4002V81.2942H137.754V79.6282H139V81.2942H140.904V82.4002H139.014V85.9422C139.014 86.6562 139.336 87.0062 139.938 87.0062C140.274 87.0062 140.61 86.8802 140.806 86.6562L141.38 87.5942C141.058 87.9022 140.512 88.1682 139.77 88.1682C138.51 88.1682 137.754 87.4262 137.754 85.9842V82.4002H136.648ZM145.098 88.1682C143.278 88.1682 141.85 86.6702 141.85 84.6402C141.85 82.6522 143.222 81.1262 145.098 81.1262C146.148 81.1262 146.946 81.6302 147.45 82.4562V81.2942H148.696V88.0002H147.45V86.7962C146.946 87.6222 146.148 88.1682 145.098 88.1682ZM145.28 87.0062C146.54 87.0062 147.45 85.9422 147.45 84.6402C147.45 83.3242 146.54 82.2882 145.28 82.2882C144.006 82.2882 143.096 83.3242 143.096 84.6402C143.096 85.9422 144.006 87.0062 145.28 87.0062ZM150.17 82.4002V81.2942H151.276V79.6282H152.522V81.2942H154.426V82.4002H152.536V85.9422C152.536 86.6562 152.858 87.0062 153.46 87.0062C153.796 87.0062 154.132 86.8802 154.328 86.6562L154.902 87.5942C154.58 87.9022 154.034 88.1682 153.292 88.1682C152.032 88.1682 151.276 87.4262 151.276 85.9842V82.4002H150.17ZM158.885 88.1682C156.841 88.1682 155.371 86.5862 155.371 84.6402C155.371 82.6942 156.785 81.1262 158.689 81.1262C160.565 81.1262 161.993 82.6242 161.993 84.5142C161.993 84.6822 161.979 84.9342 161.951 85.0322H156.645C156.799 86.1942 157.681 87.0622 158.927 87.0622C159.683 87.0622 160.355 86.7682 160.803 86.3202L161.461 87.1742C160.915 87.7622 159.963 88.1682 158.885 88.1682ZM158.703 82.1902C157.653 82.1902 156.897 82.9462 156.673 84.0102H160.691C160.467 82.8482 159.711 82.1902 158.703 82.1902ZM169.543 88.0002H168.129L165.973 81.2942H167.303L168.857 86.6142L170.537 81.2942H171.895L173.589 86.6282L175.157 81.2942H176.487L174.331 88.0002H172.791L171.153 82.8762L169.543 88.0002ZM178.53 80.1322C178.096 80.1322 177.76 79.7822 177.76 79.3622C177.76 78.9422 178.096 78.5922 178.53 78.5922C178.95 78.5922 179.3 78.9422 179.3 79.3622C179.3 79.7822 178.95 80.1322 178.53 80.1322ZM179.146 88.0002H177.914V81.2942H179.146V88.0002ZM180.631 82.4002V81.2942H181.737V79.6282H182.983V81.2942H184.887V82.4002H182.997V85.9422C182.997 86.6562 183.319 87.0062 183.921 87.0062C184.257 87.0062 184.593 86.8802 184.789 86.6562L185.363 87.5942C185.041 87.9022 184.495 88.1682 183.753 88.1682C182.493 88.1682 181.737 87.4262 181.737 85.9842V82.4002H180.631ZM186.691 88.0002V78.3682H187.923V82.3162C188.301 81.5742 189.015 81.1262 189.953 81.1262C191.521 81.1262 192.543 82.2042 192.543 83.8982V88.0002H191.311V84.0942C191.311 82.9882 190.667 82.2882 189.617 82.2882C188.567 82.2882 187.923 82.9882 187.923 84.0942V88.0002H186.691ZM197.848 88.0002V78.3682H199.08V82.3162C199.458 81.5742 200.172 81.1262 201.11 81.1262C202.678 81.1262 203.7 82.2042 203.7 83.8982V88.0002H202.468V84.0942C202.468 82.9882 201.824 82.2882 200.774 82.2882C199.724 82.2882 199.08 82.9882 199.08 84.0942V88.0002H197.848ZM208.758 88.1682C206.84 88.1682 205.342 86.5862 205.342 84.6402C205.342 82.6942 206.84 81.1262 208.758 81.1262C210.69 81.1262 212.188 82.6942 212.188 84.6402C212.188 86.5862 210.69 88.1682 208.758 88.1682ZM208.772 87.0062C210.032 87.0062 210.942 85.9422 210.942 84.6402C210.942 83.3242 210.032 82.2882 208.772 82.2882C207.498 82.2882 206.588 83.3242 206.588 84.6402C206.588 85.9422 207.498 87.0062 208.772 87.0062ZM216.914 88.0002H215.304L212.77 81.2942H214.142L216.144 86.8802L218.174 81.2942H219.448L216.914 88.0002ZM223.54 88.1682C221.496 88.1682 220.026 86.5862 220.026 84.6402C220.026 82.6942 221.44 81.1262 223.344 81.1262C225.22 81.1262 226.648 82.6242 226.648 84.5142C226.648 84.6822 226.634 84.9342 226.606 85.0322H221.3C221.454 86.1942 222.336 87.0622 223.582 87.0622C224.338 87.0622 225.01 86.7682 225.458 86.3202L226.116 87.1742C225.57 87.7622 224.618 88.1682 223.54 88.1682ZM223.358 82.1902C222.308 82.1902 221.552 82.9462 221.328 84.0102H225.346C225.122 82.8482 224.366 82.1902 223.358 82.1902ZM228.254 88.0002V81.2942H229.486V82.2462C229.822 81.5462 230.396 81.1262 231.18 81.1262C231.6 81.1262 231.964 81.2242 232.202 81.4202L231.684 82.5822C231.46 82.4282 231.138 82.3162 230.816 82.3162C230.004 82.3162 229.486 83.0162 229.486 84.1362V88.0002H228.254Z" fill="black"/>
</g>
<defs>
<clipPath id="clip0_6343_38674">
<rect width="233" height="96" fill="white"/>
</clipPath>
</defs>
</svg>
