<svg width="304" height="44" viewBox="0 0 304 44" fill="none" xmlns="http://www.w3.org/2000/svg">
<path d="M16.5 11H8.5C4.63401 11 1.5 14.134 1.5 18V26C1.5 29.866 4.63401 33 8.5 33H16.5C20.366 33 23.5 29.866 23.5 26V18C23.5 14.134 20.366 11 16.5 11Z" fill="white"/>
<path d="M16.5 11H8.5C4.63401 11 1.5 14.134 1.5 18V26C1.5 29.866 4.63401 33 8.5 33H16.5C20.366 33 23.5 29.866 23.5 26V18C23.5 14.134 20.366 11 16.5 11Z" stroke="#5D5D5D" stroke-width="2"/>
<path d="M37.6914 26V17.04H40.4354C43.4174 17.04 45.4894 18.874 45.4894 21.52C45.4894 24.166 43.4734 26 40.5614 26H37.6914ZM40.4634 18.23H38.9794V24.81H40.4634C42.6894 24.81 44.1454 23.508 44.1454 21.52C44.1454 19.532 42.6894 18.23 40.4634 18.23ZM50.2271 26.168C48.3091 26.168 46.8111 24.586 46.8111 22.64C46.8111 20.694 48.3091 19.126 50.2271 19.126C52.1591 19.126 53.6571 20.694 53.6571 22.64C53.6571 24.586 52.1591 26.168 50.2271 26.168ZM50.2411 25.006C51.5011 25.006 52.4111 23.942 52.4111 22.64C52.4111 21.324 51.5011 20.288 50.2411 20.288C48.9671 20.288 48.0571 21.324 48.0571 22.64C48.0571 23.942 48.9671 25.006 50.2411 25.006ZM55.4085 26V19.294H56.6405V20.316C57.0185 19.574 57.7325 19.126 58.6705 19.126C60.2385 19.126 61.2605 20.204 61.2605 21.898V26H60.0285V22.094C60.0285 20.988 59.3845 20.288 58.3345 20.288C57.2845 20.288 56.6405 20.988 56.6405 22.094V26H55.4085ZM63.4974 16.354C63.9174 16.354 64.2394 16.676 64.2394 17.082C64.2394 17.278 64.1694 17.516 64.0014 17.768L63.1474 19.238H62.5314L63.2454 17.74C62.9654 17.628 62.7554 17.39 62.7554 17.082C62.7554 16.676 63.0774 16.354 63.4974 16.354ZM64.8927 20.4V19.294H65.9987V17.628H67.2447V19.294H69.1487V20.4H67.2587V23.942C67.2587 24.656 67.5807 25.006 68.1827 25.006C68.5187 25.006 68.8547 24.88 69.0507 24.656L69.6247 25.594C69.3027 25.902 68.7567 26.168 68.0147 26.168C66.7547 26.168 65.9987 25.426 65.9987 23.984V20.4H64.8927ZM76.8833 26.168C75.0633 26.168 73.6353 24.67 73.6353 22.64C73.6353 20.652 75.0073 19.126 76.8833 19.126C77.9333 19.126 78.7313 19.63 79.2353 20.456V19.294H80.4813V26H79.2353V24.796C78.7313 25.622 77.9333 26.168 76.8833 26.168ZM77.0653 25.006C78.3253 25.006 79.2353 23.942 79.2353 22.64C79.2353 21.324 78.3253 20.288 77.0653 20.288C75.7913 20.288 74.8813 21.324 74.8813 22.64C74.8813 23.942 75.7913 25.006 77.0653 25.006ZM83.3832 27.078C83.8312 27.414 84.5732 27.778 85.5392 27.778C86.9392 27.778 87.7512 27.022 87.7512 25.594V24.656C87.2612 25.454 86.4492 25.986 85.4132 25.986C83.6212 25.986 82.2212 24.53 82.2212 22.556C82.2212 20.61 83.6212 19.154 85.4132 19.154C86.4492 19.154 87.2612 19.644 87.7512 20.414V19.294H88.9972V25.524C88.9972 28.002 87.4292 28.912 85.5952 28.912C84.3772 28.912 83.3972 28.604 82.7392 28.058L83.3832 27.078ZM85.6232 24.824C86.8692 24.824 87.7512 23.802 87.7512 22.542C87.7512 21.296 86.8692 20.288 85.6232 20.288C84.3772 20.288 83.4672 21.296 83.4672 22.542C83.4672 23.802 84.3772 24.824 85.6232 24.824ZM91.2425 26V19.294H92.4745V20.246C92.8105 19.546 93.3845 19.126 94.1685 19.126C94.5885 19.126 94.9525 19.224 95.1905 19.42L94.6725 20.582C94.4485 20.428 94.1265 20.316 93.8045 20.316C92.9925 20.316 92.4745 21.016 92.4745 22.136V26H91.2425ZM98.9696 26.168C96.9256 26.168 95.4556 24.586 95.4556 22.64C95.4556 20.694 96.8696 19.126 98.7736 19.126C100.649 19.126 102.077 20.624 102.077 22.514C102.077 22.682 102.063 22.934 102.035 23.032H96.7296C96.8836 24.194 97.7656 25.062 99.0116 25.062C99.7676 25.062 100.439 24.768 100.887 24.32L101.545 25.174C100.999 25.762 100.047 26.168 98.9696 26.168ZM98.7876 20.19C97.7376 20.19 96.9816 20.946 96.7576 22.01H100.775C100.551 20.848 99.7956 20.19 98.7876 20.19ZM106.708 26.168C104.664 26.168 103.194 24.586 103.194 22.64C103.194 20.694 104.608 19.126 106.512 19.126C108.388 19.126 109.816 20.624 109.816 22.514C109.816 22.682 109.802 22.934 109.774 23.032H104.468C104.621 24.194 105.504 25.062 106.75 25.062C107.506 25.062 108.178 24.768 108.626 24.32L109.284 25.174C108.738 25.762 107.786 26.168 106.708 26.168ZM106.526 20.19C105.476 20.19 104.72 20.946 104.496 22.01H108.514C108.29 20.848 107.534 20.19 106.526 20.19ZM117.366 26H115.952L113.796 19.294H115.126L116.68 24.614L118.36 19.294H119.718L121.412 24.628L122.98 19.294H124.31L122.154 26H120.614L118.976 20.876L117.366 26ZM126.352 18.132C125.918 18.132 125.582 17.782 125.582 17.362C125.582 16.942 125.918 16.592 126.352 16.592C126.772 16.592 127.122 16.942 127.122 17.362C127.122 17.782 126.772 18.132 126.352 18.132ZM126.968 26H125.736V19.294H126.968V26ZM128.453 20.4V19.294H129.559V17.628H130.805V19.294H132.709V20.4H130.819V23.942C130.819 24.656 131.141 25.006 131.743 25.006C132.079 25.006 132.415 24.88 132.611 24.656L133.185 25.594C132.863 25.902 132.317 26.168 131.575 26.168C130.315 26.168 129.559 25.426 129.559 23.984V20.4H128.453ZM134.514 26V16.368H135.746V20.316C136.124 19.574 136.838 19.126 137.776 19.126C139.344 19.126 140.366 20.204 140.366 21.898V26H139.134V22.094C139.134 20.988 138.49 20.288 137.44 20.288C136.39 20.288 135.746 20.988 135.746 22.094V26H134.514ZM144.914 20.4V19.294H146.02V17.628H147.266V19.294H149.17V20.4H147.28V23.942C147.28 24.656 147.602 25.006 148.204 25.006C148.54 25.006 148.876 24.88 149.072 24.656L149.646 25.594C149.324 25.902 148.778 26.168 148.036 26.168C146.776 26.168 146.02 25.426 146.02 23.984V20.4H144.914ZM150.975 26V16.368H152.207V20.316C152.585 19.574 153.299 19.126 154.237 19.126C155.805 19.126 156.827 20.204 156.827 21.898V26H155.595V22.094C155.595 20.988 154.951 20.288 153.901 20.288C152.851 20.288 152.207 20.988 152.207 22.094V26H150.975ZM161.983 26.168C159.939 26.168 158.469 24.586 158.469 22.64C158.469 20.694 159.883 19.126 161.787 19.126C163.663 19.126 165.091 20.624 165.091 22.514C165.091 22.682 165.077 22.934 165.049 23.032H159.743C159.897 24.194 160.779 25.062 162.025 25.062C162.781 25.062 163.453 24.768 163.901 24.32L164.559 25.174C164.013 25.762 163.061 26.168 161.983 26.168ZM161.801 20.19C160.751 20.19 159.995 20.946 159.771 22.01H163.789C163.565 20.848 162.809 20.19 161.801 20.19ZM169.113 20.4V19.294H170.219V17.628H171.465V19.294H173.369V20.4H171.479V23.942C171.479 24.656 171.801 25.006 172.403 25.006C172.739 25.006 173.075 24.88 173.271 24.656L173.845 25.594C173.523 25.902 172.977 26.168 172.235 26.168C170.975 26.168 170.219 25.426 170.219 23.984V20.4H169.113ZM177.829 26.168C175.785 26.168 174.315 24.586 174.315 22.64C174.315 20.694 175.729 19.126 177.633 19.126C179.509 19.126 180.937 20.624 180.937 22.514C180.937 22.682 180.923 22.934 180.895 23.032H175.589C175.743 24.194 176.625 25.062 177.871 25.062C178.627 25.062 179.299 24.768 179.747 24.32L180.405 25.174C179.859 25.762 178.907 26.168 177.829 26.168ZM177.647 20.19C176.597 20.19 175.841 20.946 175.617 22.01H179.635C179.411 20.848 178.655 20.19 177.647 20.19ZM182.543 26V19.294H183.775V20.246C184.111 19.546 184.685 19.126 185.469 19.126C185.889 19.126 186.253 19.224 186.491 19.42L185.973 20.582C185.749 20.428 185.427 20.316 185.105 20.316C184.293 20.316 183.775 21.016 183.775 22.136V26H182.543ZM189.039 26H187.807V19.294H189.039V20.358C189.403 19.602 190.103 19.126 191.013 19.126C192.091 19.126 192.903 19.672 193.281 20.61C193.603 19.742 194.331 19.126 195.409 19.126C196.963 19.126 197.971 20.176 197.971 21.898V26H196.725V22.094C196.725 20.988 196.123 20.288 195.115 20.288C194.121 20.288 193.505 20.988 193.505 22.094V26H192.259V22.094C192.259 20.988 191.657 20.288 190.663 20.288C189.655 20.288 189.039 20.988 189.039 22.094V26ZM201.974 26.168C200.98 26.168 200.084 25.902 199.398 25.496L199.874 24.474C200.63 24.866 201.288 25.09 202.058 25.09C202.996 25.09 203.444 24.726 203.444 24.194C203.444 22.668 199.636 23.592 199.636 21.002C199.636 20.008 200.532 19.126 202.156 19.126C203.066 19.126 203.78 19.35 204.508 19.7L204.018 20.722C203.542 20.456 202.856 20.218 202.212 20.218C201.386 20.218 200.896 20.498 200.896 20.988C200.896 22.528 204.676 21.618 204.676 24.166C204.676 25.314 203.682 26.168 201.974 26.168ZM212.248 26.168C210.428 26.168 209 24.67 209 22.64C209 20.652 210.372 19.126 212.248 19.126C213.298 19.126 214.096 19.63 214.6 20.456V19.294H215.846V26H214.6V24.796C214.096 25.622 213.298 26.168 212.248 26.168ZM212.43 25.006C213.69 25.006 214.6 23.942 214.6 22.64C214.6 21.324 213.69 20.288 212.43 20.288C211.156 20.288 210.246 21.324 210.246 22.64C210.246 23.942 211.156 25.006 212.43 25.006ZM218.076 26V19.294H219.308V20.316C219.686 19.574 220.4 19.126 221.338 19.126C222.906 19.126 223.928 20.204 223.928 21.898V26H222.696V22.094C222.696 20.988 222.052 20.288 221.002 20.288C219.952 20.288 219.308 20.988 219.308 22.094V26H218.076ZM228.818 26.168C226.998 26.168 225.57 24.67 225.57 22.64C225.57 20.652 226.942 19.126 228.818 19.126C229.868 19.126 230.666 19.63 231.17 20.456V16.368H232.416V26H231.17V24.796C230.666 25.622 229.868 26.168 228.818 26.168ZM229 25.006C230.26 25.006 231.17 23.942 231.17 22.64C231.17 21.324 230.26 20.288 229 20.288C227.726 20.288 226.816 21.324 226.816 22.64C226.816 23.942 227.726 25.006 229 25.006ZM242.592 20.946C242.13 20.526 241.556 20.288 240.814 20.288C239.484 20.288 238.574 21.324 238.574 22.64C238.574 23.942 239.498 25.006 240.8 25.006C241.542 25.006 242.172 24.768 242.62 24.32L243.264 25.23C242.732 25.804 241.794 26.168 240.772 26.168C238.812 26.168 237.328 24.586 237.328 22.64C237.328 20.694 238.826 19.126 240.786 19.126C241.85 19.126 242.746 19.49 243.306 20.064L242.592 20.946ZM247.375 26.168C245.457 26.168 243.959 24.586 243.959 22.64C243.959 20.694 245.457 19.126 247.375 19.126C249.307 19.126 250.805 20.694 250.805 22.64C250.805 24.586 249.307 26.168 247.375 26.168ZM247.389 25.006C248.649 25.006 249.559 23.942 249.559 22.64C249.559 21.324 248.649 20.288 247.389 20.288C246.115 20.288 245.205 21.324 245.205 22.64C245.205 23.942 246.115 25.006 247.389 25.006ZM252.557 26V19.294H253.789V20.316C254.167 19.574 254.881 19.126 255.819 19.126C257.387 19.126 258.409 20.204 258.409 21.898V26H257.177V22.094C257.177 20.988 256.533 20.288 255.483 20.288C254.433 20.288 253.789 20.988 253.789 22.094V26H252.557ZM263.299 26.168C261.479 26.168 260.051 24.67 260.051 22.64C260.051 20.652 261.423 19.126 263.299 19.126C264.349 19.126 265.147 19.63 265.651 20.456V16.368H266.897V26H265.651V24.796C265.147 25.622 264.349 26.168 263.299 26.168ZM263.481 25.006C264.741 25.006 265.651 23.942 265.651 22.64C265.651 21.324 264.741 20.288 263.481 20.288C262.207 20.288 261.297 21.324 261.297 22.64C261.297 23.942 262.207 25.006 263.481 25.006ZM269.743 18.132C269.309 18.132 268.973 17.782 268.973 17.362C268.973 16.942 269.309 16.592 269.743 16.592C270.163 16.592 270.513 16.942 270.513 17.362C270.513 17.782 270.163 18.132 269.743 18.132ZM270.359 26H269.127V19.294H270.359V26ZM271.844 20.4V19.294H272.95V17.628H274.196V19.294H276.1V20.4H274.21V23.942C274.21 24.656 274.532 25.006 275.134 25.006C275.47 25.006 275.806 24.88 276.002 24.656L276.576 25.594C276.254 25.902 275.708 26.168 274.966 26.168C273.706 26.168 272.95 25.426 272.95 23.984V20.4H271.844ZM278.52 18.132C278.086 18.132 277.75 17.782 277.75 17.362C277.75 16.942 278.086 16.592 278.52 16.592C278.94 16.592 279.29 16.942 279.29 17.362C279.29 17.782 278.94 18.132 278.52 18.132ZM279.136 26H277.904V19.294H279.136V26ZM284.303 26.168C282.385 26.168 280.887 24.586 280.887 22.64C280.887 20.694 282.385 19.126 284.303 19.126C286.235 19.126 287.733 20.694 287.733 22.64C287.733 24.586 286.235 26.168 284.303 26.168ZM284.317 25.006C285.577 25.006 286.487 23.942 286.487 22.64C286.487 21.324 285.577 20.288 284.317 20.288C283.043 20.288 282.133 21.324 282.133 22.64C282.133 23.942 283.043 25.006 284.317 25.006ZM289.484 26V19.294H290.716V20.316C291.094 19.574 291.808 19.126 292.746 19.126C294.314 19.126 295.336 20.204 295.336 21.898V26H294.104V22.094C294.104 20.988 293.46 20.288 292.41 20.288C291.36 20.288 290.716 20.988 290.716 22.094V26H289.484ZM299.359 26.168C298.365 26.168 297.469 25.902 296.783 25.496L297.259 24.474C298.015 24.866 298.673 25.09 299.443 25.09C300.381 25.09 300.829 24.726 300.829 24.194C300.829 22.668 297.021 23.592 297.021 21.002C297.021 20.008 297.917 19.126 299.541 19.126C300.451 19.126 301.165 19.35 301.893 19.7L301.403 20.722C300.927 20.456 300.241 20.218 299.597 20.218C298.771 20.218 298.281 20.498 298.281 20.988C298.281 22.528 302.061 21.618 302.061 24.166C302.061 25.314 301.067 26.168 299.359 26.168Z" fill="black"/>
</svg>
