<svg width="198" height="44" viewBox="0 0 198 44" fill="none" xmlns="http://www.w3.org/2000/svg">
<path d="M16.5 11H8.5C4.63401 11 1.5 14.134 1.5 18V26C1.5 29.866 4.63401 33 8.5 33H16.5C20.366 33 23.5 29.866 23.5 26V18C23.5 14.134 20.366 11 16.5 11Z" fill="white"/>
<path d="M16.5 11H8.5C4.63401 11 1.5 14.134 1.5 18V26C1.5 29.866 4.63401 33 8.5 33H16.5C20.366 33 23.5 29.866 23.5 26V18C23.5 14.134 20.366 11 16.5 11Z" stroke="#BF1722" stroke-width="2"/>
<path d="M43.8784 26.0002L38.9084 19.0842V26.0002H37.6484V17.0262H39.0204L43.9904 23.9842V17.0262H45.2504V26.0002H43.8784ZM50.5428 26.1682C48.4988 26.1682 47.0288 24.5862 47.0288 22.6402C47.0288 20.6942 48.4428 19.1262 50.3468 19.1262C52.2228 19.1262 53.6508 20.6242 53.6508 22.5142C53.6508 22.6822 53.6368 22.9342 53.6088 23.0322H48.3028C48.4568 24.1942 49.3388 25.0622 50.5848 25.0622C51.3408 25.0622 52.0128 24.7682 52.4608 24.3202L53.1188 25.1742C52.5728 25.7622 51.6208 26.1682 50.5428 26.1682ZM50.3608 20.1902C49.3108 20.1902 48.5548 20.9462 48.3308 22.0102H52.3488C52.1248 20.8482 51.3688 20.1902 50.3608 20.1902ZM55.9291 27.0782C56.3771 27.4142 57.1191 27.7782 58.0851 27.7782C59.4851 27.7782 60.2971 27.0222 60.2971 25.5942V24.6562C59.8071 25.4542 58.9951 25.9862 57.9591 25.9862C56.1671 25.9862 54.7671 24.5302 54.7671 22.5562C54.7671 20.6102 56.1671 19.1542 57.9591 19.1542C58.9951 19.1542 59.8071 19.6442 60.2971 20.4142V19.2942H61.5431V25.5242C61.5431 28.0022 59.9751 28.9122 58.1411 28.9122C56.9231 28.9122 55.9431 28.6042 55.2851 28.0582L55.9291 27.0782ZM58.1691 24.8242C59.4151 24.8242 60.2971 23.8022 60.2971 22.5422C60.2971 21.2962 59.4151 20.2882 58.1691 20.2882C56.9231 20.2882 56.0131 21.2962 56.0131 22.5422C56.0131 23.8022 56.9231 24.8242 58.1691 24.8242ZM66.5464 26.1682C64.7264 26.1682 63.2984 24.6702 63.2984 22.6402C63.2984 20.6522 64.6704 19.1262 66.5464 19.1262C67.5964 19.1262 68.3944 19.6302 68.8984 20.4562V19.2942H70.1444V26.0002H68.8984V24.7962C68.3944 25.6222 67.5964 26.1682 66.5464 26.1682ZM66.7284 25.0062C67.9884 25.0062 68.8984 23.9422 68.8984 22.6402C68.8984 21.3242 67.9884 20.2882 66.7284 20.2882C65.4544 20.2882 64.5444 21.3242 64.5444 22.6402C64.5444 23.9422 65.4544 25.0062 66.7284 25.0062ZM71.6183 20.4002V19.2942H72.7243V17.6282H73.9703V19.2942H75.8743V20.4002H73.9843V23.9422C73.9843 24.6562 74.3063 25.0062 74.9083 25.0062C75.2443 25.0062 75.5803 24.8802 75.7763 24.6562L76.3503 25.5942C76.0283 25.9022 75.4823 26.1682 74.7403 26.1682C73.4803 26.1682 72.7243 25.4262 72.7243 23.9842V20.4002H71.6183ZM78.295 18.1322C77.861 18.1322 77.525 17.7822 77.525 17.3622C77.525 16.9422 77.861 16.5922 78.295 16.5922C78.715 16.5922 79.065 16.9422 79.065 17.3622C79.065 17.7822 78.715 18.1322 78.295 18.1322ZM78.911 26.0002H77.679V19.2942H78.911V26.0002ZM84.3857 26.0002H82.7757L80.2417 19.2942H81.6137L83.6157 24.8802L85.6457 19.2942H86.9197L84.3857 26.0002ZM91.0116 26.1682C88.9676 26.1682 87.4976 24.5862 87.4976 22.6402C87.4976 20.6942 88.9116 19.1262 90.8156 19.1262C92.6916 19.1262 94.1196 20.6242 94.1196 22.5142C94.1196 22.6822 94.1056 22.9342 94.0776 23.0322H88.7716C88.9256 24.1942 89.8076 25.0622 91.0536 25.0622C91.8096 25.0622 92.4816 24.7682 92.9296 24.3202L93.5876 25.1742C93.0416 25.7622 92.0896 26.1682 91.0116 26.1682ZM90.8296 20.1902C89.7796 20.1902 89.0236 20.9462 88.7996 22.0102H92.8176C92.5936 20.8482 91.8376 20.1902 90.8296 20.1902ZM106.247 17.9782L105.407 18.9582C104.805 18.4542 104.049 18.1042 103.041 18.1042C101.249 18.1042 99.8077 19.6302 99.8077 21.5202C99.8077 23.3962 101.249 24.9222 103.153 24.9222C104.021 24.9222 104.847 24.6282 105.421 24.0962L106.247 25.0202C105.421 25.8322 104.399 26.1682 103.069 26.1682C100.465 26.1682 98.4637 24.0822 98.4637 21.5202C98.4637 18.9442 100.507 16.8582 103.027 16.8582C104.455 16.8582 105.463 17.2642 106.247 17.9782ZM107.688 26.0002V16.3682H108.92V20.3162C109.298 19.5742 110.012 19.1262 110.95 19.1262C112.518 19.1262 113.54 20.2042 113.54 21.8982V26.0002H112.308V22.0942C112.308 20.9882 111.664 20.2882 110.614 20.2882C109.564 20.2882 108.92 20.9882 108.92 22.0942V26.0002H107.688ZM118.697 26.1682C116.653 26.1682 115.183 24.5862 115.183 22.6402C115.183 20.6942 116.597 19.1262 118.501 19.1262C120.377 19.1262 121.805 20.6242 121.805 22.5142C121.805 22.6822 121.791 22.9342 121.763 23.0322H116.457C116.611 24.1942 117.493 25.0622 118.739 25.0622C119.495 25.0622 120.167 24.7682 120.615 24.3202L121.273 25.1742C120.727 25.7622 119.775 26.1682 118.697 26.1682ZM118.515 20.1902C117.465 20.1902 116.709 20.9462 116.485 22.0102H120.503C120.279 20.8482 119.523 20.1902 118.515 20.1902ZM128.185 20.9462C127.723 20.5262 127.149 20.2882 126.407 20.2882C125.077 20.2882 124.167 21.3242 124.167 22.6402C124.167 23.9422 125.091 25.0062 126.393 25.0062C127.135 25.0062 127.765 24.7682 128.213 24.3202L128.857 25.2302C128.325 25.8042 127.387 26.1682 126.365 26.1682C124.405 26.1682 122.921 24.5862 122.921 22.6402C122.921 20.6942 124.419 19.1262 126.379 19.1262C127.443 19.1262 128.339 19.4902 128.899 20.0642L128.185 20.9462ZM131.465 26.0002H130.233V16.3682H131.465V22.2202L134.615 19.2942H136.183L132.809 22.4302L136.421 26.0002H134.797L131.465 22.6822V26.0002ZM141.118 19.1262C142.938 19.1262 144.366 20.6242 144.366 22.6542C144.366 24.6422 142.994 26.1682 141.118 26.1682C140.068 26.1682 139.27 25.6642 138.766 24.8382V26.0002H137.534V16.3682H138.766V20.4982C139.27 19.6722 140.068 19.1262 141.118 19.1262ZM140.964 20.2882C139.69 20.2882 138.766 21.3522 138.766 22.6542C138.766 23.9702 139.69 25.0062 140.964 25.0062C142.224 25.0062 143.134 23.9702 143.134 22.6542C143.134 21.3522 142.224 20.2882 140.964 20.2882ZM149.046 26.1682C147.128 26.1682 145.63 24.5862 145.63 22.6402C145.63 20.6942 147.128 19.1262 149.046 19.1262C150.978 19.1262 152.476 20.6942 152.476 22.6402C152.476 24.5862 150.978 26.1682 149.046 26.1682ZM149.06 25.0062C150.32 25.0062 151.23 23.9422 151.23 22.6402C151.23 21.3242 150.32 20.2882 149.06 20.2882C147.786 20.2882 146.876 21.3242 146.876 22.6402C146.876 23.9422 147.786 25.0062 149.06 25.0062ZM152.907 26.0002L155.497 22.5842L153.019 19.2942H154.559L156.309 21.6322L158.101 19.2942H159.501L157.023 22.5702L159.599 26.0002H158.059L156.197 23.5222L154.307 26.0002H152.907ZM165.121 26.0142C164.715 25.9022 164.183 25.6362 163.511 25.2022L164.113 24.1102C164.911 24.6282 165.975 24.9642 166.885 24.9642C167.977 24.9642 168.817 24.5022 168.817 23.5782C168.817 21.6602 163.805 22.5702 163.805 19.3782C163.805 17.8522 165.191 16.8442 166.983 16.8442C168.131 16.8442 169.097 17.1382 169.867 17.6842L169.237 18.7202C168.663 18.3562 167.795 18.0342 166.927 18.0342C165.877 18.0342 165.149 18.5942 165.149 19.3502C165.149 21.3942 170.147 20.4982 170.147 23.4942C170.147 25.2862 168.621 26.1682 166.801 26.1682C166.087 26.1682 165.527 26.1122 165.121 26.0142ZM171.053 20.4002V19.2942H172.159V17.6282H173.405V19.2942H175.309V20.4002H173.419V23.9422C173.419 24.6562 173.741 25.0062 174.343 25.0062C174.679 25.0062 175.015 24.8802 175.211 24.6562L175.785 25.5942C175.463 25.9022 174.917 26.1682 174.175 26.1682C172.915 26.1682 172.159 25.4262 172.159 23.9842V20.4002H171.053ZM179.503 26.1682C177.683 26.1682 176.255 24.6702 176.255 22.6402C176.255 20.6522 177.627 19.1262 179.503 19.1262C180.553 19.1262 181.351 19.6302 181.855 20.4562V19.2942H183.101V26.0002H181.855V24.7962C181.351 25.6222 180.553 26.1682 179.503 26.1682ZM179.685 25.0062C180.945 25.0062 181.855 23.9422 181.855 22.6402C181.855 21.3242 180.945 20.2882 179.685 20.2882C178.411 20.2882 177.501 21.3242 177.501 22.6402C177.501 23.9422 178.411 25.0062 179.685 25.0062ZM184.575 20.4002V19.2942H185.681V17.6282H186.927V19.2942H188.831V20.4002H186.941V23.9422C186.941 24.6562 187.263 25.0062 187.865 25.0062C188.201 25.0062 188.537 24.8802 188.733 24.6562L189.307 25.5942C188.985 25.9022 188.439 26.1682 187.697 26.1682C186.437 26.1682 185.681 25.4262 185.681 23.9842V20.4002H184.575ZM193.29 26.1682C191.246 26.1682 189.776 24.5862 189.776 22.6402C189.776 20.6942 191.19 19.1262 193.094 19.1262C194.97 19.1262 196.398 20.6242 196.398 22.5142C196.398 22.6822 196.384 22.9342 196.356 23.0322H191.05C191.204 24.1942 192.086 25.0622 193.332 25.0622C194.088 25.0622 194.76 24.7682 195.208 24.3202L195.866 25.1742C195.32 25.7622 194.368 26.1682 193.29 26.1682ZM193.108 20.1902C192.058 20.1902 191.302 20.9462 191.078 22.0102H195.096C194.872 20.8482 194.116 20.1902 193.108 20.1902Z" fill="#BF1722"/>
</svg>
