<svg width="174" height="60" viewBox="0 0 174 60" fill="none" xmlns="http://www.w3.org/2000/svg">
<g clip-path="url(#clip0_6343_38608)">
<path d="M16.5 0H8.5C4.08172 0 0.5 3.58172 0.5 8V16C0.5 20.4183 4.08172 24 8.5 24H16.5C20.9183 24 24.5 20.4183 24.5 16V8C24.5 3.58172 20.9183 0 16.5 0Z" fill="#794CFF"/>
<path d="M18.5 11H6.5V13H18.5V11Z" fill="white"/>
<path d="M44.1729 16.0002L43.2489 13.7042H38.9649L38.0409 16.0002H36.7109L40.4069 7.0262H41.8909L45.5869 16.0002H44.1729ZM39.4269 12.5702H42.7869L41.1069 8.3842L39.4269 12.5702ZM49.1018 14.9222L49.2418 16.0142C49.0318 16.0842 48.7658 16.1402 48.5558 16.1402C47.7158 16.1402 46.9178 15.5802 46.9178 14.1802V6.3682H48.1498V14.1942C48.1498 14.7822 48.4718 14.9922 48.7938 14.9922C48.8918 14.9922 49.0038 14.9642 49.1018 14.9222ZM52.9026 14.9222L53.0426 16.0142C52.8326 16.0842 52.5666 16.1402 52.3566 16.1402C51.5166 16.1402 50.7186 15.5802 50.7186 14.1802V6.3682H51.9506V14.1942C51.9506 14.7822 52.2726 14.9922 52.5946 14.9922C52.6926 14.9922 52.8046 14.9642 52.9026 14.9222ZM64.1269 16.0002L59.1569 9.0842V16.0002H57.8969V7.0262H59.2689L64.2389 13.9842V7.0262H65.4989V16.0002H64.1269ZM70.6934 16.1682C68.7754 16.1682 67.2774 14.5862 67.2774 12.6402C67.2774 10.6942 68.7754 9.1262 70.6934 9.1262C72.6254 9.1262 74.1234 10.6942 74.1234 12.6402C74.1234 14.5862 72.6254 16.1682 70.6934 16.1682ZM70.7074 15.0062C71.9674 15.0062 72.8774 13.9422 72.8774 12.6402C72.8774 11.3242 71.9674 10.2882 70.7074 10.2882C69.4334 10.2882 68.5234 11.3242 68.5234 12.6402C68.5234 13.9422 69.4334 15.0062 70.7074 15.0062ZM75.1188 10.4002V9.2942H76.2248V7.6282H77.4708V9.2942H79.3748V10.4002H77.4848V13.9422C77.4848 14.6562 77.8068 15.0062 78.4088 15.0062C78.7448 15.0062 79.0808 14.8802 79.2768 14.6562L79.8508 15.5942C79.5288 15.9022 78.9828 16.1682 78.2408 16.1682C76.9808 16.1682 76.2248 15.4262 76.2248 13.9842V10.4002H75.1188ZM81.7955 8.1322C81.3615 8.1322 81.0255 7.7822 81.0255 7.3622C81.0255 6.9422 81.3615 6.5922 81.7955 6.5922C82.2155 6.5922 82.5655 6.9422 82.5655 7.3622C82.5655 7.7822 82.2155 8.1322 81.7955 8.1322ZM82.4115 16.0002H81.1795V9.2942H82.4115V16.0002ZM83.9522 10.4002V9.2942H85.0022V8.9582C85.0022 7.1942 86.1362 6.2002 87.9422 6.2002C89.1042 6.2002 89.9722 6.5642 90.5462 7.0822L89.9022 8.0482C89.4402 7.6282 88.7262 7.3622 87.9982 7.3622C86.8642 7.3622 86.2482 7.9222 86.2482 9.0002V9.2942H90.4762V16.0002H89.2302V10.4002H86.2482V16.0002H85.0022V10.4002H83.9522ZM97.4789 10.9462C97.0169 10.5262 96.4429 10.2882 95.7009 10.2882C94.3709 10.2882 93.4609 11.3242 93.4609 12.6402C93.4609 13.9422 94.3849 15.0062 95.6869 15.0062C96.4289 15.0062 97.0589 14.7682 97.5069 14.3202L98.1509 15.2302C97.6189 15.8042 96.6809 16.1682 95.6589 16.1682C93.6989 16.1682 92.2149 14.5862 92.2149 12.6402C92.2149 10.6942 93.7129 9.1262 95.6729 9.1262C96.7369 9.1262 97.6329 9.4902 98.1929 10.0642L97.4789 10.9462ZM102.094 16.1682C100.274 16.1682 98.8457 14.6702 98.8457 12.6402C98.8457 10.6522 100.218 9.1262 102.094 9.1262C103.144 9.1262 103.942 9.6302 104.446 10.4562V9.2942H105.692V16.0002H104.446V14.7962C103.942 15.6222 103.144 16.1682 102.094 16.1682ZM102.276 15.0062C103.536 15.0062 104.446 13.9422 104.446 12.6402C104.446 11.3242 103.536 10.2882 102.276 10.2882C101.002 10.2882 100.092 11.3242 100.092 12.6402C100.092 13.9422 101.002 15.0062 102.276 15.0062ZM107.166 10.4002V9.2942H108.272V7.6282H109.518V9.2942H111.422V10.4002H109.532V13.9422C109.532 14.6562 109.854 15.0062 110.456 15.0062C110.792 15.0062 111.128 14.8802 111.324 14.6562L111.898 15.5942C111.576 15.9022 111.03 16.1682 110.288 16.1682C109.028 16.1682 108.272 15.4262 108.272 13.9842V10.4002H107.166ZM113.842 8.1322C113.408 8.1322 113.072 7.7822 113.072 7.3622C113.072 6.9422 113.408 6.5922 113.842 6.5922C114.262 6.5922 114.612 6.9422 114.612 7.3622C114.612 7.7822 114.262 8.1322 113.842 8.1322ZM114.458 16.0002H113.226V9.2942H114.458V16.0002ZM119.625 16.1682C117.707 16.1682 116.209 14.5862 116.209 12.6402C116.209 10.6942 117.707 9.1262 119.625 9.1262C121.557 9.1262 123.055 10.6942 123.055 12.6402C123.055 14.5862 121.557 16.1682 119.625 16.1682ZM119.639 15.0062C120.899 15.0062 121.809 13.9422 121.809 12.6402C121.809 11.3242 120.899 10.2882 119.639 10.2882C118.365 10.2882 117.455 11.3242 117.455 12.6402C117.455 13.9422 118.365 15.0062 119.639 15.0062ZM124.807 16.0002V9.2942H126.039V10.3162C126.417 9.5742 127.131 9.1262 128.069 9.1262C129.637 9.1262 130.659 10.2042 130.659 11.8982V16.0002H129.427V12.0942C129.427 10.9882 128.783 10.2882 127.733 10.2882C126.683 10.2882 126.039 10.9882 126.039 12.0942V16.0002H124.807ZM134.681 16.1682C133.687 16.1682 132.791 15.9022 132.105 15.4962L132.581 14.4742C133.337 14.8662 133.995 15.0902 134.765 15.0902C135.703 15.0902 136.151 14.7262 136.151 14.1942C136.151 12.6682 132.343 13.5922 132.343 11.0022C132.343 10.0082 133.239 9.1262 134.863 9.1262C135.773 9.1262 136.487 9.3502 137.215 9.7002L136.725 10.7222C136.249 10.4562 135.563 10.2182 134.919 10.2182C134.093 10.2182 133.603 10.4982 133.603 10.9882C133.603 12.5282 137.383 11.6182 137.383 14.1662C137.383 15.3142 136.389 16.1682 134.681 16.1682Z" fill="black"/>
<path d="M28.5 37H20.5C16.634 37 13.5 40.134 13.5 44V52C13.5 55.866 16.634 59 20.5 59H28.5C32.366 59 35.5 55.866 35.5 52V44C35.5 40.134 32.366 37 28.5 37Z" fill="white"/>
<path d="M28.5 37H20.5C16.634 37 13.5 40.134 13.5 44V52C13.5 55.866 16.634 59 20.5 59H28.5C32.366 59 35.5 55.866 35.5 52V44C35.5 40.134 32.366 37 28.5 37Z" stroke="#5D5D5D" stroke-width="2"/>
<path d="M54.2974 50.2362L50.9514 45.0422V52.0002H49.6914V43.0262H51.1334L54.3534 48.0662L57.6014 43.0262H58.8894V52.0002H57.6294V45.1682L54.2974 50.2362ZM64.1275 52.1682C62.2095 52.1682 60.7115 50.5862 60.7115 48.6402C60.7115 46.6942 62.2095 45.1262 64.1275 45.1262C66.0595 45.1262 67.5575 46.6942 67.5575 48.6402C67.5575 50.5862 66.0595 52.1682 64.1275 52.1682ZM64.1415 51.0062C65.4015 51.0062 66.3115 49.9422 66.3115 48.6402C66.3115 47.3242 65.4015 46.2882 64.1415 46.2882C62.8675 46.2882 61.9575 47.3242 61.9575 48.6402C61.9575 49.9422 62.8675 51.0062 64.1415 51.0062ZM69.3089 52.0002V45.2942H70.5409V46.3162C70.9189 45.5742 71.6329 45.1262 72.5709 45.1262C74.1389 45.1262 75.1609 46.2042 75.1609 47.8982V52.0002H73.9289V48.0942C73.9289 46.9882 73.2849 46.2882 72.2349 46.2882C71.1849 46.2882 70.5409 46.9882 70.5409 48.0942V52.0002H69.3089ZM76.5373 46.4002V45.2942H77.6433V43.6282H78.8893V45.2942H80.7933V46.4002H78.9033V49.9422C78.9033 50.6562 79.2253 51.0062 79.8273 51.0062C80.1633 51.0062 80.4993 50.8802 80.6953 50.6562L81.2693 51.5942C80.9473 51.9022 80.4013 52.1682 79.6593 52.1682C78.3993 52.1682 77.6433 51.4262 77.6433 49.9842V46.4002H76.5373ZM82.598 52.0002V42.3682H83.83V46.3162C84.208 45.5742 84.922 45.1262 85.86 45.1262C87.428 45.1262 88.45 46.2042 88.45 47.8982V52.0002H87.218V48.0942C87.218 46.9882 86.574 46.2882 85.524 46.2882C84.474 46.2882 83.83 46.9882 83.83 48.0942V52.0002H82.598ZM92.7663 50.9222L92.9063 52.0142C92.6963 52.0842 92.4303 52.1402 92.2203 52.1402C91.3803 52.1402 90.5823 51.5802 90.5823 50.1802V42.3682H91.8143V50.1942C91.8143 50.7822 92.1363 50.9922 92.4583 50.9922C92.5563 50.9922 92.6683 50.9642 92.7663 50.9222ZM96.3949 52.6582L96.6049 52.0842L93.5669 45.2942H94.9109L97.1649 50.5302L99.0689 45.2942H100.328L97.4309 53.0922C96.9829 54.3102 96.2969 54.9122 95.2609 54.9122C94.6729 54.9122 94.0709 54.6742 93.6509 54.2962L94.2249 53.3302C94.5329 53.6102 94.8969 53.7502 95.2889 53.7502C95.7789 53.7502 96.1009 53.4702 96.3949 52.6582ZM111.086 52.0002L106.116 45.0842V52.0002H104.856V43.0262H106.228L111.198 49.9842V43.0262H112.458V52.0002H111.086ZM117.75 52.1682C115.706 52.1682 114.236 50.5862 114.236 48.6402C114.236 46.6942 115.65 45.1262 117.554 45.1262C119.43 45.1262 120.858 46.6242 120.858 48.5142C120.858 48.6822 120.844 48.9342 120.816 49.0322H115.51C115.664 50.1942 116.546 51.0622 117.792 51.0622C118.548 51.0622 119.22 50.7682 119.668 50.3202L120.326 51.1742C119.78 51.7622 118.828 52.1682 117.75 52.1682ZM117.568 46.1902C116.518 46.1902 115.762 46.9462 115.538 48.0102H119.556C119.332 46.8482 118.576 46.1902 117.568 46.1902ZM124.977 52.0002H123.563L121.407 45.2942H122.737L124.291 50.6142L125.971 45.2942H127.329L129.023 50.6282L130.591 45.2942H131.921L129.765 52.0002H128.225L126.587 46.8762L124.977 52.0002ZM135.115 52.1682C134.121 52.1682 133.225 51.9022 132.539 51.4962L133.015 50.4742C133.771 50.8662 134.429 51.0902 135.199 51.0902C136.137 51.0902 136.585 50.7262 136.585 50.1942C136.585 48.6682 132.777 49.5922 132.777 47.0022C132.777 46.0082 133.673 45.1262 135.297 45.1262C136.207 45.1262 136.921 45.3502 137.649 45.7002L137.159 46.7222C136.683 46.4562 135.997 46.2182 135.353 46.2182C134.527 46.2182 134.037 46.4982 134.037 46.9882C134.037 48.5282 137.817 47.6182 137.817 50.1662C137.817 51.3142 136.823 52.1682 135.115 52.1682ZM141.643 50.9222L141.783 52.0142C141.573 52.0842 141.307 52.1402 141.097 52.1402C140.257 52.1402 139.459 51.5802 139.459 50.1802V42.3682H140.691V50.1942C140.691 50.7822 141.013 50.9922 141.335 50.9922C141.433 50.9922 141.545 50.9642 141.643 50.9222ZM146.461 52.1682C144.417 52.1682 142.947 50.5862 142.947 48.6402C142.947 46.6942 144.361 45.1262 146.265 45.1262C148.141 45.1262 149.569 46.6242 149.569 48.5142C149.569 48.6822 149.555 48.9342 149.527 49.0322H144.221C144.375 50.1942 145.257 51.0622 146.503 51.0622C147.259 51.0622 147.931 50.7682 148.379 50.3202L149.037 51.1742C148.491 51.7622 147.539 52.1682 146.461 52.1682ZM146.279 46.1902C145.229 46.1902 144.473 46.9462 144.249 48.0102H148.267C148.043 46.8482 147.287 46.1902 146.279 46.1902ZM150.42 46.4002V45.2942H151.526V43.6282H152.772V45.2942H154.676V46.4002H152.786V49.9422C152.786 50.6562 153.108 51.0062 153.71 51.0062C154.046 51.0062 154.382 50.8802 154.578 50.6562L155.152 51.5942C154.83 51.9022 154.284 52.1682 153.542 52.1682C152.282 52.1682 151.526 51.4262 151.526 49.9842V46.4002H150.42ZM155.724 46.4002V45.2942H156.83V43.6282H158.076V45.2942H159.98V46.4002H158.09V49.9422C158.09 50.6562 158.412 51.0062 159.014 51.0062C159.35 51.0062 159.686 50.8802 159.882 50.6562L160.456 51.5942C160.134 51.9022 159.588 52.1682 158.846 52.1682C157.586 52.1682 156.83 51.4262 156.83 49.9842V46.4002H155.724ZM164.44 52.1682C162.396 52.1682 160.926 50.5862 160.926 48.6402C160.926 46.6942 162.34 45.1262 164.244 45.1262C166.12 45.1262 167.548 46.6242 167.548 48.5142C167.548 48.6822 167.534 48.9342 167.506 49.0322H162.2C162.354 50.1942 163.236 51.0622 164.482 51.0622C165.238 51.0622 165.91 50.7682 166.358 50.3202L167.016 51.1742C166.47 51.7622 165.518 52.1682 164.44 52.1682ZM164.258 46.1902C163.208 46.1902 162.452 46.9462 162.228 48.0102H166.246C166.022 46.8482 165.266 46.1902 164.258 46.1902ZM169.154 52.0002V45.2942H170.386V46.2462C170.722 45.5462 171.296 45.1262 172.08 45.1262C172.5 45.1262 172.864 45.2242 173.102 45.4202L172.584 46.5822C172.36 46.4282 172.038 46.3162 171.716 46.3162C170.904 46.3162 170.386 47.0162 170.386 48.1362V52.0002H169.154Z" fill="black"/>
</g>
<defs>
<clipPath id="clip0_6343_38608">
<rect width="174" height="60" fill="white"/>
</clipPath>
</defs>
</svg>
