<svg width="544" height="132" viewBox="0 0 544 132" fill="none" xmlns="http://www.w3.org/2000/svg">
<g clip-path="url(#clip0_6343_38623)">
<path d="M16 7H8C4.13401 7 1 10.134 1 14V22C1 25.866 4.13401 29 8 29H16C19.866 29 23 25.866 23 22V14C23 10.134 19.866 7 16 7Z" fill="white"/>
<path d="M16 7H8C4.13401 7 1 10.134 1 14V22C1 25.866 4.13401 29 8 29H16C19.866 29 23 25.866 23 22V14C23 10.134 19.866 7 16 7Z" stroke="#5D5D5D" stroke-width="2"/>
<path d="M120 7H112C108.134 7 105 10.134 105 14V22C105 25.866 108.134 29 112 29H120C123.866 29 127 25.866 127 22V14C127 10.134 123.866 7 120 7Z" fill="white"/>
<path d="M120 7H112C108.134 7 105 10.134 105 14V22C105 25.866 108.134 29 112 29H120C123.866 29 127 25.866 127 22V14C127 10.134 123.866 7 120 7Z" stroke="#5D5D5D" stroke-width="2"/>
<path d="M224 7H216C212.134 7 209 10.134 209 14V22C209 25.866 212.134 29 216 29H224C227.866 29 231 25.866 231 22V14C231 10.134 227.866 7 224 7Z" fill="#BBAFE9"/>
<path d="M224 7H216C212.134 7 209 10.134 209 14V22C209 25.866 212.134 29 216 29H224C227.866 29 231 25.866 231 22V14C231 10.134 227.866 7 224 7Z" stroke="#733AC4" stroke-width="2"/>
<path d="M330 1H318C311.925 1 307 5.92487 307 12V24C307 30.0751 311.925 35 318 35H330C336.075 35 341 30.0751 341 24V12C341 5.92487 336.075 1 330 1Z" stroke="black" stroke-width="2"/>
<path d="M328 7H320C316.134 7 313 10.134 313 14V22C313 25.866 316.134 29 320 29H328C331.866 29 335 25.866 335 22V14C335 10.134 331.866 7 328 7Z" stroke="#5D5D5D" stroke-width="2"/>
<path d="M440 18C440 11.3726 434.627 6 428 6C421.373 6 416 11.3726 416 18C416 24.6274 421.373 30 428 30C434.627 30 440 24.6274 440 18Z" fill="#BBAFE9"/>
<path d="M432 7H424C420.134 7 417 10.134 417 14V22C417 25.866 420.134 29 424 29H432C435.866 29 439 25.866 439 22V14C439 10.134 435.866 7 432 7Z" stroke="#400791" stroke-width="2"/>
<path d="M536 7H528C524.134 7 521 10.134 521 14V22C521 25.866 524.134 29 528 29H536C539.866 29 543 25.866 543 22V14C543 10.134 539.866 7 536 7Z" stroke="#D6D6D6" stroke-width="2"/>
<path d="M16 55H8C4.13401 55 1 58.134 1 62V70C1 73.866 4.13401 77 8 77H16C19.866 77 23 73.866 23 70V62C23 58.134 19.866 55 16 55Z" fill="white"/>
<path d="M16 55H8C4.13401 55 1 58.134 1 62V70C1 73.866 4.13401 77 8 77H16C19.866 77 23 73.866 23 70V62C23 58.134 19.866 55 16 55Z" stroke="#5D5D5D" stroke-width="2"/>
<path d="M120 54H112C107.582 54 104 57.5817 104 62V70C104 74.4183 107.582 78 112 78H120C124.418 78 128 74.4183 128 70V62C128 57.5817 124.418 54 120 54Z" fill="#794CFF"/>
<path d="M114.513 71L123 62.4911L121.513 61L114.513 68.0178L111.487 64.9822L110 66.4734L114.513 71Z" fill="white"/>
<path d="M224 54H216C211.582 54 208 57.5817 208 62V70C208 74.4183 211.582 78 216 78H224C228.418 78 232 74.4183 232 70V62C232 57.5817 228.418 54 224 54Z" fill="#733AC4"/>
<path d="M218.513 71L227 62.4911L225.513 61L218.513 68.0178L215.487 64.9822L214 66.4734L218.513 71Z" fill="white"/>
<path d="M330 49H318C311.925 49 307 53.9249 307 60V72C307 78.0751 311.925 83 318 83H330C336.075 83 341 78.0751 341 72V60C341 53.9249 336.075 49 330 49Z" stroke="black" stroke-width="2"/>
<path d="M328 54H320C315.582 54 312 57.5817 312 62V70C312 74.4183 315.582 78 320 78H328C332.418 78 336 74.4183 336 70V62C336 57.5817 332.418 54 328 54Z" fill="#794CFF"/>
<path d="M322.513 71L331 62.4911L329.513 61L322.513 68.0178L319.487 64.9822L318 66.4734L322.513 71Z" fill="white"/>
<path d="M432 54H424C419.582 54 416 57.5817 416 62V70C416 74.4183 419.582 78 424 78H432C436.418 78 440 74.4183 440 70V62C440 57.5817 436.418 54 432 54Z" fill="#400791"/>
<path d="M426.513 71L435 62.4911L433.513 61L426.513 68.0178L423.487 64.9822L422 66.4734L426.513 71Z" fill="white"/>
<path d="M536 54H528C523.582 54 520 57.5817 520 62V70C520 74.4183 523.582 78 528 78H536C540.418 78 544 74.4183 544 70V62C544 57.5817 540.418 54 536 54Z" fill="#BBAFE9"/>
<path d="M530.513 71L539 62.4911L537.513 61L530.513 68.0178L527.487 64.9822L526 66.4734L530.513 71Z" fill="white"/>
<path d="M16 103H8C4.13401 103 1 106.134 1 110V118C1 121.866 4.13401 125 8 125H16C19.866 125 23 121.866 23 118V110C23 106.134 19.866 103 16 103Z" fill="white"/>
<path d="M16 103H8C4.13401 103 1 106.134 1 110V118C1 121.866 4.13401 125 8 125H16C19.866 125 23 121.866 23 118V110C23 106.134 19.866 103 16 103Z" stroke="#5D5D5D" stroke-width="2"/>
<path d="M120 102H112C107.582 102 104 105.582 104 110V118C104 122.418 107.582 126 112 126H120C124.418 126 128 122.418 128 118V110C128 105.582 124.418 102 120 102Z" fill="#794CFF"/>
<path d="M122 113H110V115H122V113Z" fill="white"/>
<path d="M224 102H216C211.582 102 208 105.582 208 110V118C208 122.418 211.582 126 216 126H224C228.418 126 232 122.418 232 118V110C232 105.582 228.418 102 224 102Z" fill="#733AC4"/>
<path d="M226 113H214V115H226V113Z" fill="white"/>
<path d="M330 97H318C311.925 97 307 101.925 307 108V120C307 126.075 311.925 131 318 131H330C336.075 131 341 126.075 341 120V108C341 101.925 336.075 97 330 97Z" stroke="black" stroke-width="2"/>
<path d="M328 102H320C315.582 102 312 105.582 312 110V118C312 122.418 315.582 126 320 126H328C332.418 126 336 122.418 336 118V110C336 105.582 332.418 102 328 102Z" fill="#794CFF"/>
<path d="M330 113H318V115H330V113Z" fill="white"/>
<path d="M432 102H424C419.582 102 416 105.582 416 110V118C416 122.418 419.582 126 424 126H432C436.418 126 440 122.418 440 118V110C440 105.582 436.418 102 432 102Z" fill="#400791"/>
<path d="M434 113H422V115H434V113Z" fill="white"/>
<path d="M536 102H528C523.582 102 520 105.582 520 110V118C520 122.418 523.582 126 528 126H536C540.418 126 544 122.418 544 118V110C544 105.582 540.418 102 536 102Z" fill="#BBAFE9"/>
<path d="M538 113H526V115H538V113Z" fill="white"/>
</g>
<defs>
<clipPath id="clip0_6343_38623">
<rect width="544" height="132" fill="white"/>
</clipPath>
</defs>
</svg>
