<svg width="150" height="44" viewBox="0 0 150 44" fill="none" xmlns="http://www.w3.org/2000/svg">
<path d="M16.5 10H8.5C4.08172 10 0.5 13.5817 0.5 18V26C0.5 30.4183 4.08172 34 8.5 34H16.5C20.9183 34 24.5 30.4183 24.5 26V18C24.5 13.5817 20.9183 10 16.5 10Z" fill="#794CFF"/>
<path d="M11.0133 27L19.5 18.4911L18.0133 17L11.0133 24.0178L7.98673 20.9822L6.5 22.4734L11.0133 27Z" fill="white"/>
<path d="M37.6914 26.0002V17.0402H40.4354C43.4174 17.0402 45.4894 18.8742 45.4894 21.5202C45.4894 24.1662 43.4734 26.0002 40.5614 26.0002H37.6914ZM40.4634 18.2302H38.9794V24.8102H40.4634C42.6894 24.8102 44.1454 23.5082 44.1454 21.5202C44.1454 19.5322 42.6894 18.2302 40.4634 18.2302ZM50.3251 26.1682C48.2811 26.1682 46.8111 24.5862 46.8111 22.6402C46.8111 20.6942 48.2251 19.1262 50.1291 19.1262C52.0051 19.1262 53.4331 20.6242 53.4331 22.5142C53.4331 22.6822 53.4191 22.9342 53.3911 23.0322H48.0851C48.2391 24.1942 49.1211 25.0622 50.3671 25.0622C51.1231 25.0622 51.7951 24.7682 52.2431 24.3202L52.9011 25.1742C52.3551 25.7622 51.4031 26.1682 50.3251 26.1682ZM50.1431 20.1902C49.0931 20.1902 48.3371 20.9462 48.1131 22.0102H52.1311C51.9071 20.8482 51.1511 20.1902 50.1431 20.1902ZM54.3394 20.4002V19.2942H55.3894V18.5242C55.3894 17.0402 56.2434 16.2002 57.5314 16.2002C58.3154 16.2002 58.8474 16.4382 59.2254 16.8442L58.5814 17.7542C58.3714 17.5302 58.0074 17.3622 57.6294 17.3622C56.9994 17.3622 56.6354 17.7822 56.6354 18.5382V19.2942H58.4134V20.4002H56.6354V26.0002H55.3894V20.4002H54.3394ZM62.1587 26.1682C60.3387 26.1682 58.9107 24.6702 58.9107 22.6402C58.9107 20.6522 60.2827 19.1262 62.1587 19.1262C63.2087 19.1262 64.0067 19.6302 64.5107 20.4562V19.2942H65.7567V26.0002H64.5107V24.7962C64.0067 25.6222 63.2087 26.1682 62.1587 26.1682ZM62.3407 25.0062C63.6007 25.0062 64.5107 23.9422 64.5107 22.6402C64.5107 21.3242 63.6007 20.2882 62.3407 20.2882C61.0667 20.2882 60.1567 21.3242 60.1567 22.6402C60.1567 23.9422 61.0667 25.0062 62.3407 25.0062ZM69.1206 19.2942V23.0042C69.1206 24.1802 69.8066 24.9642 70.8426 24.9642C71.8926 24.9642 72.5926 24.1802 72.5926 23.0042V19.2942H73.8386V23.1022C73.8386 24.9222 72.6486 26.1262 70.8426 26.1262C69.0506 26.1262 67.8746 24.9222 67.8746 23.1022V19.2942H69.1206ZM78.155 24.9222L78.295 26.0142C78.085 26.0842 77.819 26.1402 77.609 26.1402C76.769 26.1402 75.971 25.5802 75.971 24.1802V16.3682H77.203V24.1942C77.203 24.7822 77.525 24.9922 77.847 24.9922C77.945 24.9922 78.057 24.9642 78.155 24.9222ZM79.1935 20.4002V19.2942H80.2995V17.6282H81.5455V19.2942H83.4495V20.4002H81.5595V23.9422C81.5595 24.6562 81.8815 25.0062 82.4835 25.0062C82.8195 25.0062 83.1555 24.8802 83.3515 24.6562L83.9255 25.5942C83.6035 25.9022 83.0575 26.1682 82.3155 26.1682C81.0555 26.1682 80.2995 25.4262 80.2995 23.9842V20.4002H79.1935ZM95.7761 17.9782L94.9361 18.9582C94.3341 18.4542 93.5781 18.1042 92.5701 18.1042C90.7781 18.1042 89.3361 19.6302 89.3361 21.5202C89.3361 23.3962 90.7781 24.9222 92.6821 24.9222C93.5501 24.9222 94.3761 24.6282 94.9501 24.0962L95.7761 25.0202C94.9501 25.8322 93.9281 26.1682 92.5981 26.1682C89.9941 26.1682 87.9921 24.0822 87.9921 21.5202C87.9921 18.9442 90.0361 16.8582 92.5561 16.8582C93.9841 16.8582 94.9921 17.2642 95.7761 17.9782ZM97.2171 26.0002V16.3682H98.4491V20.3162C98.8271 19.5742 99.5411 19.1262 100.479 19.1262C102.047 19.1262 103.069 20.2042 103.069 21.8982V26.0002H101.837V22.0942C101.837 20.9882 101.193 20.2882 100.143 20.2882C99.0931 20.2882 98.4491 20.9882 98.4491 22.0942V26.0002H97.2171ZM108.225 26.1682C106.181 26.1682 104.711 24.5862 104.711 22.6402C104.711 20.6942 106.125 19.1262 108.029 19.1262C109.905 19.1262 111.333 20.6242 111.333 22.5142C111.333 22.6822 111.319 22.9342 111.291 23.0322H105.985C106.139 24.1942 107.021 25.0622 108.267 25.0622C109.023 25.0622 109.695 24.7682 110.143 24.3202L110.801 25.1742C110.255 25.7622 109.303 26.1682 108.225 26.1682ZM108.043 20.1902C106.993 20.1902 106.237 20.9462 106.013 22.0102H110.031C109.807 20.8482 109.051 20.1902 108.043 20.1902ZM117.713 20.9462C117.251 20.5262 116.677 20.2882 115.935 20.2882C114.605 20.2882 113.695 21.3242 113.695 22.6402C113.695 23.9422 114.619 25.0062 115.921 25.0062C116.663 25.0062 117.293 24.7682 117.741 24.3202L118.385 25.2302C117.853 25.8042 116.915 26.1682 115.893 26.1682C113.933 26.1682 112.449 24.5862 112.449 22.6402C112.449 20.6942 113.947 19.1262 115.907 19.1262C116.971 19.1262 117.867 19.4902 118.427 20.0642L117.713 20.9462ZM120.994 26.0002H119.762V16.3682H120.994V22.2202L124.144 19.2942H125.712L122.338 22.4302L125.95 26.0002H124.326L120.994 22.6822V26.0002ZM130.646 19.1262C132.466 19.1262 133.894 20.6242 133.894 22.6542C133.894 24.6422 132.522 26.1682 130.646 26.1682C129.596 26.1682 128.798 25.6642 128.294 24.8382V26.0002H127.062V16.3682H128.294V20.4982C128.798 19.6722 129.596 19.1262 130.646 19.1262ZM130.492 20.2882C129.218 20.2882 128.294 21.3522 128.294 22.6542C128.294 23.9702 129.218 25.0062 130.492 25.0062C131.752 25.0062 132.662 23.9702 132.662 22.6542C132.662 21.3522 131.752 20.2882 130.492 20.2882ZM138.574 26.1682C136.656 26.1682 135.158 24.5862 135.158 22.6402C135.158 20.6942 136.656 19.1262 138.574 19.1262C140.506 19.1262 142.004 20.6942 142.004 22.6402C142.004 24.5862 140.506 26.1682 138.574 26.1682ZM138.588 25.0062C139.848 25.0062 140.758 23.9422 140.758 22.6402C140.758 21.3242 139.848 20.2882 138.588 20.2882C137.314 20.2882 136.404 21.3242 136.404 22.6402C136.404 23.9422 137.314 25.0062 138.588 25.0062ZM142.436 26.0002L145.026 22.5842L142.548 19.2942H144.088L145.838 21.6322L147.63 19.2942H149.03L146.552 22.5702L149.128 26.0002H147.588L145.726 23.5222L143.836 26.0002H142.436Z" fill="black"/>
</svg>
