<svg width="14" height="20" viewBox="0 0 14 20" fill="none" xmlns="http://www.w3.org/2000/svg">
<g clip-path="url(#clip0_53_8258)">
<path d="M3.52247 19.9999C5.44209 19.9999 7.00003 18.5065 7.00003 16.6664V13.333H3.52247C1.60286 13.333 0.0449219 14.8264 0.0449219 16.6664C0.0449219 18.5065 1.60286 19.9999 3.52247 19.9999Z" fill="#0ACF83"/>
<path d="M13.9552 9.99935C13.9552 11.8393 12.3973 13.3327 10.4776 13.3327C8.55797 13.3327 7 11.8393 7 9.99935C7 8.15935 8.55797 6.66602 10.4776 6.66602C12.3973 6.66602 13.9552 8.15935 13.9552 9.99935Z" fill="#1ABCFE"/>
<path d="M0.0449219 9.99935C0.0449219 8.15935 1.60286 6.66602 3.52247 6.66602H7.00003V13.3327H3.52247C1.60286 13.3327 0.0449219 11.8393 0.0449219 9.99935Z" fill="#A259FF"/>
<path d="M7 0H10.4776C12.3973 0 13.9552 1.49334 13.9552 3.33335C13.9552 5.17336 12.3973 6.66671 10.4776 6.66671H7V0Z" fill="#FF7262"/>
<path d="M0.0449219 3.33335C0.0449219 1.49334 1.60286 0 3.52247 0H7.00003V6.66671H3.52247C1.60286 6.66671 0.0449219 5.17336 0.0449219 3.33335Z" fill="#F24E1E"/>
</g>
<defs>
<clipPath id="clip0_53_8258">
<rect width="14" height="20" fill="white"/>
</clipPath>
</defs>
</svg>
