<svg width="20" height="20" viewBox="0 0 20 20" fill="none" xmlns="http://www.w3.org/2000/svg">
<path d="M16.5476 19.9762C16.4206 19.9762 16.3016 19.9564 16.1905 19.9167C16.0794 19.877 15.9762 19.8095 15.881 19.7143L11.0238 14.8571C10.9286 14.7619 10.8611 14.6587 10.8214 14.5476C10.7817 14.4365 10.7619 14.3175 10.7619 14.1905C10.7619 14.0635 10.7817 13.9444 10.8214 13.8333C10.8611 13.7222 10.9286 13.619 11.0238 13.5238L13.0476 11.5C13.1429 11.4048 13.246 11.3373 13.3571 11.2976C13.4683 11.2579 13.5873 11.2381 13.7143 11.2381C13.8413 11.2381 13.9603 11.2579 14.0714 11.2976C14.1825 11.3373 14.2857 11.4048 14.381 11.5L19.2381 16.3571C19.3333 16.4524 19.4008 16.5556 19.4405 16.6667C19.4802 16.7778 19.5 16.8968 19.5 17.0238C19.5 17.1508 19.4802 17.2698 19.4405 17.381C19.4008 17.4921 19.3333 17.5952 19.2381 17.6905L17.2143 19.7143C17.119 19.8095 17.0159 19.877 16.9048 19.9167C16.7937 19.9564 16.6746 19.9762 16.5476 19.9762ZM16.5476 17.7143L17.2381 17.0238L13.7381 13.5238L13.0476 14.2143L16.5476 17.7143ZM3.47619 20C3.34921 20 3.22619 19.9762 3.10714 19.9286C2.9881 19.881 2.88095 19.8095 2.78571 19.7143L0.785714 17.7143C0.690476 17.619 0.619048 17.5119 0.571429 17.3929C0.52381 17.2738 0.5 17.1508 0.5 17.0238C0.5 16.8968 0.52381 16.7778 0.571429 16.6667C0.619048 16.5556 0.690476 16.4524 0.785714 16.3571L5.83333 11.3095H7.85714L8.66667 10.5L4.7381 6.57143H3.38095L0.5 3.69048L3.19048 1L6.07143 3.88095V5.2381L10 9.16667L12.7619 6.40476L11.7381 5.38095L13.0714 4.04762H10.381L9.71429 3.38095L13.0952 0L13.7619 0.666667V3.35714L15.0952 2.02381L18.4762 5.40476C18.746 5.6746 18.9524 5.98016 19.0952 6.32143C19.2381 6.6627 19.3095 7.02381 19.3095 7.40476C19.3095 7.78571 19.2381 8.15079 19.0952 8.5C18.9524 8.84921 18.746 9.15873 18.4762 9.42857L16.4524 7.40476L15.119 8.7381L14.119 7.7381L9.19048 12.6667V14.6667L4.14286 19.7143C4.04762 19.8095 3.94444 19.881 3.83333 19.9286C3.72222 19.9762 3.60317 20 3.47619 20ZM3.47619 17.7143L7.52381 13.6667V12.9762H6.83333L2.78571 17.0238L3.47619 17.7143ZM3.47619 17.7143L2.78571 17.0238L3.14286 17.3571L3.47619 17.7143Z" fill="black"/>
</svg>
