<svg width="20" height="20" viewBox="0 0 20 20" fill="none" xmlns="http://www.w3.org/2000/svg">
<path d="M10 4C9.45 4 8.97917 3.80417 8.5875 3.4125C8.19583 3.02083 8 2.55 8 2C8 1.45 8.19583 0.979167 8.5875 0.5875C8.97917 0.195833 9.45 0 10 0C10.55 0 11.0208 0.195833 11.4125 0.5875C11.8042 0.979167 12 1.45 12 2C12 2.55 11.8042 3.02083 11.4125 3.4125C11.0208 3.80417 10.55 4 10 4ZM7 20V7C6 6.91667 4.98333 6.79167 3.95 6.625C2.91667 6.45833 1.93333 6.25 1 6L1.5 4C2.8 4.35 4.18333 4.60417 5.65 4.7625C7.11667 4.92083 8.56667 5 10 5C11.4333 5 12.8833 4.92083 14.35 4.7625C15.8167 4.60417 17.2 4.35 18.5 4L19 6C18.0667 6.25 17.0833 6.45833 16.05 6.625C15.0167 6.79167 14 6.91667 13 7V20H11V14H9V20H7Z" fill="black"/>
</svg>
