<svg width="20" height="20" viewBox="0 0 20 20" fill="none" xmlns="http://www.w3.org/2000/svg">
<path d="M1.5 19V14.75L14.675 1.6C14.875 1.4 15.1 1.25 15.35 1.15C15.6 1.05 15.85 1 16.1 1C16.3667 1 16.6208 1.05 16.8625 1.15C17.1042 1.25 17.3167 1.4 17.5 1.6L18.9 3C19.1 3.18333 19.25 3.39583 19.35 3.6375C19.45 3.87917 19.5 4.13333 19.5 4.4C19.5 4.65 19.45 4.9 19.35 5.15C19.25 5.4 19.1 5.625 18.9 5.825L5.75 19H1.5ZM3.5 17H4.9L14.725 7.2L14.025 6.475L13.3 5.775L3.5 15.6V17ZM14.025 6.475L13.3 5.775L14.725 7.2L14.025 6.475ZM11.5 19C12.7333 19 13.875 18.6917 14.925 18.075C15.975 17.4583 16.5 16.6 16.5 15.5C16.5 14.9 16.3417 14.3833 16.025 13.95C15.7083 13.5167 15.2833 13.1417 14.75 12.825L13.275 14.3C13.6583 14.4667 13.9583 14.65 14.175 14.85C14.3917 15.05 14.5 15.2667 14.5 15.5C14.5 15.8833 14.1958 16.2292 13.5875 16.5375C12.9792 16.8458 12.2833 17 11.5 17C11.2167 17 10.9792 17.0958 10.7875 17.2875C10.5958 17.4792 10.5 17.7167 10.5 18C10.5 18.2833 10.5958 18.5208 10.7875 18.7125C10.9792 18.9042 11.2167 19 11.5 19ZM2.075 11.35L3.575 9.85C3.24167 9.71667 2.97917 9.57917 2.7875 9.4375C2.59583 9.29583 2.5 9.15 2.5 9C2.5 8.8 2.65 8.6 2.95 8.4C3.25 8.2 3.88333 7.89167 4.85 7.475C6.31667 6.84167 7.29167 6.26667 7.775 5.75C8.25833 5.23333 8.5 4.65 8.5 4C8.5 3.08333 8.13333 2.35417 7.4 1.8125C6.66667 1.27083 5.7 1 4.5 1C3.75 1 3.07917 1.13333 2.4875 1.4C1.89583 1.66667 1.44167 1.99167 1.125 2.375C0.941667 2.59167 0.866667 2.83333 0.9 3.1C0.933333 3.36667 1.05833 3.58333 1.275 3.75C1.49167 3.93333 1.73333 4.00833 2 3.975C2.26667 3.94167 2.49167 3.83333 2.675 3.65C2.90833 3.41667 3.16667 3.25 3.45 3.15C3.73333 3.05 4.08333 3 4.5 3C5.18333 3 5.6875 3.1 6.0125 3.3C6.3375 3.5 6.5 3.73333 6.5 4C6.5 4.23333 6.35417 4.44583 6.0625 4.6375C5.77083 4.82917 5.1 5.16667 4.05 5.65C2.71667 6.23333 1.79167 6.7625 1.275 7.2375C0.758333 7.7125 0.5 8.3 0.5 9C0.5 9.53333 0.641667 9.9875 0.925 10.3625C1.20833 10.7375 1.59167 11.0667 2.075 11.35Z" fill="black"/>
</svg>
