<svg width="20" height="20" viewBox="0 0 20 20" fill="none" xmlns="http://www.w3.org/2000/svg">
<path d="M3.0221 19C2.17478 19 1.57252 18.6208 1.21532 17.8625C0.858121 17.1042 0.945344 16.4 1.47699 15.75L7.00947 9V3H6.01263C5.73019 3 5.49344 2.90417 5.30238 2.7125C5.11132 2.52083 5.01579 2.28333 5.01579 2C5.01579 1.71667 5.11132 1.47917 5.30238 1.2875C5.49344 1.09583 5.73019 1 6.01263 1H13.9874C14.2698 1 14.5066 1.09583 14.6976 1.2875C14.8887 1.47917 14.9842 1.71667 14.9842 2C14.9842 2.28333 14.8887 2.52083 14.6976 2.7125C14.5066 2.90417 14.2698 3 13.9874 3H12.9905V9L18.523 15.75C19.0547 16.4 19.1419 17.1042 18.7847 17.8625C18.4275 18.6208 17.8252 19 16.9779 19H3.0221ZM5.01579 16H14.9842L11.5949 12H8.40505L5.01579 16ZM3.0221 17H16.9779L10.9968 9.7V3H9.00316V9.7L3.0221 17Z" fill="black"/>
</svg>
