<svg width="20" height="20" viewBox="0 0 20 20" fill="none" xmlns="http://www.w3.org/2000/svg">
<path d="M9.89096 17.2C9.95154 17.2 10.0121 17.185 10.0727 17.155C10.1333 17.125 10.1787 17.095 10.209 17.065L17.6602 9.685C17.8419 9.505 17.9744 9.3025 18.0577 9.0775C18.141 8.8525 18.1826 8.6275 18.1826 8.4025C18.1826 8.1625 18.141 7.93375 18.0577 7.71625C17.9744 7.49875 17.8419 7.3075 17.6602 7.1425L13.7983 3.3175C13.6317 3.1375 13.4386 3.00625 13.219 2.92375C12.9994 2.84125 12.7684 2.8 12.5261 2.8C12.299 2.8 12.0718 2.84125 11.8446 2.92375C11.6174 3.00625 11.413 3.1375 11.2313 3.3175L10.9814 3.565L12.6624 5.2525C12.8896 5.4625 13.0562 5.7025 13.1622 5.9725C13.2682 6.2425 13.3212 6.5275 13.3212 6.8275C13.3212 7.4575 13.1054 7.98625 12.6738 8.41375C12.2422 8.84125 11.7083 9.055 11.0722 9.055C10.7693 9.055 10.4778 9.0025 10.1976 8.8975C9.91746 8.7925 9.67136 8.635 9.45934 8.425L7.75557 6.76L3.7801 10.6975C3.73467 10.7425 3.70059 10.7913 3.67787 10.8438C3.65516 10.8963 3.6438 10.9525 3.6438 11.0125C3.6438 11.1325 3.68923 11.2413 3.7801 11.3388C3.87097 11.4363 3.97698 11.485 4.09814 11.485C4.15872 11.485 4.21929 11.47 4.27987 11.44C4.34045 11.41 4.38589 11.38 4.41617 11.35L7.50568 8.29L8.77783 9.55L5.71104 12.61C5.66561 12.655 5.63153 12.7038 5.60881 12.7563C5.5861 12.8088 5.57474 12.865 5.57474 12.925C5.57474 13.045 5.62017 13.15 5.71104 13.24C5.80191 13.33 5.90792 13.375 6.02908 13.375C6.08966 13.375 6.15023 13.36 6.21081 13.33C6.27139 13.3 6.31683 13.27 6.34712 13.24L9.43662 10.2025L10.7088 11.4625L7.64198 14.5225C7.59655 14.5525 7.56247 14.5975 7.53975 14.6575C7.51704 14.7175 7.50568 14.7775 7.50568 14.8375C7.50568 14.9575 7.55111 15.0625 7.64198 15.1525C7.73285 15.2425 7.83886 15.2875 7.96002 15.2875C8.0206 15.2875 8.07739 15.2763 8.13039 15.2538C8.1834 15.2313 8.23262 15.1975 8.27806 15.1525L11.3676 12.115L12.6397 13.375L9.5502 16.435C9.50477 16.48 9.4707 16.5288 9.44798 16.5813C9.42526 16.6338 9.4139 16.69 9.4139 16.75C9.4139 16.87 9.46312 16.975 9.56156 17.065C9.66 17.155 9.7698 17.2 9.89096 17.2ZM9.86824 19C9.30789 19 8.8119 18.8162 8.38028 18.4488C7.94866 18.0813 7.69499 17.62 7.61926 17.065C7.10435 16.99 6.67272 16.78 6.3244 16.435C5.97607 16.09 5.76405 15.6625 5.68832 15.1525C5.17341 15.0775 4.74557 14.8638 4.40482 14.5113C4.06406 14.1588 3.85582 13.735 3.7801 13.24C3.2046 13.165 2.73512 12.9175 2.37165 12.4975C2.00818 12.0775 1.82644 11.5825 1.82644 11.0125C1.82644 10.7125 1.88323 10.4237 1.99682 10.1463C2.1104 9.86875 2.27321 9.625 2.48523 9.415L7.75557 4.2175L10.7315 7.165C10.7618 7.21 10.8072 7.24375 10.8678 7.26625C10.9284 7.28875 10.9889 7.3 11.0495 7.3C11.1858 7.3 11.2994 7.25875 11.3903 7.17625C11.4811 7.09375 11.5266 6.985 11.5266 6.85C11.5266 6.79 11.5152 6.73 11.4925 6.67C11.4698 6.61 11.4357 6.565 11.3903 6.535L8.14175 3.3175C7.97516 3.1375 7.78207 3.00625 7.56247 2.92375C7.34287 2.84125 7.11192 2.8 6.8696 2.8C6.64244 2.8 6.41527 2.84125 6.1881 2.92375C5.96093 3.00625 5.75647 3.1375 5.57474 3.3175L2.37165 6.5125C2.23535 6.6475 2.12176 6.805 2.03089 6.985C1.94003 7.165 1.87945 7.345 1.84916 7.525C1.81887 7.705 1.81887 7.88875 1.84916 8.07625C1.87945 8.26375 1.94003 8.44 2.03089 8.605L0.713312 9.91C0.455853 9.565 0.266546 9.18625 0.145388 8.77375C0.0242314 8.36125 -0.0212025 7.945 0.00908678 7.525C0.039376 7.105 0.145388 6.69625 0.327124 6.29875C0.50886 5.90125 0.758746 5.545 1.07678 5.23L4.27987 2.0575C4.64334 1.7125 5.04846 1.45 5.49523 1.27C5.942 1.09 6.40012 1 6.8696 1C7.33909 1 7.79721 1.09 8.24398 1.27C8.69075 1.45 9.08829 1.7125 9.43662 2.0575L9.68651 2.305L9.93639 2.0575C10.2999 1.7125 10.705 1.45 11.1517 1.27C11.5985 1.09 12.0566 1 12.5261 1C12.9956 1 13.4537 1.09 13.9005 1.27C14.3473 1.45 14.7448 1.7125 15.0931 2.0575L18.9323 5.86C19.2806 6.205 19.5457 6.6025 19.7274 7.0525C19.9091 7.5025 20 7.96 20 8.425C20 8.89 19.9091 9.34375 19.7274 9.78625C19.5457 10.2288 19.2806 10.6225 18.9323 10.9675L11.4811 18.325C11.2691 18.535 11.023 18.7 10.7428 18.82C10.4627 18.94 10.1711 19 9.86824 19Z" fill="black"/>
</svg>
