<svg width="20" height="20" viewBox="0 0 20 20" fill="none" xmlns="http://www.w3.org/2000/svg">
<path d="M10 17C11.1 17 12.0417 16.6083 12.825 15.825C13.6083 15.0417 14 14.1 14 13V9C14 7.9 13.6083 6.95833 12.825 6.175C12.0417 5.39167 11.1 5 10 5C8.9 5 7.95833 5.39167 7.175 6.175C6.39167 6.95833 6 7.9 6 9V13C6 14.1 6.39167 15.0417 7.175 15.825C7.95833 16.6083 8.9 17 10 17ZM8 14H12V12H8V14ZM8 10H12V8H8V10ZM10 19C8.91667 19 7.9125 18.7333 6.9875 18.2C6.0625 17.6667 5.33333 16.9333 4.8 16H2V14H4.1C4.05 13.6667 4.02083 13.3333 4.0125 13C4.00417 12.6667 4 12.3333 4 12H2V10H4C4 9.66667 4.00417 9.33333 4.0125 9C4.02083 8.66667 4.05 8.33333 4.1 8H2V6H4.8C5.03333 5.61667 5.29583 5.25833 5.5875 4.925C5.87917 4.59167 6.21667 4.3 6.6 4.05L5 2.4L6.4 1L8.55 3.15C9.01667 3 9.49167 2.925 9.975 2.925C10.4583 2.925 10.9333 3 11.4 3.15L13.6 1L15 2.4L13.35 4.05C13.7333 4.3 14.0792 4.5875 14.3875 4.9125C14.6958 5.2375 14.9667 5.6 15.2 6H18V8H15.9C15.95 8.33333 15.9792 8.66667 15.9875 9C15.9958 9.33333 16 9.66667 16 10H18V12H16C16 12.3333 15.9958 12.6667 15.9875 13C15.9792 13.3333 15.95 13.6667 15.9 14H18V16H15.2C14.6667 16.9333 13.9375 17.6667 13.0125 18.2C12.0875 18.7333 11.0833 19 10 19Z" fill="black"/>
</svg>
