<svg width="20" height="20" viewBox="0 0 20 20" fill="none" xmlns="http://www.w3.org/2000/svg">
<mask id="path-1-inside-1_31_453" fill="white">
<path fill-rule="evenodd" clip-rule="evenodd" d="M10.862 2.14199V0.861692C10.862 0.385502 10.476 -0.000244141 10 -0.000244141C9.52407 -0.000244141 9.13808 0.385749 9.13808 0.861692V2.14199C9.13808 2.61818 9.52407 3.00393 10 3.00393C10.476 3.00393 10.862 2.61818 10.862 2.14199ZM4 9.99975C4 13.3081 6.6917 15.9998 10 15.9998C13.3083 15.9998 16 13.3081 16 9.99975C16 6.6912 13.3083 3.99976 10 3.99976C6.6917 3.99976 4 6.6912 4 9.99975ZM10 5.792C12.3202 5.792 14.2075 7.67955 14.2075 9.99975C14.2075 12.3197 12.3199 14.2073 10 14.2073C7.68006 14.2073 5.7925 12.3197 5.7925 9.99975C5.7925 7.67955 7.6798 5.792 10 5.792ZM9.13808 19.1383V17.8577C9.13808 17.3816 9.52407 16.9958 10 16.9958C10.476 16.9958 10.862 17.3816 10.862 17.8577V19.1383C10.862 19.6142 10.476 20.0002 10 20.0002C9.52407 20.0002 9.13808 19.6145 9.13808 19.1383ZM19.1381 10.8619C19.614 10.8619 20 10.4759 20 9.99998C20 9.52403 19.614 9.13804 19.1381 9.13804H17.8578C17.3818 9.13804 16.9958 9.52403 16.9958 9.99998C16.9958 10.4759 17.3818 10.8619 17.8578 10.8619H19.1381ZM0 9.99998C0 9.52403 0.385993 9.13804 0.861936 9.13804H2.14224C2.61818 9.13804 3.00417 9.52403 3.00417 9.99998C3.00417 10.4759 2.61818 10.8619 2.14224 10.8619H0.861936C0.385993 10.8619 0 10.4759 0 9.99998ZM15.8522 2.92881L14.9467 3.834C14.6102 4.17057 14.6102 4.71619 14.9467 5.05301C15.115 5.22154 15.3357 5.30556 15.5564 5.30556C15.777 5.30556 15.9975 5.2213 16.1658 5.05326L17.0712 4.14808C17.4078 3.81151 17.4078 3.26588 17.0712 2.92906C16.7346 2.592 16.1887 2.59224 15.8522 2.92881ZM2.92862 15.8524L3.83404 14.947C4.17086 14.6099 4.71649 14.6101 5.05306 14.9467C5.38963 15.2835 5.38963 15.8292 5.05306 16.1657L4.14763 17.0712C3.97935 17.2394 3.75843 17.3237 3.538 17.3237C3.31757 17.3237 3.0969 17.2397 2.92862 17.0714C2.59205 16.7346 2.59205 16.189 2.92862 15.8524ZM16.1661 14.947C15.8295 14.6102 15.2836 14.6104 14.947 14.9467C14.6105 15.2833 14.6105 15.8289 14.947 16.1657L15.8525 17.0712C16.0208 17.2397 16.2414 17.3237 16.4621 17.3237C16.6828 17.3237 16.9032 17.2395 17.0715 17.0714C17.4081 16.7349 17.4081 16.1892 17.0715 15.8524L16.1661 14.947ZM2.92882 2.92905C3.26539 2.59224 3.81127 2.59248 4.14784 2.92881L5.05326 3.83399C5.38983 4.17081 5.38983 4.71643 5.05326 5.053C4.88498 5.22129 4.66406 5.30556 4.44363 5.30556C4.22321 5.30556 4.00253 5.22154 3.83425 5.05325L2.92882 4.14807C2.59225 3.81125 2.59225 3.26562 2.92882 2.92905Z"/>
</mask>
<path fill-rule="evenodd" clip-rule="evenodd" d="M10.862 2.14199V0.861692C10.862 0.385502 10.476 -0.000244141 10 -0.000244141C9.52407 -0.000244141 9.13808 0.385749 9.13808 0.861692V2.14199C9.13808 2.61818 9.52407 3.00393 10 3.00393C10.476 3.00393 10.862 2.61818 10.862 2.14199ZM4 9.99975C4 13.3081 6.6917 15.9998 10 15.9998C13.3083 15.9998 16 13.3081 16 9.99975C16 6.6912 13.3083 3.99976 10 3.99976C6.6917 3.99976 4 6.6912 4 9.99975ZM10 5.792C12.3202 5.792 14.2075 7.67955 14.2075 9.99975C14.2075 12.3197 12.3199 14.2073 10 14.2073C7.68006 14.2073 5.7925 12.3197 5.7925 9.99975C5.7925 7.67955 7.6798 5.792 10 5.792ZM9.13808 19.1383V17.8577C9.13808 17.3816 9.52407 16.9958 10 16.9958C10.476 16.9958 10.862 17.3816 10.862 17.8577V19.1383C10.862 19.6142 10.476 20.0002 10 20.0002C9.52407 20.0002 9.13808 19.6145 9.13808 19.1383ZM19.1381 10.8619C19.614 10.8619 20 10.4759 20 9.99998C20 9.52403 19.614 9.13804 19.1381 9.13804H17.8578C17.3818 9.13804 16.9958 9.52403 16.9958 9.99998C16.9958 10.4759 17.3818 10.8619 17.8578 10.8619H19.1381ZM0 9.99998C0 9.52403 0.385993 9.13804 0.861936 9.13804H2.14224C2.61818 9.13804 3.00417 9.52403 3.00417 9.99998C3.00417 10.4759 2.61818 10.8619 2.14224 10.8619H0.861936C0.385993 10.8619 0 10.4759 0 9.99998ZM15.8522 2.92881L14.9467 3.834C14.6102 4.17057 14.6102 4.71619 14.9467 5.05301C15.115 5.22154 15.3357 5.30556 15.5564 5.30556C15.777 5.30556 15.9975 5.2213 16.1658 5.05326L17.0712 4.14808C17.4078 3.81151 17.4078 3.26588 17.0712 2.92906C16.7346 2.592 16.1887 2.59224 15.8522 2.92881ZM2.92862 15.8524L3.83404 14.947C4.17086 14.6099 4.71649 14.6101 5.05306 14.9467C5.38963 15.2835 5.38963 15.8292 5.05306 16.1657L4.14763 17.0712C3.97935 17.2394 3.75843 17.3237 3.538 17.3237C3.31757 17.3237 3.0969 17.2397 2.92862 17.0714C2.59205 16.7346 2.59205 16.189 2.92862 15.8524ZM16.1661 14.947C15.8295 14.6102 15.2836 14.6104 14.947 14.9467C14.6105 15.2833 14.6105 15.8289 14.947 16.1657L15.8525 17.0712C16.0208 17.2397 16.2414 17.3237 16.4621 17.3237C16.6828 17.3237 16.9032 17.2395 17.0715 17.0714C17.4081 16.7349 17.4081 16.1892 17.0715 15.8524L16.1661 14.947ZM2.92882 2.92905C3.26539 2.59224 3.81127 2.59248 4.14784 2.92881L5.05326 3.83399C5.38983 4.17081 5.38983 4.71643 5.05326 5.053C4.88498 5.22129 4.66406 5.30556 4.44363 5.30556C4.22321 5.30556 4.00253 5.22154 3.83425 5.05325L2.92882 4.14807C2.59225 3.81125 2.59225 3.26562 2.92882 2.92905Z" fill="white"/>
<path d="M14.9467 3.834L14.2397 3.12679L14.2396 3.12689L14.9467 3.834ZM15.8522 2.92881L16.5592 3.63602L16.5593 3.63592L15.8522 2.92881ZM14.9467 5.05301L15.6544 4.34642L15.6541 4.34617L14.9467 5.05301ZM16.1658 5.05326L16.8723 5.76089L16.8728 5.76046L16.1658 5.05326ZM17.0712 4.14808L17.7782 4.85528L17.7783 4.85518L17.0712 4.14808ZM17.0712 2.92906L16.3636 3.63565L16.3638 3.63591L17.0712 2.92906ZM3.83404 14.947L4.54115 15.6541L4.54141 15.6538L3.83404 14.947ZM2.92862 15.8524L3.63572 16.5595L3.63572 16.5595L2.92862 15.8524ZM5.05306 14.9467L5.76043 14.2399L5.76017 14.2396L5.05306 14.9467ZM5.05306 16.1657L5.76017 16.8728L5.76017 16.8728L5.05306 16.1657ZM4.14763 17.0712L3.44053 16.364L3.44052 16.3641L4.14763 17.0712ZM2.92862 17.0714L2.22125 17.7783L2.22151 17.7785L2.92862 17.0714ZM14.947 14.9467L14.2402 14.2394L14.2399 14.2396L14.947 14.9467ZM16.1661 14.947L15.4587 15.6538L15.459 15.6541L16.1661 14.947ZM14.947 16.1657L14.2397 16.8726L14.2399 16.8729L14.947 16.1657ZM15.8525 17.0712L16.5601 16.3646L16.5596 16.3641L15.8525 17.0712ZM17.0715 17.0714L17.7781 17.7791L17.7786 17.7785L17.0715 17.0714ZM17.0715 15.8524L17.7789 15.1456L17.7786 15.1453L17.0715 15.8524ZM4.14784 2.92881L4.85485 2.2216L4.85468 2.22144L4.14784 2.92881ZM2.92882 2.92905L3.63593 3.63616L3.63619 3.6359L2.92882 2.92905ZM5.05326 3.83399L5.76063 3.12714L5.76027 3.12679L5.05326 3.83399ZM3.83425 5.05325L4.54135 4.34615L4.54126 4.34605L3.83425 5.05325ZM2.92882 4.14807L2.22145 4.85492L2.22181 4.85527L2.92882 4.14807ZM9.86195 0.861692V2.14199H11.862V0.861692H9.86195ZM10 0.999756C9.92386 0.999756 9.86195 0.937973 9.86195 0.861692H11.862C11.862 -0.16697 11.0281 -1.00024 10 -1.00024V0.999756ZM10.1381 0.861692C10.1381 0.938034 10.0764 0.999756 10 0.999756V-1.00024C8.97179 -1.00024 8.13808 -0.166536 8.13808 0.861692H10.1381ZM10.1381 2.14199V0.861692H8.13808V2.14199H10.1381ZM10 2.00393C10.0762 2.00393 10.1381 2.06571 10.1381 2.14199H8.13808C8.13808 3.17065 8.97198 4.00393 10 4.00393V2.00393ZM9.86195 2.14199C9.86195 2.06571 9.92386 2.00393 10 2.00393V4.00393C11.0281 4.00393 11.862 3.17065 11.862 2.14199H9.86195ZM10 14.9998C7.24399 14.9998 5 12.7558 5 9.99975H3C3 13.8603 6.13942 16.9998 10 16.9998V14.9998ZM15 9.99975C15 12.7558 12.756 14.9998 10 14.9998V16.9998C13.8606 16.9998 17 13.8603 17 9.99975H15ZM10 4.99976C12.756 4.99976 15 7.24351 15 9.99975H17C17 6.13889 13.8606 2.99976 10 2.99976V4.99976ZM5 9.99975C5 7.24351 7.24396 4.99976 10 4.99976V2.99976C6.13945 2.99976 3 6.13889 3 9.99975H5ZM15.2075 9.99975C15.2075 7.12735 12.8726 4.792 10 4.792V6.792C11.7678 6.792 13.2075 8.23176 13.2075 9.99975H15.2075ZM10 15.2073C12.8722 15.2073 15.2075 12.872 15.2075 9.99975H13.2075C13.2075 11.7674 11.7677 13.2073 10 13.2073V15.2073ZM4.7925 9.99975C4.7925 12.872 7.12777 15.2073 10 15.2073V13.2073C8.23234 13.2073 6.7925 11.7674 6.7925 9.99975H4.7925ZM10 4.792C7.12743 4.792 4.7925 7.12735 4.7925 9.99975H6.7925C6.7925 8.23176 8.23216 6.792 10 6.792V4.792ZM8.13808 17.8577V19.1383H10.1381V17.8577H8.13808ZM10 15.9958C8.97197 15.9958 8.13808 16.8291 8.13808 17.8577H10.1381C10.1381 17.934 10.0762 17.9958 10 17.9958V15.9958ZM11.862 17.8577C11.862 16.8291 11.0281 15.9958 10 15.9958V17.9958C9.92386 17.9958 9.86195 17.934 9.86195 17.8577H11.862ZM11.862 19.1383V17.8577H9.86195V19.1383H11.862ZM10 21.0002C11.0282 21.0002 11.862 20.1665 11.862 19.1383H9.86195C9.86195 19.062 9.92367 19.0002 10 19.0002V21.0002ZM8.13808 19.1383C8.13808 20.167 8.97198 21.0002 10 21.0002V19.0002C10.0762 19.0002 10.1381 19.062 10.1381 19.1383H8.13808ZM19 9.99998C19 9.92363 19.0617 9.86191 19.1381 9.86191V11.8619C20.1663 11.8619 21 11.0282 21 9.99998H19ZM19.1381 10.138C19.0617 10.138 19 10.0763 19 9.99998H21C21 8.97175 20.1663 8.13804 19.1381 8.13804V10.138ZM17.8578 10.138H19.1381V8.13804H17.8578V10.138ZM17.9958 9.99998C17.9958 10.0763 17.9341 10.138 17.8578 10.138V8.13804C16.8296 8.13804 15.9958 8.97175 15.9958 9.99998H17.9958ZM17.8578 9.86191C17.9341 9.86191 17.9958 9.92364 17.9958 9.99998H15.9958C15.9958 11.0282 16.8296 11.8619 17.8578 11.8619V9.86191ZM19.1381 9.86191H17.8578V11.8619H19.1381V9.86191ZM0.861936 8.13804C-0.166292 8.13804 -1 8.97175 -1 9.99998H1C1 10.0763 0.938278 10.138 0.861936 10.138V8.13804ZM2.14224 8.13804H0.861936V10.138H2.14224V8.13804ZM4.00417 9.99998C4.00417 8.97175 3.17046 8.13804 2.14224 8.13804V10.138C2.0659 10.138 2.00417 10.0763 2.00417 9.99998H4.00417ZM2.14224 11.8619C3.17046 11.8619 4.00417 11.0282 4.00417 9.99998H2.00417C2.00417 9.92363 2.0659 9.86191 2.14224 9.86191V11.8619ZM0.861936 11.8619H2.14224V9.86191H0.861936V11.8619ZM-1 9.99998C-1 11.0282 -0.166292 11.8619 0.861936 11.8619V9.86191C0.938278 9.86191 1 9.92363 1 9.99998H-1ZM15.6538 4.5412L16.5592 3.63602L15.1452 2.22161L14.2397 3.12679L15.6538 4.5412ZM15.6541 4.34617C15.7076 4.39967 15.7079 4.48701 15.6539 4.5411L14.2396 3.12689C13.5124 3.85413 13.5128 5.03272 14.2394 5.75986L15.6541 4.34617ZM15.5564 4.30556C15.5896 4.30556 15.627 4.31906 15.6544 4.34642L14.2391 5.7596C14.603 6.12403 15.0818 6.30556 15.5564 6.30556V4.30556ZM15.4592 4.34563C15.4855 4.31937 15.5223 4.30556 15.5564 4.30556V6.30556C16.0318 6.30556 16.5095 6.12323 16.8723 5.76089L15.4592 4.34563ZM16.3642 3.44088L15.4587 4.34606L16.8728 5.76046L17.7782 4.85528L16.3642 3.44088ZM16.3638 3.63591C16.3104 3.5824 16.31 3.49507 16.3641 3.44097L17.7783 4.85518C18.5055 4.12795 18.5052 2.94935 17.7786 2.22222L16.3638 3.63591ZM16.5593 3.63592C16.5056 3.68959 16.4179 3.69009 16.3636 3.63565L17.7788 2.22247C17.0513 1.49391 15.8719 1.4949 15.1451 2.22171L16.5593 3.63592ZM3.12694 14.2399L2.22151 15.1453L3.63572 16.5595L4.54115 15.6541L3.12694 14.2399ZM5.76017 14.2396C5.03322 13.5127 3.85422 13.512 3.12668 14.2401L4.54141 15.6538C4.4875 15.7078 4.39976 15.7076 4.34595 15.6538L5.76017 14.2396ZM5.76017 16.8728C6.48741 16.1456 6.48703 14.967 5.76043 14.2399L4.34569 15.6536C4.29223 15.6001 4.29186 15.5127 4.34595 15.4586L5.76017 16.8728ZM4.85474 17.7783L5.76017 16.8728L4.34595 15.4586L3.44053 16.364L4.85474 17.7783ZM3.538 18.3237C4.01282 18.3237 4.4914 18.1416 4.85474 17.7783L3.44052 16.3641C3.46729 16.3373 3.50403 16.3237 3.538 16.3237V18.3237ZM2.22151 17.7785C2.58515 18.1422 3.06363 18.3237 3.538 18.3237V16.3237C3.57152 16.3237 3.60865 16.3372 3.63572 16.3643L2.22151 17.7785ZM2.22151 15.1453C1.49427 15.8725 1.49464 17.0511 2.22125 17.7783L3.63598 16.3646C3.68945 16.4181 3.68982 16.5054 3.63572 16.5595L2.22151 15.1453ZM15.6539 15.6541C15.6003 15.7077 15.513 15.7082 15.4587 15.6538L16.8734 14.2401C16.146 13.5122 14.967 13.5132 14.2402 14.2394L15.6539 15.6541ZM15.6544 15.4589C15.7079 15.5124 15.7083 15.5997 15.6542 15.6538L14.2399 14.2396C13.5127 14.9669 13.5131 16.1455 14.2397 16.8726L15.6544 15.4589ZM16.5596 16.3641L15.6542 15.4586L14.2399 16.8729L15.1454 17.7783L16.5596 16.3641ZM16.4621 16.3237C16.4953 16.3237 16.5328 16.3372 16.5601 16.3646L15.1449 17.7778C15.5087 18.1422 15.9875 18.3237 16.4621 18.3237V16.3237ZM16.3649 16.3638C16.3912 16.3375 16.428 16.3237 16.4621 16.3237V18.3237C16.9376 18.3237 17.4152 18.1414 17.7781 17.7791L16.3649 16.3638ZM16.3641 16.5593C16.3107 16.5057 16.3103 16.4184 16.3644 16.3643L17.7786 17.7785C18.5058 17.0513 18.5055 15.8727 17.7789 15.1456L16.3641 16.5593ZM15.459 15.6541L16.3644 16.5595L17.7786 15.1453L16.8732 14.2399L15.459 15.6541ZM4.85468 2.22144C4.12793 1.49523 2.94889 1.49423 2.22145 2.22221L3.63619 3.6359C3.58189 3.69024 3.4946 3.68974 3.44099 3.63617L4.85468 2.22144ZM5.76027 3.12679L4.85485 2.2216L3.44083 3.63601L4.34625 4.54119L5.76027 3.12679ZM5.76037 5.76011C6.48761 5.03287 6.48723 3.85428 5.76063 3.12714L4.3459 4.54084C4.29243 4.48733 4.29206 4.4 4.34616 4.3459L5.76037 5.76011ZM4.44363 6.30556C4.91846 6.30556 5.39703 6.12345 5.76037 5.76011L4.34616 4.3459C4.37292 4.31913 4.40966 4.30556 4.44363 4.30556V6.30556ZM3.12714 5.76036C3.49078 6.124 3.96926 6.30556 4.44363 6.30556V4.30556C4.47715 4.30556 4.51428 4.31907 4.54135 4.34615L3.12714 5.76036ZM2.22181 4.85527L3.12724 5.76046L4.54126 4.34605L3.63583 3.44087L2.22181 4.85527ZM2.22171 2.22195C1.49447 2.94919 1.49485 4.12778 2.22145 4.85492L3.63619 3.44122C3.68965 3.49473 3.69002 3.58206 3.63593 3.63616L2.22171 2.22195Z" fill="white" mask="url(#path-1-inside-1_31_453)"/>
</svg>
