<svg width="20" height="20" viewBox="0 0 20 20" fill="none" xmlns="http://www.w3.org/2000/svg">
<path fill-rule="evenodd" clip-rule="evenodd" d="M10.862 2.14224V0.861936C10.862 0.385746 10.476 0 10 0C9.52407 0 9.13808 0.385993 9.13808 0.861936V2.14224C9.13808 2.61843 9.52407 3.00417 10 3.00417C10.476 3.00417 10.862 2.61843 10.862 2.14224ZM4 10C4 13.3083 6.6917 16 10 16C13.3083 16 16 13.3083 16 10C16 6.69144 13.3083 4 10 4C6.6917 4 4 6.69144 4 10ZM10 5.79224C12.3202 5.79224 14.2075 7.6798 14.2075 10C14.2075 12.3199 12.3199 14.2075 10 14.2075C7.68006 14.2075 5.7925 12.3199 5.7925 10C5.7925 7.6798 7.6798 5.79224 10 5.79224ZM9.13808 19.1385V17.858C9.13808 17.3818 9.52407 16.9961 10 16.9961C10.476 16.9961 10.862 17.3818 10.862 17.858V19.1385C10.862 19.6145 10.476 20.0005 10 20.0005C9.52407 20.0005 9.13808 19.6147 9.13808 19.1385ZM19.1381 10.8622C19.614 10.8622 20 10.4762 20 10.0002C20 9.52428 19.614 9.13829 19.1381 9.13829H17.8578C17.3818 9.13829 16.9958 9.52428 16.9958 10.0002C16.9958 10.4762 17.3818 10.8622 17.8578 10.8622H19.1381ZM0 10.0002C0 9.52428 0.385993 9.13829 0.861936 9.13829H2.14224C2.61818 9.13829 3.00417 9.52428 3.00417 10.0002C3.00417 10.4762 2.61818 10.8622 2.14224 10.8622H0.861936C0.385993 10.8622 0 10.4762 0 10.0002ZM15.8522 2.92906L14.9467 3.83424C14.6102 4.17081 14.6102 4.71644 14.9467 5.05326C15.115 5.22179 15.3357 5.30581 15.5564 5.30581C15.777 5.30581 15.9975 5.22154 16.1658 5.0535L17.0712 4.14832C17.4078 3.81175 17.4078 3.26612 17.0712 2.92931C16.7346 2.59224 16.1887 2.59249 15.8522 2.92906ZM2.92862 15.8526L3.83404 14.9472C4.17086 14.6101 4.71649 14.6104 5.05306 14.947C5.38963 15.2838 5.38963 15.8294 5.05306 16.166L4.14763 17.0714C3.97935 17.2397 3.75843 17.324 3.538 17.324C3.31757 17.324 3.0969 17.2399 2.92862 17.0716C2.59205 16.7348 2.59205 16.1892 2.92862 15.8526ZM16.1661 14.9472C15.8295 14.6104 15.2836 14.6107 14.947 14.947C14.6105 15.2835 14.6105 15.8292 14.947 16.166L15.8525 17.0714C16.0208 17.24 16.2414 17.324 16.4621 17.324C16.6828 17.324 16.9032 17.2397 17.0715 17.0717C17.4081 16.7351 17.4081 16.1895 17.0715 15.8527L16.1661 14.9472ZM2.92882 2.9293C3.26539 2.59248 3.81127 2.59273 4.14784 2.92905L5.05326 3.83423C5.38983 4.17105 5.38983 4.71668 5.05326 5.05325C4.88498 5.22153 4.66406 5.3058 4.44363 5.3058C4.22321 5.3058 4.00253 5.22178 3.83425 5.0535L2.92882 4.14831C2.59225 3.8115 2.59225 3.26587 2.92882 2.9293Z" fill="black"/>
</svg>
