<svg width="20" height="20" viewBox="0 0 20 20" fill="none" xmlns="http://www.w3.org/2000/svg">
<path d="M11.8182 8.1625V6.675C12.3182 6.47083 12.8295 6.31771 13.3523 6.21563C13.875 6.11354 14.4242 6.0625 15 6.0625C15.3939 6.0625 15.7803 6.09167 16.1591 6.15C16.5379 6.20833 16.9091 6.28125 17.2727 6.36875V7.76875C16.9091 7.6375 16.5417 7.53906 16.1705 7.47344C15.7992 7.40781 15.4091 7.375 15 7.375C14.4242 7.375 13.8712 7.44427 13.3409 7.58281C12.8106 7.72135 12.303 7.91458 11.8182 8.1625ZM11.8182 12.975V11.4875C12.3182 11.2833 12.8295 11.1302 13.3523 11.0281C13.875 10.926 14.4242 10.875 15 10.875C15.3939 10.875 15.7803 10.9042 16.1591 10.9625C16.5379 11.0208 16.9091 11.0938 17.2727 11.1812V12.5813C16.9091 12.45 16.5417 12.3516 16.1705 12.2859C15.7992 12.2203 15.4091 12.1875 15 12.1875C14.4242 12.1875 13.8712 12.2531 13.3409 12.3844C12.8106 12.5156 12.303 12.7125 11.8182 12.975ZM11.8182 10.5687V9.08125C12.3182 8.87708 12.8295 8.72396 13.3523 8.62187C13.875 8.51979 14.4242 8.46875 15 8.46875C15.3939 8.46875 15.7803 8.49792 16.1591 8.55625C16.5379 8.61458 16.9091 8.6875 17.2727 8.775V10.175C16.9091 10.0437 16.5417 9.94531 16.1705 9.87969C15.7992 9.81406 15.4091 9.78125 15 9.78125C14.4242 9.78125 13.8712 9.85052 13.3409 9.98906C12.8106 10.1276 12.303 10.3208 11.8182 10.5687ZM5 13.5C5.71212 13.5 6.4053 13.5766 7.07955 13.7297C7.75379 13.8828 8.42424 14.1125 9.09091 14.4187V5.8C8.4697 5.45 7.81061 5.1875 7.11364 5.0125C6.41667 4.8375 5.71212 4.75 5 4.75C4.45455 4.75 3.91288 4.80104 3.375 4.90312C2.83712 5.00521 2.31818 5.15833 1.81818 5.3625V14.025C2.34848 13.85 2.875 13.7188 3.39773 13.6312C3.92045 13.5437 4.45455 13.5 5 13.5ZM10.9091 14.4187C11.5758 14.1125 12.2462 13.8828 12.9205 13.7297C13.5947 13.5766 14.2879 13.5 15 13.5C15.5455 13.5 16.0795 13.5437 16.6023 13.6312C17.125 13.7188 17.6515 13.85 18.1818 14.025V5.3625C17.6818 5.15833 17.1629 5.00521 16.625 4.90312C16.0871 4.80104 15.5455 4.75 15 4.75C14.2879 4.75 13.5833 4.8375 12.8864 5.0125C12.1894 5.1875 11.5303 5.45 10.9091 5.8V14.4187ZM10 17C9.27273 16.4458 8.48485 16.0156 7.63636 15.7094C6.78788 15.4031 5.90909 15.25 5 15.25C4.36364 15.25 3.73864 15.3302 3.125 15.4906C2.51136 15.651 1.92424 15.8771 1.36364 16.1687C1.04545 16.3292 0.738636 16.3219 0.443182 16.1469C0.147727 15.9719 0 15.7167 0 15.3812V4.8375C0 4.67708 0.0416667 4.52396 0.125 4.37812C0.208333 4.23229 0.333333 4.12292 0.5 4.05C1.19697 3.7 1.92424 3.4375 2.68182 3.2625C3.43939 3.0875 4.21212 3 5 3C5.87879 3 6.73864 3.10938 7.57955 3.32812C8.42045 3.54688 9.22727 3.875 10 4.3125C10.7727 3.875 11.5795 3.54688 12.4205 3.32812C13.2614 3.10938 14.1212 3 15 3C15.7879 3 16.5606 3.0875 17.3182 3.2625C18.0758 3.4375 18.803 3.7 19.5 4.05C19.6667 4.12292 19.7917 4.23229 19.875 4.37812C19.9583 4.52396 20 4.67708 20 4.8375V15.3812C20 15.7167 19.8523 15.9719 19.5568 16.1469C19.2614 16.3219 18.9545 16.3292 18.6364 16.1687C18.0758 15.8771 17.4886 15.651 16.875 15.4906C16.2614 15.3302 15.6364 15.25 15 15.25C14.0909 15.25 13.2121 15.4031 12.3636 15.7094C11.5152 16.0156 10.7273 16.4458 10 17Z" fill="black"/>
</svg>
