<svg width="20" height="20" viewBox="0 0 20 20" fill="none" xmlns="http://www.w3.org/2000/svg">
<path d="M5.94872 20H2.05128C1.48718 20 1.00427 19.7991 0.602564 19.3974C0.200855 18.9957 0 18.5128 0 17.9487V14.0513C0.820513 14.0513 1.53846 13.7906 2.15385 13.2692C2.76923 12.7479 3.07692 12.0855 3.07692 11.2821C3.07692 10.4786 2.76923 9.81624 2.15385 9.29487C1.53846 8.7735 0.820513 8.51282 0 8.51282V4.61538C0 4.05128 0.200855 3.56838 0.602564 3.16667C1.00427 2.76496 1.48718 2.5641 2.05128 2.5641H6.15385C6.15385 1.84615 6.40171 1.23932 6.89744 0.74359C7.39316 0.247863 8 0 8.71795 0C9.4359 0 10.0427 0.247863 10.5385 0.74359C11.0342 1.23932 11.2821 1.84615 11.2821 2.5641H15.3846C15.9487 2.5641 16.4316 2.76496 16.8333 3.16667C17.235 3.56838 17.4359 4.05128 17.4359 4.61538V8.71795C18.1538 8.71795 18.7607 8.96581 19.2564 9.46154C19.7521 9.95726 20 10.5641 20 11.2821C20 12 19.7521 12.6068 19.2564 13.1026C18.7607 13.5983 18.1538 13.8462 17.4359 13.8462V17.9487C17.4359 18.5128 17.235 18.9957 16.8333 19.3974C16.4316 19.7991 15.9487 20 15.3846 20H11.4872C11.4872 19.1453 11.2179 18.4188 10.6795 17.8205C10.141 17.2222 9.48718 16.9231 8.71795 16.9231C7.94872 16.9231 7.29487 17.2222 6.75641 17.8205C6.21795 18.4188 5.94872 19.1453 5.94872 20ZM2.05128 17.9487H4.23077C4.64103 16.8205 5.29915 16.0256 6.20513 15.5641C7.11111 15.1026 7.94872 14.8718 8.71795 14.8718C9.48718 14.8718 10.3248 15.1026 11.2308 15.5641C12.1368 16.0256 12.7949 16.8205 13.2051 17.9487H15.3846V11.7949H17.4359C17.5726 11.7949 17.6923 11.7436 17.7949 11.641C17.8974 11.5385 17.9487 11.4188 17.9487 11.2821C17.9487 11.1453 17.8974 11.0256 17.7949 10.9231C17.6923 10.8205 17.5726 10.7692 17.4359 10.7692H15.3846V4.61538H9.23077V2.5641C9.23077 2.42735 9.17949 2.30769 9.07692 2.20513C8.97436 2.10256 8.8547 2.05128 8.71795 2.05128C8.5812 2.05128 8.46154 2.10256 8.35897 2.20513C8.25641 2.30769 8.20513 2.42735 8.20513 2.5641V4.61538H2.05128V6.8718C2.97436 7.21368 3.71795 7.78632 4.28205 8.58974C4.84615 9.39316 5.12821 10.2906 5.12821 11.2821C5.12821 12.2564 4.84615 13.1453 4.28205 13.9487C3.71795 14.7521 2.97436 15.3333 2.05128 15.6923V17.9487Z" fill="black"/>
</svg>
