<svg width="20" height="20" viewBox="0 0 20 20" fill="none" xmlns="http://www.w3.org/2000/svg">
<path d="M3.44615 19C2.61538 19 2 18.835 1.6 18.505C1.2 18.175 1 17.68 1 17.02C1 16.15 1.37692 15.595 2.13077 15.355C2.88462 15.115 3.77692 14.995 4.80769 14.995H5.29231V13.735C5.29231 13.225 5.28462 12.8088 5.26923 12.4863C5.25385 12.1638 5.20769 11.8975 5.13077 11.6875C5.05385 11.4775 4.96538 11.3313 4.86538 11.2488C4.76538 11.1663 4.63077 11.125 4.46154 11.125C4.32308 11.125 4.19615 11.1475 4.08077 11.1925C3.96538 11.2375 3.86923 11.2975 3.79231 11.3725C3.73077 11.4475 3.69231 11.5263 3.67692 11.6088C3.66154 11.6913 3.66923 11.7775 3.7 11.8675C3.79231 12.0325 3.9 12.1938 4.02308 12.3513C4.14615 12.5088 4.20769 12.6925 4.20769 12.9025C4.20769 13.2775 4.07308 13.5963 3.80385 13.8588C3.53462 14.1213 3.20769 14.2525 2.82308 14.2525C2.43846 14.2525 2.11154 14.1213 1.84231 13.8588C1.57308 13.5963 1.43846 13.2775 1.43846 12.9025C1.43846 12.4975 1.53077 12.1675 1.71538 11.9125C1.9 11.6575 2.15 11.455 2.46538 11.305C2.78077 11.155 3.14615 11.05 3.56154 10.99C3.97692 10.93 4.42308 10.9 4.9 10.9C6.20769 10.9 7.11538 11.1288 7.62308 11.5863C8.13077 12.0438 8.38462 12.85 8.38462 14.005V17.3125C8.38462 17.5975 8.41923 17.8075 8.48846 17.9425C8.55769 18.0775 8.67692 18.145 8.84615 18.145C9.03077 18.145 9.18077 18.01 9.29615 17.74C9.41154 17.47 9.48462 17.05 9.51538 16.48H9.76923C9.72308 17.41 9.54231 18.0625 9.22692 18.4375C8.91154 18.8125 8.38462 19 7.64615 19C6.98462 19 6.46538 18.8988 6.08846 18.6963C5.71154 18.4938 5.46923 18.19 5.36154 17.785C5.20769 18.22 4.98077 18.5312 4.68077 18.7188C4.38077 18.9062 3.96923 19 3.44615 19ZM12.0538 19C11.7462 19 11.4962 18.8763 11.3038 18.6287C11.1115 18.3813 11.0769 18.115 11.2 17.83L13.5538 11.7775C13.6615 11.5225 13.8308 11.3125 14.0615 11.1475C14.2923 10.9825 14.5538 10.9 14.8462 10.9C15.1385 10.9 15.4 10.9825 15.6308 11.1475C15.8615 11.3125 16.0308 11.5225 16.1385 11.7775L18.4923 17.83C18.6154 18.115 18.5808 18.3813 18.3885 18.6287C18.1962 18.8763 17.9462 19 17.6385 19C17.4538 19 17.2846 18.9475 17.1308 18.8425C16.9769 18.7375 16.8615 18.595 16.7846 18.415L16.3231 17.11H13.3692L12.9077 18.415C12.8462 18.58 12.7385 18.7188 12.5846 18.8313C12.4308 18.9438 12.2538 19 12.0538 19ZM4.57692 18.3475C4.77692 18.3475 4.94615 18.1938 5.08462 17.8863C5.22308 17.5788 5.29231 17.2075 5.29231 16.7725V15.265C4.89231 15.265 4.6 15.3813 4.41538 15.6138C4.23077 15.8463 4.13846 16.225 4.13846 16.75V16.9975C4.13846 17.5375 4.16923 17.8975 4.23077 18.0775C4.29231 18.2575 4.40769 18.3475 4.57692 18.3475ZM13.9692 15.535H15.7462L14.8462 12.97L13.9692 15.535ZM13.1154 9.1225C12.3769 9.1225 11.7885 8.87125 11.35 8.36875C10.9115 7.86625 10.6923 7.1875 10.6923 6.3325C10.6923 4.7725 11.2 3.49375 12.2154 2.49625C13.2308 1.49875 14.5308 1 16.1154 1C16.7615 1 17.2846 1.07125 17.6846 1.21375C18.0846 1.35625 18.2846 1.54 18.2846 1.765C18.2846 1.855 18.2692 1.945 18.2385 2.035C18.2077 2.125 18.1538 2.2075 18.0769 2.2825C18 2.3875 17.9038 2.4625 17.7885 2.5075C17.6731 2.5525 17.5538 2.56 17.4308 2.53C17.2154 2.47 16.9692 2.4175 16.6923 2.3725C16.4154 2.3275 16.1615 2.305 15.9308 2.305C14.8385 2.305 13.9615 2.665 13.3 3.385C12.6385 4.105 12.3077 5.0575 12.3077 6.2425C12.3077 6.5725 12.3692 6.9175 12.4923 7.2775C12.6154 7.6375 12.8923 7.8175 13.3231 7.8175C13.4923 7.8175 13.6577 7.78 13.8192 7.705C13.9808 7.63 14.1231 7.525 14.2462 7.39C14.5077 7.12 14.75 6.67 14.9731 6.04C15.1962 5.41 15.4 4.645 15.5846 3.745C15.6154 3.55 15.6962 3.41125 15.8269 3.32875C15.9577 3.24625 16.1385 3.205 16.3692 3.205C16.6462 3.205 16.8577 3.27625 17.0038 3.41875C17.15 3.56125 17.1923 3.7375 17.1308 3.9475C16.9462 4.5925 16.8115 5.155 16.7269 5.635C16.6423 6.115 16.6 6.55 16.6 6.94C16.6 7.24 16.6423 7.4575 16.7269 7.5925C16.8115 7.7275 16.9385 7.795 17.1077 7.795C17.2769 7.795 17.4423 7.735 17.6038 7.615C17.7654 7.495 17.9923 7.27 18.2846 6.94C18.3154 6.895 18.4308 6.8425 18.6308 6.7825C18.7538 6.7825 18.8462 6.8275 18.9077 6.9175C18.9692 7.0075 19 7.135 19 7.3C19 7.72 18.7538 8.125 18.2615 8.515C17.7692 8.905 17.2538 9.1 16.7154 9.1C16.3154 9.1 15.9731 8.995 15.6885 8.785C15.4038 8.575 15.2077 8.275 15.1 7.885C14.8692 8.275 14.5846 8.57875 14.2462 8.79625C13.9077 9.01375 13.5308 9.1225 13.1154 9.1225ZM1.92308 9.1V4.15C1.92308 3.28 2.23846 2.5375 2.86923 1.9225C3.5 1.3075 4.26154 1 5.15385 1C6.04615 1 6.80769 1.3075 7.43846 1.9225C8.06923 2.5375 8.38462 3.28 8.38462 4.15V9.1H6.53846V7.3H3.76923V9.1H1.92308ZM3.76923 5.5H6.53846V4.15C6.53846 3.775 6.40385 3.45625 6.13462 3.19375C5.86538 2.93125 5.53846 2.8 5.15385 2.8C4.76923 2.8 4.44231 2.93125 4.17308 3.19375C3.90385 3.45625 3.76923 3.775 3.76923 4.15V5.5Z" fill="black"/>
</svg>
