<svg width="20" height="20" viewBox="0 0 20 20" fill="none" xmlns="http://www.w3.org/2000/svg">
<path d="M10 20C8.61667 20 7.31667 19.7375 6.1 19.2125C4.88333 18.6875 3.825 17.975 2.925 17.075C2.025 16.175 1.3125 15.1167 0.7875 13.9C0.2625 12.6833 0 11.3833 0 10C0 8.61667 0.2625 7.31667 0.7875 6.1C1.3125 4.88333 2.025 3.825 2.925 2.925C3.825 2.025 4.88333 1.3125 6.1 0.7875C7.31667 0.2625 8.61667 0 10 0C11.3833 0 12.6833 0.2625 13.9 0.7875C15.1167 1.3125 16.175 2.025 17.075 2.925C17.975 3.825 18.6875 4.88333 19.2125 6.1C19.7375 7.31667 20 8.61667 20 10C20 11.3833 19.7375 12.6833 19.2125 13.9C18.6875 15.1167 17.975 16.175 17.075 17.075C16.175 17.975 15.1167 18.6875 13.9 19.2125C12.6833 19.7375 11.3833 20 10 20ZM7.1 17.45L8.3 14.7C7.6 14.45 6.99583 14.0625 6.4875 13.5375C5.97917 13.0125 5.58333 12.4 5.3 11.7L2.55 12.85C2.93333 13.9167 3.525 14.85 4.325 15.65C5.125 16.45 6.05 17.05 7.1 17.45ZM5.3 8.3C5.58333 7.6 5.97917 6.9875 6.4875 6.4625C6.99583 5.9375 7.6 5.55 8.3 5.3L7.15 2.55C6.08333 2.95 5.15 3.55 4.35 4.35C3.55 5.15 2.95 6.08333 2.55 7.15L5.3 8.3ZM10 13C10.8333 13 11.5417 12.7083 12.125 12.125C12.7083 11.5417 13 10.8333 13 10C13 9.16667 12.7083 8.45833 12.125 7.875C11.5417 7.29167 10.8333 7 10 7C9.16667 7 8.45833 7.29167 7.875 7.875C7.29167 8.45833 7 9.16667 7 10C7 10.8333 7.29167 11.5417 7.875 12.125C8.45833 12.7083 9.16667 13 10 13ZM12.9 17.45C13.95 17.05 14.8708 16.4542 15.6625 15.6625C16.4542 14.8708 17.05 13.95 17.45 12.9L14.7 11.7C14.45 12.4 14.0667 13.0042 13.55 13.5125C13.0333 14.0208 12.4333 14.4167 11.75 14.7L12.9 17.45ZM14.7 8.25L17.45 7.1C17.05 6.05 16.4542 5.12917 15.6625 4.3375C14.8708 3.54583 13.95 2.95 12.9 2.55L11.75 5.35C12.4333 5.6 13.025 5.97917 13.525 6.4875C14.025 6.99583 14.4167 7.58333 14.7 8.25Z" fill="black"/>
</svg>
