<svg width="16" height="16" viewBox="0 0 16 16" fill="none" xmlns="http://www.w3.org/2000/svg">
<path fill-rule="evenodd" clip-rule="evenodd" d="M7.22874 1.80718C4.2345 1.80718 1.80718 4.2345 1.80718 7.22874C1.80718 10.223 4.2345 12.6503 7.22874 12.6503C10.223 12.6503 12.6503 10.223 12.6503 7.22874C12.6503 4.2345 10.223 1.80718 7.22874 1.80718ZM0 7.22874C0 3.23642 3.23642 0 7.22874 0C11.2211 0 14.4575 3.23642 14.4575 7.22874C14.4575 11.2211 11.2211 14.4575 7.22874 14.4575C3.23642 14.4575 0 11.2211 0 7.22874Z" fill="#5D5D5D"/>
<path fill-rule="evenodd" clip-rule="evenodd" d="M11.1078 11.1078C11.4606 10.7549 12.0328 10.7549 12.3856 11.1078L16 14.7221L14.7221 16L11.1078 12.3856C10.7549 12.0328 10.7549 11.4606 11.1078 11.1078Z" fill="#5D5D5D"/>
</svg>
