<svg width="200" height="124" viewBox="0 0 200 124" fill="none" xmlns="http://www.w3.org/2000/svg">
<path d="M69.2768 67V56.8182H70.813V61.2429H75.889V56.8182H77.4302V67H75.889V62.5604H70.813V67H69.2768ZM80.4877 69.8636C80.2657 69.8636 80.0635 69.8454 79.8812 69.8089C79.6989 69.7758 79.563 69.7393 79.4735 69.6996L79.8315 68.4815C80.1033 68.5545 80.3452 68.5859 80.5574 68.576C80.7695 68.5661 80.9567 68.4865 81.1191 68.3374C81.2849 68.1882 81.4307 67.9446 81.5566 67.6065L81.7406 67.0994L78.9466 59.3636H80.5375L82.4714 65.2898H82.551L84.4849 59.3636H86.0808L82.9338 68.0192C82.7879 68.4169 82.6023 68.7533 82.377 69.0284C82.1516 69.3068 81.8831 69.5156 81.5716 69.6548C81.26 69.794 80.8987 69.8636 80.4877 69.8636ZM87.4778 69.8636V59.3636H88.9295V60.6016H89.0538C89.14 60.4425 89.2643 60.2585 89.4267 60.0497C89.5891 59.8409 89.8145 59.6586 90.1028 59.5028C90.3912 59.3438 90.7723 59.2642 91.2463 59.2642C91.8627 59.2642 92.4129 59.42 92.8968 59.7315C93.3807 60.0431 93.7602 60.4922 94.0353 61.0788C94.3137 61.6655 94.4529 62.3714 94.4529 63.1967C94.4529 64.022 94.3154 64.7296 94.0403 65.3196C93.7652 65.9062 93.3874 66.3587 92.9068 66.6768C92.4262 66.9917 91.8777 67.1491 91.2612 67.1491C90.7972 67.1491 90.4177 67.0713 90.1227 66.9155C89.831 66.7597 89.6023 66.5774 89.4366 66.3686C89.2709 66.1598 89.1433 65.9742 89.0538 65.8118H88.9643V69.8636H87.4778ZM88.9345 63.1818C88.9345 63.7187 89.0124 64.1894 89.1681 64.5938C89.3239 64.9981 89.5493 65.3146 89.8443 65.5433C90.1393 65.7687 90.5005 65.8814 90.9281 65.8814C91.3722 65.8814 91.7434 65.7637 92.0417 65.5284C92.34 65.2898 92.5654 64.9666 92.7179 64.5589C92.8736 64.1513 92.9515 63.6922 92.9515 63.1818C92.9515 62.678 92.8753 62.2256 92.7228 61.8246C92.5737 61.4235 92.3483 61.107 92.0467 60.875C91.7484 60.643 91.3755 60.527 90.9281 60.527C90.4972 60.527 90.1326 60.638 89.8343 60.8601C89.5394 61.0821 89.3156 61.392 89.1632 61.7898C89.0107 62.1875 88.9345 62.6515 88.9345 63.1818ZM99.4096 67.1541C98.6573 67.1541 98.0093 66.9934 97.4657 66.6719C96.9255 66.3471 96.5079 65.8913 96.2129 65.3047C95.9212 64.7147 95.7754 64.0237 95.7754 63.2315C95.7754 62.4493 95.9212 61.7599 96.2129 61.1634C96.5079 60.5668 96.9189 60.1011 97.4458 59.7663C97.9761 59.4316 98.5959 59.2642 99.3052 59.2642C99.7361 59.2642 100.154 59.3355 100.558 59.478C100.962 59.6205 101.325 59.8442 101.647 60.1491C101.968 60.4541 102.222 60.8501 102.407 61.3374C102.593 61.8213 102.686 62.4096 102.686 63.1023V63.6293H96.6156V62.5156H101.229C101.229 62.1245 101.15 61.7782 100.991 61.4766C100.831 61.1716 100.608 60.9313 100.319 60.7557C100.034 60.58 99.6996 60.4922 99.3152 60.4922C98.8975 60.4922 98.533 60.5949 98.2214 60.8004C97.9132 61.0026 97.6745 61.2678 97.5055 61.5959C97.3398 61.9207 97.2569 62.2737 97.2569 62.6548V63.5249C97.2569 64.0353 97.3464 64.4695 97.5254 64.8274C97.7077 65.1854 97.9612 65.4588 98.286 65.6477C98.6109 65.8333 98.9904 65.9261 99.4245 65.9261C99.7063 65.9261 99.9631 65.8864 100.195 65.8068C100.427 65.724 100.628 65.6013 100.797 65.4389C100.966 65.2765 101.095 65.076 101.184 64.8374L102.591 65.0909C102.479 65.5052 102.277 65.8681 101.985 66.1797C101.697 66.4879 101.334 66.7282 100.896 66.9006C100.462 67.0696 99.9664 67.1541 99.4096 67.1541ZM104.335 67V59.3636H105.772V60.5767H105.852C105.991 60.1657 106.236 59.8426 106.587 59.6072C106.942 59.3686 107.343 59.2493 107.79 59.2493C107.883 59.2493 107.993 59.2526 108.119 59.2592C108.248 59.2659 108.349 59.2741 108.422 59.2841V60.706C108.362 60.6894 108.256 60.6712 108.104 60.6513C107.951 60.6281 107.799 60.6165 107.646 60.6165C107.295 60.6165 106.982 60.6911 106.707 60.8402C106.435 60.986 106.219 61.1899 106.06 61.4517C105.901 61.7102 105.822 62.0052 105.822 62.3366V67H104.335ZM111.195 56.8182V67H109.708V56.8182H111.195ZM113.195 67V59.3636H114.681V67H113.195ZM113.945 58.1854C113.687 58.1854 113.465 58.0992 113.279 57.9268C113.097 57.7512 113.006 57.5424 113.006 57.3004C113.006 57.0552 113.097 56.8464 113.279 56.674C113.465 56.4983 113.687 56.4105 113.945 56.4105C114.204 56.4105 114.424 56.4983 114.607 56.674C114.792 56.8464 114.885 57.0552 114.885 57.3004C114.885 57.5424 114.792 57.7512 114.607 57.9268C114.424 58.0992 114.204 58.1854 113.945 58.1854ZM118.167 62.4659V67H116.681V59.3636H118.108V60.6065H118.202C118.378 60.2022 118.653 59.8774 119.028 59.6321C119.405 59.3868 119.881 59.2642 120.454 59.2642C120.975 59.2642 121.43 59.3736 121.822 59.5923C122.213 59.8078 122.516 60.1293 122.731 60.5568C122.947 60.9844 123.055 61.513 123.055 62.1428V67H121.568V62.3217C121.568 61.7682 121.424 61.3357 121.135 61.0241C120.847 60.7093 120.451 60.5518 119.947 60.5518C119.603 60.5518 119.296 60.6264 119.028 60.7756C118.762 60.9247 118.552 61.1435 118.396 61.4318C118.244 61.7169 118.167 62.0616 118.167 62.4659ZM126.415 64.4098L126.405 62.5952H126.664L129.706 59.3636H131.486L128.016 63.0426H127.782L126.415 64.4098ZM125.048 67V56.8182H126.535V67H125.048ZM129.871 67L127.136 63.3707L128.16 62.3317L131.695 67H129.871Z" fill="#1355E9"/>
<path d="M68.1582 69.7841H131.839V70.7386H68.1582V69.7841Z" fill="#1355E9"/>
</svg>
