<svg width="160" height="56" viewBox="0 0 160 56" fill="none" xmlns="http://www.w3.org/2000/svg">
<path d="M0.875 12V4.30802H2.375V10.584H6.131V12H0.875ZM9.26131 12.156C7.74931 12.156 6.51331 10.92 6.51331 9.12002C6.51331 7.39202 7.67731 6.09602 9.26131 6.09602C10.0413 6.09602 10.6413 6.44402 11.0253 7.00802V6.25202H12.4893V12H11.0253V11.184C10.6413 11.772 10.0413 12.156 9.26131 12.156ZM9.50131 10.788C10.3893 10.788 11.0253 10.044 11.0253 9.12002C11.0253 8.19602 10.3893 7.46402 9.50131 7.46402C8.61331 7.46402 7.97731 8.19602 7.97731 9.12002C7.97731 10.044 8.61331 10.788 9.50131 10.788ZM17.3438 6.09602C18.8558 6.09602 20.1038 7.33202 20.1038 9.13202C20.1038 10.86 18.9398 12.156 17.3438 12.156C16.5638 12.156 15.9638 11.808 15.5798 11.232V12H14.1158V3.74402H15.5798V7.06802C15.9638 6.48002 16.5638 6.09602 17.3438 6.09602ZM17.1158 7.46402C16.2278 7.46402 15.5798 8.20802 15.5798 9.13202C15.5798 10.056 16.2278 10.788 17.1158 10.788C17.9918 10.788 18.6398 10.056 18.6398 9.13202C18.6398 8.20802 17.9918 7.46402 17.1158 7.46402ZM24.0582 12.156C22.2703 12.156 20.9743 10.8 20.9743 9.12002C20.9743 7.45202 22.2103 6.09602 23.8663 6.09602C25.5103 6.09602 26.7703 7.35602 26.7703 9.01202C26.7703 9.20402 26.7583 9.43202 26.7343 9.52802H22.4743C22.6303 10.32 23.2303 10.872 24.1063 10.872C24.6943 10.872 25.1863 10.62 25.5223 10.272L26.2783 11.28C25.8343 11.772 25.0183 12.156 24.0582 12.156ZM23.8903 7.33202C23.1943 7.33202 22.6903 7.81202 22.5103 8.50802H25.2583C25.0783 7.74002 24.5623 7.33202 23.8903 7.33202ZM30.1639 10.728L30.3199 12.012C30.1039 12.084 29.8279 12.132 29.6119 12.132C28.7839 12.132 27.9439 11.604 27.9439 10.14V3.74402H29.4079V10.176C29.4079 10.62 29.6599 10.788 29.9239 10.788C29.9959 10.788 30.0919 10.764 30.1639 10.728Z" fill="black"/>
<path fill-rule="evenodd" clip-rule="evenodd" d="M35 8.33301C35 5.02441 37.6914 2.33301 41 2.33301C44.3086 2.33301 47 5.02441 47 8.33301C47 11.6416 44.3086 14.333 41 14.333C37.6914 14.333 35 11.6416 35 8.33301ZM46.0769 8.33301C46.0769 5.52285 43.8102 3.25608 41 3.25608C38.1898 3.25608 35.9231 5.52285 35.9231 8.33301C35.9231 11.1432 38.1898 13.4099 41 13.4099C43.8102 13.4099 46.0769 11.1432 46.0769 8.33301ZM41.6922 10.871C41.6922 11.2534 41.3823 11.5633 40.9999 11.5633C40.6176 11.5633 40.3076 11.2534 40.3076 10.871C40.3076 10.4887 40.6176 10.1787 40.9999 10.1787C41.3823 10.1787 41.6922 10.4887 41.6922 10.871ZM38.9229 7.15382C38.9229 6.02602 39.8579 5.10254 40.9998 5.10254C42.1417 5.10254 43.0767 6.02602 43.0767 7.15382C43.0767 7.98515 42.5291 8.73435 41.7299 8.99677L41.519 9.06087V9.71792H40.4805V9.06087C40.4805 8.62217 40.7706 8.22153 41.1945 8.08331L41.4054 8.01921C41.7827 7.89501 42.0382 7.54645 42.0382 7.15382C42.0382 6.5809 41.5799 6.12818 40.9998 6.12818C40.4197 6.12818 39.9613 6.5809 39.9613 7.15382H38.9229Z" fill="#2861BB"/>
<path d="M152 20.5H8C3.85786 20.5 0.5 23.8579 0.5 28V48C0.5 52.1421 3.85786 55.5 8 55.5H152C156.142 55.5 159.5 52.1421 159.5 48V28C159.5 23.8579 156.142 20.5 152 20.5Z" fill="white"/>
<path d="M152 20.5H8C3.85786 20.5 0.5 23.8579 0.5 28V48C0.5 52.1421 3.85786 55.5 8 55.5H152C156.142 55.5 159.5 52.1421 159.5 48V28C159.5 23.8579 156.142 20.5 152 20.5Z" stroke="#EBEBEB"/>
<path d="M12.875 42V34.32H15.443C17.975 34.32 19.787 35.916 19.787 38.16C19.787 40.404 17.999 42 15.491 42H12.875ZM15.431 35.724H14.423V40.584H15.443C17.087 40.584 18.179 39.624 18.179 38.16C18.179 36.684 17.087 35.724 15.431 35.724ZM23.8004 42.156C22.0124 42.156 20.7164 40.8 20.7164 39.12C20.7164 37.452 21.9524 36.096 23.6084 36.096C25.2524 36.096 26.5124 37.356 26.5124 39.012C26.5124 39.204 26.5004 39.432 26.4764 39.528H22.2164C22.3724 40.32 22.9724 40.872 23.8484 40.872C24.4364 40.872 24.9284 40.62 25.2644 40.272L26.0204 41.28C25.5764 41.772 24.7604 42.156 23.8004 42.156ZM23.6324 37.332C22.9364 37.332 22.4324 37.812 22.2524 38.508H25.0004C24.8204 37.74 24.3044 37.332 23.6324 37.332ZM27.1701 37.548V36.252H28.1061V35.916C28.1061 34.464 28.9341 33.588 30.2181 33.588C30.9981 33.588 31.5021 33.804 31.8741 34.176L31.1541 35.28C30.9861 35.1 30.6741 34.956 30.3621 34.956C29.8821 34.956 29.5821 35.28 29.5821 35.904V36.252H31.0701V37.548H29.5821V42H28.1061V37.548H27.1701ZM34.2105 42.156C32.6985 42.156 31.4625 40.92 31.4625 39.12C31.4625 37.392 32.6265 36.096 34.2105 36.096C34.9905 36.096 35.5905 36.444 35.9745 37.008V36.252H37.4385V42H35.9745V41.184C35.5905 41.772 34.9905 42.156 34.2105 42.156ZM34.4505 40.788C35.3385 40.788 35.9745 40.044 35.9745 39.12C35.9745 38.196 35.3385 37.464 34.4505 37.464C33.5625 37.464 32.9265 38.196 32.9265 39.12C32.9265 40.044 33.5625 40.788 34.4505 40.788ZM40.457 36.252V39.36C40.457 40.2 40.937 40.764 41.669 40.764C42.401 40.764 42.893 40.2 42.893 39.36V36.252H44.369V39.468C44.369 41.076 43.289 42.144 41.669 42.144C40.049 42.144 38.993 41.076 38.993 39.468V36.252H40.457ZM48.1405 40.728L48.2965 42.012C48.0805 42.084 47.8045 42.132 47.5885 42.132C46.7605 42.132 45.9205 41.604 45.9205 40.14V33.744H47.3845V40.176C47.3845 40.62 47.6365 40.788 47.9005 40.788C47.9725 40.788 48.0685 40.764 48.1405 40.728ZM48.9301 37.548V36.252H49.9381V34.764H51.4141V36.252H52.9621V37.548H51.4261V39.996C51.4261 40.536 51.6421 40.788 52.0741 40.788C52.3501 40.788 52.6141 40.668 52.7581 40.5L53.4061 41.592C53.0941 41.904 52.5541 42.156 51.8461 42.156C50.6821 42.156 49.9381 41.436 49.9381 40.032V37.548H48.9301ZM60.5958 34.152C62.7918 34.152 64.5798 35.952 64.5798 38.172C64.5798 40.368 62.7918 42.156 60.5958 42.156C58.3998 42.156 56.6118 40.356 56.6118 38.16C56.6118 35.94 58.3998 34.152 60.5958 34.152ZM60.5958 40.668C61.9158 40.668 62.9838 39.54 62.9838 38.172C62.9838 36.78 61.9158 35.64 60.5958 35.64C59.2758 35.64 58.2198 36.768 58.2198 38.16C58.2198 39.54 59.2758 40.668 60.5958 40.668ZM67.3415 44.352H65.8775V36.252H67.3415V37.068C67.7255 36.48 68.3255 36.096 69.1055 36.096C70.6175 36.096 71.8655 37.332 71.8655 39.132C71.8655 40.86 70.7015 42.156 69.1055 42.156C68.3255 42.156 67.7255 41.808 67.3415 41.232V44.352ZM68.8775 40.788C69.7535 40.788 70.4015 40.056 70.4015 39.132C70.4015 38.208 69.7535 37.464 68.8775 37.464C67.9895 37.464 67.3415 38.208 67.3415 39.132C67.3415 40.056 67.9895 40.788 68.8775 40.788ZM72.52 37.548V36.252H73.528V34.764H75.004V36.252H76.552V37.548H75.016V39.996C75.016 40.536 75.232 40.788 75.664 40.788C75.94 40.788 76.204 40.668 76.348 40.5L76.996 41.592C76.684 41.904 76.144 42.156 75.436 42.156C74.272 42.156 73.528 41.436 73.528 40.032V37.548H72.52ZM78.7033 35.484C78.2233 35.484 77.8513 35.1 77.8513 34.62C77.8513 34.152 78.2233 33.768 78.7033 33.768C79.1713 33.768 79.5673 34.152 79.5673 34.62C79.5673 35.1 79.1713 35.484 78.7033 35.484ZM79.4353 42H77.9713V36.252H79.4353V42ZM83.6927 42.156C82.0247 42.156 80.7047 40.8 80.7047 39.12C80.7047 37.452 82.0247 36.096 83.6927 36.096C85.3607 36.096 86.6807 37.452 86.6807 39.12C86.6807 40.8 85.3607 42.156 83.6927 42.156ZM83.6927 40.788C84.5807 40.788 85.2167 40.044 85.2167 39.12C85.2167 38.196 84.5807 37.464 83.6927 37.464C82.8047 37.464 82.1687 38.196 82.1687 39.12C82.1687 40.044 82.8047 40.788 83.6927 40.788ZM87.9439 42V36.252H89.4079V37.068C89.7079 36.456 90.2839 36.096 91.0399 36.096C92.3599 36.096 93.2119 37.02 93.2119 38.52V42H91.7479V38.736C91.7479 37.956 91.3039 37.464 90.5839 37.464C89.8639 37.464 89.4079 37.956 89.4079 38.736V42H87.9439Z" fill="black"/>
<path d="M144 41L139 35.9524L140 35L144 39.2857L148 35L149 35.9524L144 41Z" fill="black"/>
</svg>
