<svg width="230" height="71" viewBox="0 0 230 71" fill="none" xmlns="http://www.w3.org/2000/svg">
<g clip-path="url(#clip0_6343_40388)">
<path d="M1.02344 15.5V6.54004H4.01944C6.97344 6.54004 9.08744 8.40204 9.08744 11.02C9.08744 13.638 7.00144 15.5 4.07544 15.5H1.02344ZM4.00544 8.17804H2.82944V13.848H4.01944C5.93744 13.848 7.21144 12.728 7.21144 11.02C7.21144 9.29804 5.93744 8.17804 4.00544 8.17804ZM10.6057 15.5V8.79404H12.3137V9.78804C12.6357 9.07404 13.2097 8.61204 13.9657 8.61204C14.4137 8.61204 14.7777 8.72404 15.0297 8.93404L14.3297 10.544C14.1057 10.376 13.7697 10.264 13.4337 10.264C12.7617 10.264 12.3137 10.838 12.3137 11.748V15.5H10.6057ZM18.689 15.682C16.743 15.682 15.203 14.1 15.203 12.14C15.203 10.194 16.743 8.61204 18.689 8.61204C20.635 8.61204 22.175 10.194 22.175 12.14C22.175 14.1 20.635 15.682 18.689 15.682ZM18.689 14.086C19.725 14.086 20.467 13.218 20.467 12.14C20.467 11.062 19.725 10.208 18.689 10.208C17.653 10.208 16.911 11.062 16.911 12.14C16.911 13.218 17.653 14.086 18.689 14.086ZM25.3567 18.244H23.6487V8.79404H25.3567V9.74604C25.8047 9.06004 26.5047 8.61204 27.4147 8.61204C29.1787 8.61204 30.6347 10.054 30.6347 12.154C30.6347 14.17 29.2767 15.682 27.4147 15.682C26.5047 15.682 25.8047 15.276 25.3567 14.604V18.244ZM27.1487 14.086C28.1707 14.086 28.9267 13.232 28.9267 12.154C28.9267 11.076 28.1707 10.208 27.1487 10.208C26.1127 10.208 25.3567 11.076 25.3567 12.154C25.3567 13.232 26.1127 14.086 27.1487 14.086ZM34.8563 15.682C33.0923 15.682 31.6503 14.24 31.6503 12.14C31.6503 10.124 33.0083 8.61204 34.8563 8.61204C35.7663 8.61204 36.4663 9.01804 36.9143 9.67604V5.86804H38.6223V15.5H36.9143V14.548C36.4663 15.234 35.7663 15.682 34.8563 15.682ZM35.1363 14.086C36.1723 14.086 36.9143 13.218 36.9143 12.14C36.9143 11.062 36.1723 10.208 35.1363 10.208C34.1003 10.208 33.3583 11.062 33.3583 12.14C33.3583 13.218 34.1003 14.086 35.1363 14.086ZM43.5718 15.682C41.6258 15.682 40.0858 14.1 40.0858 12.14C40.0858 10.194 41.6258 8.61204 43.5718 8.61204C45.5178 8.61204 47.0578 10.194 47.0578 12.14C47.0578 14.1 45.5178 15.682 43.5718 15.682ZM43.5718 14.086C44.6078 14.086 45.3498 13.218 45.3498 12.14C45.3498 11.062 44.6078 10.208 43.5718 10.208C42.5358 10.208 41.7938 11.062 41.7938 12.14C41.7938 13.218 42.5358 14.086 43.5718 14.086ZM51.5351 15.5H49.6031L47.5311 8.79404H49.3651L50.6111 13.624L51.9691 8.79404H53.8171L55.2031 13.652L56.4771 8.79404H58.3111L56.2391 15.5H54.1111L52.8091 10.95L51.5351 15.5ZM59.5237 15.5V8.79404H61.2317V9.74604C61.5817 9.03204 62.2537 8.61204 63.1357 8.61204C64.6757 8.61204 65.6697 9.69004 65.6697 11.44V15.5H63.9617V11.692C63.9617 10.782 63.4437 10.208 62.6037 10.208C61.7637 10.208 61.2317 10.782 61.2317 11.692V15.5H59.5237Z" fill="black"/>
<path fill-rule="evenodd" clip-rule="evenodd" d="M71 11.5C71 7.08854 74.5885 3.5 79 3.5C83.4115 3.5 87 7.08854 87 11.5C87 15.9115 83.4115 19.5 79 19.5C74.5885 19.5 71 15.9115 71 11.5ZM85.7692 11.5C85.7692 7.75312 82.7469 4.73077 79 4.73077C75.2531 4.73077 72.2308 7.75312 72.2308 11.5C72.2308 15.2469 75.2531 18.2692 79 18.2692C82.7469 18.2692 85.7692 15.2469 85.7692 11.5ZM79.9231 14.8846C79.9231 15.3944 79.5098 15.8077 79 15.8077C78.4902 15.8077 78.0769 15.3944 78.0769 14.8846C78.0769 14.3748 78.4902 13.9615 79 13.9615C79.5098 13.9615 79.9231 14.3748 79.9231 14.8846ZM76.2308 9.92735C76.2308 8.42361 77.4775 7.19231 79 7.19231C80.5225 7.19231 81.7692 8.42361 81.7692 9.92735C81.7692 11.0358 81.0391 12.0347 79.9736 12.3846L79.6923 12.4701V13.3462H78.3077V12.4701C78.3077 11.8851 78.6944 11.351 79.2596 11.1667L79.5409 11.0812C80.0439 10.9156 80.3846 10.4509 80.3846 9.92735C80.3846 9.16346 79.7734 8.55983 79 8.55983C78.2266 8.55983 77.6154 9.16346 77.6154 9.92735H76.2308Z" fill="#2861BB"/>
<path d="M222 27H8C3.85786 27 0.5 30.3579 0.5 34.5V62.5C0.5 66.6421 3.85786 70 8 70H222C226.142 70 229.5 66.6421 229.5 62.5V34.5C229.5 30.3579 226.142 27 222 27Z" fill="white"/>
<path d="M222 27H8C3.85786 27 0.5 30.3579 0.5 34.5V62.5C0.5 66.6421 3.85786 70 8 70H222C226.142 70 229.5 66.6421 229.5 62.5V34.5C229.5 30.3579 226.142 27 222 27Z" stroke="#EBEBEB"/>
<path d="M13.0234 52.5V43.526H16.2294C18.3994 43.526 19.8274 44.702 19.8274 46.494C19.8274 48.3 18.3854 49.49 16.2014 49.49H14.7734V52.5H13.0234ZM16.3694 45.08H14.7734V47.936H16.3694C17.3354 47.936 17.9794 47.362 17.9794 46.494C17.9794 45.64 17.3354 45.08 16.3694 45.08ZM23.7875 51.016L23.9695 52.514C23.7175 52.598 23.3955 52.654 23.1435 52.654C22.1775 52.654 21.1975 52.038 21.1975 50.33V42.868H22.9055V50.372C22.9055 50.89 23.1995 51.086 23.5075 51.086C23.5915 51.086 23.7035 51.058 23.7875 51.016ZM28.1668 52.682C26.4028 52.682 24.9608 51.24 24.9608 49.14C24.9608 47.124 26.3188 45.612 28.1668 45.612C29.0768 45.612 29.7768 46.018 30.2248 46.676V45.794H31.9328V52.5H30.2248V51.548C29.7768 52.234 29.0768 52.682 28.1668 52.682ZM28.4468 51.086C29.4828 51.086 30.2248 50.218 30.2248 49.14C30.2248 48.062 29.4828 47.208 28.4468 47.208C27.4108 47.208 26.6688 48.062 26.6688 49.14C26.6688 50.218 27.4108 51.086 28.4468 51.086ZM38.5624 47.824C38.1284 47.418 37.6384 47.208 36.9664 47.208C35.8464 47.208 35.1044 48.062 35.1044 49.14C35.1044 50.218 35.8604 51.086 36.9664 51.086C37.6384 51.086 38.1844 50.848 38.6184 50.428L39.4864 51.688C38.9544 52.276 37.9744 52.682 36.9244 52.682C34.9224 52.682 33.3964 51.1 33.3964 49.14C33.3964 47.194 34.9364 45.612 36.8964 45.612C38.0304 45.612 38.9404 45.99 39.5424 46.606L38.5624 47.824ZM43.5979 52.682C41.5119 52.682 39.9999 51.1 39.9999 49.14C39.9999 47.194 41.4419 45.612 43.3739 45.612C45.2919 45.612 46.7619 47.082 46.7619 49.014C46.7619 49.238 46.7479 49.504 46.7199 49.616H41.7499C41.9319 50.54 42.6319 51.184 43.6539 51.184C44.3399 51.184 44.9139 50.89 45.3059 50.484L46.1879 51.66C45.6699 52.234 44.7179 52.682 43.5979 52.682ZM43.4019 47.054C42.5899 47.054 42.0019 47.614 41.7919 48.426H44.9979C44.7879 47.53 44.1859 47.054 43.4019 47.054ZM48.1311 52.5V42.868H49.8391V46.746C50.1891 46.032 50.8611 45.612 51.7431 45.612C53.2831 45.612 54.2771 46.69 54.2771 48.44V52.5H52.5691V48.692C52.5691 47.782 52.0511 47.208 51.2111 47.208C50.3711 47.208 49.8391 47.782 49.8391 48.692V52.5H48.1311ZM59.1812 52.682C57.2352 52.682 55.6952 51.1 55.6952 49.14C55.6952 47.194 57.2352 45.612 59.1812 45.612C61.1272 45.612 62.6672 47.194 62.6672 49.14C62.6672 51.1 61.1272 52.682 59.1812 52.682ZM59.1812 51.086C60.2172 51.086 60.9592 50.218 60.9592 49.14C60.9592 48.062 60.2172 47.208 59.1812 47.208C58.1452 47.208 57.4032 48.062 57.4032 49.14C57.4032 50.218 58.1452 51.086 59.1812 51.086ZM66.7309 51.016L66.9129 52.514C66.6609 52.598 66.3389 52.654 66.0869 52.654C65.1209 52.654 64.1409 52.038 64.1409 50.33V42.868H65.8489V50.372C65.8489 50.89 66.1429 51.086 66.4509 51.086C66.5349 51.086 66.6469 51.058 66.7309 51.016ZM71.1102 52.682C69.3462 52.682 67.9042 51.24 67.9042 49.14C67.9042 47.124 69.2622 45.612 71.1102 45.612C72.0202 45.612 72.7202 46.018 73.1682 46.676V42.868H74.8762V52.5H73.1682V51.548C72.7202 52.234 72.0202 52.682 71.1102 52.682ZM71.3902 51.086C72.4262 51.086 73.1682 50.218 73.1682 49.14C73.1682 48.062 72.4262 47.208 71.3902 47.208C70.3542 47.208 69.6122 48.062 69.6122 49.14C69.6122 50.218 70.3542 51.086 71.3902 51.086ZM79.9377 52.682C77.8517 52.682 76.3397 51.1 76.3397 49.14C76.3397 47.194 77.7817 45.612 79.7137 45.612C81.6317 45.612 83.1017 47.082 83.1017 49.014C83.1017 49.238 83.0877 49.504 83.0597 49.616H78.0897C78.2717 50.54 78.9717 51.184 79.9937 51.184C80.6797 51.184 81.2537 50.89 81.6457 50.484L82.5277 51.66C82.0097 52.234 81.0577 52.682 79.9377 52.682ZM79.7417 47.054C78.9297 47.054 78.3417 47.614 78.1317 48.426H81.3377C81.1277 47.53 80.5257 47.054 79.7417 47.054ZM84.471 52.5V45.794H86.179V46.788C86.501 46.074 87.075 45.612 87.831 45.612C88.279 45.612 88.643 45.724 88.895 45.934L88.195 47.544C87.971 47.376 87.635 47.264 87.299 47.264C86.627 47.264 86.179 47.838 86.179 48.748V52.5H84.471ZM92.3709 47.306V45.794H93.5469V44.058H95.2689V45.794H97.0749V47.306H95.2829V50.162C95.2829 50.792 95.5349 51.086 96.0389 51.086C96.3609 51.086 96.6689 50.946 96.8369 50.75L97.5929 52.024C97.2289 52.388 96.5989 52.682 95.7729 52.682C94.4149 52.682 93.5469 51.842 93.5469 50.204V47.306H92.3709ZM101.566 52.682C99.4806 52.682 97.9686 51.1 97.9686 49.14C97.9686 47.194 99.4106 45.612 101.342 45.612C103.26 45.612 104.73 47.082 104.73 49.014C104.73 49.238 104.716 49.504 104.688 49.616H99.7186C99.9006 50.54 100.6 51.184 101.622 51.184C102.308 51.184 102.882 50.89 103.274 50.484L104.156 51.66C103.638 52.234 102.686 52.682 101.566 52.682ZM101.37 47.054C100.558 47.054 99.9706 47.614 99.7606 48.426H102.966C102.756 47.53 102.154 47.054 101.37 47.054ZM104.851 52.5L107.385 49.126L104.935 45.794H107.063L108.519 47.768L110.003 45.794H111.921L109.471 49.056L112.005 52.5H109.877L108.337 50.414L106.755 52.5H104.851ZM112.455 47.306V45.794H113.631V44.058H115.353V45.794H117.159V47.306H115.367V50.162C115.367 50.792 115.619 51.086 116.123 51.086C116.445 51.086 116.753 50.946 116.921 50.75L117.677 52.024C117.313 52.388 116.683 52.682 115.857 52.682C114.499 52.682 113.631 51.842 113.631 50.204V47.306H112.455Z" fill="black"/>
<path d="M212 51.5L207 46.4524L208 45.5L212 49.7857L216 45.5L217 46.4524L212 51.5Z" fill="black"/>
</g>
<defs>
<clipPath id="clip0_6343_40388">
<rect width="230" height="70" fill="white" transform="translate(0 0.5)"/>
</clipPath>
</defs>
</svg>
