<svg width="469" height="257" viewBox="0 0 469 257" fill="none" xmlns="http://www.w3.org/2000/svg">
<g clip-path="url(#clip0_6343_40343)">
<path d="M107.023 16.5V7.54004H110.019C112.973 7.54004 115.087 9.40204 115.087 12.02C115.087 14.638 113.001 16.5 110.075 16.5H107.023ZM110.005 9.17804H108.829V14.848H110.019C111.937 14.848 113.211 13.728 113.211 12.02C113.211 10.298 111.937 9.17804 110.005 9.17804ZM116.605 16.5V9.79404H118.313V10.788C118.635 10.074 119.209 9.61204 119.965 9.61204C120.413 9.61204 120.777 9.72404 121.029 9.93404L120.329 11.544C120.105 11.376 119.769 11.264 119.433 11.264C118.761 11.264 118.313 11.838 118.313 12.748V16.5H116.605ZM124.689 16.682C122.743 16.682 121.203 15.1 121.203 13.14C121.203 11.194 122.743 9.61204 124.689 9.61204C126.635 9.61204 128.175 11.194 128.175 13.14C128.175 15.1 126.635 16.682 124.689 16.682ZM124.689 15.086C125.725 15.086 126.467 14.218 126.467 13.14C126.467 12.062 125.725 11.208 124.689 11.208C123.653 11.208 122.911 12.062 122.911 13.14C122.911 14.218 123.653 15.086 124.689 15.086ZM131.356 19.244H129.648V9.79404H131.356V10.746C131.804 10.06 132.504 9.61204 133.414 9.61204C135.178 9.61204 136.634 11.054 136.634 13.154C136.634 15.17 135.276 16.682 133.414 16.682C132.504 16.682 131.804 16.276 131.356 15.604V19.244ZM133.148 15.086C134.17 15.086 134.926 14.232 134.926 13.154C134.926 12.076 134.17 11.208 133.148 11.208C132.112 11.208 131.356 12.076 131.356 13.154C131.356 14.232 132.112 15.086 133.148 15.086ZM140.856 16.682C139.092 16.682 137.65 15.24 137.65 13.14C137.65 11.124 139.008 9.61204 140.856 9.61204C141.766 9.61204 142.466 10.018 142.914 10.676V6.86804H144.622V16.5H142.914V15.548C142.466 16.234 141.766 16.682 140.856 16.682ZM141.136 15.086C142.172 15.086 142.914 14.218 142.914 13.14C142.914 12.062 142.172 11.208 141.136 11.208C140.1 11.208 139.358 12.062 139.358 13.14C139.358 14.218 140.1 15.086 141.136 15.086ZM149.571 16.682C147.625 16.682 146.085 15.1 146.085 13.14C146.085 11.194 147.625 9.61204 149.571 9.61204C151.517 9.61204 153.057 11.194 153.057 13.14C153.057 15.1 151.517 16.682 149.571 16.682ZM149.571 15.086C150.607 15.086 151.349 14.218 151.349 13.14C151.349 12.062 150.607 11.208 149.571 11.208C148.535 11.208 147.793 12.062 147.793 13.14C147.793 14.218 148.535 15.086 149.571 15.086ZM157.535 16.5H155.603L153.531 9.79404H155.365L156.611 14.624L157.969 9.79404H159.817L161.203 14.652L162.477 9.79404H164.311L162.239 16.5H160.111L158.809 11.95L157.535 16.5ZM165.523 16.5V9.79404H167.231V10.746C167.581 10.032 168.253 9.61204 169.135 9.61204C170.675 9.61204 171.669 10.69 171.669 12.44V16.5H169.961V12.692C169.961 11.782 169.443 11.208 168.603 11.208C167.763 11.208 167.231 11.782 167.231 12.692V16.5H165.523ZM176.586 16.5V7.52604H178.336V14.848H182.718V16.5H176.586ZM186.37 16.682C184.606 16.682 183.164 15.24 183.164 13.14C183.164 11.124 184.522 9.61204 186.37 9.61204C187.28 9.61204 187.98 10.018 188.428 10.676V9.79404H190.136V16.5H188.428V15.548C187.98 16.234 187.28 16.682 186.37 16.682ZM186.65 15.086C187.686 15.086 188.428 14.218 188.428 13.14C188.428 12.062 187.686 11.208 186.65 11.208C185.614 11.208 184.872 12.062 184.872 13.14C184.872 14.218 185.614 15.086 186.65 15.086ZM195.799 9.61204C197.563 9.61204 199.019 11.054 199.019 13.154C199.019 15.17 197.661 16.682 195.799 16.682C194.889 16.682 194.189 16.276 193.741 15.604V16.5H192.033V6.86804H193.741V10.746C194.189 10.06 194.889 9.61204 195.799 9.61204ZM195.533 11.208C194.497 11.208 193.741 12.076 193.741 13.154C193.741 14.232 194.497 15.086 195.533 15.086C196.555 15.086 197.311 14.232 197.311 13.154C197.311 12.076 196.555 11.208 195.533 11.208ZM203.633 16.682C201.547 16.682 200.035 15.1 200.035 13.14C200.035 11.194 201.477 9.61204 203.409 9.61204C205.327 9.61204 206.797 11.082 206.797 13.014C206.797 13.238 206.783 13.504 206.755 13.616H201.785C201.967 14.54 202.667 15.184 203.689 15.184C204.375 15.184 204.949 14.89 205.341 14.484L206.223 15.66C205.705 16.234 204.753 16.682 203.633 16.682ZM203.437 11.054C202.625 11.054 202.037 11.614 201.827 12.426H205.033C204.823 11.53 204.221 11.054 203.437 11.054ZM210.756 15.016L210.938 16.514C210.686 16.598 210.364 16.654 210.112 16.654C209.146 16.654 208.166 16.038 208.166 14.33V6.86804H209.874V14.372C209.874 14.89 210.168 15.086 210.476 15.086C210.56 15.086 210.672 15.058 210.756 15.016Z" fill="black"/>
<path fill-rule="evenodd" clip-rule="evenodd" d="M216 12.5C216 8.08854 219.589 4.5 224 4.5C228.411 4.5 232 8.08854 232 12.5C232 16.9115 228.411 20.5 224 20.5C219.589 20.5 216 16.9115 216 12.5ZM230.769 12.5C230.769 8.75312 227.747 5.73077 224 5.73077C220.253 5.73077 217.231 8.75312 217.231 12.5C217.231 16.2469 220.253 19.2692 224 19.2692C227.747 19.2692 230.769 16.2469 230.769 12.5ZM224.923 15.8846C224.923 16.3944 224.51 16.8077 224 16.8077C223.49 16.8077 223.077 16.3944 223.077 15.8846C223.077 15.3748 223.49 14.9615 224 14.9615C224.51 14.9615 224.923 15.3748 224.923 15.8846ZM221.231 10.9274C221.231 9.42361 222.477 8.19231 224 8.19231C225.523 8.19231 226.769 9.42361 226.769 10.9274C226.769 12.0358 226.039 13.0347 224.974 13.3846L224.692 13.4701V14.3462H223.308V13.4701C223.308 12.8851 223.694 12.351 224.26 12.1667L224.541 12.0812C225.044 11.9156 225.385 11.4509 225.385 10.9274C225.385 10.1635 224.773 9.55983 224 9.55983C223.227 9.55983 222.615 10.1635 222.615 10.9274H221.231Z" fill="#2861BB"/>
<path d="M328 28.5H114C110.134 28.5 107 31.634 107 35.5V63.5C107 67.366 110.134 70.5 114 70.5H328C331.866 70.5 335 67.366 335 63.5V35.5C335 31.634 331.866 28.5 328 28.5Z" fill="white"/>
<path d="M328 28.5H114C110.134 28.5 107 31.634 107 35.5V63.5C107 67.366 110.134 70.5 114 70.5H328C331.866 70.5 335 67.366 335 63.5V35.5C335 31.634 331.866 28.5 328 28.5Z" stroke="#D6D6D6" stroke-width="2"/>
<path d="M119.023 53.5V44.54H122.019C124.973 44.54 127.087 46.402 127.087 49.02C127.087 51.638 125.001 53.5 122.075 53.5H119.023ZM122.005 46.178H120.829V51.848H122.019C123.937 51.848 125.211 50.728 125.211 49.02C125.211 47.298 123.937 46.178 122.005 46.178ZM131.769 53.682C129.683 53.682 128.171 52.1 128.171 50.14C128.171 48.194 129.613 46.612 131.545 46.612C133.463 46.612 134.933 48.082 134.933 50.014C134.933 50.238 134.919 50.504 134.891 50.616H129.921C130.103 51.54 130.803 52.184 131.825 52.184C132.511 52.184 133.085 51.89 133.477 51.484L134.359 52.66C133.841 53.234 132.889 53.682 131.769 53.682ZM131.573 48.054C130.761 48.054 130.173 48.614 129.963 49.426H133.169C132.959 48.53 132.357 48.054 131.573 48.054ZM135.701 48.306V46.794H136.793V46.402C136.793 44.708 137.759 43.686 139.257 43.686C140.167 43.686 140.755 43.938 141.189 44.372L140.349 45.66C140.153 45.45 139.789 45.282 139.425 45.282C138.865 45.282 138.515 45.66 138.515 46.388V46.794H140.251V48.306H138.515V53.5H136.793V48.306H135.701ZM143.914 53.682C142.15 53.682 140.708 52.24 140.708 50.14C140.708 48.124 142.066 46.612 143.914 46.612C144.824 46.612 145.524 47.018 145.972 47.676V46.794H147.68V53.5H145.972V52.548C145.524 53.234 144.824 53.682 143.914 53.682ZM144.194 52.086C145.23 52.086 145.972 51.218 145.972 50.14C145.972 49.062 145.23 48.208 144.194 48.208C143.158 48.208 142.416 49.062 142.416 50.14C142.416 51.218 143.158 52.086 144.194 52.086ZM151.202 46.794V50.42C151.202 51.4 151.762 52.058 152.616 52.058C153.47 52.058 154.044 51.4 154.044 50.42V46.794H155.766V50.546C155.766 52.422 154.506 53.668 152.616 53.668C150.726 53.668 149.494 52.422 149.494 50.546V46.794H151.202ZM160.166 52.016L160.348 53.514C160.096 53.598 159.774 53.654 159.522 53.654C158.556 53.654 157.576 53.038 157.576 51.33V43.868H159.284V51.372C159.284 51.89 159.578 52.086 159.886 52.086C159.97 52.086 160.082 52.058 160.166 52.016ZM161.087 48.306V46.794H162.263V45.058H163.985V46.794H165.791V48.306H163.999V51.162C163.999 51.792 164.251 52.086 164.755 52.086C165.077 52.086 165.385 51.946 165.553 51.75L166.309 53.024C165.945 53.388 165.315 53.682 164.489 53.682C163.131 53.682 162.263 52.842 162.263 51.204V48.306H161.087ZM174.697 44.344C177.259 44.344 179.345 46.444 179.345 49.034C179.345 51.596 177.259 53.682 174.697 53.682C172.135 53.682 170.049 51.582 170.049 49.02C170.049 46.43 172.135 44.344 174.697 44.344ZM174.697 51.946C176.237 51.946 177.483 50.63 177.483 49.034C177.483 47.41 176.237 46.08 174.697 46.08C173.157 46.08 171.925 47.396 171.925 49.02C171.925 50.63 173.157 51.946 174.697 51.946ZM182.567 56.244H180.859V46.794H182.567V47.746C183.015 47.06 183.715 46.612 184.625 46.612C186.389 46.612 187.845 48.054 187.845 50.154C187.845 52.17 186.487 53.682 184.625 53.682C183.715 53.682 183.015 53.276 182.567 52.604V56.244ZM184.359 52.086C185.381 52.086 186.137 51.232 186.137 50.154C186.137 49.076 185.381 48.208 184.359 48.208C183.323 48.208 182.567 49.076 182.567 50.154C182.567 51.232 183.323 52.086 184.359 52.086ZM188.609 48.306V46.794H189.785V45.058H191.507V46.794H193.313V48.306H191.521V51.162C191.521 51.792 191.773 52.086 192.277 52.086C192.599 52.086 192.907 51.946 193.075 51.75L193.831 53.024C193.467 53.388 192.837 53.682 192.011 53.682C190.653 53.682 189.785 52.842 189.785 51.204V48.306H188.609ZM195.823 45.898C195.263 45.898 194.829 45.45 194.829 44.89C194.829 44.344 195.263 43.896 195.823 43.896C196.369 43.896 196.831 44.344 196.831 44.89C196.831 45.45 196.369 45.898 195.823 45.898ZM196.677 53.5H194.969V46.794H196.677V53.5ZM201.644 53.682C199.698 53.682 198.158 52.1 198.158 50.14C198.158 48.194 199.698 46.612 201.644 46.612C203.59 46.612 205.13 48.194 205.13 50.14C205.13 52.1 203.59 53.682 201.644 53.682ZM201.644 52.086C202.68 52.086 203.422 51.218 203.422 50.14C203.422 49.062 202.68 48.208 201.644 48.208C200.608 48.208 199.866 49.062 199.866 50.14C199.866 51.218 200.608 52.086 201.644 52.086ZM206.603 53.5V46.794H208.311V47.746C208.661 47.032 209.333 46.612 210.215 46.612C211.755 46.612 212.749 47.69 212.749 49.44V53.5H211.041V49.692C211.041 48.782 210.523 48.208 209.683 48.208C208.843 48.208 208.311 48.782 208.311 49.692V53.5H206.603Z" fill="black"/>
<path d="M318 52.5L313 47.4524L314 46.5L318 50.7857L322 46.5L323 47.4524L318 52.5Z" fill="black"/>
<g filter="url(#filter0_d_6343_40343)">
<mask id="mask0_6343_40343" style="mask-type:luminance" maskUnits="userSpaceOnUse" x="106" y="75" width="230" height="133">
<path d="M328 75.5H114C109.582 75.5 106 79.0817 106 83.5V199.5C106 203.918 109.582 207.5 114 207.5H328C332.418 207.5 336 203.918 336 199.5V83.5C336 79.0817 332.418 75.5 328 75.5Z" fill="white"/>
</mask>
<g mask="url(#mask0_6343_40343)">
<path d="M328 75.5H114C109.582 75.5 106 79.0817 106 83.5V199.5C106 203.918 109.582 207.5 114 207.5H328C332.418 207.5 336 203.918 336 199.5V83.5C336 79.0817 332.418 75.5 328 75.5Z" fill="white"/>
<path d="M336 75.5H106V119.5H336V75.5Z" fill="white"/>
<path d="M119.023 101.5V92.54H122.019C124.973 92.54 127.087 94.402 127.087 97.02C127.087 99.638 125.001 101.5 122.075 101.5H119.023ZM122.005 94.178H120.829V99.848H122.019C123.937 99.848 125.211 98.728 125.211 97.02C125.211 95.298 123.937 94.178 122.005 94.178ZM128.605 101.5V94.794H130.313V95.788C130.635 95.074 131.209 94.612 131.965 94.612C132.413 94.612 132.777 94.724 133.029 94.934L132.329 96.544C132.105 96.376 131.769 96.264 131.433 96.264C130.761 96.264 130.313 96.838 130.313 97.748V101.5H128.605ZM136.689 101.682C134.743 101.682 133.203 100.1 133.203 98.14C133.203 96.194 134.743 94.612 136.689 94.612C138.635 94.612 140.175 96.194 140.175 98.14C140.175 100.1 138.635 101.682 136.689 101.682ZM136.689 100.086C137.725 100.086 138.467 99.218 138.467 98.14C138.467 97.062 137.725 96.208 136.689 96.208C135.653 96.208 134.911 97.062 134.911 98.14C134.911 99.218 135.653 100.086 136.689 100.086ZM143.356 104.244H141.648V94.794H143.356V95.746C143.804 95.06 144.504 94.612 145.414 94.612C147.178 94.612 148.634 96.054 148.634 98.154C148.634 100.17 147.276 101.682 145.414 101.682C144.504 101.682 143.804 101.276 143.356 100.604V104.244ZM145.148 100.086C146.17 100.086 146.926 99.232 146.926 98.154C146.926 97.076 146.17 96.208 145.148 96.208C144.112 96.208 143.356 97.076 143.356 98.154C143.356 99.232 144.112 100.086 145.148 100.086ZM152.856 101.682C151.092 101.682 149.65 100.24 149.65 98.14C149.65 96.124 151.008 94.612 152.856 94.612C153.766 94.612 154.466 95.018 154.914 95.676V91.868H156.622V101.5H154.914V100.548C154.466 101.234 153.766 101.682 152.856 101.682ZM153.136 100.086C154.172 100.086 154.914 99.218 154.914 98.14C154.914 97.062 154.172 96.208 153.136 96.208C152.1 96.208 151.358 97.062 151.358 98.14C151.358 99.218 152.1 100.086 153.136 100.086ZM161.571 101.682C159.625 101.682 158.085 100.1 158.085 98.14C158.085 96.194 159.625 94.612 161.571 94.612C163.517 94.612 165.057 96.194 165.057 98.14C165.057 100.1 163.517 101.682 161.571 101.682ZM161.571 100.086C162.607 100.086 163.349 99.218 163.349 98.14C163.349 97.062 162.607 96.208 161.571 96.208C160.535 96.208 159.793 97.062 159.793 98.14C159.793 99.218 160.535 100.086 161.571 100.086ZM169.535 101.5H167.603L165.531 94.794H167.365L168.611 99.624L169.969 94.794H171.817L173.203 99.652L174.477 94.794H176.311L174.239 101.5H172.111L170.809 96.95L169.535 101.5ZM177.523 101.5V94.794H179.231V95.746C179.581 95.032 180.253 94.612 181.135 94.612C182.675 94.612 183.669 95.69 183.669 97.44V101.5H181.961V97.692C181.961 96.782 181.443 96.208 180.603 96.208C179.763 96.208 179.231 96.782 179.231 97.692V101.5H177.523ZM191.568 101.682C189.621 101.682 188.082 100.1 188.082 98.14C188.082 96.194 189.621 94.612 191.568 94.612C193.514 94.612 195.054 96.194 195.054 98.14C195.054 100.1 193.514 101.682 191.568 101.682ZM191.568 100.086C192.604 100.086 193.346 99.218 193.346 98.14C193.346 97.062 192.604 96.208 191.568 96.208C190.532 96.208 189.79 97.062 189.79 98.14C189.79 99.218 190.532 100.086 191.568 100.086ZM198.235 104.244H196.527V94.794H198.235V95.746C198.683 95.06 199.383 94.612 200.293 94.612C202.057 94.612 203.513 96.054 203.513 98.154C203.513 100.17 202.155 101.682 200.293 101.682C199.383 101.682 198.683 101.276 198.235 100.604V104.244ZM200.027 100.086C201.049 100.086 201.805 99.232 201.805 98.154C201.805 97.076 201.049 96.208 200.027 96.208C198.991 96.208 198.235 97.076 198.235 98.154C198.235 99.232 198.991 100.086 200.027 100.086ZM204.277 96.306V94.794H205.453V93.058H207.175V94.794H208.981V96.306H207.189V99.162C207.189 99.792 207.441 100.086 207.945 100.086C208.267 100.086 208.575 99.946 208.743 99.75L209.499 101.024C209.135 101.388 208.505 101.682 207.679 101.682C206.321 101.682 205.453 100.842 205.453 99.204V96.306H204.277ZM211.491 93.898C210.931 93.898 210.497 93.45 210.497 92.89C210.497 92.344 210.931 91.896 211.491 91.896C212.037 91.896 212.499 92.344 212.499 92.89C212.499 93.45 212.037 93.898 211.491 93.898ZM212.345 101.5H210.637V94.794H212.345V101.5ZM217.312 101.682C215.366 101.682 213.826 100.1 213.826 98.14C213.826 96.194 215.366 94.612 217.312 94.612C219.258 94.612 220.798 96.194 220.798 98.14C220.798 100.1 219.258 101.682 217.312 101.682ZM217.312 100.086C218.348 100.086 219.09 99.218 219.09 98.14C219.09 97.062 218.348 96.208 217.312 96.208C216.276 96.208 215.534 97.062 215.534 98.14C215.534 99.218 216.276 100.086 217.312 100.086ZM222.271 101.5V94.794H223.979V95.746C224.329 95.032 225.001 94.612 225.883 94.612C227.423 94.612 228.417 95.69 228.417 97.44V101.5H226.709V97.692C226.709 96.782 226.191 96.208 225.351 96.208C224.511 96.208 223.979 96.782 223.979 97.692V101.5H222.271Z" fill="black"/>
<path d="M336 119.5H106V163.5H336V119.5Z" fill="#EBEBEB"/>
<path d="M119.023 145.5V136.54H122.019C124.973 136.54 127.087 138.402 127.087 141.02C127.087 143.638 125.001 145.5 122.075 145.5H119.023ZM122.005 138.178H120.829V143.848H122.019C123.937 143.848 125.211 142.728 125.211 141.02C125.211 139.298 123.937 138.178 122.005 138.178ZM128.605 145.5V138.794H130.313V139.788C130.635 139.074 131.209 138.612 131.965 138.612C132.413 138.612 132.777 138.724 133.029 138.934L132.329 140.544C132.105 140.376 131.769 140.264 131.433 140.264C130.761 140.264 130.313 140.838 130.313 141.748V145.5H128.605ZM136.689 145.682C134.743 145.682 133.203 144.1 133.203 142.14C133.203 140.194 134.743 138.612 136.689 138.612C138.635 138.612 140.175 140.194 140.175 142.14C140.175 144.1 138.635 145.682 136.689 145.682ZM136.689 144.086C137.725 144.086 138.467 143.218 138.467 142.14C138.467 141.062 137.725 140.208 136.689 140.208C135.653 140.208 134.911 141.062 134.911 142.14C134.911 143.218 135.653 144.086 136.689 144.086ZM143.356 148.244H141.648V138.794H143.356V139.746C143.804 139.06 144.504 138.612 145.414 138.612C147.178 138.612 148.634 140.054 148.634 142.154C148.634 144.17 147.276 145.682 145.414 145.682C144.504 145.682 143.804 145.276 143.356 144.604V148.244ZM145.148 144.086C146.17 144.086 146.926 143.232 146.926 142.154C146.926 141.076 146.17 140.208 145.148 140.208C144.112 140.208 143.356 141.076 143.356 142.154C143.356 143.232 144.112 144.086 145.148 144.086ZM152.856 145.682C151.092 145.682 149.65 144.24 149.65 142.14C149.65 140.124 151.008 138.612 152.856 138.612C153.766 138.612 154.466 139.018 154.914 139.676V135.868H156.622V145.5H154.914V144.548C154.466 145.234 153.766 145.682 152.856 145.682ZM153.136 144.086C154.172 144.086 154.914 143.218 154.914 142.14C154.914 141.062 154.172 140.208 153.136 140.208C152.1 140.208 151.358 141.062 151.358 142.14C151.358 143.218 152.1 144.086 153.136 144.086ZM161.571 145.682C159.625 145.682 158.085 144.1 158.085 142.14C158.085 140.194 159.625 138.612 161.571 138.612C163.517 138.612 165.057 140.194 165.057 142.14C165.057 144.1 163.517 145.682 161.571 145.682ZM161.571 144.086C162.607 144.086 163.349 143.218 163.349 142.14C163.349 141.062 162.607 140.208 161.571 140.208C160.535 140.208 159.793 141.062 159.793 142.14C159.793 143.218 160.535 144.086 161.571 144.086ZM169.535 145.5H167.603L165.531 138.794H167.365L168.611 143.624L169.969 138.794H171.817L173.203 143.652L174.477 138.794H176.311L174.239 145.5H172.111L170.809 140.95L169.535 145.5ZM177.523 145.5V138.794H179.231V139.746C179.581 139.032 180.253 138.612 181.135 138.612C182.675 138.612 183.669 139.69 183.669 141.44V145.5H181.961V141.692C181.961 140.782 181.443 140.208 180.603 140.208C179.763 140.208 179.231 140.782 179.231 141.692V145.5H177.523ZM191.568 145.682C189.621 145.682 188.082 144.1 188.082 142.14C188.082 140.194 189.621 138.612 191.568 138.612C193.514 138.612 195.054 140.194 195.054 142.14C195.054 144.1 193.514 145.682 191.568 145.682ZM191.568 144.086C192.604 144.086 193.346 143.218 193.346 142.14C193.346 141.062 192.604 140.208 191.568 140.208C190.532 140.208 189.79 141.062 189.79 142.14C189.79 143.218 190.532 144.086 191.568 144.086ZM198.235 148.244H196.527V138.794H198.235V139.746C198.683 139.06 199.383 138.612 200.293 138.612C202.057 138.612 203.513 140.054 203.513 142.154C203.513 144.17 202.155 145.682 200.293 145.682C199.383 145.682 198.683 145.276 198.235 144.604V148.244ZM200.027 144.086C201.049 144.086 201.805 143.232 201.805 142.154C201.805 141.076 201.049 140.208 200.027 140.208C198.991 140.208 198.235 141.076 198.235 142.154C198.235 143.232 198.991 144.086 200.027 144.086ZM204.277 140.306V138.794H205.453V137.058H207.175V138.794H208.981V140.306H207.189V143.162C207.189 143.792 207.441 144.086 207.945 144.086C208.267 144.086 208.575 143.946 208.743 143.75L209.499 145.024C209.135 145.388 208.505 145.682 207.679 145.682C206.321 145.682 205.453 144.842 205.453 143.204V140.306H204.277ZM211.491 137.898C210.931 137.898 210.497 137.45 210.497 136.89C210.497 136.344 210.931 135.896 211.491 135.896C212.037 135.896 212.499 136.344 212.499 136.89C212.499 137.45 212.037 137.898 211.491 137.898ZM212.345 145.5H210.637V138.794H212.345V145.5ZM217.312 145.682C215.366 145.682 213.826 144.1 213.826 142.14C213.826 140.194 215.366 138.612 217.312 138.612C219.258 138.612 220.798 140.194 220.798 142.14C220.798 144.1 219.258 145.682 217.312 145.682ZM217.312 144.086C218.348 144.086 219.09 143.218 219.09 142.14C219.09 141.062 218.348 140.208 217.312 140.208C216.276 140.208 215.534 141.062 215.534 142.14C215.534 143.218 216.276 144.086 217.312 144.086ZM222.271 145.5V138.794H223.979V139.746C224.329 139.032 225.001 138.612 225.883 138.612C227.423 138.612 228.417 139.69 228.417 141.44V145.5H226.709V141.692C226.709 140.782 226.191 140.208 225.351 140.208C224.511 140.208 223.979 140.782 223.979 141.692V145.5H222.271Z" fill="#2861BB"/>
<path d="M336 163.5H106V207.5H336V163.5Z" fill="white"/>
<path d="M119.023 189.5V180.54H122.019C124.973 180.54 127.087 182.402 127.087 185.02C127.087 187.638 125.001 189.5 122.075 189.5H119.023ZM122.005 182.178H120.829V187.848H122.019C123.937 187.848 125.211 186.728 125.211 185.02C125.211 183.298 123.937 182.178 122.005 182.178ZM128.605 189.5V182.794H130.313V183.788C130.635 183.074 131.209 182.612 131.965 182.612C132.413 182.612 132.777 182.724 133.029 182.934L132.329 184.544C132.105 184.376 131.769 184.264 131.433 184.264C130.761 184.264 130.313 184.838 130.313 185.748V189.5H128.605ZM136.689 189.682C134.743 189.682 133.203 188.1 133.203 186.14C133.203 184.194 134.743 182.612 136.689 182.612C138.635 182.612 140.175 184.194 140.175 186.14C140.175 188.1 138.635 189.682 136.689 189.682ZM136.689 188.086C137.725 188.086 138.467 187.218 138.467 186.14C138.467 185.062 137.725 184.208 136.689 184.208C135.653 184.208 134.911 185.062 134.911 186.14C134.911 187.218 135.653 188.086 136.689 188.086ZM143.356 192.244H141.648V182.794H143.356V183.746C143.804 183.06 144.504 182.612 145.414 182.612C147.178 182.612 148.634 184.054 148.634 186.154C148.634 188.17 147.276 189.682 145.414 189.682C144.504 189.682 143.804 189.276 143.356 188.604V192.244ZM145.148 188.086C146.17 188.086 146.926 187.232 146.926 186.154C146.926 185.076 146.17 184.208 145.148 184.208C144.112 184.208 143.356 185.076 143.356 186.154C143.356 187.232 144.112 188.086 145.148 188.086ZM152.856 189.682C151.092 189.682 149.65 188.24 149.65 186.14C149.65 184.124 151.008 182.612 152.856 182.612C153.766 182.612 154.466 183.018 154.914 183.676V179.868H156.622V189.5H154.914V188.548C154.466 189.234 153.766 189.682 152.856 189.682ZM153.136 188.086C154.172 188.086 154.914 187.218 154.914 186.14C154.914 185.062 154.172 184.208 153.136 184.208C152.1 184.208 151.358 185.062 151.358 186.14C151.358 187.218 152.1 188.086 153.136 188.086ZM161.571 189.682C159.625 189.682 158.085 188.1 158.085 186.14C158.085 184.194 159.625 182.612 161.571 182.612C163.517 182.612 165.057 184.194 165.057 186.14C165.057 188.1 163.517 189.682 161.571 189.682ZM161.571 188.086C162.607 188.086 163.349 187.218 163.349 186.14C163.349 185.062 162.607 184.208 161.571 184.208C160.535 184.208 159.793 185.062 159.793 186.14C159.793 187.218 160.535 188.086 161.571 188.086ZM169.535 189.5H167.603L165.531 182.794H167.365L168.611 187.624L169.969 182.794H171.817L173.203 187.652L174.477 182.794H176.311L174.239 189.5H172.111L170.809 184.95L169.535 189.5ZM177.523 189.5V182.794H179.231V183.746C179.581 183.032 180.253 182.612 181.135 182.612C182.675 182.612 183.669 183.69 183.669 185.44V189.5H181.961V185.692C181.961 184.782 181.443 184.208 180.603 184.208C179.763 184.208 179.231 184.782 179.231 185.692V189.5H177.523ZM191.568 189.682C189.621 189.682 188.082 188.1 188.082 186.14C188.082 184.194 189.621 182.612 191.568 182.612C193.514 182.612 195.054 184.194 195.054 186.14C195.054 188.1 193.514 189.682 191.568 189.682ZM191.568 188.086C192.604 188.086 193.346 187.218 193.346 186.14C193.346 185.062 192.604 184.208 191.568 184.208C190.532 184.208 189.79 185.062 189.79 186.14C189.79 187.218 190.532 188.086 191.568 188.086ZM198.235 192.244H196.527V182.794H198.235V183.746C198.683 183.06 199.383 182.612 200.293 182.612C202.057 182.612 203.513 184.054 203.513 186.154C203.513 188.17 202.155 189.682 200.293 189.682C199.383 189.682 198.683 189.276 198.235 188.604V192.244ZM200.027 188.086C201.049 188.086 201.805 187.232 201.805 186.154C201.805 185.076 201.049 184.208 200.027 184.208C198.991 184.208 198.235 185.076 198.235 186.154C198.235 187.232 198.991 188.086 200.027 188.086ZM204.277 184.306V182.794H205.453V181.058H207.175V182.794H208.981V184.306H207.189V187.162C207.189 187.792 207.441 188.086 207.945 188.086C208.267 188.086 208.575 187.946 208.743 187.75L209.499 189.024C209.135 189.388 208.505 189.682 207.679 189.682C206.321 189.682 205.453 188.842 205.453 187.204V184.306H204.277ZM211.491 181.898C210.931 181.898 210.497 181.45 210.497 180.89C210.497 180.344 210.931 179.896 211.491 179.896C212.037 179.896 212.499 180.344 212.499 180.89C212.499 181.45 212.037 181.898 211.491 181.898ZM212.345 189.5H210.637V182.794H212.345V189.5ZM217.312 189.682C215.366 189.682 213.826 188.1 213.826 186.14C213.826 184.194 215.366 182.612 217.312 182.612C219.258 182.612 220.798 184.194 220.798 186.14C220.798 188.1 219.258 189.682 217.312 189.682ZM217.312 188.086C218.348 188.086 219.09 187.218 219.09 186.14C219.09 185.062 218.348 184.208 217.312 184.208C216.276 184.208 215.534 185.062 215.534 186.14C215.534 187.218 216.276 188.086 217.312 188.086ZM222.271 189.5V182.794H223.979V183.746C224.329 183.032 225.001 182.612 225.883 182.612C227.423 182.612 228.417 183.69 228.417 185.44V189.5H226.709V185.692C226.709 184.782 226.191 184.208 225.351 184.208C224.511 184.208 223.979 184.782 223.979 185.692V189.5H222.271Z" fill="black"/>
</g>
<path d="M328 75H114C109.306 75 105.5 78.8056 105.5 83.5V199.5C105.5 204.194 109.306 208 114 208H328C332.694 208 336.5 204.194 336.5 199.5V83.5C336.5 78.8056 332.694 75 328 75Z" stroke="#EBEBEB"/>
</g>
<path d="M24 12.5C24 5.87258 18.6274 0.5 12 0.5C5.37258 0.5 0 5.87258 0 12.5C0 19.1274 5.37258 24.5 12 24.5C18.6274 24.5 24 19.1274 24 12.5Z" fill="#F7D055"/>
<path d="M13.684 7.31824V17.5001H11.8395V9.11299H11.7799L9.39844 10.6343V8.94395L11.929 7.31824H13.684Z" fill="black"/>
<path d="M24 141.5C24 134.873 18.6274 129.5 12 129.5C5.37258 129.5 0 134.873 0 141.5C0 148.127 5.37258 153.5 12 153.5C18.6274 153.5 24 148.127 24 141.5Z" fill="#F7D055"/>
<path d="M12.0949 146.639C11.6076 146.636 11.132 146.551 10.668 146.386C10.204 146.217 9.78641 145.943 9.4152 145.565C9.04399 145.184 8.74901 144.679 8.53026 144.049C8.31151 143.416 8.20379 142.632 8.20711 141.697C8.20711 140.826 8.29991 140.049 8.48552 139.366C8.67112 138.683 8.93793 138.106 9.28594 137.636C9.63395 137.162 10.0532 136.8 10.5437 136.552C11.0376 136.303 11.5894 136.179 12.1993 136.179C12.8389 136.179 13.4057 136.305 13.8995 136.557C14.3967 136.809 14.7977 137.153 15.1027 137.591C15.4076 138.025 15.5965 138.516 15.6694 139.062H13.8548C13.762 138.671 13.5714 138.36 13.2831 138.128C12.998 137.893 12.6368 137.775 12.1993 137.775C11.4933 137.775 10.9497 138.081 10.5686 138.695C10.1907 139.308 10.0002 140.15 9.99688 141.22H10.0665C10.2289 140.929 10.4393 140.678 10.6978 140.469C10.9564 140.261 11.248 140.1 11.5728 139.987C11.901 139.871 12.2473 139.813 12.6119 139.813C13.2085 139.813 13.7438 139.956 14.2177 140.241C14.695 140.526 15.0728 140.919 15.3513 141.419C15.6297 141.916 15.7672 142.486 15.7639 143.129C15.7672 143.799 15.6147 144.4 15.3065 144.934C14.9983 145.464 14.5691 145.882 14.0189 146.187C13.4687 146.492 12.8273 146.643 12.0949 146.639ZM12.0849 145.148C12.4462 145.148 12.7693 145.06 13.0544 144.884C13.3394 144.709 13.5648 144.472 13.7305 144.173C13.8962 143.875 13.9774 143.54 13.9741 143.169C13.9774 142.804 13.8979 142.475 13.7355 142.18C13.5764 141.885 13.356 141.651 13.0743 141.479C12.7925 141.306 12.471 141.22 12.1098 141.22C11.8413 141.22 11.5911 141.272 11.3591 141.374C11.1271 141.477 10.9249 141.62 10.7525 141.802C10.5802 141.981 10.4443 142.19 10.3449 142.428C10.2487 142.664 10.199 142.915 10.1957 143.184C10.199 143.539 10.2819 143.865 10.4443 144.163C10.6067 144.462 10.8304 144.7 11.1155 144.879C11.4005 145.058 11.7236 145.148 12.0849 145.148Z" fill="black"/>
<path d="M27 49.5C27 42.8726 21.6274 37.5 15 37.5C8.37258 37.5 3 42.8726 3 49.5C3 56.1274 8.37258 61.5 15 61.5C21.6274 61.5 27 56.1274 27 49.5Z" fill="#F7D055"/>
<path d="M14.9993 54.6392C14.2834 54.6392 13.647 54.5166 13.0902 54.2713C12.5367 54.026 12.0992 53.6847 11.7777 53.2472C11.4562 52.8097 11.2855 52.3042 11.2656 51.7308H13.1349C13.1515 52.0059 13.2426 52.2462 13.4084 52.4517C13.5741 52.6539 13.7945 52.8113 14.0696 52.924C14.3447 53.0367 14.6529 53.093 14.9943 53.093C15.3589 53.093 15.682 53.0301 15.9638 52.9041C16.2455 52.7749 16.4659 52.5959 16.625 52.3672C16.7841 52.1385 16.862 51.875 16.8587 51.5767C16.862 51.2685 16.7824 50.9967 16.62 50.7614C16.4576 50.526 16.2223 50.3421 15.9141 50.2095C15.6091 50.0769 15.2412 50.0107 14.8104 50.0107H13.9105V48.5888H14.8104C15.165 48.5888 15.4749 48.5275 15.74 48.4048C16.0085 48.2822 16.219 48.1098 16.3714 47.8878C16.5239 47.6624 16.5985 47.4022 16.5952 47.1072C16.5985 46.8189 16.5338 46.5687 16.4013 46.3565C16.272 46.1411 16.0881 45.9737 15.8494 45.8544C15.6141 45.7351 15.3373 45.6754 15.0192 45.6754C14.7076 45.6754 14.4193 45.7318 14.1541 45.8445C13.889 45.9571 13.6752 46.1179 13.5128 46.3267C13.3504 46.5322 13.2642 46.7775 13.2543 47.0625H11.4794C11.4926 46.4924 11.6567 45.992 11.9716 45.5611C12.2898 45.1269 12.714 44.7888 13.2443 44.5469C13.7746 44.3016 14.3695 44.179 15.0291 44.179C15.7086 44.179 16.2985 44.3066 16.799 44.5618C17.3028 44.8137 17.6922 45.1534 17.9673 45.581C18.2424 46.0085 18.38 46.4808 18.38 46.9979C18.3833 47.5713 18.2142 48.0518 17.8729 48.4396C17.5348 48.8274 17.0907 49.081 16.5405 49.2003V49.2798C17.2564 49.3793 17.8049 49.6444 18.1861 50.0753C18.5705 50.5028 18.7611 51.0348 18.7578 51.6712C18.7578 52.2412 18.5954 52.7517 18.2706 53.2024C17.9491 53.6499 17.505 54.0012 16.9382 54.2564C16.3748 54.5116 15.7284 54.6392 14.9993 54.6392Z" fill="black"/>
<path d="M311 13.5C311 6.87258 305.627 1.5 299 1.5C292.373 1.5 287 6.87258 287 13.5C287 20.1274 292.373 25.5 299 25.5C305.627 25.5 311 20.1274 311 13.5Z" fill="#F7D055"/>
<path d="M295.555 18.5V17.1676L299.09 13.7024C299.428 13.361 299.71 13.0578 299.935 12.7926C300.161 12.5275 300.33 12.2706 300.442 12.022C300.555 11.7734 300.611 11.5083 300.611 11.2266C300.611 10.9051 300.538 10.63 300.393 10.4013C300.247 10.1692 300.046 9.99027 299.791 9.86433C299.536 9.73838 299.246 9.67541 298.921 9.67541C298.586 9.67541 298.293 9.745 298.041 9.8842C297.789 10.0201 297.594 10.214 297.454 10.4659C297.318 10.7178 297.25 11.0178 297.25 11.3658H295.496C295.496 10.7195 295.643 10.1576 295.938 9.68038C296.233 9.2031 296.639 8.83354 297.156 8.5717C297.676 8.30987 298.273 8.17896 298.946 8.17896C299.629 8.17896 300.228 8.30656 300.746 8.56177C301.263 8.81698 301.664 9.16664 301.949 9.61077C302.237 10.0549 302.381 10.562 302.381 11.1321C302.381 11.5133 302.308 11.8878 302.162 12.2557C302.017 12.6236 301.76 13.0312 301.392 13.4787C301.027 13.9261 300.515 14.468 299.856 15.1044L298.101 16.8892V16.9588H302.535V18.5H295.555Z" fill="black"/>
<path d="M104 11.5H24V13.5H104V11.5Z" fill="#F7D055"/>
<path d="M104 140.5H24V142.5H104V140.5Z" fill="#F7D055"/>
<path d="M107 48.5H27V50.5H107V48.5Z" fill="#F7D055"/>
<path d="M102 17.5C104.761 17.5 107 15.2614 107 12.5C107 9.73858 104.761 7.5 102 7.5C99.2386 7.5 97 9.73858 97 12.5C97 15.2614 99.2386 17.5 102 17.5Z" fill="#F7D055"/>
<path d="M102 146.5C104.761 146.5 107 144.261 107 141.5C107 138.739 104.761 136.5 102 136.5C99.2386 136.5 97 138.739 97 141.5C97 144.261 99.2386 146.5 102 146.5Z" fill="#F7D055"/>
<path d="M105 54.5C107.761 54.5 110 52.2614 110 49.5C110 46.7386 107.761 44.5 105 44.5C102.239 44.5 100 46.7386 100 49.5C100 52.2614 102.239 54.5 105 54.5Z" fill="#F7D055"/>
<path d="M235 17.5C237.761 17.5 240 15.2614 240 12.5C240 9.73858 237.761 7.5 235 7.5C232.239 7.5 230 9.73858 230 12.5C230 15.2614 232.239 17.5 235 17.5Z" fill="#F7D055"/>
<path d="M293 11.5H233V13.5H293V11.5Z" fill="#F7D055"/>
<path d="M319 77.5V58.5H317V77.5H319Z" fill="#F7D055"/>
<path d="M347 201.5V85.5H345V201.5H347Z" fill="#F7D055"/>
<path d="M441 78.5C441 71.8726 435.627 66.5 429 66.5C422.373 66.5 417 71.8726 417 78.5C417 85.1274 422.373 90.5 429 90.5C435.627 90.5 441 85.1274 441 78.5Z" fill="#F7D055"/>
<path d="M429.015 83.6392C428.352 83.6392 427.759 83.5149 427.235 83.2663C426.711 83.0144 426.295 82.6697 425.987 82.2322C425.682 81.7947 425.52 81.2943 425.5 80.7308H427.29C427.323 81.1484 427.504 81.4898 427.832 81.755C428.16 82.0168 428.554 82.1477 429.015 82.1477C429.376 82.1477 429.698 82.0649 429.979 81.8991C430.261 81.7334 430.483 81.5031 430.646 81.2081C430.808 80.9131 430.888 80.5767 430.884 80.1989C430.888 79.8144 430.806 79.473 430.641 79.1747C430.475 78.8764 430.248 78.6428 429.96 78.4737C429.671 78.3014 429.34 78.2152 428.965 78.2152C428.66 78.2119 428.36 78.2682 428.065 78.3842C427.77 78.5002 427.537 78.6527 427.364 78.8416L425.699 78.5682L426.231 73.3182H432.137V74.8594H427.757L427.464 77.5589H427.523C427.712 77.3369 427.979 77.1529 428.324 77.0071C428.669 76.858 429.046 76.7834 429.457 76.7834C430.074 76.7834 430.624 76.9292 431.108 77.2209C431.592 77.5092 431.973 77.907 432.251 78.4141C432.53 78.9212 432.669 79.5012 432.669 80.1541C432.669 80.8269 432.513 81.4268 432.202 81.9538C431.893 82.4775 431.464 82.8902 430.914 83.1918C430.367 83.4901 429.734 83.6392 429.015 83.6392Z" fill="black"/>
<path d="M469 143.5C469 136.873 463.627 131.5 457 131.5C450.373 131.5 445 136.873 445 143.5C445 150.127 450.373 155.5 457 155.5C463.627 155.5 469 150.127 469 143.5Z" fill="#F7D055"/>
<path d="M454.169 148.5L458.5 139.929V139.859H453.473V138.318H460.409V139.894L456.083 148.5H454.169Z" fill="black"/>
<path d="M419 77.5H317V79.5H419V77.5Z" fill="#F7D055"/>
<path d="M447 142.5H345V144.5H447V142.5Z" fill="#F7D055"/>
<path d="M318 64.5C320.761 64.5 323 62.2614 323 59.5C323 56.7386 320.761 54.5 318 54.5C315.239 54.5 313 56.7386 313 59.5C313 62.2614 315.239 64.5 318 64.5Z" fill="#F7D055"/>
</g>
<defs>
<filter id="filter0_d_6343_40343" x="73" y="58.5" width="296" height="198" filterUnits="userSpaceOnUse" color-interpolation-filters="sRGB">
<feFlood flood-opacity="0" result="BackgroundImageFix"/>
<feColorMatrix in="SourceAlpha" type="matrix" values="0 0 0 0 0 0 0 0 0 0 0 0 0 0 0 0 0 0 127 0" result="hardAlpha"/>
<feOffset dy="16"/>
<feGaussianBlur stdDeviation="16"/>
<feComposite in2="hardAlpha" operator="out"/>
<feColorMatrix type="matrix" values="0 0 0 0 0 0 0 0 0 0 0 0 0 0 0 0 0 0 0.1 0"/>
<feBlend mode="normal" in2="BackgroundImageFix" result="effect1_dropShadow_6343_40343"/>
<feBlend mode="normal" in="SourceGraphic" in2="effect1_dropShadow_6343_40343" result="shape"/>
</filter>
<clipPath id="clip0_6343_40343">
<rect width="469" height="256" fill="white" transform="translate(0 0.5)"/>
</clipPath>
</defs>
</svg>
