<svg width="230" height="70" viewBox="0 0 230 70" fill="none" xmlns="http://www.w3.org/2000/svg">
<path d="M1.02344 15V6.03998H4.01944C6.97344 6.03998 9.08744 7.90198 9.08744 10.52C9.08744 13.138 7.00144 15 4.07544 15H1.02344ZM4.00544 7.67798H2.82944V13.348H4.01944C5.93744 13.348 7.21144 12.228 7.21144 10.52C7.21144 8.79798 5.93744 7.67798 4.00544 7.67798ZM10.6057 15V8.29398H12.3137V9.28798C12.6357 8.57398 13.2097 8.11198 13.9657 8.11198C14.4137 8.11198 14.7777 8.22398 15.0297 8.43398L14.3297 10.044C14.1057 9.87598 13.7697 9.76398 13.4337 9.76398C12.7617 9.76398 12.3137 10.338 12.3137 11.248V15H10.6057ZM18.689 15.182C16.743 15.182 15.203 13.6 15.203 11.64C15.203 9.69398 16.743 8.11198 18.689 8.11198C20.635 8.11198 22.175 9.69398 22.175 11.64C22.175 13.6 20.635 15.182 18.689 15.182ZM18.689 13.586C19.725 13.586 20.467 12.718 20.467 11.64C20.467 10.562 19.725 9.70798 18.689 9.70798C17.653 9.70798 16.911 10.562 16.911 11.64C16.911 12.718 17.653 13.586 18.689 13.586ZM25.3567 17.744H23.6487V8.29398H25.3567V9.24598C25.8047 8.55998 26.5047 8.11198 27.4147 8.11198C29.1787 8.11198 30.6347 9.55398 30.6347 11.654C30.6347 13.67 29.2767 15.182 27.4147 15.182C26.5047 15.182 25.8047 14.776 25.3567 14.104V17.744ZM27.1487 13.586C28.1707 13.586 28.9267 12.732 28.9267 11.654C28.9267 10.576 28.1707 9.70798 27.1487 9.70798C26.1127 9.70798 25.3567 10.576 25.3567 11.654C25.3567 12.732 26.1127 13.586 27.1487 13.586ZM34.8563 15.182C33.0923 15.182 31.6503 13.74 31.6503 11.64C31.6503 9.62398 33.0083 8.11198 34.8563 8.11198C35.7663 8.11198 36.4663 8.51798 36.9143 9.17598V5.36798H38.6223V15H36.9143V14.048C36.4663 14.734 35.7663 15.182 34.8563 15.182ZM35.1363 13.586C36.1723 13.586 36.9143 12.718 36.9143 11.64C36.9143 10.562 36.1723 9.70798 35.1363 9.70798C34.1003 9.70798 33.3583 10.562 33.3583 11.64C33.3583 12.718 34.1003 13.586 35.1363 13.586ZM43.5718 15.182C41.6258 15.182 40.0858 13.6 40.0858 11.64C40.0858 9.69398 41.6258 8.11198 43.5718 8.11198C45.5178 8.11198 47.0578 9.69398 47.0578 11.64C47.0578 13.6 45.5178 15.182 43.5718 15.182ZM43.5718 13.586C44.6078 13.586 45.3498 12.718 45.3498 11.64C45.3498 10.562 44.6078 9.70798 43.5718 9.70798C42.5358 9.70798 41.7938 10.562 41.7938 11.64C41.7938 12.718 42.5358 13.586 43.5718 13.586ZM51.5351 15H49.6031L47.5311 8.29398H49.3651L50.6111 13.124L51.9691 8.29398H53.8171L55.2031 13.152L56.4771 8.29398H58.3111L56.2391 15H54.1111L52.8091 10.45L51.5351 15ZM59.5237 15V8.29398H61.2317V9.24598C61.5817 8.53198 62.2537 8.11198 63.1357 8.11198C64.6757 8.11198 65.6697 9.18998 65.6697 10.94V15H63.9617V11.192C63.9617 10.282 63.4437 9.70798 62.6037 9.70798C61.7637 9.70798 61.2317 10.282 61.2317 11.192V15H59.5237ZM70.5859 15V6.02598H72.3359V13.348H76.7179V15H70.5859ZM80.3699 15.182C78.6059 15.182 77.1639 13.74 77.1639 11.64C77.1639 9.62398 78.5219 8.11198 80.3699 8.11198C81.2799 8.11198 81.9799 8.51798 82.4279 9.17598V8.29398H84.1359V15H82.4279V14.048C81.9799 14.734 81.2799 15.182 80.3699 15.182ZM80.6499 13.586C81.6859 13.586 82.4279 12.718 82.4279 11.64C82.4279 10.562 81.6859 9.70798 80.6499 9.70798C79.6139 9.70798 78.8719 10.562 78.8719 11.64C78.8719 12.718 79.6139 13.586 80.6499 13.586ZM89.7995 8.11198C91.5635 8.11198 93.0195 9.55398 93.0195 11.654C93.0195 13.67 91.6615 15.182 89.7995 15.182C88.8895 15.182 88.1895 14.776 87.7415 14.104V15H86.0335V5.36798H87.7415V9.24598C88.1895 8.55998 88.8895 8.11198 89.7995 8.11198ZM89.5335 9.70798C88.4975 9.70798 87.7415 10.576 87.7415 11.654C87.7415 12.732 88.4975 13.586 89.5335 13.586C90.5555 13.586 91.3115 12.732 91.3115 11.654C91.3115 10.576 90.5555 9.70798 89.5335 9.70798ZM97.633 15.182C95.547 15.182 94.035 13.6 94.035 11.64C94.035 9.69398 95.477 8.11198 97.409 8.11198C99.327 8.11198 100.797 9.58198 100.797 11.514C100.797 11.738 100.783 12.004 100.755 12.116H95.785C95.967 13.04 96.667 13.684 97.689 13.684C98.375 13.684 98.949 13.39 99.341 12.984L100.223 14.16C99.705 14.734 98.753 15.182 97.633 15.182ZM97.437 9.55398C96.625 9.55398 96.037 10.114 95.827 10.926H99.033C98.823 10.03 98.221 9.55398 97.437 9.55398ZM104.756 13.516L104.938 15.014C104.686 15.098 104.364 15.154 104.112 15.154C103.146 15.154 102.166 14.538 102.166 12.83V5.36798H103.874V12.872C103.874 13.39 104.168 13.586 104.476 13.586C104.56 13.586 104.672 13.558 104.756 13.516Z" fill="black"/>
<path fill-rule="evenodd" clip-rule="evenodd" d="M110 11C110 6.58854 113.589 3 118 3C122.411 3 126 6.58854 126 11C126 15.4115 122.411 19 118 19C113.589 19 110 15.4115 110 11ZM124.769 11C124.769 7.25312 121.747 4.23077 118 4.23077C114.253 4.23077 111.231 7.25312 111.231 11C111.231 14.7469 114.253 17.7692 118 17.7692C121.747 17.7692 124.769 14.7469 124.769 11ZM118.923 14.3846C118.923 14.8944 118.51 15.3077 118 15.3077C117.49 15.3077 117.077 14.8944 117.077 14.3846C117.077 13.8748 117.49 13.4615 118 13.4615C118.51 13.4615 118.923 13.8748 118.923 14.3846ZM115.231 9.42735C115.231 7.92361 116.477 6.69231 118 6.69231C119.523 6.69231 120.769 7.92361 120.769 9.42735C120.769 10.5358 120.039 11.5347 118.974 11.8846L118.692 11.9701V12.8462H117.308V11.9701C117.308 11.3851 117.694 10.851 118.26 10.6667L118.541 10.5812C119.044 10.4156 119.385 9.95086 119.385 9.42735C119.385 8.66346 118.773 8.05983 118 8.05983C117.227 8.05983 116.615 8.66346 116.615 9.42735H115.231Z" fill="#2861BB"/>
<path d="M222 26.5H8C3.85786 26.5 0.5 29.8579 0.5 34V62C0.5 66.1421 3.85786 69.5 8 69.5H222C226.142 69.5 229.5 66.1421 229.5 62V34C229.5 29.8579 226.142 26.5 222 26.5Z" fill="white"/>
<path d="M222 26.5H8C3.85786 26.5 0.5 29.8579 0.5 34V62C0.5 66.1421 3.85786 69.5 8 69.5H222C226.142 69.5 229.5 66.1421 229.5 62V34C229.5 29.8579 226.142 26.5 222 26.5Z" stroke="#EBEBEB"/>
<path d="M13.0234 52V43.04H16.0194C18.9734 43.04 21.0874 44.902 21.0874 47.52C21.0874 50.138 19.0014 52 16.0754 52H13.0234ZM16.0054 44.678H14.8294V50.348H16.0194C17.9374 50.348 19.2114 49.228 19.2114 47.52C19.2114 45.798 17.9374 44.678 16.0054 44.678ZM25.7697 52.182C23.6837 52.182 22.1717 50.6 22.1717 48.64C22.1717 46.694 23.6137 45.112 25.5457 45.112C27.4637 45.112 28.9337 46.582 28.9337 48.514C28.9337 48.738 28.9197 49.004 28.8917 49.116H23.9217C24.1037 50.04 24.8037 50.684 25.8257 50.684C26.5117 50.684 27.0857 50.39 27.4777 49.984L28.3597 51.16C27.8417 51.734 26.8897 52.182 25.7697 52.182ZM25.5737 46.554C24.7617 46.554 24.1737 47.114 23.9637 47.926H27.1697C26.9597 47.03 26.3577 46.554 25.5737 46.554ZM29.701 46.806V45.294H30.793V44.902C30.793 43.208 31.759 42.186 33.257 42.186C34.167 42.186 34.755 42.438 35.189 42.872L34.349 44.16C34.153 43.95 33.789 43.782 33.425 43.782C32.865 43.782 32.515 44.16 32.515 44.888V45.294H34.251V46.806H32.515V52H30.793V46.806H29.701ZM37.9149 52.182C36.1509 52.182 34.7089 50.74 34.7089 48.64C34.7089 46.624 36.0669 45.112 37.9149 45.112C38.8249 45.112 39.5249 45.518 39.9729 46.176V45.294H41.6809V52H39.9729V51.048C39.5249 51.734 38.8249 52.182 37.9149 52.182ZM38.1949 50.586C39.2309 50.586 39.9729 49.718 39.9729 48.64C39.9729 47.562 39.2309 46.708 38.1949 46.708C37.1589 46.708 36.4169 47.562 36.4169 48.64C36.4169 49.718 37.1589 50.586 38.1949 50.586ZM45.2024 45.294V48.92C45.2024 49.9 45.7624 50.558 46.6164 50.558C47.4704 50.558 48.0444 49.9 48.0444 48.92V45.294H49.7664V49.046C49.7664 50.922 48.5064 52.168 46.6164 52.168C44.7264 52.168 43.4944 50.922 43.4944 49.046V45.294H45.2024ZM54.1664 50.516L54.3484 52.014C54.0964 52.098 53.7744 52.154 53.5224 52.154C52.5564 52.154 51.5764 51.538 51.5764 49.83V42.368H53.2844V49.872C53.2844 50.39 53.5784 50.586 53.8864 50.586C53.9704 50.586 54.0824 50.558 54.1664 50.516ZM55.0877 46.806V45.294H56.2637V43.558H57.9857V45.294H59.7917V46.806H57.9997V49.662C57.9997 50.292 58.2517 50.586 58.7557 50.586C59.0777 50.586 59.3857 50.446 59.5537 50.25L60.3097 51.524C59.9457 51.888 59.3157 52.182 58.4897 52.182C57.1317 52.182 56.2637 51.342 56.2637 49.704V46.806H55.0877ZM68.6977 42.844C71.2597 42.844 73.3457 44.944 73.3457 47.534C73.3457 50.096 71.2597 52.182 68.6977 52.182C66.1357 52.182 64.0497 50.082 64.0497 47.52C64.0497 44.93 66.1357 42.844 68.6977 42.844ZM68.6977 50.446C70.2377 50.446 71.4837 49.13 71.4837 47.534C71.4837 45.91 70.2377 44.58 68.6977 44.58C67.1577 44.58 65.9257 45.896 65.9257 47.52C65.9257 49.13 67.1577 50.446 68.6977 50.446ZM76.5677 54.744H74.8597V45.294H76.5677V46.246C77.0157 45.56 77.7157 45.112 78.6257 45.112C80.3897 45.112 81.8457 46.554 81.8457 48.654C81.8457 50.67 80.4877 52.182 78.6257 52.182C77.7157 52.182 77.0157 51.776 76.5677 51.104V54.744ZM78.3597 50.586C79.3817 50.586 80.1377 49.732 80.1377 48.654C80.1377 47.576 79.3817 46.708 78.3597 46.708C77.3237 46.708 76.5677 47.576 76.5677 48.654C76.5677 49.732 77.3237 50.586 78.3597 50.586ZM82.6092 46.806V45.294H83.7852V43.558H85.5072V45.294H87.3132V46.806H85.5212V49.662C85.5212 50.292 85.7732 50.586 86.2772 50.586C86.5992 50.586 86.9072 50.446 87.0752 50.25L87.8312 51.524C87.4672 51.888 86.8372 52.182 86.0112 52.182C84.6532 52.182 83.7852 51.342 83.7852 49.704V46.806H82.6092ZM89.823 44.398C89.263 44.398 88.829 43.95 88.829 43.39C88.829 42.844 89.263 42.396 89.823 42.396C90.369 42.396 90.831 42.844 90.831 43.39C90.831 43.95 90.369 44.398 89.823 44.398ZM90.677 52H88.969V45.294H90.677V52ZM95.6441 52.182C93.6981 52.182 92.1581 50.6 92.1581 48.64C92.1581 46.694 93.6981 45.112 95.6441 45.112C97.5901 45.112 99.1301 46.694 99.1301 48.64C99.1301 50.6 97.5901 52.182 95.6441 52.182ZM95.6441 50.586C96.6801 50.586 97.4221 49.718 97.4221 48.64C97.4221 47.562 96.6801 46.708 95.6441 46.708C94.6081 46.708 93.8661 47.562 93.8661 48.64C93.8661 49.718 94.6081 50.586 95.6441 50.586ZM100.603 52V45.294H102.311V46.246C102.661 45.532 103.333 45.112 104.215 45.112C105.755 45.112 106.749 46.19 106.749 47.94V52H105.041V48.192C105.041 47.282 104.523 46.708 103.683 46.708C102.843 46.708 102.311 47.282 102.311 48.192V52H100.603Z" fill="black"/>
<path d="M212 51L207 45.9524L208 45L212 49.2857L216 45L217 45.9524L212 51Z" fill="black"/>
</svg>
