<svg width="230" height="45" viewBox="0 0 230 45" fill="none" xmlns="http://www.w3.org/2000/svg">
<g clip-path="url(#clip0_6343_40395)">
<path d="M222 1H8C3.85786 1 0.5 4.35786 0.5 8.5V36.5C0.5 40.6421 3.85786 44 8 44H222C226.142 44 229.5 40.6421 229.5 36.5V8.5C229.5 4.35786 226.142 1 222 1Z" fill="white"/>
<path d="M222 1H8C3.85786 1 0.5 4.35786 0.5 8.5V36.5C0.5 40.6421 3.85786 44 8 44H222C226.142 44 229.5 40.6421 229.5 36.5V8.5C229.5 4.35786 226.142 1 222 1Z" stroke="#EBEBEB"/>
<path d="M13.0234 26.5V17.526H16.2294C18.3994 17.526 19.8274 18.702 19.8274 20.494C19.8274 22.3 18.3854 23.49 16.2014 23.49H14.7734V26.5H13.0234ZM16.3694 19.08H14.7734V21.936H16.3694C17.3354 21.936 17.9794 21.362 17.9794 20.494C17.9794 19.64 17.3354 19.08 16.3694 19.08ZM23.7875 25.016L23.9695 26.514C23.7175 26.598 23.3955 26.654 23.1435 26.654C22.1775 26.654 21.1975 26.038 21.1975 24.33V16.868H22.9055V24.372C22.9055 24.89 23.1995 25.086 23.5075 25.086C23.5915 25.086 23.7035 25.058 23.7875 25.016ZM28.1668 26.682C26.4028 26.682 24.9608 25.24 24.9608 23.14C24.9608 21.124 26.3188 19.612 28.1668 19.612C29.0768 19.612 29.7768 20.018 30.2248 20.676V19.794H31.9328V26.5H30.2248V25.548C29.7768 26.234 29.0768 26.682 28.1668 26.682ZM28.4468 25.086C29.4828 25.086 30.2248 24.218 30.2248 23.14C30.2248 22.062 29.4828 21.208 28.4468 21.208C27.4108 21.208 26.6688 22.062 26.6688 23.14C26.6688 24.218 27.4108 25.086 28.4468 25.086ZM38.5624 21.824C38.1284 21.418 37.6384 21.208 36.9664 21.208C35.8464 21.208 35.1044 22.062 35.1044 23.14C35.1044 24.218 35.8604 25.086 36.9664 25.086C37.6384 25.086 38.1844 24.848 38.6184 24.428L39.4864 25.688C38.9544 26.276 37.9744 26.682 36.9244 26.682C34.9224 26.682 33.3964 25.1 33.3964 23.14C33.3964 21.194 34.9364 19.612 36.8964 19.612C38.0304 19.612 38.9404 19.99 39.5424 20.606L38.5624 21.824ZM43.5979 26.682C41.5119 26.682 39.9999 25.1 39.9999 23.14C39.9999 21.194 41.4419 19.612 43.3739 19.612C45.2919 19.612 46.7619 21.082 46.7619 23.014C46.7619 23.238 46.7479 23.504 46.7199 23.616H41.7499C41.9319 24.54 42.6319 25.184 43.6539 25.184C44.3399 25.184 44.9139 24.89 45.3059 24.484L46.1879 25.66C45.6699 26.234 44.7179 26.682 43.5979 26.682ZM43.4019 21.054C42.5899 21.054 42.0019 21.614 41.7919 22.426H44.9979C44.7879 21.53 44.1859 21.054 43.4019 21.054ZM48.1311 26.5V16.868H49.8391V20.746C50.1891 20.032 50.8611 19.612 51.7431 19.612C53.2831 19.612 54.2771 20.69 54.2771 22.44V26.5H52.5691V22.692C52.5691 21.782 52.0511 21.208 51.2111 21.208C50.3711 21.208 49.8391 21.782 49.8391 22.692V26.5H48.1311ZM59.1812 26.682C57.2352 26.682 55.6952 25.1 55.6952 23.14C55.6952 21.194 57.2352 19.612 59.1812 19.612C61.1272 19.612 62.6672 21.194 62.6672 23.14C62.6672 25.1 61.1272 26.682 59.1812 26.682ZM59.1812 25.086C60.2172 25.086 60.9592 24.218 60.9592 23.14C60.9592 22.062 60.2172 21.208 59.1812 21.208C58.1452 21.208 57.4032 22.062 57.4032 23.14C57.4032 24.218 58.1452 25.086 59.1812 25.086ZM66.7309 25.016L66.9129 26.514C66.6609 26.598 66.3389 26.654 66.0869 26.654C65.1209 26.654 64.1409 26.038 64.1409 24.33V16.868H65.8489V24.372C65.8489 24.89 66.1429 25.086 66.4509 25.086C66.5349 25.086 66.6469 25.058 66.7309 25.016ZM71.1102 26.682C69.3462 26.682 67.9042 25.24 67.9042 23.14C67.9042 21.124 69.2622 19.612 71.1102 19.612C72.0202 19.612 72.7202 20.018 73.1682 20.676V16.868H74.8762V26.5H73.1682V25.548C72.7202 26.234 72.0202 26.682 71.1102 26.682ZM71.3902 25.086C72.4262 25.086 73.1682 24.218 73.1682 23.14C73.1682 22.062 72.4262 21.208 71.3902 21.208C70.3542 21.208 69.6122 22.062 69.6122 23.14C69.6122 24.218 70.3542 25.086 71.3902 25.086ZM79.9377 26.682C77.8517 26.682 76.3397 25.1 76.3397 23.14C76.3397 21.194 77.7817 19.612 79.7137 19.612C81.6317 19.612 83.1017 21.082 83.1017 23.014C83.1017 23.238 83.0877 23.504 83.0597 23.616H78.0897C78.2717 24.54 78.9717 25.184 79.9937 25.184C80.6797 25.184 81.2537 24.89 81.6457 24.484L82.5277 25.66C82.0097 26.234 81.0577 26.682 79.9377 26.682ZM79.7417 21.054C78.9297 21.054 78.3417 21.614 78.1317 22.426H81.3377C81.1277 21.53 80.5257 21.054 79.7417 21.054ZM84.471 26.5V19.794H86.179V20.788C86.501 20.074 87.075 19.612 87.831 19.612C88.279 19.612 88.643 19.724 88.895 19.934L88.195 21.544C87.971 21.376 87.635 21.264 87.299 21.264C86.627 21.264 86.179 21.838 86.179 22.748V26.5H84.471ZM92.3709 21.306V19.794H93.5469V18.058H95.2689V19.794H97.0749V21.306H95.2829V24.162C95.2829 24.792 95.5349 25.086 96.0389 25.086C96.3609 25.086 96.6689 24.946 96.8369 24.75L97.5929 26.024C97.2289 26.388 96.5989 26.682 95.7729 26.682C94.4149 26.682 93.5469 25.842 93.5469 24.204V21.306H92.3709ZM101.566 26.682C99.4806 26.682 97.9686 25.1 97.9686 23.14C97.9686 21.194 99.4106 19.612 101.342 19.612C103.26 19.612 104.73 21.082 104.73 23.014C104.73 23.238 104.716 23.504 104.688 23.616H99.7186C99.9006 24.54 100.6 25.184 101.622 25.184C102.308 25.184 102.882 24.89 103.274 24.484L104.156 25.66C103.638 26.234 102.686 26.682 101.566 26.682ZM101.37 21.054C100.558 21.054 99.9706 21.614 99.7606 22.426H102.966C102.756 21.53 102.154 21.054 101.37 21.054ZM104.851 26.5L107.385 23.126L104.935 19.794H107.063L108.519 21.768L110.003 19.794H111.921L109.471 23.056L112.005 26.5H109.877L108.337 24.414L106.755 26.5H104.851ZM112.455 21.306V19.794H113.631V18.058H115.353V19.794H117.159V21.306H115.367V24.162C115.367 24.792 115.619 25.086 116.123 25.086C116.445 25.086 116.753 24.946 116.921 24.75L117.677 26.024C117.313 26.388 116.683 26.682 115.857 26.682C114.499 26.682 113.631 25.842 113.631 24.204V21.306H112.455Z" fill="black"/>
<path d="M212 25.5L207 20.4524L208 19.5L212 23.7857L216 19.5L217 20.4524L212 25.5Z" fill="black"/>
</g>
<defs>
<clipPath id="clip0_6343_40395">
<rect width="230" height="44" fill="white" transform="translate(0 0.5)"/>
</clipPath>
</defs>
</svg>
