<svg width="152" height="44" viewBox="0 0 152 44" fill="none" xmlns="http://www.w3.org/2000/svg">
<g clip-path="url(#clip0_6330_29477)">
<path d="M22 0.5H130C141.874 0.5 151.5 10.1259 151.5 22C151.5 33.8741 141.874 43.5 130 43.5H22C10.1259 43.5 0.5 33.8741 0.5 22C0.5 10.1259 10.1259 0.5 22 0.5Z" stroke="#794CFF"/>
<path d="M65.7122 17.9282L64.3842 19.4642C63.7922 18.9202 62.9602 18.5202 61.9362 18.5202C60.1922 18.5202 58.8002 20.0242 58.8002 21.8802C58.8002 23.7202 60.1922 25.2242 62.0642 25.2242C62.9442 25.2242 63.8242 24.8882 64.4002 24.2962L65.7122 25.7682C64.8162 26.7602 63.5842 27.2082 61.9362 27.2082C58.9442 27.2082 56.6562 24.8082 56.6562 21.8802C56.6562 18.9202 59.0243 16.5362 61.9202 16.5362C63.6482 16.5362 64.8642 17.0642 65.7122 17.9282ZM70.0799 25.3042L70.2879 27.0162C69.9999 27.1122 69.6319 27.1762 69.3439 27.1762C68.2399 27.1762 67.1199 26.4722 67.1199 24.5202V15.9922H69.0719V24.5682C69.0719 25.1602 69.4079 25.3842 69.7599 25.3842C69.8559 25.3842 69.9839 25.3522 70.0799 25.3042ZM75.4047 27.2082C73.1807 27.2082 71.4207 25.4002 71.4207 23.1602C71.4207 20.9362 73.1807 19.1282 75.4047 19.1282C77.6287 19.1282 79.3887 20.9362 79.3887 23.1602C79.3887 25.4002 77.6287 27.2082 75.4047 27.2082ZM75.4047 25.3842C76.5887 25.3842 77.4367 24.3922 77.4367 23.1602C77.4367 21.9282 76.5887 20.9522 75.4047 20.9522C74.2207 20.9522 73.3727 21.9282 73.3727 23.1602C73.3727 24.3922 74.2207 25.3842 75.4047 25.3842ZM83.3782 27.2082C82.1462 27.2082 81.1381 26.8882 80.3861 26.4722L81.0101 24.9682C81.8901 25.3842 82.6262 25.6082 83.4742 25.6082C84.3382 25.6082 84.7382 25.3042 84.7382 24.8562C84.7382 23.4802 80.6101 24.2962 80.6101 21.4002C80.6101 20.2482 81.6341 19.1282 83.6021 19.1282C84.6741 19.1282 85.4901 19.3522 86.4661 19.8162L85.7461 21.2722C85.2021 20.9682 84.3861 20.7282 83.7621 20.7282C83.0261 20.7282 82.5781 20.9682 82.5781 21.3842C82.5781 22.7922 86.6741 21.9122 86.6741 24.8242C86.6741 26.1522 85.4902 27.2082 83.3782 27.2082ZM91.8922 27.2082C89.5082 27.2082 87.7802 25.4002 87.7802 23.1602C87.7802 20.9362 89.4281 19.1282 91.6361 19.1282C93.8281 19.1282 95.5081 20.8082 95.5081 23.0162C95.5081 23.2722 95.4922 23.5762 95.4602 23.7042H89.7802C89.9882 24.7602 90.7881 25.4962 91.9561 25.4962C92.7401 25.4962 93.3961 25.1602 93.8441 24.6962L94.8521 26.0402C94.2601 26.6962 93.1722 27.2082 91.8922 27.2082ZM91.6682 20.7762C90.7402 20.7762 90.0681 21.4162 89.8281 22.3442H93.4921C93.2521 21.3202 92.5642 20.7762 91.6682 20.7762Z" fill="#794CFF"/>
</g>
<defs>
<clipPath id="clip0_6330_29477">
<rect width="152" height="44" fill="white"/>
</clipPath>
</defs>
</svg>
