<svg width="264" height="44" viewBox="0 0 264 44" fill="none" xmlns="http://www.w3.org/2000/svg">
<g clip-path="url(#clip0_6330_29520)">
<path d="M0 22C0 9.84974 9.84974 0 22 0H242C254.15 0 264 9.84974 264 22C264 34.1503 254.15 44 242 44H22C9.84973 44 0 34.1503 0 22Z" fill="#794CFF"/>
<path d="M25.2305 27.0002V16.7602H29.3585C31.2785 16.7602 32.7345 17.9282 32.7345 19.5922C32.7345 20.7922 31.9025 21.4482 31.2145 21.7362C32.2225 22.0402 33.0225 22.8402 33.0225 24.1202C33.0225 25.6562 31.8225 27.0002 29.5985 27.0002H25.2305ZM29.1665 18.5202H27.2305V20.9842H29.1665C30.0465 20.9842 30.6545 20.4722 30.6545 19.7522C30.6545 19.0322 30.0305 18.5202 29.1665 18.5202ZM29.3905 22.6322H27.2305V25.2242H29.3905C30.2865 25.2242 30.9425 24.6802 30.9425 23.9282C30.9425 23.1762 30.2865 22.6322 29.3905 22.6322ZM36.4596 19.3362V23.4802C36.4596 24.6002 37.0996 25.3522 38.0756 25.3522C39.0516 25.3522 39.7076 24.6002 39.7076 23.4802V19.3362H41.6756V23.6242C41.6756 25.7682 40.2356 27.1922 38.0756 27.1922C35.9156 27.1922 34.5076 25.7682 34.5076 23.6242V19.3362H36.4596ZM42.9603 21.0642V19.3362H44.3043V17.3522H46.2723V19.3362H48.3363V21.0642H46.2883V24.3282C46.2883 25.0482 46.5763 25.3842 47.1523 25.3842C47.5203 25.3842 47.8723 25.2242 48.0643 25.0002L48.9283 26.4562C48.5123 26.8722 47.7923 27.2082 46.8483 27.2082C45.2963 27.2082 44.3043 26.2482 44.3043 24.3762V21.0642H42.9603ZM49.4446 21.0642V19.3362H50.7886V17.3522H52.7566V19.3362H54.8206V21.0642H52.7726V24.3282C52.7726 25.0482 53.0606 25.3842 53.6366 25.3842C54.0046 25.3842 54.3566 25.2242 54.5486 25.0002L55.4126 26.4562C54.9966 26.8722 54.2766 27.2082 53.3326 27.2082C51.7806 27.2082 50.7886 26.2482 50.7886 24.3762V21.0642H49.4446ZM59.826 27.2082C57.602 27.2082 55.842 25.4002 55.842 23.1602C55.842 20.9362 57.602 19.1282 59.826 19.1282C62.05 19.1282 63.81 20.9362 63.81 23.1602C63.81 25.4002 62.05 27.2082 59.826 27.2082ZM59.826 25.3842C61.01 25.3842 61.858 24.3922 61.858 23.1602C61.858 21.9282 61.01 20.9522 59.826 20.9522C58.642 20.9522 57.794 21.9282 57.794 23.1602C57.794 24.3922 58.642 25.3842 59.826 25.3842ZM65.4943 27.0002V19.3362H67.4463V20.4242C67.8463 19.6082 68.6143 19.1282 69.6223 19.1282C71.3823 19.1282 72.5183 20.3602 72.5183 22.3602V27.0002H70.5663V22.6482C70.5663 21.6082 69.9743 20.9522 69.0143 20.9522C68.0543 20.9522 67.4463 21.6082 67.4463 22.6482V27.0002H65.4943ZM78.1368 27.0002V16.7442H80.1368V25.1122H85.1448V27.0002H78.1368ZM89.3185 27.2082C87.3025 27.2082 85.6545 25.5602 85.6545 23.1602C85.6545 20.8562 87.2065 19.1282 89.3185 19.1282C90.3585 19.1282 91.1585 19.5922 91.6705 20.3442V19.3362H93.6225V27.0002H91.6705V25.9122C91.1585 26.6962 90.3585 27.2082 89.3185 27.2082ZM89.6385 25.3842C90.8225 25.3842 91.6705 24.3922 91.6705 23.1602C91.6705 21.9282 90.8225 20.9522 89.6385 20.9522C88.4545 20.9522 87.6065 21.9282 87.6065 23.1602C87.6065 24.3922 88.4545 25.3842 89.6385 25.3842ZM100.095 19.1282C102.111 19.1282 103.775 20.7762 103.775 23.1762C103.775 25.4802 102.223 27.2082 100.095 27.2082C99.0551 27.2082 98.2551 26.7442 97.7431 25.9762V27.0002H95.7911V15.9922H97.7431V20.4242C98.2551 19.6402 99.0551 19.1282 100.095 19.1282ZM99.7911 20.9522C98.6071 20.9522 97.7431 21.9442 97.7431 23.1762C97.7431 24.4082 98.6071 25.3842 99.7911 25.3842C100.959 25.3842 101.823 24.4082 101.823 23.1762C101.823 21.9442 100.959 20.9522 99.7911 20.9522ZM109.048 27.2082C106.664 27.2082 104.936 25.4002 104.936 23.1602C104.936 20.9362 106.584 19.1282 108.792 19.1282C110.984 19.1282 112.664 20.8082 112.664 23.0162C112.664 23.2722 112.648 23.5762 112.616 23.7042H106.936C107.144 24.7602 107.944 25.4962 109.112 25.4962C109.896 25.4962 110.552 25.1602 111 24.6962L112.008 26.0402C111.416 26.6962 110.328 27.2082 109.048 27.2082ZM108.824 20.7762C107.896 20.7762 107.224 21.4162 106.984 22.3442H110.648C110.408 21.3202 109.72 20.7762 108.824 20.7762ZM117.189 25.3042L117.397 27.0162C117.109 27.1122 116.741 27.1762 116.453 27.1762C115.349 27.1762 114.229 26.4722 114.229 24.5202V15.9922H116.181V24.5682C116.181 25.1602 116.517 25.3842 116.869 25.3842C116.965 25.3842 117.093 25.3522 117.189 25.3042Z" fill="white"/>
<path fill-rule="evenodd" clip-rule="evenodd" d="M219 15.5714V28.4286C219 29.8429 219.9 31 221 31H235C236.1 31 237 29.8429 237 28.4286V15.5714C237 14.1571 236.1 13 235 13H221C219.9 13 219 14.1571 219 15.5714Z" fill="white"/>
</g>
<defs>
<clipPath id="clip0_6330_29520">
<rect width="264" height="44" fill="white"/>
</clipPath>
</defs>
</svg>
