<svg width="64" height="24" viewBox="0 0 64 24" fill="none" xmlns="http://www.w3.org/2000/svg">
<g clip-path="url(#clip0_6330_29502)">
<path d="M0 12C0 5.37258 5.37258 0 12 0H52C58.6274 0 64 5.37258 64 12C64 18.6274 58.6274 24 52 24H12C5.37258 24 0 18.6274 0 12Z" fill="#794CFF"/>
<path d="M14.1579 16.0121C13.7979 15.9161 13.3419 15.6881 12.7539 15.3041L13.4019 14.0441C14.0499 14.4521 14.9859 14.7401 15.7419 14.7401C16.4979 14.7401 17.0619 14.4641 17.0619 13.8521C17.0619 12.4841 13.0179 13.1321 13.0179 10.4081C13.0179 8.98014 14.3259 8.14014 15.8859 8.14014C16.8579 8.14014 17.7699 8.40414 18.4779 8.94414L17.7459 10.1321C17.2539 9.80814 16.4859 9.54414 15.8139 9.54414C15.1179 9.54414 14.6259 9.86814 14.6259 10.3721C14.6259 11.7761 18.6579 11.1521 18.6579 13.7681C18.6579 15.3521 17.2659 16.1561 15.6339 16.1561C14.9979 16.1561 14.5059 16.1081 14.1579 16.0121ZM21.2579 10.2521V13.3601C21.2579 14.2001 21.7379 14.7641 22.4699 14.7641C23.2019 14.7641 23.6939 14.2001 23.6939 13.3601V10.2521H25.1699V13.4681C25.1699 15.0761 24.0899 16.1441 22.4699 16.1441C20.8499 16.1441 19.7939 15.0761 19.7939 13.4681V10.2521H21.2579ZM29.9494 10.0961C31.4614 10.0961 32.7094 11.3321 32.7094 13.1321C32.7094 14.8601 31.5454 16.1561 29.9494 16.1561C29.1694 16.1561 28.5694 15.8081 28.1854 15.2321V16.0001H26.7214V7.74414H28.1854V11.0681C28.5694 10.4801 29.1694 10.0961 29.9494 10.0961ZM29.7214 11.4641C28.8334 11.4641 28.1854 12.2081 28.1854 13.1321C28.1854 14.0561 28.8334 14.7881 29.7214 14.7881C30.5974 14.7881 31.2454 14.0561 31.2454 13.1321C31.2454 12.2081 30.5974 11.4641 29.7214 11.4641ZM35.4158 16.0001H33.9518V10.2521H35.4158V11.1281C35.7158 10.5041 36.2798 10.0961 37.0358 10.0961C37.9118 10.0961 38.5838 10.5281 38.9198 11.2961C39.2198 10.6121 39.7718 10.0961 40.6838 10.0961C42.0158 10.0961 42.8918 10.9841 42.8918 12.5201V16.0001H41.4158V12.7361C41.4158 11.9561 40.9838 11.4641 40.2878 11.4641C39.5918 11.4641 39.1478 11.9561 39.1478 12.7361V16.0001H37.6838V12.7361C37.6838 11.9561 37.2518 11.4641 36.5558 11.4641C35.8598 11.4641 35.4158 11.9561 35.4158 12.7361V16.0001ZM45.1955 9.48414C44.7155 9.48414 44.3435 9.10014 44.3435 8.62014C44.3435 8.15214 44.7155 7.76814 45.1955 7.76814C45.6635 7.76814 46.0595 8.15214 46.0595 8.62014C46.0595 9.10014 45.6635 9.48414 45.1955 9.48414ZM45.9275 16.0001H44.4635V10.2521H45.9275V16.0001ZM46.981 11.5481V10.2521H47.989V8.76414H49.465V10.2521H51.013V11.5481H49.477V13.9961C49.477 14.5361 49.693 14.7881 50.125 14.7881C50.401 14.7881 50.665 14.6681 50.809 14.5001L51.457 15.5921C51.145 15.9041 50.605 16.1561 49.897 16.1561C48.733 16.1561 47.989 15.4361 47.989 14.0321V11.5481H46.981Z" fill="white"/>
</g>
<defs>
<clipPath id="clip0_6330_29502">
<rect width="64" height="24" fill="white"/>
</clipPath>
</defs>
</svg>
