<svg width="287" height="44" viewBox="0 0 287 44" fill="none" xmlns="http://www.w3.org/2000/svg">
<g clip-path="url(#clip0_6330_29663)">
<path d="M0 22C0 9.84974 9.84974 0 22 0H265C277.15 0 287 9.84974 287 22C287 34.1503 277.15 44 265 44H22C9.84973 44 0 34.1503 0 22Z" fill="#794CFF"/>
<path d="M116.957 27.0002V16.7602H120.381C123.757 16.7602 126.173 18.8882 126.173 21.8802C126.173 24.8722 123.789 27.0002 120.445 27.0002H116.957ZM120.365 18.6322H119.021V25.1122H120.381C122.573 25.1122 124.029 23.8322 124.029 21.8802C124.029 19.9122 122.573 18.6322 120.365 18.6322ZM131.524 27.2082C129.14 27.2082 127.412 25.4002 127.412 23.1602C127.412 20.9362 129.06 19.1282 131.268 19.1282C133.46 19.1282 135.14 20.8082 135.14 23.0162C135.14 23.2722 135.124 23.5762 135.092 23.7042H129.412C129.62 24.7602 130.42 25.4962 131.588 25.4962C132.372 25.4962 133.028 25.1602 133.476 24.6962L134.484 26.0402C133.892 26.6962 132.804 27.2082 131.524 27.2082ZM131.3 20.7762C130.372 20.7762 129.7 21.4162 129.46 22.3442H133.124C132.884 21.3202 132.196 20.7762 131.3 20.7762ZM136.017 21.0642V19.3362H137.265V18.8882C137.265 16.9522 138.369 15.7842 140.081 15.7842C141.121 15.7842 141.793 16.0722 142.289 16.5682L141.329 18.0402C141.105 17.8002 140.689 17.6082 140.273 17.6082C139.633 17.6082 139.233 18.0402 139.233 18.8722V19.3362H141.217V21.0642H139.233V27.0002H137.265V21.0642H136.017ZM145.404 27.2082C143.388 27.2082 141.74 25.5602 141.74 23.1602C141.74 20.8562 143.292 19.1282 145.404 19.1282C146.444 19.1282 147.244 19.5922 147.756 20.3442V19.3362H149.708V27.0002H147.756V25.9122C147.244 26.6962 146.444 27.2082 145.404 27.2082ZM145.724 25.3842C146.908 25.3842 147.756 24.3922 147.756 23.1602C147.756 21.9282 146.908 20.9522 145.724 20.9522C144.54 20.9522 143.692 21.9282 143.692 23.1602C143.692 24.3922 144.54 25.3842 145.724 25.3842ZM153.733 19.3362V23.4802C153.733 24.6002 154.373 25.3522 155.349 25.3522C156.325 25.3522 156.981 24.6002 156.981 23.4802V19.3362H158.949V23.6242C158.949 25.7682 157.509 27.1922 155.349 27.1922C153.189 27.1922 151.781 25.7682 151.781 23.6242V19.3362H153.733ZM163.978 25.3042L164.186 27.0162C163.898 27.1122 163.53 27.1762 163.242 27.1762C162.138 27.1762 161.018 26.4722 161.018 24.5202V15.9922H162.97V24.5682C162.97 25.1602 163.306 25.3842 163.658 25.3842C163.754 25.3842 163.882 25.3522 163.978 25.3042ZM165.031 21.0642V19.3362H166.375V17.3522H168.343V19.3362H170.407V21.0642H168.359V24.3282C168.359 25.0482 168.647 25.3842 169.223 25.3842C169.591 25.3842 169.943 25.2242 170.135 25.0002L170.999 26.4562C170.583 26.8722 169.863 27.2082 168.919 27.2082C167.367 27.2082 166.375 26.2482 166.375 24.3762V21.0642H165.031Z" fill="white"/>
</g>
<defs>
<clipPath id="clip0_6330_29663">
<rect width="287" height="44" fill="white"/>
</clipPath>
</defs>
</svg>
