<svg width="312" height="200" viewBox="0 0 312 200" fill="none" xmlns="http://www.w3.org/2000/svg">
<path d="M106.8 106H109.2V98.8H106.8V106ZM108 96.4C108.34 96.4 108.625 96.285 108.855 96.055C109.085 95.825 109.2 95.54 109.2 95.2C109.2 94.86 109.085 94.575 108.855 94.345C108.625 94.115 108.34 94 108 94C107.66 94 107.375 94.115 107.145 94.345C106.915 94.575 106.8 94.86 106.8 95.2C106.8 95.54 106.915 95.825 107.145 96.055C107.375 96.285 107.66 96.4 108 96.4ZM108 112C106.34 112 104.78 111.685 103.32 111.055C101.86 110.425 100.59 109.57 99.51 108.49C98.43 107.41 97.575 106.14 96.945 104.68C96.315 103.22 96 101.66 96 100C96 98.34 96.315 96.78 96.945 95.32C97.575 93.86 98.43 92.59 99.51 91.51C100.59 90.43 101.86 89.575 103.32 88.945C104.78 88.315 106.34 88 108 88C109.66 88 111.22 88.315 112.68 88.945C114.14 89.575 115.41 90.43 116.49 91.51C117.57 92.59 118.425 93.86 119.055 95.32C119.685 96.78 120 98.34 120 100C120 101.66 119.685 103.22 119.055 104.68C118.425 106.14 117.57 107.41 116.49 108.49C115.41 109.57 114.14 110.425 112.68 111.055C111.22 111.685 109.66 112 108 112ZM108 109.6C110.68 109.6 112.95 108.67 114.81 106.81C116.67 104.95 117.6 102.68 117.6 100C117.6 97.32 116.67 95.05 114.81 93.19C112.95 91.33 110.68 90.4 108 90.4C105.32 90.4 103.05 91.33 101.19 93.19C99.33 95.05 98.4 97.32 98.4 100C98.4 102.68 99.33 104.95 101.19 106.81C103.05 108.67 105.32 109.6 108 109.6Z" fill="#794CFF"/>
<rect width="48" height="48" transform="translate(180 76)" fill="#FF0000" fill-opacity="0.25"/>
<path d="M202.8 106H205.2V98.8H202.8V106ZM204 96.4C204.34 96.4 204.625 96.285 204.855 96.055C205.085 95.825 205.2 95.54 205.2 95.2C205.2 94.86 205.085 94.575 204.855 94.345C204.625 94.115 204.34 94 204 94C203.66 94 203.375 94.115 203.145 94.345C202.915 94.575 202.8 94.86 202.8 95.2C202.8 95.54 202.915 95.825 203.145 96.055C203.375 96.285 203.66 96.4 204 96.4ZM204 112C202.34 112 200.78 111.685 199.32 111.055C197.86 110.425 196.59 109.57 195.51 108.49C194.43 107.41 193.575 106.14 192.945 104.68C192.315 103.22 192 101.66 192 100C192 98.34 192.315 96.78 192.945 95.32C193.575 93.86 194.43 92.59 195.51 91.51C196.59 90.43 197.86 89.575 199.32 88.945C200.78 88.315 202.34 88 204 88C205.66 88 207.22 88.315 208.68 88.945C210.14 89.575 211.41 90.43 212.49 91.51C213.57 92.59 214.425 93.86 215.055 95.32C215.685 96.78 216 98.34 216 100C216 101.66 215.685 103.22 215.055 104.68C214.425 106.14 213.57 107.41 212.49 108.49C211.41 109.57 210.14 110.425 208.68 111.055C207.22 111.685 205.66 112 204 112ZM204 109.6C206.68 109.6 208.95 108.67 210.81 106.81C212.67 104.95 213.6 102.68 213.6 100C213.6 97.32 212.67 95.05 210.81 93.19C208.95 91.33 206.68 90.4 204 90.4C201.32 90.4 199.05 91.33 197.19 93.19C195.33 95.05 194.4 97.32 194.4 100C194.4 102.68 195.33 104.95 197.19 106.81C199.05 108.67 201.32 109.6 204 109.6Z" fill="#794CFF"/>
<g clip-path="url(#clip0_4801_35444)" filter="url(#filter0_d_4801_35444)">
<path d="M111.771 115.78C111.491 115.42 111.141 114.69 110.531 113.78C110.181 113.28 109.321 112.33 109.061 111.84C108.873 111.542 108.819 111.18 108.911 110.84C109.068 110.194 109.68 109.766 110.341 109.84C110.852 109.943 111.321 110.193 111.691 110.56C111.949 110.803 112.187 111.067 112.401 111.35C112.561 111.55 112.601 111.63 112.781 111.86C112.961 112.09 113.081 112.32 112.991 111.98C112.921 111.48 112.801 110.64 112.631 109.89C112.501 109.32 112.471 109.23 112.351 108.8C112.231 108.37 112.161 108.01 112.031 107.52C111.912 107.038 111.819 106.551 111.751 106.06C111.625 105.432 111.717 104.779 112.011 104.21C112.36 103.881 112.873 103.795 113.311 103.99C113.751 104.315 114.08 104.77 114.251 105.29C114.513 105.93 114.688 106.603 114.771 107.29C114.931 108.29 115.241 109.75 115.251 110.05C115.251 109.68 115.181 108.9 115.251 108.55C115.32 108.185 115.574 107.882 115.921 107.75C116.219 107.659 116.534 107.638 116.841 107.69C117.151 107.755 117.426 107.933 117.611 108.19C117.843 108.773 117.971 109.393 117.991 110.02C118.018 109.471 118.112 108.926 118.271 108.4C118.438 108.164 118.682 107.995 118.961 107.92C119.291 107.859 119.63 107.859 119.961 107.92C120.232 108.011 120.469 108.181 120.641 108.41C120.853 108.94 120.981 109.5 121.021 110.07C121.021 110.21 121.091 109.68 121.311 109.33C121.425 108.991 121.712 108.738 122.063 108.667C122.414 108.597 122.776 108.718 123.013 108.987C123.25 109.256 123.325 109.631 123.211 109.97C123.211 110.62 123.211 110.59 123.211 111.03C123.211 111.47 123.211 111.86 123.211 112.23C123.174 112.815 123.094 113.397 122.971 113.97C122.797 114.477 122.555 114.958 122.251 115.4C121.765 115.94 121.364 116.55 121.061 117.21C120.986 117.538 120.952 117.874 120.961 118.21C120.96 118.521 121 118.83 121.081 119.13C120.672 119.173 120.26 119.173 119.851 119.13C119.461 119.07 118.981 118.29 118.851 118.05C118.787 117.921 118.655 117.84 118.511 117.84C118.367 117.84 118.235 117.921 118.171 118.05C117.951 118.43 117.461 119.12 117.121 119.16C116.451 119.24 115.071 119.16 113.981 119.16C113.981 119.16 114.161 118.16 113.751 117.8C113.341 117.44 112.921 117.02 112.611 116.74L111.771 115.78Z" fill="white"/>
<path fill-rule="evenodd" clip-rule="evenodd" d="M111.771 115.78C111.491 115.42 111.141 114.69 110.531 113.78C110.181 113.28 109.321 112.33 109.061 111.84C108.873 111.542 108.819 111.18 108.911 110.84C109.068 110.194 109.68 109.766 110.341 109.84C110.852 109.943 111.321 110.193 111.691 110.56C111.949 110.803 112.187 111.067 112.401 111.35C112.561 111.55 112.601 111.63 112.781 111.86C112.961 112.09 113.081 112.32 112.991 111.98C112.921 111.48 112.801 110.64 112.631 109.89C112.501 109.32 112.471 109.23 112.351 108.8C112.231 108.37 112.161 108.01 112.031 107.52C111.912 107.038 111.819 106.551 111.751 106.06C111.625 105.432 111.717 104.779 112.011 104.21C112.36 103.881 112.873 103.795 113.311 103.99C113.751 104.315 114.08 104.77 114.251 105.29C114.513 105.93 114.688 106.603 114.771 107.29C114.931 108.29 115.241 109.75 115.251 110.05C115.251 109.68 115.181 108.9 115.251 108.55C115.32 108.185 115.574 107.882 115.921 107.75C116.219 107.659 116.534 107.638 116.841 107.69C117.151 107.755 117.426 107.933 117.611 108.19C117.843 108.773 117.971 109.393 117.991 110.02C118.018 109.471 118.112 108.926 118.271 108.4C118.438 108.164 118.682 107.995 118.961 107.92C119.291 107.859 119.63 107.859 119.961 107.92C120.232 108.011 120.469 108.181 120.641 108.41C120.853 108.94 120.981 109.5 121.021 110.07C121.021 110.21 121.091 109.68 121.311 109.33C121.425 108.991 121.712 108.738 122.063 108.667C122.414 108.597 122.776 108.718 123.013 108.987C123.25 109.256 123.325 109.631 123.211 109.97C123.211 110.62 123.211 110.59 123.211 111.03C123.211 111.47 123.211 111.86 123.211 112.23C123.174 112.815 123.094 113.397 122.971 113.97C122.797 114.477 122.555 114.958 122.251 115.4C121.765 115.94 121.364 116.55 121.061 117.21C120.986 117.538 120.952 117.874 120.961 118.21C120.96 118.521 121 118.83 121.081 119.13C120.672 119.173 120.26 119.173 119.851 119.13C119.461 119.07 118.981 118.29 118.851 118.05C118.787 117.921 118.655 117.84 118.511 117.84C118.367 117.84 118.235 117.921 118.171 118.05C117.951 118.43 117.461 119.12 117.121 119.16C116.451 119.24 115.071 119.16 113.981 119.16C113.981 119.16 114.161 118.16 113.751 117.8C113.341 117.44 112.921 117.02 112.611 116.74L111.771 115.78Z" stroke="#0F0F0F" stroke-width="0.75" stroke-linecap="round" stroke-linejoin="round"/>
<path d="M120.25 116.326V112.874C120.25 112.667 120.082 112.5 119.875 112.5C119.668 112.5 119.5 112.667 119.5 112.874V116.326C119.5 116.533 119.668 116.7 119.875 116.7C120.082 116.7 120.25 116.533 120.25 116.326Z" fill="#0F0F0F"/>
<path d="M118.27 116.325L118.25 112.871C118.249 112.665 118.08 112.499 117.873 112.5C117.666 112.501 117.499 112.669 117.5 112.875L117.52 116.329C117.521 116.535 117.69 116.701 117.897 116.7C118.104 116.699 118.271 116.531 118.27 116.325Z" fill="#0F0F0F"/>
<path d="M115.5 112.879L115.52 116.325C115.521 116.533 115.69 116.701 115.897 116.7C116.104 116.699 116.271 116.529 116.27 116.321L116.25 112.875C116.249 112.667 116.08 112.499 115.873 112.5C115.666 112.501 115.499 112.671 115.5 112.879Z" fill="#0F0F0F"/>
</g>
<g clip-path="url(#clip1_4801_35444)" filter="url(#filter1_d_4801_35444)">
<path d="M210.771 128.78C210.491 128.42 210.141 127.69 209.531 126.78C209.181 126.28 208.321 125.33 208.061 124.84C207.873 124.542 207.819 124.18 207.911 123.84C208.068 123.194 208.68 122.766 209.341 122.84C209.852 122.943 210.321 123.193 210.691 123.56C210.949 123.803 211.187 124.067 211.401 124.35C211.561 124.55 211.601 124.63 211.781 124.86C211.961 125.09 212.081 125.32 211.991 124.98C211.921 124.48 211.801 123.64 211.631 122.89C211.501 122.32 211.471 122.23 211.351 121.8C211.231 121.37 211.161 121.01 211.031 120.52C210.912 120.038 210.819 119.551 210.751 119.06C210.625 118.432 210.717 117.779 211.011 117.21C211.36 116.881 211.873 116.795 212.311 116.99C212.751 117.315 213.08 117.77 213.251 118.29C213.513 118.93 213.688 119.603 213.771 120.29C213.931 121.29 214.241 122.75 214.251 123.05C214.251 122.68 214.181 121.9 214.251 121.55C214.32 121.185 214.574 120.882 214.921 120.75C215.219 120.659 215.534 120.638 215.841 120.69C216.151 120.755 216.426 120.933 216.611 121.19C216.843 121.773 216.971 122.393 216.991 123.02C217.018 122.471 217.112 121.926 217.271 121.4C217.438 121.164 217.682 120.995 217.961 120.92C218.291 120.859 218.63 120.859 218.961 120.92C219.232 121.011 219.469 121.181 219.641 121.41C219.853 121.94 219.981 122.5 220.021 123.07C220.021 123.21 220.091 122.68 220.311 122.33C220.425 121.991 220.712 121.738 221.063 121.667C221.414 121.597 221.776 121.718 222.013 121.987C222.25 122.256 222.325 122.631 222.211 122.97C222.211 123.62 222.211 123.59 222.211 124.03C222.211 124.47 222.211 124.86 222.211 125.23C222.174 125.815 222.094 126.397 221.971 126.97C221.797 127.477 221.555 127.958 221.251 128.4C220.765 128.94 220.364 129.55 220.061 130.21C219.986 130.538 219.952 130.874 219.961 131.21C219.96 131.521 220 131.83 220.081 132.13C219.672 132.173 219.26 132.173 218.851 132.13C218.461 132.07 217.981 131.29 217.851 131.05C217.787 130.921 217.655 130.84 217.511 130.84C217.367 130.84 217.235 130.921 217.171 131.05C216.951 131.43 216.461 132.12 216.121 132.16C215.451 132.24 214.071 132.16 212.981 132.16C212.981 132.16 213.161 131.16 212.751 130.8C212.341 130.44 211.921 130.02 211.611 129.74L210.771 128.78Z" fill="white"/>
<path fill-rule="evenodd" clip-rule="evenodd" d="M210.771 128.78C210.491 128.42 210.141 127.69 209.531 126.78C209.181 126.28 208.321 125.33 208.061 124.84C207.873 124.542 207.819 124.18 207.911 123.84C208.068 123.194 208.68 122.766 209.341 122.84C209.852 122.943 210.321 123.193 210.691 123.56C210.949 123.803 211.187 124.067 211.401 124.35C211.561 124.55 211.601 124.63 211.781 124.86C211.961 125.09 212.081 125.32 211.991 124.98C211.921 124.48 211.801 123.64 211.631 122.89C211.501 122.32 211.471 122.23 211.351 121.8C211.231 121.37 211.161 121.01 211.031 120.52C210.912 120.038 210.819 119.551 210.751 119.06C210.625 118.432 210.717 117.779 211.011 117.21C211.36 116.881 211.873 116.795 212.311 116.99C212.751 117.315 213.08 117.77 213.251 118.29C213.513 118.93 213.688 119.603 213.771 120.29C213.931 121.29 214.241 122.75 214.251 123.05C214.251 122.68 214.181 121.9 214.251 121.55C214.32 121.185 214.574 120.882 214.921 120.75C215.219 120.659 215.534 120.638 215.841 120.69C216.151 120.755 216.426 120.933 216.611 121.19C216.843 121.773 216.971 122.393 216.991 123.02C217.018 122.471 217.112 121.926 217.271 121.4C217.438 121.164 217.682 120.995 217.961 120.92C218.291 120.859 218.63 120.859 218.961 120.92C219.232 121.011 219.469 121.181 219.641 121.41C219.853 121.94 219.981 122.5 220.021 123.07C220.021 123.21 220.091 122.68 220.311 122.33C220.425 121.991 220.712 121.738 221.063 121.667C221.414 121.597 221.776 121.718 222.013 121.987C222.25 122.256 222.325 122.631 222.211 122.97C222.211 123.62 222.211 123.59 222.211 124.03C222.211 124.47 222.211 124.86 222.211 125.23C222.174 125.815 222.094 126.397 221.971 126.97C221.797 127.477 221.555 127.958 221.251 128.4C220.765 128.94 220.364 129.55 220.061 130.21C219.986 130.538 219.952 130.874 219.961 131.21C219.96 131.521 220 131.83 220.081 132.13C219.672 132.173 219.26 132.173 218.851 132.13C218.461 132.07 217.981 131.29 217.851 131.05C217.787 130.921 217.655 130.84 217.511 130.84C217.367 130.84 217.235 130.921 217.171 131.05C216.951 131.43 216.461 132.12 216.121 132.16C215.451 132.24 214.071 132.16 212.981 132.16C212.981 132.16 213.161 131.16 212.751 130.8C212.341 130.44 211.921 130.02 211.611 129.74L210.771 128.78Z" stroke="#0F0F0F" stroke-width="0.75" stroke-linecap="round" stroke-linejoin="round"/>
<path d="M219.25 129.326V125.874C219.25 125.667 219.082 125.5 218.875 125.5C218.668 125.5 218.5 125.667 218.5 125.874V129.326C218.5 129.533 218.668 129.7 218.875 129.7C219.082 129.7 219.25 129.533 219.25 129.326Z" fill="#0F0F0F"/>
<path d="M217.27 129.325L217.25 125.871C217.249 125.665 217.08 125.499 216.873 125.5C216.666 125.501 216.499 125.669 216.5 125.875L216.52 129.329C216.521 129.535 216.69 129.701 216.897 129.7C217.104 129.699 217.271 129.531 217.27 129.325Z" fill="#0F0F0F"/>
<path d="M214.5 125.879L214.52 129.325C214.521 129.533 214.69 129.701 214.897 129.7C215.104 129.699 215.271 129.529 215.27 129.321L215.25 125.875C215.249 125.667 215.08 125.499 214.873 125.5C214.666 125.501 214.499 125.671 214.5 125.879Z" fill="#0F0F0F"/>
</g>
<defs>
<filter id="filter0_d_4801_35444" x="105.7" y="102.7" width="20.6" height="20.6" filterUnits="userSpaceOnUse" color-interpolation-filters="sRGB">
<feFlood flood-opacity="0" result="BackgroundImageFix"/>
<feColorMatrix in="SourceAlpha" type="matrix" values="0 0 0 0 0 0 0 0 0 0 0 0 0 0 0 0 0 0 127 0" result="hardAlpha"/>
<feOffset dy="1"/>
<feGaussianBlur stdDeviation="0.9"/>
<feColorMatrix type="matrix" values="0 0 0 0 0 0 0 0 0 0 0 0 0 0 0 0 0 0 0.65 0"/>
<feBlend mode="normal" in2="BackgroundImageFix" result="effect1_dropShadow_4801_35444"/>
<feBlend mode="normal" in="SourceGraphic" in2="effect1_dropShadow_4801_35444" result="shape"/>
</filter>
<filter id="filter1_d_4801_35444" x="204.7" y="115.7" width="20.6" height="20.6" filterUnits="userSpaceOnUse" color-interpolation-filters="sRGB">
<feFlood flood-opacity="0" result="BackgroundImageFix"/>
<feColorMatrix in="SourceAlpha" type="matrix" values="0 0 0 0 0 0 0 0 0 0 0 0 0 0 0 0 0 0 127 0" result="hardAlpha"/>
<feOffset dy="1"/>
<feGaussianBlur stdDeviation="0.9"/>
<feColorMatrix type="matrix" values="0 0 0 0 0 0 0 0 0 0 0 0 0 0 0 0 0 0 0.65 0"/>
<feBlend mode="normal" in2="BackgroundImageFix" result="effect1_dropShadow_4801_35444"/>
<feBlend mode="normal" in="SourceGraphic" in2="effect1_dropShadow_4801_35444" result="shape"/>
</filter>
<clipPath id="clip0_4801_35444">
<rect width="17" height="17" fill="white" transform="translate(107.5 103.5)"/>
</clipPath>
<clipPath id="clip1_4801_35444">
<rect width="17" height="17" fill="white" transform="translate(206.5 116.5)"/>
</clipPath>
</defs>
</svg>
