<svg width="264" height="44" viewBox="0 0 264 44" fill="none" xmlns="http://www.w3.org/2000/svg">
<path d="M118.892 20.8239V17.2439H119.892V26.4999H118.892V22.6959V22.1959H118.392H113.496H112.996V22.6959V26.4999H111.996V17.2439H112.996V20.8239V21.3239H113.496H118.392H118.892V20.8239ZM135.137 25.4148L137.007 19.8359H137.935L135.528 26.4999H134.774L135.137 25.4148ZM134.547 26.4999H133.686L131.279 19.8359H132.349L134.188 25.4125L134.547 26.4999ZM143.252 25.9959C143.954 25.9959 144.57 25.769 145.059 25.4217L145.479 25.9805C144.951 26.3923 144.141 26.7079 143.188 26.7079C141.082 26.7079 139.576 25.125 139.576 23.1599C139.576 21.1837 141.028 19.6279 142.932 19.6279C144.847 19.6279 146.304 21.0827 146.304 23.0159C146.304 23.0771 146.303 23.141 146.301 23.2039H141.076H140.468L140.586 23.8005C140.837 25.0772 141.832 25.9959 143.252 25.9959ZM140.64 22.2187L140.478 22.8439H141.124H144.788H145.419L145.275 22.2298C145.135 21.6332 144.855 21.139 144.444 20.7932C144.031 20.4457 143.517 20.2759 142.964 20.2759C141.758 20.2759 140.923 21.1228 140.64 22.2187ZM152.787 19.7102L152.378 20.6494C152.133 20.5633 151.866 20.5159 151.601 20.5159C151.059 20.5159 150.593 20.7542 150.275 21.1709C149.967 21.5752 149.821 22.1157 149.821 22.7119V26.4999H148.869V19.8359H149.821V20.4719L150.777 20.6775C151.085 19.9946 151.588 19.6279 152.209 19.6279C152.442 19.6279 152.633 19.6592 152.787 19.7102ZM126.139 26.7079C124.199 26.7079 122.655 25.133 122.655 23.1599C122.655 21.2041 124.198 19.6279 126.139 19.6279C128.079 19.6279 129.623 21.2042 129.623 23.1599C129.623 25.1329 128.078 26.7079 126.139 26.7079ZM126.139 25.8839C127.65 25.8839 128.671 24.6147 128.671 23.1599C128.671 21.7001 127.645 20.4519 126.139 20.4519C124.633 20.4519 123.607 21.7001 123.607 23.1599C123.607 24.6147 124.628 25.8839 126.139 25.8839Z" fill="#733AC4" stroke="#733AC4"/>
<mask id="path-2-inside-1_6330_29693" fill="white">
<path d="M110.328 29H153.665V29.8H110.328V29Z"/>
</mask>
<path d="M110.328 29H153.665V29.8H110.328V29Z" fill="#733AC4"/>
<path d="M110.328 29V28H109.328V29H110.328ZM153.665 29H154.665V28H153.665V29ZM153.665 29.8V30.8H154.665V29.8H153.665ZM110.328 29.8H109.328V30.8H110.328V29.8ZM110.328 30H153.665V28H110.328V30ZM152.665 29V29.8H154.665V29H152.665ZM153.665 28.8H110.328V30.8H153.665V28.8ZM111.328 29.8V29H109.328V29.8H111.328Z" fill="#733AC4" mask="url(#path-2-inside-1_6330_29693)"/>
</svg>
