<svg width="648" height="124" viewBox="0 0 648 124" fill="none" xmlns="http://www.w3.org/2000/svg">
<rect x="237" y="40" width="174" height="44" rx="22" fill="#794CFF"/>
<path fill-rule="evenodd" clip-rule="evenodd" d="M264 55.5714V68.4286C264 69.8429 264.9 71 266 71H280C281.1 71 282 69.8429 282 68.4286V55.5714C282 54.1571 281.1 53 280 53H266C264.9 53 264 54.1571 264 55.5714Z" fill="white"/>
<path d="M294.231 67V56.76H298.359C300.279 56.76 301.735 57.928 301.735 59.592C301.735 60.792 300.903 61.448 300.215 61.736C301.223 62.04 302.023 62.84 302.023 64.12C302.023 65.656 300.823 67 298.599 67H294.231ZM298.167 58.52H296.231V60.984H298.167C299.047 60.984 299.655 60.472 299.655 59.752C299.655 59.032 299.031 58.52 298.167 58.52ZM298.391 62.632H296.231V65.224H298.391C299.287 65.224 299.943 64.68 299.943 63.928C299.943 63.176 299.287 62.632 298.391 62.632ZM305.46 59.336V63.48C305.46 64.6 306.1 65.352 307.076 65.352C308.052 65.352 308.708 64.6 308.708 63.48V59.336H310.676V63.624C310.676 65.768 309.236 67.192 307.076 67.192C304.916 67.192 303.508 65.768 303.508 63.624V59.336H305.46ZM311.96 61.064V59.336H313.304V57.352H315.272V59.336H317.336V61.064H315.288V64.328C315.288 65.048 315.576 65.384 316.152 65.384C316.52 65.384 316.872 65.224 317.064 65L317.928 66.456C317.512 66.872 316.792 67.208 315.848 67.208C314.296 67.208 313.304 66.248 313.304 64.376V61.064H311.96ZM318.445 61.064V59.336H319.789V57.352H321.757V59.336H323.821V61.064H321.773V64.328C321.773 65.048 322.061 65.384 322.637 65.384C323.005 65.384 323.357 65.224 323.549 65L324.413 66.456C323.997 66.872 323.277 67.208 322.333 67.208C320.781 67.208 319.789 66.248 319.789 64.376V61.064H318.445ZM328.826 67.208C326.602 67.208 324.842 65.4 324.842 63.16C324.842 60.936 326.602 59.128 328.826 59.128C331.05 59.128 332.81 60.936 332.81 63.16C332.81 65.4 331.05 67.208 328.826 67.208ZM328.826 65.384C330.01 65.384 330.858 64.392 330.858 63.16C330.858 61.928 330.01 60.952 328.826 60.952C327.642 60.952 326.794 61.928 326.794 63.16C326.794 64.392 327.642 65.384 328.826 65.384ZM334.494 67V59.336H336.446V60.424C336.846 59.608 337.614 59.128 338.622 59.128C340.382 59.128 341.518 60.36 341.518 62.36V67H339.566V62.648C339.566 61.608 338.974 60.952 338.014 60.952C337.054 60.952 336.446 61.608 336.446 62.648V67H334.494ZM347.137 67V56.744H349.137V65.112H354.145V67H347.137ZM358.319 67.208C356.303 67.208 354.655 65.56 354.655 63.16C354.655 60.856 356.207 59.128 358.319 59.128C359.359 59.128 360.159 59.592 360.671 60.344V59.336H362.623V67H360.671V65.912C360.159 66.696 359.359 67.208 358.319 67.208ZM358.639 65.384C359.823 65.384 360.671 64.392 360.671 63.16C360.671 61.928 359.823 60.952 358.639 60.952C357.455 60.952 356.607 61.928 356.607 63.16C356.607 64.392 357.455 65.384 358.639 65.384ZM369.095 59.128C371.111 59.128 372.775 60.776 372.775 63.176C372.775 65.48 371.223 67.208 369.095 67.208C368.055 67.208 367.255 66.744 366.743 65.976V67H364.791V55.992H366.743V60.424C367.255 59.64 368.055 59.128 369.095 59.128ZM368.791 60.952C367.607 60.952 366.743 61.944 366.743 63.176C366.743 64.408 367.607 65.384 368.791 65.384C369.959 65.384 370.823 64.408 370.823 63.176C370.823 61.944 369.959 60.952 368.791 60.952ZM378.048 67.208C375.664 67.208 373.936 65.4 373.936 63.16C373.936 60.936 375.584 59.128 377.792 59.128C379.984 59.128 381.664 60.808 381.664 63.016C381.664 63.272 381.648 63.576 381.616 63.704H375.936C376.144 64.76 376.944 65.496 378.112 65.496C378.896 65.496 379.552 65.16 380 64.696L381.008 66.04C380.416 66.696 379.328 67.208 378.048 67.208ZM377.824 60.776C376.896 60.776 376.224 61.416 375.984 62.344H379.648C379.408 61.32 378.72 60.776 377.824 60.776ZM386.189 65.304L386.397 67.016C386.109 67.112 385.741 67.176 385.453 67.176C384.349 67.176 383.229 66.472 383.229 64.52V55.992H385.181V64.568C385.181 65.16 385.517 65.384 385.869 65.384C385.965 65.384 386.093 65.352 386.189 65.304Z" fill="white"/>
<rect x="325.5" y="73" width="30" height="2" transform="rotate(90 325.5 73)" fill="#F7D055"/>
<rect x="176" y="50" width="24" height="24" rx="12" fill="#F7D055"/>
<path d="M189.683 56.8182V67H187.838V58.6129H187.779L185.397 60.1342V58.4439L187.928 56.8182H189.683Z" fill="black"/>
<rect x="312" y="88" width="24" height="24" rx="12" fill="#F7D055"/>
<path d="M320.557 105V103.668L324.092 100.202C324.43 99.861 324.712 99.5578 324.937 99.2926C325.163 99.0275 325.332 98.7706 325.444 98.522C325.557 98.2734 325.613 98.0083 325.613 97.7266C325.613 97.4051 325.54 97.13 325.395 96.9013C325.249 96.6693 325.048 96.4903 324.793 96.3643C324.538 96.2384 324.248 96.1754 323.923 96.1754C323.588 96.1754 323.295 96.245 323.043 96.3842C322.791 96.5201 322.596 96.714 322.456 96.9659C322.32 97.2178 322.252 97.5178 322.252 97.8658H320.498C320.498 97.2195 320.645 96.6577 320.94 96.1804C321.235 95.7031 321.641 95.3336 322.158 95.0717C322.678 94.8099 323.275 94.679 323.948 94.679C324.631 94.679 325.23 94.8066 325.748 95.0618C326.265 95.317 326.666 95.6667 326.951 96.1108C327.239 96.5549 327.383 97.062 327.383 97.6321C327.383 98.0133 327.31 98.3878 327.164 98.7557C327.019 99.1236 326.762 99.5312 326.394 99.9787C326.029 100.426 325.517 100.968 324.858 101.604L323.103 103.389V103.459H327.537V105H320.557Z" fill="black"/>
<rect x="447" y="50" width="24" height="24" rx="12" fill="#F7D055"/>
<path d="M458.999 67.1392C458.283 67.1392 457.647 67.0166 457.09 66.7713C456.537 66.526 456.099 66.1847 455.778 65.7472C455.456 65.3097 455.286 64.8042 455.266 64.2308H457.135C457.152 64.5059 457.243 64.7462 457.408 64.9517C457.574 65.1539 457.795 65.3113 458.07 65.424C458.345 65.5367 458.653 65.593 458.994 65.593C459.359 65.593 459.682 65.5301 459.964 65.4041C460.246 65.2749 460.466 65.0959 460.625 64.8672C460.784 64.6385 460.862 64.375 460.859 64.0767C460.862 63.7685 460.783 63.4967 460.62 63.2614C460.458 63.026 460.222 62.8421 459.914 62.7095C459.609 62.5769 459.241 62.5107 458.81 62.5107H457.911V61.0888H458.81C459.165 61.0888 459.475 61.0275 459.74 60.9048C460.009 60.7822 460.219 60.6098 460.372 60.3878C460.524 60.1624 460.599 59.9022 460.595 59.6072C460.599 59.3189 460.534 59.0687 460.401 58.8565C460.272 58.6411 460.088 58.4737 459.85 58.3544C459.614 58.2351 459.337 58.1754 459.019 58.1754C458.708 58.1754 458.419 58.2318 458.154 58.3445C457.889 58.4571 457.675 58.6179 457.513 58.8267C457.35 59.0322 457.264 59.2775 457.254 59.5625H455.479C455.493 58.9924 455.657 58.492 455.972 58.0611C456.29 57.6269 456.714 57.2888 457.244 57.0469C457.775 56.8016 458.37 56.679 459.029 56.679C459.709 56.679 460.299 56.8066 460.799 57.0618C461.303 57.3137 461.692 57.6534 461.967 58.081C462.243 58.5085 462.38 58.9808 462.38 59.4979C462.383 60.0713 462.214 60.5518 461.873 60.9396C461.535 61.3274 461.091 61.581 460.541 61.7003V61.7798C461.256 61.8793 461.805 62.1444 462.186 62.5753C462.571 63.0028 462.761 63.5348 462.758 64.1712C462.758 64.7412 462.595 65.2517 462.271 65.7024C461.949 66.1499 461.505 66.5012 460.938 66.7564C460.375 67.0116 459.729 67.1392 458.999 67.1392Z" fill="black"/>
<rect x="198" y="61" width="62" height="2" fill="#F7D055"/>
<circle cx="263" cy="62" r="5" fill="#F7D055"/>
<circle cx="411" cy="62" r="5" fill="#F7D055"/>
<circle cx="324" cy="69" r="5" fill="#F7D055"/>
<rect x="411" y="61" width="37" height="2" fill="#F7D055"/>
</svg>
