<svg width="102" height="56" viewBox="0 0 102 56" fill="none" xmlns="http://www.w3.org/2000/svg">
<g clip-path="url(#clip0_6330_29653)">
<path d="M28 1H74C88.9117 1 101 13.0883 101 28C101 42.9117 88.9117 55 74 55H28C13.0883 55 1 42.9117 1 28C1 13.0883 13.0883 1 28 1Z" stroke="#733AC4" stroke-width="2"/>
<path d="M6 28C6 15.8497 15.8497 6 28 6H74C86.1503 6 96 15.8497 96 28C96 40.1503 86.1503 50 74 50H28C15.8497 50 6 40.1503 6 28Z" fill="#733AC4"/>
<path d="M31.6367 32.9998V22.7598H38.1327V24.6318H33.6367V27.1118H37.4927V28.9998H33.6367V32.9998H31.6367ZM42.7478 33.2078C40.5238 33.2078 38.7638 31.3998 38.7638 29.1598C38.7638 26.9358 40.5238 25.1278 42.7478 25.1278C44.9718 25.1278 46.7318 26.9358 46.7318 29.1598C46.7318 31.3998 44.9718 33.2078 42.7478 33.2078ZM42.7478 31.3838C43.9318 31.3838 44.7798 30.3918 44.7798 29.1598C44.7798 27.9278 43.9318 26.9518 42.7478 26.9518C41.5638 26.9518 40.7158 27.9278 40.7158 29.1598C40.7158 30.3918 41.5638 31.3838 42.7478 31.3838ZM53.824 27.6558C53.328 27.1918 52.768 26.9518 52 26.9518C50.72 26.9518 49.872 27.9278 49.872 29.1598C49.872 30.3918 50.736 31.3838 52 31.3838C52.768 31.3838 53.392 31.1118 53.888 30.6318L54.88 32.0718C54.272 32.7438 53.152 33.2078 51.952 33.2078C49.664 33.2078 47.92 31.3998 47.92 29.1598C47.92 26.9358 49.68 25.1278 51.92 25.1278C53.216 25.1278 54.256 25.5598 54.944 26.2638L53.824 27.6558ZM58.0845 25.3358V29.4798C58.0845 30.5998 58.7245 31.3518 59.7005 31.3518C60.6765 31.3518 61.3325 30.5998 61.3325 29.4798V25.3358H63.3005V29.6238C63.3005 31.7678 61.8605 33.1918 59.7005 33.1918C57.5405 33.1918 56.1325 31.7678 56.1325 29.6238V25.3358H58.0845ZM67.7212 33.2078C66.4892 33.2078 65.4812 32.8878 64.7292 32.4718L65.3532 30.9678C66.2332 31.3838 66.9692 31.6078 67.8172 31.6078C68.6812 31.6078 69.0812 31.3038 69.0812 30.8558C69.0812 29.4798 64.9532 30.2958 64.9532 27.3998C64.9532 26.2478 65.9772 25.1278 67.9452 25.1278C69.0172 25.1278 69.8332 25.3518 70.8092 25.8158L70.0892 27.2718C69.5452 26.9678 68.7292 26.7278 68.1052 26.7278C67.3692 26.7278 66.9212 26.9678 66.9212 27.3838C66.9212 28.7918 71.0172 27.9118 71.0172 30.8238C71.0172 32.1518 69.8332 33.2078 67.7212 33.2078Z" fill="white"/>
</g>
<defs>
<clipPath id="clip0_6330_29653">
<rect width="102" height="56" fill="white"/>
</clipPath>
</defs>
</svg>
