<svg width="275" height="44" viewBox="0 0 275 44" fill="none" xmlns="http://www.w3.org/2000/svg">
<g clip-path="url(#clip0_6330_29669)">
<path d="M0 22C0 9.84974 9.84974 0 22 0H253C265.15 0 275 9.84974 275 22C275 34.1503 265.15 44 253 44H22C9.84973 44 0 34.1503 0 22Z" fill="#733AC4"/>
<path d="M118.137 26.9998V16.7598H124.633V18.6318H120.137V21.1118H123.993V22.9998H120.137V26.9998H118.137ZM129.248 27.2078C127.024 27.2078 125.264 25.3998 125.264 23.1598C125.264 20.9358 127.024 19.1278 129.248 19.1278C131.472 19.1278 133.232 20.9358 133.232 23.1598C133.232 25.3998 131.472 27.2078 129.248 27.2078ZM129.248 25.3838C130.432 25.3838 131.28 24.3918 131.28 23.1598C131.28 21.9278 130.432 20.9518 129.248 20.9518C128.064 20.9518 127.216 21.9278 127.216 23.1598C127.216 24.3918 128.064 25.3838 129.248 25.3838ZM140.324 21.6558C139.828 21.1918 139.268 20.9518 138.5 20.9518C137.22 20.9518 136.372 21.9278 136.372 23.1598C136.372 24.3918 137.236 25.3838 138.5 25.3838C139.268 25.3838 139.892 25.1118 140.388 24.6318L141.38 26.0718C140.772 26.7438 139.652 27.2078 138.452 27.2078C136.164 27.2078 134.42 25.3998 134.42 23.1598C134.42 20.9358 136.18 19.1278 138.42 19.1278C139.716 19.1278 140.756 19.5598 141.444 20.2638L140.324 21.6558ZM144.585 19.3358V23.4798C144.585 24.5998 145.225 25.3518 146.201 25.3518C147.177 25.3518 147.833 24.5998 147.833 23.4798V19.3358H149.801V23.6238C149.801 25.7678 148.361 27.1918 146.201 27.1918C144.041 27.1918 142.633 25.7678 142.633 23.6238V19.3358H144.585ZM154.221 27.2078C152.989 27.2078 151.981 26.8878 151.229 26.4718L151.853 24.9678C152.733 25.3838 153.469 25.6078 154.317 25.6078C155.181 25.6078 155.581 25.3038 155.581 24.8558C155.581 23.4798 151.453 24.2958 151.453 21.3998C151.453 20.2478 152.477 19.1278 154.445 19.1278C155.517 19.1278 156.333 19.3518 157.309 19.8158L156.589 21.2718C156.045 20.9678 155.229 20.7278 154.605 20.7278C153.869 20.7278 153.421 20.9678 153.421 21.3838C153.421 22.7918 157.517 21.9118 157.517 24.8238C157.517 26.1518 156.333 27.2078 154.221 27.2078Z" fill="white"/>
</g>
<defs>
<clipPath id="clip0_6330_29669">
<rect width="275" height="44" fill="white"/>
</clipPath>
</defs>
</svg>
