<svg width="287" height="44" viewBox="0 0 287 44" fill="none" xmlns="http://www.w3.org/2000/svg">
<g clip-path="url(#clip0_6330_29672)">
<path d="M0 22C0 9.84974 9.84974 0 22 0H265C277.15 0 287 9.84974 287 22C287 34.1503 277.15 44 265 44H22C9.84973 44 0 34.1503 0 22Z" fill="#400791"/>
<path d="M125.457 27.0001V16.7441H129.121C131.601 16.7441 133.233 18.0881 133.233 20.1361C133.233 22.2001 131.585 23.5601 129.089 23.5601H127.457V27.0001H125.457ZM129.281 18.5201H127.457V21.7841H129.281C130.385 21.7841 131.121 21.1281 131.121 20.1361C131.121 19.1601 130.385 18.5201 129.281 18.5201ZM134.799 27.0001V19.3361H136.751V20.4721C137.119 19.6561 137.775 19.1281 138.639 19.1281C139.151 19.1281 139.567 19.2561 139.855 19.4961L139.055 21.3361C138.799 21.1441 138.415 21.0161 138.031 21.0161C137.263 21.0161 136.751 21.6721 136.751 22.7121V27.0001H134.799ZM144.165 27.2081C141.781 27.2081 140.053 25.4001 140.053 23.1601C140.053 20.9361 141.701 19.1281 143.909 19.1281C146.101 19.1281 147.781 20.8081 147.781 23.0161C147.781 23.2721 147.765 23.5761 147.733 23.7041H142.053C142.261 24.7601 143.061 25.4961 144.229 25.4961C145.013 25.4961 145.669 25.1601 146.117 24.6961L147.125 26.0401C146.533 26.6961 145.445 27.2081 144.165 27.2081ZM143.941 20.7761C143.013 20.7761 142.341 21.4161 142.101 22.3441H145.765C145.525 21.3201 144.837 20.7761 143.941 20.7761ZM151.651 27.2081C150.419 27.2081 149.411 26.8881 148.659 26.4721L149.283 24.9681C150.163 25.3841 150.899 25.6081 151.747 25.6081C152.611 25.6081 153.011 25.3041 153.011 24.8561C153.011 23.4801 148.883 24.2961 148.883 21.4001C148.883 20.2481 149.907 19.1281 151.875 19.1281C152.947 19.1281 153.763 19.3521 154.739 19.8161L154.019 21.2721C153.475 20.9681 152.659 20.7281 152.035 20.7281C151.299 20.7281 150.851 20.9681 150.851 21.3841C150.851 22.7921 154.947 21.9121 154.947 24.8241C154.947 26.1521 153.763 27.2081 151.651 27.2081ZM158.901 27.2081C157.669 27.2081 156.661 26.8881 155.909 26.4721L156.533 24.9681C157.413 25.3841 158.149 25.6081 158.997 25.6081C159.861 25.6081 160.261 25.3041 160.261 24.8561C160.261 23.4801 156.133 24.2961 156.133 21.4001C156.133 20.2481 157.157 19.1281 159.125 19.1281C160.197 19.1281 161.013 19.3521 161.989 19.8161L161.269 21.2721C160.725 20.9681 159.909 20.7281 159.285 20.7281C158.549 20.7281 158.101 20.9681 158.101 21.3841C158.101 22.7921 162.197 21.9121 162.197 24.8241C162.197 26.1521 161.013 27.2081 158.901 27.2081Z" fill="white"/>
</g>
<defs>
<clipPath id="clip0_6330_29672">
<rect width="287" height="44" fill="white"/>
</clipPath>
</defs>
</svg>
