<svg width="312" height="92" viewBox="0 0 312 92" fill="none" xmlns="http://www.w3.org/2000/svg">
<path d="M24 46C24 33.8497 33.8497 24 46 24H266C278.15 24 288 33.8497 288 46C288 58.1503 278.15 68 266 68H46C33.8497 68 24 58.1503 24 46Z" fill="#794CFF"/>
<path fill-rule="evenodd" clip-rule="evenodd" d="M51 39.5714V52.4286C51 53.8429 51.9 55 53 55H67C68.1 55 69 53.8429 69 52.4286V39.5714C69 38.1571 68.1 37 67 37H53C51.9 37 51 38.1571 51 39.5714Z" fill="white"/>
<path d="M81.2305 51V40.76H85.3585C87.2785 40.76 88.7345 41.928 88.7345 43.592C88.7345 44.792 87.9025 45.448 87.2145 45.736C88.2225 46.04 89.0225 46.84 89.0225 48.12C89.0225 49.656 87.8225 51 85.5985 51H81.2305ZM85.1665 42.52H83.2305V44.984H85.1665C86.0465 44.984 86.6545 44.472 86.6545 43.752C86.6545 43.032 86.0305 42.52 85.1665 42.52ZM85.3905 46.632H83.2305V49.224H85.3905C86.2865 49.224 86.9425 48.68 86.9425 47.928C86.9425 47.176 86.2865 46.632 85.3905 46.632ZM92.4596 43.336V47.48C92.4596 48.6 93.0996 49.352 94.0756 49.352C95.0516 49.352 95.7076 48.6 95.7076 47.48V43.336H97.6756V47.624C97.6756 49.768 96.2356 51.192 94.0756 51.192C91.9156 51.192 90.5076 49.768 90.5076 47.624V43.336H92.4596ZM98.9603 45.064V43.336H100.304V41.352H102.272V43.336H104.336V45.064H102.288V48.328C102.288 49.048 102.576 49.384 103.152 49.384C103.52 49.384 103.872 49.224 104.064 49L104.928 50.456C104.512 50.872 103.792 51.208 102.848 51.208C101.296 51.208 100.304 50.248 100.304 48.376V45.064H98.9603ZM105.445 45.064V43.336H106.789V41.352H108.757V43.336H110.821V45.064H108.773V48.328C108.773 49.048 109.061 49.384 109.637 49.384C110.005 49.384 110.357 49.224 110.549 49L111.413 50.456C110.997 50.872 110.277 51.208 109.333 51.208C107.781 51.208 106.789 50.248 106.789 48.376V45.064H105.445ZM115.826 51.208C113.602 51.208 111.842 49.4 111.842 47.16C111.842 44.936 113.602 43.128 115.826 43.128C118.05 43.128 119.81 44.936 119.81 47.16C119.81 49.4 118.05 51.208 115.826 51.208ZM115.826 49.384C117.01 49.384 117.858 48.392 117.858 47.16C117.858 45.928 117.01 44.952 115.826 44.952C114.642 44.952 113.794 45.928 113.794 47.16C113.794 48.392 114.642 49.384 115.826 49.384ZM121.494 51V43.336H123.446V44.424C123.846 43.608 124.614 43.128 125.622 43.128C127.382 43.128 128.518 44.36 128.518 46.36V51H126.566V46.648C126.566 45.608 125.974 44.952 125.014 44.952C124.054 44.952 123.446 45.608 123.446 46.648V51H121.494ZM134.137 51V40.744H136.137V49.112H141.145V51H134.137ZM145.319 51.208C143.303 51.208 141.655 49.56 141.655 47.16C141.655 44.856 143.207 43.128 145.319 43.128C146.359 43.128 147.159 43.592 147.671 44.344V43.336H149.623V51H147.671V49.912C147.159 50.696 146.359 51.208 145.319 51.208ZM145.639 49.384C146.823 49.384 147.671 48.392 147.671 47.16C147.671 45.928 146.823 44.952 145.639 44.952C144.455 44.952 143.607 45.928 143.607 47.16C143.607 48.392 144.455 49.384 145.639 49.384ZM156.095 43.128C158.111 43.128 159.775 44.776 159.775 47.176C159.775 49.48 158.223 51.208 156.095 51.208C155.055 51.208 154.255 50.744 153.743 49.976V51H151.791V39.992H153.743V44.424C154.255 43.64 155.055 43.128 156.095 43.128ZM155.791 44.952C154.607 44.952 153.743 45.944 153.743 47.176C153.743 48.408 154.607 49.384 155.791 49.384C156.959 49.384 157.823 48.408 157.823 47.176C157.823 45.944 156.959 44.952 155.791 44.952ZM165.048 51.208C162.664 51.208 160.936 49.4 160.936 47.16C160.936 44.936 162.584 43.128 164.792 43.128C166.984 43.128 168.664 44.808 168.664 47.016C168.664 47.272 168.648 47.576 168.616 47.704H162.936C163.144 48.76 163.944 49.496 165.112 49.496C165.896 49.496 166.552 49.16 167 48.696L168.008 50.04C167.416 50.696 166.328 51.208 165.048 51.208ZM164.824 44.776C163.896 44.776 163.224 45.416 162.984 46.344H166.648C166.408 45.32 165.72 44.776 164.824 44.776ZM173.189 49.304L173.397 51.016C173.109 51.112 172.741 51.176 172.453 51.176C171.349 51.176 170.229 50.472 170.229 48.52V39.992H172.181V48.568C172.181 49.16 172.517 49.384 172.869 49.384C172.965 49.384 173.093 49.352 173.189 49.304Z" fill="white"/>
<path fill-rule="evenodd" clip-rule="evenodd" d="M243 39.5714V52.4286C243 53.8429 243.9 55 245 55H259C260.1 55 261 53.8429 261 52.4286V39.5714C261 38.1571 260.1 37 259 37H245C243.9 37 243 38.1571 243 39.5714Z" fill="white"/>
</svg>
