<svg width="154" height="56" viewBox="0 0 154 56" fill="none" xmlns="http://www.w3.org/2000/svg">
<g clip-path="url(#clip0_6330_29498)">
<path d="M28 1H126C140.912 1 153 13.0883 153 28C153 42.9117 140.912 55 126 55H28C13.0883 55 1 42.9117 1 28C1 13.0883 13.0883 1 28 1Z" stroke="#733AC4" stroke-width="2"/>
<path d="M6 28C6 15.8497 15.8497 6 28 6H126C138.15 6 148 15.8497 148 28C148 40.1503 138.15 50 126 50H28C15.8497 50 6 40.1503 6 28Z" fill="#794CFF"/>
<path d="M53.2118 33.0162C52.7318 32.8882 52.1238 32.5842 51.3398 32.0722L52.2038 30.3922C53.0678 30.9362 54.3158 31.3202 55.3238 31.3202C56.3318 31.3202 57.0838 30.9522 57.0838 30.1362C57.0838 28.3122 51.6918 29.1762 51.6918 25.5442C51.6918 23.6402 53.4358 22.5202 55.5158 22.5202C56.8118 22.5202 58.0278 22.8722 58.9718 23.5922L57.9958 25.1762C57.3398 24.7442 56.3158 24.3922 55.4198 24.3922C54.4918 24.3922 53.8358 24.8242 53.8358 25.4962C53.8358 27.3682 59.2118 26.5362 59.2118 30.0242C59.2118 32.1362 57.3558 33.2082 55.1798 33.2082C54.3318 33.2082 53.6758 33.1442 53.2118 33.0162ZM62.6784 25.3362V29.4802C62.6784 30.6002 63.3184 31.3522 64.2944 31.3522C65.2704 31.3522 65.9264 30.6002 65.9264 29.4802V25.3362H67.8944V29.6242C67.8944 31.7682 66.4544 33.1922 64.2944 33.1922C62.1344 33.1922 60.7264 31.7682 60.7264 29.6242V25.3362H62.6784ZM74.267 25.1282C76.283 25.1282 77.947 26.7762 77.947 29.1762C77.947 31.4802 76.395 33.2082 74.267 33.2082C73.227 33.2082 72.427 32.7442 71.915 31.9762V33.0002H69.963V21.9922H71.915V26.4242C72.427 25.6402 73.227 25.1282 74.267 25.1282ZM73.963 26.9522C72.779 26.9522 71.915 27.9442 71.915 29.1762C71.915 30.4082 72.779 31.3842 73.963 31.3842C75.131 31.3842 75.995 30.4082 75.995 29.1762C75.995 27.9442 75.131 26.9522 73.963 26.9522ZM81.5556 33.0002H79.6036V25.3362H81.5556V26.5042C81.9556 25.6722 82.7076 25.1282 83.7156 25.1282C84.8836 25.1282 85.7796 25.7042 86.2276 26.7282C86.6276 25.8162 87.3636 25.1282 88.5796 25.1282C90.3556 25.1282 91.5236 26.3122 91.5236 28.3602V33.0002H89.5556V28.6482C89.5556 27.6082 88.9796 26.9522 88.0516 26.9522C87.1236 26.9522 86.5316 27.6082 86.5316 28.6482V33.0002H84.5796V28.6482C84.5796 27.6082 84.0036 26.9522 83.0756 26.9522C82.1476 26.9522 81.5556 27.6082 81.5556 28.6482V33.0002ZM94.5953 24.3122C93.9553 24.3122 93.4593 23.8002 93.4593 23.1602C93.4593 22.5362 93.9553 22.0242 94.5953 22.0242C95.2193 22.0242 95.7473 22.5362 95.7473 23.1602C95.7473 23.8002 95.2193 24.3122 94.5953 24.3122ZM95.5713 33.0002H93.6193V25.3362H95.5713V33.0002ZM96.9759 27.0642V25.3362H98.3199V23.3522H100.288V25.3362H102.352V27.0642H100.304V30.3282C100.304 31.0482 100.592 31.3842 101.168 31.3842C101.536 31.3842 101.888 31.2242 102.08 31.0002L102.944 32.4562C102.528 32.8722 101.808 33.2082 100.864 33.2082C99.3119 33.2082 98.3199 32.2482 98.3199 30.3762V27.0642H96.9759Z" fill="white"/>
</g>
<defs>
<clipPath id="clip0_6330_29498">
<rect width="154" height="56" fill="white"/>
</clipPath>
</defs>
</svg>
