<svg width="264" height="44" viewBox="0 0 264 44" fill="none" xmlns="http://www.w3.org/2000/svg">
<path d="M105.457 27V16.76H108.881C112.257 16.76 114.673 18.888 114.673 21.88C114.673 24.872 112.289 27 108.945 27H105.457ZM108.865 18.632H107.521V25.112H108.881C111.073 25.112 112.529 23.832 112.529 21.88C112.529 19.912 111.073 18.632 108.865 18.632ZM120.024 27.208C117.64 27.208 115.912 25.4 115.912 23.16C115.912 20.936 117.56 19.128 119.768 19.128C121.96 19.128 123.64 20.808 123.64 23.016C123.64 23.272 123.624 23.576 123.592 23.704H117.912C118.12 24.76 118.92 25.496 120.088 25.496C120.872 25.496 121.528 25.16 121.976 24.696L122.984 26.04C122.392 26.696 121.304 27.208 120.024 27.208ZM119.8 20.776C118.872 20.776 118.2 21.416 117.96 22.344H121.624C121.384 21.32 120.696 20.776 119.8 20.776ZM124.517 21.064V19.336H125.765V18.888C125.765 16.952 126.869 15.784 128.581 15.784C129.621 15.784 130.293 16.072 130.789 16.568L129.829 18.04C129.605 17.8 129.189 17.608 128.773 17.608C128.133 17.608 127.733 18.04 127.733 18.872V19.336H129.717V21.064H127.733V27H125.765V21.064H124.517ZM133.904 27.208C131.888 27.208 130.24 25.56 130.24 23.16C130.24 20.856 131.792 19.128 133.904 19.128C134.944 19.128 135.744 19.592 136.256 20.344V19.336H138.208V27H136.256V25.912C135.744 26.696 134.944 27.208 133.904 27.208ZM134.224 25.384C135.408 25.384 136.256 24.392 136.256 23.16C136.256 21.928 135.408 20.952 134.224 20.952C133.04 20.952 132.192 21.928 132.192 23.16C132.192 24.392 133.04 25.384 134.224 25.384ZM142.233 19.336V23.48C142.233 24.6 142.873 25.352 143.849 25.352C144.825 25.352 145.481 24.6 145.481 23.48V19.336H147.449V23.624C147.449 25.768 146.009 27.192 143.849 27.192C141.689 27.192 140.281 25.768 140.281 23.624V19.336H142.233ZM152.478 25.304L152.686 27.016C152.398 27.112 152.03 27.176 151.742 27.176C150.638 27.176 149.518 26.472 149.518 24.52V15.992H151.47V24.568C151.47 25.16 151.806 25.384 152.158 25.384C152.254 25.384 152.382 25.352 152.478 25.304ZM153.531 21.064V19.336H154.875V17.352H156.843V19.336H158.907V21.064H156.859V24.328C156.859 25.048 157.147 25.384 157.723 25.384C158.091 25.384 158.443 25.224 158.635 25L159.499 26.456C159.083 26.872 158.363 27.208 157.419 27.208C155.867 27.208 154.875 26.248 154.875 24.376V21.064H153.531Z" fill="#1355E9"/>
<path d="M104.289 29H159.707V29.8H104.289V29Z" fill="#1355E9"/>
</svg>
