<svg width="287" height="44" viewBox="0 0 287 44" fill="none" xmlns="http://www.w3.org/2000/svg">
<path d="M0 22C0 9.84974 9.84974 0 22 0H265C277.15 0 287 9.84974 287 22C287 34.1503 277.15 44 265 44H22C9.84973 44 0 34.1503 0 22Z" fill="#131331"/>
<path d="M125.457 27V16.744H129.121C131.601 16.744 133.233 18.088 133.233 20.136C133.233 22.2 131.585 23.56 129.089 23.56H127.457V27H125.457ZM129.281 18.52H127.457V21.784H129.281C130.385 21.784 131.121 21.128 131.121 20.136C131.121 19.16 130.385 18.52 129.281 18.52ZM134.799 27V19.336H136.751V20.472C137.119 19.656 137.775 19.128 138.639 19.128C139.151 19.128 139.567 19.256 139.855 19.496L139.055 21.336C138.799 21.144 138.415 21.016 138.031 21.016C137.263 21.016 136.751 21.672 136.751 22.712V27H134.799ZM144.165 27.208C141.781 27.208 140.053 25.4 140.053 23.16C140.053 20.936 141.701 19.128 143.909 19.128C146.101 19.128 147.781 20.808 147.781 23.016C147.781 23.272 147.765 23.576 147.733 23.704H142.053C142.261 24.76 143.061 25.496 144.229 25.496C145.013 25.496 145.669 25.16 146.117 24.696L147.125 26.04C146.533 26.696 145.445 27.208 144.165 27.208ZM143.941 20.776C143.013 20.776 142.341 21.416 142.101 22.344H145.765C145.525 21.32 144.837 20.776 143.941 20.776ZM151.651 27.208C150.419 27.208 149.411 26.888 148.659 26.472L149.283 24.968C150.163 25.384 150.899 25.608 151.747 25.608C152.611 25.608 153.011 25.304 153.011 24.856C153.011 23.48 148.883 24.296 148.883 21.4C148.883 20.248 149.907 19.128 151.875 19.128C152.947 19.128 153.763 19.352 154.739 19.816L154.019 21.272C153.475 20.968 152.659 20.728 152.035 20.728C151.299 20.728 150.851 20.968 150.851 21.384C150.851 22.792 154.947 21.912 154.947 24.824C154.947 26.152 153.763 27.208 151.651 27.208ZM158.901 27.208C157.669 27.208 156.661 26.888 155.909 26.472L156.533 24.968C157.413 25.384 158.149 25.608 158.997 25.608C159.861 25.608 160.261 25.304 160.261 24.856C160.261 23.48 156.133 24.296 156.133 21.4C156.133 20.248 157.157 19.128 159.125 19.128C160.197 19.128 161.013 19.352 161.989 19.816L161.269 21.272C160.725 20.968 159.909 20.728 159.285 20.728C158.549 20.728 158.101 20.968 158.101 21.384C158.101 22.792 162.197 21.912 162.197 24.824C162.197 26.152 161.013 27.208 158.901 27.208Z" fill="white"/>
</svg>
