<svg width="264" height="44" viewBox="0 0 264 44" fill="none" xmlns="http://www.w3.org/2000/svg">
<g clip-path="url(#clip0_6330_29516)">
<path d="M0 22C0 9.84974 9.84974 0 22 0H242C254.15 0 264 9.84974 264 22C264 34.1503 254.15 44 242 44H22C9.84973 44 0 34.1503 0 22Z" fill="#794CFF"/>
<path fill-rule="evenodd" clip-rule="evenodd" d="M27 15.5714V28.4286C27 29.8429 27.9 31 29 31H43C44.1 31 45 29.8429 45 28.4286V15.5714C45 14.1571 44.1 13 43 13H29C27.9 13 27 14.1571 27 15.5714Z" fill="white"/>
<path d="M57.2305 27.0002V16.7602H61.3585C63.2785 16.7602 64.7345 17.9282 64.7345 19.5922C64.7345 20.7922 63.9025 21.4482 63.2145 21.7362C64.2225 22.0402 65.0225 22.8402 65.0225 24.1202C65.0225 25.6562 63.8225 27.0002 61.5985 27.0002H57.2305ZM61.1665 18.5202H59.2305V20.9842H61.1665C62.0465 20.9842 62.6545 20.4722 62.6545 19.7522C62.6545 19.0322 62.0305 18.5202 61.1665 18.5202ZM61.3905 22.6322H59.2305V25.2242H61.3905C62.2865 25.2242 62.9425 24.6802 62.9425 23.9282C62.9425 23.1762 62.2865 22.6322 61.3905 22.6322ZM68.4596 19.3362V23.4802C68.4596 24.6002 69.0996 25.3522 70.0756 25.3522C71.0516 25.3522 71.7076 24.6002 71.7076 23.4802V19.3362H73.6756V23.6242C73.6756 25.7682 72.2356 27.1922 70.0756 27.1922C67.9156 27.1922 66.5076 25.7682 66.5076 23.6242V19.3362H68.4596ZM74.9603 21.0642V19.3362H76.3043V17.3522H78.2723V19.3362H80.3363V21.0642H78.2883V24.3282C78.2883 25.0482 78.5763 25.3842 79.1523 25.3842C79.5203 25.3842 79.8723 25.2242 80.0643 25.0002L80.9283 26.4562C80.5123 26.8722 79.7923 27.2082 78.8483 27.2082C77.2963 27.2082 76.3043 26.2482 76.3043 24.3762V21.0642H74.9603ZM81.4446 21.0642V19.3362H82.7886V17.3522H84.7566V19.3362H86.8206V21.0642H84.7726V24.3282C84.7726 25.0482 85.0606 25.3842 85.6366 25.3842C86.0046 25.3842 86.3566 25.2242 86.5486 25.0002L87.4126 26.4562C86.9966 26.8722 86.2766 27.2082 85.3326 27.2082C83.7806 27.2082 82.7886 26.2482 82.7886 24.3762V21.0642H81.4446ZM91.826 27.2082C89.602 27.2082 87.842 25.4002 87.842 23.1602C87.842 20.9362 89.602 19.1282 91.826 19.1282C94.05 19.1282 95.81 20.9362 95.81 23.1602C95.81 25.4002 94.05 27.2082 91.826 27.2082ZM91.826 25.3842C93.01 25.3842 93.858 24.3922 93.858 23.1602C93.858 21.9282 93.01 20.9522 91.826 20.9522C90.642 20.9522 89.794 21.9282 89.794 23.1602C89.794 24.3922 90.642 25.3842 91.826 25.3842ZM97.4943 27.0002V19.3362H99.4463V20.4242C99.8463 19.6082 100.614 19.1282 101.622 19.1282C103.382 19.1282 104.518 20.3602 104.518 22.3602V27.0002H102.566V22.6482C102.566 21.6082 101.974 20.9522 101.014 20.9522C100.054 20.9522 99.4463 21.6082 99.4463 22.6482V27.0002H97.4943ZM110.137 27.0002V16.7442H112.137V25.1122H117.145V27.0002H110.137ZM121.319 27.2082C119.303 27.2082 117.655 25.5602 117.655 23.1602C117.655 20.8562 119.207 19.1282 121.319 19.1282C122.359 19.1282 123.159 19.5922 123.671 20.3442V19.3362H125.623V27.0002H123.671V25.9122C123.159 26.6962 122.359 27.2082 121.319 27.2082ZM121.639 25.3842C122.823 25.3842 123.671 24.3922 123.671 23.1602C123.671 21.9282 122.823 20.9522 121.639 20.9522C120.455 20.9522 119.607 21.9282 119.607 23.1602C119.607 24.3922 120.455 25.3842 121.639 25.3842ZM132.095 19.1282C134.111 19.1282 135.775 20.7762 135.775 23.1762C135.775 25.4802 134.223 27.2082 132.095 27.2082C131.055 27.2082 130.255 26.7442 129.743 25.9762V27.0002H127.791V15.9922H129.743V20.4242C130.255 19.6402 131.055 19.1282 132.095 19.1282ZM131.791 20.9522C130.607 20.9522 129.743 21.9442 129.743 23.1762C129.743 24.4082 130.607 25.3842 131.791 25.3842C132.959 25.3842 133.823 24.4082 133.823 23.1762C133.823 21.9442 132.959 20.9522 131.791 20.9522ZM141.048 27.2082C138.664 27.2082 136.936 25.4002 136.936 23.1602C136.936 20.9362 138.584 19.1282 140.792 19.1282C142.984 19.1282 144.664 20.8082 144.664 23.0162C144.664 23.2722 144.648 23.5762 144.616 23.7042H138.936C139.144 24.7602 139.944 25.4962 141.112 25.4962C141.896 25.4962 142.552 25.1602 143 24.6962L144.008 26.0402C143.416 26.6962 142.328 27.2082 141.048 27.2082ZM140.824 20.7762C139.896 20.7762 139.224 21.4162 138.984 22.3442H142.648C142.408 21.3202 141.72 20.7762 140.824 20.7762ZM149.189 25.3042L149.397 27.0162C149.109 27.1122 148.741 27.1762 148.453 27.1762C147.349 27.1762 146.229 26.4722 146.229 24.5202V15.9922H148.181V24.5682C148.181 25.1602 148.517 25.3842 148.869 25.3842C148.965 25.3842 149.093 25.3522 149.189 25.3042Z" fill="white"/>
</g>
<defs>
<clipPath id="clip0_6330_29516">
<rect width="264" height="44" fill="white"/>
</clipPath>
</defs>
</svg>
