<svg width="104" height="44" viewBox="0 0 104 44" fill="none" xmlns="http://www.w3.org/2000/svg">
<g clip-path="url(#clip0_6330_29647)">
<path d="M0 22C0 9.84974 9.84974 0 22 0H82C94.1503 0 104 9.84974 104 22C104 34.1503 94.1503 44 82 44H22C9.84973 44 0 34.1503 0 22Z" fill="#794CFF"/>
<path d="M25.457 27.0002V16.7602H28.881C32.257 16.7602 34.673 18.8882 34.673 21.8802C34.673 24.8722 32.289 27.0002 28.945 27.0002H25.457ZM28.865 18.6322H27.521V25.1122H28.881C31.073 25.1122 32.529 23.8322 32.529 21.8802C32.529 19.9122 31.073 18.6322 28.865 18.6322ZM40.0242 27.2082C37.6402 27.2082 35.9122 25.4002 35.9122 23.1602C35.9122 20.9362 37.5602 19.1282 39.7682 19.1282C41.9602 19.1282 43.6402 20.8082 43.6402 23.0162C43.6402 23.2722 43.6242 23.5762 43.5922 23.7042H37.9122C38.1202 24.7602 38.9202 25.4962 40.0882 25.4962C40.8722 25.4962 41.5282 25.1602 41.9762 24.6962L42.9842 26.0402C42.3922 26.6962 41.3042 27.2082 40.0242 27.2082ZM39.8002 20.7762C38.8722 20.7762 38.2002 21.4162 37.9602 22.3442H41.6242C41.3842 21.3202 40.6962 20.7762 39.8002 20.7762ZM44.5171 21.0642V19.3362H45.7651V18.8882C45.7651 16.9522 46.8691 15.7842 48.5811 15.7842C49.6211 15.7842 50.2931 16.0722 50.7891 16.5682L49.8291 18.0402C49.6051 17.8002 49.1891 17.6082 48.7731 17.6082C48.1331 17.6082 47.7331 18.0402 47.7331 18.8722V19.3362H49.7171V21.0642H47.7331V27.0002H45.7651V21.0642H44.5171ZM53.9043 27.2082C51.8883 27.2082 50.2403 25.5602 50.2403 23.1602C50.2403 20.8562 51.7923 19.1282 53.9043 19.1282C54.9443 19.1282 55.7443 19.5922 56.2563 20.3442V19.3362H58.2083V27.0002H56.2563V25.9122C55.7443 26.6962 54.9443 27.2082 53.9043 27.2082ZM54.2243 25.3842C55.4083 25.3842 56.2563 24.3922 56.2563 23.1602C56.2563 21.9282 55.4083 20.9522 54.2243 20.9522C53.0403 20.9522 52.1923 21.9282 52.1923 23.1602C52.1923 24.3922 53.0403 25.3842 54.2243 25.3842ZM62.233 19.3362V23.4802C62.233 24.6002 62.873 25.3522 63.849 25.3522C64.825 25.3522 65.481 24.6002 65.481 23.4802V19.3362H67.449V23.6242C67.449 25.7682 66.009 27.1922 63.849 27.1922C61.689 27.1922 60.281 25.7682 60.281 23.6242V19.3362H62.233ZM72.4776 25.3042L72.6856 27.0162C72.3976 27.1122 72.0296 27.1762 71.7416 27.1762C70.6376 27.1762 69.5176 26.4722 69.5176 24.5202V15.9922H71.4696V24.5682C71.4696 25.1602 71.8056 25.3842 72.1576 25.3842C72.2536 25.3842 72.3816 25.3522 72.4776 25.3042ZM73.5305 21.0642V19.3362H74.8745V17.3522H76.8425V19.3362H78.9065V21.0642H76.8585V24.3282C76.8585 25.0482 77.1465 25.3842 77.7225 25.3842C78.0905 25.3842 78.4425 25.2242 78.6345 25.0002L79.4985 26.4562C79.0825 26.8722 78.3625 27.2082 77.4185 27.2082C75.8665 27.2082 74.8745 26.2482 74.8745 24.3762V21.0642H73.5305Z" fill="white"/>
</g>
<defs>
<clipPath id="clip0_6330_29647">
<rect width="104" height="44" fill="white"/>
</clipPath>
</defs>
</svg>
