<svg width="648" height="92" viewBox="0 0 648 92" fill="none" xmlns="http://www.w3.org/2000/svg">
<path d="M303.506 42.616H300.466V51H298.45V42.616H295.41V40.744H303.506V42.616ZM307.095 51.208C304.711 51.208 302.983 49.4 302.983 47.16C302.983 44.936 304.631 43.128 306.839 43.128C309.031 43.128 310.711 44.808 310.711 47.016C310.711 47.272 310.695 47.576 310.663 47.704H304.983C305.191 48.76 305.991 49.496 307.159 49.496C307.943 49.496 308.599 49.16 309.047 48.696L310.055 50.04C309.463 50.696 308.375 51.208 307.095 51.208ZM306.871 44.776C305.943 44.776 305.271 45.416 305.031 46.344H308.695C308.455 45.32 307.767 44.776 306.871 44.776ZM312.276 51V43.336H314.228V44.472C314.596 43.656 315.252 43.128 316.116 43.128C316.628 43.128 317.044 43.256 317.332 43.496L316.532 45.336C316.276 45.144 315.891 45.016 315.508 45.016C314.74 45.016 314.228 45.672 314.228 46.712V51H312.276ZM317.882 45.064V43.336H319.226V41.352H321.194V43.336H323.258V45.064H321.21V48.328C321.21 49.048 321.498 49.384 322.074 49.384C322.442 49.384 322.794 49.224 322.986 49L323.85 50.456C323.434 50.872 322.714 51.208 321.77 51.208C320.218 51.208 319.226 50.248 319.226 48.376V45.064H317.882ZM326.127 42.312C325.487 42.312 324.991 41.8 324.991 41.16C324.991 40.536 325.487 40.024 326.127 40.024C326.751 40.024 327.279 40.536 327.279 41.16C327.279 41.8 326.751 42.312 326.127 42.312ZM327.103 51H325.151V43.336H327.103V51ZM332.459 51.208C330.443 51.208 328.795 49.56 328.795 47.16C328.795 44.856 330.347 43.128 332.459 43.128C333.499 43.128 334.299 43.592 334.811 44.344V43.336H336.763V51H334.811V49.912C334.299 50.696 333.499 51.208 332.459 51.208ZM332.779 49.384C333.963 49.384 334.811 48.392 334.811 47.16C334.811 45.928 333.963 44.952 332.779 44.952C331.595 44.952 330.747 45.928 330.747 47.16C330.747 48.392 331.595 49.384 332.779 49.384ZM338.932 51V43.336H340.884V44.472C341.252 43.656 341.908 43.128 342.772 43.128C343.284 43.128 343.7 43.256 343.988 43.496L343.188 45.336C342.932 45.144 342.548 45.016 342.164 45.016C341.396 45.016 340.884 45.672 340.884 46.712V51H338.932ZM347.77 51.304L347.834 51.112L344.33 43.336H346.474L348.714 48.616L350.554 43.336H352.522L349.386 51.976C348.794 53.656 347.818 54.344 346.538 54.344C345.722 54.344 344.938 54.008 344.442 53.544L345.322 52.008C345.69 52.36 346.106 52.52 346.554 52.52C347.098 52.52 347.45 52.2 347.77 51.304Z" fill="#794CFF"/>
<path d="M295.266 53H352.73V53.8H295.266V53Z" fill="#794CFF"/>
</svg>
