<svg width="287" height="44" viewBox="0 0 287 44" fill="none" xmlns="http://www.w3.org/2000/svg">
<g clip-path="url(#clip0_6330_29666)">
<path d="M0 22C0 9.84974 9.84974 0 22 0H265C277.15 0 287 9.84974 287 22C287 34.1503 277.15 44 265 44H22C9.84973 44 0 34.1503 0 22Z" fill="#733AC4"/>
<path d="M129.892 27.0001V22.6961H124.996V27.0001H122.996V16.7441H124.996V20.8241H129.892V16.7441H131.892V27.0001H129.892ZM137.639 27.2081C135.414 27.2081 133.655 25.4001 133.655 23.1601C133.655 20.9361 135.414 19.1281 137.639 19.1281C139.863 19.1281 141.623 20.9361 141.623 23.1601C141.623 25.4001 139.863 27.2081 137.639 27.2081ZM137.639 25.3841C138.823 25.3841 139.671 24.3921 139.671 23.1601C139.671 21.9281 138.823 20.9521 137.639 20.9521C136.455 20.9521 135.607 21.9281 135.607 23.1601C135.607 24.3921 136.455 25.3841 137.639 25.3841ZM147.379 27.0001H144.835L142.067 19.3361H144.211L146.163 25.2561L148.147 19.3361H150.147L147.379 27.0001ZM154.688 27.2081C152.304 27.2081 150.576 25.4001 150.576 23.1601C150.576 20.9361 152.224 19.1281 154.432 19.1281C156.624 19.1281 158.304 20.8081 158.304 23.0161C158.304 23.2721 158.288 23.5761 158.256 23.7041H152.576C152.784 24.7601 153.584 25.4961 154.752 25.4961C155.536 25.4961 156.192 25.1601 156.64 24.6961L157.648 26.0401C157.056 26.6961 155.968 27.2081 154.688 27.2081ZM154.464 20.7761C153.536 20.7761 152.864 21.4161 152.624 22.3441H156.288C156.048 21.3201 155.36 20.7761 154.464 20.7761ZM159.869 27.0001V19.3361H161.821V20.4721C162.189 19.6561 162.845 19.1281 163.709 19.1281C164.221 19.1281 164.637 19.2561 164.925 19.4961L164.125 21.3361C163.869 21.1441 163.485 21.0161 163.101 21.0161C162.333 21.0161 161.821 21.6721 161.821 22.7121V27.0001H159.869Z" fill="white"/>
</g>
<defs>
<clipPath id="clip0_6330_29666">
<rect width="287" height="44" fill="white"/>
</clipPath>
</defs>
</svg>
