<svg width="334" height="64" viewBox="0 0 334 64" fill="none" xmlns="http://www.w3.org/2000/svg">
<g clip-path="url(#clip0_6330_29454)">
<path d="M232 0H102C89.8497 0 80 9.84974 80 22C80 34.1503 89.8497 44 102 44H232C244.15 44 254 34.1503 254 22C254 9.84974 244.15 0 232 0Z" fill="#794CFF"/>
<path fill-rule="evenodd" clip-rule="evenodd" d="M107 15.5714V28.4286C107 29.8429 107.9 31 109 31H123C124.1 31 125 29.8429 125 28.4286V15.5714C125 14.1571 124.1 13 123 13H109C107.9 13 107 14.1571 107 15.5714Z" fill="white"/>
<path d="M137.23 27.0002V16.7602H141.358C143.278 16.7602 144.734 17.9282 144.734 19.5922C144.734 20.7922 143.902 21.4482 143.214 21.7362C144.222 22.0402 145.022 22.8402 145.022 24.1202C145.022 25.6562 143.822 27.0002 141.598 27.0002H137.23ZM141.166 18.5202H139.23V20.9842H141.166C142.046 20.9842 142.654 20.4722 142.654 19.7522C142.654 19.0322 142.03 18.5202 141.166 18.5202ZM141.39 22.6322H139.23V25.2242H141.39C142.286 25.2242 142.942 24.6802 142.942 23.9282C142.942 23.1762 142.286 22.6322 141.39 22.6322ZM148.459 19.3362V23.4802C148.459 24.6002 149.099 25.3522 150.075 25.3522C151.051 25.3522 151.707 24.6002 151.707 23.4802V19.3362H153.675V23.6242C153.675 25.7682 152.235 27.1922 150.075 27.1922C147.915 27.1922 146.507 25.7682 146.507 23.6242V19.3362H148.459ZM154.959 21.0642V19.3362H156.303V17.3522H158.271V19.3362H160.335V21.0642H158.287V24.3282C158.287 25.0482 158.575 25.3842 159.151 25.3842C159.519 25.3842 159.871 25.2242 160.063 25.0002L160.927 26.4562C160.511 26.8722 159.791 27.2082 158.847 27.2082C157.295 27.2082 156.303 26.2482 156.303 24.3762V21.0642H154.959ZM161.444 21.0642V19.3362H162.788V17.3522H164.756V19.3362H166.82V21.0642H164.772V24.3282C164.772 25.0482 165.06 25.3842 165.636 25.3842C166.004 25.3842 166.356 25.2242 166.548 25.0002L167.412 26.4562C166.996 26.8722 166.276 27.2082 165.332 27.2082C163.78 27.2082 162.788 26.2482 162.788 24.3762V21.0642H161.444ZM171.825 27.2082C169.601 27.2082 167.841 25.4002 167.841 23.1602C167.841 20.9362 169.601 19.1282 171.825 19.1282C174.049 19.1282 175.809 20.9362 175.809 23.1602C175.809 25.4002 174.049 27.2082 171.825 27.2082ZM171.825 25.3842C173.009 25.3842 173.857 24.3922 173.857 23.1602C173.857 21.9282 173.009 20.9522 171.825 20.9522C170.641 20.9522 169.793 21.9282 169.793 23.1602C169.793 24.3922 170.641 25.3842 171.825 25.3842ZM177.493 27.0002V19.3362H179.445V20.4242C179.845 19.6082 180.613 19.1282 181.621 19.1282C183.381 19.1282 184.517 20.3602 184.517 22.3602V27.0002H182.565V22.6482C182.565 21.6082 181.973 20.9522 181.013 20.9522C180.053 20.9522 179.445 21.6082 179.445 22.6482V27.0002H177.493ZM190.136 27.0002V16.7442H192.136V25.1122H197.144V27.0002H190.136ZM201.318 27.2082C199.302 27.2082 197.654 25.5602 197.654 23.1602C197.654 20.8562 199.206 19.1282 201.318 19.1282C202.358 19.1282 203.158 19.5922 203.67 20.3442V19.3362H205.622V27.0002H203.67V25.9122C203.158 26.6962 202.358 27.2082 201.318 27.2082ZM201.638 25.3842C202.822 25.3842 203.67 24.3922 203.67 23.1602C203.67 21.9282 202.822 20.9522 201.638 20.9522C200.454 20.9522 199.606 21.9282 199.606 23.1602C199.606 24.3922 200.454 25.3842 201.638 25.3842ZM212.094 19.1282C214.11 19.1282 215.774 20.7762 215.774 23.1762C215.774 25.4802 214.222 27.2082 212.094 27.2082C211.054 27.2082 210.254 26.7442 209.742 25.9762V27.0002H207.79V15.9922H209.742V20.4242C210.254 19.6402 211.054 19.1282 212.094 19.1282ZM211.79 20.9522C210.606 20.9522 209.742 21.9442 209.742 23.1762C209.742 24.4082 210.606 25.3842 211.79 25.3842C212.958 25.3842 213.822 24.4082 213.822 23.1762C213.822 21.9442 212.958 20.9522 211.79 20.9522ZM221.047 27.2082C218.663 27.2082 216.935 25.4002 216.935 23.1602C216.935 20.9362 218.583 19.1282 220.791 19.1282C222.983 19.1282 224.663 20.8082 224.663 23.0162C224.663 23.2722 224.647 23.5762 224.615 23.7042H218.935C219.143 24.7602 219.943 25.4962 221.111 25.4962C221.895 25.4962 222.551 25.1602 222.999 24.6962L224.007 26.0402C223.415 26.6962 222.327 27.2082 221.047 27.2082ZM220.823 20.7762C219.895 20.7762 219.223 21.4162 218.983 22.3442H222.647C222.407 21.3202 221.719 20.7762 220.823 20.7762ZM229.188 25.3042L229.396 27.0162C229.108 27.1122 228.74 27.1762 228.452 27.1762C227.348 27.1762 226.228 26.4722 226.228 24.5202V15.9922H228.18V24.5682C228.18 25.1602 228.516 25.3842 228.868 25.3842C228.964 25.3842 229.092 25.3522 229.188 25.3042Z" fill="white"/>
<path d="M170 53V34H168V53H170Z" fill="#F7D055"/>
<path d="M24 22C24 15.3726 18.6274 10 12 10C5.37258 10 0 15.3726 0 22C0 28.6274 5.37258 34 12 34C18.6274 34 24 28.6274 24 22Z" fill="#F7D055"/>
<path d="M13.684 16.8184V27.0002H11.8395V18.6131H11.7799L9.39844 20.1344V18.4441L11.929 16.8184H13.684Z" fill="black"/>
<path d="M292 52C292 45.3726 286.627 40 280 40C273.373 40 268 45.3726 268 52C268 58.6274 273.373 64 280 64C286.627 64 292 58.6274 292 52Z" fill="#F7D055"/>
<path d="M276.555 57.0002V55.6678L280.09 52.2026C280.428 51.8612 280.71 51.558 280.935 51.2928C281.161 51.0277 281.33 50.7708 281.442 50.5222C281.555 50.2736 281.611 50.0085 281.611 49.7268C281.611 49.4053 281.538 49.1302 281.393 48.9015C281.247 48.6695 281.046 48.4905 280.791 48.3645C280.536 48.2386 280.246 48.1756 279.921 48.1756C279.586 48.1756 279.293 48.2452 279.041 48.3844C278.789 48.5203 278.594 48.7142 278.454 48.9661C278.318 49.218 278.25 49.518 278.25 49.866H276.496C276.496 49.2197 276.643 48.6579 276.938 48.1806C277.233 47.7033 277.639 47.3338 278.156 47.0719C278.676 46.8101 279.273 46.6792 279.946 46.6792C280.629 46.6792 281.228 46.8068 281.746 47.062C282.263 47.3172 282.664 47.6669 282.949 48.111C283.237 48.5551 283.381 49.0622 283.381 49.6323C283.381 50.0135 283.308 50.388 283.162 50.7559C283.017 51.1238 282.76 51.5314 282.392 51.9789C282.027 52.4263 281.515 52.9682 280.856 53.6046L279.101 55.3894V55.459H283.535V57.0002H276.555Z" fill="black"/>
<path d="M334 22C334 15.3726 328.627 10 322 10C315.373 10 310 15.3726 310 22C310 28.6274 315.373 34 322 34C328.627 34 334 28.6274 334 22Z" fill="#F7D055"/>
<path d="M321.999 27.1394C321.283 27.1394 320.647 27.0168 320.09 26.7715C319.537 26.5262 319.099 26.1849 318.778 25.7474C318.456 25.3099 318.286 24.8044 318.266 24.231H320.135C320.152 24.5061 320.243 24.7464 320.408 24.9519C320.574 25.1541 320.795 25.3115 321.07 25.4242C321.345 25.5369 321.653 25.5932 321.994 25.5932C322.359 25.5932 322.682 25.5303 322.964 25.4043C323.246 25.2751 323.466 25.0961 323.625 24.8674C323.784 24.6387 323.862 24.3752 323.859 24.0769C323.862 23.7687 323.783 23.4969 323.62 23.2616C323.458 23.0262 323.222 22.8423 322.914 22.7097C322.609 22.5771 322.241 22.5109 321.81 22.5109H320.911V21.089H321.81C322.165 21.089 322.475 21.0277 322.74 20.905C323.009 20.7824 323.219 20.61 323.372 20.388C323.524 20.1626 323.599 19.9024 323.595 19.6074C323.599 19.3191 323.534 19.0689 323.401 18.8567C323.272 18.6413 323.088 18.4739 322.85 18.3546C322.614 18.2353 322.337 18.1756 322.019 18.1756C321.708 18.1756 321.419 18.232 321.154 18.3447C320.889 18.4573 320.675 18.6181 320.513 18.8269C320.35 19.0324 320.264 19.2777 320.254 19.5627H318.479C318.493 18.9926 318.657 18.4922 318.972 18.0613C319.29 17.6271 319.714 17.289 320.244 17.0471C320.775 16.8018 321.37 16.6792 322.029 16.6792C322.709 16.6792 323.299 16.8068 323.799 17.062C324.303 17.3139 324.692 17.6536 324.967 18.0812C325.243 18.5087 325.38 18.981 325.38 19.4981C325.383 20.0715 325.214 20.552 324.873 20.9398C324.535 21.3276 324.091 21.5812 323.541 21.7005V21.78C324.256 21.8795 324.805 22.1446 325.186 22.5755C325.571 23.003 325.761 23.535 325.758 24.1714C325.758 24.7414 325.595 25.2519 325.271 25.7026C324.949 26.1501 324.505 26.5014 323.938 26.7566C323.375 27.0118 322.729 27.1394 321.999 27.1394Z" fill="black"/>
<path d="M270 51H168V53H270V51Z" fill="#F7D055"/>
<path d="M104 21H24V23H104V21Z" fill="#F7D055"/>
<path d="M102 27C104.761 27 107 24.7614 107 22C107 19.2386 104.761 17 102 17C99.2386 17 97 19.2386 97 22C97 24.7614 99.2386 27 102 27Z" fill="#F7D055"/>
<path d="M256 27C258.761 27 261 24.7614 261 22C261 19.2386 258.761 17 256 17C253.239 17 251 19.2386 251 22C251 24.7614 253.239 27 256 27Z" fill="#F7D055"/>
<path d="M167 40C169.761 40 172 37.7614 172 35C172 32.2386 169.761 30 167 30C164.239 30 162 32.2386 162 35C162 37.7614 164.239 40 167 40Z" fill="#F7D055"/>
<path d="M314 21H254V23H314V21Z" fill="#F7D055"/>
</g>
<defs>
<clipPath id="clip0_6330_29454">
<rect width="334" height="64" fill="white"/>
</clipPath>
</defs>
</svg>
