<svg width="264" height="44" viewBox="0 0 264 44" fill="none" xmlns="http://www.w3.org/2000/svg">
<path d="M22 0.5H242C253.874 0.5 263.5 10.1259 263.5 22C263.5 33.8741 253.874 43.5 242 43.5H22C10.1259 43.5 0.5 33.8741 0.5 22C0.5 10.1259 10.1259 0.5 22 0.5Z" stroke="#89AAF4"/>
<path d="M100.699 27V16.76H104.123C107.499 16.76 109.915 18.888 109.915 21.88C109.915 24.872 107.531 27 104.187 27H100.699ZM104.107 18.632H102.763V25.112H104.123C106.315 25.112 107.771 23.832 107.771 21.88C107.771 19.912 106.315 18.632 104.107 18.632ZM112.627 18.312C111.987 18.312 111.491 17.8 111.491 17.16C111.491 16.536 111.987 16.024 112.627 16.024C113.251 16.024 113.779 16.536 113.779 17.16C113.779 17.8 113.251 18.312 112.627 18.312ZM113.603 27H111.651V19.336H113.603V27ZM118.143 27.208C116.911 27.208 115.903 26.888 115.151 26.472L115.775 24.968C116.655 25.384 117.391 25.608 118.239 25.608C119.103 25.608 119.503 25.304 119.503 24.856C119.503 23.48 115.375 24.296 115.375 21.4C115.375 20.248 116.399 19.128 118.367 19.128C119.439 19.128 120.255 19.352 121.231 19.816L120.511 21.272C119.967 20.968 119.151 20.728 118.527 20.728C117.791 20.728 117.343 20.968 117.343 21.384C117.343 22.792 121.439 21.912 121.439 24.824C121.439 26.152 120.255 27.208 118.143 27.208ZM126.209 27.208C124.193 27.208 122.545 25.56 122.545 23.16C122.545 20.856 124.097 19.128 126.209 19.128C127.249 19.128 128.049 19.592 128.561 20.344V19.336H130.513V27H128.561V25.912C128.049 26.696 127.249 27.208 126.209 27.208ZM126.529 25.384C127.713 25.384 128.561 24.392 128.561 23.16C128.561 21.928 127.713 20.952 126.529 20.952C125.345 20.952 124.497 21.928 124.497 23.16C124.497 24.392 125.345 25.384 126.529 25.384ZM136.986 19.128C139.002 19.128 140.666 20.776 140.666 23.176C140.666 25.48 139.114 27.208 136.986 27.208C135.946 27.208 135.146 26.744 134.634 25.976V27H132.682V15.992H134.634V20.424C135.146 19.64 135.946 19.128 136.986 19.128ZM136.682 20.952C135.498 20.952 134.634 21.944 134.634 23.176C134.634 24.408 135.498 25.384 136.682 25.384C137.85 25.384 138.714 24.408 138.714 23.176C138.714 21.944 137.85 20.952 136.682 20.952ZM145.282 25.304L145.49 27.016C145.202 27.112 144.834 27.176 144.546 27.176C143.442 27.176 142.322 26.472 142.322 24.52V15.992H144.274V24.568C144.274 25.16 144.61 25.384 144.962 25.384C145.058 25.384 145.186 25.352 145.282 25.304ZM150.735 27.208C148.351 27.208 146.623 25.4 146.623 23.16C146.623 20.936 148.271 19.128 150.479 19.128C152.671 19.128 154.351 20.808 154.351 23.016C154.351 23.272 154.335 23.576 154.303 23.704H148.623C148.831 24.76 149.631 25.496 150.799 25.496C151.583 25.496 152.239 25.16 152.687 24.696L153.695 26.04C153.103 26.696 152.015 27.208 150.735 27.208ZM150.511 20.776C149.583 20.776 148.911 21.416 148.671 22.344H152.335C152.095 21.32 151.407 20.776 150.511 20.776ZM159.084 27.208C157.068 27.208 155.42 25.56 155.42 23.16C155.42 20.856 156.972 19.128 159.084 19.128C160.124 19.128 160.924 19.592 161.436 20.344V15.992H163.388V27H161.436V25.912C160.924 26.696 160.124 27.208 159.084 27.208ZM159.404 25.384C160.588 25.384 161.436 24.392 161.436 23.16C161.436 21.928 160.588 20.952 159.404 20.952C158.22 20.952 157.372 21.928 157.372 23.16C157.372 24.392 158.22 25.384 159.404 25.384Z" fill="#89AAF4"/>
</svg>
