<svg width="312" height="228" viewBox="0 0 312 228" fill="none" xmlns="http://www.w3.org/2000/svg">
<path d="M24 46C24 33.8497 33.8497 24 46 24H266C278.15 24 288 33.8497 288 46C288 58.1503 278.15 68 266 68H46C33.8497 68 24 58.1503 24 46Z" fill="#BBAFE9"/>
<path d="M124.699 51V40.76H128.123C131.499 40.76 133.915 42.888 133.915 45.88C133.915 48.872 131.531 51 128.187 51H124.699ZM128.107 42.632H126.763V49.112H128.123C130.315 49.112 131.771 47.832 131.771 45.88C131.771 43.912 130.315 42.632 128.107 42.632ZM136.627 42.312C135.987 42.312 135.491 41.8 135.491 41.16C135.491 40.536 135.987 40.024 136.627 40.024C137.251 40.024 137.779 40.536 137.779 41.16C137.779 41.8 137.251 42.312 136.627 42.312ZM137.603 51H135.651V43.336H137.603V51ZM142.143 51.208C140.911 51.208 139.903 50.888 139.151 50.472L139.775 48.968C140.655 49.384 141.391 49.608 142.239 49.608C143.103 49.608 143.503 49.304 143.503 48.856C143.503 47.48 139.375 48.296 139.375 45.4C139.375 44.248 140.399 43.128 142.367 43.128C143.439 43.128 144.255 43.352 145.231 43.816L144.511 45.272C143.967 44.968 143.151 44.728 142.527 44.728C141.791 44.728 141.343 44.968 141.343 45.384C141.343 46.792 145.439 45.912 145.439 48.824C145.439 50.152 144.255 51.208 142.143 51.208ZM150.209 51.208C148.193 51.208 146.545 49.56 146.545 47.16C146.545 44.856 148.097 43.128 150.209 43.128C151.249 43.128 152.049 43.592 152.561 44.344V43.336H154.513V51H152.561V49.912C152.049 50.696 151.249 51.208 150.209 51.208ZM150.529 49.384C151.713 49.384 152.561 48.392 152.561 47.16C152.561 45.928 151.713 44.952 150.529 44.952C149.345 44.952 148.497 45.928 148.497 47.16C148.497 48.392 149.345 49.384 150.529 49.384ZM160.986 43.128C163.002 43.128 164.666 44.776 164.666 47.176C164.666 49.48 163.114 51.208 160.986 51.208C159.946 51.208 159.146 50.744 158.634 49.976V51H156.682V39.992H158.634V44.424C159.146 43.64 159.946 43.128 160.986 43.128ZM160.682 44.952C159.498 44.952 158.634 45.944 158.634 47.176C158.634 48.408 159.498 49.384 160.682 49.384C161.85 49.384 162.714 48.408 162.714 47.176C162.714 45.944 161.85 44.952 160.682 44.952ZM169.282 49.304L169.49 51.016C169.202 51.112 168.834 51.176 168.546 51.176C167.442 51.176 166.322 50.472 166.322 48.52V39.992H168.274V48.568C168.274 49.16 168.61 49.384 168.962 49.384C169.058 49.384 169.186 49.352 169.282 49.304ZM174.735 51.208C172.351 51.208 170.623 49.4 170.623 47.16C170.623 44.936 172.271 43.128 174.479 43.128C176.671 43.128 178.351 44.808 178.351 47.016C178.351 47.272 178.335 47.576 178.303 47.704H172.623C172.831 48.76 173.631 49.496 174.799 49.496C175.583 49.496 176.239 49.16 176.687 48.696L177.695 50.04C177.103 50.696 176.015 51.208 174.735 51.208ZM174.511 44.776C173.583 44.776 172.911 45.416 172.671 46.344H176.335C176.095 45.32 175.407 44.776 174.511 44.776ZM183.084 51.208C181.068 51.208 179.42 49.56 179.42 47.16C179.42 44.856 180.972 43.128 183.084 43.128C184.124 43.128 184.924 43.592 185.436 44.344V39.992H187.388V51H185.436V49.912C184.924 50.696 184.124 51.208 183.084 51.208ZM183.404 49.384C184.588 49.384 185.436 48.392 185.436 47.16C185.436 45.928 184.588 44.952 183.404 44.952C182.22 44.952 181.372 45.928 181.372 47.16C181.372 48.392 182.22 49.384 183.404 49.384Z" fill="white"/>
<path d="M24.5 114C24.5 102.126 34.1259 92.5 46 92.5H266C277.874 92.5 287.5 102.126 287.5 114C287.5 125.874 277.874 135.5 266 135.5H46C34.1259 135.5 24.5 125.874 24.5 114Z" stroke="#BBAFE9"/>
<path d="M124.699 119V108.76H128.123C131.499 108.76 133.915 110.888 133.915 113.88C133.915 116.872 131.531 119 128.187 119H124.699ZM128.107 110.632H126.763V117.112H128.123C130.315 117.112 131.771 115.832 131.771 113.88C131.771 111.912 130.315 110.632 128.107 110.632ZM136.627 110.312C135.987 110.312 135.491 109.8 135.491 109.16C135.491 108.536 135.987 108.024 136.627 108.024C137.251 108.024 137.779 108.536 137.779 109.16C137.779 109.8 137.251 110.312 136.627 110.312ZM137.603 119H135.651V111.336H137.603V119ZM142.143 119.208C140.911 119.208 139.903 118.888 139.151 118.472L139.775 116.968C140.655 117.384 141.391 117.608 142.239 117.608C143.103 117.608 143.503 117.304 143.503 116.856C143.503 115.48 139.375 116.296 139.375 113.4C139.375 112.248 140.399 111.128 142.367 111.128C143.439 111.128 144.255 111.352 145.231 111.816L144.511 113.272C143.967 112.968 143.151 112.728 142.527 112.728C141.791 112.728 141.343 112.968 141.343 113.384C141.343 114.792 145.439 113.912 145.439 116.824C145.439 118.152 144.255 119.208 142.143 119.208ZM150.209 119.208C148.193 119.208 146.545 117.56 146.545 115.16C146.545 112.856 148.097 111.128 150.209 111.128C151.249 111.128 152.049 111.592 152.561 112.344V111.336H154.513V119H152.561V117.912C152.049 118.696 151.249 119.208 150.209 119.208ZM150.529 117.384C151.713 117.384 152.561 116.392 152.561 115.16C152.561 113.928 151.713 112.952 150.529 112.952C149.345 112.952 148.497 113.928 148.497 115.16C148.497 116.392 149.345 117.384 150.529 117.384ZM160.986 111.128C163.002 111.128 164.666 112.776 164.666 115.176C164.666 117.48 163.114 119.208 160.986 119.208C159.946 119.208 159.146 118.744 158.634 117.976V119H156.682V107.992H158.634V112.424C159.146 111.64 159.946 111.128 160.986 111.128ZM160.682 112.952C159.498 112.952 158.634 113.944 158.634 115.176C158.634 116.408 159.498 117.384 160.682 117.384C161.85 117.384 162.714 116.408 162.714 115.176C162.714 113.944 161.85 112.952 160.682 112.952ZM169.282 117.304L169.49 119.016C169.202 119.112 168.834 119.176 168.546 119.176C167.442 119.176 166.322 118.472 166.322 116.52V107.992H168.274V116.568C168.274 117.16 168.61 117.384 168.962 117.384C169.058 117.384 169.186 117.352 169.282 117.304ZM174.735 119.208C172.351 119.208 170.623 117.4 170.623 115.16C170.623 112.936 172.271 111.128 174.479 111.128C176.671 111.128 178.351 112.808 178.351 115.016C178.351 115.272 178.335 115.576 178.303 115.704H172.623C172.831 116.76 173.631 117.496 174.799 117.496C175.583 117.496 176.239 117.16 176.687 116.696L177.695 118.04C177.103 118.696 176.015 119.208 174.735 119.208ZM174.511 112.776C173.583 112.776 172.911 113.416 172.671 114.344H176.335C176.095 113.32 175.407 112.776 174.511 112.776ZM183.084 119.208C181.068 119.208 179.42 117.56 179.42 115.16C179.42 112.856 180.972 111.128 183.084 111.128C184.124 111.128 184.924 111.592 185.436 112.344V107.992H187.388V119H185.436V117.912C184.924 118.696 184.124 119.208 183.084 119.208ZM183.404 117.384C184.588 117.384 185.436 116.392 185.436 115.16C185.436 113.928 184.588 112.952 183.404 112.952C182.22 112.952 181.372 113.928 181.372 115.16C181.372 116.392 182.22 117.384 183.404 117.384Z" fill="#BBAFE9"/>
<path d="M124.699 187V176.76H128.123C131.499 176.76 133.915 178.888 133.915 181.88C133.915 184.872 131.531 187 128.187 187H124.699ZM128.107 178.632H126.763V185.112H128.123C130.315 185.112 131.771 183.832 131.771 181.88C131.771 179.912 130.315 178.632 128.107 178.632ZM136.627 178.312C135.987 178.312 135.491 177.8 135.491 177.16C135.491 176.536 135.987 176.024 136.627 176.024C137.251 176.024 137.779 176.536 137.779 177.16C137.779 177.8 137.251 178.312 136.627 178.312ZM137.603 187H135.651V179.336H137.603V187ZM142.143 187.208C140.911 187.208 139.903 186.888 139.151 186.472L139.775 184.968C140.655 185.384 141.391 185.608 142.239 185.608C143.103 185.608 143.503 185.304 143.503 184.856C143.503 183.48 139.375 184.296 139.375 181.4C139.375 180.248 140.399 179.128 142.367 179.128C143.439 179.128 144.255 179.352 145.231 179.816L144.511 181.272C143.967 180.968 143.151 180.728 142.527 180.728C141.791 180.728 141.343 180.968 141.343 181.384C141.343 182.792 145.439 181.912 145.439 184.824C145.439 186.152 144.255 187.208 142.143 187.208ZM150.209 187.208C148.193 187.208 146.545 185.56 146.545 183.16C146.545 180.856 148.097 179.128 150.209 179.128C151.249 179.128 152.049 179.592 152.561 180.344V179.336H154.513V187H152.561V185.912C152.049 186.696 151.249 187.208 150.209 187.208ZM150.529 185.384C151.713 185.384 152.561 184.392 152.561 183.16C152.561 181.928 151.713 180.952 150.529 180.952C149.345 180.952 148.497 181.928 148.497 183.16C148.497 184.392 149.345 185.384 150.529 185.384ZM160.986 179.128C163.002 179.128 164.666 180.776 164.666 183.176C164.666 185.48 163.114 187.208 160.986 187.208C159.946 187.208 159.146 186.744 158.634 185.976V187H156.682V175.992H158.634V180.424C159.146 179.64 159.946 179.128 160.986 179.128ZM160.682 180.952C159.498 180.952 158.634 181.944 158.634 183.176C158.634 184.408 159.498 185.384 160.682 185.384C161.85 185.384 162.714 184.408 162.714 183.176C162.714 181.944 161.85 180.952 160.682 180.952ZM169.282 185.304L169.49 187.016C169.202 187.112 168.834 187.176 168.546 187.176C167.442 187.176 166.322 186.472 166.322 184.52V175.992H168.274V184.568C168.274 185.16 168.61 185.384 168.962 185.384C169.058 185.384 169.186 185.352 169.282 185.304ZM174.735 187.208C172.351 187.208 170.623 185.4 170.623 183.16C170.623 180.936 172.271 179.128 174.479 179.128C176.671 179.128 178.351 180.808 178.351 183.016C178.351 183.272 178.335 183.576 178.303 183.704H172.623C172.831 184.76 173.631 185.496 174.799 185.496C175.583 185.496 176.239 185.16 176.687 184.696L177.695 186.04C177.103 186.696 176.015 187.208 174.735 187.208ZM174.511 180.776C173.583 180.776 172.911 181.416 172.671 182.344H176.335C176.095 181.32 175.407 180.776 174.511 180.776ZM183.084 187.208C181.068 187.208 179.42 185.56 179.42 183.16C179.42 180.856 180.972 179.128 183.084 179.128C184.124 179.128 184.924 179.592 185.436 180.344V175.992H187.388V187H185.436V185.912C184.924 186.696 184.124 187.208 183.084 187.208ZM183.404 185.384C184.588 185.384 185.436 184.392 185.436 183.16C185.436 181.928 184.588 180.952 183.404 180.952C182.22 180.952 181.372 181.928 181.372 183.16C181.372 184.392 182.22 185.384 183.404 185.384Z" fill="#BBAFE9"/>
</svg>
