<svg width="152" height="44" viewBox="0 0 152 44" fill="none" xmlns="http://www.w3.org/2000/svg">
<g clip-path="url(#clip0_6330_29495)">
<path d="M0 22C0 9.84974 9.84974 0 22 0H130C142.15 0 152 9.84974 152 22C152 34.1503 142.15 44 130 44H22C9.84973 44 0 34.1503 0 22Z" fill="#794CFF"/>
<path d="M52.2118 27.0162C51.7318 26.8882 51.1238 26.5842 50.3398 26.0722L51.2038 24.3922C52.0678 24.9362 53.3158 25.3202 54.3238 25.3202C55.3318 25.3202 56.0838 24.9522 56.0838 24.1362C56.0838 22.3122 50.6918 23.1762 50.6918 19.5442C50.6918 17.6402 52.4358 16.5202 54.5158 16.5202C55.8118 16.5202 57.0278 16.8722 57.9718 17.5922L56.9958 19.1762C56.3398 18.7442 55.3158 18.3922 54.4198 18.3922C53.4918 18.3922 52.8358 18.8242 52.8358 19.4962C52.8358 21.3682 58.2118 20.5362 58.2118 24.0242C58.2118 26.1362 56.3558 27.2082 54.1798 27.2082C53.3318 27.2082 52.6758 27.1442 52.2118 27.0162ZM61.6784 19.3362V23.4802C61.6784 24.6002 62.3184 25.3522 63.2944 25.3522C64.2704 25.3522 64.9264 24.6002 64.9264 23.4802V19.3362H66.8944V23.6242C66.8944 25.7682 65.4544 27.1922 63.2944 27.1922C61.1344 27.1922 59.7264 25.7682 59.7264 23.6242V19.3362H61.6784ZM73.267 19.1282C75.283 19.1282 76.947 20.7762 76.947 23.1762C76.947 25.4802 75.395 27.2082 73.267 27.2082C72.227 27.2082 71.427 26.7442 70.915 25.9762V27.0002H68.963V15.9922H70.915V20.4242C71.427 19.6402 72.227 19.1282 73.267 19.1282ZM72.963 20.9522C71.779 20.9522 70.915 21.9442 70.915 23.1762C70.915 24.4082 71.779 25.3842 72.963 25.3842C74.131 25.3842 74.995 24.4082 74.995 23.1762C74.995 21.9442 74.131 20.9522 72.963 20.9522ZM80.5556 27.0002H78.6036V19.3362H80.5556V20.5042C80.9556 19.6722 81.7076 19.1282 82.7156 19.1282C83.8836 19.1282 84.7796 19.7042 85.2276 20.7282C85.6276 19.8162 86.3636 19.1282 87.5796 19.1282C89.3556 19.1282 90.5236 20.3122 90.5236 22.3602V27.0002H88.5556V22.6482C88.5556 21.6082 87.9796 20.9522 87.0516 20.9522C86.1236 20.9522 85.5316 21.6082 85.5316 22.6482V27.0002H83.5796V22.6482C83.5796 21.6082 83.0036 20.9522 82.0756 20.9522C81.1476 20.9522 80.5556 21.6082 80.5556 22.6482V27.0002ZM93.5953 18.3122C92.9553 18.3122 92.4593 17.8002 92.4593 17.1602C92.4593 16.5362 92.9553 16.0242 93.5953 16.0242C94.2193 16.0242 94.7473 16.5362 94.7473 17.1602C94.7473 17.8002 94.2193 18.3122 93.5953 18.3122ZM94.5713 27.0002H92.6193V19.3362H94.5713V27.0002ZM95.9759 21.0642V19.3362H97.3199V17.3522H99.2879V19.3362H101.352V21.0642H99.3039V24.3282C99.3039 25.0482 99.5919 25.3842 100.168 25.3842C100.536 25.3842 100.888 25.2242 101.08 25.0002L101.944 26.4562C101.528 26.8722 100.808 27.2082 99.8639 27.2082C98.3119 27.2082 97.3199 26.2482 97.3199 24.3762V21.0642H95.9759Z" fill="white"/>
</g>
<defs>
<clipPath id="clip0_6330_29495">
<rect width="152" height="44" fill="white"/>
</clipPath>
</defs>
</svg>
