<svg width="264" height="44" viewBox="0 0 264 44" fill="none" xmlns="http://www.w3.org/2000/svg">
<g clip-path="url(#clip0_6330_29680)">
<path d="M22 0.5H242C253.874 0.5 263.5 10.1259 263.5 22C263.5 33.8741 253.874 43.5 242 43.5H22C10.1259 43.5 0.5 33.8741 0.5 22C0.5 10.1259 10.1259 0.5 22 0.5Z" stroke="#794CFF"/>
<path d="M105.457 27.0002V16.7602H108.881C112.257 16.7602 114.673 18.8882 114.673 21.8802C114.673 24.8722 112.289 27.0002 108.945 27.0002H105.457ZM108.865 18.6322H107.521V25.1122H108.881C111.073 25.1122 112.529 23.8322 112.529 21.8802C112.529 19.9122 111.073 18.6322 108.865 18.6322ZM120.024 27.2082C117.64 27.2082 115.912 25.4002 115.912 23.1602C115.912 20.9362 117.56 19.1282 119.768 19.1282C121.96 19.1282 123.64 20.8082 123.64 23.0162C123.64 23.2722 123.624 23.5762 123.592 23.7042H117.912C118.12 24.7602 118.92 25.4962 120.088 25.4962C120.872 25.4962 121.528 25.1602 121.976 24.6962L122.984 26.0402C122.392 26.6962 121.304 27.2082 120.024 27.2082ZM119.8 20.7762C118.872 20.7762 118.2 21.4162 117.96 22.3442H121.624C121.384 21.3202 120.696 20.7762 119.8 20.7762ZM124.517 21.0642V19.3362H125.765V18.8882C125.765 16.9522 126.869 15.7842 128.581 15.7842C129.621 15.7842 130.293 16.0722 130.789 16.5682L129.829 18.0402C129.605 17.8002 129.189 17.6082 128.773 17.6082C128.133 17.6082 127.733 18.0402 127.733 18.8722V19.3362H129.717V21.0642H127.733V27.0002H125.765V21.0642H124.517ZM133.904 27.2082C131.888 27.2082 130.24 25.5602 130.24 23.1602C130.24 20.8562 131.792 19.1282 133.904 19.1282C134.944 19.1282 135.744 19.5922 136.256 20.3442V19.3362H138.208V27.0002H136.256V25.9122C135.744 26.6962 134.944 27.2082 133.904 27.2082ZM134.224 25.3842C135.408 25.3842 136.256 24.3922 136.256 23.1602C136.256 21.9282 135.408 20.9522 134.224 20.9522C133.04 20.9522 132.192 21.9282 132.192 23.1602C132.192 24.3922 133.04 25.3842 134.224 25.3842ZM142.233 19.3362V23.4802C142.233 24.6002 142.873 25.3522 143.849 25.3522C144.825 25.3522 145.481 24.6002 145.481 23.4802V19.3362H147.449V23.6242C147.449 25.7682 146.009 27.1922 143.849 27.1922C141.689 27.1922 140.281 25.7682 140.281 23.6242V19.3362H142.233ZM152.478 25.3042L152.686 27.0162C152.398 27.1122 152.03 27.1762 151.742 27.1762C150.638 27.1762 149.518 26.4722 149.518 24.5202V15.9922H151.47V24.5682C151.47 25.1602 151.806 25.3842 152.158 25.3842C152.254 25.3842 152.382 25.3522 152.478 25.3042ZM153.531 21.0642V19.3362H154.875V17.3522H156.843V19.3362H158.907V21.0642H156.859V24.3282C156.859 25.0482 157.147 25.3842 157.723 25.3842C158.091 25.3842 158.443 25.2242 158.635 25.0002L159.499 26.4562C159.083 26.8722 158.363 27.2082 157.419 27.2082C155.867 27.2082 154.875 26.2482 154.875 24.3762V21.0642H153.531Z" fill="#794CFF"/>
</g>
<defs>
<clipPath id="clip0_6330_29680">
<rect width="264" height="44" fill="white"/>
</clipPath>
</defs>
</svg>
