<svg width="312" height="264" viewBox="0 0 312 264" fill="none" xmlns="http://www.w3.org/2000/svg">
<path d="M25 52C25 37.0883 37.0883 25 52 25H260C274.912 25 287 37.0883 287 52C287 66.9117 274.912 79 260 79H52C37.0883 79 25 66.9117 25 52Z" stroke="#733AC4" stroke-width="2"/>
<path d="M30 52C30 39.8497 39.8497 30 52 30H260C272.15 30 282 39.8497 282 52V52C282 64.1503 272.15 74 260 74H52C39.8497 74 30 64.1503 30 52V52Z" fill="#733AC4"/>
<path d="M136.637 57V46.76H143.133V48.632H138.637V51.112H142.493V53H138.637V57H136.637ZM147.748 57.208C145.524 57.208 143.764 55.4 143.764 53.16C143.764 50.936 145.524 49.128 147.748 49.128C149.972 49.128 151.732 50.936 151.732 53.16C151.732 55.4 149.972 57.208 147.748 57.208ZM147.748 55.384C148.932 55.384 149.78 54.392 149.78 53.16C149.78 51.928 148.932 50.952 147.748 50.952C146.564 50.952 145.716 51.928 145.716 53.16C145.716 54.392 146.564 55.384 147.748 55.384ZM158.824 51.656C158.328 51.192 157.768 50.952 157 50.952C155.72 50.952 154.872 51.928 154.872 53.16C154.872 54.392 155.736 55.384 157 55.384C157.768 55.384 158.392 55.112 158.888 54.632L159.88 56.072C159.272 56.744 158.152 57.208 156.952 57.208C154.664 57.208 152.92 55.4 152.92 53.16C152.92 50.936 154.68 49.128 156.92 49.128C158.216 49.128 159.256 49.56 159.944 50.264L158.824 51.656ZM163.085 49.336V53.48C163.085 54.6 163.725 55.352 164.701 55.352C165.677 55.352 166.333 54.6 166.333 53.48V49.336H168.301V53.624C168.301 55.768 166.861 57.192 164.701 57.192C162.541 57.192 161.133 55.768 161.133 53.624V49.336H163.085ZM172.721 57.208C171.489 57.208 170.481 56.888 169.729 56.472L170.353 54.968C171.233 55.384 171.969 55.608 172.817 55.608C173.681 55.608 174.081 55.304 174.081 54.856C174.081 53.48 169.953 54.296 169.953 51.4C169.953 50.248 170.977 49.128 172.945 49.128C174.017 49.128 174.833 49.352 175.809 49.816L175.089 51.272C174.545 50.968 173.729 50.728 173.105 50.728C172.369 50.728 171.921 50.968 171.921 51.384C171.921 52.792 176.017 51.912 176.017 54.824C176.017 56.152 174.833 57.208 172.721 57.208Z" fill="white"/>
<path d="M25 132C25 117.088 37.0883 105 52 105H260C274.912 105 287 117.088 287 132C287 146.912 274.912 159 260 159H52C37.0883 159 25 146.912 25 132Z" stroke="#733AC4" stroke-width="2"/>
<path d="M52 110.5H260C271.874 110.5 281.5 120.126 281.5 132C281.5 143.874 271.874 153.5 260 153.5H52C40.1259 153.5 30.5 143.874 30.5 132C30.5 120.126 40.1259 110.5 52 110.5Z" stroke="#733AC4"/>
<path d="M136.637 137V126.76H143.133V128.632H138.637V131.112H142.493V133H138.637V137H136.637ZM147.748 137.208C145.524 137.208 143.764 135.4 143.764 133.16C143.764 130.936 145.524 129.128 147.748 129.128C149.972 129.128 151.732 130.936 151.732 133.16C151.732 135.4 149.972 137.208 147.748 137.208ZM147.748 135.384C148.932 135.384 149.78 134.392 149.78 133.16C149.78 131.928 148.932 130.952 147.748 130.952C146.564 130.952 145.716 131.928 145.716 133.16C145.716 134.392 146.564 135.384 147.748 135.384ZM158.824 131.656C158.328 131.192 157.768 130.952 157 130.952C155.72 130.952 154.872 131.928 154.872 133.16C154.872 134.392 155.736 135.384 157 135.384C157.768 135.384 158.392 135.112 158.888 134.632L159.88 136.072C159.272 136.744 158.152 137.208 156.952 137.208C154.664 137.208 152.92 135.4 152.92 133.16C152.92 130.936 154.68 129.128 156.92 129.128C158.216 129.128 159.256 129.56 159.944 130.264L158.824 131.656ZM163.085 129.336V133.48C163.085 134.6 163.725 135.352 164.701 135.352C165.677 135.352 166.333 134.6 166.333 133.48V129.336H168.301V133.624C168.301 135.768 166.861 137.192 164.701 137.192C162.541 137.192 161.133 135.768 161.133 133.624V129.336H163.085ZM172.721 137.208C171.489 137.208 170.481 136.888 169.729 136.472L170.353 134.968C171.233 135.384 171.969 135.608 172.817 135.608C173.681 135.608 174.081 135.304 174.081 134.856C174.081 133.48 169.953 134.296 169.953 131.4C169.953 130.248 170.977 129.128 172.945 129.128C174.017 129.128 174.833 129.352 175.809 129.816L175.089 131.272C174.545 130.968 173.729 130.728 173.105 130.728C172.369 130.728 171.921 130.968 171.921 131.384C171.921 132.792 176.017 131.912 176.017 134.824C176.017 136.152 174.833 137.208 172.721 137.208Z" fill="#733AC4"/>
<path d="M25 212C25 197.088 37.0883 185 52 185H260C274.912 185 287 197.088 287 212C287 226.912 274.912 239 260 239H52C37.0883 239 25 226.912 25 212Z" stroke="#733AC4" stroke-width="2"/>
<path d="M136.637 217V206.76H143.133V208.632H138.637V211.112H142.493V213H138.637V217H136.637ZM147.748 217.208C145.524 217.208 143.764 215.4 143.764 213.16C143.764 210.936 145.524 209.128 147.748 209.128C149.972 209.128 151.732 210.936 151.732 213.16C151.732 215.4 149.972 217.208 147.748 217.208ZM147.748 215.384C148.932 215.384 149.78 214.392 149.78 213.16C149.78 211.928 148.932 210.952 147.748 210.952C146.564 210.952 145.716 211.928 145.716 213.16C145.716 214.392 146.564 215.384 147.748 215.384ZM158.824 211.656C158.328 211.192 157.768 210.952 157 210.952C155.72 210.952 154.872 211.928 154.872 213.16C154.872 214.392 155.736 215.384 157 215.384C157.768 215.384 158.392 215.112 158.888 214.632L159.88 216.072C159.272 216.744 158.152 217.208 156.952 217.208C154.664 217.208 152.92 215.4 152.92 213.16C152.92 210.936 154.68 209.128 156.92 209.128C158.216 209.128 159.256 209.56 159.944 210.264L158.824 211.656ZM163.085 209.336V213.48C163.085 214.6 163.725 215.352 164.701 215.352C165.677 215.352 166.333 214.6 166.333 213.48V209.336H168.301V213.624C168.301 215.768 166.861 217.192 164.701 217.192C162.541 217.192 161.133 215.768 161.133 213.624V209.336H163.085ZM172.721 217.208C171.489 217.208 170.481 216.888 169.729 216.472L170.353 214.968C171.233 215.384 171.969 215.608 172.817 215.608C173.681 215.608 174.081 215.304 174.081 214.856C174.081 213.48 169.953 214.296 169.953 211.4C169.953 210.248 170.977 209.128 172.945 209.128C174.017 209.128 174.833 209.352 175.809 209.816L175.089 211.272C174.545 210.968 173.729 210.728 173.105 210.728C172.369 210.728 171.921 210.968 171.921 211.384C171.921 212.792 176.017 211.912 176.017 214.824C176.017 216.152 174.833 217.208 172.721 217.208Z" fill="#733AC4"/>
<path d="M135.469 219H176.529V219.8H135.469V219Z" fill="#733AC4"/>
</svg>
