<svg width="80" height="40" viewBox="0 0 80 40" fill="none" xmlns="http://www.w3.org/2000/svg">
<g clip-path="url(#clip0_6330_29508)">
<path d="M0 20C0 8.95431 8.95431 0 20 0H60C71.0457 0 80 8.95431 80 20C80 31.0457 71.0457 40 60 40H20C8.95431 40 0 31.0457 0 20Z" fill="#794CFF"/>
<path d="M22.1579 24.0121C21.7979 23.9161 21.3419 23.6881 20.7539 23.3041L21.4019 22.0441C22.0499 22.4521 22.9859 22.7401 23.7419 22.7401C24.4979 22.7401 25.0619 22.4641 25.0619 21.8521C25.0619 20.4841 21.0179 21.1321 21.0179 18.4081C21.0179 16.9801 22.3259 16.1401 23.8859 16.1401C24.8579 16.1401 25.7699 16.4041 26.4779 16.9441L25.7459 18.1321C25.2539 17.8081 24.4859 17.5441 23.8139 17.5441C23.1179 17.5441 22.6259 17.8681 22.6259 18.3721C22.6259 19.7761 26.6579 19.1521 26.6579 21.7681C26.6579 23.3521 25.2659 24.1561 23.6339 24.1561C22.9979 24.1561 22.5059 24.1081 22.1579 24.0121ZM29.2579 18.2521V21.3601C29.2579 22.2001 29.7379 22.7641 30.4699 22.7641C31.2019 22.7641 31.6939 22.2001 31.6939 21.3601V18.2521H33.1699V21.4681C33.1699 23.0761 32.0899 24.1441 30.4699 24.1441C28.8499 24.1441 27.7939 23.0761 27.7939 21.4681V18.2521H29.2579ZM37.9494 18.0961C39.4614 18.0961 40.7094 19.3321 40.7094 21.1321C40.7094 22.8601 39.5454 24.1561 37.9494 24.1561C37.1694 24.1561 36.5694 23.8081 36.1854 23.2321V24.0001H34.7214V15.7441H36.1854V19.0681C36.5694 18.4801 37.1694 18.0961 37.9494 18.0961ZM37.7214 19.4641C36.8334 19.4641 36.1854 20.2081 36.1854 21.1321C36.1854 22.0561 36.8334 22.7881 37.7214 22.7881C38.5974 22.7881 39.2454 22.0561 39.2454 21.1321C39.2454 20.2081 38.5974 19.4641 37.7214 19.4641ZM43.4158 24.0001H41.9518V18.2521H43.4158V19.1281C43.7158 18.5041 44.2798 18.0961 45.0358 18.0961C45.9118 18.0961 46.5838 18.5281 46.9198 19.2961C47.2198 18.6121 47.7718 18.0961 48.6838 18.0961C50.0158 18.0961 50.8918 18.9841 50.8918 20.5201V24.0001H49.4158V20.7361C49.4158 19.9561 48.9838 19.4641 48.2878 19.4641C47.5918 19.4641 47.1478 19.9561 47.1478 20.7361V24.0001H45.6838V20.7361C45.6838 19.9561 45.2518 19.4641 44.5558 19.4641C43.8598 19.4641 43.4158 19.9561 43.4158 20.7361V24.0001ZM53.1955 17.4841C52.7155 17.4841 52.3435 17.1001 52.3435 16.6201C52.3435 16.1521 52.7155 15.7681 53.1955 15.7681C53.6635 15.7681 54.0595 16.1521 54.0595 16.6201C54.0595 17.1001 53.6635 17.4841 53.1955 17.4841ZM53.9275 24.0001H52.4635V18.2521H53.9275V24.0001ZM54.981 19.5481V18.2521H55.989V16.7641H57.465V18.2521H59.013V19.5481H57.477V21.9961C57.477 22.5361 57.693 22.7881 58.125 22.7881C58.401 22.7881 58.665 22.6681 58.809 22.5001L59.457 23.5921C59.145 23.9041 58.605 24.1561 57.897 24.1561C56.733 24.1561 55.989 23.4361 55.989 22.0321V19.5481H54.981Z" fill="white"/>
</g>
<defs>
<clipPath id="clip0_6330_29508">
<rect width="80" height="40" fill="white"/>
</clipPath>
</defs>
</svg>
