<svg width="113" height="44" viewBox="0 0 113 44" fill="none" xmlns="http://www.w3.org/2000/svg">
<g clip-path="url(#clip0_6330_29660)">
<path d="M0 22C0 9.84974 9.84974 0 22 0H91C103.15 0 113 9.84974 113 22C113 34.1503 103.15 44 91 44H22C9.84974 44 0 34.1503 0 22Z" fill="#BBAFE9"/>
<path d="M25.1992 27.0002V16.7602H28.6232C31.9992 16.7602 34.4152 18.8882 34.4152 21.8802C34.4152 24.8722 32.0311 27.0002 28.6872 27.0002H25.1992ZM28.6072 18.6322H27.2632V25.1122H28.6232C30.8152 25.1122 32.2712 23.8322 32.2712 21.8802C32.2712 19.9122 30.8152 18.6322 28.6072 18.6322ZM37.1264 18.3122C36.4864 18.3122 35.9904 17.8002 35.9904 17.1602C35.9904 16.5362 36.4864 16.0242 37.1264 16.0242C37.7504 16.0242 38.2784 16.5362 38.2784 17.1602C38.2784 17.8002 37.7504 18.3122 37.1264 18.3122ZM38.1024 27.0002H36.1504V19.3362H38.1024V27.0002ZM42.643 27.2082C41.411 27.2082 40.403 26.8882 39.651 26.4722L40.275 24.9682C41.155 25.3842 41.891 25.6082 42.739 25.6082C43.603 25.6082 44.003 25.3042 44.003 24.8562C44.003 23.4802 39.875 24.2962 39.875 21.4002C39.875 20.2482 40.899 19.1282 42.867 19.1282C43.939 19.1282 44.755 19.3522 45.731 19.8162L45.011 21.2722C44.467 20.9682 43.651 20.7282 43.027 20.7282C42.291 20.7282 41.843 20.9682 41.843 21.3842C41.843 22.7922 45.939 21.9122 45.939 24.8242C45.939 26.1522 44.755 27.2082 42.643 27.2082ZM50.709 27.2082C48.693 27.2082 47.045 25.5602 47.045 23.1602C47.045 20.8562 48.597 19.1282 50.709 19.1282C51.749 19.1282 52.549 19.5922 53.061 20.3442V19.3362H55.013V27.0002H53.061V25.9122C52.549 26.6962 51.749 27.2082 50.709 27.2082ZM51.029 25.3842C52.213 25.3842 53.061 24.3922 53.061 23.1602C53.061 21.9282 52.213 20.9522 51.029 20.9522C49.845 20.9522 48.997 21.9282 48.997 23.1602C48.997 24.3922 49.845 25.3842 51.029 25.3842ZM61.4857 19.1282C63.5017 19.1282 65.1657 20.7762 65.1657 23.1762C65.1657 25.4802 63.6137 27.2082 61.4857 27.2082C60.4457 27.2082 59.6457 26.7442 59.1337 25.9762V27.0002H57.1817V15.9922H59.1337V20.4242C59.6457 19.6402 60.4457 19.1282 61.4857 19.1282ZM61.1817 20.9522C59.9977 20.9522 59.1337 21.9442 59.1337 23.1762C59.1337 24.4082 59.9977 25.3842 61.1817 25.3842C62.3497 25.3842 63.2137 24.4082 63.2137 23.1762C63.2137 21.9442 62.3497 20.9522 61.1817 20.9522ZM69.7823 25.3042L69.9903 27.0162C69.7023 27.1122 69.3343 27.1762 69.0463 27.1762C67.9423 27.1762 66.8223 26.4722 66.8223 24.5202V15.9922H68.7743V24.5682C68.7743 25.1602 69.1103 25.3842 69.4623 25.3842C69.5583 25.3842 69.6863 25.3522 69.7823 25.3042ZM75.2351 27.2082C72.8512 27.2082 71.1232 25.4002 71.1232 23.1602C71.1232 20.9362 72.7712 19.1282 74.9792 19.1282C77.1712 19.1282 78.8512 20.8082 78.8512 23.0162C78.8512 23.2722 78.8352 23.5762 78.8032 23.7042H73.1232C73.3312 24.7602 74.1312 25.4962 75.2992 25.4962C76.0832 25.4962 76.7392 25.1602 77.1872 24.6962L78.1952 26.0402C77.6032 26.6962 76.5152 27.2082 75.2351 27.2082ZM75.0112 20.7762C74.0832 20.7762 73.4112 21.4162 73.1712 22.3442H76.8352C76.5952 21.3202 75.9072 20.7762 75.0112 20.7762ZM83.584 27.2082C81.568 27.2082 79.92 25.5602 79.92 23.1602C79.92 20.8562 81.472 19.1282 83.584 19.1282C84.624 19.1282 85.424 19.5922 85.936 20.3442V15.9922H87.888V27.0002H85.936V25.9122C85.424 26.6962 84.624 27.2082 83.584 27.2082ZM83.904 25.3842C85.088 25.3842 85.936 24.3922 85.936 23.1602C85.936 21.9282 85.088 20.9522 83.904 20.9522C82.72 20.9522 81.872 21.9282 81.872 23.1602C81.872 24.3922 82.72 25.3842 83.904 25.3842Z" fill="white"/>
</g>
<defs>
<clipPath id="clip0_6330_29660">
<rect width="113" height="44" fill="white"/>
</clipPath>
</defs>
</svg>
