<svg width="152" height="44" viewBox="0 0 152 44" fill="none" xmlns="http://www.w3.org/2000/svg">
<g clip-path="url(#clip0_6330_29641)">
<path d="M22 0.5H130C141.874 0.5 151.5 10.1259 151.5 22C151.5 33.8741 141.874 43.5 130 43.5H22C10.1259 43.5 0.5 33.8741 0.5 22C0.5 10.1259 10.1259 0.5 22 0.5Z" stroke="#794CFF"/>
<path d="M39.5165 27.0162C39.0365 26.8882 38.4285 26.5842 37.6445 26.0722L38.5085 24.3922C39.3725 24.9362 40.6205 25.3202 41.6285 25.3202C42.6365 25.3202 43.3885 24.9522 43.3885 24.1362C43.3885 22.3122 37.9965 23.1762 37.9965 19.5442C37.9965 17.6402 39.7405 16.5202 41.8205 16.5202C43.1165 16.5202 44.3325 16.8722 45.2765 17.5922L44.3005 19.1762C43.6445 18.7442 42.6205 18.3922 41.7245 18.3922C40.7965 18.3922 40.1405 18.8242 40.1405 19.4962C40.1405 21.3682 45.5165 20.5362 45.5165 24.0242C45.5165 26.1362 43.6605 27.2082 41.4845 27.2082C40.6365 27.2082 39.9805 27.1442 39.5165 27.0162ZM50.7432 27.2082C48.3592 27.2082 46.6312 25.4002 46.6312 23.1602C46.6312 20.9362 48.2792 19.1282 50.4872 19.1282C52.6792 19.1282 54.3592 20.8082 54.3592 23.0162C54.3592 23.2722 54.3432 23.5762 54.3112 23.7042H48.6312C48.8392 24.7602 49.6392 25.4962 50.8072 25.4962C51.5912 25.4962 52.2472 25.1602 52.6952 24.6962L53.7032 26.0402C53.1112 26.6962 52.0232 27.2082 50.7432 27.2082ZM50.5192 20.7762C49.5912 20.7762 48.9192 21.4162 48.6792 22.3442H52.3432C52.1032 21.3202 51.4152 20.7762 50.5192 20.7762ZM61.332 21.6562C60.836 21.1922 60.276 20.9522 59.508 20.9522C58.228 20.9522 57.38 21.9282 57.38 23.1602C57.38 24.3922 58.244 25.3842 59.508 25.3842C60.276 25.3842 60.9 25.1122 61.396 24.6322L62.388 26.0722C61.78 26.7442 60.66 27.2082 59.46 27.2082C57.172 27.2082 55.428 25.4002 55.428 23.1602C55.428 20.9362 57.188 19.1282 59.428 19.1282C60.724 19.1282 61.764 19.5602 62.452 20.2642L61.332 21.6562ZM66.9589 27.2082C64.7349 27.2082 62.9749 25.4002 62.9749 23.1602C62.9749 20.9362 64.7349 19.1282 66.9589 19.1282C69.1829 19.1282 70.9429 20.9362 70.9429 23.1602C70.9429 25.4002 69.1829 27.2082 66.9589 27.2082ZM66.9589 25.3842C68.1429 25.3842 68.9909 24.3922 68.9909 23.1602C68.9909 21.9282 68.1429 20.9522 66.9589 20.9522C65.7749 20.9522 64.9269 21.9282 64.9269 23.1602C64.9269 24.3922 65.7749 25.3842 66.9589 25.3842ZM72.6272 27.0002V19.3362H74.5792V20.4242C74.9792 19.6082 75.7472 19.1282 76.7552 19.1282C78.5152 19.1282 79.6512 20.3602 79.6512 22.3602V27.0002H77.6992V22.6482C77.6992 21.6082 77.1072 20.9522 76.1472 20.9522C75.1872 20.9522 74.5792 21.6082 74.5792 22.6482V27.0002H72.6272ZM84.9358 27.2082C82.9198 27.2082 81.2718 25.5602 81.2718 23.1602C81.2718 20.8562 82.8238 19.1282 84.9358 19.1282C85.9758 19.1282 86.7758 19.5922 87.2878 20.3442V15.9922H89.2398V27.0002H87.2878V25.9122C86.7758 26.6962 85.9758 27.2082 84.9358 27.2082ZM85.2558 25.3842C86.4398 25.3842 87.2878 24.3922 87.2878 23.1602C87.2878 21.9282 86.4398 20.9522 85.2558 20.9522C84.0718 20.9522 83.2238 21.9282 83.2238 23.1602C83.2238 24.3922 84.0718 25.3842 85.2558 25.3842ZM94.5764 27.2082C92.5604 27.2082 90.9124 25.5602 90.9124 23.1602C90.9124 20.8562 92.4644 19.1282 94.5764 19.1282C95.6164 19.1282 96.4164 19.5922 96.9284 20.3442V19.3362H98.8804V27.0002H96.9284V25.9122C96.4164 26.6962 95.6164 27.2082 94.5764 27.2082ZM94.8964 25.3842C96.0804 25.3842 96.9284 24.3922 96.9284 23.1602C96.9284 21.9282 96.0804 20.9522 94.8964 20.9522C93.7124 20.9522 92.8644 21.9282 92.8644 23.1602C92.8644 24.3922 93.7124 25.3842 94.8964 25.3842ZM101.049 27.0002V19.3362H103.001V20.4722C103.369 19.6562 104.025 19.1282 104.889 19.1282C105.401 19.1282 105.817 19.2562 106.105 19.4962L105.305 21.3362C105.049 21.1442 104.665 21.0162 104.281 21.0162C103.513 21.0162 103.001 21.6722 103.001 22.7122V27.0002H101.049ZM109.888 27.3042L109.952 27.1122L106.448 19.3362H108.592L110.832 24.6162L112.672 19.3362H114.64L111.504 27.9762C110.912 29.6562 109.936 30.3442 108.656 30.3442C107.84 30.3442 107.056 30.0082 106.56 29.5442L107.44 28.0082C107.808 28.3602 108.224 28.5202 108.672 28.5202C109.216 28.5202 109.568 28.2002 109.888 27.3042Z" fill="#794CFF"/>
</g>
<defs>
<clipPath id="clip0_6330_29641">
<rect width="152" height="44" fill="white"/>
</clipPath>
</defs>
</svg>
