<svg width="264" height="44" viewBox="0 0 264 44" fill="none" xmlns="http://www.w3.org/2000/svg">
<g clip-path="url(#clip0_6330_29538)">
<path d="M0 22C0 9.84974 9.84974 0 22 0H242C254.15 0 264 9.84974 264 22C264 34.1503 254.15 44 242 44H22C9.84973 44 0 34.1503 0 22Z" fill="#BF1722"/>
<path d="M109.004 27.0002V16.7602H112.428C115.804 16.7602 118.22 18.8882 118.22 21.8802C118.22 24.8722 115.836 27.0002 112.492 27.0002H109.004ZM112.412 18.6322H111.068V25.1122H112.428C114.62 25.1122 116.076 23.8322 116.076 21.8802C116.076 19.9122 114.62 18.6322 112.412 18.6322ZM123.571 27.2082C121.187 27.2082 119.459 25.4002 119.459 23.1602C119.459 20.9362 121.107 19.1282 123.315 19.1282C125.507 19.1282 127.187 20.8082 127.187 23.0162C127.187 23.2722 127.171 23.5762 127.139 23.7042H121.459C121.667 24.7602 122.467 25.4962 123.635 25.4962C124.419 25.4962 125.075 25.1602 125.523 24.6962L126.531 26.0402C125.939 26.6962 124.851 27.2082 123.571 27.2082ZM123.347 20.7762C122.419 20.7762 121.747 21.4162 121.507 22.3442H125.171C124.931 21.3202 124.243 20.7762 123.347 20.7762ZM131.712 25.3042L131.92 27.0162C131.632 27.1122 131.264 27.1762 130.976 27.1762C129.872 27.1762 128.752 26.4722 128.752 24.5202V15.9922H130.704V24.5682C130.704 25.1602 131.04 25.3842 131.392 25.3842C131.488 25.3842 131.616 25.3522 131.712 25.3042ZM137.165 27.2082C134.781 27.2082 133.053 25.4002 133.053 23.1602C133.053 20.9362 134.701 19.1282 136.909 19.1282C139.101 19.1282 140.781 20.8082 140.781 23.0162C140.781 23.2722 140.765 23.5762 140.733 23.7042H135.053C135.261 24.7602 136.061 25.4962 137.229 25.4962C138.013 25.4962 138.669 25.1602 139.117 24.6962L140.125 26.0402C139.533 26.6962 138.445 27.2082 137.165 27.2082ZM136.941 20.7762C136.013 20.7762 135.341 21.4162 135.101 22.3442H138.765C138.525 21.3202 137.837 20.7762 136.941 20.7762ZM141.562 21.0642V19.3362H142.906V17.3522H144.874V19.3362H146.938V21.0642H144.89V24.3282C144.89 25.0482 145.178 25.3842 145.754 25.3842C146.122 25.3842 146.474 25.2242 146.666 25.0002L147.53 26.4562C147.114 26.8722 146.394 27.2082 145.45 27.2082C143.898 27.2082 142.906 26.2482 142.906 24.3762V21.0642H141.562ZM152.071 27.2082C149.687 27.2082 147.959 25.4002 147.959 23.1602C147.959 20.9362 149.607 19.1282 151.815 19.1282C154.007 19.1282 155.687 20.8082 155.687 23.0162C155.687 23.2722 155.671 23.5762 155.639 23.7042H149.959C150.167 24.7602 150.967 25.4962 152.135 25.4962C152.919 25.4962 153.575 25.1602 154.023 24.6962L155.031 26.0402C154.439 26.6962 153.351 27.2082 152.071 27.2082ZM151.847 20.7762C150.919 20.7762 150.247 21.4162 150.007 22.3442H153.671C153.431 21.3202 152.743 20.7762 151.847 20.7762Z" fill="white"/>
</g>
<defs>
<clipPath id="clip0_6330_29538">
<rect width="264" height="44" fill="white"/>
</clipPath>
</defs>
</svg>
