<svg width="264" height="44" viewBox="0 0 264 44" fill="none" xmlns="http://www.w3.org/2000/svg">
<g clip-path="url(#clip0_6330_29535)">
<path d="M0 22C0 9.84974 9.84974 0 22 0H242C254.15 0 264 9.84974 264 22C264 34.1503 254.15 44 242 44H22C9.84973 44 0 34.1503 0 22Z" fill="#794CFF"/>
<path d="M112.704 17.9282L111.376 19.4642C110.784 18.9202 109.952 18.5202 108.928 18.5202C107.184 18.5202 105.792 20.0242 105.792 21.8802C105.792 23.7202 107.184 25.2242 109.056 25.2242C109.936 25.2242 110.816 24.8882 111.392 24.2962L112.704 25.7682C111.808 26.7602 110.576 27.2082 108.928 27.2082C105.936 27.2082 103.648 24.8082 103.648 21.8802C103.648 18.9202 106.016 16.5362 108.912 16.5362C110.64 16.5362 111.856 17.0642 112.704 17.9282ZM117.287 27.2082C115.063 27.2082 113.303 25.4002 113.303 23.1602C113.303 20.9362 115.063 19.1282 117.287 19.1282C119.511 19.1282 121.271 20.9362 121.271 23.1602C121.271 25.4002 119.511 27.2082 117.287 27.2082ZM117.287 25.3842C118.471 25.3842 119.319 24.3922 119.319 23.1602C119.319 21.9282 118.471 20.9522 117.287 20.9522C116.103 20.9522 115.255 21.9282 115.255 23.1602C115.255 24.3922 116.103 25.3842 117.287 25.3842ZM122.955 27.0002V19.3362H124.907V20.4242C125.307 19.6082 126.075 19.1282 127.083 19.1282C128.843 19.1282 129.979 20.3602 129.979 22.3602V27.0002H128.027V22.6482C128.027 21.6082 127.435 20.9522 126.475 20.9522C125.515 20.9522 124.907 21.6082 124.907 22.6482V27.0002H122.955ZM131.408 21.0642V19.3362H132.656V19.1922C132.656 17.0802 134.048 15.7842 136.4 15.7842C137.888 15.7842 138.896 16.2002 139.616 16.8082L138.64 18.3442C138.144 17.8962 137.312 17.6082 136.512 17.6082C135.328 17.6082 134.624 18.1362 134.624 19.2402V19.3362H139.504V27.0002H137.552V21.0642H134.624V27.0002H132.656V21.0642H131.408ZM141.674 27.0002V19.3362H143.626V20.4722C143.994 19.6562 144.65 19.1282 145.514 19.1282C146.026 19.1282 146.442 19.2562 146.73 19.4962L145.93 21.3362C145.674 21.1442 145.29 21.0162 144.906 21.0162C144.138 21.0162 143.626 21.6722 143.626 22.7122V27.0002H141.674ZM150.017 27.0002H148.065V19.3362H150.017V20.5042C150.417 19.6722 151.169 19.1282 152.177 19.1282C153.345 19.1282 154.241 19.7042 154.689 20.7282C155.089 19.8162 155.825 19.1282 157.041 19.1282C158.817 19.1282 159.985 20.3122 159.985 22.3602V27.0002H158.017V22.6482C158.017 21.6082 157.441 20.9522 156.513 20.9522C155.585 20.9522 154.993 21.6082 154.993 22.6482V27.0002H153.041V22.6482C153.041 21.6082 152.465 20.9522 151.537 20.9522C150.609 20.9522 150.017 21.6082 150.017 22.6482V27.0002Z" fill="white"/>
</g>
<defs>
<clipPath id="clip0_6330_29535">
<rect width="264" height="44" fill="white"/>
</clipPath>
</defs>
</svg>
