<svg width="312" height="200" viewBox="0 0 312 200" fill="none" xmlns="http://www.w3.org/2000/svg">
<path d="M80 60C80 47.8497 89.8497 38 102 38H210C222.15 38 232 47.8497 232 60C232 72.1503 222.15 82 210 82H102C89.8497 82 80 72.1503 80 60Z" fill="#794CFF"/>
<path d="M132.212 65.016C131.732 64.888 131.124 64.584 130.34 64.072L131.204 62.392C132.068 62.936 133.316 63.32 134.324 63.32C135.332 63.32 136.084 62.952 136.084 62.136C136.084 60.312 130.692 61.176 130.692 57.544C130.692 55.64 132.436 54.52 134.516 54.52C135.812 54.52 137.028 54.872 137.972 55.592L136.996 57.176C136.34 56.744 135.316 56.392 134.42 56.392C133.492 56.392 132.836 56.824 132.836 57.496C132.836 59.368 138.212 58.536 138.212 62.024C138.212 64.136 136.356 65.208 134.18 65.208C133.332 65.208 132.676 65.144 132.212 65.016ZM141.678 57.336V61.48C141.678 62.6 142.318 63.352 143.294 63.352C144.27 63.352 144.926 62.6 144.926 61.48V57.336H146.894V61.624C146.894 63.768 145.454 65.192 143.294 65.192C141.134 65.192 139.726 63.768 139.726 61.624V57.336H141.678ZM153.267 57.128C155.283 57.128 156.947 58.776 156.947 61.176C156.947 63.48 155.395 65.208 153.267 65.208C152.227 65.208 151.427 64.744 150.915 63.976V65H148.963V53.992H150.915V58.424C151.427 57.64 152.227 57.128 153.267 57.128ZM152.963 58.952C151.779 58.952 150.915 59.944 150.915 61.176C150.915 62.408 151.779 63.384 152.963 63.384C154.131 63.384 154.995 62.408 154.995 61.176C154.995 59.944 154.131 58.952 152.963 58.952ZM160.556 65H158.604V57.336H160.556V58.504C160.956 57.672 161.708 57.128 162.716 57.128C163.884 57.128 164.78 57.704 165.228 58.728C165.628 57.816 166.364 57.128 167.58 57.128C169.356 57.128 170.524 58.312 170.524 60.36V65H168.556V60.648C168.556 59.608 167.98 58.952 167.052 58.952C166.124 58.952 165.532 59.608 165.532 60.648V65H163.58V60.648C163.58 59.608 163.004 58.952 162.076 58.952C161.148 58.952 160.556 59.608 160.556 60.648V65ZM173.595 56.312C172.955 56.312 172.459 55.8 172.459 55.16C172.459 54.536 172.955 54.024 173.595 54.024C174.219 54.024 174.747 54.536 174.747 55.16C174.747 55.8 174.219 56.312 173.595 56.312ZM174.571 65H172.619V57.336H174.571V65ZM175.976 59.064V57.336H177.32V55.352H179.288V57.336H181.352V59.064H179.304V62.328C179.304 63.048 179.592 63.384 180.168 63.384C180.536 63.384 180.888 63.224 181.08 63L181.944 64.456C181.528 64.872 180.808 65.208 179.864 65.208C178.312 65.208 177.32 64.248 177.32 62.376V59.064H175.976Z" fill="white"/>
<path d="M80 134C80 119.088 92.0883 107 107 107H205C219.912 107 232 119.088 232 134C232 148.912 219.912 161 205 161H107C92.0883 161 80 148.912 80 134Z" stroke="#724FF5" stroke-width="2"/>
<path d="M85 134C85 121.85 94.8497 112 107 112H205C217.15 112 227 121.85 227 134C227 146.15 217.15 156 205 156H107C94.8497 156 85 146.15 85 134Z" fill="#794CFF"/>
<path d="M132.212 139.016C131.732 138.888 131.124 138.584 130.34 138.072L131.204 136.392C132.068 136.936 133.316 137.32 134.324 137.32C135.332 137.32 136.084 136.952 136.084 136.136C136.084 134.312 130.692 135.176 130.692 131.544C130.692 129.64 132.436 128.52 134.516 128.52C135.812 128.52 137.028 128.872 137.972 129.592L136.996 131.176C136.34 130.744 135.316 130.392 134.42 130.392C133.492 130.392 132.836 130.824 132.836 131.496C132.836 133.368 138.212 132.536 138.212 136.024C138.212 138.136 136.356 139.208 134.18 139.208C133.332 139.208 132.676 139.144 132.212 139.016ZM141.678 131.336V135.48C141.678 136.6 142.318 137.352 143.294 137.352C144.27 137.352 144.926 136.6 144.926 135.48V131.336H146.894V135.624C146.894 137.768 145.454 139.192 143.294 139.192C141.134 139.192 139.726 137.768 139.726 135.624V131.336H141.678ZM153.267 131.128C155.283 131.128 156.947 132.776 156.947 135.176C156.947 137.48 155.395 139.208 153.267 139.208C152.227 139.208 151.427 138.744 150.915 137.976V139H148.963V127.992H150.915V132.424C151.427 131.64 152.227 131.128 153.267 131.128ZM152.963 132.952C151.779 132.952 150.915 133.944 150.915 135.176C150.915 136.408 151.779 137.384 152.963 137.384C154.131 137.384 154.995 136.408 154.995 135.176C154.995 133.944 154.131 132.952 152.963 132.952ZM160.556 139H158.604V131.336H160.556V132.504C160.956 131.672 161.708 131.128 162.716 131.128C163.884 131.128 164.78 131.704 165.228 132.728C165.628 131.816 166.364 131.128 167.58 131.128C169.356 131.128 170.524 132.312 170.524 134.36V139H168.556V134.648C168.556 133.608 167.98 132.952 167.052 132.952C166.124 132.952 165.532 133.608 165.532 134.648V139H163.58V134.648C163.58 133.608 163.004 132.952 162.076 132.952C161.148 132.952 160.556 133.608 160.556 134.648V139ZM173.595 130.312C172.955 130.312 172.459 129.8 172.459 129.16C172.459 128.536 172.955 128.024 173.595 128.024C174.219 128.024 174.747 128.536 174.747 129.16C174.747 129.8 174.219 130.312 173.595 130.312ZM174.571 139H172.619V131.336H174.571V139ZM175.976 133.064V131.336H177.32V129.352H179.288V131.336H181.352V133.064H179.304V136.328C179.304 137.048 179.592 137.384 180.168 137.384C180.536 137.384 180.888 137.224 181.08 137L181.944 138.456C181.528 138.872 180.808 139.208 179.864 139.208C178.312 139.208 177.32 138.248 177.32 136.376V133.064H175.976Z" fill="white"/>
</svg>
