<svg width="180" height="44" viewBox="0 0 180 44" fill="none" xmlns="http://www.w3.org/2000/svg">
<g clip-path="url(#clip0_6330_29474)">
<path d="M0 22C0 9.84974 9.84974 0 22 0H158C170.15 0 180 9.84974 180 22C180 34.1503 170.15 44 158 44H22C9.84974 44 0 34.1503 0 22Z" fill="#794CFF"/>
<path d="M26.2044 17.9282L24.8764 19.4642C24.2844 18.9202 23.4524 18.5202 22.4284 18.5202C20.6844 18.5202 19.2924 20.0242 19.2924 21.8802C19.2924 23.7202 20.6844 25.2242 22.5564 25.2242C23.4364 25.2242 24.3164 24.8882 24.8924 24.2962L26.2044 25.7682C25.3084 26.7602 24.0764 27.2082 22.4284 27.2082C19.4364 27.2082 17.1484 24.8082 17.1484 21.8802C17.1484 18.9202 19.5164 16.5362 22.4124 16.5362C24.1404 16.5362 25.3564 17.0642 26.2044 17.9282ZM30.572 25.3042L30.78 27.0162C30.492 27.1122 30.124 27.1762 29.836 27.1762C28.732 27.1762 27.612 26.4722 27.612 24.5202V15.9922H29.564V24.5682C29.564 25.1602 29.9 25.3842 30.252 25.3842C30.348 25.3842 30.476 25.3522 30.572 25.3042ZM33.3849 18.3122C32.7449 18.3122 32.2489 17.8002 32.2489 17.1602C32.2489 16.5362 32.7449 16.0242 33.3849 16.0242C34.0089 16.0242 34.5369 16.5362 34.5369 17.1602C34.5369 17.8002 34.0089 18.3122 33.3849 18.3122ZM34.3609 27.0002H32.4089V19.3362H34.3609V27.0002ZM41.9575 21.6562C41.4615 21.1922 40.9015 20.9522 40.1335 20.9522C38.8535 20.9522 38.0055 21.9282 38.0055 23.1602C38.0055 24.3922 38.8695 25.3842 40.1335 25.3842C40.9015 25.3842 41.5255 25.1122 42.0215 24.6322L43.0135 26.0722C42.4055 26.7442 41.2855 27.2082 40.0855 27.2082C37.7975 27.2082 36.0535 25.4002 36.0535 23.1602C36.0535 20.9362 37.8135 19.1282 40.0535 19.1282C41.3495 19.1282 42.3895 19.5602 43.0775 20.2642L41.9575 21.6562ZM46.314 27.0002H44.362V15.9922H46.314V22.5042L49.354 19.3362H51.77L48.41 22.8242L52.106 27.0002H49.61L46.314 23.2082V27.0002ZM56.5495 27.0002V15.9922H58.5015V20.4242C58.9015 19.6082 59.6695 19.1282 60.6775 19.1282C62.4375 19.1282 63.5735 20.3602 63.5735 22.3602V27.0002H61.6215V22.6482C61.6215 21.6082 61.0295 20.9522 60.0695 20.9522C59.1095 20.9522 58.5015 21.6082 58.5015 22.6482V27.0002H56.5495ZM69.3062 27.2082C66.9222 27.2082 65.1942 25.4002 65.1942 23.1602C65.1942 20.9362 66.8422 19.1282 69.0502 19.1282C71.2422 19.1282 72.9222 20.8082 72.9222 23.0162C72.9222 23.2722 72.9062 23.5762 72.8742 23.7042H67.1942C67.4022 24.7602 68.2022 25.4962 69.3702 25.4962C70.1542 25.4962 70.8102 25.1602 71.2582 24.6962L72.2662 26.0402C71.6742 26.6962 70.5862 27.2082 69.3062 27.2082ZM69.0822 20.7762C68.1542 20.7762 67.4822 21.4162 67.2422 22.3442H70.9062C70.6662 21.3202 69.9782 20.7762 69.0822 20.7762ZM74.487 27.0002V19.3362H76.439V20.4722C76.807 19.6562 77.463 19.1282 78.327 19.1282C78.839 19.1282 79.255 19.2562 79.543 19.4962L78.743 21.3362C78.487 21.1442 78.103 21.0162 77.719 21.0162C76.951 21.0162 76.439 21.6722 76.439 22.7122V27.0002H74.487ZM83.853 27.2082C81.469 27.2082 79.741 25.4002 79.741 23.1602C79.741 20.9362 81.389 19.1282 83.597 19.1282C85.789 19.1282 87.469 20.8082 87.469 23.0162C87.469 23.2722 87.453 23.5762 87.421 23.7042H81.741C81.949 24.7602 82.749 25.4962 83.917 25.4962C84.701 25.4962 85.357 25.1602 85.805 24.6962L86.813 26.0402C86.221 26.6962 85.133 27.2082 83.853 27.2082ZM83.629 20.7762C82.701 20.7762 82.029 21.4162 81.789 22.3442H85.453C85.213 21.3202 84.525 20.7762 83.629 20.7762ZM91.6718 21.0642V19.3362H93.0158V17.3522H94.9838V19.3362H97.0478V21.0642H94.9998V24.3282C94.9998 25.0482 95.2878 25.3842 95.8638 25.3842C96.2318 25.3842 96.5838 25.2242 96.7758 25.0002L97.6398 26.4562C97.2238 26.8722 96.5038 27.2082 95.5598 27.2082C94.0078 27.2082 93.0158 26.2482 93.0158 24.3762V21.0642H91.6718ZM102.054 27.2082C99.8292 27.2082 98.0692 25.4002 98.0692 23.1602C98.0692 20.9362 99.8292 19.1282 102.054 19.1282C104.278 19.1282 106.038 20.9362 106.038 23.1602C106.038 25.4002 104.278 27.2082 102.054 27.2082ZM102.054 25.3842C103.238 25.3842 104.086 24.3922 104.086 23.1602C104.086 21.9282 103.238 20.9522 102.054 20.9522C100.87 20.9522 100.022 21.9282 100.022 23.1602C100.022 24.3922 100.87 25.3842 102.054 25.3842ZM110.456 21.0642V19.3362H111.704V19.1922C111.704 17.0802 113.096 15.7842 115.448 15.7842C116.936 15.7842 117.944 16.2002 118.664 16.8082L117.688 18.3442C117.192 17.8962 116.36 17.6082 115.56 17.6082C114.376 17.6082 113.672 18.1362 113.672 19.2402V19.3362H118.552V27.0002H116.6V21.0642H113.672V27.0002H111.704V21.0642H110.456ZM120.722 27.0002V19.3362H122.674V20.4242C123.074 19.6082 123.842 19.1282 124.85 19.1282C126.61 19.1282 127.746 20.3602 127.746 22.3602V27.0002H125.794V22.6482C125.794 21.6082 125.202 20.9522 124.242 20.9522C123.282 20.9522 122.674 21.6082 122.674 22.6482V27.0002H120.722ZM133.03 27.2082C131.014 27.2082 129.366 25.5602 129.366 23.1602C129.366 20.8562 130.918 19.1282 133.03 19.1282C134.07 19.1282 134.87 19.5922 135.382 20.3442V19.3362H137.334V27.0002H135.382V25.9122C134.87 26.6962 134.07 27.2082 133.03 27.2082ZM133.35 25.3842C134.534 25.3842 135.382 24.3922 135.382 23.1602C135.382 21.9282 134.534 20.9522 133.35 20.9522C132.166 20.9522 131.318 21.9282 131.318 23.1602C131.318 24.3922 132.166 25.3842 133.35 25.3842ZM142.463 25.3042L142.671 27.0162C142.383 27.1122 142.015 27.1762 141.727 27.1762C140.623 27.1762 139.503 26.4722 139.503 24.5202V15.9922H141.455V24.5682C141.455 25.1602 141.791 25.3842 142.143 25.3842C142.239 25.3842 142.367 25.3522 142.463 25.3042ZM145.276 18.3122C144.636 18.3122 144.14 17.8002 144.14 17.1602C144.14 16.5362 144.636 16.0242 145.276 16.0242C145.9 16.0242 146.428 16.5362 146.428 17.1602C146.428 17.8002 145.9 18.3122 145.276 18.3122ZM146.252 27.0002H144.3V19.3362H146.252V27.0002ZM147.961 25.2722L151.753 21.0642H148.089V19.3362H154.281V21.0642L150.489 25.2722H154.409V27.0002H147.961V25.2722ZM159.4 27.2082C157.016 27.2082 155.288 25.4002 155.288 23.1602C155.288 20.9362 156.936 19.1282 159.144 19.1282C161.336 19.1282 163.016 20.8082 163.016 23.0162C163.016 23.2722 163 23.5762 162.968 23.7042H157.288C157.496 24.7602 158.296 25.4962 159.464 25.4962C160.248 25.4962 160.904 25.1602 161.352 24.6962L162.36 26.0402C161.768 26.6962 160.68 27.2082 159.4 27.2082ZM159.176 20.7762C158.248 20.7762 157.576 21.4162 157.336 22.3442H161C160.76 21.3202 160.072 20.7762 159.176 20.7762Z" fill="white"/>
</g>
<defs>
<clipPath id="clip0_6330_29474">
<rect width="180" height="44" fill="white"/>
</clipPath>
</defs>
</svg>
