<svg width="312" height="92" viewBox="0 0 312 92" fill="none" xmlns="http://www.w3.org/2000/svg">
<path d="M24 46C24 33.8497 33.8497 24 46 24H266C278.15 24 288 33.8497 288 46C288 58.1503 278.15 68 266 68H46C33.8497 68 24 58.1503 24 46Z" fill="#794CFF"/>
<path d="M49.2305 51V40.76H53.3585C55.2785 40.76 56.7345 41.928 56.7345 43.592C56.7345 44.792 55.9025 45.448 55.2145 45.736C56.2225 46.04 57.0225 46.84 57.0225 48.12C57.0225 49.656 55.8225 51 53.5985 51H49.2305ZM53.1665 42.52H51.2305V44.984H53.1665C54.0465 44.984 54.6545 44.472 54.6545 43.752C54.6545 43.032 54.0305 42.52 53.1665 42.52ZM53.3905 46.632H51.2305V49.224H53.3905C54.2865 49.224 54.9425 48.68 54.9425 47.928C54.9425 47.176 54.2865 46.632 53.3905 46.632ZM60.4596 43.336V47.48C60.4596 48.6 61.0996 49.352 62.0756 49.352C63.0516 49.352 63.7076 48.6 63.7076 47.48V43.336H65.6756V47.624C65.6756 49.768 64.2356 51.192 62.0756 51.192C59.9156 51.192 58.5076 49.768 58.5076 47.624V43.336H60.4596ZM66.9603 45.064V43.336H68.3043V41.352H70.2723V43.336H72.3363V45.064H70.2883V48.328C70.2883 49.048 70.5763 49.384 71.1523 49.384C71.5203 49.384 71.8723 49.224 72.0643 49L72.9283 50.456C72.5123 50.872 71.7923 51.208 70.8483 51.208C69.2963 51.208 68.3043 50.248 68.3043 48.376V45.064H66.9603ZM73.4446 45.064V43.336H74.7886V41.352H76.7566V43.336H78.8206V45.064H76.7726V48.328C76.7726 49.048 77.0606 49.384 77.6366 49.384C78.0046 49.384 78.3566 49.224 78.5486 49L79.4126 50.456C78.9966 50.872 78.2766 51.208 77.3326 51.208C75.7806 51.208 74.7886 50.248 74.7886 48.376V45.064H73.4446ZM83.826 51.208C81.602 51.208 79.842 49.4 79.842 47.16C79.842 44.936 81.602 43.128 83.826 43.128C86.05 43.128 87.81 44.936 87.81 47.16C87.81 49.4 86.05 51.208 83.826 51.208ZM83.826 49.384C85.01 49.384 85.858 48.392 85.858 47.16C85.858 45.928 85.01 44.952 83.826 44.952C82.642 44.952 81.794 45.928 81.794 47.16C81.794 48.392 82.642 49.384 83.826 49.384ZM89.4943 51V43.336H91.4463V44.424C91.8463 43.608 92.6143 43.128 93.6223 43.128C95.3823 43.128 96.5183 44.36 96.5183 46.36V51H94.5663V46.648C94.5663 45.608 93.9743 44.952 93.0143 44.952C92.0543 44.952 91.4463 45.608 91.4463 46.648V51H89.4943ZM102.137 51V40.744H104.137V49.112H109.145V51H102.137ZM113.319 51.208C111.303 51.208 109.655 49.56 109.655 47.16C109.655 44.856 111.207 43.128 113.319 43.128C114.359 43.128 115.159 43.592 115.671 44.344V43.336H117.623V51H115.671V49.912C115.159 50.696 114.359 51.208 113.319 51.208ZM113.639 49.384C114.823 49.384 115.671 48.392 115.671 47.16C115.671 45.928 114.823 44.952 113.639 44.952C112.455 44.952 111.607 45.928 111.607 47.16C111.607 48.392 112.455 49.384 113.639 49.384ZM124.095 43.128C126.111 43.128 127.775 44.776 127.775 47.176C127.775 49.48 126.223 51.208 124.095 51.208C123.055 51.208 122.255 50.744 121.743 49.976V51H119.791V39.992H121.743V44.424C122.255 43.64 123.055 43.128 124.095 43.128ZM123.791 44.952C122.607 44.952 121.743 45.944 121.743 47.176C121.743 48.408 122.607 49.384 123.791 49.384C124.959 49.384 125.823 48.408 125.823 47.176C125.823 45.944 124.959 44.952 123.791 44.952ZM133.048 51.208C130.664 51.208 128.936 49.4 128.936 47.16C128.936 44.936 130.584 43.128 132.792 43.128C134.984 43.128 136.664 44.808 136.664 47.016C136.664 47.272 136.648 47.576 136.616 47.704H130.936C131.144 48.76 131.944 49.496 133.112 49.496C133.896 49.496 134.552 49.16 135 48.696L136.008 50.04C135.416 50.696 134.328 51.208 133.048 51.208ZM132.824 44.776C131.896 44.776 131.224 45.416 130.984 46.344H134.648C134.408 45.32 133.72 44.776 132.824 44.776ZM141.189 49.304L141.397 51.016C141.109 51.112 140.741 51.176 140.453 51.176C139.349 51.176 138.229 50.472 138.229 48.52V39.992H140.181V48.568C140.181 49.16 140.517 49.384 140.869 49.384C140.965 49.384 141.093 49.352 141.189 49.304Z" fill="white"/>
<path fill-rule="evenodd" clip-rule="evenodd" d="M243 39.5714V52.4286C243 53.8429 243.9 55 245 55H259C260.1 55 261 53.8429 261 52.4286V39.5714C261 38.1571 260.1 37 259 37H245C243.9 37 243 38.1571 243 39.5714Z" fill="white"/>
</svg>
