<svg width="87" height="44" viewBox="0 0 87 44" fill="none" xmlns="http://www.w3.org/2000/svg">
<g clip-path="url(#clip0_6330_29657)">
<path d="M0 22C0 9.84974 9.84974 0 22 0H65C77.1503 0 87 9.84974 87 22C87 34.1503 77.1503 44 65 44H22C9.84973 44 0 34.1503 0 22Z" fill="#400791"/>
<path d="M25.457 27.0001V16.7441H29.121C31.601 16.7441 33.233 18.0881 33.233 20.1361C33.233 22.2001 31.585 23.5601 29.089 23.5601H27.457V27.0001H25.457ZM29.281 18.5201H27.457V21.7841H29.281C30.385 21.7841 31.121 21.1281 31.121 20.1361C31.121 19.1601 30.385 18.5201 29.281 18.5201ZM34.7988 27.0001V19.3361H36.7508V20.4721C37.1188 19.6561 37.7748 19.1281 38.6388 19.1281C39.1508 19.1281 39.5668 19.2561 39.8548 19.4961L39.0548 21.3361C38.7988 21.1441 38.4148 21.0161 38.0308 21.0161C37.2628 21.0161 36.7508 21.6721 36.7508 22.7121V27.0001H34.7988ZM44.1648 27.2081C41.7808 27.2081 40.0528 25.4001 40.0528 23.1601C40.0528 20.9361 41.7008 19.1281 43.9088 19.1281C46.1008 19.1281 47.7808 20.8081 47.7808 23.0161C47.7808 23.2721 47.7648 23.5761 47.7328 23.7041H42.0528C42.2608 24.7601 43.0608 25.4961 44.2288 25.4961C45.0128 25.4961 45.6688 25.1601 46.1168 24.6961L47.1248 26.0401C46.5328 26.6961 45.4448 27.2081 44.1648 27.2081ZM43.9408 20.7761C43.0128 20.7761 42.3408 21.4161 42.1008 22.3441H45.7648C45.5248 21.3201 44.8368 20.7761 43.9408 20.7761ZM51.6508 27.2081C50.4188 27.2081 49.4108 26.8881 48.6588 26.4721L49.2828 24.9681C50.1628 25.3841 50.8988 25.6081 51.7468 25.6081C52.6108 25.6081 53.0108 25.3041 53.0108 24.8561C53.0108 23.4801 48.8828 24.2961 48.8828 21.4001C48.8828 20.2481 49.9068 19.1281 51.8748 19.1281C52.9468 19.1281 53.7628 19.3521 54.7388 19.8161L54.0188 21.2721C53.4748 20.9681 52.6588 20.7281 52.0348 20.7281C51.2988 20.7281 50.8508 20.9681 50.8508 21.3841C50.8508 22.7921 54.9468 21.9121 54.9468 24.8241C54.9468 26.1521 53.7628 27.2081 51.6508 27.2081ZM58.9008 27.2081C57.6688 27.2081 56.6608 26.8881 55.9088 26.4721L56.5328 24.9681C57.4128 25.3841 58.1488 25.6081 58.9968 25.6081C59.8608 25.6081 60.2608 25.3041 60.2608 24.8561C60.2608 23.4801 56.1328 24.2961 56.1328 21.4001C56.1328 20.2481 57.1568 19.1281 59.1248 19.1281C60.1968 19.1281 61.0128 19.3521 61.9888 19.8161L61.2688 21.2721C60.7248 20.9681 59.9088 20.7281 59.2848 20.7281C58.5488 20.7281 58.1008 20.9681 58.1008 21.3841C58.1008 22.7921 62.1968 21.9121 62.1968 24.8241C62.1968 26.1521 61.0128 27.2081 58.9008 27.2081Z" fill="white"/>
</g>
<defs>
<clipPath id="clip0_6330_29657">
<rect width="87" height="44" fill="white"/>
</clipPath>
</defs>
</svg>
