<svg width="102" height="56" viewBox="0 0 102 56" fill="none" xmlns="http://www.w3.org/2000/svg">
<path d="M28 1H74C88.9117 1 101 13.0883 101 28C101 42.9117 88.9117 55 74 55H28C13.0883 55 1 42.9117 1 28C1 13.0883 13.0883 1 28 1Z" stroke="#1A3673" stroke-width="2"/>
<path d="M6 28C6 15.8497 15.8497 6 28 6H74C86.1503 6 96 15.8497 96 28V28C96 40.1503 86.1503 50 74 50H28C15.8497 50 6 40.1503 6 28V28Z" fill="#1355E9"/>
<path d="M31.6368 33V22.76H38.1328V24.632H33.6368V27.112H37.4928V29H33.6368V33H31.6368ZM42.7479 33.208C40.5239 33.208 38.7639 31.4 38.7639 29.16C38.7639 26.936 40.5239 25.128 42.7479 25.128C44.9719 25.128 46.7319 26.936 46.7319 29.16C46.7319 31.4 44.9719 33.208 42.7479 33.208ZM42.7479 31.384C43.9319 31.384 44.7799 30.392 44.7799 29.16C44.7799 27.928 43.9319 26.952 42.7479 26.952C41.5639 26.952 40.7159 27.928 40.7159 29.16C40.7159 30.392 41.5639 31.384 42.7479 31.384ZM53.8241 27.656C53.3281 27.192 52.7681 26.952 52.0001 26.952C50.7201 26.952 49.8721 27.928 49.8721 29.16C49.8721 30.392 50.7361 31.384 52.0001 31.384C52.7681 31.384 53.3921 31.112 53.8881 30.632L54.8801 32.072C54.2721 32.744 53.1521 33.208 51.9521 33.208C49.6641 33.208 47.9201 31.4 47.9201 29.16C47.9201 26.936 49.6801 25.128 51.9201 25.128C53.2161 25.128 54.2561 25.56 54.9441 26.264L53.8241 27.656ZM58.0846 25.336V29.48C58.0846 30.6 58.7246 31.352 59.7006 31.352C60.6766 31.352 61.3326 30.6 61.3326 29.48V25.336H63.3006V29.624C63.3006 31.768 61.8606 33.192 59.7006 33.192C57.5406 33.192 56.1326 31.768 56.1326 29.624V25.336H58.0846ZM67.7213 33.208C66.4893 33.208 65.4813 32.888 64.7293 32.472L65.3533 30.968C66.2333 31.384 66.9693 31.608 67.8173 31.608C68.6813 31.608 69.0813 31.304 69.0813 30.856C69.0813 29.48 64.9533 30.296 64.9533 27.4C64.9533 26.248 65.9773 25.128 67.9453 25.128C69.0173 25.128 69.8333 25.352 70.8093 25.816L70.0893 27.272C69.5453 26.968 68.7293 26.728 68.1053 26.728C67.3693 26.728 66.9213 26.968 66.9213 27.384C66.9213 28.792 71.0173 27.912 71.0173 30.824C71.0173 32.152 69.8333 33.208 67.7213 33.208Z" fill="white"/>
</svg>
