<svg width="286" height="51" viewBox="0 0 286 51" fill="none" xmlns="http://www.w3.org/2000/svg">
<rect x="104.5" width="24" height="24" rx="8" fill="#1355E9"/>
<path d="M115.013 17L123.5 8.49112L122.013 7L115.013 14.0178L111.987 10.9822L110.5 12.4734L115.013 17Z" fill="white"/>
<path d="M148.97 7.978L148.13 8.958C147.528 8.454 146.772 8.104 145.764 8.104C143.972 8.104 142.53 9.63 142.53 11.52C142.53 13.396 143.972 14.922 145.876 14.922C146.744 14.922 147.57 14.628 148.144 14.096L148.97 15.02C148.144 15.832 147.122 16.168 145.792 16.168C143.188 16.168 141.186 14.082 141.186 11.52C141.186 8.944 143.23 6.858 145.75 6.858C147.178 6.858 148.186 7.264 148.97 7.978ZM150.411 16V6.368H151.643V10.316C152.021 9.574 152.735 9.126 153.673 9.126C155.241 9.126 156.263 10.204 156.263 11.898V16H155.031V12.094C155.031 10.988 154.387 10.288 153.337 10.288C152.287 10.288 151.643 10.988 151.643 12.094V16H150.411ZM161.419 16.168C159.375 16.168 157.905 14.586 157.905 12.64C157.905 10.694 159.319 9.126 161.223 9.126C163.099 9.126 164.527 10.624 164.527 12.514C164.527 12.682 164.513 12.934 164.485 13.032H159.179C159.333 14.194 160.215 15.062 161.461 15.062C162.217 15.062 162.889 14.768 163.337 14.32L163.995 15.174C163.449 15.762 162.497 16.168 161.419 16.168ZM161.237 10.19C160.187 10.19 159.431 10.946 159.207 12.01H163.225C163.001 10.848 162.245 10.19 161.237 10.19ZM170.908 10.946C170.446 10.526 169.872 10.288 169.13 10.288C167.8 10.288 166.89 11.324 166.89 12.64C166.89 13.942 167.814 15.006 169.116 15.006C169.858 15.006 170.488 14.768 170.936 14.32L171.58 15.23C171.048 15.804 170.11 16.168 169.088 16.168C167.128 16.168 165.644 14.586 165.644 12.64C165.644 10.694 167.142 9.126 169.102 9.126C170.166 9.126 171.062 9.49 171.622 10.064L170.908 10.946ZM174.188 16H172.956V6.368H174.188V12.22L177.338 9.294H178.906L175.532 12.43L179.144 16H177.52L174.188 12.682V16ZM183.841 9.126C185.661 9.126 187.089 10.624 187.089 12.654C187.089 14.642 185.717 16.168 183.841 16.168C182.791 16.168 181.993 15.664 181.489 14.838V16H180.257V6.368H181.489V10.498C181.993 9.672 182.791 9.126 183.841 9.126ZM183.687 10.288C182.413 10.288 181.489 11.352 181.489 12.654C181.489 13.97 182.413 15.006 183.687 15.006C184.947 15.006 185.857 13.97 185.857 12.654C185.857 11.352 184.947 10.288 183.687 10.288ZM191.769 16.168C189.851 16.168 188.353 14.586 188.353 12.64C188.353 10.694 189.851 9.126 191.769 9.126C193.701 9.126 195.199 10.694 195.199 12.64C195.199 14.586 193.701 16.168 191.769 16.168ZM191.783 15.006C193.043 15.006 193.953 13.942 193.953 12.64C193.953 11.324 193.043 10.288 191.783 10.288C190.509 10.288 189.599 11.324 189.599 12.64C189.599 13.942 190.509 15.006 191.783 15.006ZM195.63 16L198.22 12.584L195.742 9.294H197.282L199.032 11.632L200.824 9.294H202.224L199.746 12.57L202.322 16H200.782L198.92 13.522L197.03 16H195.63Z" fill="black"/>
<rect width="24" height="24" rx="12" fill="#F7D055"/>
<path d="M13.6829 6.81818V17H11.8384V8.61293H11.7788L9.39737 10.1342V8.44389L11.9279 6.81818H13.6829Z" fill="black"/>
<rect x="216" y="27" width="24" height="24" rx="12" fill="#F7D055"/>
<path d="M224.557 44V42.6676L228.092 39.2024C228.43 38.861 228.712 38.5578 228.937 38.2926C229.163 38.0275 229.332 37.7706 229.444 37.522C229.557 37.2734 229.613 37.0083 229.613 36.7266C229.613 36.4051 229.54 36.13 229.395 35.9013C229.249 35.6693 229.048 35.4903 228.793 35.3643C228.538 35.2384 228.248 35.1754 227.923 35.1754C227.588 35.1754 227.295 35.245 227.043 35.3842C226.791 35.5201 226.596 35.714 226.456 35.9659C226.32 36.2178 226.252 36.5178 226.252 36.8658H224.498C224.498 36.2195 224.645 35.6577 224.94 35.1804C225.235 34.7031 225.641 34.3336 226.158 34.0717C226.678 33.8099 227.275 33.679 227.948 33.679C228.631 33.679 229.23 33.8066 229.748 34.0618C230.265 34.317 230.666 34.6667 230.951 35.1108C231.239 35.5549 231.383 36.062 231.383 36.6321C231.383 37.0133 231.31 37.3878 231.164 37.7557C231.019 38.1236 230.762 38.5312 230.394 38.9787C230.029 39.4261 229.517 39.968 228.858 40.6044L227.103 42.3892V42.4588H231.537V44H224.557Z" fill="black"/>
<rect x="262" width="24" height="24" rx="12" fill="#F7D055"/>
<path d="M273.999 17.1392C273.283 17.1392 272.647 17.0166 272.09 16.7713C271.537 16.526 271.099 16.1847 270.778 15.7472C270.456 15.3097 270.286 14.8042 270.266 14.2308H272.135C272.152 14.5059 272.243 14.7462 272.408 14.9517C272.574 15.1539 272.795 15.3113 273.07 15.424C273.345 15.5367 273.653 15.593 273.994 15.593C274.359 15.593 274.682 15.5301 274.964 15.4041C275.246 15.2749 275.466 15.0959 275.625 14.8672C275.784 14.6385 275.862 14.375 275.859 14.0767C275.862 13.7685 275.783 13.4967 275.62 13.2614C275.458 13.026 275.222 12.8421 274.914 12.7095C274.609 12.5769 274.241 12.5107 273.81 12.5107H272.911V11.0888H273.81C274.165 11.0888 274.475 11.0275 274.74 10.9048C275.009 10.7822 275.219 10.6098 275.372 10.3878C275.524 10.1624 275.599 9.90223 275.595 9.60724C275.599 9.31889 275.534 9.06866 275.401 8.85653C275.272 8.6411 275.088 8.47372 274.85 8.3544C274.614 8.23508 274.337 8.17543 274.019 8.17543C273.708 8.17543 273.419 8.23177 273.154 8.34446C272.889 8.45715 272.675 8.6179 272.513 8.8267C272.35 9.0322 272.264 9.27746 272.254 9.5625H270.479C270.493 8.99242 270.657 8.49195 270.972 8.06108C271.29 7.62689 271.714 7.28883 272.244 7.04688C272.775 6.80161 273.37 6.67898 274.029 6.67898C274.709 6.67898 275.299 6.80658 275.799 7.06179C276.303 7.31368 276.692 7.65341 276.967 8.08097C277.243 8.50852 277.38 8.98082 277.38 9.49787C277.383 10.0713 277.214 10.5518 276.873 10.9396C276.535 11.3274 276.091 11.581 275.541 11.7003V11.7798C276.256 11.8793 276.805 12.1444 277.186 12.5753C277.571 13.0028 277.761 13.5348 277.758 14.1712C277.758 14.7412 277.595 15.2517 277.271 15.7024C276.949 16.1499 276.505 16.5012 275.938 16.7564C275.375 17.0116 274.729 17.1392 273.999 17.1392Z" fill="black"/>
<rect x="116" y="38" width="102" height="2" fill="#F7D055"/>
<rect x="24" y="11" width="80" height="2" fill="#F7D055"/>
<circle cx="102" cy="12" r="5" fill="#F7D055"/>
<circle cx="208" cy="12" r="5" fill="#F7D055"/>
<circle cx="117" cy="20" r="5" fill="#F7D055"/>
<rect x="206" y="11" width="60" height="2" fill="#F7D055"/>
</svg>
