<svg width="258" height="44" viewBox="0 0 258 44" fill="none" xmlns="http://www.w3.org/2000/svg">
<rect x="1" y="11" width="22" height="22" rx="7" fill="white"/>
<rect x="1" y="11" width="22" height="22" rx="7" stroke="#5D5D5D" stroke-width="2"/>
<path d="M37.19 26V17.026H38.45V26H37.19ZM46.6866 26.168C44.8666 26.168 43.4386 24.67 43.4386 22.64C43.4386 20.652 44.8106 19.126 46.6866 19.126C47.7366 19.126 48.5346 19.63 49.0386 20.456V19.294H50.2846V26H49.0386V24.796C48.5346 25.622 47.7366 26.168 46.6866 26.168ZM46.8686 25.006C48.1286 25.006 49.0386 23.942 49.0386 22.64C49.0386 21.324 48.1286 20.288 46.8686 20.288C45.5946 20.288 44.6846 21.324 44.6846 22.64C44.6846 23.942 45.5946 25.006 46.8686 25.006ZM53.1865 27.078C53.6345 27.414 54.3765 27.778 55.3425 27.778C56.7425 27.778 57.5545 27.022 57.5545 25.594V24.656C57.0645 25.454 56.2525 25.986 55.2165 25.986C53.4245 25.986 52.0245 24.53 52.0245 22.556C52.0245 20.61 53.4245 19.154 55.2165 19.154C56.2525 19.154 57.0645 19.644 57.5545 20.414V19.294H58.8005V25.524C58.8005 28.002 57.2325 28.912 55.3985 28.912C54.1805 28.912 53.2005 28.604 52.5425 28.058L53.1865 27.078ZM55.4265 24.824C56.6725 24.824 57.5545 23.802 57.5545 22.542C57.5545 21.296 56.6725 20.288 55.4265 20.288C54.1805 20.288 53.2705 21.296 53.2705 22.542C53.2705 23.802 54.1805 24.824 55.4265 24.824ZM61.0458 26V19.294H62.2778V20.246C62.6138 19.546 63.1878 19.126 63.9718 19.126C64.3918 19.126 64.7558 19.224 64.9938 19.42L64.4758 20.582C64.2518 20.428 63.9298 20.316 63.6078 20.316C62.7958 20.316 62.2778 21.016 62.2778 22.136V26H61.0458ZM68.7729 26.168C66.7289 26.168 65.2589 24.586 65.2589 22.64C65.2589 20.694 66.6729 19.126 68.5769 19.126C70.4529 19.126 71.8809 20.624 71.8809 22.514C71.8809 22.682 71.8669 22.934 71.8389 23.032H66.5329C66.6869 24.194 67.5689 25.062 68.8149 25.062C69.5709 25.062 70.2429 24.768 70.6909 24.32L71.3489 25.174C70.8029 25.762 69.8509 26.168 68.7729 26.168ZM68.5909 20.19C67.5409 20.19 66.7849 20.946 66.5609 22.01H70.5789C70.3549 20.848 69.5989 20.19 68.5909 20.19ZM76.5112 26.168C74.4672 26.168 72.9972 24.586 72.9972 22.64C72.9972 20.694 74.4112 19.126 76.3152 19.126C78.1912 19.126 79.6192 20.624 79.6192 22.514C79.6192 22.682 79.6052 22.934 79.5772 23.032H74.2712C74.4252 24.194 75.3072 25.062 76.5532 25.062C77.3092 25.062 77.9812 24.768 78.4292 24.32L79.0872 25.174C78.5412 25.762 77.5892 26.168 76.5112 26.168ZM76.3292 20.19C75.2792 20.19 74.5232 20.946 74.2992 22.01H78.3172C78.0932 20.848 77.3372 20.19 76.3292 20.19ZM83.6413 20.4V19.294H84.7473V17.628H85.9933V19.294H87.8973V20.4H86.0073V23.942C86.0073 24.656 86.3293 25.006 86.9313 25.006C87.2673 25.006 87.6033 24.88 87.7993 24.656L88.3733 25.594C88.0513 25.902 87.5053 26.168 86.7633 26.168C85.5033 26.168 84.7473 25.426 84.7473 23.984V20.4H83.6413ZM92.2589 26.168C90.3409 26.168 88.8429 24.586 88.8429 22.64C88.8429 20.694 90.3409 19.126 92.2589 19.126C94.1909 19.126 95.6889 20.694 95.6889 22.64C95.6889 24.586 94.1909 26.168 92.2589 26.168ZM92.2729 25.006C93.5329 25.006 94.4429 23.942 94.4429 22.64C94.4429 21.324 93.5329 20.288 92.2729 20.288C90.9989 20.288 90.0889 21.324 90.0889 22.64C90.0889 23.942 90.9989 25.006 92.2729 25.006ZM99.8562 20.4V19.294H100.962V17.628H102.208V19.294H104.112V20.4H102.222V23.942C102.222 24.656 102.544 25.006 103.146 25.006C103.482 25.006 103.818 24.88 104.014 24.656L104.588 25.594C104.266 25.902 103.72 26.168 102.978 26.168C101.718 26.168 100.962 25.426 100.962 23.984V20.4H99.8562ZM105.917 26V16.368H107.149V20.316C107.527 19.574 108.241 19.126 109.179 19.126C110.747 19.126 111.769 20.204 111.769 21.898V26H110.537V22.094C110.537 20.988 109.893 20.288 108.843 20.288C107.793 20.288 107.149 20.988 107.149 22.094V26H105.917ZM116.925 26.168C114.881 26.168 113.411 24.586 113.411 22.64C113.411 20.694 114.825 19.126 116.729 19.126C118.605 19.126 120.033 20.624 120.033 22.514C120.033 22.682 120.019 22.934 119.991 23.032H114.685C114.839 24.194 115.721 25.062 116.967 25.062C117.723 25.062 118.395 24.768 118.843 24.32L119.501 25.174C118.955 25.762 118.003 26.168 116.925 26.168ZM116.743 20.19C115.693 20.19 114.937 20.946 114.713 22.01H118.731C118.507 20.848 117.751 20.19 116.743 20.19ZM124.055 20.4V19.294H125.161V17.628H126.407V19.294H128.311V20.4H126.421V23.942C126.421 24.656 126.743 25.006 127.345 25.006C127.681 25.006 128.017 24.88 128.213 24.656L128.787 25.594C128.465 25.902 127.919 26.168 127.177 26.168C125.917 26.168 125.161 25.426 125.161 23.984V20.4H124.055ZM132.771 26.168C130.727 26.168 129.257 24.586 129.257 22.64C129.257 20.694 130.671 19.126 132.575 19.126C134.451 19.126 135.879 20.624 135.879 22.514C135.879 22.682 135.865 22.934 135.837 23.032H130.531C130.685 24.194 131.567 25.062 132.813 25.062C133.569 25.062 134.241 24.768 134.689 24.32L135.347 25.174C134.801 25.762 133.849 26.168 132.771 26.168ZM132.589 20.19C131.539 20.19 130.783 20.946 130.559 22.01H134.577C134.353 20.848 133.597 20.19 132.589 20.19ZM137.485 26V19.294H138.717V20.246C139.053 19.546 139.627 19.126 140.411 19.126C140.831 19.126 141.195 19.224 141.433 19.42L140.915 20.582C140.691 20.428 140.369 20.316 140.047 20.316C139.235 20.316 138.717 21.016 138.717 22.136V26H137.485ZM143.981 26H142.749V19.294H143.981V20.358C144.345 19.602 145.045 19.126 145.955 19.126C147.033 19.126 147.845 19.672 148.223 20.61C148.545 19.742 149.273 19.126 150.351 19.126C151.905 19.126 152.913 20.176 152.913 21.898V26H151.667V22.094C151.667 20.988 151.065 20.288 150.057 20.288C149.063 20.288 148.447 20.988 148.447 22.094V26H147.201V22.094C147.201 20.988 146.599 20.288 145.605 20.288C144.597 20.288 143.981 20.988 143.981 22.094V26ZM156.916 26.168C155.922 26.168 155.026 25.902 154.34 25.496L154.816 24.474C155.572 24.866 156.23 25.09 157 25.09C157.938 25.09 158.386 24.726 158.386 24.194C158.386 22.668 154.578 23.592 154.578 21.002C154.578 20.008 155.474 19.126 157.098 19.126C158.008 19.126 158.722 19.35 159.45 19.7L158.96 20.722C158.484 20.456 157.798 20.218 157.154 20.218C156.328 20.218 155.838 20.498 155.838 20.988C155.838 22.528 159.618 21.618 159.618 24.166C159.618 25.314 158.624 26.168 156.916 26.168ZM167.191 26.168C165.37 26.168 163.943 24.67 163.943 22.64C163.943 20.652 165.315 19.126 167.191 19.126C168.241 19.126 169.039 19.63 169.543 20.456V19.294H170.789V26H169.543V24.796C169.039 25.622 168.241 26.168 167.191 26.168ZM167.373 25.006C168.633 25.006 169.543 23.942 169.543 22.64C169.543 21.324 168.633 20.288 167.373 20.288C166.099 20.288 165.189 21.324 165.189 22.64C165.189 23.942 166.099 25.006 167.373 25.006ZM173.018 26V19.294H174.25V20.316C174.628 19.574 175.342 19.126 176.28 19.126C177.848 19.126 178.87 20.204 178.87 21.898V26H177.638V22.094C177.638 20.988 176.994 20.288 175.944 20.288C174.894 20.288 174.25 20.988 174.25 22.094V26H173.018ZM183.761 26.168C181.941 26.168 180.513 24.67 180.513 22.64C180.513 20.652 181.885 19.126 183.761 19.126C184.811 19.126 185.609 19.63 186.113 20.456V16.368H187.359V26H186.113V24.796C185.609 25.622 184.811 26.168 183.761 26.168ZM183.943 25.006C185.203 25.006 186.113 23.942 186.113 22.64C186.113 21.324 185.203 20.288 183.943 20.288C182.669 20.288 181.759 21.324 181.759 22.64C181.759 23.942 182.669 25.006 183.943 25.006ZM197.535 20.946C197.073 20.526 196.499 20.288 195.757 20.288C194.427 20.288 193.517 21.324 193.517 22.64C193.517 23.942 194.441 25.006 195.743 25.006C196.485 25.006 197.115 24.768 197.563 24.32L198.207 25.23C197.675 25.804 196.737 26.168 195.715 26.168C193.755 26.168 192.271 24.586 192.271 22.64C192.271 20.694 193.769 19.126 195.729 19.126C196.793 19.126 197.689 19.49 198.249 20.064L197.535 20.946ZM202.317 26.168C200.399 26.168 198.901 24.586 198.901 22.64C198.901 20.694 200.399 19.126 202.317 19.126C204.249 19.126 205.747 20.694 205.747 22.64C205.747 24.586 204.249 26.168 202.317 26.168ZM202.331 25.006C203.591 25.006 204.501 23.942 204.501 22.64C204.501 21.324 203.591 20.288 202.331 20.288C201.057 20.288 200.147 21.324 200.147 22.64C200.147 23.942 201.057 25.006 202.331 25.006ZM207.499 26V19.294H208.731V20.316C209.109 19.574 209.823 19.126 210.761 19.126C212.329 19.126 213.351 20.204 213.351 21.898V26H212.119V22.094C212.119 20.988 211.475 20.288 210.425 20.288C209.375 20.288 208.731 20.988 208.731 22.094V26H207.499ZM218.241 26.168C216.421 26.168 214.993 24.67 214.993 22.64C214.993 20.652 216.365 19.126 218.241 19.126C219.291 19.126 220.089 19.63 220.593 20.456V16.368H221.839V26H220.593V24.796C220.089 25.622 219.291 26.168 218.241 26.168ZM218.423 25.006C219.683 25.006 220.593 23.942 220.593 22.64C220.593 21.324 219.683 20.288 218.423 20.288C217.149 20.288 216.239 21.324 216.239 22.64C216.239 23.942 217.149 25.006 218.423 25.006ZM224.685 18.132C224.251 18.132 223.915 17.782 223.915 17.362C223.915 16.942 224.251 16.592 224.685 16.592C225.105 16.592 225.455 16.942 225.455 17.362C225.455 17.782 225.105 18.132 224.685 18.132ZM225.301 26H224.069V19.294H225.301V26ZM226.786 20.4V19.294H227.892V17.628H229.138V19.294H231.042V20.4H229.152V23.942C229.152 24.656 229.474 25.006 230.076 25.006C230.412 25.006 230.748 24.88 230.944 24.656L231.518 25.594C231.196 25.902 230.65 26.168 229.908 26.168C228.648 26.168 227.892 25.426 227.892 23.984V20.4H226.786ZM233.463 18.132C233.029 18.132 232.693 17.782 232.693 17.362C232.693 16.942 233.029 16.592 233.463 16.592C233.883 16.592 234.233 16.942 234.233 17.362C234.233 17.782 233.883 18.132 233.463 18.132ZM234.079 26H232.847V19.294H234.079V26ZM239.245 26.168C237.327 26.168 235.829 24.586 235.829 22.64C235.829 20.694 237.327 19.126 239.245 19.126C241.177 19.126 242.675 20.694 242.675 22.64C242.675 24.586 241.177 26.168 239.245 26.168ZM239.259 25.006C240.519 25.006 241.429 23.942 241.429 22.64C241.429 21.324 240.519 20.288 239.259 20.288C237.985 20.288 237.075 21.324 237.075 22.64C237.075 23.942 237.985 25.006 239.259 25.006ZM244.427 26V19.294H245.659V20.316C246.037 19.574 246.751 19.126 247.689 19.126C249.257 19.126 250.279 20.204 250.279 21.898V26H249.047V22.094C249.047 20.988 248.403 20.288 247.353 20.288C246.303 20.288 245.659 20.988 245.659 22.094V26H244.427ZM254.301 26.168C253.307 26.168 252.411 25.902 251.725 25.496L252.201 24.474C252.957 24.866 253.615 25.09 254.385 25.09C255.323 25.09 255.771 24.726 255.771 24.194C255.771 22.668 251.963 23.592 251.963 21.002C251.963 20.008 252.859 19.126 254.483 19.126C255.393 19.126 256.107 19.35 256.835 19.7L256.345 20.722C255.869 20.456 255.183 20.218 254.539 20.218C253.713 20.218 253.223 20.498 253.223 20.988C253.223 22.528 257.003 21.618 257.003 24.166C257.003 25.314 256.009 26.168 254.301 26.168Z" fill="black"/>
</svg>
