<svg width="100" height="88" viewBox="0 0 100 88" fill="none" xmlns="http://www.w3.org/2000/svg">
<rect x="1.5" y="11" width="22" height="22" rx="7" fill="white"/>
<rect x="1.5" y="11" width="22" height="22" rx="7" stroke="#5D5D5D" stroke-width="2"/>
<path d="M44.97 17.978L44.13 18.958C43.528 18.454 42.772 18.104 41.764 18.104C39.972 18.104 38.53 19.63 38.53 21.52C38.53 23.396 39.972 24.922 41.876 24.922C42.744 24.922 43.57 24.628 44.144 24.096L44.97 25.02C44.144 25.832 43.122 26.168 41.792 26.168C39.188 26.168 37.186 24.082 37.186 21.52C37.186 18.944 39.23 16.858 41.75 16.858C43.178 16.858 44.186 17.264 44.97 17.978ZM46.411 26V16.368H47.643V20.316C48.021 19.574 48.735 19.126 49.673 19.126C51.241 19.126 52.263 20.204 52.263 21.898V26H51.031V22.094C51.031 20.988 50.387 20.288 49.337 20.288C48.287 20.288 47.643 20.988 47.643 22.094V26H46.411ZM57.4194 26.168C55.3754 26.168 53.9054 24.586 53.9054 22.64C53.9054 20.694 55.3194 19.126 57.2234 19.126C59.0994 19.126 60.5274 20.624 60.5274 22.514C60.5274 22.682 60.5134 22.934 60.4854 23.032H55.1794C55.3334 24.194 56.2154 25.062 57.4614 25.062C58.2174 25.062 58.8894 24.768 59.3374 24.32L59.9954 25.174C59.4494 25.762 58.4974 26.168 57.4194 26.168ZM57.2374 20.19C56.1874 20.19 55.4314 20.946 55.2074 22.01H59.2254C59.0014 20.848 58.2454 20.19 57.2374 20.19ZM66.9077 20.946C66.4457 20.526 65.8717 20.288 65.1297 20.288C63.7997 20.288 62.8897 21.324 62.8897 22.64C62.8897 23.942 63.8137 25.006 65.1157 25.006C65.8577 25.006 66.4877 24.768 66.9357 24.32L67.5797 25.23C67.0477 25.804 66.1097 26.168 65.0877 26.168C63.1277 26.168 61.6437 24.586 61.6437 22.64C61.6437 20.694 63.1417 19.126 65.1017 19.126C66.1657 19.126 67.0617 19.49 67.6217 20.064L66.9077 20.946ZM70.1879 26H68.9559V16.368H70.1879V22.22L73.3379 19.294H74.9059L71.5319 22.43L75.1439 26H73.5199L70.1879 22.682V26ZM79.8407 19.126C81.6607 19.126 83.0887 20.624 83.0887 22.654C83.0887 24.642 81.7167 26.168 79.8407 26.168C78.7907 26.168 77.9927 25.664 77.4887 24.838V26H76.2567V16.368H77.4887V20.498C77.9927 19.672 78.7907 19.126 79.8407 19.126ZM79.6867 20.288C78.4127 20.288 77.4887 21.352 77.4887 22.654C77.4887 23.97 78.4127 25.006 79.6867 25.006C80.9467 25.006 81.8567 23.97 81.8567 22.654C81.8567 21.352 80.9467 20.288 79.6867 20.288ZM87.7687 26.168C85.8507 26.168 84.3527 24.586 84.3527 22.64C84.3527 20.694 85.8507 19.126 87.7687 19.126C89.7007 19.126 91.1987 20.694 91.1987 22.64C91.1987 24.586 89.7007 26.168 87.7687 26.168ZM87.7827 25.006C89.0427 25.006 89.9527 23.942 89.9527 22.64C89.9527 21.324 89.0427 20.288 87.7827 20.288C86.5087 20.288 85.5987 21.324 85.5987 22.64C85.5987 23.942 86.5087 25.006 87.7827 25.006ZM91.6299 26L94.2199 22.584L91.7419 19.294H93.2819L95.0319 21.632L96.8239 19.294H98.2239L95.7459 22.57L98.3219 26H96.7819L94.9199 23.522L93.0299 26H91.6299Z" fill="black"/>
<rect x="1.5" y="55" width="22" height="22" rx="7" fill="white"/>
<rect x="1.5" y="55" width="22" height="22" rx="7" stroke="#5D5D5D" stroke-width="2"/>
<path d="M44.97 61.978L44.13 62.958C43.528 62.454 42.772 62.104 41.764 62.104C39.972 62.104 38.53 63.63 38.53 65.52C38.53 67.396 39.972 68.922 41.876 68.922C42.744 68.922 43.57 68.628 44.144 68.096L44.97 69.02C44.144 69.832 43.122 70.168 41.792 70.168C39.188 70.168 37.186 68.082 37.186 65.52C37.186 62.944 39.23 60.858 41.75 60.858C43.178 60.858 44.186 61.264 44.97 61.978ZM46.411 70V60.368H47.643V64.316C48.021 63.574 48.735 63.126 49.673 63.126C51.241 63.126 52.263 64.204 52.263 65.898V70H51.031V66.094C51.031 64.988 50.387 64.288 49.337 64.288C48.287 64.288 47.643 64.988 47.643 66.094V70H46.411ZM57.4194 70.168C55.3754 70.168 53.9054 68.586 53.9054 66.64C53.9054 64.694 55.3194 63.126 57.2234 63.126C59.0994 63.126 60.5274 64.624 60.5274 66.514C60.5274 66.682 60.5134 66.934 60.4854 67.032H55.1794C55.3334 68.194 56.2154 69.062 57.4614 69.062C58.2174 69.062 58.8894 68.768 59.3374 68.32L59.9954 69.174C59.4494 69.762 58.4974 70.168 57.4194 70.168ZM57.2374 64.19C56.1874 64.19 55.4314 64.946 55.2074 66.01H59.2254C59.0014 64.848 58.2454 64.19 57.2374 64.19ZM66.9077 64.946C66.4457 64.526 65.8717 64.288 65.1297 64.288C63.7997 64.288 62.8897 65.324 62.8897 66.64C62.8897 67.942 63.8137 69.006 65.1157 69.006C65.8577 69.006 66.4877 68.768 66.9357 68.32L67.5797 69.23C67.0477 69.804 66.1097 70.168 65.0877 70.168C63.1277 70.168 61.6437 68.586 61.6437 66.64C61.6437 64.694 63.1417 63.126 65.1017 63.126C66.1657 63.126 67.0617 63.49 67.6217 64.064L66.9077 64.946ZM70.1879 70H68.9559V60.368H70.1879V66.22L73.3379 63.294H74.9059L71.5319 66.43L75.1439 70H73.5199L70.1879 66.682V70ZM79.8407 63.126C81.6607 63.126 83.0887 64.624 83.0887 66.654C83.0887 68.642 81.7167 70.168 79.8407 70.168C78.7907 70.168 77.9927 69.664 77.4887 68.838V70H76.2567V60.368H77.4887V64.498C77.9927 63.672 78.7907 63.126 79.8407 63.126ZM79.6867 64.288C78.4127 64.288 77.4887 65.352 77.4887 66.654C77.4887 67.97 78.4127 69.006 79.6867 69.006C80.9467 69.006 81.8567 67.97 81.8567 66.654C81.8567 65.352 80.9467 64.288 79.6867 64.288ZM87.7687 70.168C85.8507 70.168 84.3527 68.586 84.3527 66.64C84.3527 64.694 85.8507 63.126 87.7687 63.126C89.7007 63.126 91.1987 64.694 91.1987 66.64C91.1987 68.586 89.7007 70.168 87.7687 70.168ZM87.7827 69.006C89.0427 69.006 89.9527 67.942 89.9527 66.64C89.9527 65.324 89.0427 64.288 87.7827 64.288C86.5087 64.288 85.5987 65.324 85.5987 66.64C85.5987 67.942 86.5087 69.006 87.7827 69.006ZM91.6299 70L94.2199 66.584L91.7419 63.294H93.2819L95.0319 65.632L96.8239 63.294H98.2239L95.7459 66.57L98.3219 70H96.7819L94.9199 67.522L93.0299 70H91.6299Z" fill="black"/>
</svg>
