<svg width="304" height="44" viewBox="0 0 304 44" fill="none" xmlns="http://www.w3.org/2000/svg">
<rect x="1.5" y="11" width="22" height="22" rx="7" fill="white"/>
<rect x="1.5" y="11" width="22" height="22" rx="7" stroke="#5D5D5D" stroke-width="2"/>
<path d="M37.69 26V17.04H40.434C43.416 17.04 45.488 18.874 45.488 21.52C45.488 24.166 43.472 26 40.56 26H37.69ZM40.462 18.23H38.978V24.81H40.462C42.688 24.81 44.144 23.508 44.144 21.52C44.144 19.532 42.688 18.23 40.462 18.23ZM50.2257 26.168C48.3077 26.168 46.8097 24.586 46.8097 22.64C46.8097 20.694 48.3077 19.126 50.2257 19.126C52.1577 19.126 53.6557 20.694 53.6557 22.64C53.6557 24.586 52.1577 26.168 50.2257 26.168ZM50.2397 25.006C51.4997 25.006 52.4097 23.942 52.4097 22.64C52.4097 21.324 51.4997 20.288 50.2397 20.288C48.9657 20.288 48.0557 21.324 48.0557 22.64C48.0557 23.942 48.9657 25.006 50.2397 25.006ZM55.4071 26V19.294H56.6391V20.316C57.0171 19.574 57.7311 19.126 58.6691 19.126C60.2371 19.126 61.2591 20.204 61.2591 21.898V26H60.0271V22.094C60.0271 20.988 59.3831 20.288 58.3331 20.288C57.2831 20.288 56.6391 20.988 56.6391 22.094V26H55.4071ZM63.496 16.354C63.916 16.354 64.238 16.676 64.238 17.082C64.238 17.278 64.168 17.516 64 17.768L63.146 19.238H62.53L63.244 17.74C62.964 17.628 62.754 17.39 62.754 17.082C62.754 16.676 63.076 16.354 63.496 16.354ZM64.8913 20.4V19.294H65.9973V17.628H67.2433V19.294H69.1473V20.4H67.2573V23.942C67.2573 24.656 67.5793 25.006 68.1813 25.006C68.5173 25.006 68.8533 24.88 69.0493 24.656L69.6233 25.594C69.3013 25.902 68.7553 26.168 68.0133 26.168C66.7533 26.168 65.9973 25.426 65.9973 23.984V20.4H64.8913ZM76.8819 26.168C75.0619 26.168 73.6339 24.67 73.6339 22.64C73.6339 20.652 75.0059 19.126 76.8819 19.126C77.9319 19.126 78.7299 19.63 79.2339 20.456V19.294H80.4799V26H79.2339V24.796C78.7299 25.622 77.9319 26.168 76.8819 26.168ZM77.0639 25.006C78.3239 25.006 79.2339 23.942 79.2339 22.64C79.2339 21.324 78.3239 20.288 77.0639 20.288C75.7899 20.288 74.8799 21.324 74.8799 22.64C74.8799 23.942 75.7899 25.006 77.0639 25.006ZM83.3818 27.078C83.8298 27.414 84.5718 27.778 85.5378 27.778C86.9378 27.778 87.7498 27.022 87.7498 25.594V24.656C87.2598 25.454 86.4478 25.986 85.4118 25.986C83.6198 25.986 82.2198 24.53 82.2198 22.556C82.2198 20.61 83.6198 19.154 85.4118 19.154C86.4478 19.154 87.2598 19.644 87.7498 20.414V19.294H88.9958V25.524C88.9958 28.002 87.4278 28.912 85.5938 28.912C84.3758 28.912 83.3958 28.604 82.7378 28.058L83.3818 27.078ZM85.6218 24.824C86.8678 24.824 87.7498 23.802 87.7498 22.542C87.7498 21.296 86.8678 20.288 85.6218 20.288C84.3758 20.288 83.4658 21.296 83.4658 22.542C83.4658 23.802 84.3758 24.824 85.6218 24.824ZM91.2411 26V19.294H92.4731V20.246C92.8091 19.546 93.3831 19.126 94.1671 19.126C94.5871 19.126 94.9511 19.224 95.1891 19.42L94.6711 20.582C94.4471 20.428 94.1251 20.316 93.8031 20.316C92.9911 20.316 92.4731 21.016 92.4731 22.136V26H91.2411ZM98.9682 26.168C96.9242 26.168 95.4542 24.586 95.4542 22.64C95.4542 20.694 96.8682 19.126 98.7722 19.126C100.648 19.126 102.076 20.624 102.076 22.514C102.076 22.682 102.062 22.934 102.034 23.032H96.7282C96.8822 24.194 97.7642 25.062 99.0102 25.062C99.7662 25.062 100.438 24.768 100.886 24.32L101.544 25.174C100.998 25.762 100.046 26.168 98.9682 26.168ZM98.7862 20.19C97.7362 20.19 96.9802 20.946 96.7562 22.01H100.774C100.55 20.848 99.7942 20.19 98.7862 20.19ZM106.707 26.168C104.663 26.168 103.193 24.586 103.193 22.64C103.193 20.694 104.607 19.126 106.511 19.126C108.387 19.126 109.815 20.624 109.815 22.514C109.815 22.682 109.801 22.934 109.773 23.032H104.467C104.62 24.194 105.503 25.062 106.749 25.062C107.505 25.062 108.177 24.768 108.625 24.32L109.283 25.174C108.737 25.762 107.785 26.168 106.707 26.168ZM106.525 20.19C105.475 20.19 104.719 20.946 104.495 22.01H108.513C108.289 20.848 107.533 20.19 106.525 20.19ZM117.365 26H115.951L113.795 19.294H115.125L116.679 24.614L118.359 19.294H119.717L121.411 24.628L122.979 19.294H124.309L122.153 26H120.613L118.975 20.876L117.365 26ZM126.351 18.132C125.917 18.132 125.581 17.782 125.581 17.362C125.581 16.942 125.917 16.592 126.351 16.592C126.771 16.592 127.121 16.942 127.121 17.362C127.121 17.782 126.771 18.132 126.351 18.132ZM126.967 26H125.735V19.294H126.967V26ZM128.452 20.4V19.294H129.558V17.628H130.804V19.294H132.708V20.4H130.818V23.942C130.818 24.656 131.14 25.006 131.742 25.006C132.078 25.006 132.414 24.88 132.61 24.656L133.184 25.594C132.862 25.902 132.316 26.168 131.574 26.168C130.314 26.168 129.558 25.426 129.558 23.984V20.4H128.452ZM134.513 26V16.368H135.745V20.316C136.123 19.574 136.837 19.126 137.775 19.126C139.343 19.126 140.365 20.204 140.365 21.898V26H139.133V22.094C139.133 20.988 138.489 20.288 137.439 20.288C136.389 20.288 135.745 20.988 135.745 22.094V26H134.513ZM144.913 20.4V19.294H146.019V17.628H147.265V19.294H149.169V20.4H147.279V23.942C147.279 24.656 147.601 25.006 148.203 25.006C148.539 25.006 148.875 24.88 149.071 24.656L149.645 25.594C149.323 25.902 148.777 26.168 148.035 26.168C146.775 26.168 146.019 25.426 146.019 23.984V20.4H144.913ZM150.974 26V16.368H152.206V20.316C152.584 19.574 153.298 19.126 154.236 19.126C155.804 19.126 156.826 20.204 156.826 21.898V26H155.594V22.094C155.594 20.988 154.95 20.288 153.9 20.288C152.85 20.288 152.206 20.988 152.206 22.094V26H150.974ZM161.982 26.168C159.938 26.168 158.468 24.586 158.468 22.64C158.468 20.694 159.882 19.126 161.786 19.126C163.662 19.126 165.09 20.624 165.09 22.514C165.09 22.682 165.076 22.934 165.048 23.032H159.742C159.896 24.194 160.778 25.062 162.024 25.062C162.78 25.062 163.452 24.768 163.9 24.32L164.558 25.174C164.012 25.762 163.06 26.168 161.982 26.168ZM161.8 20.19C160.75 20.19 159.994 20.946 159.77 22.01H163.788C163.564 20.848 162.808 20.19 161.8 20.19ZM169.112 20.4V19.294H170.218V17.628H171.464V19.294H173.368V20.4H171.478V23.942C171.478 24.656 171.8 25.006 172.402 25.006C172.738 25.006 173.074 24.88 173.27 24.656L173.844 25.594C173.522 25.902 172.976 26.168 172.234 26.168C170.974 26.168 170.218 25.426 170.218 23.984V20.4H169.112ZM177.828 26.168C175.784 26.168 174.314 24.586 174.314 22.64C174.314 20.694 175.728 19.126 177.632 19.126C179.508 19.126 180.936 20.624 180.936 22.514C180.936 22.682 180.922 22.934 180.894 23.032H175.588C175.742 24.194 176.624 25.062 177.87 25.062C178.626 25.062 179.298 24.768 179.746 24.32L180.404 25.174C179.858 25.762 178.906 26.168 177.828 26.168ZM177.646 20.19C176.596 20.19 175.84 20.946 175.616 22.01H179.634C179.41 20.848 178.654 20.19 177.646 20.19ZM182.542 26V19.294H183.774V20.246C184.11 19.546 184.684 19.126 185.468 19.126C185.888 19.126 186.252 19.224 186.49 19.42L185.972 20.582C185.748 20.428 185.426 20.316 185.104 20.316C184.292 20.316 183.774 21.016 183.774 22.136V26H182.542ZM189.038 26H187.806V19.294H189.038V20.358C189.402 19.602 190.102 19.126 191.012 19.126C192.09 19.126 192.902 19.672 193.28 20.61C193.602 19.742 194.33 19.126 195.408 19.126C196.962 19.126 197.97 20.176 197.97 21.898V26H196.724V22.094C196.724 20.988 196.122 20.288 195.114 20.288C194.12 20.288 193.504 20.988 193.504 22.094V26H192.258V22.094C192.258 20.988 191.656 20.288 190.662 20.288C189.654 20.288 189.038 20.988 189.038 22.094V26ZM201.973 26.168C200.979 26.168 200.083 25.902 199.397 25.496L199.873 24.474C200.629 24.866 201.287 25.09 202.057 25.09C202.995 25.09 203.443 24.726 203.443 24.194C203.443 22.668 199.635 23.592 199.635 21.002C199.635 20.008 200.531 19.126 202.155 19.126C203.065 19.126 203.779 19.35 204.507 19.7L204.017 20.722C203.541 20.456 202.855 20.218 202.211 20.218C201.385 20.218 200.895 20.498 200.895 20.988C200.895 22.528 204.675 21.618 204.675 24.166C204.675 25.314 203.681 26.168 201.973 26.168ZM212.247 26.168C210.427 26.168 208.999 24.67 208.999 22.64C208.999 20.652 210.371 19.126 212.247 19.126C213.297 19.126 214.095 19.63 214.599 20.456V19.294H215.845V26H214.599V24.796C214.095 25.622 213.297 26.168 212.247 26.168ZM212.429 25.006C213.689 25.006 214.599 23.942 214.599 22.64C214.599 21.324 213.689 20.288 212.429 20.288C211.155 20.288 210.245 21.324 210.245 22.64C210.245 23.942 211.155 25.006 212.429 25.006ZM218.075 26V19.294H219.307V20.316C219.685 19.574 220.399 19.126 221.337 19.126C222.905 19.126 223.927 20.204 223.927 21.898V26H222.695V22.094C222.695 20.988 222.051 20.288 221.001 20.288C219.951 20.288 219.307 20.988 219.307 22.094V26H218.075ZM228.817 26.168C226.997 26.168 225.569 24.67 225.569 22.64C225.569 20.652 226.941 19.126 228.817 19.126C229.867 19.126 230.665 19.63 231.169 20.456V16.368H232.415V26H231.169V24.796C230.665 25.622 229.867 26.168 228.817 26.168ZM228.999 25.006C230.259 25.006 231.169 23.942 231.169 22.64C231.169 21.324 230.259 20.288 228.999 20.288C227.725 20.288 226.815 21.324 226.815 22.64C226.815 23.942 227.725 25.006 228.999 25.006ZM242.591 20.946C242.129 20.526 241.555 20.288 240.813 20.288C239.483 20.288 238.573 21.324 238.573 22.64C238.573 23.942 239.497 25.006 240.799 25.006C241.541 25.006 242.171 24.768 242.619 24.32L243.263 25.23C242.731 25.804 241.793 26.168 240.771 26.168C238.811 26.168 237.327 24.586 237.327 22.64C237.327 20.694 238.825 19.126 240.785 19.126C241.849 19.126 242.745 19.49 243.305 20.064L242.591 20.946ZM247.374 26.168C245.456 26.168 243.958 24.586 243.958 22.64C243.958 20.694 245.456 19.126 247.374 19.126C249.306 19.126 250.804 20.694 250.804 22.64C250.804 24.586 249.306 26.168 247.374 26.168ZM247.388 25.006C248.648 25.006 249.558 23.942 249.558 22.64C249.558 21.324 248.648 20.288 247.388 20.288C246.114 20.288 245.204 21.324 245.204 22.64C245.204 23.942 246.114 25.006 247.388 25.006ZM252.556 26V19.294H253.788V20.316C254.166 19.574 254.88 19.126 255.818 19.126C257.386 19.126 258.408 20.204 258.408 21.898V26H257.176V22.094C257.176 20.988 256.532 20.288 255.482 20.288C254.432 20.288 253.788 20.988 253.788 22.094V26H252.556ZM263.298 26.168C261.478 26.168 260.05 24.67 260.05 22.64C260.05 20.652 261.422 19.126 263.298 19.126C264.348 19.126 265.146 19.63 265.65 20.456V16.368H266.896V26H265.65V24.796C265.146 25.622 264.348 26.168 263.298 26.168ZM263.48 25.006C264.74 25.006 265.65 23.942 265.65 22.64C265.65 21.324 264.74 20.288 263.48 20.288C262.206 20.288 261.296 21.324 261.296 22.64C261.296 23.942 262.206 25.006 263.48 25.006ZM269.742 18.132C269.308 18.132 268.972 17.782 268.972 17.362C268.972 16.942 269.308 16.592 269.742 16.592C270.162 16.592 270.512 16.942 270.512 17.362C270.512 17.782 270.162 18.132 269.742 18.132ZM270.358 26H269.126V19.294H270.358V26ZM271.843 20.4V19.294H272.949V17.628H274.195V19.294H276.099V20.4H274.209V23.942C274.209 24.656 274.531 25.006 275.133 25.006C275.469 25.006 275.805 24.88 276.001 24.656L276.575 25.594C276.253 25.902 275.707 26.168 274.965 26.168C273.705 26.168 272.949 25.426 272.949 23.984V20.4H271.843ZM278.519 18.132C278.085 18.132 277.749 17.782 277.749 17.362C277.749 16.942 278.085 16.592 278.519 16.592C278.939 16.592 279.289 16.942 279.289 17.362C279.289 17.782 278.939 18.132 278.519 18.132ZM279.135 26H277.903V19.294H279.135V26ZM284.302 26.168C282.384 26.168 280.886 24.586 280.886 22.64C280.886 20.694 282.384 19.126 284.302 19.126C286.234 19.126 287.732 20.694 287.732 22.64C287.732 24.586 286.234 26.168 284.302 26.168ZM284.316 25.006C285.576 25.006 286.486 23.942 286.486 22.64C286.486 21.324 285.576 20.288 284.316 20.288C283.042 20.288 282.132 21.324 282.132 22.64C282.132 23.942 283.042 25.006 284.316 25.006ZM289.483 26V19.294H290.715V20.316C291.093 19.574 291.807 19.126 292.745 19.126C294.313 19.126 295.335 20.204 295.335 21.898V26H294.103V22.094C294.103 20.988 293.459 20.288 292.409 20.288C291.359 20.288 290.715 20.988 290.715 22.094V26H289.483ZM299.358 26.168C298.364 26.168 297.468 25.902 296.782 25.496L297.258 24.474C298.014 24.866 298.672 25.09 299.442 25.09C300.38 25.09 300.828 24.726 300.828 24.194C300.828 22.668 297.02 23.592 297.02 21.002C297.02 20.008 297.916 19.126 299.54 19.126C300.45 19.126 301.164 19.35 301.892 19.7L301.402 20.722C300.926 20.456 300.24 20.218 299.596 20.218C298.77 20.218 298.28 20.498 298.28 20.988C298.28 22.528 302.06 21.618 302.06 24.166C302.06 25.314 301.066 26.168 299.358 26.168Z" fill="black"/>
</svg>
