<svg width="106" height="44" viewBox="0 0 106 44" fill="none" xmlns="http://www.w3.org/2000/svg">
<rect x="6.5" y="10" width="24" height="24" rx="8" fill="#131331"/>
<path d="M17.0133 27L25.5 18.4911L24.0133 17L17.0133 24.0178L13.9867 20.9822L12.5 22.4734L17.0133 27Z" fill="white"/>
<path d="M50.97 17.978L50.13 18.958C49.528 18.454 48.772 18.104 47.764 18.104C45.972 18.104 44.53 19.63 44.53 21.52C44.53 23.396 45.972 24.922 47.876 24.922C48.744 24.922 49.57 24.628 50.144 24.096L50.97 25.02C50.144 25.832 49.122 26.168 47.792 26.168C45.188 26.168 43.186 24.082 43.186 21.52C43.186 18.944 45.23 16.858 47.75 16.858C49.178 16.858 50.186 17.264 50.97 17.978ZM52.411 26V16.368H53.643V20.316C54.021 19.574 54.735 19.126 55.673 19.126C57.241 19.126 58.263 20.204 58.263 21.898V26H57.031V22.094C57.031 20.988 56.387 20.288 55.337 20.288C54.287 20.288 53.643 20.988 53.643 22.094V26H52.411ZM63.4194 26.168C61.3754 26.168 59.9054 24.586 59.9054 22.64C59.9054 20.694 61.3194 19.126 63.2234 19.126C65.0994 19.126 66.5274 20.624 66.5274 22.514C66.5274 22.682 66.5134 22.934 66.4854 23.032H61.1794C61.3334 24.194 62.2154 25.062 63.4614 25.062C64.2174 25.062 64.8894 24.768 65.3374 24.32L65.9954 25.174C65.4494 25.762 64.4974 26.168 63.4194 26.168ZM63.2374 20.19C62.1874 20.19 61.4314 20.946 61.2074 22.01H65.2254C65.0014 20.848 64.2454 20.19 63.2374 20.19ZM72.9077 20.946C72.4457 20.526 71.8717 20.288 71.1297 20.288C69.7997 20.288 68.8897 21.324 68.8897 22.64C68.8897 23.942 69.8137 25.006 71.1157 25.006C71.8577 25.006 72.4877 24.768 72.9357 24.32L73.5797 25.23C73.0477 25.804 72.1097 26.168 71.0877 26.168C69.1277 26.168 67.6437 24.586 67.6437 22.64C67.6437 20.694 69.1417 19.126 71.1017 19.126C72.1657 19.126 73.0617 19.49 73.6217 20.064L72.9077 20.946ZM76.1879 26H74.9559V16.368H76.1879V22.22L79.3379 19.294H80.9059L77.5319 22.43L81.1439 26H79.5199L76.1879 22.682V26ZM85.8407 19.126C87.6607 19.126 89.0887 20.624 89.0887 22.654C89.0887 24.642 87.7167 26.168 85.8407 26.168C84.7907 26.168 83.9927 25.664 83.4887 24.838V26H82.2567V16.368H83.4887V20.498C83.9927 19.672 84.7907 19.126 85.8407 19.126ZM85.6867 20.288C84.4127 20.288 83.4887 21.352 83.4887 22.654C83.4887 23.97 84.4127 25.006 85.6867 25.006C86.9467 25.006 87.8567 23.97 87.8567 22.654C87.8567 21.352 86.9467 20.288 85.6867 20.288ZM93.7687 26.168C91.8507 26.168 90.3527 24.586 90.3527 22.64C90.3527 20.694 91.8507 19.126 93.7687 19.126C95.7007 19.126 97.1987 20.694 97.1987 22.64C97.1987 24.586 95.7007 26.168 93.7687 26.168ZM93.7827 25.006C95.0427 25.006 95.9527 23.942 95.9527 22.64C95.9527 21.324 95.0427 20.288 93.7827 20.288C92.5087 20.288 91.5987 21.324 91.5987 22.64C91.5987 23.942 92.5087 25.006 93.7827 25.006ZM97.6299 26L100.22 22.584L97.7419 19.294H99.2819L101.032 21.632L102.824 19.294H104.224L101.746 22.57L104.322 26H102.782L100.92 23.522L99.0299 26H97.6299Z" fill="black"/>
</svg>
