<svg width="100" height="72" viewBox="0 0 100 72" fill="none" xmlns="http://www.w3.org/2000/svg">
<rect x="1.5" y="11" width="22" height="22" rx="7" fill="white"/>
<rect x="1.5" y="11" width="22" height="22" rx="7" stroke="#5D5D5D" stroke-width="2"/>
<path d="M44.97 17.978L44.13 18.958C43.528 18.454 42.772 18.104 41.764 18.104C39.972 18.104 38.53 19.63 38.53 21.52C38.53 23.396 39.972 24.922 41.876 24.922C42.744 24.922 43.57 24.628 44.144 24.096L44.97 25.02C44.144 25.832 43.122 26.168 41.792 26.168C39.188 26.168 37.186 24.082 37.186 21.52C37.186 18.944 39.23 16.858 41.75 16.858C43.178 16.858 44.186 17.264 44.97 17.978ZM46.411 26V16.368H47.643V20.316C48.021 19.574 48.735 19.126 49.673 19.126C51.241 19.126 52.263 20.204 52.263 21.898V26H51.031V22.094C51.031 20.988 50.387 20.288 49.337 20.288C48.287 20.288 47.643 20.988 47.643 22.094V26H46.411ZM57.4194 26.168C55.3754 26.168 53.9054 24.586 53.9054 22.64C53.9054 20.694 55.3194 19.126 57.2234 19.126C59.0994 19.126 60.5274 20.624 60.5274 22.514C60.5274 22.682 60.5134 22.934 60.4854 23.032H55.1794C55.3334 24.194 56.2154 25.062 57.4614 25.062C58.2174 25.062 58.8894 24.768 59.3374 24.32L59.9954 25.174C59.4494 25.762 58.4974 26.168 57.4194 26.168ZM57.2374 20.19C56.1874 20.19 55.4314 20.946 55.2074 22.01H59.2254C59.0014 20.848 58.2454 20.19 57.2374 20.19ZM66.9077 20.946C66.4457 20.526 65.8717 20.288 65.1297 20.288C63.7997 20.288 62.8897 21.324 62.8897 22.64C62.8897 23.942 63.8137 25.006 65.1157 25.006C65.8577 25.006 66.4877 24.768 66.9357 24.32L67.5797 25.23C67.0477 25.804 66.1097 26.168 65.0877 26.168C63.1277 26.168 61.6437 24.586 61.6437 22.64C61.6437 20.694 63.1417 19.126 65.1017 19.126C66.1657 19.126 67.0617 19.49 67.6217 20.064L66.9077 20.946ZM70.1879 26H68.9559V16.368H70.1879V22.22L73.3379 19.294H74.9059L71.5319 22.43L75.1439 26H73.5199L70.1879 22.682V26ZM79.8407 19.126C81.6607 19.126 83.0887 20.624 83.0887 22.654C83.0887 24.642 81.7167 26.168 79.8407 26.168C78.7907 26.168 77.9927 25.664 77.4887 24.838V26H76.2567V16.368H77.4887V20.498C77.9927 19.672 78.7907 19.126 79.8407 19.126ZM79.6867 20.288C78.4127 20.288 77.4887 21.352 77.4887 22.654C77.4887 23.97 78.4127 25.006 79.6867 25.006C80.9467 25.006 81.8567 23.97 81.8567 22.654C81.8567 21.352 80.9467 20.288 79.6867 20.288ZM87.7687 26.168C85.8507 26.168 84.3527 24.586 84.3527 22.64C84.3527 20.694 85.8507 19.126 87.7687 19.126C89.7007 19.126 91.1987 20.694 91.1987 22.64C91.1987 24.586 89.7007 26.168 87.7687 26.168ZM87.7827 25.006C89.0427 25.006 89.9527 23.942 89.9527 22.64C89.9527 21.324 89.0427 20.288 87.7827 20.288C86.5087 20.288 85.5987 21.324 85.5987 22.64C85.5987 23.942 86.5087 25.006 87.7827 25.006ZM91.6299 26L94.2199 22.584L91.7419 19.294H93.2819L95.0319 21.632L96.8239 19.294H98.2239L95.7459 22.57L98.3219 26H96.7819L94.9199 23.522L93.0299 26H91.6299Z" fill="black"/>
<rect x="1.5" y="39" width="22" height="22" rx="7" fill="white"/>
<rect x="1.5" y="39" width="22" height="22" rx="7" stroke="#5D5D5D" stroke-width="2"/>
<path d="M44.97 45.978L44.13 46.958C43.528 46.454 42.772 46.104 41.764 46.104C39.972 46.104 38.53 47.63 38.53 49.52C38.53 51.396 39.972 52.922 41.876 52.922C42.744 52.922 43.57 52.628 44.144 52.096L44.97 53.02C44.144 53.832 43.122 54.168 41.792 54.168C39.188 54.168 37.186 52.082 37.186 49.52C37.186 46.944 39.23 44.858 41.75 44.858C43.178 44.858 44.186 45.264 44.97 45.978ZM46.411 54V44.368H47.643V48.316C48.021 47.574 48.735 47.126 49.673 47.126C51.241 47.126 52.263 48.204 52.263 49.898V54H51.031V50.094C51.031 48.988 50.387 48.288 49.337 48.288C48.287 48.288 47.643 48.988 47.643 50.094V54H46.411ZM57.4194 54.168C55.3754 54.168 53.9054 52.586 53.9054 50.64C53.9054 48.694 55.3194 47.126 57.2234 47.126C59.0994 47.126 60.5274 48.624 60.5274 50.514C60.5274 50.682 60.5134 50.934 60.4854 51.032H55.1794C55.3334 52.194 56.2154 53.062 57.4614 53.062C58.2174 53.062 58.8894 52.768 59.3374 52.32L59.9954 53.174C59.4494 53.762 58.4974 54.168 57.4194 54.168ZM57.2374 48.19C56.1874 48.19 55.4314 48.946 55.2074 50.01H59.2254C59.0014 48.848 58.2454 48.19 57.2374 48.19ZM66.9077 48.946C66.4457 48.526 65.8717 48.288 65.1297 48.288C63.7997 48.288 62.8897 49.324 62.8897 50.64C62.8897 51.942 63.8137 53.006 65.1157 53.006C65.8577 53.006 66.4877 52.768 66.9357 52.32L67.5797 53.23C67.0477 53.804 66.1097 54.168 65.0877 54.168C63.1277 54.168 61.6437 52.586 61.6437 50.64C61.6437 48.694 63.1417 47.126 65.1017 47.126C66.1657 47.126 67.0617 47.49 67.6217 48.064L66.9077 48.946ZM70.1879 54H68.9559V44.368H70.1879V50.22L73.3379 47.294H74.9059L71.5319 50.43L75.1439 54H73.5199L70.1879 50.682V54ZM79.8407 47.126C81.6607 47.126 83.0887 48.624 83.0887 50.654C83.0887 52.642 81.7167 54.168 79.8407 54.168C78.7907 54.168 77.9927 53.664 77.4887 52.838V54H76.2567V44.368H77.4887V48.498C77.9927 47.672 78.7907 47.126 79.8407 47.126ZM79.6867 48.288C78.4127 48.288 77.4887 49.352 77.4887 50.654C77.4887 51.97 78.4127 53.006 79.6867 53.006C80.9467 53.006 81.8567 51.97 81.8567 50.654C81.8567 49.352 80.9467 48.288 79.6867 48.288ZM87.7687 54.168C85.8507 54.168 84.3527 52.586 84.3527 50.64C84.3527 48.694 85.8507 47.126 87.7687 47.126C89.7007 47.126 91.1987 48.694 91.1987 50.64C91.1987 52.586 89.7007 54.168 87.7687 54.168ZM87.7827 53.006C89.0427 53.006 89.9527 51.942 89.9527 50.64C89.9527 49.324 89.0427 48.288 87.7827 48.288C86.5087 48.288 85.5987 49.324 85.5987 50.64C85.5987 51.942 86.5087 53.006 87.7827 53.006ZM91.6299 54L94.2199 50.584L91.7419 47.294H93.2819L95.0319 49.632L96.8239 47.294H98.2239L95.7459 50.57L98.3219 54H96.7819L94.9199 51.522L93.0299 54H91.6299Z" fill="black"/>
</svg>
