<svg width="198" height="44" viewBox="0 0 198 44" fill="none" xmlns="http://www.w3.org/2000/svg">
<rect x="1.5" y="11" width="22" height="22" rx="7" fill="white"/>
<rect x="1.5" y="11" width="22" height="22" rx="7" stroke="#BF1722" stroke-width="2"/>
<path d="M43.878 26L38.908 19.084V26H37.648V17.026H39.02L43.99 23.984V17.026H45.25V26H43.878ZM50.5424 26.168C48.4984 26.168 47.0284 24.586 47.0284 22.64C47.0284 20.694 48.4424 19.126 50.3464 19.126C52.2224 19.126 53.6504 20.624 53.6504 22.514C53.6504 22.682 53.6364 22.934 53.6084 23.032H48.3024C48.4564 24.194 49.3384 25.062 50.5844 25.062C51.3404 25.062 52.0124 24.768 52.4604 24.32L53.1184 25.174C52.5724 25.762 51.6204 26.168 50.5424 26.168ZM50.3604 20.19C49.3104 20.19 48.5544 20.946 48.3304 22.01H52.3484C52.1244 20.848 51.3684 20.19 50.3604 20.19ZM55.9287 27.078C56.3767 27.414 57.1187 27.778 58.0847 27.778C59.4847 27.778 60.2967 27.022 60.2967 25.594V24.656C59.8067 25.454 58.9947 25.986 57.9587 25.986C56.1667 25.986 54.7667 24.53 54.7667 22.556C54.7667 20.61 56.1667 19.154 57.9587 19.154C58.9947 19.154 59.8067 19.644 60.2967 20.414V19.294H61.5427V25.524C61.5427 28.002 59.9747 28.912 58.1407 28.912C56.9227 28.912 55.9427 28.604 55.2847 28.058L55.9287 27.078ZM58.1687 24.824C59.4147 24.824 60.2967 23.802 60.2967 22.542C60.2967 21.296 59.4147 20.288 58.1687 20.288C56.9227 20.288 56.0127 21.296 56.0127 22.542C56.0127 23.802 56.9227 24.824 58.1687 24.824ZM66.546 26.168C64.726 26.168 63.298 24.67 63.298 22.64C63.298 20.652 64.67 19.126 66.546 19.126C67.596 19.126 68.394 19.63 68.898 20.456V19.294H70.144V26H68.898V24.796C68.394 25.622 67.596 26.168 66.546 26.168ZM66.728 25.006C67.988 25.006 68.898 23.942 68.898 22.64C68.898 21.324 67.988 20.288 66.728 20.288C65.454 20.288 64.544 21.324 64.544 22.64C64.544 23.942 65.454 25.006 66.728 25.006ZM71.6179 20.4V19.294H72.7239V17.628H73.9699V19.294H75.8739V20.4H73.9839V23.942C73.9839 24.656 74.3059 25.006 74.9079 25.006C75.2439 25.006 75.5799 24.88 75.7759 24.656L76.3499 25.594C76.0279 25.902 75.4819 26.168 74.7399 26.168C73.4799 26.168 72.7239 25.426 72.7239 23.984V20.4H71.6179ZM78.2946 18.132C77.8606 18.132 77.5246 17.782 77.5246 17.362C77.5246 16.942 77.8606 16.592 78.2946 16.592C78.7146 16.592 79.0646 16.942 79.0646 17.362C79.0646 17.782 78.7146 18.132 78.2946 18.132ZM78.9106 26H77.6786V19.294H78.9106V26ZM84.3853 26H82.7753L80.2413 19.294H81.6133L83.6153 24.88L85.6453 19.294H86.9193L84.3853 26ZM91.0112 26.168C88.9672 26.168 87.4972 24.586 87.4972 22.64C87.4972 20.694 88.9112 19.126 90.8152 19.126C92.6912 19.126 94.1192 20.624 94.1192 22.514C94.1192 22.682 94.1052 22.934 94.0772 23.032H88.7712C88.9252 24.194 89.8072 25.062 91.0532 25.062C91.8092 25.062 92.4812 24.768 92.9292 24.32L93.5872 25.174C93.0412 25.762 92.0892 26.168 91.0112 26.168ZM90.8292 20.19C89.7792 20.19 89.0232 20.946 88.7992 22.01H92.8172C92.5932 20.848 91.8372 20.19 90.8292 20.19ZM106.247 17.978L105.407 18.958C104.805 18.454 104.049 18.104 103.041 18.104C101.249 18.104 99.8073 19.63 99.8073 21.52C99.8073 23.396 101.249 24.922 103.153 24.922C104.021 24.922 104.847 24.628 105.421 24.096L106.247 25.02C105.421 25.832 104.399 26.168 103.069 26.168C100.465 26.168 98.4633 24.082 98.4633 21.52C98.4633 18.944 100.507 16.858 103.027 16.858C104.455 16.858 105.463 17.264 106.247 17.978ZM107.688 26V16.368H108.92V20.316C109.298 19.574 110.012 19.126 110.95 19.126C112.518 19.126 113.54 20.204 113.54 21.898V26H112.308V22.094C112.308 20.988 111.664 20.288 110.614 20.288C109.564 20.288 108.92 20.988 108.92 22.094V26H107.688ZM118.697 26.168C116.653 26.168 115.183 24.586 115.183 22.64C115.183 20.694 116.597 19.126 118.501 19.126C120.377 19.126 121.805 20.624 121.805 22.514C121.805 22.682 121.791 22.934 121.763 23.032H116.457C116.611 24.194 117.493 25.062 118.739 25.062C119.495 25.062 120.167 24.768 120.615 24.32L121.273 25.174C120.727 25.762 119.775 26.168 118.697 26.168ZM118.515 20.19C117.465 20.19 116.709 20.946 116.485 22.01H120.503C120.279 20.848 119.523 20.19 118.515 20.19ZM128.185 20.946C127.723 20.526 127.149 20.288 126.407 20.288C125.077 20.288 124.167 21.324 124.167 22.64C124.167 23.942 125.091 25.006 126.393 25.006C127.135 25.006 127.765 24.768 128.213 24.32L128.857 25.23C128.325 25.804 127.387 26.168 126.365 26.168C124.405 26.168 122.921 24.586 122.921 22.64C122.921 20.694 124.419 19.126 126.379 19.126C127.443 19.126 128.339 19.49 128.899 20.064L128.185 20.946ZM131.465 26H130.233V16.368H131.465V22.22L134.615 19.294H136.183L132.809 22.43L136.421 26H134.797L131.465 22.682V26ZM141.118 19.126C142.938 19.126 144.366 20.624 144.366 22.654C144.366 24.642 142.994 26.168 141.118 26.168C140.068 26.168 139.27 25.664 138.766 24.838V26H137.534V16.368H138.766V20.498C139.27 19.672 140.068 19.126 141.118 19.126ZM140.964 20.288C139.69 20.288 138.766 21.352 138.766 22.654C138.766 23.97 139.69 25.006 140.964 25.006C142.224 25.006 143.134 23.97 143.134 22.654C143.134 21.352 142.224 20.288 140.964 20.288ZM149.046 26.168C147.128 26.168 145.63 24.586 145.63 22.64C145.63 20.694 147.128 19.126 149.046 19.126C150.978 19.126 152.476 20.694 152.476 22.64C152.476 24.586 150.978 26.168 149.046 26.168ZM149.06 25.006C150.32 25.006 151.23 23.942 151.23 22.64C151.23 21.324 150.32 20.288 149.06 20.288C147.786 20.288 146.876 21.324 146.876 22.64C146.876 23.942 147.786 25.006 149.06 25.006ZM152.907 26L155.497 22.584L153.019 19.294H154.559L156.309 21.632L158.101 19.294H159.501L157.023 22.57L159.599 26H158.059L156.197 23.522L154.307 26H152.907ZM165.121 26.014C164.715 25.902 164.183 25.636 163.511 25.202L164.113 24.11C164.911 24.628 165.975 24.964 166.885 24.964C167.977 24.964 168.817 24.502 168.817 23.578C168.817 21.66 163.805 22.57 163.805 19.378C163.805 17.852 165.191 16.844 166.983 16.844C168.131 16.844 169.097 17.138 169.867 17.684L169.237 18.72C168.663 18.356 167.795 18.034 166.927 18.034C165.877 18.034 165.149 18.594 165.149 19.35C165.149 21.394 170.147 20.498 170.147 23.494C170.147 25.286 168.621 26.168 166.801 26.168C166.087 26.168 165.527 26.112 165.121 26.014ZM171.053 20.4V19.294H172.159V17.628H173.405V19.294H175.309V20.4H173.419V23.942C173.419 24.656 173.741 25.006 174.343 25.006C174.679 25.006 175.015 24.88 175.211 24.656L175.785 25.594C175.463 25.902 174.917 26.168 174.175 26.168C172.915 26.168 172.159 25.426 172.159 23.984V20.4H171.053ZM179.503 26.168C177.683 26.168 176.255 24.67 176.255 22.64C176.255 20.652 177.627 19.126 179.503 19.126C180.553 19.126 181.351 19.63 181.855 20.456V19.294H183.101V26H181.855V24.796C181.351 25.622 180.553 26.168 179.503 26.168ZM179.685 25.006C180.945 25.006 181.855 23.942 181.855 22.64C181.855 21.324 180.945 20.288 179.685 20.288C178.411 20.288 177.501 21.324 177.501 22.64C177.501 23.942 178.411 25.006 179.685 25.006ZM184.575 20.4V19.294H185.681V17.628H186.927V19.294H188.831V20.4H186.941V23.942C186.941 24.656 187.263 25.006 187.865 25.006C188.201 25.006 188.537 24.88 188.733 24.656L189.307 25.594C188.985 25.902 188.439 26.168 187.697 26.168C186.437 26.168 185.681 25.426 185.681 23.984V20.4H184.575ZM193.29 26.168C191.246 26.168 189.776 24.586 189.776 22.64C189.776 20.694 191.19 19.126 193.094 19.126C194.97 19.126 196.398 20.624 196.398 22.514C196.398 22.682 196.384 22.934 196.356 23.032H191.05C191.204 24.194 192.086 25.062 193.332 25.062C194.088 25.062 194.76 24.768 195.208 24.32L195.866 25.174C195.32 25.762 194.368 26.168 193.29 26.168ZM193.108 20.19C192.058 20.19 191.302 20.946 191.078 22.01H195.096C194.872 20.848 194.116 20.19 193.108 20.19Z" fill="#BF1722"/>
</svg>
