<svg width="186" height="44" viewBox="0 0 186 44" fill="none" xmlns="http://www.w3.org/2000/svg">
<rect y="10" width="24" height="24" rx="8" fill="#1355E9"/>
<path d="M10.5133 27L19 18.4911L17.5133 17L10.5133 24.0178L7.48673 20.9822L6 22.4734L10.5133 27Z" fill="white"/>
<path d="M37.19 26V17.04H39.934C42.916 17.04 44.988 18.874 44.988 21.52C44.988 24.166 42.972 26 40.06 26H37.19ZM39.962 18.23H38.478V24.81H39.962C42.188 24.81 43.644 23.508 43.644 21.52C43.644 19.532 42.188 18.23 39.962 18.23ZM49.8237 26.168C47.7797 26.168 46.3097 24.586 46.3097 22.64C46.3097 20.694 47.7237 19.126 49.6277 19.126C51.5037 19.126 52.9317 20.624 52.9317 22.514C52.9317 22.682 52.9177 22.934 52.8897 23.032H47.5837C47.7377 24.194 48.6197 25.062 49.8657 25.062C50.6217 25.062 51.2937 24.768 51.7417 24.32L52.3997 25.174C51.8537 25.762 50.9017 26.168 49.8237 26.168ZM49.6417 20.19C48.5917 20.19 47.8357 20.946 47.6117 22.01H51.6297C51.4057 20.848 50.6497 20.19 49.6417 20.19ZM53.838 20.4V19.294H54.888V18.524C54.888 17.04 55.742 16.2 57.03 16.2C57.814 16.2 58.346 16.438 58.724 16.844L58.08 17.754C57.87 17.53 57.506 17.362 57.128 17.362C56.498 17.362 56.134 17.782 56.134 18.538V19.294H57.912V20.4H56.134V26H54.888V20.4H53.838ZM61.6573 26.168C59.8373 26.168 58.4093 24.67 58.4093 22.64C58.4093 20.652 59.7813 19.126 61.6573 19.126C62.7073 19.126 63.5053 19.63 64.0093 20.456V19.294H65.2553V26H64.0093V24.796C63.5053 25.622 62.7073 26.168 61.6573 26.168ZM61.8393 25.006C63.0993 25.006 64.0093 23.942 64.0093 22.64C64.0093 21.324 63.0993 20.288 61.8393 20.288C60.5653 20.288 59.6553 21.324 59.6553 22.64C59.6553 23.942 60.5653 25.006 61.8393 25.006ZM68.6192 19.294V23.004C68.6192 24.18 69.3052 24.964 70.3412 24.964C71.3912 24.964 72.0912 24.18 72.0912 23.004V19.294H73.3372V23.102C73.3372 24.922 72.1472 26.126 70.3412 26.126C68.5492 26.126 67.3732 24.922 67.3732 23.102V19.294H68.6192ZM77.6536 24.922L77.7936 26.014C77.5836 26.084 77.3176 26.14 77.1076 26.14C76.2676 26.14 75.4696 25.58 75.4696 24.18V16.368H76.7016V24.194C76.7016 24.782 77.0236 24.992 77.3456 24.992C77.4436 24.992 77.5556 24.964 77.6536 24.922ZM78.6921 20.4V19.294H79.7981V17.628H81.0441V19.294H82.9481V20.4H81.0581V23.942C81.0581 24.656 81.3801 25.006 81.9821 25.006C82.3181 25.006 82.6541 24.88 82.8501 24.656L83.4241 25.594C83.1021 25.902 82.5561 26.168 81.8141 26.168C80.5541 26.168 79.7981 25.426 79.7981 23.984V20.4H78.6921ZM95.2747 17.978L94.4347 18.958C93.8327 18.454 93.0767 18.104 92.0687 18.104C90.2767 18.104 88.8347 19.63 88.8347 21.52C88.8347 23.396 90.2767 24.922 92.1807 24.922C93.0487 24.922 93.8747 24.628 94.4487 24.096L95.2747 25.02C94.4487 25.832 93.4267 26.168 92.0967 26.168C89.4927 26.168 87.4907 24.082 87.4907 21.52C87.4907 18.944 89.5347 16.858 92.0547 16.858C93.4827 16.858 94.4907 17.264 95.2747 17.978ZM96.7157 26V16.368H97.9477V20.316C98.3257 19.574 99.0397 19.126 99.9777 19.126C101.546 19.126 102.568 20.204 102.568 21.898V26H101.336V22.094C101.336 20.988 100.692 20.288 99.6417 20.288C98.5917 20.288 97.9477 20.988 97.9477 22.094V26H96.7157ZM107.724 26.168C105.68 26.168 104.21 24.586 104.21 22.64C104.21 20.694 105.624 19.126 107.528 19.126C109.404 19.126 110.832 20.624 110.832 22.514C110.832 22.682 110.818 22.934 110.79 23.032H105.484C105.638 24.194 106.52 25.062 107.766 25.062C108.522 25.062 109.194 24.768 109.642 24.32L110.3 25.174C109.754 25.762 108.802 26.168 107.724 26.168ZM107.542 20.19C106.492 20.19 105.736 20.946 105.512 22.01H109.53C109.306 20.848 108.55 20.19 107.542 20.19ZM117.212 20.946C116.75 20.526 116.176 20.288 115.434 20.288C114.104 20.288 113.194 21.324 113.194 22.64C113.194 23.942 114.118 25.006 115.42 25.006C116.162 25.006 116.792 24.768 117.24 24.32L117.884 25.23C117.352 25.804 116.414 26.168 115.392 26.168C113.432 26.168 111.948 24.586 111.948 22.64C111.948 20.694 113.446 19.126 115.406 19.126C116.47 19.126 117.366 19.49 117.926 20.064L117.212 20.946ZM120.493 26H119.261V16.368H120.493V22.22L123.643 19.294H125.211L121.837 22.43L125.449 26H123.825L120.493 22.682V26ZM130.145 19.126C131.965 19.126 133.393 20.624 133.393 22.654C133.393 24.642 132.021 26.168 130.145 26.168C129.095 26.168 128.297 25.664 127.793 24.838V26H126.561V16.368H127.793V20.498C128.297 19.672 129.095 19.126 130.145 19.126ZM129.991 20.288C128.717 20.288 127.793 21.352 127.793 22.654C127.793 23.97 128.717 25.006 129.991 25.006C131.251 25.006 132.161 23.97 132.161 22.654C132.161 21.352 131.251 20.288 129.991 20.288ZM138.073 26.168C136.155 26.168 134.657 24.586 134.657 22.64C134.657 20.694 136.155 19.126 138.073 19.126C140.005 19.126 141.503 20.694 141.503 22.64C141.503 24.586 140.005 26.168 138.073 26.168ZM138.087 25.006C139.347 25.006 140.257 23.942 140.257 22.64C140.257 21.324 139.347 20.288 138.087 20.288C136.813 20.288 135.903 21.324 135.903 22.64C135.903 23.942 136.813 25.006 138.087 25.006ZM141.935 26L144.525 22.584L142.047 19.294H143.587L145.337 21.632L147.129 19.294H148.529L146.051 22.57L148.627 26H147.087L145.225 23.522L143.335 26H141.935ZM154.148 26.014C153.742 25.902 153.21 25.636 152.538 25.202L153.14 24.11C153.938 24.628 155.002 24.964 155.912 24.964C157.004 24.964 157.844 24.502 157.844 23.578C157.844 21.66 152.832 22.57 152.832 19.378C152.832 17.852 154.218 16.844 156.01 16.844C157.158 16.844 158.124 17.138 158.894 17.684L158.264 18.72C157.69 18.356 156.822 18.034 155.954 18.034C154.904 18.034 154.176 18.594 154.176 19.35C154.176 21.394 159.174 20.498 159.174 23.494C159.174 25.286 157.648 26.168 155.828 26.168C155.114 26.168 154.554 26.112 154.148 26.014ZM160.081 20.4V19.294H161.187V17.628H162.433V19.294H164.337V20.4H162.447V23.942C162.447 24.656 162.769 25.006 163.371 25.006C163.707 25.006 164.043 24.88 164.239 24.656L164.813 25.594C164.491 25.902 163.945 26.168 163.203 26.168C161.943 26.168 161.187 25.426 161.187 23.984V20.4H160.081ZM168.53 26.168C166.71 26.168 165.282 24.67 165.282 22.64C165.282 20.652 166.654 19.126 168.53 19.126C169.58 19.126 170.378 19.63 170.882 20.456V19.294H172.128V26H170.882V24.796C170.378 25.622 169.58 26.168 168.53 26.168ZM168.712 25.006C169.972 25.006 170.882 23.942 170.882 22.64C170.882 21.324 169.972 20.288 168.712 20.288C167.438 20.288 166.528 21.324 166.528 22.64C166.528 23.942 167.438 25.006 168.712 25.006ZM173.602 20.4V19.294H174.708V17.628H175.954V19.294H177.858V20.4H175.968V23.942C175.968 24.656 176.29 25.006 176.892 25.006C177.228 25.006 177.564 24.88 177.76 24.656L178.334 25.594C178.012 25.902 177.466 26.168 176.724 26.168C175.464 26.168 174.708 25.426 174.708 23.984V20.4H173.602ZM182.318 26.168C180.274 26.168 178.804 24.586 178.804 22.64C178.804 20.694 180.218 19.126 182.122 19.126C183.998 19.126 185.426 20.624 185.426 22.514C185.426 22.682 185.412 22.934 185.384 23.032H180.078C180.232 24.194 181.114 25.062 182.36 25.062C183.116 25.062 183.788 24.768 184.236 24.32L184.894 25.174C184.348 25.762 183.396 26.168 182.318 26.168ZM182.136 20.19C181.086 20.19 180.33 20.946 180.106 22.01H184.124C183.9 20.848 183.144 20.19 182.136 20.19Z" fill="black"/>
</svg>
