<svg width="174" height="60" viewBox="0 0 174 60" fill="none" xmlns="http://www.w3.org/2000/svg">
<rect x="0.5" width="24" height="24" rx="8" fill="#1355E9"/>
<rect x="6.5" y="11" width="12" height="2" fill="white"/>
<path d="M44.172 16L43.248 13.704H38.964L38.04 16H36.71L40.406 7.026H41.89L45.586 16H44.172ZM39.426 12.57H42.786L41.106 8.384L39.426 12.57ZM49.1009 14.922L49.2409 16.014C49.0309 16.084 48.7649 16.14 48.5549 16.14C47.7149 16.14 46.9169 15.58 46.9169 14.18V6.368H48.1489V14.194C48.1489 14.782 48.4709 14.992 48.7929 14.992C48.8909 14.992 49.0029 14.964 49.1009 14.922ZM52.9017 14.922L53.0417 16.014C52.8317 16.084 52.5657 16.14 52.3557 16.14C51.5157 16.14 50.7177 15.58 50.7177 14.18V6.368H51.9497V14.194C51.9497 14.782 52.2717 14.992 52.5937 14.992C52.6917 14.992 52.8037 14.964 52.9017 14.922ZM64.126 16L59.156 9.084V16H57.896V7.026H59.268L64.238 13.984V7.026H65.498V16H64.126ZM70.6925 16.168C68.7745 16.168 67.2765 14.586 67.2765 12.64C67.2765 10.694 68.7745 9.126 70.6925 9.126C72.6245 9.126 74.1225 10.694 74.1225 12.64C74.1225 14.586 72.6245 16.168 70.6925 16.168ZM70.7065 15.006C71.9665 15.006 72.8765 13.942 72.8765 12.64C72.8765 11.324 71.9665 10.288 70.7065 10.288C69.4325 10.288 68.5225 11.324 68.5225 12.64C68.5225 13.942 69.4325 15.006 70.7065 15.006ZM75.1179 10.4V9.294H76.2239V7.628H77.4699V9.294H79.3739V10.4H77.4839V13.942C77.4839 14.656 77.8059 15.006 78.4079 15.006C78.7439 15.006 79.0799 14.88 79.2759 14.656L79.8499 15.594C79.5279 15.902 78.9819 16.168 78.2399 16.168C76.9799 16.168 76.2239 15.426 76.2239 13.984V10.4H75.1179ZM81.7946 8.132C81.3606 8.132 81.0246 7.782 81.0246 7.362C81.0246 6.942 81.3606 6.592 81.7946 6.592C82.2146 6.592 82.5646 6.942 82.5646 7.362C82.5646 7.782 82.2146 8.132 81.7946 8.132ZM82.4106 16H81.1786V9.294H82.4106V16ZM83.9513 10.4V9.294H85.0013V8.958C85.0013 7.194 86.1353 6.2 87.9413 6.2C89.1033 6.2 89.9713 6.564 90.5453 7.082L89.9013 8.048C89.4393 7.628 88.7253 7.362 87.9973 7.362C86.8633 7.362 86.2473 7.922 86.2473 9V9.294H90.4753V16H89.2293V10.4H86.2473V16H85.0013V10.4H83.9513ZM97.478 10.946C97.016 10.526 96.442 10.288 95.7 10.288C94.37 10.288 93.46 11.324 93.46 12.64C93.46 13.942 94.384 15.006 95.686 15.006C96.428 15.006 97.058 14.768 97.506 14.32L98.15 15.23C97.618 15.804 96.68 16.168 95.658 16.168C93.698 16.168 92.214 14.586 92.214 12.64C92.214 10.694 93.712 9.126 95.672 9.126C96.736 9.126 97.632 9.49 98.192 10.064L97.478 10.946ZM102.093 16.168C100.273 16.168 98.8448 14.67 98.8448 12.64C98.8448 10.652 100.217 9.126 102.093 9.126C103.143 9.126 103.941 9.63 104.445 10.456V9.294H105.691V16H104.445V14.796C103.941 15.622 103.143 16.168 102.093 16.168ZM102.275 15.006C103.535 15.006 104.445 13.942 104.445 12.64C104.445 11.324 103.535 10.288 102.275 10.288C101.001 10.288 100.091 11.324 100.091 12.64C100.091 13.942 101.001 15.006 102.275 15.006ZM107.165 10.4V9.294H108.271V7.628H109.517V9.294H111.421V10.4H109.531V13.942C109.531 14.656 109.853 15.006 110.455 15.006C110.791 15.006 111.127 14.88 111.323 14.656L111.897 15.594C111.575 15.902 111.029 16.168 110.287 16.168C109.027 16.168 108.271 15.426 108.271 13.984V10.4H107.165ZM113.841 8.132C113.407 8.132 113.071 7.782 113.071 7.362C113.071 6.942 113.407 6.592 113.841 6.592C114.261 6.592 114.611 6.942 114.611 7.362C114.611 7.782 114.261 8.132 113.841 8.132ZM114.457 16H113.225V9.294H114.457V16ZM119.624 16.168C117.706 16.168 116.208 14.586 116.208 12.64C116.208 10.694 117.706 9.126 119.624 9.126C121.556 9.126 123.054 10.694 123.054 12.64C123.054 14.586 121.556 16.168 119.624 16.168ZM119.638 15.006C120.898 15.006 121.808 13.942 121.808 12.64C121.808 11.324 120.898 10.288 119.638 10.288C118.364 10.288 117.454 11.324 117.454 12.64C117.454 13.942 118.364 15.006 119.638 15.006ZM124.806 16V9.294H126.038V10.316C126.416 9.574 127.13 9.126 128.068 9.126C129.636 9.126 130.658 10.204 130.658 11.898V16H129.426V12.094C129.426 10.988 128.782 10.288 127.732 10.288C126.682 10.288 126.038 10.988 126.038 12.094V16H124.806ZM134.68 16.168C133.686 16.168 132.79 15.902 132.104 15.496L132.58 14.474C133.336 14.866 133.994 15.09 134.764 15.09C135.702 15.09 136.15 14.726 136.15 14.194C136.15 12.668 132.342 13.592 132.342 11.002C132.342 10.008 133.238 9.126 134.862 9.126C135.772 9.126 136.486 9.35 137.214 9.7L136.724 10.722C136.248 10.456 135.562 10.218 134.918 10.218C134.092 10.218 133.602 10.498 133.602 10.988C133.602 12.528 137.382 11.618 137.382 14.166C137.382 15.314 136.388 16.168 134.68 16.168Z" fill="black"/>
<rect x="13.5" y="37" width="22" height="22" rx="7" fill="white"/>
<rect x="13.5" y="37" width="22" height="22" rx="7" stroke="#5D5D5D" stroke-width="2"/>
<path d="M54.296 50.236L50.95 45.042V52H49.69V43.026H51.132L54.352 48.066L57.6 43.026H58.888V52H57.628V45.168L54.296 50.236ZM64.1261 52.168C62.2081 52.168 60.7101 50.586 60.7101 48.64C60.7101 46.694 62.2081 45.126 64.1261 45.126C66.0581 45.126 67.5561 46.694 67.5561 48.64C67.5561 50.586 66.0581 52.168 64.1261 52.168ZM64.1401 51.006C65.4001 51.006 66.3101 49.942 66.3101 48.64C66.3101 47.324 65.4001 46.288 64.1401 46.288C62.8661 46.288 61.9561 47.324 61.9561 48.64C61.9561 49.942 62.8661 51.006 64.1401 51.006ZM69.3075 52V45.294H70.5395V46.316C70.9175 45.574 71.6315 45.126 72.5695 45.126C74.1375 45.126 75.1595 46.204 75.1595 47.898V52H73.9275V48.094C73.9275 46.988 73.2835 46.288 72.2335 46.288C71.1835 46.288 70.5395 46.988 70.5395 48.094V52H69.3075ZM76.5359 46.4V45.294H77.6419V43.628H78.8879V45.294H80.7919V46.4H78.9019V49.942C78.9019 50.656 79.2239 51.006 79.8259 51.006C80.1619 51.006 80.4979 50.88 80.6939 50.656L81.2679 51.594C80.9459 51.902 80.3999 52.168 79.6579 52.168C78.3979 52.168 77.6419 51.426 77.6419 49.984V46.4H76.5359ZM82.5966 52V42.368H83.8286V46.316C84.2066 45.574 84.9206 45.126 85.8586 45.126C87.4266 45.126 88.4486 46.204 88.4486 47.898V52H87.2166V48.094C87.2166 46.988 86.5726 46.288 85.5226 46.288C84.4726 46.288 83.8286 46.988 83.8286 48.094V52H82.5966ZM92.7649 50.922L92.9049 52.014C92.6949 52.084 92.4289 52.14 92.2189 52.14C91.3789 52.14 90.5809 51.58 90.5809 50.18V42.368H91.8129V50.194C91.8129 50.782 92.1349 50.992 92.4569 50.992C92.5549 50.992 92.6669 50.964 92.7649 50.922ZM96.3935 52.658L96.6035 52.084L93.5655 45.294H94.9095L97.1635 50.53L99.0675 45.294H100.327L97.4295 53.092C96.9815 54.31 96.2955 54.912 95.2595 54.912C94.6715 54.912 94.0695 54.674 93.6495 54.296L94.2235 53.33C94.5315 53.61 94.8955 53.75 95.2875 53.75C95.7775 53.75 96.0995 53.47 96.3935 52.658ZM111.085 52L106.115 45.084V52H104.855V43.026H106.227L111.197 49.984V43.026H112.457V52H111.085ZM117.749 52.168C115.705 52.168 114.235 50.586 114.235 48.64C114.235 46.694 115.649 45.126 117.553 45.126C119.429 45.126 120.857 46.624 120.857 48.514C120.857 48.682 120.843 48.934 120.815 49.032H115.509C115.663 50.194 116.545 51.062 117.791 51.062C118.547 51.062 119.219 50.768 119.667 50.32L120.325 51.174C119.779 51.762 118.827 52.168 117.749 52.168ZM117.567 46.19C116.517 46.19 115.761 46.946 115.537 48.01H119.555C119.331 46.848 118.575 46.19 117.567 46.19ZM124.976 52H123.562L121.406 45.294H122.736L124.29 50.614L125.97 45.294H127.328L129.022 50.628L130.59 45.294H131.92L129.764 52H128.224L126.586 46.876L124.976 52ZM135.114 52.168C134.12 52.168 133.224 51.902 132.538 51.496L133.014 50.474C133.77 50.866 134.428 51.09 135.198 51.09C136.136 51.09 136.584 50.726 136.584 50.194C136.584 48.668 132.776 49.592 132.776 47.002C132.776 46.008 133.672 45.126 135.296 45.126C136.206 45.126 136.92 45.35 137.648 45.7L137.158 46.722C136.682 46.456 135.996 46.218 135.352 46.218C134.526 46.218 134.036 46.498 134.036 46.988C134.036 48.528 137.816 47.618 137.816 50.166C137.816 51.314 136.822 52.168 135.114 52.168ZM141.642 50.922L141.782 52.014C141.572 52.084 141.306 52.14 141.096 52.14C140.256 52.14 139.458 51.58 139.458 50.18V42.368H140.69V50.194C140.69 50.782 141.012 50.992 141.334 50.992C141.432 50.992 141.544 50.964 141.642 50.922ZM146.46 52.168C144.416 52.168 142.946 50.586 142.946 48.64C142.946 46.694 144.36 45.126 146.264 45.126C148.14 45.126 149.568 46.624 149.568 48.514C149.568 48.682 149.554 48.934 149.526 49.032H144.22C144.374 50.194 145.256 51.062 146.502 51.062C147.258 51.062 147.93 50.768 148.378 50.32L149.036 51.174C148.49 51.762 147.538 52.168 146.46 52.168ZM146.278 46.19C145.228 46.19 144.472 46.946 144.248 48.01H148.266C148.042 46.848 147.286 46.19 146.278 46.19ZM150.419 46.4V45.294H151.525V43.628H152.771V45.294H154.675V46.4H152.785V49.942C152.785 50.656 153.107 51.006 153.709 51.006C154.045 51.006 154.381 50.88 154.577 50.656L155.151 51.594C154.829 51.902 154.283 52.168 153.541 52.168C152.281 52.168 151.525 51.426 151.525 49.984V46.4H150.419ZM155.723 46.4V45.294H156.829V43.628H158.075V45.294H159.979V46.4H158.089V49.942C158.089 50.656 158.411 51.006 159.013 51.006C159.349 51.006 159.685 50.88 159.881 50.656L160.455 51.594C160.133 51.902 159.587 52.168 158.845 52.168C157.585 52.168 156.829 51.426 156.829 49.984V46.4H155.723ZM164.439 52.168C162.395 52.168 160.925 50.586 160.925 48.64C160.925 46.694 162.339 45.126 164.243 45.126C166.119 45.126 167.547 46.624 167.547 48.514C167.547 48.682 167.533 48.934 167.505 49.032H162.199C162.353 50.194 163.235 51.062 164.481 51.062C165.237 51.062 165.909 50.768 166.357 50.32L167.015 51.174C166.469 51.762 165.517 52.168 164.439 52.168ZM164.257 46.19C163.207 46.19 162.451 46.946 162.227 48.01H166.245C166.021 46.848 165.265 46.19 164.257 46.19ZM169.153 52V45.294H170.385V46.246C170.721 45.546 171.295 45.126 172.079 45.126C172.499 45.126 172.863 45.224 173.101 45.42L172.583 46.582C172.359 46.428 172.037 46.316 171.715 46.316C170.903 46.316 170.385 47.016 170.385 48.136V52H169.153Z" fill="black"/>
</svg>
