<svg width="264" height="44" viewBox="0 0 264 44" fill="none" xmlns="http://www.w3.org/2000/svg">
<rect x="1.5" y="11" width="22" height="22" rx="7" fill="white"/>
<rect x="1.5" y="11" width="22" height="22" rx="7" stroke="#5D5D5D" stroke-width="2"/>
<path d="M44.97 17.978L44.13 18.958C43.528 18.454 42.772 18.104 41.764 18.104C39.972 18.104 38.53 19.63 38.53 21.52C38.53 23.396 39.972 24.922 41.876 24.922C42.744 24.922 43.57 24.628 44.144 24.096L44.97 25.02C44.144 25.832 43.122 26.168 41.792 26.168C39.188 26.168 37.186 24.082 37.186 21.52C37.186 18.944 39.23 16.858 41.75 16.858C43.178 16.858 44.186 17.264 44.97 17.978ZM46.411 26V16.368H47.643V20.316C48.021 19.574 48.735 19.126 49.673 19.126C51.241 19.126 52.263 20.204 52.263 21.898V26H51.031V22.094C51.031 20.988 50.387 20.288 49.337 20.288C48.287 20.288 47.643 20.988 47.643 22.094V26H46.411ZM57.4194 26.168C55.3754 26.168 53.9054 24.586 53.9054 22.64C53.9054 20.694 55.3194 19.126 57.2234 19.126C59.0994 19.126 60.5274 20.624 60.5274 22.514C60.5274 22.682 60.5134 22.934 60.4854 23.032H55.1794C55.3334 24.194 56.2154 25.062 57.4614 25.062C58.2174 25.062 58.8894 24.768 59.3374 24.32L59.9954 25.174C59.4494 25.762 58.4974 26.168 57.4194 26.168ZM57.2374 20.19C56.1874 20.19 55.4314 20.946 55.2074 22.01H59.2254C59.0014 20.848 58.2454 20.19 57.2374 20.19ZM66.9077 20.946C66.4457 20.526 65.8717 20.288 65.1297 20.288C63.7997 20.288 62.8897 21.324 62.8897 22.64C62.8897 23.942 63.8137 25.006 65.1157 25.006C65.8577 25.006 66.4877 24.768 66.9357 24.32L67.5797 25.23C67.0477 25.804 66.1097 26.168 65.0877 26.168C63.1277 26.168 61.6437 24.586 61.6437 22.64C61.6437 20.694 63.1417 19.126 65.1017 19.126C66.1657 19.126 67.0617 19.49 67.6217 20.064L66.9077 20.946ZM70.1879 26H68.9559V16.368H70.1879V22.22L73.3379 19.294H74.9059L71.5319 22.43L75.1439 26H73.5199L70.1879 22.682V26ZM79.8407 19.126C81.6607 19.126 83.0887 20.624 83.0887 22.654C83.0887 24.642 81.7167 26.168 79.8407 26.168C78.7907 26.168 77.9927 25.664 77.4887 24.838V26H76.2567V16.368H77.4887V20.498C77.9927 19.672 78.7907 19.126 79.8407 19.126ZM79.6867 20.288C78.4127 20.288 77.4887 21.352 77.4887 22.654C77.4887 23.97 78.4127 25.006 79.6867 25.006C80.9467 25.006 81.8567 23.97 81.8567 22.654C81.8567 21.352 80.9467 20.288 79.6867 20.288ZM87.7687 26.168C85.8507 26.168 84.3527 24.586 84.3527 22.64C84.3527 20.694 85.8507 19.126 87.7687 19.126C89.7007 19.126 91.1987 20.694 91.1987 22.64C91.1987 24.586 89.7007 26.168 87.7687 26.168ZM87.7827 25.006C89.0427 25.006 89.9527 23.942 89.9527 22.64C89.9527 21.324 89.0427 20.288 87.7827 20.288C86.5087 20.288 85.5987 21.324 85.5987 22.64C85.5987 23.942 86.5087 25.006 87.7827 25.006ZM91.6299 26L94.2199 22.584L91.7419 19.294H93.2819L95.0319 21.632L96.8239 19.294H98.2239L95.7459 22.57L98.3219 26H96.7819L94.9199 23.522L93.0299 26H91.6299Z" fill="black"/>
<rect x="131.5" width="1" height="44" fill="#EBEBEB"/>
<path d="M172.97 17.978L172.13 18.958C171.528 18.454 170.772 18.104 169.764 18.104C167.972 18.104 166.53 19.63 166.53 21.52C166.53 23.396 167.972 24.922 169.876 24.922C170.744 24.922 171.57 24.628 172.144 24.096L172.97 25.02C172.144 25.832 171.122 26.168 169.792 26.168C167.188 26.168 165.186 24.082 165.186 21.52C165.186 18.944 167.23 16.858 169.75 16.858C171.178 16.858 172.186 17.264 172.97 17.978ZM174.411 26V16.368H175.643V20.316C176.021 19.574 176.735 19.126 177.673 19.126C179.241 19.126 180.263 20.204 180.263 21.898V26H179.031V22.094C179.031 20.988 178.387 20.288 177.337 20.288C176.287 20.288 175.643 20.988 175.643 22.094V26H174.411ZM185.419 26.168C183.375 26.168 181.905 24.586 181.905 22.64C181.905 20.694 183.319 19.126 185.223 19.126C187.099 19.126 188.527 20.624 188.527 22.514C188.527 22.682 188.513 22.934 188.485 23.032H183.179C183.333 24.194 184.215 25.062 185.461 25.062C186.217 25.062 186.889 24.768 187.337 24.32L187.995 25.174C187.449 25.762 186.497 26.168 185.419 26.168ZM185.237 20.19C184.187 20.19 183.431 20.946 183.207 22.01H187.225C187.001 20.848 186.245 20.19 185.237 20.19ZM194.908 20.946C194.446 20.526 193.872 20.288 193.13 20.288C191.8 20.288 190.89 21.324 190.89 22.64C190.89 23.942 191.814 25.006 193.116 25.006C193.858 25.006 194.488 24.768 194.936 24.32L195.58 25.23C195.048 25.804 194.11 26.168 193.088 26.168C191.128 26.168 189.644 24.586 189.644 22.64C189.644 20.694 191.142 19.126 193.102 19.126C194.166 19.126 195.062 19.49 195.622 20.064L194.908 20.946ZM198.188 26H196.956V16.368H198.188V22.22L201.338 19.294H202.906L199.532 22.43L203.144 26H201.52L198.188 22.682V26ZM207.841 19.126C209.661 19.126 211.089 20.624 211.089 22.654C211.089 24.642 209.717 26.168 207.841 26.168C206.791 26.168 205.993 25.664 205.489 24.838V26H204.257V16.368H205.489V20.498C205.993 19.672 206.791 19.126 207.841 19.126ZM207.687 20.288C206.413 20.288 205.489 21.352 205.489 22.654C205.489 23.97 206.413 25.006 207.687 25.006C208.947 25.006 209.857 23.97 209.857 22.654C209.857 21.352 208.947 20.288 207.687 20.288ZM215.769 26.168C213.851 26.168 212.353 24.586 212.353 22.64C212.353 20.694 213.851 19.126 215.769 19.126C217.701 19.126 219.199 20.694 219.199 22.64C219.199 24.586 217.701 26.168 215.769 26.168ZM215.783 25.006C217.043 25.006 217.953 23.942 217.953 22.64C217.953 21.324 217.043 20.288 215.783 20.288C214.509 20.288 213.599 21.324 213.599 22.64C213.599 23.942 214.509 25.006 215.783 25.006ZM219.63 26L222.22 22.584L219.742 19.294H221.282L223.032 21.632L224.824 19.294H226.224L223.746 22.57L226.322 26H224.782L222.92 23.522L221.03 26H219.63Z" fill="black"/>
<rect x="240.5" y="11" width="22" height="22" rx="7" fill="white"/>
<rect x="240.5" y="11" width="22" height="22" rx="7" stroke="#5D5D5D" stroke-width="2"/>
</svg>
