<svg width="144" height="60" viewBox="0 0 144 60" fill="none" xmlns="http://www.w3.org/2000/svg">
<rect x="0.5" width="24" height="24" rx="8" fill="#1355E9"/>
<path d="M11.0133 17L19.5 8.49112L18.0133 7L11.0133 14.0178L7.98673 10.9822L6.5 12.4734L11.0133 17Z" fill="white"/>
<path d="M37.69 16V7.026H40.826C42.898 7.026 44.256 8.146 44.256 9.868C44.256 11.59 42.884 12.724 40.798 12.724H38.95V16H37.69ZM40.938 8.16H38.95V11.59H40.938C42.128 11.59 42.94 10.904 42.94 9.868C42.94 8.832 42.128 8.16 40.938 8.16ZM45.9325 16V9.294H47.1645V10.246C47.5005 9.546 48.0745 9.126 48.8585 9.126C49.2785 9.126 49.6425 9.224 49.8805 9.42L49.3625 10.582C49.1385 10.428 48.8165 10.316 48.4945 10.316C47.6825 10.316 47.1645 11.016 47.1645 12.136V16H45.9325ZM53.5616 16.168C51.6436 16.168 50.1456 14.586 50.1456 12.64C50.1456 10.694 51.6436 9.126 53.5616 9.126C55.4936 9.126 56.9916 10.694 56.9916 12.64C56.9916 14.586 55.4936 16.168 53.5616 16.168ZM53.5756 15.006C54.8356 15.006 55.7456 13.942 55.7456 12.64C55.7456 11.324 54.8356 10.288 53.5756 10.288C52.3016 10.288 51.3916 11.324 51.3916 12.64C51.3916 13.942 52.3016 15.006 53.5756 15.006ZM61.501 16.168C59.681 16.168 58.253 14.67 58.253 12.64C58.253 10.652 59.625 9.126 61.501 9.126C62.551 9.126 63.349 9.63 63.853 10.456V6.368H65.099V16H63.853V14.796C63.349 15.622 62.551 16.168 61.501 16.168ZM61.683 15.006C62.943 15.006 63.853 13.942 63.853 12.64C63.853 11.324 62.943 10.288 61.683 10.288C60.409 10.288 59.499 11.324 59.499 12.64C59.499 13.942 60.409 15.006 61.683 15.006ZM68.463 9.294V13.004C68.463 14.18 69.149 14.964 70.185 14.964C71.235 14.964 71.935 14.18 71.935 13.004V9.294H73.181V13.102C73.181 14.922 71.991 16.126 70.185 16.126C68.393 16.126 67.217 14.922 67.217 13.102V9.294H68.463ZM80.0874 10.946C79.6254 10.526 79.0514 10.288 78.3094 10.288C76.9794 10.288 76.0694 11.324 76.0694 12.64C76.0694 13.942 76.9934 15.006 78.2954 15.006C79.0374 15.006 79.6674 14.768 80.1154 14.32L80.7594 15.23C80.2274 15.804 79.2894 16.168 78.2674 16.168C76.3074 16.168 74.8234 14.586 74.8234 12.64C74.8234 10.694 76.3214 9.126 78.2814 9.126C79.3454 9.126 80.2414 9.49 80.8014 10.064L80.0874 10.946ZM81.3796 10.4V9.294H82.4856V7.628H83.7316V9.294H85.6356V10.4H83.7456V13.942C83.7456 14.656 84.0676 15.006 84.6696 15.006C85.0056 15.006 85.3416 14.88 85.5376 14.656L86.1116 15.594C85.7896 15.902 85.2436 16.168 84.5016 16.168C83.2416 16.168 82.4856 15.426 82.4856 13.984V10.4H81.3796ZM90.5702 12.5V7.026H91.8302V12.5C91.8302 13.956 92.7402 14.922 94.0842 14.922C95.4422 14.922 96.3242 13.956 96.3242 12.5V7.026H97.5982V12.5C97.5982 14.712 96.1842 16.168 94.0702 16.168C91.9562 16.168 90.5702 14.712 90.5702 12.5ZM101.032 18.744H99.7997V9.294H101.032V10.498C101.536 9.672 102.334 9.126 103.384 9.126C105.204 9.126 106.632 10.624 106.632 12.654C106.632 14.642 105.26 16.168 103.384 16.168C102.334 16.168 101.536 15.664 101.032 14.838V18.744ZM103.23 15.006C104.49 15.006 105.4 13.97 105.4 12.654C105.4 11.352 104.49 10.288 103.23 10.288C101.956 10.288 101.032 11.352 101.032 12.654C101.032 13.97 101.956 15.006 103.23 15.006ZM111.144 16.168C109.324 16.168 107.896 14.67 107.896 12.64C107.896 10.652 109.268 9.126 111.144 9.126C112.194 9.126 112.992 9.63 113.496 10.456V6.368H114.742V16H113.496V14.796C112.992 15.622 112.194 16.168 111.144 16.168ZM111.326 15.006C112.586 15.006 113.496 13.942 113.496 12.64C113.496 11.324 112.586 10.288 111.326 10.288C110.052 10.288 109.142 11.324 109.142 12.64C109.142 13.942 110.052 15.006 111.326 15.006ZM119.73 16.168C117.91 16.168 116.482 14.67 116.482 12.64C116.482 10.652 117.854 9.126 119.73 9.126C120.78 9.126 121.578 9.63 122.082 10.456V9.294H123.328V16H122.082V14.796C121.578 15.622 120.78 16.168 119.73 16.168ZM119.912 15.006C121.172 15.006 122.082 13.942 122.082 12.64C122.082 11.324 121.172 10.288 119.912 10.288C118.638 10.288 117.728 11.324 117.728 12.64C117.728 13.942 118.638 15.006 119.912 15.006ZM124.802 10.4V9.294H125.908V7.628H127.154V9.294H129.058V10.4H127.168V13.942C127.168 14.656 127.49 15.006 128.092 15.006C128.428 15.006 128.764 14.88 128.96 14.656L129.534 15.594C129.212 15.902 128.666 16.168 127.924 16.168C126.664 16.168 125.908 15.426 125.908 13.984V10.4H124.802ZM133.517 16.168C131.473 16.168 130.003 14.586 130.003 12.64C130.003 10.694 131.417 9.126 133.321 9.126C135.197 9.126 136.625 10.624 136.625 12.514C136.625 12.682 136.611 12.934 136.583 13.032H131.277C131.431 14.194 132.313 15.062 133.559 15.062C134.315 15.062 134.987 14.768 135.435 14.32L136.093 15.174C135.547 15.762 134.595 16.168 133.517 16.168ZM133.335 10.19C132.285 10.19 131.529 10.946 131.305 12.01H135.323C135.099 10.848 134.343 10.19 133.335 10.19ZM140.039 16.168C139.045 16.168 138.149 15.902 137.463 15.496L137.939 14.474C138.695 14.866 139.353 15.09 140.123 15.09C141.061 15.09 141.509 14.726 141.509 14.194C141.509 12.668 137.701 13.592 137.701 11.002C137.701 10.008 138.597 9.126 140.221 9.126C141.131 9.126 141.845 9.35 142.573 9.7L142.083 10.722C141.607 10.456 140.921 10.218 140.277 10.218C139.451 10.218 138.961 10.498 138.961 10.988C138.961 12.528 142.741 11.618 142.741 14.166C142.741 15.314 141.747 16.168 140.039 16.168Z" fill="black"/>
<rect x="1.5" y="37" width="22" height="22" rx="7" fill="white"/>
<rect x="1.5" y="37" width="22" height="22" rx="7" stroke="#5D5D5D" stroke-width="2"/>
<path d="M37.69 52V43.026H43.388V44.216H38.95V46.904H42.828V48.094H38.95V50.81H43.388V52H37.69ZM48.2642 52H46.6542L44.1202 45.294H45.4922L47.4942 50.88L49.5242 45.294H50.7982L48.2642 52ZM54.8901 52.168C52.8461 52.168 51.3761 50.586 51.3761 48.64C51.3761 46.694 52.7901 45.126 54.6941 45.126C56.5701 45.126 57.9981 46.624 57.9981 48.514C57.9981 48.682 57.9841 48.934 57.9561 49.032H52.6501C52.8041 50.194 53.6861 51.062 54.9321 51.062C55.6881 51.062 56.3601 50.768 56.8081 50.32L57.4661 51.174C56.9201 51.762 55.9681 52.168 54.8901 52.168ZM54.7081 46.19C53.6581 46.19 52.9021 46.946 52.6781 48.01H56.6961C56.4721 46.848 55.7161 46.19 54.7081 46.19ZM59.6044 52V45.294H60.8364V46.316C61.2144 45.574 61.9284 45.126 62.8664 45.126C64.4344 45.126 65.4564 46.204 65.4564 47.898V52H64.2244V48.094C64.2244 46.988 63.5804 46.288 62.5304 46.288C61.4804 46.288 60.8364 46.988 60.8364 48.094V52H59.6044ZM66.8328 46.4V45.294H67.9388V43.628H69.1848V45.294H71.0888V46.4H69.1988V49.942C69.1988 50.656 69.5208 51.006 70.1228 51.006C70.4588 51.006 70.7948 50.88 70.9908 50.656L71.5648 51.594C71.2428 51.902 70.6968 52.168 69.9548 52.168C68.6948 52.168 67.9388 51.426 67.9388 49.984V46.4H66.8328ZM76.1353 52V43.026H77.3953V52H76.1353ZM79.702 52V45.294H80.934V46.316C81.312 45.574 82.026 45.126 82.964 45.126C84.532 45.126 85.554 46.204 85.554 47.898V52H84.322V48.094C84.322 46.988 83.678 46.288 82.628 46.288C81.578 46.288 80.934 46.988 80.934 48.094V52H79.702ZM90.8657 52H89.2557L86.7217 45.294H88.0937L90.0957 50.88L92.1257 45.294H93.3997L90.8657 52ZM95.3434 44.132C94.9094 44.132 94.5734 43.782 94.5734 43.362C94.5734 42.942 94.9094 42.592 95.3434 42.592C95.7634 42.592 96.1134 42.942 96.1134 43.362C96.1134 43.782 95.7634 44.132 95.3434 44.132ZM95.9594 52H94.7274V45.294H95.9594V52ZM97.4441 46.4V45.294H98.5501V43.628H99.7961V45.294H101.7V46.4H99.8101V49.942C99.8101 50.656 100.132 51.006 100.734 51.006C101.07 51.006 101.406 50.88 101.602 50.656L102.176 51.594C101.854 51.902 101.308 52.168 100.566 52.168C99.3061 52.168 98.5501 51.426 98.5501 49.984V46.4H97.4441ZM105.894 52.168C104.074 52.168 102.646 50.67 102.646 48.64C102.646 46.652 104.018 45.126 105.894 45.126C106.944 45.126 107.742 45.63 108.246 46.456V45.294H109.492V52H108.246V50.796C107.742 51.622 106.944 52.168 105.894 52.168ZM106.076 51.006C107.336 51.006 108.246 49.942 108.246 48.64C108.246 47.324 107.336 46.288 106.076 46.288C104.802 46.288 103.892 47.324 103.892 48.64C103.892 49.942 104.802 51.006 106.076 51.006ZM110.966 46.4V45.294H112.072V43.628H113.318V45.294H115.222V46.4H113.332V49.942C113.332 50.656 113.654 51.006 114.256 51.006C114.592 51.006 114.928 50.88 115.124 50.656L115.698 51.594C115.376 51.902 114.83 52.168 114.088 52.168C112.828 52.168 112.072 51.426 112.072 49.984V46.4H110.966ZM117.642 44.132C117.208 44.132 116.872 43.782 116.872 43.362C116.872 42.942 117.208 42.592 117.642 42.592C118.062 42.592 118.412 42.942 118.412 43.362C118.412 43.782 118.062 44.132 117.642 44.132ZM118.258 52H117.026V45.294H118.258V52ZM123.425 52.168C121.507 52.168 120.009 50.586 120.009 48.64C120.009 46.694 121.507 45.126 123.425 45.126C125.357 45.126 126.855 46.694 126.855 48.64C126.855 50.586 125.357 52.168 123.425 52.168ZM123.439 51.006C124.699 51.006 125.609 49.942 125.609 48.64C125.609 47.324 124.699 46.288 123.439 46.288C122.165 46.288 121.255 47.324 121.255 48.64C121.255 49.942 122.165 51.006 123.439 51.006ZM128.606 52V45.294H129.838V46.316C130.216 45.574 130.93 45.126 131.868 45.126C133.436 45.126 134.458 46.204 134.458 47.898V52H133.226V48.094C133.226 46.988 132.582 46.288 131.532 46.288C130.482 46.288 129.838 46.988 129.838 48.094V52H128.606ZM138.481 52.168C137.487 52.168 136.591 51.902 135.905 51.496L136.381 50.474C137.137 50.866 137.795 51.09 138.565 51.09C139.503 51.09 139.951 50.726 139.951 50.194C139.951 48.668 136.143 49.592 136.143 47.002C136.143 46.008 137.039 45.126 138.663 45.126C139.573 45.126 140.287 45.35 141.015 45.7L140.525 46.722C140.049 46.456 139.363 46.218 138.719 46.218C137.893 46.218 137.403 46.498 137.403 46.988C137.403 48.528 141.183 47.618 141.183 50.166C141.183 51.314 140.189 52.168 138.481 52.168Z" fill="black"/>
</svg>
