<svg width="184" height="40" viewBox="0 0 184 40" fill="none" xmlns="http://www.w3.org/2000/svg">
<rect width="40" height="40" rx="13.3333" fill="#1355E9"/>
<path d="M17.5221 28.3332L31.6667 14.1517L29.1888 11.6665L17.5221 23.3628L12.4779 18.3036L10 20.7888L17.5221 28.3332Z" fill="white"/>
<rect x="64" y="4" width="32" height="32" rx="10.6667" fill="#1355E9"/>
<path d="M78.0177 26.6668L89.3333 15.3217L87.351 13.3335L78.0177 22.6905L73.9823 18.6432L72 20.6313L78.0177 26.6668Z" fill="white"/>
<rect x="120" y="8" width="24" height="24" rx="8" fill="#1355E9"/>
<path d="M130.513 25L139 16.4911L137.513 15L130.513 22.0178L127.487 18.9822L126 20.4734L130.513 25Z" fill="white"/>
<rect x="168" y="12" width="16" height="16" rx="5.33333" fill="#1355E9"/>
<path d="M175.009 23.3332L180.667 17.6606L179.676 16.6665L175.009 21.345L172.991 19.3213L172 20.3154L175.009 23.3332Z" fill="white"/>
</svg>
