<svg width="233" height="96" viewBox="0 0 233 96" fill="none" xmlns="http://www.w3.org/2000/svg">
<rect x="1" y="1" width="22" height="22" rx="7" fill="#80CEFF"/>
<rect x="1" y="1" width="22" height="22" rx="7" stroke="#1A3673" stroke-width="2"/>
<path d="M37.19 16V7.04H39.934C42.916 7.04 44.988 8.874 44.988 11.52C44.988 14.166 42.972 16 40.06 16H37.19ZM39.962 8.23H38.478V14.81H39.962C42.188 14.81 43.644 13.508 43.644 11.52C43.644 9.532 42.188 8.23 39.962 8.23ZM49.8237 16.168C47.7797 16.168 46.3097 14.586 46.3097 12.64C46.3097 10.694 47.7237 9.126 49.6277 9.126C51.5037 9.126 52.9317 10.624 52.9317 12.514C52.9317 12.682 52.9177 12.934 52.8897 13.032H47.5837C47.7377 14.194 48.6197 15.062 49.8657 15.062C50.6217 15.062 51.2937 14.768 51.7417 14.32L52.3997 15.174C51.8537 15.762 50.9017 16.168 49.8237 16.168ZM49.6417 10.19C48.5917 10.19 47.8357 10.946 47.6117 12.01H51.6297C51.4057 10.848 50.6497 10.19 49.6417 10.19ZM53.838 10.4V9.294H54.888V8.524C54.888 7.04 55.742 6.2 57.03 6.2C57.814 6.2 58.346 6.438 58.724 6.844L58.08 7.754C57.87 7.53 57.506 7.362 57.128 7.362C56.498 7.362 56.134 7.782 56.134 8.538V9.294H57.912V10.4H56.134V16H54.888V10.4H53.838ZM61.6573 16.168C59.8373 16.168 58.4093 14.67 58.4093 12.64C58.4093 10.652 59.7813 9.126 61.6573 9.126C62.7073 9.126 63.5053 9.63 64.0093 10.456V9.294H65.2553V16H64.0093V14.796C63.5053 15.622 62.7073 16.168 61.6573 16.168ZM61.8393 15.006C63.0993 15.006 64.0093 13.942 64.0093 12.64C64.0093 11.324 63.0993 10.288 61.8393 10.288C60.5653 10.288 59.6553 11.324 59.6553 12.64C59.6553 13.942 60.5653 15.006 61.8393 15.006ZM68.6192 9.294V13.004C68.6192 14.18 69.3052 14.964 70.3412 14.964C71.3912 14.964 72.0912 14.18 72.0912 13.004V9.294H73.3372V13.102C73.3372 14.922 72.1472 16.126 70.3412 16.126C68.5492 16.126 67.3732 14.922 67.3732 13.102V9.294H68.6192ZM77.6536 14.922L77.7936 16.014C77.5836 16.084 77.3176 16.14 77.1076 16.14C76.2676 16.14 75.4696 15.58 75.4696 14.18V6.368H76.7016V14.194C76.7016 14.782 77.0236 14.992 77.3456 14.992C77.4436 14.992 77.5556 14.964 77.6536 14.922ZM78.6921 10.4V9.294H79.7981V7.628H81.0441V9.294H82.9481V10.4H81.0581V13.942C81.0581 14.656 81.3801 15.006 81.9821 15.006C82.3181 15.006 82.6541 14.88 82.8501 14.656L83.4241 15.594C83.1021 15.902 82.5561 16.168 81.8141 16.168C80.5541 16.168 79.7981 15.426 79.7981 13.984V10.4H78.6921ZM87.9247 16V6.368H89.1567V10.316C89.5347 9.574 90.2487 9.126 91.1867 9.126C92.7547 9.126 93.7767 10.204 93.7767 11.898V16H92.5447V12.094C92.5447 10.988 91.9007 10.288 90.8507 10.288C89.8007 10.288 89.1567 10.988 89.1567 12.094V16H87.9247ZM98.8351 16.168C96.9171 16.168 95.4191 14.586 95.4191 12.64C95.4191 10.694 96.9171 9.126 98.8351 9.126C100.767 9.126 102.265 10.694 102.265 12.64C102.265 14.586 100.767 16.168 98.8351 16.168ZM98.8491 15.006C100.109 15.006 101.019 13.942 101.019 12.64C101.019 11.324 100.109 10.288 98.8491 10.288C97.5751 10.288 96.6651 11.324 96.6651 12.64C96.6651 13.942 97.5751 15.006 98.8491 15.006ZM106.991 16H105.381L102.847 9.294H104.219L106.221 14.88L108.251 9.294H109.525L106.991 16ZM113.617 16.168C111.573 16.168 110.103 14.586 110.103 12.64C110.103 10.694 111.517 9.126 113.421 9.126C115.297 9.126 116.725 10.624 116.725 12.514C116.725 12.682 116.711 12.934 116.683 13.032H111.377C111.531 14.194 112.413 15.062 113.659 15.062C114.415 15.062 115.087 14.768 115.535 14.32L116.193 15.174C115.647 15.762 114.695 16.168 113.617 16.168ZM113.435 10.19C112.385 10.19 111.629 10.946 111.405 12.01H115.423C115.199 10.848 114.443 10.19 113.435 10.19ZM118.331 16V9.294H119.563V10.246C119.899 9.546 120.473 9.126 121.257 9.126C121.677 9.126 122.041 9.224 122.279 9.42L121.761 10.582C121.537 10.428 121.215 10.316 120.893 10.316C120.081 10.316 119.563 11.016 119.563 12.136V16H118.331Z" fill="black"/>
<rect y="36" width="24" height="24" rx="8" fill="#1355E9"/>
<path d="M10.5133 53L19 44.4911L17.5133 43L10.5133 50.0178L7.48673 46.9822L6 48.4734L10.5133 53Z" fill="white"/>
<path d="M44.47 43.978L43.63 44.958C43.028 44.454 42.272 44.104 41.264 44.104C39.472 44.104 38.03 45.63 38.03 47.52C38.03 49.396 39.472 50.922 41.376 50.922C42.244 50.922 43.07 50.628 43.644 50.096L44.47 51.02C43.644 51.832 42.622 52.168 41.292 52.168C38.688 52.168 36.686 50.082 36.686 47.52C36.686 44.944 38.73 42.858 41.25 42.858C42.678 42.858 43.686 43.264 44.47 43.978ZM45.911 52V42.368H47.143V46.316C47.521 45.574 48.235 45.126 49.173 45.126C50.741 45.126 51.763 46.204 51.763 47.898V52H50.531V48.094C50.531 46.988 49.887 46.288 48.837 46.288C47.787 46.288 47.143 46.988 47.143 48.094V52H45.911ZM56.9194 52.168C54.8754 52.168 53.4054 50.586 53.4054 48.64C53.4054 46.694 54.8194 45.126 56.7234 45.126C58.5994 45.126 60.0274 46.624 60.0274 48.514C60.0274 48.682 60.0134 48.934 59.9854 49.032H54.6794C54.8334 50.194 55.7154 51.062 56.9614 51.062C57.7174 51.062 58.3894 50.768 58.8374 50.32L59.4954 51.174C58.9494 51.762 57.9974 52.168 56.9194 52.168ZM56.7374 46.19C55.6874 46.19 54.9314 46.946 54.7074 48.01H58.7254C58.5014 46.848 57.7454 46.19 56.7374 46.19ZM66.4077 46.946C65.9457 46.526 65.3717 46.288 64.6297 46.288C63.2997 46.288 62.3897 47.324 62.3897 48.64C62.3897 49.942 63.3137 51.006 64.6157 51.006C65.3577 51.006 65.9877 50.768 66.4357 50.32L67.0797 51.23C66.5477 51.804 65.6097 52.168 64.5877 52.168C62.6277 52.168 61.1437 50.586 61.1437 48.64C61.1437 46.694 62.6417 45.126 64.6017 45.126C65.6657 45.126 66.5617 45.49 67.1217 46.064L66.4077 46.946ZM69.6879 52H68.4559V42.368H69.6879V48.22L72.8379 45.294H74.4059L71.0319 48.43L74.6439 52H73.0199L69.6879 48.682V52ZM78.1792 52.168C76.1352 52.168 74.6652 50.586 74.6652 48.64C74.6652 46.694 76.0792 45.126 77.9832 45.126C79.8592 45.126 81.2872 46.624 81.2872 48.514C81.2872 48.682 81.2732 48.934 81.2452 49.032H75.9392C76.0932 50.194 76.9752 51.062 78.2212 51.062C78.9772 51.062 79.6492 50.768 80.0972 50.32L80.7552 51.174C80.2092 51.762 79.2572 52.168 78.1792 52.168ZM77.9972 46.19C76.9472 46.19 76.1912 46.946 75.9672 48.01H79.9852C79.7612 46.848 79.0052 46.19 77.9972 46.19ZM85.6514 52.168C83.8314 52.168 82.4034 50.67 82.4034 48.64C82.4034 46.652 83.7754 45.126 85.6514 45.126C86.7014 45.126 87.4994 45.63 88.0034 46.456V42.368H89.2494V52H88.0034V50.796C87.4994 51.622 86.7014 52.168 85.6514 52.168ZM85.8334 51.006C87.0934 51.006 88.0034 49.942 88.0034 48.64C88.0034 47.324 87.0934 46.288 85.8334 46.288C84.5594 46.288 83.6494 47.324 83.6494 48.64C83.6494 49.942 84.5594 51.006 85.8334 51.006ZM96.5413 52.168C95.5473 52.168 94.6513 51.902 93.9653 51.496L94.4413 50.474C95.1973 50.866 95.8553 51.09 96.6253 51.09C97.5633 51.09 98.0113 50.726 98.0113 50.194C98.0113 48.668 94.2033 49.592 94.2033 47.002C94.2033 46.008 95.0993 45.126 96.7233 45.126C97.6333 45.126 98.3473 45.35 99.0753 45.7L98.5853 46.722C98.1093 46.456 97.4233 46.218 96.7793 46.218C95.9533 46.218 95.4633 46.498 95.4633 46.988C95.4633 48.528 99.2433 47.618 99.2433 50.166C99.2433 51.314 98.2493 52.168 96.5413 52.168ZM100.13 46.4V45.294H101.236V43.628H102.482V45.294H104.386V46.4H102.496V49.942C102.496 50.656 102.818 51.006 103.42 51.006C103.756 51.006 104.092 50.88 104.288 50.656L104.862 51.594C104.54 51.902 103.994 52.168 103.252 52.168C101.992 52.168 101.236 51.426 101.236 49.984V46.4H100.13ZM108.579 52.168C106.759 52.168 105.331 50.67 105.331 48.64C105.331 46.652 106.703 45.126 108.579 45.126C109.629 45.126 110.427 45.63 110.931 46.456V45.294H112.177V52H110.931V50.796C110.427 51.622 109.629 52.168 108.579 52.168ZM108.761 51.006C110.021 51.006 110.931 49.942 110.931 48.64C110.931 47.324 110.021 46.288 108.761 46.288C107.487 46.288 106.577 47.324 106.577 48.64C106.577 49.942 107.487 51.006 108.761 51.006ZM113.651 46.4V45.294H114.757V43.628H116.003V45.294H117.907V46.4H116.017V49.942C116.017 50.656 116.339 51.006 116.941 51.006C117.277 51.006 117.613 50.88 117.809 50.656L118.383 51.594C118.061 51.902 117.515 52.168 116.773 52.168C115.513 52.168 114.757 51.426 114.757 49.984V46.4H113.651ZM122.367 52.168C120.323 52.168 118.853 50.586 118.853 48.64C118.853 46.694 120.267 45.126 122.171 45.126C124.047 45.126 125.475 46.624 125.475 48.514C125.475 48.682 125.461 48.934 125.433 49.032H120.127C120.281 50.194 121.163 51.062 122.409 51.062C123.165 51.062 123.837 50.768 124.285 50.32L124.943 51.174C124.397 51.762 123.445 52.168 122.367 52.168ZM122.185 46.19C121.135 46.19 120.379 46.946 120.155 48.01H124.173C123.949 46.848 123.193 46.19 122.185 46.19ZM133.025 52H131.611L129.455 45.294H130.785L132.339 50.614L134.019 45.294H135.377L137.071 50.628L138.639 45.294H139.969L137.813 52H136.273L134.635 46.876L133.025 52ZM142.011 44.132C141.577 44.132 141.241 43.782 141.241 43.362C141.241 42.942 141.577 42.592 142.011 42.592C142.431 42.592 142.781 42.942 142.781 43.362C142.781 43.782 142.431 44.132 142.011 44.132ZM142.627 52H141.395V45.294H142.627V52ZM144.112 46.4V45.294H145.218V43.628H146.464V45.294H148.368V46.4H146.478V49.942C146.478 50.656 146.8 51.006 147.402 51.006C147.738 51.006 148.074 50.88 148.27 50.656L148.844 51.594C148.522 51.902 147.976 52.168 147.234 52.168C145.974 52.168 145.218 51.426 145.218 49.984V46.4H144.112ZM150.173 52V42.368H151.405V46.316C151.783 45.574 152.497 45.126 153.435 45.126C155.003 45.126 156.025 46.204 156.025 47.898V52H154.793V48.094C154.793 46.988 154.149 46.288 153.099 46.288C152.049 46.288 151.405 46.988 151.405 48.094V52H150.173ZM161.329 52V42.368H162.561V46.316C162.939 45.574 163.653 45.126 164.591 45.126C166.159 45.126 167.181 46.204 167.181 47.898V52H165.949V48.094C165.949 46.988 165.305 46.288 164.255 46.288C163.205 46.288 162.561 46.988 162.561 48.094V52H161.329ZM172.239 52.168C170.321 52.168 168.823 50.586 168.823 48.64C168.823 46.694 170.321 45.126 172.239 45.126C174.171 45.126 175.669 46.694 175.669 48.64C175.669 50.586 174.171 52.168 172.239 52.168ZM172.253 51.006C173.513 51.006 174.423 49.942 174.423 48.64C174.423 47.324 173.513 46.288 172.253 46.288C170.979 46.288 170.069 47.324 170.069 48.64C170.069 49.942 170.979 51.006 172.253 51.006ZM180.395 52H178.785L176.251 45.294H177.623L179.625 50.88L181.655 45.294H182.929L180.395 52ZM187.021 52.168C184.977 52.168 183.507 50.586 183.507 48.64C183.507 46.694 184.921 45.126 186.825 45.126C188.701 45.126 190.129 46.624 190.129 48.514C190.129 48.682 190.115 48.934 190.087 49.032H184.781C184.935 50.194 185.817 51.062 187.063 51.062C187.819 51.062 188.491 50.768 188.939 50.32L189.597 51.174C189.051 51.762 188.099 52.168 187.021 52.168ZM186.839 46.19C185.789 46.19 185.033 46.946 184.809 48.01H188.827C188.603 46.848 187.847 46.19 186.839 46.19ZM191.735 52V45.294H192.967V46.246C193.303 45.546 193.877 45.126 194.661 45.126C195.081 45.126 195.445 45.224 195.683 45.42L195.165 46.582C194.941 46.428 194.619 46.316 194.297 46.316C193.485 46.316 192.967 47.016 192.967 48.136V52H191.735Z" fill="black"/>
<rect y="72" width="24" height="24" rx="8" fill="#1355E9"/>
<rect x="6" y="83" width="12" height="2" fill="white"/>
<path d="M37.19 88V79.026H38.45V88H37.19ZM40.7567 88V81.294H41.9887V82.316C42.3667 81.574 43.0807 81.126 44.0187 81.126C45.5867 81.126 46.6087 82.204 46.6087 83.898V88H45.3767V84.094C45.3767 82.988 44.7327 82.288 43.6827 82.288C42.6327 82.288 41.9887 82.988 41.9887 84.094V88H40.7567ZM51.4991 88.168C49.6791 88.168 48.2511 86.67 48.2511 84.64C48.2511 82.652 49.6231 81.126 51.4991 81.126C52.5491 81.126 53.3471 81.63 53.8511 82.456V78.368H55.0971V88H53.8511V86.796C53.3471 87.622 52.5491 88.168 51.4991 88.168ZM51.6811 87.006C52.9411 87.006 53.8511 85.942 53.8511 84.64C53.8511 83.324 52.9411 82.288 51.6811 82.288C50.4071 82.288 49.4971 83.324 49.4971 84.64C49.4971 85.942 50.4071 87.006 51.6811 87.006ZM60.351 88.168C58.307 88.168 56.837 86.586 56.837 84.64C56.837 82.694 58.251 81.126 60.155 81.126C62.031 81.126 63.459 82.624 63.459 84.514C63.459 84.682 63.445 84.934 63.417 85.032H58.111C58.265 86.194 59.147 87.062 60.393 87.062C61.149 87.062 61.821 86.768 62.269 86.32L62.927 87.174C62.381 87.762 61.429 88.168 60.351 88.168ZM60.169 82.19C59.119 82.19 58.363 82.946 58.139 84.01H62.157C61.933 82.848 61.177 82.19 60.169 82.19ZM64.3093 82.4V81.294H65.4153V79.628H66.6613V81.294H68.5653V82.4H66.6753V85.942C66.6753 86.656 66.9973 87.006 67.5993 87.006C67.9353 87.006 68.2713 86.88 68.4673 86.656L69.0413 87.594C68.7193 87.902 68.1733 88.168 67.4313 88.168C66.1713 88.168 65.4153 87.426 65.4153 85.984V82.4H64.3093ZM73.0249 88.168C70.9809 88.168 69.5109 86.586 69.5109 84.64C69.5109 82.694 70.9249 81.126 72.8289 81.126C74.7049 81.126 76.1329 82.624 76.1329 84.514C76.1329 84.682 76.1189 84.934 76.0909 85.032H70.7849C70.9389 86.194 71.8209 87.062 73.0669 87.062C73.8229 87.062 74.4949 86.768 74.9429 86.32L75.6009 87.174C75.0549 87.762 74.1029 88.168 73.0249 88.168ZM72.8429 82.19C71.7929 82.19 71.0369 82.946 70.8129 84.01H74.8309C74.6069 82.848 73.8509 82.19 72.8429 82.19ZM77.7391 88V81.294H78.9711V82.246C79.3071 81.546 79.8811 81.126 80.6651 81.126C81.0851 81.126 81.4491 81.224 81.6871 81.42L81.1691 82.582C80.9451 82.428 80.6231 82.316 80.3011 82.316C79.4891 82.316 78.9711 83.016 78.9711 84.136V88H77.7391ZM84.2348 88H83.0028V81.294H84.2348V82.358C84.5988 81.602 85.2988 81.126 86.2088 81.126C87.2868 81.126 88.0988 81.672 88.4768 82.61C88.7988 81.742 89.5268 81.126 90.6048 81.126C92.1588 81.126 93.1668 82.176 93.1668 83.898V88H91.9208V84.094C91.9208 82.988 91.3188 82.288 90.3108 82.288C89.3168 82.288 88.7008 82.988 88.7008 84.094V88H87.4548V84.094C87.4548 82.988 86.8528 82.288 85.8588 82.288C84.8508 82.288 84.2348 82.988 84.2348 84.094V88ZM95.8962 80.132C95.4622 80.132 95.1262 79.782 95.1262 79.362C95.1262 78.942 95.4622 78.592 95.8962 78.592C96.3162 78.592 96.6662 78.942 96.6662 79.362C96.6662 79.782 96.3162 80.132 95.8962 80.132ZM96.5122 88H95.2802V81.294H96.5122V88ZM98.7528 88V81.294H99.9848V82.316C100.363 81.574 101.077 81.126 102.015 81.126C103.583 81.126 104.605 82.204 104.605 83.898V88H103.373V84.094C103.373 82.988 102.729 82.288 101.679 82.288C100.629 82.288 99.9848 82.988 99.9848 84.094V88H98.7528ZM109.495 88.168C107.675 88.168 106.247 86.67 106.247 84.64C106.247 82.652 107.619 81.126 109.495 81.126C110.545 81.126 111.343 81.63 111.847 82.456V81.294H113.093V88H111.847V86.796C111.343 87.622 110.545 88.168 109.495 88.168ZM109.677 87.006C110.937 87.006 111.847 85.942 111.847 84.64C111.847 83.324 110.937 82.288 109.677 82.288C108.403 82.288 107.493 83.324 107.493 84.64C107.493 85.942 108.403 87.006 109.677 87.006ZM114.567 82.4V81.294H115.673V79.628H116.919V81.294H118.823V82.4H116.933V85.942C116.933 86.656 117.255 87.006 117.857 87.006C118.193 87.006 118.529 86.88 118.725 86.656L119.299 87.594C118.977 87.902 118.431 88.168 117.689 88.168C116.429 88.168 115.673 87.426 115.673 85.984V82.4H114.567ZM123.283 88.168C121.239 88.168 119.769 86.586 119.769 84.64C119.769 82.694 121.183 81.126 123.087 81.126C124.963 81.126 126.391 82.624 126.391 84.514C126.391 84.682 126.377 84.934 126.349 85.032H121.043C121.197 86.194 122.079 87.062 123.325 87.062C124.081 87.062 124.753 86.768 125.201 86.32L125.859 87.174C125.313 87.762 124.361 88.168 123.283 88.168ZM123.101 82.19C122.051 82.19 121.295 82.946 121.071 84.01H125.089C124.865 82.848 124.109 82.19 123.101 82.19ZM133.059 88.168C132.065 88.168 131.169 87.902 130.483 87.496L130.959 86.474C131.715 86.866 132.373 87.09 133.143 87.09C134.081 87.09 134.529 86.726 134.529 86.194C134.529 84.668 130.721 85.592 130.721 83.002C130.721 82.008 131.617 81.126 133.241 81.126C134.151 81.126 134.865 81.35 135.593 81.7L135.103 82.722C134.627 82.456 133.941 82.218 133.297 82.218C132.471 82.218 131.981 82.498 131.981 82.988C131.981 84.528 135.761 83.618 135.761 86.166C135.761 87.314 134.767 88.168 133.059 88.168ZM136.647 82.4V81.294H137.753V79.628H138.999V81.294H140.903V82.4H139.013V85.942C139.013 86.656 139.335 87.006 139.937 87.006C140.273 87.006 140.609 86.88 140.805 86.656L141.379 87.594C141.057 87.902 140.511 88.168 139.769 88.168C138.509 88.168 137.753 87.426 137.753 85.984V82.4H136.647ZM145.097 88.168C143.277 88.168 141.849 86.67 141.849 84.64C141.849 82.652 143.221 81.126 145.097 81.126C146.147 81.126 146.945 81.63 147.449 82.456V81.294H148.695V88H147.449V86.796C146.945 87.622 146.147 88.168 145.097 88.168ZM145.279 87.006C146.539 87.006 147.449 85.942 147.449 84.64C147.449 83.324 146.539 82.288 145.279 82.288C144.005 82.288 143.095 83.324 143.095 84.64C143.095 85.942 144.005 87.006 145.279 87.006ZM150.169 82.4V81.294H151.275V79.628H152.521V81.294H154.425V82.4H152.535V85.942C152.535 86.656 152.857 87.006 153.459 87.006C153.795 87.006 154.131 86.88 154.327 86.656L154.901 87.594C154.579 87.902 154.033 88.168 153.291 88.168C152.031 88.168 151.275 87.426 151.275 85.984V82.4H150.169ZM158.884 88.168C156.84 88.168 155.37 86.586 155.37 84.64C155.37 82.694 156.784 81.126 158.688 81.126C160.564 81.126 161.992 82.624 161.992 84.514C161.992 84.682 161.978 84.934 161.95 85.032H156.644C156.798 86.194 157.68 87.062 158.926 87.062C159.682 87.062 160.354 86.768 160.802 86.32L161.46 87.174C160.914 87.762 159.962 88.168 158.884 88.168ZM158.702 82.19C157.652 82.19 156.896 82.946 156.672 84.01H160.69C160.466 82.848 159.71 82.19 158.702 82.19ZM169.542 88H168.128L165.972 81.294H167.302L168.856 86.614L170.536 81.294H171.894L173.588 86.628L175.156 81.294H176.486L174.33 88H172.79L171.152 82.876L169.542 88ZM178.529 80.132C178.095 80.132 177.759 79.782 177.759 79.362C177.759 78.942 178.095 78.592 178.529 78.592C178.949 78.592 179.299 78.942 179.299 79.362C179.299 79.782 178.949 80.132 178.529 80.132ZM179.145 88H177.913V81.294H179.145V88ZM180.63 82.4V81.294H181.736V79.628H182.982V81.294H184.886V82.4H182.996V85.942C182.996 86.656 183.318 87.006 183.92 87.006C184.256 87.006 184.592 86.88 184.788 86.656L185.362 87.594C185.04 87.902 184.494 88.168 183.752 88.168C182.492 88.168 181.736 87.426 181.736 85.984V82.4H180.63ZM186.69 88V78.368H187.922V82.316C188.3 81.574 189.014 81.126 189.952 81.126C191.52 81.126 192.542 82.204 192.542 83.898V88H191.31V84.094C191.31 82.988 190.666 82.288 189.616 82.288C188.566 82.288 187.922 82.988 187.922 84.094V88H186.69ZM197.847 88V78.368H199.079V82.316C199.457 81.574 200.171 81.126 201.109 81.126C202.677 81.126 203.699 82.204 203.699 83.898V88H202.467V84.094C202.467 82.988 201.823 82.288 200.773 82.288C199.723 82.288 199.079 82.988 199.079 84.094V88H197.847ZM208.757 88.168C206.839 88.168 205.341 86.586 205.341 84.64C205.341 82.694 206.839 81.126 208.757 81.126C210.689 81.126 212.187 82.694 212.187 84.64C212.187 86.586 210.689 88.168 208.757 88.168ZM208.771 87.006C210.031 87.006 210.941 85.942 210.941 84.64C210.941 83.324 210.031 82.288 208.771 82.288C207.497 82.288 206.587 83.324 206.587 84.64C206.587 85.942 207.497 87.006 208.771 87.006ZM216.913 88H215.303L212.769 81.294H214.141L216.143 86.88L218.173 81.294H219.447L216.913 88ZM223.539 88.168C221.495 88.168 220.025 86.586 220.025 84.64C220.025 82.694 221.439 81.126 223.343 81.126C225.219 81.126 226.647 82.624 226.647 84.514C226.647 84.682 226.633 84.934 226.605 85.032H221.299C221.453 86.194 222.335 87.062 223.581 87.062C224.337 87.062 225.009 86.768 225.457 86.32L226.115 87.174C225.569 87.762 224.617 88.168 223.539 88.168ZM223.357 82.19C222.307 82.19 221.551 82.946 221.327 84.01H225.345C225.121 82.848 224.365 82.19 223.357 82.19ZM228.253 88V81.294H229.485V82.246C229.821 81.546 230.395 81.126 231.179 81.126C231.599 81.126 231.963 81.224 232.201 81.42L231.683 82.582C231.459 82.428 231.137 82.316 230.815 82.316C230.003 82.316 229.485 83.016 229.485 84.136V88H228.253Z" fill="black"/>
</svg>
