<svg width="215" height="96" viewBox="0 0 215 96" fill="none" xmlns="http://www.w3.org/2000/svg">
<rect x="1" y="1" width="22" height="22" rx="7" stroke="#D6D6D6" stroke-width="2"/>
<path d="M37.19 16V7.026H42.888V8.216H38.45V10.904H42.328V12.094H38.45V14.81H42.888V16H37.19ZM45.7622 16H44.5302V9.294H45.7622V10.358C46.1262 9.602 46.8262 9.126 47.7362 9.126C48.8142 9.126 49.6262 9.672 50.0042 10.61C50.3262 9.742 51.0542 9.126 52.1322 9.126C53.6862 9.126 54.6942 10.176 54.6942 11.898V16H53.4482V12.094C53.4482 10.988 52.8462 10.288 51.8382 10.288C50.8442 10.288 50.2282 10.988 50.2282 12.094V16H48.9822V12.094C48.9822 10.988 48.3802 10.288 47.3862 10.288C46.3782 10.288 45.7622 10.988 45.7622 12.094V16ZM58.0395 18.744H56.8075V9.294H58.0395V10.498C58.5435 9.672 59.3415 9.126 60.3915 9.126C62.2115 9.126 63.6395 10.624 63.6395 12.654C63.6395 14.642 62.2675 16.168 60.3915 16.168C59.3415 16.168 58.5435 15.664 58.0395 14.838V18.744ZM60.2375 15.006C61.4975 15.006 62.4075 13.97 62.4075 12.654C62.4075 11.352 61.4975 10.288 60.2375 10.288C58.9635 10.288 58.0395 11.352 58.0395 12.654C58.0395 13.97 58.9635 15.006 60.2375 15.006ZM64.6374 10.4V9.294H65.7434V7.628H66.9894V9.294H68.8934V10.4H67.0034V13.942C67.0034 14.656 67.3254 15.006 67.9274 15.006C68.2634 15.006 68.5994 14.88 68.7954 14.656L69.3694 15.594C69.0474 15.902 68.5014 16.168 67.7594 16.168C66.4994 16.168 65.7434 15.426 65.7434 13.984V10.4H64.6374ZM72.5321 16.658L72.7421 16.084L69.7041 9.294H71.0481L73.3021 14.53L75.2061 9.294H76.4661L73.5681 17.092C73.1201 18.31 72.4341 18.912 71.3981 18.912C70.8101 18.912 70.2081 18.674 69.7881 18.296L70.3621 17.33C70.6701 17.61 71.0341 17.75 71.4261 17.75C71.9161 17.75 72.2381 17.47 72.5321 16.658ZM83.7237 16.168C81.9037 16.168 80.4757 14.67 80.4757 12.64C80.4757 10.652 81.8477 9.126 83.7237 9.126C84.7737 9.126 85.5717 9.63 86.0757 10.456V9.294H87.3217V16H86.0757V14.796C85.5717 15.622 84.7737 16.168 83.7237 16.168ZM83.9057 15.006C85.1657 15.006 86.0757 13.942 86.0757 12.64C86.0757 11.324 85.1657 10.288 83.9057 10.288C82.6317 10.288 81.7217 11.324 81.7217 12.64C81.7217 13.942 82.6317 15.006 83.9057 15.006ZM89.5516 16V9.294H90.7836V10.316C91.1616 9.574 91.8756 9.126 92.8136 9.126C94.3816 9.126 95.4036 10.204 95.4036 11.898V16H94.1716V12.094C94.1716 10.988 93.5276 10.288 92.4776 10.288C91.4276 10.288 90.7836 10.988 90.7836 12.094V16H89.5516ZM100.294 16.168C98.474 16.168 97.046 14.67 97.046 12.64C97.046 10.652 98.418 9.126 100.294 9.126C101.344 9.126 102.142 9.63 102.646 10.456V6.368H103.892V16H102.646V14.796C102.142 15.622 101.344 16.168 100.294 16.168ZM100.476 15.006C101.736 15.006 102.646 13.942 102.646 12.64C102.646 11.324 101.736 10.288 100.476 10.288C99.202 10.288 98.292 11.324 98.292 12.64C98.292 13.942 99.202 15.006 100.476 15.006ZM112.052 16.168C110.232 16.168 108.804 14.67 108.804 12.64C108.804 10.652 110.176 9.126 112.052 9.126C113.102 9.126 113.9 9.63 114.404 10.456V6.368H115.65V16H114.404V14.796C113.9 15.622 113.102 16.168 112.052 16.168ZM112.234 15.006C113.494 15.006 114.404 13.942 114.404 12.64C114.404 11.324 113.494 10.288 112.234 10.288C110.96 10.288 110.05 11.324 110.05 12.64C110.05 13.942 110.96 15.006 112.234 15.006ZM118.496 8.132C118.062 8.132 117.726 7.782 117.726 7.362C117.726 6.942 118.062 6.592 118.496 6.592C118.916 6.592 119.266 6.942 119.266 7.362C119.266 7.782 118.916 8.132 118.496 8.132ZM119.112 16H117.88V9.294H119.112V16ZM123.242 16.168C122.248 16.168 121.352 15.902 120.666 15.496L121.142 14.474C121.898 14.866 122.556 15.09 123.326 15.09C124.264 15.09 124.712 14.726 124.712 14.194C124.712 12.668 120.904 13.592 120.904 11.002C120.904 10.008 121.8 9.126 123.424 9.126C124.334 9.126 125.048 9.35 125.776 9.7L125.286 10.722C124.81 10.456 124.124 10.218 123.48 10.218C122.654 10.218 122.164 10.498 122.164 10.988C122.164 12.528 125.944 11.618 125.944 14.166C125.944 15.314 124.95 16.168 123.242 16.168ZM130.345 16.168C128.525 16.168 127.097 14.67 127.097 12.64C127.097 10.652 128.469 9.126 130.345 9.126C131.395 9.126 132.193 9.63 132.697 10.456V9.294H133.943V16H132.697V14.796C132.193 15.622 131.395 16.168 130.345 16.168ZM130.527 15.006C131.787 15.006 132.697 13.942 132.697 12.64C132.697 11.324 131.787 10.288 130.527 10.288C129.253 10.288 128.343 11.324 128.343 12.64C128.343 13.942 129.253 15.006 130.527 15.006ZM139.757 9.126C141.577 9.126 143.005 10.624 143.005 12.654C143.005 14.642 141.633 16.168 139.757 16.168C138.707 16.168 137.909 15.664 137.405 14.838V16H136.173V6.368H137.405V10.498C137.909 9.672 138.707 9.126 139.757 9.126ZM139.603 10.288C138.329 10.288 137.405 11.352 137.405 12.654C137.405 13.97 138.329 15.006 139.603 15.006C140.863 15.006 141.773 13.97 141.773 12.654C141.773 11.352 140.863 10.288 139.603 10.288ZM146.943 14.922L147.083 16.014C146.873 16.084 146.607 16.14 146.397 16.14C145.557 16.14 144.759 15.58 144.759 14.18V6.368H145.991V14.194C145.991 14.782 146.313 14.992 146.635 14.992C146.733 14.992 146.845 14.964 146.943 14.922ZM151.761 16.168C149.717 16.168 148.247 14.586 148.247 12.64C148.247 10.694 149.661 9.126 151.565 9.126C153.441 9.126 154.869 10.624 154.869 12.514C154.869 12.682 154.855 12.934 154.827 13.032H149.521C149.675 14.194 150.557 15.062 151.803 15.062C152.559 15.062 153.231 14.768 153.679 14.32L154.337 15.174C153.791 15.762 152.839 16.168 151.761 16.168ZM151.579 10.19C150.529 10.19 149.773 10.946 149.549 12.01H153.567C153.343 10.848 152.587 10.19 151.579 10.19ZM159.233 16.168C157.413 16.168 155.985 14.67 155.985 12.64C155.985 10.652 157.357 9.126 159.233 9.126C160.283 9.126 161.081 9.63 161.585 10.456V6.368H162.831V16H161.585V14.796C161.081 15.622 160.283 16.168 159.233 16.168ZM159.415 15.006C160.675 15.006 161.585 13.942 161.585 12.64C161.585 11.324 160.675 10.288 159.415 10.288C158.141 10.288 157.231 11.324 157.231 12.64C157.231 13.942 158.141 15.006 159.415 15.006Z" fill="#D6D6D6"/>
<rect y="36" width="24" height="24" rx="8" fill="#89AAF4"/>
<path d="M10.5133 53L19 44.4911L17.5133 43L10.5133 50.0178L7.48673 46.9822L6 48.4734L10.5133 53Z" fill="white"/>
<path d="M44.47 43.978L43.63 44.958C43.028 44.454 42.272 44.104 41.264 44.104C39.472 44.104 38.03 45.63 38.03 47.52C38.03 49.396 39.472 50.922 41.376 50.922C42.244 50.922 43.07 50.628 43.644 50.096L44.47 51.02C43.644 51.832 42.622 52.168 41.292 52.168C38.688 52.168 36.686 50.082 36.686 47.52C36.686 44.944 38.73 42.858 41.25 42.858C42.678 42.858 43.686 43.264 44.47 43.978ZM45.911 52V42.368H47.143V46.316C47.521 45.574 48.235 45.126 49.173 45.126C50.741 45.126 51.763 46.204 51.763 47.898V52H50.531V48.094C50.531 46.988 49.887 46.288 48.837 46.288C47.787 46.288 47.143 46.988 47.143 48.094V52H45.911ZM56.9194 52.168C54.8754 52.168 53.4054 50.586 53.4054 48.64C53.4054 46.694 54.8194 45.126 56.7234 45.126C58.5994 45.126 60.0274 46.624 60.0274 48.514C60.0274 48.682 60.0134 48.934 59.9854 49.032H54.6794C54.8334 50.194 55.7154 51.062 56.9614 51.062C57.7174 51.062 58.3894 50.768 58.8374 50.32L59.4954 51.174C58.9494 51.762 57.9974 52.168 56.9194 52.168ZM56.7374 46.19C55.6874 46.19 54.9314 46.946 54.7074 48.01H58.7254C58.5014 46.848 57.7454 46.19 56.7374 46.19ZM66.4077 46.946C65.9457 46.526 65.3717 46.288 64.6297 46.288C63.2997 46.288 62.3897 47.324 62.3897 48.64C62.3897 49.942 63.3137 51.006 64.6157 51.006C65.3577 51.006 65.9877 50.768 66.4357 50.32L67.0797 51.23C66.5477 51.804 65.6097 52.168 64.5877 52.168C62.6277 52.168 61.1437 50.586 61.1437 48.64C61.1437 46.694 62.6417 45.126 64.6017 45.126C65.6657 45.126 66.5617 45.49 67.1217 46.064L66.4077 46.946ZM69.6879 52H68.4559V42.368H69.6879V48.22L72.8379 45.294H74.4059L71.0319 48.43L74.6439 52H73.0199L69.6879 48.682V52ZM78.1792 52.168C76.1352 52.168 74.6652 50.586 74.6652 48.64C74.6652 46.694 76.0792 45.126 77.9832 45.126C79.8592 45.126 81.2872 46.624 81.2872 48.514C81.2872 48.682 81.2732 48.934 81.2452 49.032H75.9392C76.0932 50.194 76.9752 51.062 78.2212 51.062C78.9772 51.062 79.6492 50.768 80.0972 50.32L80.7552 51.174C80.2092 51.762 79.2572 52.168 78.1792 52.168ZM77.9972 46.19C76.9472 46.19 76.1912 46.946 75.9672 48.01H79.9852C79.7612 46.848 79.0052 46.19 77.9972 46.19ZM85.6514 52.168C83.8314 52.168 82.4034 50.67 82.4034 48.64C82.4034 46.652 83.7754 45.126 85.6514 45.126C86.7014 45.126 87.4994 45.63 88.0034 46.456V42.368H89.2494V52H88.0034V50.796C87.4994 51.622 86.7014 52.168 85.6514 52.168ZM85.8334 51.006C87.0934 51.006 88.0034 49.942 88.0034 48.64C88.0034 47.324 87.0934 46.288 85.8334 46.288C84.5594 46.288 83.6494 47.324 83.6494 48.64C83.6494 49.942 84.5594 51.006 85.8334 51.006ZM97.4093 52.168C95.5892 52.168 94.1613 50.67 94.1613 48.64C94.1613 46.652 95.5333 45.126 97.4093 45.126C98.4593 45.126 99.2573 45.63 99.7613 46.456V45.294H101.007V52H99.7613V50.796C99.2573 51.622 98.4593 52.168 97.4093 52.168ZM97.5913 51.006C98.8513 51.006 99.7613 49.942 99.7613 48.64C99.7613 47.324 98.8513 46.288 97.5913 46.288C96.3173 46.288 95.4073 47.324 95.4073 48.64C95.4073 49.942 96.3173 51.006 97.5913 51.006ZM103.237 52V45.294H104.469V46.316C104.847 45.574 105.561 45.126 106.499 45.126C108.067 45.126 109.089 46.204 109.089 47.898V52H107.857V48.094C107.857 46.988 107.213 46.288 106.163 46.288C105.113 46.288 104.469 46.988 104.469 48.094V52H103.237ZM113.98 52.168C112.16 52.168 110.732 50.67 110.732 48.64C110.732 46.652 112.104 45.126 113.98 45.126C115.03 45.126 115.828 45.63 116.332 46.456V42.368H117.578V52H116.332V50.796C115.828 51.622 115.03 52.168 113.98 52.168ZM114.162 51.006C115.422 51.006 116.332 49.942 116.332 48.64C116.332 47.324 115.422 46.288 114.162 46.288C112.888 46.288 111.978 47.324 111.978 48.64C111.978 49.942 112.888 51.006 114.162 51.006ZM125.737 52.168C123.917 52.168 122.489 50.67 122.489 48.64C122.489 46.652 123.861 45.126 125.737 45.126C126.787 45.126 127.585 45.63 128.089 46.456V42.368H129.335V52H128.089V50.796C127.585 51.622 126.787 52.168 125.737 52.168ZM125.919 51.006C127.179 51.006 128.089 49.942 128.089 48.64C128.089 47.324 127.179 46.288 125.919 46.288C124.645 46.288 123.735 47.324 123.735 48.64C123.735 49.942 124.645 51.006 125.919 51.006ZM132.181 44.132C131.747 44.132 131.411 43.782 131.411 43.362C131.411 42.942 131.747 42.592 132.181 42.592C132.601 42.592 132.951 42.942 132.951 43.362C132.951 43.782 132.601 44.132 132.181 44.132ZM132.797 52H131.565V45.294H132.797V52ZM136.928 52.168C135.934 52.168 135.038 51.902 134.352 51.496L134.828 50.474C135.584 50.866 136.242 51.09 137.012 51.09C137.95 51.09 138.398 50.726 138.398 50.194C138.398 48.668 134.59 49.592 134.59 47.002C134.59 46.008 135.486 45.126 137.11 45.126C138.02 45.126 138.734 45.35 139.462 45.7L138.972 46.722C138.496 46.456 137.81 46.218 137.166 46.218C136.34 46.218 135.85 46.498 135.85 46.988C135.85 48.528 139.63 47.618 139.63 50.166C139.63 51.314 138.636 52.168 136.928 52.168ZM144.03 52.168C142.21 52.168 140.782 50.67 140.782 48.64C140.782 46.652 142.154 45.126 144.03 45.126C145.08 45.126 145.878 45.63 146.382 46.456V45.294H147.628V52H146.382V50.796C145.878 51.622 145.08 52.168 144.03 52.168ZM144.212 51.006C145.472 51.006 146.382 49.942 146.382 48.64C146.382 47.324 145.472 46.288 144.212 46.288C142.938 46.288 142.028 47.324 142.028 48.64C142.028 49.942 142.938 51.006 144.212 51.006ZM153.442 45.126C155.262 45.126 156.69 46.624 156.69 48.654C156.69 50.642 155.318 52.168 153.442 52.168C152.392 52.168 151.594 51.664 151.09 50.838V52H149.858V42.368H151.09V46.498C151.594 45.672 152.392 45.126 153.442 45.126ZM153.288 46.288C152.014 46.288 151.09 47.352 151.09 48.654C151.09 49.97 152.014 51.006 153.288 51.006C154.548 51.006 155.458 49.97 155.458 48.654C155.458 47.352 154.548 46.288 153.288 46.288ZM160.628 50.922L160.768 52.014C160.558 52.084 160.292 52.14 160.082 52.14C159.242 52.14 158.444 51.58 158.444 50.18V42.368H159.676V50.194C159.676 50.782 159.998 50.992 160.32 50.992C160.418 50.992 160.53 50.964 160.628 50.922ZM165.447 52.168C163.403 52.168 161.933 50.586 161.933 48.64C161.933 46.694 163.347 45.126 165.251 45.126C167.127 45.126 168.555 46.624 168.555 48.514C168.555 48.682 168.541 48.934 168.513 49.032H163.207C163.361 50.194 164.243 51.062 165.489 51.062C166.245 51.062 166.917 50.768 167.365 50.32L168.023 51.174C167.477 51.762 166.525 52.168 165.447 52.168ZM165.265 46.19C164.215 46.19 163.459 46.946 163.235 48.01H167.253C167.029 46.848 166.273 46.19 165.265 46.19ZM172.919 52.168C171.099 52.168 169.671 50.67 169.671 48.64C169.671 46.652 171.043 45.126 172.919 45.126C173.969 45.126 174.767 45.63 175.271 46.456V42.368H176.517V52H175.271V50.796C174.767 51.622 173.969 52.168 172.919 52.168ZM173.101 51.006C174.361 51.006 175.271 49.942 175.271 48.64C175.271 47.324 174.361 46.288 173.101 46.288C171.827 46.288 170.917 47.324 170.917 48.64C170.917 49.942 171.827 51.006 173.101 51.006Z" fill="#D6D6D6"/>
<rect y="72" width="24" height="24" rx="8" fill="#89AAF4"/>
<rect x="6" y="83" width="12" height="2" fill="white"/>
<path d="M37.19 88V79.026H38.45V88H37.19ZM40.7567 88V81.294H41.9887V82.316C42.3667 81.574 43.0807 81.126 44.0187 81.126C45.5867 81.126 46.6087 82.204 46.6087 83.898V88H45.3767V84.094C45.3767 82.988 44.7327 82.288 43.6827 82.288C42.6327 82.288 41.9887 82.988 41.9887 84.094V88H40.7567ZM51.4991 88.168C49.6791 88.168 48.2511 86.67 48.2511 84.64C48.2511 82.652 49.6231 81.126 51.4991 81.126C52.5491 81.126 53.3471 81.63 53.8511 82.456V78.368H55.0971V88H53.8511V86.796C53.3471 87.622 52.5491 88.168 51.4991 88.168ZM51.6811 87.006C52.9411 87.006 53.8511 85.942 53.8511 84.64C53.8511 83.324 52.9411 82.288 51.6811 82.288C50.4071 82.288 49.4971 83.324 49.4971 84.64C49.4971 85.942 50.4071 87.006 51.6811 87.006ZM60.351 88.168C58.307 88.168 56.837 86.586 56.837 84.64C56.837 82.694 58.251 81.126 60.155 81.126C62.031 81.126 63.459 82.624 63.459 84.514C63.459 84.682 63.445 84.934 63.417 85.032H58.111C58.265 86.194 59.147 87.062 60.393 87.062C61.149 87.062 61.821 86.768 62.269 86.32L62.927 87.174C62.381 87.762 61.429 88.168 60.351 88.168ZM60.169 82.19C59.119 82.19 58.363 82.946 58.139 84.01H62.157C61.933 82.848 61.177 82.19 60.169 82.19ZM64.3093 82.4V81.294H65.4153V79.628H66.6613V81.294H68.5653V82.4H66.6753V85.942C66.6753 86.656 66.9973 87.006 67.5993 87.006C67.9353 87.006 68.2713 86.88 68.4673 86.656L69.0413 87.594C68.7193 87.902 68.1733 88.168 67.4313 88.168C66.1713 88.168 65.4153 87.426 65.4153 85.984V82.4H64.3093ZM73.0249 88.168C70.9809 88.168 69.5109 86.586 69.5109 84.64C69.5109 82.694 70.9249 81.126 72.8289 81.126C74.7049 81.126 76.1329 82.624 76.1329 84.514C76.1329 84.682 76.1189 84.934 76.0909 85.032H70.7849C70.9389 86.194 71.8209 87.062 73.0669 87.062C73.8229 87.062 74.4949 86.768 74.9429 86.32L75.6009 87.174C75.0549 87.762 74.1029 88.168 73.0249 88.168ZM72.8429 82.19C71.7929 82.19 71.0369 82.946 70.8129 84.01H74.8309C74.6069 82.848 73.8509 82.19 72.8429 82.19ZM77.7391 88V81.294H78.9711V82.246C79.3071 81.546 79.8811 81.126 80.6651 81.126C81.0851 81.126 81.4491 81.224 81.6871 81.42L81.1691 82.582C80.9451 82.428 80.6231 82.316 80.3011 82.316C79.4891 82.316 78.9711 83.016 78.9711 84.136V88H77.7391ZM84.2348 88H83.0028V81.294H84.2348V82.358C84.5988 81.602 85.2988 81.126 86.2088 81.126C87.2868 81.126 88.0988 81.672 88.4768 82.61C88.7988 81.742 89.5268 81.126 90.6048 81.126C92.1588 81.126 93.1668 82.176 93.1668 83.898V88H91.9208V84.094C91.9208 82.988 91.3188 82.288 90.3108 82.288C89.3168 82.288 88.7008 82.988 88.7008 84.094V88H87.4548V84.094C87.4548 82.988 86.8528 82.288 85.8588 82.288C84.8508 82.288 84.2348 82.988 84.2348 84.094V88ZM95.8962 80.132C95.4622 80.132 95.1262 79.782 95.1262 79.362C95.1262 78.942 95.4622 78.592 95.8962 78.592C96.3162 78.592 96.6662 78.942 96.6662 79.362C96.6662 79.782 96.3162 80.132 95.8962 80.132ZM96.5122 88H95.2802V81.294H96.5122V88ZM98.7528 88V81.294H99.9848V82.316C100.363 81.574 101.077 81.126 102.015 81.126C103.583 81.126 104.605 82.204 104.605 83.898V88H103.373V84.094C103.373 82.988 102.729 82.288 101.679 82.288C100.629 82.288 99.9848 82.988 99.9848 84.094V88H98.7528ZM109.495 88.168C107.675 88.168 106.247 86.67 106.247 84.64C106.247 82.652 107.619 81.126 109.495 81.126C110.545 81.126 111.343 81.63 111.847 82.456V81.294H113.093V88H111.847V86.796C111.343 87.622 110.545 88.168 109.495 88.168ZM109.677 87.006C110.937 87.006 111.847 85.942 111.847 84.64C111.847 83.324 110.937 82.288 109.677 82.288C108.403 82.288 107.493 83.324 107.493 84.64C107.493 85.942 108.403 87.006 109.677 87.006ZM114.567 82.4V81.294H115.673V79.628H116.919V81.294H118.823V82.4H116.933V85.942C116.933 86.656 117.255 87.006 117.857 87.006C118.193 87.006 118.529 86.88 118.725 86.656L119.299 87.594C118.977 87.902 118.431 88.168 117.689 88.168C116.429 88.168 115.673 87.426 115.673 85.984V82.4H114.567ZM123.283 88.168C121.239 88.168 119.769 86.586 119.769 84.64C119.769 82.694 121.183 81.126 123.087 81.126C124.963 81.126 126.391 82.624 126.391 84.514C126.391 84.682 126.377 84.934 126.349 85.032H121.043C121.197 86.194 122.079 87.062 123.325 87.062C124.081 87.062 124.753 86.768 125.201 86.32L125.859 87.174C125.313 87.762 124.361 88.168 123.283 88.168ZM123.101 82.19C122.051 82.19 121.295 82.946 121.071 84.01H125.089C124.865 82.848 124.109 82.19 123.101 82.19ZM133.927 88.168C132.107 88.168 130.679 86.67 130.679 84.64C130.679 82.652 132.051 81.126 133.927 81.126C134.977 81.126 135.775 81.63 136.279 82.456V81.294H137.525V88H136.279V86.796C135.775 87.622 134.977 88.168 133.927 88.168ZM134.109 87.006C135.369 87.006 136.279 85.942 136.279 84.64C136.279 83.324 135.369 82.288 134.109 82.288C132.835 82.288 131.925 83.324 131.925 84.64C131.925 85.942 132.835 87.006 134.109 87.006ZM139.755 88V81.294H140.987V82.316C141.365 81.574 142.079 81.126 143.017 81.126C144.585 81.126 145.607 82.204 145.607 83.898V88H144.375V84.094C144.375 82.988 143.731 82.288 142.681 82.288C141.631 82.288 140.987 82.988 140.987 84.094V88H139.755ZM150.497 88.168C148.677 88.168 147.249 86.67 147.249 84.64C147.249 82.652 148.621 81.126 150.497 81.126C151.547 81.126 152.345 81.63 152.849 82.456V78.368H154.095V88H152.849V86.796C152.345 87.622 151.547 88.168 150.497 88.168ZM150.679 87.006C151.939 87.006 152.849 85.942 152.849 84.64C152.849 83.324 151.939 82.288 150.679 82.288C149.405 82.288 148.495 83.324 148.495 84.64C148.495 85.942 149.405 87.006 150.679 87.006ZM162.255 88.168C160.435 88.168 159.007 86.67 159.007 84.64C159.007 82.652 160.379 81.126 162.255 81.126C163.305 81.126 164.103 81.63 164.607 82.456V78.368H165.853V88H164.607V86.796C164.103 87.622 163.305 88.168 162.255 88.168ZM162.437 87.006C163.697 87.006 164.607 85.942 164.607 84.64C164.607 83.324 163.697 82.288 162.437 82.288C161.163 82.288 160.253 83.324 160.253 84.64C160.253 85.942 161.163 87.006 162.437 87.006ZM168.699 80.132C168.265 80.132 167.929 79.782 167.929 79.362C167.929 78.942 168.265 78.592 168.699 78.592C169.119 78.592 169.469 78.942 169.469 79.362C169.469 79.782 169.119 80.132 168.699 80.132ZM169.315 88H168.083V81.294H169.315V88ZM173.446 88.168C172.452 88.168 171.556 87.902 170.87 87.496L171.346 86.474C172.102 86.866 172.76 87.09 173.53 87.09C174.468 87.09 174.916 86.726 174.916 86.194C174.916 84.668 171.108 85.592 171.108 83.002C171.108 82.008 172.004 81.126 173.628 81.126C174.538 81.126 175.252 81.35 175.98 81.7L175.49 82.722C175.014 82.456 174.328 82.218 173.684 82.218C172.858 82.218 172.368 82.498 172.368 82.988C172.368 84.528 176.148 83.618 176.148 86.166C176.148 87.314 175.154 88.168 173.446 88.168ZM180.548 88.168C178.728 88.168 177.3 86.67 177.3 84.64C177.3 82.652 178.672 81.126 180.548 81.126C181.598 81.126 182.396 81.63 182.9 82.456V81.294H184.146V88H182.9V86.796C182.396 87.622 181.598 88.168 180.548 88.168ZM180.73 87.006C181.99 87.006 182.9 85.942 182.9 84.64C182.9 83.324 181.99 82.288 180.73 82.288C179.456 82.288 178.546 83.324 178.546 84.64C178.546 85.942 179.456 87.006 180.73 87.006ZM189.96 81.126C191.78 81.126 193.208 82.624 193.208 84.654C193.208 86.642 191.836 88.168 189.96 88.168C188.91 88.168 188.112 87.664 187.608 86.838V88H186.376V78.368H187.608V82.498C188.112 81.672 188.91 81.126 189.96 81.126ZM189.806 82.288C188.532 82.288 187.608 83.352 187.608 84.654C187.608 85.97 188.532 87.006 189.806 87.006C191.066 87.006 191.976 85.97 191.976 84.654C191.976 83.352 191.066 82.288 189.806 82.288ZM197.146 86.922L197.286 88.014C197.076 88.084 196.81 88.14 196.6 88.14C195.76 88.14 194.962 87.58 194.962 86.18V78.368H196.194V86.194C196.194 86.782 196.516 86.992 196.838 86.992C196.936 86.992 197.048 86.964 197.146 86.922ZM201.964 88.168C199.92 88.168 198.45 86.586 198.45 84.64C198.45 82.694 199.864 81.126 201.768 81.126C203.644 81.126 205.072 82.624 205.072 84.514C205.072 84.682 205.058 84.934 205.03 85.032H199.724C199.878 86.194 200.76 87.062 202.006 87.062C202.762 87.062 203.434 86.768 203.882 86.32L204.54 87.174C203.994 87.762 203.042 88.168 201.964 88.168ZM201.782 82.19C200.732 82.19 199.976 82.946 199.752 84.01H203.77C203.546 82.848 202.79 82.19 201.782 82.19ZM209.437 88.168C207.617 88.168 206.189 86.67 206.189 84.64C206.189 82.652 207.561 81.126 209.437 81.126C210.487 81.126 211.285 81.63 211.789 82.456V78.368H213.035V88H211.789V86.796C211.285 87.622 210.487 88.168 209.437 88.168ZM209.619 87.006C210.879 87.006 211.789 85.942 211.789 84.64C211.789 83.324 210.879 82.288 209.619 82.288C208.345 82.288 207.435 83.324 207.435 84.64C207.435 85.942 208.345 87.006 209.619 87.006Z" fill="#D6D6D6"/>
</svg>
