<svg width="240" height="108" viewBox="0 0 240 108" fill="none" xmlns="http://www.w3.org/2000/svg">
<rect x="6" y="6" width="24" height="24" rx="12" fill="#80CEFF"/>
<rect x="7" y="7" width="22" height="22" rx="7" stroke="#131331" stroke-width="2"/>
<path d="M50.47 13.978L49.63 14.958C49.028 14.454 48.272 14.104 47.264 14.104C45.472 14.104 44.03 15.63 44.03 17.52C44.03 19.396 45.472 20.922 47.376 20.922C48.244 20.922 49.07 20.628 49.644 20.096L50.47 21.02C49.644 21.832 48.622 22.168 47.292 22.168C44.688 22.168 42.686 20.082 42.686 17.52C42.686 14.944 44.73 12.858 47.25 12.858C48.678 12.858 49.686 13.264 50.47 13.978ZM51.911 22V12.368H53.143V16.316C53.521 15.574 54.235 15.126 55.173 15.126C56.741 15.126 57.763 16.204 57.763 17.898V22H56.531V18.094C56.531 16.988 55.887 16.288 54.837 16.288C53.787 16.288 53.143 16.988 53.143 18.094V22H51.911ZM62.9194 22.168C60.8754 22.168 59.4054 20.586 59.4054 18.64C59.4054 16.694 60.8194 15.126 62.7234 15.126C64.5994 15.126 66.0274 16.624 66.0274 18.514C66.0274 18.682 66.0134 18.934 65.9854 19.032H60.6794C60.8334 20.194 61.7154 21.062 62.9614 21.062C63.7174 21.062 64.3894 20.768 64.8374 20.32L65.4954 21.174C64.9494 21.762 63.9974 22.168 62.9194 22.168ZM62.7374 16.19C61.6874 16.19 60.9314 16.946 60.7074 18.01H64.7254C64.5014 16.848 63.7454 16.19 62.7374 16.19ZM72.4077 16.946C71.9457 16.526 71.3717 16.288 70.6297 16.288C69.2997 16.288 68.3897 17.324 68.3897 18.64C68.3897 19.942 69.3137 21.006 70.6157 21.006C71.3577 21.006 71.9877 20.768 72.4357 20.32L73.0797 21.23C72.5477 21.804 71.6097 22.168 70.5877 22.168C68.6277 22.168 67.1437 20.586 67.1437 18.64C67.1437 16.694 68.6417 15.126 70.6017 15.126C71.6657 15.126 72.5617 15.49 73.1217 16.064L72.4077 16.946ZM75.6879 22H74.4559V12.368H75.6879V18.22L78.8379 15.294H80.4059L77.0319 18.43L80.6439 22H79.0199L75.6879 18.682V22ZM85.3407 15.126C87.1607 15.126 88.5887 16.624 88.5887 18.654C88.5887 20.642 87.2167 22.168 85.3407 22.168C84.2907 22.168 83.4927 21.664 82.9887 20.838V22H81.7567V12.368H82.9887V16.498C83.4927 15.672 84.2907 15.126 85.3407 15.126ZM85.1867 16.288C83.9127 16.288 82.9887 17.352 82.9887 18.654C82.9887 19.97 83.9127 21.006 85.1867 21.006C86.4467 21.006 87.3567 19.97 87.3567 18.654C87.3567 17.352 86.4467 16.288 85.1867 16.288ZM93.2687 22.168C91.3507 22.168 89.8527 20.586 89.8527 18.64C89.8527 16.694 91.3507 15.126 93.2687 15.126C95.2007 15.126 96.6987 16.694 96.6987 18.64C96.6987 20.586 95.2007 22.168 93.2687 22.168ZM93.2827 21.006C94.5427 21.006 95.4527 19.942 95.4527 18.64C95.4527 17.324 94.5427 16.288 93.2827 16.288C92.0087 16.288 91.0987 17.324 91.0987 18.64C91.0987 19.942 92.0087 21.006 93.2827 21.006ZM97.1299 22L99.7199 18.584L97.2419 15.294H98.7819L100.532 17.632L102.324 15.294H103.724L101.246 18.57L103.822 22H102.282L100.42 19.522L98.5299 22H97.1299ZM109.553 24.744H108.321V15.294H109.553V16.498C110.057 15.672 110.855 15.126 111.905 15.126C113.725 15.126 115.153 16.624 115.153 18.654C115.153 20.642 113.781 22.168 111.905 22.168C110.855 22.168 110.057 21.664 109.553 20.838V24.744ZM111.751 21.006C113.011 21.006 113.921 19.97 113.921 18.654C113.921 17.352 113.011 16.288 111.751 16.288C110.477 16.288 109.553 17.352 109.553 18.654C109.553 19.97 110.477 21.006 111.751 21.006ZM116.907 22V15.294H118.139V16.246C118.475 15.546 119.049 15.126 119.833 15.126C120.253 15.126 120.617 15.224 120.855 15.42L120.337 16.582C120.113 16.428 119.791 16.316 119.469 16.316C118.657 16.316 118.139 17.016 118.139 18.136V22H116.907ZM124.634 22.168C122.59 22.168 121.12 20.586 121.12 18.64C121.12 16.694 122.534 15.126 124.438 15.126C126.314 15.126 127.742 16.624 127.742 18.514C127.742 18.682 127.728 18.934 127.7 19.032H122.394C122.548 20.194 123.43 21.062 124.676 21.062C125.432 21.062 126.104 20.768 126.552 20.32L127.21 21.174C126.664 21.762 125.712 22.168 124.634 22.168ZM124.452 16.19C123.402 16.19 122.646 16.946 122.422 18.01H126.44C126.216 16.848 125.46 16.19 124.452 16.19ZM131.156 22.168C130.162 22.168 129.266 21.902 128.58 21.496L129.056 20.474C129.812 20.866 130.47 21.09 131.24 21.09C132.178 21.09 132.626 20.726 132.626 20.194C132.626 18.668 128.818 19.592 128.818 17.002C128.818 16.008 129.714 15.126 131.338 15.126C132.248 15.126 132.962 15.35 133.69 15.7L133.2 16.722C132.724 16.456 132.038 16.218 131.394 16.218C130.568 16.218 130.078 16.498 130.078 16.988C130.078 18.528 133.858 17.618 133.858 20.166C133.858 21.314 132.864 22.168 131.156 22.168ZM137.391 22.168C136.397 22.168 135.501 21.902 134.815 21.496L135.291 20.474C136.047 20.866 136.705 21.09 137.475 21.09C138.413 21.09 138.861 20.726 138.861 20.194C138.861 18.668 135.053 19.592 135.053 17.002C135.053 16.008 135.949 15.126 137.573 15.126C138.483 15.126 139.197 15.35 139.925 15.7L139.435 16.722C138.959 16.456 138.273 16.218 137.629 16.218C136.803 16.218 136.313 16.498 136.313 16.988C136.313 18.528 140.093 17.618 140.093 20.166C140.093 21.314 139.099 22.168 137.391 22.168ZM144.759 22.168C142.715 22.168 141.245 20.586 141.245 18.64C141.245 16.694 142.659 15.126 144.563 15.126C146.439 15.126 147.867 16.624 147.867 18.514C147.867 18.682 147.853 18.934 147.825 19.032H142.519C142.673 20.194 143.555 21.062 144.801 21.062C145.557 21.062 146.229 20.768 146.677 20.32L147.335 21.174C146.789 21.762 145.837 22.168 144.759 22.168ZM144.577 16.19C143.527 16.19 142.771 16.946 142.547 18.01H146.565C146.341 16.848 145.585 16.19 144.577 16.19ZM152.232 22.168C150.412 22.168 148.984 20.67 148.984 18.64C148.984 16.652 150.356 15.126 152.232 15.126C153.282 15.126 154.08 15.63 154.584 16.456V12.368H155.83V22H154.584V20.796C154.08 21.622 153.282 22.168 152.232 22.168ZM152.414 21.006C153.674 21.006 154.584 19.942 154.584 18.64C154.584 17.324 153.674 16.288 152.414 16.288C151.14 16.288 150.23 17.324 150.23 18.64C150.23 19.942 151.14 21.006 152.414 21.006ZM163.121 22.168C162.127 22.168 161.231 21.902 160.545 21.496L161.021 20.474C161.777 20.866 162.435 21.09 163.205 21.09C164.143 21.09 164.591 20.726 164.591 20.194C164.591 18.668 160.783 19.592 160.783 17.002C160.783 16.008 161.679 15.126 163.303 15.126C164.213 15.126 164.927 15.35 165.655 15.7L165.165 16.722C164.689 16.456 164.003 16.218 163.359 16.218C162.533 16.218 162.043 16.498 162.043 16.988C162.043 18.528 165.823 17.618 165.823 20.166C165.823 21.314 164.829 22.168 163.121 22.168ZM166.71 16.4V15.294H167.816V13.628H169.062V15.294H170.966V16.4H169.076V19.942C169.076 20.656 169.398 21.006 170 21.006C170.336 21.006 170.672 20.88 170.868 20.656L171.442 21.594C171.12 21.902 170.574 22.168 169.832 22.168C168.572 22.168 167.816 21.426 167.816 19.984V16.4H166.71ZM175.159 22.168C173.339 22.168 171.911 20.67 171.911 18.64C171.911 16.652 173.283 15.126 175.159 15.126C176.209 15.126 177.007 15.63 177.511 16.456V15.294H178.757V22H177.511V20.796C177.007 21.622 176.209 22.168 175.159 22.168ZM175.341 21.006C176.601 21.006 177.511 19.942 177.511 18.64C177.511 17.324 176.601 16.288 175.341 16.288C174.067 16.288 173.157 17.324 173.157 18.64C173.157 19.942 174.067 21.006 175.341 21.006ZM180.231 16.4V15.294H181.337V13.628H182.583V15.294H184.487V16.4H182.597V19.942C182.597 20.656 182.919 21.006 183.521 21.006C183.857 21.006 184.193 20.88 184.389 20.656L184.963 21.594C184.641 21.902 184.095 22.168 183.353 22.168C182.093 22.168 181.337 21.426 181.337 19.984V16.4H180.231ZM188.947 22.168C186.903 22.168 185.433 20.586 185.433 18.64C185.433 16.694 186.847 15.126 188.751 15.126C190.627 15.126 192.055 16.624 192.055 18.514C192.055 18.682 192.041 18.934 192.013 19.032H186.707C186.861 20.194 187.743 21.062 188.989 21.062C189.745 21.062 190.417 20.768 190.865 20.32L191.523 21.174C190.977 21.762 190.025 22.168 188.947 22.168ZM188.765 16.19C187.715 16.19 186.959 16.946 186.735 18.01H190.753C190.529 16.848 189.773 16.19 188.765 16.19Z" fill="black"/>
<rect x="6" y="42" width="24" height="24" rx="8" fill="#131331"/>
<path d="M16.5133 59L25 50.4911L23.5133 49L16.5133 56.0178L13.4867 52.9822L12 54.4734L16.5133 59Z" fill="white"/>
<path d="M50.47 49.978L49.63 50.958C49.028 50.454 48.272 50.104 47.264 50.104C45.472 50.104 44.03 51.63 44.03 53.52C44.03 55.396 45.472 56.922 47.376 56.922C48.244 56.922 49.07 56.628 49.644 56.096L50.47 57.02C49.644 57.832 48.622 58.168 47.292 58.168C44.688 58.168 42.686 56.082 42.686 53.52C42.686 50.944 44.73 48.858 47.25 48.858C48.678 48.858 49.686 49.264 50.47 49.978ZM51.911 58V48.368H53.143V52.316C53.521 51.574 54.235 51.126 55.173 51.126C56.741 51.126 57.763 52.204 57.763 53.898V58H56.531V54.094C56.531 52.988 55.887 52.288 54.837 52.288C53.787 52.288 53.143 52.988 53.143 54.094V58H51.911ZM62.9194 58.168C60.8754 58.168 59.4054 56.586 59.4054 54.64C59.4054 52.694 60.8194 51.126 62.7234 51.126C64.5994 51.126 66.0274 52.624 66.0274 54.514C66.0274 54.682 66.0134 54.934 65.9854 55.032H60.6794C60.8334 56.194 61.7154 57.062 62.9614 57.062C63.7174 57.062 64.3894 56.768 64.8374 56.32L65.4954 57.174C64.9494 57.762 63.9974 58.168 62.9194 58.168ZM62.7374 52.19C61.6874 52.19 60.9314 52.946 60.7074 54.01H64.7254C64.5014 52.848 63.7454 52.19 62.7374 52.19ZM72.4077 52.946C71.9457 52.526 71.3717 52.288 70.6297 52.288C69.2997 52.288 68.3897 53.324 68.3897 54.64C68.3897 55.942 69.3137 57.006 70.6157 57.006C71.3577 57.006 71.9877 56.768 72.4357 56.32L73.0797 57.23C72.5477 57.804 71.6097 58.168 70.5877 58.168C68.6277 58.168 67.1437 56.586 67.1437 54.64C67.1437 52.694 68.6417 51.126 70.6017 51.126C71.6657 51.126 72.5617 51.49 73.1217 52.064L72.4077 52.946ZM75.6879 58H74.4559V48.368H75.6879V54.22L78.8379 51.294H80.4059L77.0319 54.43L80.6439 58H79.0199L75.6879 54.682V58ZM84.1792 58.168C82.1352 58.168 80.6652 56.586 80.6652 54.64C80.6652 52.694 82.0792 51.126 83.9832 51.126C85.8592 51.126 87.2872 52.624 87.2872 54.514C87.2872 54.682 87.2732 54.934 87.2452 55.032H81.9392C82.0932 56.194 82.9752 57.062 84.2212 57.062C84.9772 57.062 85.6492 56.768 86.0972 56.32L86.7552 57.174C86.2092 57.762 85.2572 58.168 84.1792 58.168ZM83.9972 52.19C82.9472 52.19 82.1912 52.946 81.9672 54.01H85.9852C85.7612 52.848 85.0052 52.19 83.9972 52.19ZM91.6514 58.168C89.8314 58.168 88.4034 56.67 88.4034 54.64C88.4034 52.652 89.7754 51.126 91.6514 51.126C92.7014 51.126 93.4994 51.63 94.0034 52.456V48.368H95.2494V58H94.0034V56.796C93.4994 57.622 92.7014 58.168 91.6514 58.168ZM91.8334 57.006C93.0934 57.006 94.0034 55.942 94.0034 54.64C94.0034 53.324 93.0934 52.288 91.8334 52.288C90.5594 52.288 89.6494 53.324 89.6494 54.64C89.6494 55.942 90.5594 57.006 91.8334 57.006ZM103.409 58.168C101.589 58.168 100.161 56.67 100.161 54.64C100.161 52.652 101.533 51.126 103.409 51.126C104.459 51.126 105.257 51.63 105.761 52.456V51.294H107.007V58H105.761V56.796C105.257 57.622 104.459 58.168 103.409 58.168ZM103.591 57.006C104.851 57.006 105.761 55.942 105.761 54.64C105.761 53.324 104.851 52.288 103.591 52.288C102.317 52.288 101.407 53.324 101.407 54.64C101.407 55.942 102.317 57.006 103.591 57.006ZM109.237 58V51.294H110.469V52.316C110.847 51.574 111.561 51.126 112.499 51.126C114.067 51.126 115.089 52.204 115.089 53.898V58H113.857V54.094C113.857 52.988 113.213 52.288 112.163 52.288C111.113 52.288 110.469 52.988 110.469 54.094V58H109.237ZM119.98 58.168C118.16 58.168 116.732 56.67 116.732 54.64C116.732 52.652 118.104 51.126 119.98 51.126C121.03 51.126 121.828 51.63 122.332 52.456V48.368H123.578V58H122.332V56.796C121.828 57.622 121.03 58.168 119.98 58.168ZM120.162 57.006C121.422 57.006 122.332 55.942 122.332 54.64C122.332 53.324 121.422 52.288 120.162 52.288C118.888 52.288 117.978 53.324 117.978 54.64C117.978 55.942 118.888 57.006 120.162 57.006ZM131.737 58.168C129.917 58.168 128.489 56.67 128.489 54.64C128.489 52.652 129.861 51.126 131.737 51.126C132.787 51.126 133.585 51.63 134.089 52.456V51.294H135.335V58H134.089V56.796C133.585 57.622 132.787 58.168 131.737 58.168ZM131.919 57.006C133.179 57.006 134.089 55.942 134.089 54.64C134.089 53.324 133.179 52.288 131.919 52.288C130.645 52.288 129.735 53.324 129.735 54.64C129.735 55.942 130.645 57.006 131.919 57.006ZM142.339 52.946C141.877 52.526 141.303 52.288 140.561 52.288C139.231 52.288 138.321 53.324 138.321 54.64C138.321 55.942 139.245 57.006 140.547 57.006C141.289 57.006 141.919 56.768 142.367 56.32L143.011 57.23C142.479 57.804 141.541 58.168 140.519 58.168C138.559 58.168 137.075 56.586 137.075 54.64C137.075 52.694 138.573 51.126 140.533 51.126C141.597 51.126 142.493 51.49 143.053 52.064L142.339 52.946ZM143.632 52.4V51.294H144.738V49.628H145.984V51.294H147.888V52.4H145.998V55.942C145.998 56.656 146.32 57.006 146.922 57.006C147.258 57.006 147.594 56.88 147.79 56.656L148.364 57.594C148.042 57.902 147.496 58.168 146.754 58.168C145.494 58.168 144.738 57.426 144.738 55.984V52.4H143.632ZM150.308 50.132C149.874 50.132 149.538 49.782 149.538 49.362C149.538 48.942 149.874 48.592 150.308 48.592C150.728 48.592 151.078 48.942 151.078 49.362C151.078 49.782 150.728 50.132 150.308 50.132ZM150.924 58H149.692V51.294H150.924V58ZM156.399 58H154.789L152.255 51.294H153.627L155.629 56.88L157.659 51.294H158.933L156.399 58ZM163.025 58.168C160.981 58.168 159.511 56.586 159.511 54.64C159.511 52.694 160.925 51.126 162.829 51.126C164.705 51.126 166.133 52.624 166.133 54.514C166.133 54.682 166.119 54.934 166.091 55.032H160.785C160.939 56.194 161.821 57.062 163.067 57.062C163.823 57.062 164.495 56.768 164.943 56.32L165.601 57.174C165.055 57.762 164.103 58.168 163.025 58.168ZM162.843 52.19C161.793 52.19 161.037 52.946 160.813 54.01H164.831C164.607 52.848 163.851 52.19 162.843 52.19ZM172.143 60.744H170.911V51.294H172.143V52.498C172.647 51.672 173.445 51.126 174.495 51.126C176.315 51.126 177.743 52.624 177.743 54.654C177.743 56.642 176.371 58.168 174.495 58.168C173.445 58.168 172.647 57.664 172.143 56.838V60.744ZM174.341 57.006C175.601 57.006 176.511 55.97 176.511 54.654C176.511 53.352 175.601 52.288 174.341 52.288C173.067 52.288 172.143 53.352 172.143 54.654C172.143 55.97 173.067 57.006 174.341 57.006ZM179.497 58V51.294H180.729V52.246C181.065 51.546 181.639 51.126 182.423 51.126C182.843 51.126 183.207 51.224 183.445 51.42L182.927 52.582C182.703 52.428 182.381 52.316 182.059 52.316C181.247 52.316 180.729 53.016 180.729 54.136V58H179.497ZM187.224 58.168C185.18 58.168 183.71 56.586 183.71 54.64C183.71 52.694 185.124 51.126 187.028 51.126C188.904 51.126 190.332 52.624 190.332 54.514C190.332 54.682 190.318 54.934 190.29 55.032H184.984C185.138 56.194 186.02 57.062 187.266 57.062C188.022 57.062 188.694 56.768 189.142 56.32L189.8 57.174C189.254 57.762 188.302 58.168 187.224 58.168ZM187.042 52.19C185.992 52.19 185.236 52.946 185.012 54.01H189.03C188.806 52.848 188.05 52.19 187.042 52.19ZM193.746 58.168C192.752 58.168 191.856 57.902 191.17 57.496L191.646 56.474C192.402 56.866 193.06 57.09 193.83 57.09C194.768 57.09 195.216 56.726 195.216 56.194C195.216 54.668 191.408 55.592 191.408 53.002C191.408 52.008 192.304 51.126 193.928 51.126C194.838 51.126 195.552 51.35 196.28 51.7L195.79 52.722C195.314 52.456 194.628 52.218 193.984 52.218C193.158 52.218 192.668 52.498 192.668 52.988C192.668 54.528 196.448 53.618 196.448 56.166C196.448 57.314 195.454 58.168 193.746 58.168ZM199.981 58.168C198.987 58.168 198.091 57.902 197.405 57.496L197.881 56.474C198.637 56.866 199.295 57.09 200.065 57.09C201.003 57.09 201.451 56.726 201.451 56.194C201.451 54.668 197.643 55.592 197.643 53.002C197.643 52.008 198.539 51.126 200.163 51.126C201.073 51.126 201.787 51.35 202.515 51.7L202.025 52.722C201.549 52.456 200.863 52.218 200.219 52.218C199.393 52.218 198.903 52.498 198.903 52.988C198.903 54.528 202.683 53.618 202.683 56.166C202.683 57.314 201.689 58.168 199.981 58.168Z" fill="black"/>
<rect x="6" y="78" width="24" height="24" rx="8" fill="#131331"/>
<rect x="12" y="89" width="12" height="2" fill="white"/>
<path d="M43.19 94V85.026H44.45V94H43.19ZM46.7567 94V87.294H47.9887V88.316C48.3667 87.574 49.0807 87.126 50.0187 87.126C51.5867 87.126 52.6087 88.204 52.6087 89.898V94H51.3767V90.094C51.3767 88.988 50.7327 88.288 49.6827 88.288C48.6327 88.288 47.9887 88.988 47.9887 90.094V94H46.7567ZM57.4991 94.168C55.6791 94.168 54.2511 92.67 54.2511 90.64C54.2511 88.652 55.6231 87.126 57.4991 87.126C58.5491 87.126 59.3471 87.63 59.8511 88.456V84.368H61.0971V94H59.8511V92.796C59.3471 93.622 58.5491 94.168 57.4991 94.168ZM57.6811 93.006C58.9411 93.006 59.8511 91.942 59.8511 90.64C59.8511 89.324 58.9411 88.288 57.6811 88.288C56.4071 88.288 55.4971 89.324 55.4971 90.64C55.4971 91.942 56.4071 93.006 57.6811 93.006ZM66.351 94.168C64.307 94.168 62.837 92.586 62.837 90.64C62.837 88.694 64.251 87.126 66.155 87.126C68.031 87.126 69.459 88.624 69.459 90.514C69.459 90.682 69.445 90.934 69.417 91.032H64.111C64.265 92.194 65.147 93.062 66.393 93.062C67.149 93.062 67.821 92.768 68.269 92.32L68.927 93.174C68.381 93.762 67.429 94.168 66.351 94.168ZM66.169 88.19C65.119 88.19 64.363 88.946 64.139 90.01H68.157C67.933 88.848 67.177 88.19 66.169 88.19ZM70.3093 88.4V87.294H71.4153V85.628H72.6613V87.294H74.5653V88.4H72.6753V91.942C72.6753 92.656 72.9973 93.006 73.5993 93.006C73.9353 93.006 74.2713 92.88 74.4673 92.656L75.0413 93.594C74.7193 93.902 74.1733 94.168 73.4313 94.168C72.1713 94.168 71.4153 93.426 71.4153 91.984V88.4H70.3093ZM79.0249 94.168C76.9809 94.168 75.5109 92.586 75.5109 90.64C75.5109 88.694 76.9249 87.126 78.8289 87.126C80.7049 87.126 82.1329 88.624 82.1329 90.514C82.1329 90.682 82.1189 90.934 82.0909 91.032H76.7849C76.9389 92.194 77.8209 93.062 79.0669 93.062C79.8229 93.062 80.4949 92.768 80.9429 92.32L81.6009 93.174C81.0549 93.762 80.1029 94.168 79.0249 94.168ZM78.8429 88.19C77.7929 88.19 77.0369 88.946 76.8129 90.01H80.8309C80.6069 88.848 79.8509 88.19 78.8429 88.19ZM83.7391 94V87.294H84.9711V88.246C85.3071 87.546 85.8811 87.126 86.6651 87.126C87.0851 87.126 87.4491 87.224 87.6871 87.42L87.1691 88.582C86.9451 88.428 86.6231 88.316 86.3011 88.316C85.4891 88.316 84.9711 89.016 84.9711 90.136V94H83.7391ZM90.2348 94H89.0028V87.294H90.2348V88.358C90.5988 87.602 91.2988 87.126 92.2088 87.126C93.2868 87.126 94.0988 87.672 94.4768 88.61C94.7988 87.742 95.5268 87.126 96.6048 87.126C98.1588 87.126 99.1668 88.176 99.1668 89.898V94H97.9208V90.094C97.9208 88.988 97.3188 88.288 96.3108 88.288C95.3168 88.288 94.7008 88.988 94.7008 90.094V94H93.4548V90.094C93.4548 88.988 92.8528 88.288 91.8588 88.288C90.8508 88.288 90.2348 88.988 90.2348 90.094V94ZM101.896 86.132C101.462 86.132 101.126 85.782 101.126 85.362C101.126 84.942 101.462 84.592 101.896 84.592C102.316 84.592 102.666 84.942 102.666 85.362C102.666 85.782 102.316 86.132 101.896 86.132ZM102.512 94H101.28V87.294H102.512V94ZM104.753 94V87.294H105.985V88.316C106.363 87.574 107.077 87.126 108.015 87.126C109.583 87.126 110.605 88.204 110.605 89.898V94H109.373V90.094C109.373 88.988 108.729 88.288 107.679 88.288C106.629 88.288 105.985 88.988 105.985 90.094V94H104.753ZM115.495 94.168C113.675 94.168 112.247 92.67 112.247 90.64C112.247 88.652 113.619 87.126 115.495 87.126C116.545 87.126 117.343 87.63 117.847 88.456V87.294H119.093V94H117.847V92.796C117.343 93.622 116.545 94.168 115.495 94.168ZM115.677 93.006C116.937 93.006 117.847 91.942 117.847 90.64C117.847 89.324 116.937 88.288 115.677 88.288C114.403 88.288 113.493 89.324 113.493 90.64C113.493 91.942 114.403 93.006 115.677 93.006ZM120.567 88.4V87.294H121.673V85.628H122.919V87.294H124.823V88.4H122.933V91.942C122.933 92.656 123.255 93.006 123.857 93.006C124.193 93.006 124.529 92.88 124.725 92.656L125.299 93.594C124.977 93.902 124.431 94.168 123.689 94.168C122.429 94.168 121.673 93.426 121.673 91.984V88.4H120.567ZM129.283 94.168C127.239 94.168 125.769 92.586 125.769 90.64C125.769 88.694 127.183 87.126 129.087 87.126C130.963 87.126 132.391 88.624 132.391 90.514C132.391 90.682 132.377 90.934 132.349 91.032H127.043C127.197 92.194 128.079 93.062 129.325 93.062C130.081 93.062 130.753 92.768 131.201 92.32L131.859 93.174C131.313 93.762 130.361 94.168 129.283 94.168ZM129.101 88.19C128.051 88.19 127.295 88.946 127.071 90.01H131.089C130.865 88.848 130.109 88.19 129.101 88.19ZM139.927 94.168C138.107 94.168 136.679 92.67 136.679 90.64C136.679 88.652 138.051 87.126 139.927 87.126C140.977 87.126 141.775 87.63 142.279 88.456V87.294H143.525V94H142.279V92.796C141.775 93.622 140.977 94.168 139.927 94.168ZM140.109 93.006C141.369 93.006 142.279 91.942 142.279 90.64C142.279 89.324 141.369 88.288 140.109 88.288C138.835 88.288 137.925 89.324 137.925 90.64C137.925 91.942 138.835 93.006 140.109 93.006ZM145.755 94V87.294H146.987V88.316C147.365 87.574 148.079 87.126 149.017 87.126C150.585 87.126 151.607 88.204 151.607 89.898V94H150.375V90.094C150.375 88.988 149.731 88.288 148.681 88.288C147.631 88.288 146.987 88.988 146.987 90.094V94H145.755ZM156.497 94.168C154.677 94.168 153.249 92.67 153.249 90.64C153.249 88.652 154.621 87.126 156.497 87.126C157.547 87.126 158.345 87.63 158.849 88.456V84.368H160.095V94H158.849V92.796C158.345 93.622 157.547 94.168 156.497 94.168ZM156.679 93.006C157.939 93.006 158.849 91.942 158.849 90.64C158.849 89.324 157.939 88.288 156.679 88.288C155.405 88.288 154.495 89.324 154.495 90.64C154.495 91.942 155.405 93.006 156.679 93.006ZM168.255 94.168C166.435 94.168 165.007 92.67 165.007 90.64C165.007 88.652 166.379 87.126 168.255 87.126C169.305 87.126 170.103 87.63 170.607 88.456V87.294H171.853V94H170.607V92.796C170.103 93.622 169.305 94.168 168.255 94.168ZM168.437 93.006C169.697 93.006 170.607 91.942 170.607 90.64C170.607 89.324 169.697 88.288 168.437 88.288C167.163 88.288 166.253 89.324 166.253 90.64C166.253 91.942 167.163 93.006 168.437 93.006ZM178.857 88.946C178.395 88.526 177.821 88.288 177.079 88.288C175.749 88.288 174.839 89.324 174.839 90.64C174.839 91.942 175.763 93.006 177.065 93.006C177.807 93.006 178.437 92.768 178.885 92.32L179.529 93.23C178.997 93.804 178.059 94.168 177.037 94.168C175.077 94.168 173.593 92.586 173.593 90.64C173.593 88.694 175.091 87.126 177.051 87.126C178.115 87.126 179.011 87.49 179.571 88.064L178.857 88.946ZM180.149 88.4V87.294H181.255V85.628H182.501V87.294H184.405V88.4H182.515V91.942C182.515 92.656 182.837 93.006 183.439 93.006C183.775 93.006 184.111 92.88 184.307 92.656L184.881 93.594C184.559 93.902 184.013 94.168 183.271 94.168C182.011 94.168 181.255 93.426 181.255 91.984V88.4H180.149ZM186.826 86.132C186.392 86.132 186.056 85.782 186.056 85.362C186.056 84.942 186.392 84.592 186.826 84.592C187.246 84.592 187.596 84.942 187.596 85.362C187.596 85.782 187.246 86.132 186.826 86.132ZM187.442 94H186.21V87.294H187.442V94ZM192.917 94H191.307L188.773 87.294H190.145L192.147 92.88L194.177 87.294H195.451L192.917 94ZM199.542 94.168C197.498 94.168 196.028 92.586 196.028 90.64C196.028 88.694 197.442 87.126 199.346 87.126C201.222 87.126 202.65 88.624 202.65 90.514C202.65 90.682 202.636 90.934 202.608 91.032H197.302C197.456 92.194 198.338 93.062 199.584 93.062C200.34 93.062 201.012 92.768 201.46 92.32L202.118 93.174C201.572 93.762 200.62 94.168 199.542 94.168ZM199.36 88.19C198.31 88.19 197.554 88.946 197.33 90.01H201.348C201.124 88.848 200.368 88.19 199.36 88.19ZM208.661 96.744H207.429V87.294H208.661V88.498C209.165 87.672 209.963 87.126 211.013 87.126C212.833 87.126 214.261 88.624 214.261 90.654C214.261 92.642 212.889 94.168 211.013 94.168C209.963 94.168 209.165 93.664 208.661 92.838V96.744ZM210.859 93.006C212.119 93.006 213.029 91.97 213.029 90.654C213.029 89.352 212.119 88.288 210.859 88.288C209.585 88.288 208.661 89.352 208.661 90.654C208.661 91.97 209.585 93.006 210.859 93.006ZM216.015 94V87.294H217.247V88.246C217.583 87.546 218.157 87.126 218.941 87.126C219.361 87.126 219.725 87.224 219.963 87.42L219.445 88.582C219.221 88.428 218.899 88.316 218.577 88.316C217.765 88.316 217.247 89.016 217.247 90.136V94H216.015ZM223.742 94.168C221.698 94.168 220.228 92.586 220.228 90.64C220.228 88.694 221.642 87.126 223.546 87.126C225.422 87.126 226.85 88.624 226.85 90.514C226.85 90.682 226.836 90.934 226.808 91.032H221.502C221.656 92.194 222.538 93.062 223.784 93.062C224.54 93.062 225.212 92.768 225.66 92.32L226.318 93.174C225.772 93.762 224.82 94.168 223.742 94.168ZM223.56 88.19C222.51 88.19 221.754 88.946 221.53 90.01H225.548C225.324 88.848 224.568 88.19 223.56 88.19ZM230.264 94.168C229.27 94.168 228.374 93.902 227.688 93.496L228.164 92.474C228.92 92.866 229.578 93.09 230.348 93.09C231.286 93.09 231.734 92.726 231.734 92.194C231.734 90.668 227.926 91.592 227.926 89.002C227.926 88.008 228.822 87.126 230.446 87.126C231.356 87.126 232.07 87.35 232.798 87.7L232.308 88.722C231.832 88.456 231.146 88.218 230.502 88.218C229.676 88.218 229.186 88.498 229.186 88.988C229.186 90.528 232.966 89.618 232.966 92.166C232.966 93.314 231.972 94.168 230.264 94.168ZM236.498 94.168C235.504 94.168 234.608 93.902 233.922 93.496L234.398 92.474C235.154 92.866 235.812 93.09 236.582 93.09C237.52 93.09 237.968 92.726 237.968 92.194C237.968 90.668 234.16 91.592 234.16 89.002C234.16 88.008 235.056 87.126 236.68 87.126C237.59 87.126 238.304 87.35 239.032 87.7L238.542 88.722C238.066 88.456 237.38 88.218 236.736 88.218C235.91 88.218 235.42 88.498 235.42 88.988C235.42 90.528 239.2 89.618 239.2 92.166C239.2 93.314 238.206 94.168 236.498 94.168Z" fill="black"/>
</svg>
