<svg width="240" height="132" viewBox="0 0 240 132" fill="none" xmlns="http://www.w3.org/2000/svg">
<rect x="1" y="1" width="34" height="34" rx="11" stroke="black" stroke-width="2"/>
<rect x="7" y="7" width="22" height="22" rx="7" stroke="#5D5D5D" stroke-width="2"/>
<path d="M50.47 13.978L49.63 14.958C49.028 14.454 48.272 14.104 47.264 14.104C45.472 14.104 44.03 15.63 44.03 17.52C44.03 19.396 45.472 20.922 47.376 20.922C48.244 20.922 49.07 20.628 49.644 20.096L50.47 21.02C49.644 21.832 48.622 22.168 47.292 22.168C44.688 22.168 42.686 20.082 42.686 17.52C42.686 14.944 44.73 12.858 47.25 12.858C48.678 12.858 49.686 13.264 50.47 13.978ZM51.911 22V12.368H53.143V16.316C53.521 15.574 54.235 15.126 55.173 15.126C56.741 15.126 57.763 16.204 57.763 17.898V22H56.531V18.094C56.531 16.988 55.887 16.288 54.837 16.288C53.787 16.288 53.143 16.988 53.143 18.094V22H51.911ZM62.9194 22.168C60.8754 22.168 59.4054 20.586 59.4054 18.64C59.4054 16.694 60.8194 15.126 62.7234 15.126C64.5994 15.126 66.0274 16.624 66.0274 18.514C66.0274 18.682 66.0134 18.934 65.9854 19.032H60.6794C60.8334 20.194 61.7154 21.062 62.9614 21.062C63.7174 21.062 64.3894 20.768 64.8374 20.32L65.4954 21.174C64.9494 21.762 63.9974 22.168 62.9194 22.168ZM62.7374 16.19C61.6874 16.19 60.9314 16.946 60.7074 18.01H64.7254C64.5014 16.848 63.7454 16.19 62.7374 16.19ZM72.4077 16.946C71.9457 16.526 71.3717 16.288 70.6297 16.288C69.2997 16.288 68.3897 17.324 68.3897 18.64C68.3897 19.942 69.3137 21.006 70.6157 21.006C71.3577 21.006 71.9877 20.768 72.4357 20.32L73.0797 21.23C72.5477 21.804 71.6097 22.168 70.5877 22.168C68.6277 22.168 67.1437 20.586 67.1437 18.64C67.1437 16.694 68.6417 15.126 70.6017 15.126C71.6657 15.126 72.5617 15.49 73.1217 16.064L72.4077 16.946ZM75.6879 22H74.4559V12.368H75.6879V18.22L78.8379 15.294H80.4059L77.0319 18.43L80.6439 22H79.0199L75.6879 18.682V22ZM85.3407 15.126C87.1607 15.126 88.5887 16.624 88.5887 18.654C88.5887 20.642 87.2167 22.168 85.3407 22.168C84.2907 22.168 83.4927 21.664 82.9887 20.838V22H81.7567V12.368H82.9887V16.498C83.4927 15.672 84.2907 15.126 85.3407 15.126ZM85.1867 16.288C83.9127 16.288 82.9887 17.352 82.9887 18.654C82.9887 19.97 83.9127 21.006 85.1867 21.006C86.4467 21.006 87.3567 19.97 87.3567 18.654C87.3567 17.352 86.4467 16.288 85.1867 16.288ZM93.2687 22.168C91.3507 22.168 89.8527 20.586 89.8527 18.64C89.8527 16.694 91.3507 15.126 93.2687 15.126C95.2007 15.126 96.6987 16.694 96.6987 18.64C96.6987 20.586 95.2007 22.168 93.2687 22.168ZM93.2827 21.006C94.5427 21.006 95.4527 19.942 95.4527 18.64C95.4527 17.324 94.5427 16.288 93.2827 16.288C92.0087 16.288 91.0987 17.324 91.0987 18.64C91.0987 19.942 92.0087 21.006 93.2827 21.006ZM97.1299 22L99.7199 18.584L97.2419 15.294H98.7819L100.532 17.632L102.324 15.294H103.724L101.246 18.57L103.822 22H102.282L100.42 19.522L98.5299 22H97.1299ZM109.553 24.744H108.321V15.294H109.553V16.498C110.057 15.672 110.855 15.126 111.905 15.126C113.725 15.126 115.153 16.624 115.153 18.654C115.153 20.642 113.781 22.168 111.905 22.168C110.855 22.168 110.057 21.664 109.553 20.838V24.744ZM111.751 21.006C113.011 21.006 113.921 19.97 113.921 18.654C113.921 17.352 113.011 16.288 111.751 16.288C110.477 16.288 109.553 17.352 109.553 18.654C109.553 19.97 110.477 21.006 111.751 21.006ZM116.907 22V15.294H118.139V16.246C118.475 15.546 119.049 15.126 119.833 15.126C120.253 15.126 120.617 15.224 120.855 15.42L120.337 16.582C120.113 16.428 119.791 16.316 119.469 16.316C118.657 16.316 118.139 17.016 118.139 18.136V22H116.907ZM124.634 22.168C122.59 22.168 121.12 20.586 121.12 18.64C121.12 16.694 122.534 15.126 124.438 15.126C126.314 15.126 127.742 16.624 127.742 18.514C127.742 18.682 127.728 18.934 127.7 19.032H122.394C122.548 20.194 123.43 21.062 124.676 21.062C125.432 21.062 126.104 20.768 126.552 20.32L127.21 21.174C126.664 21.762 125.712 22.168 124.634 22.168ZM124.452 16.19C123.402 16.19 122.646 16.946 122.422 18.01H126.44C126.216 16.848 125.46 16.19 124.452 16.19ZM131.156 22.168C130.162 22.168 129.266 21.902 128.58 21.496L129.056 20.474C129.812 20.866 130.47 21.09 131.24 21.09C132.178 21.09 132.626 20.726 132.626 20.194C132.626 18.668 128.818 19.592 128.818 17.002C128.818 16.008 129.714 15.126 131.338 15.126C132.248 15.126 132.962 15.35 133.69 15.7L133.2 16.722C132.724 16.456 132.038 16.218 131.394 16.218C130.568 16.218 130.078 16.498 130.078 16.988C130.078 18.528 133.858 17.618 133.858 20.166C133.858 21.314 132.864 22.168 131.156 22.168ZM137.391 22.168C136.397 22.168 135.501 21.902 134.815 21.496L135.291 20.474C136.047 20.866 136.705 21.09 137.475 21.09C138.413 21.09 138.861 20.726 138.861 20.194C138.861 18.668 135.053 19.592 135.053 17.002C135.053 16.008 135.949 15.126 137.573 15.126C138.483 15.126 139.197 15.35 139.925 15.7L139.435 16.722C138.959 16.456 138.273 16.218 137.629 16.218C136.803 16.218 136.313 16.498 136.313 16.988C136.313 18.528 140.093 17.618 140.093 20.166C140.093 21.314 139.099 22.168 137.391 22.168ZM144.759 22.168C142.715 22.168 141.245 20.586 141.245 18.64C141.245 16.694 142.659 15.126 144.563 15.126C146.439 15.126 147.867 16.624 147.867 18.514C147.867 18.682 147.853 18.934 147.825 19.032H142.519C142.673 20.194 143.555 21.062 144.801 21.062C145.557 21.062 146.229 20.768 146.677 20.32L147.335 21.174C146.789 21.762 145.837 22.168 144.759 22.168ZM144.577 16.19C143.527 16.19 142.771 16.946 142.547 18.01H146.565C146.341 16.848 145.585 16.19 144.577 16.19ZM152.232 22.168C150.412 22.168 148.984 20.67 148.984 18.64C148.984 16.652 150.356 15.126 152.232 15.126C153.282 15.126 154.08 15.63 154.584 16.456V12.368H155.83V22H154.584V20.796C154.08 21.622 153.282 22.168 152.232 22.168ZM152.414 21.006C153.674 21.006 154.584 19.942 154.584 18.64C154.584 17.324 153.674 16.288 152.414 16.288C151.14 16.288 150.23 17.324 150.23 18.64C150.23 19.942 151.14 21.006 152.414 21.006ZM163.121 22.168C162.127 22.168 161.231 21.902 160.545 21.496L161.021 20.474C161.777 20.866 162.435 21.09 163.205 21.09C164.143 21.09 164.591 20.726 164.591 20.194C164.591 18.668 160.783 19.592 160.783 17.002C160.783 16.008 161.679 15.126 163.303 15.126C164.213 15.126 164.927 15.35 165.655 15.7L165.165 16.722C164.689 16.456 164.003 16.218 163.359 16.218C162.533 16.218 162.043 16.498 162.043 16.988C162.043 18.528 165.823 17.618 165.823 20.166C165.823 21.314 164.829 22.168 163.121 22.168ZM166.71 16.4V15.294H167.816V13.628H169.062V15.294H170.966V16.4H169.076V19.942C169.076 20.656 169.398 21.006 170 21.006C170.336 21.006 170.672 20.88 170.868 20.656L171.442 21.594C171.12 21.902 170.574 22.168 169.832 22.168C168.572 22.168 167.816 21.426 167.816 19.984V16.4H166.71ZM175.159 22.168C173.339 22.168 171.911 20.67 171.911 18.64C171.911 16.652 173.283 15.126 175.159 15.126C176.209 15.126 177.007 15.63 177.511 16.456V15.294H178.757V22H177.511V20.796C177.007 21.622 176.209 22.168 175.159 22.168ZM175.341 21.006C176.601 21.006 177.511 19.942 177.511 18.64C177.511 17.324 176.601 16.288 175.341 16.288C174.067 16.288 173.157 17.324 173.157 18.64C173.157 19.942 174.067 21.006 175.341 21.006ZM180.231 16.4V15.294H181.337V13.628H182.583V15.294H184.487V16.4H182.597V19.942C182.597 20.656 182.919 21.006 183.521 21.006C183.857 21.006 184.193 20.88 184.389 20.656L184.963 21.594C184.641 21.902 184.095 22.168 183.353 22.168C182.093 22.168 181.337 21.426 181.337 19.984V16.4H180.231ZM188.947 22.168C186.903 22.168 185.433 20.586 185.433 18.64C185.433 16.694 186.847 15.126 188.751 15.126C190.627 15.126 192.055 16.624 192.055 18.514C192.055 18.682 192.041 18.934 192.013 19.032H186.707C186.861 20.194 187.743 21.062 188.989 21.062C189.745 21.062 190.417 20.768 190.865 20.32L191.523 21.174C190.977 21.762 190.025 22.168 188.947 22.168ZM188.765 16.19C187.715 16.19 186.959 16.946 186.735 18.01H190.753C190.529 16.848 189.773 16.19 188.765 16.19Z" fill="black"/>
<rect x="1" y="49" width="34" height="34" rx="11" stroke="black" stroke-width="2"/>
<rect x="6" y="54" width="24" height="24" rx="8" fill="#1355E9"/>
<path d="M16.5133 71L25 62.4911L23.5133 61L16.5133 68.0178L13.4867 64.9822L12 66.4734L16.5133 71Z" fill="white"/>
<path d="M50.47 61.978L49.63 62.958C49.028 62.454 48.272 62.104 47.264 62.104C45.472 62.104 44.03 63.63 44.03 65.52C44.03 67.396 45.472 68.922 47.376 68.922C48.244 68.922 49.07 68.628 49.644 68.096L50.47 69.02C49.644 69.832 48.622 70.168 47.292 70.168C44.688 70.168 42.686 68.082 42.686 65.52C42.686 62.944 44.73 60.858 47.25 60.858C48.678 60.858 49.686 61.264 50.47 61.978ZM51.911 70V60.368H53.143V64.316C53.521 63.574 54.235 63.126 55.173 63.126C56.741 63.126 57.763 64.204 57.763 65.898V70H56.531V66.094C56.531 64.988 55.887 64.288 54.837 64.288C53.787 64.288 53.143 64.988 53.143 66.094V70H51.911ZM62.9194 70.168C60.8754 70.168 59.4054 68.586 59.4054 66.64C59.4054 64.694 60.8194 63.126 62.7234 63.126C64.5994 63.126 66.0274 64.624 66.0274 66.514C66.0274 66.682 66.0134 66.934 65.9854 67.032H60.6794C60.8334 68.194 61.7154 69.062 62.9614 69.062C63.7174 69.062 64.3894 68.768 64.8374 68.32L65.4954 69.174C64.9494 69.762 63.9974 70.168 62.9194 70.168ZM62.7374 64.19C61.6874 64.19 60.9314 64.946 60.7074 66.01H64.7254C64.5014 64.848 63.7454 64.19 62.7374 64.19ZM72.4077 64.946C71.9457 64.526 71.3717 64.288 70.6297 64.288C69.2997 64.288 68.3897 65.324 68.3897 66.64C68.3897 67.942 69.3137 69.006 70.6157 69.006C71.3577 69.006 71.9877 68.768 72.4357 68.32L73.0797 69.23C72.5477 69.804 71.6097 70.168 70.5877 70.168C68.6277 70.168 67.1437 68.586 67.1437 66.64C67.1437 64.694 68.6417 63.126 70.6017 63.126C71.6657 63.126 72.5617 63.49 73.1217 64.064L72.4077 64.946ZM75.6879 70H74.4559V60.368H75.6879V66.22L78.8379 63.294H80.4059L77.0319 66.43L80.6439 70H79.0199L75.6879 66.682V70ZM84.1792 70.168C82.1352 70.168 80.6652 68.586 80.6652 66.64C80.6652 64.694 82.0792 63.126 83.9832 63.126C85.8592 63.126 87.2872 64.624 87.2872 66.514C87.2872 66.682 87.2732 66.934 87.2452 67.032H81.9392C82.0932 68.194 82.9752 69.062 84.2212 69.062C84.9772 69.062 85.6492 68.768 86.0972 68.32L86.7552 69.174C86.2092 69.762 85.2572 70.168 84.1792 70.168ZM83.9972 64.19C82.9472 64.19 82.1912 64.946 81.9672 66.01H85.9852C85.7612 64.848 85.0052 64.19 83.9972 64.19ZM91.6514 70.168C89.8314 70.168 88.4034 68.67 88.4034 66.64C88.4034 64.652 89.7754 63.126 91.6514 63.126C92.7014 63.126 93.4994 63.63 94.0034 64.456V60.368H95.2494V70H94.0034V68.796C93.4994 69.622 92.7014 70.168 91.6514 70.168ZM91.8334 69.006C93.0934 69.006 94.0034 67.942 94.0034 66.64C94.0034 65.324 93.0934 64.288 91.8334 64.288C90.5594 64.288 89.6494 65.324 89.6494 66.64C89.6494 67.942 90.5594 69.006 91.8334 69.006ZM103.409 70.168C101.589 70.168 100.161 68.67 100.161 66.64C100.161 64.652 101.533 63.126 103.409 63.126C104.459 63.126 105.257 63.63 105.761 64.456V63.294H107.007V70H105.761V68.796C105.257 69.622 104.459 70.168 103.409 70.168ZM103.591 69.006C104.851 69.006 105.761 67.942 105.761 66.64C105.761 65.324 104.851 64.288 103.591 64.288C102.317 64.288 101.407 65.324 101.407 66.64C101.407 67.942 102.317 69.006 103.591 69.006ZM109.237 70V63.294H110.469V64.316C110.847 63.574 111.561 63.126 112.499 63.126C114.067 63.126 115.089 64.204 115.089 65.898V70H113.857V66.094C113.857 64.988 113.213 64.288 112.163 64.288C111.113 64.288 110.469 64.988 110.469 66.094V70H109.237ZM119.98 70.168C118.16 70.168 116.732 68.67 116.732 66.64C116.732 64.652 118.104 63.126 119.98 63.126C121.03 63.126 121.828 63.63 122.332 64.456V60.368H123.578V70H122.332V68.796C121.828 69.622 121.03 70.168 119.98 70.168ZM120.162 69.006C121.422 69.006 122.332 67.942 122.332 66.64C122.332 65.324 121.422 64.288 120.162 64.288C118.888 64.288 117.978 65.324 117.978 66.64C117.978 67.942 118.888 69.006 120.162 69.006ZM131.737 70.168C129.917 70.168 128.489 68.67 128.489 66.64C128.489 64.652 129.861 63.126 131.737 63.126C132.787 63.126 133.585 63.63 134.089 64.456V63.294H135.335V70H134.089V68.796C133.585 69.622 132.787 70.168 131.737 70.168ZM131.919 69.006C133.179 69.006 134.089 67.942 134.089 66.64C134.089 65.324 133.179 64.288 131.919 64.288C130.645 64.288 129.735 65.324 129.735 66.64C129.735 67.942 130.645 69.006 131.919 69.006ZM142.339 64.946C141.877 64.526 141.303 64.288 140.561 64.288C139.231 64.288 138.321 65.324 138.321 66.64C138.321 67.942 139.245 69.006 140.547 69.006C141.289 69.006 141.919 68.768 142.367 68.32L143.011 69.23C142.479 69.804 141.541 70.168 140.519 70.168C138.559 70.168 137.075 68.586 137.075 66.64C137.075 64.694 138.573 63.126 140.533 63.126C141.597 63.126 142.493 63.49 143.053 64.064L142.339 64.946ZM143.632 64.4V63.294H144.738V61.628H145.984V63.294H147.888V64.4H145.998V67.942C145.998 68.656 146.32 69.006 146.922 69.006C147.258 69.006 147.594 68.88 147.79 68.656L148.364 69.594C148.042 69.902 147.496 70.168 146.754 70.168C145.494 70.168 144.738 69.426 144.738 67.984V64.4H143.632ZM150.308 62.132C149.874 62.132 149.538 61.782 149.538 61.362C149.538 60.942 149.874 60.592 150.308 60.592C150.728 60.592 151.078 60.942 151.078 61.362C151.078 61.782 150.728 62.132 150.308 62.132ZM150.924 70H149.692V63.294H150.924V70ZM156.399 70H154.789L152.255 63.294H153.627L155.629 68.88L157.659 63.294H158.933L156.399 70ZM163.025 70.168C160.981 70.168 159.511 68.586 159.511 66.64C159.511 64.694 160.925 63.126 162.829 63.126C164.705 63.126 166.133 64.624 166.133 66.514C166.133 66.682 166.119 66.934 166.091 67.032H160.785C160.939 68.194 161.821 69.062 163.067 69.062C163.823 69.062 164.495 68.768 164.943 68.32L165.601 69.174C165.055 69.762 164.103 70.168 163.025 70.168ZM162.843 64.19C161.793 64.19 161.037 64.946 160.813 66.01H164.831C164.607 64.848 163.851 64.19 162.843 64.19ZM172.143 72.744H170.911V63.294H172.143V64.498C172.647 63.672 173.445 63.126 174.495 63.126C176.315 63.126 177.743 64.624 177.743 66.654C177.743 68.642 176.371 70.168 174.495 70.168C173.445 70.168 172.647 69.664 172.143 68.838V72.744ZM174.341 69.006C175.601 69.006 176.511 67.97 176.511 66.654C176.511 65.352 175.601 64.288 174.341 64.288C173.067 64.288 172.143 65.352 172.143 66.654C172.143 67.97 173.067 69.006 174.341 69.006ZM179.497 70V63.294H180.729V64.246C181.065 63.546 181.639 63.126 182.423 63.126C182.843 63.126 183.207 63.224 183.445 63.42L182.927 64.582C182.703 64.428 182.381 64.316 182.059 64.316C181.247 64.316 180.729 65.016 180.729 66.136V70H179.497ZM187.224 70.168C185.18 70.168 183.71 68.586 183.71 66.64C183.71 64.694 185.124 63.126 187.028 63.126C188.904 63.126 190.332 64.624 190.332 66.514C190.332 66.682 190.318 66.934 190.29 67.032H184.984C185.138 68.194 186.02 69.062 187.266 69.062C188.022 69.062 188.694 68.768 189.142 68.32L189.8 69.174C189.254 69.762 188.302 70.168 187.224 70.168ZM187.042 64.19C185.992 64.19 185.236 64.946 185.012 66.01H189.03C188.806 64.848 188.05 64.19 187.042 64.19ZM193.746 70.168C192.752 70.168 191.856 69.902 191.17 69.496L191.646 68.474C192.402 68.866 193.06 69.09 193.83 69.09C194.768 69.09 195.216 68.726 195.216 68.194C195.216 66.668 191.408 67.592 191.408 65.002C191.408 64.008 192.304 63.126 193.928 63.126C194.838 63.126 195.552 63.35 196.28 63.7L195.79 64.722C195.314 64.456 194.628 64.218 193.984 64.218C193.158 64.218 192.668 64.498 192.668 64.988C192.668 66.528 196.448 65.618 196.448 68.166C196.448 69.314 195.454 70.168 193.746 70.168ZM199.981 70.168C198.987 70.168 198.091 69.902 197.405 69.496L197.881 68.474C198.637 68.866 199.295 69.09 200.065 69.09C201.003 69.09 201.451 68.726 201.451 68.194C201.451 66.668 197.643 67.592 197.643 65.002C197.643 64.008 198.539 63.126 200.163 63.126C201.073 63.126 201.787 63.35 202.515 63.7L202.025 64.722C201.549 64.456 200.863 64.218 200.219 64.218C199.393 64.218 198.903 64.498 198.903 64.988C198.903 66.528 202.683 65.618 202.683 68.166C202.683 69.314 201.689 70.168 199.981 70.168Z" fill="black"/>
<rect x="1" y="97" width="34" height="34" rx="11" stroke="black" stroke-width="2"/>
<rect x="6" y="102" width="24" height="24" rx="8" fill="#1355E9"/>
<rect x="12" y="113" width="12" height="2" fill="white"/>
<path d="M43.19 118V109.026H44.45V118H43.19ZM46.7567 118V111.294H47.9887V112.316C48.3667 111.574 49.0807 111.126 50.0187 111.126C51.5867 111.126 52.6087 112.204 52.6087 113.898V118H51.3767V114.094C51.3767 112.988 50.7327 112.288 49.6827 112.288C48.6327 112.288 47.9887 112.988 47.9887 114.094V118H46.7567ZM57.4991 118.168C55.6791 118.168 54.2511 116.67 54.2511 114.64C54.2511 112.652 55.6231 111.126 57.4991 111.126C58.5491 111.126 59.3471 111.63 59.8511 112.456V108.368H61.0971V118H59.8511V116.796C59.3471 117.622 58.5491 118.168 57.4991 118.168ZM57.6811 117.006C58.9411 117.006 59.8511 115.942 59.8511 114.64C59.8511 113.324 58.9411 112.288 57.6811 112.288C56.4071 112.288 55.4971 113.324 55.4971 114.64C55.4971 115.942 56.4071 117.006 57.6811 117.006ZM66.351 118.168C64.307 118.168 62.837 116.586 62.837 114.64C62.837 112.694 64.251 111.126 66.155 111.126C68.031 111.126 69.459 112.624 69.459 114.514C69.459 114.682 69.445 114.934 69.417 115.032H64.111C64.265 116.194 65.147 117.062 66.393 117.062C67.149 117.062 67.821 116.768 68.269 116.32L68.927 117.174C68.381 117.762 67.429 118.168 66.351 118.168ZM66.169 112.19C65.119 112.19 64.363 112.946 64.139 114.01H68.157C67.933 112.848 67.177 112.19 66.169 112.19ZM70.3093 112.4V111.294H71.4153V109.628H72.6613V111.294H74.5653V112.4H72.6753V115.942C72.6753 116.656 72.9973 117.006 73.5993 117.006C73.9353 117.006 74.2713 116.88 74.4673 116.656L75.0413 117.594C74.7193 117.902 74.1733 118.168 73.4313 118.168C72.1713 118.168 71.4153 117.426 71.4153 115.984V112.4H70.3093ZM79.0249 118.168C76.9809 118.168 75.5109 116.586 75.5109 114.64C75.5109 112.694 76.9249 111.126 78.8289 111.126C80.7049 111.126 82.1329 112.624 82.1329 114.514C82.1329 114.682 82.1189 114.934 82.0909 115.032H76.7849C76.9389 116.194 77.8209 117.062 79.0669 117.062C79.8229 117.062 80.4949 116.768 80.9429 116.32L81.6009 117.174C81.0549 117.762 80.1029 118.168 79.0249 118.168ZM78.8429 112.19C77.7929 112.19 77.0369 112.946 76.8129 114.01H80.8309C80.6069 112.848 79.8509 112.19 78.8429 112.19ZM83.7391 118V111.294H84.9711V112.246C85.3071 111.546 85.8811 111.126 86.6651 111.126C87.0851 111.126 87.4491 111.224 87.6871 111.42L87.1691 112.582C86.9451 112.428 86.6231 112.316 86.3011 112.316C85.4891 112.316 84.9711 113.016 84.9711 114.136V118H83.7391ZM90.2348 118H89.0028V111.294H90.2348V112.358C90.5988 111.602 91.2988 111.126 92.2088 111.126C93.2868 111.126 94.0988 111.672 94.4768 112.61C94.7988 111.742 95.5268 111.126 96.6048 111.126C98.1588 111.126 99.1668 112.176 99.1668 113.898V118H97.9208V114.094C97.9208 112.988 97.3188 112.288 96.3108 112.288C95.3168 112.288 94.7008 112.988 94.7008 114.094V118H93.4548V114.094C93.4548 112.988 92.8528 112.288 91.8588 112.288C90.8508 112.288 90.2348 112.988 90.2348 114.094V118ZM101.896 110.132C101.462 110.132 101.126 109.782 101.126 109.362C101.126 108.942 101.462 108.592 101.896 108.592C102.316 108.592 102.666 108.942 102.666 109.362C102.666 109.782 102.316 110.132 101.896 110.132ZM102.512 118H101.28V111.294H102.512V118ZM104.753 118V111.294H105.985V112.316C106.363 111.574 107.077 111.126 108.015 111.126C109.583 111.126 110.605 112.204 110.605 113.898V118H109.373V114.094C109.373 112.988 108.729 112.288 107.679 112.288C106.629 112.288 105.985 112.988 105.985 114.094V118H104.753ZM115.495 118.168C113.675 118.168 112.247 116.67 112.247 114.64C112.247 112.652 113.619 111.126 115.495 111.126C116.545 111.126 117.343 111.63 117.847 112.456V111.294H119.093V118H117.847V116.796C117.343 117.622 116.545 118.168 115.495 118.168ZM115.677 117.006C116.937 117.006 117.847 115.942 117.847 114.64C117.847 113.324 116.937 112.288 115.677 112.288C114.403 112.288 113.493 113.324 113.493 114.64C113.493 115.942 114.403 117.006 115.677 117.006ZM120.567 112.4V111.294H121.673V109.628H122.919V111.294H124.823V112.4H122.933V115.942C122.933 116.656 123.255 117.006 123.857 117.006C124.193 117.006 124.529 116.88 124.725 116.656L125.299 117.594C124.977 117.902 124.431 118.168 123.689 118.168C122.429 118.168 121.673 117.426 121.673 115.984V112.4H120.567ZM129.283 118.168C127.239 118.168 125.769 116.586 125.769 114.64C125.769 112.694 127.183 111.126 129.087 111.126C130.963 111.126 132.391 112.624 132.391 114.514C132.391 114.682 132.377 114.934 132.349 115.032H127.043C127.197 116.194 128.079 117.062 129.325 117.062C130.081 117.062 130.753 116.768 131.201 116.32L131.859 117.174C131.313 117.762 130.361 118.168 129.283 118.168ZM129.101 112.19C128.051 112.19 127.295 112.946 127.071 114.01H131.089C130.865 112.848 130.109 112.19 129.101 112.19ZM139.927 118.168C138.107 118.168 136.679 116.67 136.679 114.64C136.679 112.652 138.051 111.126 139.927 111.126C140.977 111.126 141.775 111.63 142.279 112.456V111.294H143.525V118H142.279V116.796C141.775 117.622 140.977 118.168 139.927 118.168ZM140.109 117.006C141.369 117.006 142.279 115.942 142.279 114.64C142.279 113.324 141.369 112.288 140.109 112.288C138.835 112.288 137.925 113.324 137.925 114.64C137.925 115.942 138.835 117.006 140.109 117.006ZM145.755 118V111.294H146.987V112.316C147.365 111.574 148.079 111.126 149.017 111.126C150.585 111.126 151.607 112.204 151.607 113.898V118H150.375V114.094C150.375 112.988 149.731 112.288 148.681 112.288C147.631 112.288 146.987 112.988 146.987 114.094V118H145.755ZM156.497 118.168C154.677 118.168 153.249 116.67 153.249 114.64C153.249 112.652 154.621 111.126 156.497 111.126C157.547 111.126 158.345 111.63 158.849 112.456V108.368H160.095V118H158.849V116.796C158.345 117.622 157.547 118.168 156.497 118.168ZM156.679 117.006C157.939 117.006 158.849 115.942 158.849 114.64C158.849 113.324 157.939 112.288 156.679 112.288C155.405 112.288 154.495 113.324 154.495 114.64C154.495 115.942 155.405 117.006 156.679 117.006ZM168.255 118.168C166.435 118.168 165.007 116.67 165.007 114.64C165.007 112.652 166.379 111.126 168.255 111.126C169.305 111.126 170.103 111.63 170.607 112.456V111.294H171.853V118H170.607V116.796C170.103 117.622 169.305 118.168 168.255 118.168ZM168.437 117.006C169.697 117.006 170.607 115.942 170.607 114.64C170.607 113.324 169.697 112.288 168.437 112.288C167.163 112.288 166.253 113.324 166.253 114.64C166.253 115.942 167.163 117.006 168.437 117.006ZM178.857 112.946C178.395 112.526 177.821 112.288 177.079 112.288C175.749 112.288 174.839 113.324 174.839 114.64C174.839 115.942 175.763 117.006 177.065 117.006C177.807 117.006 178.437 116.768 178.885 116.32L179.529 117.23C178.997 117.804 178.059 118.168 177.037 118.168C175.077 118.168 173.593 116.586 173.593 114.64C173.593 112.694 175.091 111.126 177.051 111.126C178.115 111.126 179.011 111.49 179.571 112.064L178.857 112.946ZM180.149 112.4V111.294H181.255V109.628H182.501V111.294H184.405V112.4H182.515V115.942C182.515 116.656 182.837 117.006 183.439 117.006C183.775 117.006 184.111 116.88 184.307 116.656L184.881 117.594C184.559 117.902 184.013 118.168 183.271 118.168C182.011 118.168 181.255 117.426 181.255 115.984V112.4H180.149ZM186.826 110.132C186.392 110.132 186.056 109.782 186.056 109.362C186.056 108.942 186.392 108.592 186.826 108.592C187.246 108.592 187.596 108.942 187.596 109.362C187.596 109.782 187.246 110.132 186.826 110.132ZM187.442 118H186.21V111.294H187.442V118ZM192.917 118H191.307L188.773 111.294H190.145L192.147 116.88L194.177 111.294H195.451L192.917 118ZM199.542 118.168C197.498 118.168 196.028 116.586 196.028 114.64C196.028 112.694 197.442 111.126 199.346 111.126C201.222 111.126 202.65 112.624 202.65 114.514C202.65 114.682 202.636 114.934 202.608 115.032H197.302C197.456 116.194 198.338 117.062 199.584 117.062C200.34 117.062 201.012 116.768 201.46 116.32L202.118 117.174C201.572 117.762 200.62 118.168 199.542 118.168ZM199.36 112.19C198.31 112.19 197.554 112.946 197.33 114.01H201.348C201.124 112.848 200.368 112.19 199.36 112.19ZM208.661 120.744H207.429V111.294H208.661V112.498C209.165 111.672 209.963 111.126 211.013 111.126C212.833 111.126 214.261 112.624 214.261 114.654C214.261 116.642 212.889 118.168 211.013 118.168C209.963 118.168 209.165 117.664 208.661 116.838V120.744ZM210.859 117.006C212.119 117.006 213.029 115.97 213.029 114.654C213.029 113.352 212.119 112.288 210.859 112.288C209.585 112.288 208.661 113.352 208.661 114.654C208.661 115.97 209.585 117.006 210.859 117.006ZM216.015 118V111.294H217.247V112.246C217.583 111.546 218.157 111.126 218.941 111.126C219.361 111.126 219.725 111.224 219.963 111.42L219.445 112.582C219.221 112.428 218.899 112.316 218.577 112.316C217.765 112.316 217.247 113.016 217.247 114.136V118H216.015ZM223.742 118.168C221.698 118.168 220.228 116.586 220.228 114.64C220.228 112.694 221.642 111.126 223.546 111.126C225.422 111.126 226.85 112.624 226.85 114.514C226.85 114.682 226.836 114.934 226.808 115.032H221.502C221.656 116.194 222.538 117.062 223.784 117.062C224.54 117.062 225.212 116.768 225.66 116.32L226.318 117.174C225.772 117.762 224.82 118.168 223.742 118.168ZM223.56 112.19C222.51 112.19 221.754 112.946 221.53 114.01H225.548C225.324 112.848 224.568 112.19 223.56 112.19ZM230.264 118.168C229.27 118.168 228.374 117.902 227.688 117.496L228.164 116.474C228.92 116.866 229.578 117.09 230.348 117.09C231.286 117.09 231.734 116.726 231.734 116.194C231.734 114.668 227.926 115.592 227.926 113.002C227.926 112.008 228.822 111.126 230.446 111.126C231.356 111.126 232.07 111.35 232.798 111.7L232.308 112.722C231.832 112.456 231.146 112.218 230.502 112.218C229.676 112.218 229.186 112.498 229.186 112.988C229.186 114.528 232.966 113.618 232.966 116.166C232.966 117.314 231.972 118.168 230.264 118.168ZM236.498 118.168C235.504 118.168 234.608 117.902 233.922 117.496L234.398 116.474C235.154 116.866 235.812 117.09 236.582 117.09C237.52 117.09 237.968 116.726 237.968 116.194C237.968 114.668 234.16 115.592 234.16 113.002C234.16 112.008 235.056 111.126 236.68 111.126C237.59 111.126 238.304 111.35 239.032 111.7L238.542 112.722C238.066 112.456 237.38 112.218 236.736 112.218C235.91 112.218 235.42 112.498 235.42 112.988C235.42 114.528 239.2 113.618 239.2 116.166C239.2 117.314 238.206 118.168 236.498 118.168Z" fill="black"/>
</svg>
