<svg width="233" height="60" viewBox="0 0 233 60" fill="none" xmlns="http://www.w3.org/2000/svg">
<rect width="24" height="24" rx="8" fill="#1355E9"/>
<path d="M10.5133 17L19 8.49112L17.5133 7L10.5133 14.0178L7.48673 10.9822L6 12.4734L10.5133 17Z" fill="white"/>
<path d="M44.47 7.978L43.63 8.958C43.028 8.454 42.272 8.104 41.264 8.104C39.472 8.104 38.03 9.63 38.03 11.52C38.03 13.396 39.472 14.922 41.376 14.922C42.244 14.922 43.07 14.628 43.644 14.096L44.47 15.02C43.644 15.832 42.622 16.168 41.292 16.168C38.688 16.168 36.686 14.082 36.686 11.52C36.686 8.944 38.73 6.858 41.25 6.858C42.678 6.858 43.686 7.264 44.47 7.978ZM45.911 16V6.368H47.143V10.316C47.521 9.574 48.235 9.126 49.173 9.126C50.741 9.126 51.763 10.204 51.763 11.898V16H50.531V12.094C50.531 10.988 49.887 10.288 48.837 10.288C47.787 10.288 47.143 10.988 47.143 12.094V16H45.911ZM56.9194 16.168C54.8754 16.168 53.4054 14.586 53.4054 12.64C53.4054 10.694 54.8194 9.126 56.7234 9.126C58.5994 9.126 60.0274 10.624 60.0274 12.514C60.0274 12.682 60.0134 12.934 59.9854 13.032H54.6794C54.8334 14.194 55.7154 15.062 56.9614 15.062C57.7174 15.062 58.3894 14.768 58.8374 14.32L59.4954 15.174C58.9494 15.762 57.9974 16.168 56.9194 16.168ZM56.7374 10.19C55.6874 10.19 54.9314 10.946 54.7074 12.01H58.7254C58.5014 10.848 57.7454 10.19 56.7374 10.19ZM66.4077 10.946C65.9457 10.526 65.3717 10.288 64.6297 10.288C63.2997 10.288 62.3897 11.324 62.3897 12.64C62.3897 13.942 63.3137 15.006 64.6157 15.006C65.3577 15.006 65.9877 14.768 66.4357 14.32L67.0797 15.23C66.5477 15.804 65.6097 16.168 64.5877 16.168C62.6277 16.168 61.1437 14.586 61.1437 12.64C61.1437 10.694 62.6417 9.126 64.6017 9.126C65.6657 9.126 66.5617 9.49 67.1217 10.064L66.4077 10.946ZM69.6879 16H68.4559V6.368H69.6879V12.22L72.8379 9.294H74.4059L71.0319 12.43L74.6439 16H73.0199L69.6879 12.682V16ZM78.1792 16.168C76.1352 16.168 74.6652 14.586 74.6652 12.64C74.6652 10.694 76.0792 9.126 77.9832 9.126C79.8592 9.126 81.2872 10.624 81.2872 12.514C81.2872 12.682 81.2732 12.934 81.2452 13.032H75.9392C76.0932 14.194 76.9752 15.062 78.2212 15.062C78.9772 15.062 79.6492 14.768 80.0972 14.32L80.7552 15.174C80.2092 15.762 79.2572 16.168 78.1792 16.168ZM77.9972 10.19C76.9472 10.19 76.1912 10.946 75.9672 12.01H79.9852C79.7612 10.848 79.0052 10.19 77.9972 10.19ZM85.6514 16.168C83.8314 16.168 82.4034 14.67 82.4034 12.64C82.4034 10.652 83.7754 9.126 85.6514 9.126C86.7014 9.126 87.4994 9.63 88.0034 10.456V6.368H89.2494V16H88.0034V14.796C87.4994 15.622 86.7014 16.168 85.6514 16.168ZM85.8334 15.006C87.0934 15.006 88.0034 13.942 88.0034 12.64C88.0034 11.324 87.0934 10.288 85.8334 10.288C84.5594 10.288 83.6494 11.324 83.6494 12.64C83.6494 13.942 84.5594 15.006 85.8334 15.006Z" fill="black"/>
<rect y="36" width="24" height="24" rx="8" fill="#1355E9"/>
<rect x="6" y="47" width="12" height="2" fill="white"/>
<path d="M37.19 52V43.026H38.45V52H37.19ZM40.7567 52V45.294H41.9887V46.316C42.3667 45.574 43.0807 45.126 44.0187 45.126C45.5867 45.126 46.6087 46.204 46.6087 47.898V52H45.3767V48.094C45.3767 46.988 44.7327 46.288 43.6827 46.288C42.6327 46.288 41.9887 46.988 41.9887 48.094V52H40.7567ZM51.4991 52.168C49.6791 52.168 48.2511 50.67 48.2511 48.64C48.2511 46.652 49.6231 45.126 51.4991 45.126C52.5491 45.126 53.3471 45.63 53.8511 46.456V42.368H55.0971V52H53.8511V50.796C53.3471 51.622 52.5491 52.168 51.4991 52.168ZM51.6811 51.006C52.9411 51.006 53.8511 49.942 53.8511 48.64C53.8511 47.324 52.9411 46.288 51.6811 46.288C50.4071 46.288 49.4971 47.324 49.4971 48.64C49.4971 49.942 50.4071 51.006 51.6811 51.006ZM60.351 52.168C58.307 52.168 56.837 50.586 56.837 48.64C56.837 46.694 58.251 45.126 60.155 45.126C62.031 45.126 63.459 46.624 63.459 48.514C63.459 48.682 63.445 48.934 63.417 49.032H58.111C58.265 50.194 59.147 51.062 60.393 51.062C61.149 51.062 61.821 50.768 62.269 50.32L62.927 51.174C62.381 51.762 61.429 52.168 60.351 52.168ZM60.169 46.19C59.119 46.19 58.363 46.946 58.139 48.01H62.157C61.933 46.848 61.177 46.19 60.169 46.19ZM64.3093 46.4V45.294H65.4153V43.628H66.6613V45.294H68.5653V46.4H66.6753V49.942C66.6753 50.656 66.9973 51.006 67.5993 51.006C67.9353 51.006 68.2713 50.88 68.4673 50.656L69.0413 51.594C68.7193 51.902 68.1733 52.168 67.4313 52.168C66.1713 52.168 65.4153 51.426 65.4153 49.984V46.4H64.3093ZM73.0249 52.168C70.9809 52.168 69.5109 50.586 69.5109 48.64C69.5109 46.694 70.9249 45.126 72.8289 45.126C74.7049 45.126 76.1329 46.624 76.1329 48.514C76.1329 48.682 76.1189 48.934 76.0909 49.032H70.7849C70.9389 50.194 71.8209 51.062 73.0669 51.062C73.8229 51.062 74.4949 50.768 74.9429 50.32L75.6009 51.174C75.0549 51.762 74.1029 52.168 73.0249 52.168ZM72.8429 46.19C71.7929 46.19 71.0369 46.946 70.8129 48.01H74.8309C74.6069 46.848 73.8509 46.19 72.8429 46.19ZM77.7391 52V45.294H78.9711V46.246C79.3071 45.546 79.8811 45.126 80.6651 45.126C81.0851 45.126 81.4491 45.224 81.6871 45.42L81.1691 46.582C80.9451 46.428 80.6231 46.316 80.3011 46.316C79.4891 46.316 78.9711 47.016 78.9711 48.136V52H77.7391ZM84.2348 52H83.0028V45.294H84.2348V46.358C84.5988 45.602 85.2988 45.126 86.2088 45.126C87.2868 45.126 88.0988 45.672 88.4768 46.61C88.7988 45.742 89.5268 45.126 90.6048 45.126C92.1588 45.126 93.1668 46.176 93.1668 47.898V52H91.9208V48.094C91.9208 46.988 91.3188 46.288 90.3108 46.288C89.3168 46.288 88.7008 46.988 88.7008 48.094V52H87.4548V48.094C87.4548 46.988 86.8528 46.288 85.8588 46.288C84.8508 46.288 84.2348 46.988 84.2348 48.094V52ZM95.8962 44.132C95.4622 44.132 95.1262 43.782 95.1262 43.362C95.1262 42.942 95.4622 42.592 95.8962 42.592C96.3162 42.592 96.6662 42.942 96.6662 43.362C96.6662 43.782 96.3162 44.132 95.8962 44.132ZM96.5122 52H95.2802V45.294H96.5122V52ZM98.7528 52V45.294H99.9848V46.316C100.363 45.574 101.077 45.126 102.015 45.126C103.583 45.126 104.605 46.204 104.605 47.898V52H103.373V48.094C103.373 46.988 102.729 46.288 101.679 46.288C100.629 46.288 99.9848 46.988 99.9848 48.094V52H98.7528ZM109.495 52.168C107.675 52.168 106.247 50.67 106.247 48.64C106.247 46.652 107.619 45.126 109.495 45.126C110.545 45.126 111.343 45.63 111.847 46.456V45.294H113.093V52H111.847V50.796C111.343 51.622 110.545 52.168 109.495 52.168ZM109.677 51.006C110.937 51.006 111.847 49.942 111.847 48.64C111.847 47.324 110.937 46.288 109.677 46.288C108.403 46.288 107.493 47.324 107.493 48.64C107.493 49.942 108.403 51.006 109.677 51.006ZM114.567 46.4V45.294H115.673V43.628H116.919V45.294H118.823V46.4H116.933V49.942C116.933 50.656 117.255 51.006 117.857 51.006C118.193 51.006 118.529 50.88 118.725 50.656L119.299 51.594C118.977 51.902 118.431 52.168 117.689 52.168C116.429 52.168 115.673 51.426 115.673 49.984V46.4H114.567ZM123.283 52.168C121.239 52.168 119.769 50.586 119.769 48.64C119.769 46.694 121.183 45.126 123.087 45.126C124.963 45.126 126.391 46.624 126.391 48.514C126.391 48.682 126.377 48.934 126.349 49.032H121.043C121.197 50.194 122.079 51.062 123.325 51.062C124.081 51.062 124.753 50.768 125.201 50.32L125.859 51.174C125.313 51.762 124.361 52.168 123.283 52.168ZM123.101 46.19C122.051 46.19 121.295 46.946 121.071 48.01H125.089C124.865 46.848 124.109 46.19 123.101 46.19ZM131.785 44.132C131.351 44.132 131.015 43.782 131.015 43.362C131.015 42.942 131.351 42.592 131.785 42.592C132.205 42.592 132.555 42.942 132.555 43.362C132.555 43.782 132.205 44.132 131.785 44.132ZM132.401 52H131.169V45.294H132.401V52ZM134.641 52V45.294H135.873V46.316C136.251 45.574 136.965 45.126 137.903 45.126C139.471 45.126 140.493 46.204 140.493 47.898V52H139.261V48.094C139.261 46.988 138.617 46.288 137.567 46.288C136.517 46.288 135.873 46.988 135.873 48.094V52H134.641ZM150.572 46.946C150.11 46.526 149.536 46.288 148.794 46.288C147.464 46.288 146.554 47.324 146.554 48.64C146.554 49.942 147.478 51.006 148.78 51.006C149.522 51.006 150.152 50.768 150.6 50.32L151.244 51.23C150.712 51.804 149.774 52.168 148.752 52.168C146.792 52.168 145.308 50.586 145.308 48.64C145.308 46.694 146.806 45.126 148.766 45.126C149.83 45.126 150.726 45.49 151.286 46.064L150.572 46.946ZM152.62 52V42.368H153.852V46.316C154.23 45.574 154.944 45.126 155.882 45.126C157.45 45.126 158.472 46.204 158.472 47.898V52H157.24V48.094C157.24 46.988 156.596 46.288 155.546 46.288C154.496 46.288 153.852 46.988 153.852 48.094V52H152.62ZM163.628 52.168C161.584 52.168 160.114 50.586 160.114 48.64C160.114 46.694 161.528 45.126 163.432 45.126C165.308 45.126 166.736 46.624 166.736 48.514C166.736 48.682 166.722 48.934 166.694 49.032H161.388C161.542 50.194 162.424 51.062 163.67 51.062C164.426 51.062 165.098 50.768 165.546 50.32L166.204 51.174C165.658 51.762 164.706 52.168 163.628 52.168ZM163.446 46.19C162.396 46.19 161.64 46.946 161.416 48.01H165.434C165.21 46.848 164.454 46.19 163.446 46.19ZM173.117 46.946C172.655 46.526 172.081 46.288 171.339 46.288C170.009 46.288 169.099 47.324 169.099 48.64C169.099 49.942 170.023 51.006 171.325 51.006C172.067 51.006 172.697 50.768 173.145 50.32L173.789 51.23C173.257 51.804 172.319 52.168 171.297 52.168C169.337 52.168 167.853 50.586 167.853 48.64C167.853 46.694 169.351 45.126 171.311 45.126C172.375 45.126 173.271 45.49 173.831 46.064L173.117 46.946ZM176.397 52H175.165V42.368H176.397V48.22L179.547 45.294H181.115L177.741 48.43L181.353 52H179.729L176.397 48.682V52ZM184.888 52.168C182.844 52.168 181.374 50.586 181.374 48.64C181.374 46.694 182.788 45.126 184.692 45.126C186.568 45.126 187.996 46.624 187.996 48.514C187.996 48.682 187.982 48.934 187.954 49.032H182.648C182.802 50.194 183.684 51.062 184.93 51.062C185.686 51.062 186.358 50.768 186.806 50.32L187.464 51.174C186.918 51.762 185.966 52.168 184.888 52.168ZM184.706 46.19C183.656 46.19 182.9 46.946 182.676 48.01H186.694C186.47 46.848 185.714 46.19 184.706 46.19ZM192.36 52.168C190.54 52.168 189.112 50.67 189.112 48.64C189.112 46.652 190.484 45.126 192.36 45.126C193.41 45.126 194.208 45.63 194.712 46.456V42.368H195.958V52H194.712V50.796C194.208 51.622 193.41 52.168 192.36 52.168ZM192.542 51.006C193.802 51.006 194.712 49.942 194.712 48.64C194.712 47.324 193.802 46.288 192.542 46.288C191.268 46.288 190.358 47.324 190.358 48.64C190.358 49.942 191.268 51.006 192.542 51.006ZM203.25 52.168C202.256 52.168 201.36 51.902 200.674 51.496L201.15 50.474C201.906 50.866 202.564 51.09 203.334 51.09C204.272 51.09 204.72 50.726 204.72 50.194C204.72 48.668 200.912 49.592 200.912 47.002C200.912 46.008 201.808 45.126 203.432 45.126C204.342 45.126 205.056 45.35 205.784 45.7L205.294 46.722C204.818 46.456 204.132 46.218 203.488 46.218C202.662 46.218 202.172 46.498 202.172 46.988C202.172 48.528 205.952 47.618 205.952 50.166C205.952 51.314 204.958 52.168 203.25 52.168ZM206.839 46.4V45.294H207.945V43.628H209.191V45.294H211.095V46.4H209.205V49.942C209.205 50.656 209.527 51.006 210.129 51.006C210.465 51.006 210.801 50.88 210.997 50.656L211.571 51.594C211.249 51.902 210.703 52.168 209.961 52.168C208.701 52.168 207.945 51.426 207.945 49.984V46.4H206.839ZM215.288 52.168C213.468 52.168 212.04 50.67 212.04 48.64C212.04 46.652 213.412 45.126 215.288 45.126C216.338 45.126 217.136 45.63 217.64 46.456V45.294H218.886V52H217.64V50.796C217.136 51.622 216.338 52.168 215.288 52.168ZM215.47 51.006C216.73 51.006 217.64 49.942 217.64 48.64C217.64 47.324 216.73 46.288 215.47 46.288C214.196 46.288 213.286 47.324 213.286 48.64C213.286 49.942 214.196 51.006 215.47 51.006ZM220.36 46.4V45.294H221.466V43.628H222.712V45.294H224.616V46.4H222.726V49.942C222.726 50.656 223.048 51.006 223.65 51.006C223.986 51.006 224.322 50.88 224.518 50.656L225.092 51.594C224.77 51.902 224.224 52.168 223.482 52.168C222.222 52.168 221.466 51.426 221.466 49.984V46.4H220.36ZM229.076 52.168C227.032 52.168 225.562 50.586 225.562 48.64C225.562 46.694 226.976 45.126 228.88 45.126C230.756 45.126 232.184 46.624 232.184 48.514C232.184 48.682 232.17 48.934 232.142 49.032H226.836C226.99 50.194 227.872 51.062 229.118 51.062C229.874 51.062 230.546 50.768 230.994 50.32L231.652 51.174C231.106 51.762 230.154 52.168 229.076 52.168ZM228.894 46.19C227.844 46.19 227.088 46.946 226.864 48.01H230.882C230.658 46.848 229.902 46.19 228.894 46.19Z" fill="black"/>
</svg>
