<svg width="149" height="24" viewBox="0 0 149 24" fill="none" xmlns="http://www.w3.org/2000/svg">
<rect x="1" y="1" width="22" height="22" rx="7" fill="white"/>
<rect x="1" y="1" width="22" height="22" rx="7" stroke="#5D5D5D" stroke-width="2"/>
<path d="M37.19 16V7.04H39.934C42.916 7.04 44.988 8.874 44.988 11.52C44.988 14.166 42.972 16 40.06 16H37.19ZM39.962 8.23H38.478V14.81H39.962C42.188 14.81 43.644 13.508 43.644 11.52C43.644 9.532 42.188 8.23 39.962 8.23ZM49.8237 16.168C47.7797 16.168 46.3097 14.586 46.3097 12.64C46.3097 10.694 47.7237 9.126 49.6277 9.126C51.5037 9.126 52.9317 10.624 52.9317 12.514C52.9317 12.682 52.9177 12.934 52.8897 13.032H47.5837C47.7377 14.194 48.6197 15.062 49.8657 15.062C50.6217 15.062 51.2937 14.768 51.7417 14.32L52.3997 15.174C51.8537 15.762 50.9017 16.168 49.8237 16.168ZM49.6417 10.19C48.5917 10.19 47.8357 10.946 47.6117 12.01H51.6297C51.4057 10.848 50.6497 10.19 49.6417 10.19ZM53.838 10.4V9.294H54.888V8.524C54.888 7.04 55.742 6.2 57.03 6.2C57.814 6.2 58.346 6.438 58.724 6.844L58.08 7.754C57.87 7.53 57.506 7.362 57.128 7.362C56.498 7.362 56.134 7.782 56.134 8.538V9.294H57.912V10.4H56.134V16H54.888V10.4H53.838ZM61.6573 16.168C59.8373 16.168 58.4093 14.67 58.4093 12.64C58.4093 10.652 59.7813 9.126 61.6573 9.126C62.7073 9.126 63.5053 9.63 64.0093 10.456V9.294H65.2553V16H64.0093V14.796C63.5053 15.622 62.7073 16.168 61.6573 16.168ZM61.8393 15.006C63.0993 15.006 64.0093 13.942 64.0093 12.64C64.0093 11.324 63.0993 10.288 61.8393 10.288C60.5653 10.288 59.6553 11.324 59.6553 12.64C59.6553 13.942 60.5653 15.006 61.8393 15.006ZM68.6192 9.294V13.004C68.6192 14.18 69.3052 14.964 70.3412 14.964C71.3912 14.964 72.0912 14.18 72.0912 13.004V9.294H73.3372V13.102C73.3372 14.922 72.1472 16.126 70.3412 16.126C68.5492 16.126 67.3732 14.922 67.3732 13.102V9.294H68.6192ZM77.6536 14.922L77.7936 16.014C77.5836 16.084 77.3176 16.14 77.1076 16.14C76.2676 16.14 75.4696 15.58 75.4696 14.18V6.368H76.7016V14.194C76.7016 14.782 77.0236 14.992 77.3456 14.992C77.4436 14.992 77.5556 14.964 77.6536 14.922ZM78.6921 10.4V9.294H79.7981V7.628H81.0441V9.294H82.9481V10.4H81.0581V13.942C81.0581 14.656 81.3801 15.006 81.9821 15.006C82.3181 15.006 82.6541 14.88 82.8501 14.656L83.4241 15.594C83.1021 15.902 82.5561 16.168 81.8141 16.168C80.5541 16.168 79.7981 15.426 79.7981 13.984V10.4H78.6921ZM95.2747 7.978L94.4347 8.958C93.8327 8.454 93.0767 8.104 92.0687 8.104C90.2767 8.104 88.8347 9.63 88.8347 11.52C88.8347 13.396 90.2767 14.922 92.1807 14.922C93.0487 14.922 93.8747 14.628 94.4487 14.096L95.2747 15.02C94.4487 15.832 93.4267 16.168 92.0967 16.168C89.4927 16.168 87.4907 14.082 87.4907 11.52C87.4907 8.944 89.5347 6.858 92.0547 6.858C93.4827 6.858 94.4907 7.264 95.2747 7.978ZM96.7157 16V6.368H97.9477V10.316C98.3257 9.574 99.0397 9.126 99.9777 9.126C101.546 9.126 102.568 10.204 102.568 11.898V16H101.336V12.094C101.336 10.988 100.692 10.288 99.6417 10.288C98.5917 10.288 97.9477 10.988 97.9477 12.094V16H96.7157ZM107.724 16.168C105.68 16.168 104.21 14.586 104.21 12.64C104.21 10.694 105.624 9.126 107.528 9.126C109.404 9.126 110.832 10.624 110.832 12.514C110.832 12.682 110.818 12.934 110.79 13.032H105.484C105.638 14.194 106.52 15.062 107.766 15.062C108.522 15.062 109.194 14.768 109.642 14.32L110.3 15.174C109.754 15.762 108.802 16.168 107.724 16.168ZM107.542 10.19C106.492 10.19 105.736 10.946 105.512 12.01H109.53C109.306 10.848 108.55 10.19 107.542 10.19ZM117.212 10.946C116.75 10.526 116.176 10.288 115.434 10.288C114.104 10.288 113.194 11.324 113.194 12.64C113.194 13.942 114.118 15.006 115.42 15.006C116.162 15.006 116.792 14.768 117.24 14.32L117.884 15.23C117.352 15.804 116.414 16.168 115.392 16.168C113.432 16.168 111.948 14.586 111.948 12.64C111.948 10.694 113.446 9.126 115.406 9.126C116.47 9.126 117.366 9.49 117.926 10.064L117.212 10.946ZM120.493 16H119.261V6.368H120.493V12.22L123.643 9.294H125.211L121.837 12.43L125.449 16H123.825L120.493 12.682V16ZM130.145 9.126C131.965 9.126 133.393 10.624 133.393 12.654C133.393 14.642 132.021 16.168 130.145 16.168C129.095 16.168 128.297 15.664 127.793 14.838V16H126.561V6.368H127.793V10.498C128.297 9.672 129.095 9.126 130.145 9.126ZM129.991 10.288C128.717 10.288 127.793 11.352 127.793 12.654C127.793 13.97 128.717 15.006 129.991 15.006C131.251 15.006 132.161 13.97 132.161 12.654C132.161 11.352 131.251 10.288 129.991 10.288ZM138.073 16.168C136.155 16.168 134.657 14.586 134.657 12.64C134.657 10.694 136.155 9.126 138.073 9.126C140.005 9.126 141.503 10.694 141.503 12.64C141.503 14.586 140.005 16.168 138.073 16.168ZM138.087 15.006C139.347 15.006 140.257 13.942 140.257 12.64C140.257 11.324 139.347 10.288 138.087 10.288C136.813 10.288 135.903 11.324 135.903 12.64C135.903 13.942 136.813 15.006 138.087 15.006ZM141.935 16L144.525 12.584L142.047 9.294H143.587L145.337 11.632L147.129 9.294H148.529L146.051 12.57L148.627 16H147.087L145.225 13.522L143.335 16H141.935Z" fill="black"/>
</svg>
