<svg width="40" height="40" viewBox="0 0 40 40" fill="none" xmlns="http://www.w3.org/2000/svg">
<circle cx="20" cy="20" r="16" fill="#2861BB"/>
<path d="M29.3267 16.5832C29.0143 16.559 28.6987 16.5467 28.3802 16.5467C26.7961 16.5467 25.2826 16.855 23.8941 17.4097C23.8754 17.3671 23.8605 17.3292 23.8569 17.3194C23.1733 15.5037 22.0624 13.8621 20.6021 12.5432L20.0002 12L19.3982 12.5432C17.937 13.8622 16.8258 15.5044 16.1422 17.321C16.14 17.327 16.1297 17.3603 16.1147 17.4097C14.7238 16.8528 13.2072 16.5467 11.6198 16.5467C11.3013 16.5467 10.9857 16.559 10.6733 16.5832C10.5596 17.1762 10.5 17.7887 10.5 18.4152C10.5 23.7087 14.7534 28 20.0002 28C21.3164 28 22.5703 27.7293 23.71 27.2412C27.1132 25.7832 29.5 22.3806 29.5 18.4152C29.5 17.7887 29.4404 17.1762 29.3267 16.5832ZM17.7749 18.1161C18.2574 16.7725 19.0134 15.5363 20.0002 14.489C20.9866 15.5363 21.7425 16.7726 22.225 18.1162C22.2293 18.1283 22.2427 18.1653 22.258 18.2076C21.4402 18.6876 20.6827 19.2608 20 19.9128C19.3175 19.2611 18.5603 18.688 17.7429 18.2081C17.7593 18.1606 17.7717 18.1248 17.7749 18.1161ZM20.0002 26.1794C15.75 26.1794 12.3046 22.6873 12.3046 18.3993C16.7606 18.6957 20.4504 21.8143 21.6249 26.0056C21.1011 26.1192 20.5576 26.1794 20.0002 26.1794ZM23.3312 25.4131C22.8918 23.8863 22.1671 22.4819 21.2192 21.2626C22.9289 19.6238 25.1912 18.5659 27.6954 18.3993C27.6954 21.4833 25.9132 24.1556 23.3312 25.4131Z" fill="white"/>
</svg>
