<svg width="40" height="40" viewBox="0 0 40 40" fill="none" xmlns="http://www.w3.org/2000/svg">
<circle cx="20" cy="20" r="16" fill="#724FF5"/>
<circle cx="20" cy="20" r="19" stroke="black" stroke-opacity="0.25" stroke-width="2"/>
<path fill-rule="evenodd" clip-rule="evenodd" d="M12 15.8606C12 13.7284 13.7283 12 15.8604 12C17.9924 12 19.7207 13.7284 19.7207 15.8606C19.7207 16.0786 19.7017 16.292 19.667 16.5002L18.1226 15.8641C18.124 14.9389 17.5535 14.0699 16.6339 13.7352C15.4601 13.3079 14.1623 13.9131 13.7351 15.087C13.3078 16.2608 13.913 17.5587 15.0868 17.986C15.7991 18.2452 16.557 18.1242 17.1384 17.7268L18.0677 19.9991L17.133 22.2691C16.9812 22.1659 16.8143 22.0797 16.6339 22.0141C16.3797 21.9215 16.1196 21.8774 15.8639 21.8771L15.8639 21.8771C14.9388 21.8757 14.0698 22.4463 13.7351 23.3659C13.3078 24.5397 13.913 25.8376 15.0868 26.2648C16.2606 26.6921 17.5584 26.0868 17.9857 24.913C18.2449 24.2007 18.1239 23.4427 17.7265 22.8613L20.0001 21.9321L22.2692 22.867C22.1661 23.0187 22.08 23.1856 22.0144 23.3659C21.9218 23.6201 21.8778 23.8801 21.8774 24.1359L21.8774 24.1359C21.876 25.061 22.4466 25.9301 23.3661 26.2648C24.5399 26.6921 25.8377 26.0868 26.265 24.913C26.6922 23.7392 26.087 22.4413 24.9132 22.014C24.2009 21.7548 23.443 21.8757 22.8616 22.2732L21.9324 19.9995L22.867 17.7309C23.0188 17.8341 23.1858 17.9203 23.3661 17.9859C23.6203 18.0785 23.8803 18.1225 24.1361 18.1229C25.0611 18.1242 25.93 17.5536 26.2646 16.6341C26.6918 15.4603 26.0866 14.1624 24.9129 13.7352C23.7391 13.3079 22.4412 13.9131 22.014 15.087C21.7548 15.7993 21.8757 16.5572 22.2732 17.1387L19.9998 18.0678L17.7305 17.133C17.8335 16.9812 17.9197 16.8144 17.9853 16.6341C18.0779 16.3799 18.1219 16.1199 18.1223 15.8641L19.9998 16.6374L20.3313 16.5003C20.2978 16.3072 20.279 16.0629 20.279 15.8606C20.279 13.7284 22.0073 12 24.1393 12C26.2713 12 27.9997 13.7284 27.9997 15.8606C27.9997 17.9927 26.2713 19.7211 24.1393 19.7211C23.9214 19.7211 23.7077 19.7021 23.4996 19.6674L23.3628 19.9995L23.4997 20.3313C23.6952 20.2974 23.9374 20.2785 24.1397 20.2785C26.2717 20.2785 28 22.0073 28 24.1394C28 26.2716 26.2717 28 24.1397 28C22.0076 28 20.2793 26.2716 20.2793 24.1394C20.2793 23.9214 20.2983 23.7079 20.333 23.4998L21.4151 23.9455L20.0001 23.3626L19.6677 23.4997C19.7035 23.7042 19.7207 23.9371 19.7207 24.1394C19.7207 26.2716 17.9924 28 15.8604 28C13.7283 28 12 26.2716 12 24.1394C12 22.0073 13.7283 20.2784 15.8604 20.2784C16.0784 20.2784 16.2918 20.2979 16.5 20.3326L16.089 21.3304L16.6373 19.9991L16.5001 19.6688C16.3071 19.7021 16.0627 19.7198 15.8604 19.7198C13.7283 19.7198 12 17.9927 12 15.8606Z" fill="white"/>
</svg>
