<svg width="40" height="40" viewBox="0 0 40 40" fill="none" xmlns="http://www.w3.org/2000/svg">
<circle cx="20" cy="20" r="15.5" fill="#1A3673" stroke="black"/>
<path d="M17.0891 17.5676H19.1127C19.1127 17.4396 19.0519 17.3505 18.9848 17.2523C18.8664 17.0787 18.7283 16.8763 18.8708 16.3799C18.1843 16.5279 17.5354 16.9738 17.0891 17.5676Z" fill="white"/>
<path d="M21.1007 16.3799C21.789 16.5279 22.3741 17.0581 22.8843 17.5676H20.8588C20.8588 17.4406 20.9193 17.352 20.9862 17.2542C21.1048 17.0808 21.2434 16.8781 21.1007 16.3799Z" fill="white"/>
<path d="M16.2732 19.1262C16.2732 19.1262 18.3156 19.2929 18.445 19.2929V19.2948C18.6138 19.3117 18.7601 19.3304 18.6138 19.6095C18.4638 19.8868 17.1078 22.4457 17.1078 22.4457C16.4401 21.6121 16.0125 20.5724 16.2732 19.1262Z" fill="white"/>
<path d="M18.4094 23.4123C18.4094 23.4123 19.8573 21.1288 19.9867 21.1288C20.1161 21.1288 21.5658 23.4123 21.5658 23.4123C21.1382 23.6353 20.5981 23.7458 19.9867 23.7458C19.3753 23.7458 18.8351 23.6334 18.4094 23.4123Z" fill="white"/>
<path d="M21.5283 19.2929V19.2911C21.6596 19.2911 23.702 19.1243 23.702 19.1243C23.9608 20.5705 23.5332 21.6102 22.8655 22.4438C22.8655 22.4438 21.5096 19.8849 21.3633 19.6076C21.2133 19.3287 21.3634 19.3116 21.5283 19.2929Z" fill="white"/>
<path fill-rule="evenodd" clip-rule="evenodd" d="M28 23.5489H23.5458L23.547 28H16.4561V23.5489H12V16.4512H16.4561V12H23.5458V16.4512H28V23.5489ZM18.9848 18.1409C19.2774 18.1427 19.5118 18.0584 19.6487 17.9161C19.8231 17.7381 19.8363 17.4702 19.5962 17.1761C19.1705 16.6553 19.5381 16.157 19.9863 16.1739C20.4327 16.1926 20.8021 16.6553 20.3783 17.1761C20.1363 17.4702 20.1495 17.7362 20.3258 17.9161C20.4608 18.0566 20.6971 18.1427 20.9897 18.1427H24.0148C23.696 17.4534 23.5966 17.2698 23.0489 16.7977C22.3231 16.1701 20.9709 15.5913 20.0219 15.5913C18.8085 15.5913 17.7113 16.084 16.9161 16.8783C16.5523 17.2417 16.2541 17.6688 16.0347 18.1409H18.9848ZM18.5743 20.9759C18.8215 20.5153 19.0413 20.1055 19.1686 19.868C19.5943 19.07 19.1292 18.7366 18.5009 18.6991C18.2871 18.6868 18.0245 18.6581 17.7253 18.6254C17.203 18.5684 16.5692 18.4992 15.8884 18.4837C15.7215 18.9483 15.6296 19.4559 15.6296 19.9786C15.6296 21.3611 16.271 22.5956 17.2744 23.4011C17.4625 23.0478 18.0746 21.9071 18.5743 20.9759ZM22.46 23.6296C22.46 23.6296 20.4852 20.7766 20.3764 20.5911C20.2639 20.4076 20.1701 20.2933 19.9844 20.2933C19.7987 20.2933 19.705 20.4057 19.5943 20.5911C19.4968 20.7541 17.9064 23.062 17.5369 23.5978C18.244 24.0849 19.0992 24.3659 20.0219 24.3659C20.9447 24.3659 21.7642 24.0942 22.46 23.6296ZM24.4143 19.9786C24.4143 19.4503 24.3224 18.9445 24.1517 18.4762C23.4428 18.4883 22.7822 18.5627 22.2421 18.6236C21.9448 18.6571 21.684 18.6865 21.4717 18.6991C20.8396 18.7366 20.3764 19.0719 20.8002 19.868C21.2297 20.6642 22.657 23.3337 22.7132 23.4461C23.7485 22.6424 24.4143 21.3892 24.4143 19.9804V19.9786Z" fill="white"/>
<circle cx="20" cy="20" r="19" stroke="black" stroke-opacity="0.25" stroke-width="2"/>
</svg>
