<svg width="230" height="45" viewBox="0 0 230 45" fill="none" xmlns="http://www.w3.org/2000/svg">
<g clip-path="url(#clip0_6343_39313)">
<path d="M222 1H8C3.85786 1 0.5 4.35786 0.5 8.5V36.5C0.5 40.6421 3.85786 44 8 44H222C226.142 44 229.5 40.6421 229.5 36.5V8.5C229.5 4.35786 226.142 1 222 1Z" fill="white"/>
<path d="M222 1H8C3.85786 1 0.5 4.35786 0.5 8.5V36.5C0.5 40.6421 3.85786 44 8 44H222C226.142 44 229.5 40.6421 229.5 36.5V8.5C229.5 4.35786 226.142 1 222 1Z" stroke="#EBEBEB"/>
<path d="M13.0234 26.5002V17.5262H16.2294C18.3994 17.5262 19.8274 18.7022 19.8274 20.4942C19.8274 22.3002 18.3854 23.4902 16.2014 23.4902H14.7734V26.5002H13.0234ZM16.3694 19.0802H14.7734V21.9362H16.3694C17.3354 21.9362 17.9794 21.3622 17.9794 20.4942C17.9794 19.6402 17.3354 19.0802 16.3694 19.0802ZM23.7875 25.0162L23.9695 26.5142C23.7175 26.5982 23.3955 26.6542 23.1435 26.6542C22.1775 26.6542 21.1975 26.0382 21.1975 24.3302V16.8682H22.9055V24.3722C22.9055 24.8902 23.1995 25.0862 23.5075 25.0862C23.5915 25.0862 23.7035 25.0582 23.7875 25.0162ZM28.1668 26.6822C26.4028 26.6822 24.9608 25.2402 24.9608 23.1402C24.9608 21.1242 26.3188 19.6122 28.1668 19.6122C29.0768 19.6122 29.7768 20.0182 30.2248 20.6762V19.7942H31.9328V26.5002H30.2248V25.5482C29.7768 26.2342 29.0768 26.6822 28.1668 26.6822ZM28.4468 25.0862C29.4828 25.0862 30.2248 24.2182 30.2248 23.1402C30.2248 22.0622 29.4828 21.2082 28.4468 21.2082C27.4108 21.2082 26.6688 22.0622 26.6688 23.1402C26.6688 24.2182 27.4108 25.0862 28.4468 25.0862ZM38.5624 21.8242C38.1284 21.4182 37.6384 21.2082 36.9664 21.2082C35.8464 21.2082 35.1044 22.0622 35.1044 23.1402C35.1044 24.2182 35.8604 25.0862 36.9664 25.0862C37.6384 25.0862 38.1844 24.8482 38.6184 24.4282L39.4864 25.6882C38.9544 26.2762 37.9744 26.6822 36.9244 26.6822C34.9224 26.6822 33.3964 25.1002 33.3964 23.1402C33.3964 21.1942 34.9364 19.6122 36.8964 19.6122C38.0304 19.6122 38.9404 19.9902 39.5424 20.6062L38.5624 21.8242ZM43.5979 26.6822C41.5119 26.6822 39.9999 25.1002 39.9999 23.1402C39.9999 21.1942 41.4419 19.6122 43.3739 19.6122C45.2919 19.6122 46.7619 21.0822 46.7619 23.0142C46.7619 23.2382 46.7479 23.5042 46.7199 23.6162H41.7499C41.9319 24.5402 42.6319 25.1842 43.6539 25.1842C44.3399 25.1842 44.9139 24.8902 45.3059 24.4842L46.1879 25.6602C45.6699 26.2342 44.7179 26.6822 43.5979 26.6822ZM43.4019 21.0542C42.5899 21.0542 42.0019 21.6142 41.7919 22.4262H44.9979C44.7879 21.5302 44.1859 21.0542 43.4019 21.0542ZM48.1311 26.5002V16.8682H49.8391V20.7462C50.1891 20.0322 50.8611 19.6122 51.7431 19.6122C53.2831 19.6122 54.2771 20.6902 54.2771 22.4402V26.5002H52.5691V22.6922C52.5691 21.7822 52.0511 21.2082 51.2111 21.2082C50.3711 21.2082 49.8391 21.7822 49.8391 22.6922V26.5002H48.1311ZM59.1812 26.6822C57.2352 26.6822 55.6952 25.1002 55.6952 23.1402C55.6952 21.1942 57.2352 19.6122 59.1812 19.6122C61.1272 19.6122 62.6672 21.1942 62.6672 23.1402C62.6672 25.1002 61.1272 26.6822 59.1812 26.6822ZM59.1812 25.0862C60.2172 25.0862 60.9592 24.2182 60.9592 23.1402C60.9592 22.0622 60.2172 21.2082 59.1812 21.2082C58.1452 21.2082 57.4032 22.0622 57.4032 23.1402C57.4032 24.2182 58.1452 25.0862 59.1812 25.0862ZM66.7309 25.0162L66.9129 26.5142C66.6609 26.5982 66.3389 26.6542 66.0869 26.6542C65.1209 26.6542 64.1409 26.0382 64.1409 24.3302V16.8682H65.8489V24.3722C65.8489 24.8902 66.1429 25.0862 66.4509 25.0862C66.5349 25.0862 66.6469 25.0582 66.7309 25.0162ZM71.1102 26.6822C69.3462 26.6822 67.9042 25.2402 67.9042 23.1402C67.9042 21.1242 69.2622 19.6122 71.1102 19.6122C72.0202 19.6122 72.7202 20.0182 73.1682 20.6762V16.8682H74.8762V26.5002H73.1682V25.5482C72.7202 26.2342 72.0202 26.6822 71.1102 26.6822ZM71.3902 25.0862C72.4262 25.0862 73.1682 24.2182 73.1682 23.1402C73.1682 22.0622 72.4262 21.2082 71.3902 21.2082C70.3542 21.2082 69.6122 22.0622 69.6122 23.1402C69.6122 24.2182 70.3542 25.0862 71.3902 25.0862ZM79.9377 26.6822C77.8517 26.6822 76.3397 25.1002 76.3397 23.1402C76.3397 21.1942 77.7817 19.6122 79.7137 19.6122C81.6317 19.6122 83.1017 21.0822 83.1017 23.0142C83.1017 23.2382 83.0877 23.5042 83.0597 23.6162H78.0897C78.2717 24.5402 78.9717 25.1842 79.9937 25.1842C80.6797 25.1842 81.2537 24.8902 81.6457 24.4842L82.5277 25.6602C82.0097 26.2342 81.0577 26.6822 79.9377 26.6822ZM79.7417 21.0542C78.9297 21.0542 78.3417 21.6142 78.1317 22.4262H81.3377C81.1277 21.5302 80.5257 21.0542 79.7417 21.0542ZM84.471 26.5002V19.7942H86.179V20.7882C86.501 20.0742 87.075 19.6122 87.831 19.6122C88.279 19.6122 88.643 19.7242 88.895 19.9342L88.195 21.5442C87.971 21.3762 87.635 21.2642 87.299 21.2642C86.627 21.2642 86.179 21.8382 86.179 22.7482V26.5002H84.471ZM92.3709 21.3062V19.7942H93.5469V18.0582H95.2689V19.7942H97.0749V21.3062H95.2829V24.1622C95.2829 24.7922 95.5349 25.0862 96.0389 25.0862C96.3609 25.0862 96.6689 24.9462 96.8369 24.7502L97.5929 26.0242C97.2289 26.3882 96.5989 26.6822 95.7729 26.6822C94.4149 26.6822 93.5469 25.8422 93.5469 24.2042V21.3062H92.3709ZM101.566 26.6822C99.4806 26.6822 97.9686 25.1002 97.9686 23.1402C97.9686 21.1942 99.4106 19.6122 101.342 19.6122C103.26 19.6122 104.73 21.0822 104.73 23.0142C104.73 23.2382 104.716 23.5042 104.688 23.6162H99.7186C99.9006 24.5402 100.6 25.1842 101.622 25.1842C102.308 25.1842 102.882 24.8902 103.274 24.4842L104.156 25.6602C103.638 26.2342 102.686 26.6822 101.566 26.6822ZM101.37 21.0542C100.558 21.0542 99.9706 21.6142 99.7606 22.4262H102.966C102.756 21.5302 102.154 21.0542 101.37 21.0542ZM104.851 26.5002L107.385 23.1262L104.935 19.7942H107.063L108.519 21.7682L110.003 19.7942H111.921L109.471 23.0562L112.005 26.5002H109.877L108.337 24.4142L106.755 26.5002H104.851ZM112.455 21.3062V19.7942H113.631V18.0582H115.353V19.7942H117.159V21.3062H115.367V24.1622C115.367 24.7922 115.619 25.0862 116.123 25.0862C116.445 25.0862 116.753 24.9462 116.921 24.7502L117.677 26.0242C117.313 26.3882 116.683 26.6822 115.857 26.6822C114.499 26.6822 113.631 25.8422 113.631 24.2042V21.3062H112.455Z" fill="black"/>
<path d="M212 25.5L207 20.4524L208 19.5L212 23.7857L216 19.5L217 20.4524L212 25.5Z" fill="black"/>
</g>
<defs>
<clipPath id="clip0_6343_39313">
<rect width="230" height="44" fill="white" transform="translate(0 0.5)"/>
</clipPath>
</defs>
</svg>
