<svg width="296" height="211" viewBox="0 0 296 211" fill="none" xmlns="http://www.w3.org/2000/svg">
<path d="M34.0234 15.0002V6.04016H37.0194C39.9734 6.04016 42.0874 7.90216 42.0874 10.5202C42.0874 13.1382 40.0014 15.0002 37.0754 15.0002H34.0234ZM37.0054 7.67816H35.8294V13.3482H37.0194C38.9374 13.3482 40.2114 12.2282 40.2114 10.5202C40.2114 8.79816 38.9374 7.67816 37.0054 7.67816ZM43.6057 15.0002V8.29416H45.3137V9.28816C45.6357 8.57416 46.2097 8.11216 46.9657 8.11216C47.4137 8.11216 47.7777 8.22416 48.0297 8.43416L47.3297 10.0442C47.1057 9.87616 46.7697 9.76416 46.4337 9.76416C45.7617 9.76416 45.3137 10.3382 45.3137 11.2482V15.0002H43.6057ZM51.689 15.1822C49.743 15.1822 48.203 13.6002 48.203 11.6402C48.203 9.69416 49.743 8.11216 51.689 8.11216C53.635 8.11216 55.175 9.69416 55.175 11.6402C55.175 13.6002 53.635 15.1822 51.689 15.1822ZM51.689 13.5862C52.725 13.5862 53.467 12.7182 53.467 11.6402C53.467 10.5622 52.725 9.70816 51.689 9.70816C50.653 9.70816 49.911 10.5622 49.911 11.6402C49.911 12.7182 50.653 13.5862 51.689 13.5862ZM58.3567 17.7442H56.6487V8.29416H58.3567V9.24616C58.8047 8.56016 59.5047 8.11216 60.4147 8.11216C62.1787 8.11216 63.6347 9.55416 63.6347 11.6542C63.6347 13.6702 62.2767 15.1822 60.4147 15.1822C59.5047 15.1822 58.8047 14.7762 58.3567 14.1042V17.7442ZM60.1487 13.5862C61.1707 13.5862 61.9267 12.7322 61.9267 11.6542C61.9267 10.5762 61.1707 9.70816 60.1487 9.70816C59.1127 9.70816 58.3567 10.5762 58.3567 11.6542C58.3567 12.7322 59.1127 13.5862 60.1487 13.5862ZM67.8563 15.1822C66.0923 15.1822 64.6503 13.7402 64.6503 11.6402C64.6503 9.62416 66.0083 8.11216 67.8563 8.11216C68.7663 8.11216 69.4663 8.51816 69.9143 9.17616V5.36816H71.6223V15.0002H69.9143V14.0482C69.4663 14.7342 68.7663 15.1822 67.8563 15.1822ZM68.1363 13.5862C69.1723 13.5862 69.9143 12.7182 69.9143 11.6402C69.9143 10.5622 69.1723 9.70816 68.1363 9.70816C67.1003 9.70816 66.3583 10.5622 66.3583 11.6402C66.3583 12.7182 67.1003 13.5862 68.1363 13.5862ZM76.5718 15.1822C74.6258 15.1822 73.0858 13.6002 73.0858 11.6402C73.0858 9.69416 74.6258 8.11216 76.5718 8.11216C78.5178 8.11216 80.0578 9.69416 80.0578 11.6402C80.0578 13.6002 78.5178 15.1822 76.5718 15.1822ZM76.5718 13.5862C77.6078 13.5862 78.3498 12.7182 78.3498 11.6402C78.3498 10.5622 77.6078 9.70816 76.5718 9.70816C75.5358 9.70816 74.7938 10.5622 74.7938 11.6402C74.7938 12.7182 75.5358 13.5862 76.5718 13.5862ZM84.5351 15.0002H82.6031L80.5311 8.29416H82.3651L83.6111 13.1242L84.9691 8.29416H86.8171L88.2031 13.1522L89.4771 8.29416H91.3111L89.2391 15.0002H87.1111L85.8091 10.4502L84.5351 15.0002ZM92.5237 15.0002V8.29416H94.2317V9.24616C94.5817 8.53216 95.2537 8.11216 96.1357 8.11216C97.6757 8.11216 98.6697 9.19016 98.6697 10.9402V15.0002H96.9617V11.1922C96.9617 10.2822 96.4437 9.70816 95.6037 9.70816C94.7637 9.70816 94.2317 10.2822 94.2317 11.1922V15.0002H92.5237ZM103.586 15.0002V6.02616H105.336V13.3482H109.718V15.0002H103.586ZM113.37 15.1822C111.606 15.1822 110.164 13.7402 110.164 11.6402C110.164 9.62416 111.522 8.11216 113.37 8.11216C114.28 8.11216 114.98 8.51816 115.428 9.17616V8.29416H117.136V15.0002H115.428V14.0482C114.98 14.7342 114.28 15.1822 113.37 15.1822ZM113.65 13.5862C114.686 13.5862 115.428 12.7182 115.428 11.6402C115.428 10.5622 114.686 9.70816 113.65 9.70816C112.614 9.70816 111.872 10.5622 111.872 11.6402C111.872 12.7182 112.614 13.5862 113.65 13.5862ZM122.799 8.11216C124.563 8.11216 126.019 9.55416 126.019 11.6542C126.019 13.6702 124.661 15.1822 122.799 15.1822C121.889 15.1822 121.189 14.7762 120.741 14.1042V15.0002H119.033V5.36816H120.741V9.24616C121.189 8.56016 121.889 8.11216 122.799 8.11216ZM122.533 9.70816C121.497 9.70816 120.741 10.5762 120.741 11.6542C120.741 12.7322 121.497 13.5862 122.533 13.5862C123.555 13.5862 124.311 12.7322 124.311 11.6542C124.311 10.5762 123.555 9.70816 122.533 9.70816ZM130.633 15.1822C128.547 15.1822 127.035 13.6002 127.035 11.6402C127.035 9.69416 128.477 8.11216 130.409 8.11216C132.327 8.11216 133.797 9.58216 133.797 11.5142C133.797 11.7382 133.783 12.0042 133.755 12.1162H128.785C128.967 13.0402 129.667 13.6842 130.689 13.6842C131.375 13.6842 131.949 13.3902 132.341 12.9842L133.223 14.1602C132.705 14.7342 131.753 15.1822 130.633 15.1822ZM130.437 9.55416C129.625 9.55416 129.037 10.1142 128.827 10.9262H132.033C131.823 10.0302 131.221 9.55416 130.437 9.55416ZM137.756 13.5162L137.938 15.0142C137.686 15.0982 137.364 15.1542 137.112 15.1542C136.146 15.1542 135.166 14.5382 135.166 12.8302V5.36816H136.874V12.8722C136.874 13.3902 137.168 13.5862 137.476 13.5862C137.56 13.5862 137.672 13.5582 137.756 13.5162Z" fill="black"/>
<path fill-rule="evenodd" clip-rule="evenodd" d="M143 11C143 6.58854 146.589 3 151 3C155.411 3 159 6.58854 159 11C159 15.4115 155.411 19 151 19C146.589 19 143 15.4115 143 11ZM157.769 11C157.769 7.25312 154.747 4.23077 151 4.23077C147.253 4.23077 144.231 7.25312 144.231 11C144.231 14.7469 147.253 17.7692 151 17.7692C154.747 17.7692 157.769 14.7469 157.769 11ZM151.923 14.3846C151.923 14.8944 151.51 15.3077 151 15.3077C150.49 15.3077 150.077 14.8944 150.077 14.3846C150.077 13.8748 150.49 13.4615 151 13.4615C151.51 13.4615 151.923 13.8748 151.923 14.3846ZM148.231 9.42735C148.231 7.92361 149.477 6.69231 151 6.69231C152.523 6.69231 153.769 7.92361 153.769 9.42735C153.769 10.5358 153.039 11.5347 151.974 11.8846L151.692 11.9701V12.8462H150.308V11.9701C150.308 11.3851 150.694 10.851 151.26 10.6667L151.541 10.5812C152.044 10.4156 152.385 9.95086 152.385 9.42735C152.385 8.66346 151.773 8.05983 151 8.05983C150.227 8.05983 149.615 8.66346 149.615 9.42735H148.231Z" fill="#1355E9"/>
<path d="M255 27H41C37.134 27 34 30.134 34 34V62C34 65.866 37.134 69 41 69H255C258.866 69 262 65.866 262 62V34C262 30.134 258.866 27 255 27Z" fill="white"/>
<path d="M255 27H41C37.134 27 34 30.134 34 34V62C34 65.866 37.134 69 41 69H255C258.866 69 262 65.866 262 62V34C262 30.134 258.866 27 255 27Z" stroke="#D6D6D6" stroke-width="2"/>
<path d="M46.0234 52.0002V43.0262H49.2294C51.3994 43.0262 52.8274 44.2022 52.8274 45.9942C52.8274 47.8002 51.3854 48.9902 49.2014 48.9902H47.7734V52.0002H46.0234ZM49.3694 44.5802H47.7734V47.4362H49.3694C50.3354 47.4362 50.9794 46.8622 50.9794 45.9942C50.9794 45.1402 50.3354 44.5802 49.3694 44.5802ZM56.7875 50.5162L56.9695 52.0142C56.7175 52.0982 56.3955 52.1542 56.1435 52.1542C55.1775 52.1542 54.1975 51.5382 54.1975 49.8302V42.3682H55.9055V49.8722C55.9055 50.3902 56.1995 50.5862 56.5075 50.5862C56.5915 50.5862 56.7035 50.5582 56.7875 50.5162ZM61.1668 52.1822C59.4028 52.1822 57.9608 50.7402 57.9608 48.6402C57.9608 46.6242 59.3188 45.1122 61.1668 45.1122C62.0768 45.1122 62.7768 45.5182 63.2248 46.1762V45.2942H64.9328V52.0002H63.2248V51.0482C62.7768 51.7342 62.0768 52.1822 61.1668 52.1822ZM61.4468 50.5862C62.4828 50.5862 63.2248 49.7182 63.2248 48.6402C63.2248 47.5622 62.4828 46.7082 61.4468 46.7082C60.4108 46.7082 59.6688 47.5622 59.6688 48.6402C59.6688 49.7182 60.4108 50.5862 61.4468 50.5862ZM71.5624 47.3242C71.1284 46.9182 70.6384 46.7082 69.9664 46.7082C68.8464 46.7082 68.1044 47.5622 68.1044 48.6402C68.1044 49.7182 68.8604 50.5862 69.9664 50.5862C70.6384 50.5862 71.1844 50.3482 71.6184 49.9282L72.4864 51.1882C71.9544 51.7762 70.9744 52.1822 69.9244 52.1822C67.9224 52.1822 66.3964 50.6002 66.3964 48.6402C66.3964 46.6942 67.9364 45.1122 69.8964 45.1122C71.0304 45.1122 71.9404 45.4902 72.5424 46.1062L71.5624 47.3242ZM76.5979 52.1822C74.5119 52.1822 72.9999 50.6002 72.9999 48.6402C72.9999 46.6942 74.4419 45.1122 76.3739 45.1122C78.2919 45.1122 79.7619 46.5822 79.7619 48.5142C79.7619 48.7382 79.7479 49.0042 79.7199 49.1162H74.7499C74.9319 50.0402 75.6319 50.6842 76.6539 50.6842C77.3399 50.6842 77.9139 50.3902 78.3059 49.9842L79.1879 51.1602C78.6699 51.7342 77.7179 52.1822 76.5979 52.1822ZM76.4019 46.5542C75.5899 46.5542 75.0019 47.1142 74.7919 47.9262H77.9979C77.7879 47.0302 77.1859 46.5542 76.4019 46.5542ZM81.1311 52.0002V42.3682H82.8391V46.2462C83.1891 45.5322 83.8611 45.1122 84.7431 45.1122C86.2831 45.1122 87.2771 46.1902 87.2771 47.9402V52.0002H85.5691V48.1922C85.5691 47.2822 85.0511 46.7082 84.2111 46.7082C83.3711 46.7082 82.8391 47.2822 82.8391 48.1922V52.0002H81.1311ZM92.1812 52.1822C90.2352 52.1822 88.6952 50.6002 88.6952 48.6402C88.6952 46.6942 90.2352 45.1122 92.1812 45.1122C94.1272 45.1122 95.6672 46.6942 95.6672 48.6402C95.6672 50.6002 94.1272 52.1822 92.1812 52.1822ZM92.1812 50.5862C93.2172 50.5862 93.9592 49.7182 93.9592 48.6402C93.9592 47.5622 93.2172 46.7082 92.1812 46.7082C91.1452 46.7082 90.4032 47.5622 90.4032 48.6402C90.4032 49.7182 91.1452 50.5862 92.1812 50.5862ZM99.7309 50.5162L99.9129 52.0142C99.6609 52.0982 99.3389 52.1542 99.0869 52.1542C98.1209 52.1542 97.1409 51.5382 97.1409 49.8302V42.3682H98.8489V49.8722C98.8489 50.3902 99.1429 50.5862 99.4509 50.5862C99.5349 50.5862 99.6469 50.5582 99.7309 50.5162ZM104.11 52.1822C102.346 52.1822 100.904 50.7402 100.904 48.6402C100.904 46.6242 102.262 45.1122 104.11 45.1122C105.02 45.1122 105.72 45.5182 106.168 46.1762V42.3682H107.876V52.0002H106.168V51.0482C105.72 51.7342 105.02 52.1822 104.11 52.1822ZM104.39 50.5862C105.426 50.5862 106.168 49.7182 106.168 48.6402C106.168 47.5622 105.426 46.7082 104.39 46.7082C103.354 46.7082 102.612 47.5622 102.612 48.6402C102.612 49.7182 103.354 50.5862 104.39 50.5862ZM112.937 52.1822C110.851 52.1822 109.339 50.6002 109.339 48.6402C109.339 46.6942 110.781 45.1122 112.713 45.1122C114.631 45.1122 116.101 46.5822 116.101 48.5142C116.101 48.7382 116.087 49.0042 116.059 49.1162H111.089C111.271 50.0402 111.971 50.6842 112.993 50.6842C113.679 50.6842 114.253 50.3902 114.645 49.9842L115.527 51.1602C115.009 51.7342 114.057 52.1822 112.937 52.1822ZM112.741 46.5542C111.929 46.5542 111.341 47.1142 111.131 47.9262H114.337C114.127 47.0302 113.525 46.5542 112.741 46.5542ZM117.471 52.0002V45.2942H119.179V46.2882C119.501 45.5742 120.075 45.1122 120.831 45.1122C121.279 45.1122 121.643 45.2242 121.895 45.4342L121.195 47.0442C120.971 46.8762 120.635 46.7642 120.299 46.7642C119.627 46.7642 119.179 47.3382 119.179 48.2482V52.0002H117.471ZM125.371 46.8062V45.2942H126.547V43.5582H128.269V45.2942H130.075V46.8062H128.283V49.6622C128.283 50.2922 128.535 50.5862 129.039 50.5862C129.361 50.5862 129.669 50.4462 129.837 50.2502L130.593 51.5242C130.229 51.8882 129.599 52.1822 128.773 52.1822C127.415 52.1822 126.547 51.3422 126.547 49.7042V46.8062H125.371ZM134.566 52.1822C132.48 52.1822 130.968 50.6002 130.968 48.6402C130.968 46.6942 132.41 45.1122 134.342 45.1122C136.26 45.1122 137.73 46.5822 137.73 48.5142C137.73 48.7382 137.716 49.0042 137.688 49.1162H132.718C132.9 50.0402 133.6 50.6842 134.622 50.6842C135.308 50.6842 135.882 50.3902 136.274 49.9842L137.156 51.1602C136.638 51.7342 135.686 52.1822 134.566 52.1822ZM134.37 46.5542C133.558 46.5542 132.97 47.1142 132.76 47.9262H135.966C135.756 47.0302 135.154 46.5542 134.37 46.5542ZM137.851 52.0002L140.385 48.6262L137.935 45.2942H140.063L141.519 47.2682L143.003 45.2942H144.921L142.471 48.5562L145.005 52.0002H142.877L141.337 49.9142L139.755 52.0002H137.851ZM145.455 46.8062V45.2942H146.631V43.5582H148.353V45.2942H150.159V46.8062H148.367V49.6622C148.367 50.2922 148.619 50.5862 149.123 50.5862C149.445 50.5862 149.753 50.4462 149.921 50.2502L150.677 51.5242C150.313 51.8882 149.683 52.1822 148.857 52.1822C147.499 52.1822 146.631 51.3422 146.631 49.7042V46.8062H145.455Z" fill="black"/>
<path d="M245 51L240 45.9524L241 45L245 49.2857L249 45L250 45.9524L245 51Z" fill="black"/>
<g filter="url(#filter0_d_6343_39398)">
<mask id="mask0_6343_39398" style="mask-type:luminance" maskUnits="userSpaceOnUse" x="33" y="74" width="230" height="88">
<path d="M255 74H41C36.5817 74 33 77.5817 33 82V154C33 158.418 36.5817 162 41 162H255C259.418 162 263 158.418 263 154V82C263 77.5817 259.418 74 255 74Z" fill="white"/>
</mask>
<g mask="url(#mask0_6343_39398)">
<path d="M255 74H41C36.5817 74 33 77.5817 33 82V154C33 158.418 36.5817 162 41 162H255C259.418 162 263 158.418 263 154V82C263 77.5817 259.418 74 255 74Z" fill="white"/>
<path d="M263 74H33V118H263V74Z" fill="white"/>
<path d="M46.0234 100V91.0402H49.0194C51.9734 91.0402 54.0874 92.9022 54.0874 95.5202C54.0874 98.1382 52.0014 100 49.0754 100H46.0234ZM49.0054 92.6782H47.8294V98.3482H49.0194C50.9374 98.3482 52.2114 97.2282 52.2114 95.5202C52.2114 93.7982 50.9374 92.6782 49.0054 92.6782ZM55.6057 100V93.2942H57.3137V94.2882C57.6357 93.5742 58.2097 93.1122 58.9657 93.1122C59.4137 93.1122 59.7777 93.2242 60.0297 93.4342L59.3297 95.0442C59.1057 94.8762 58.7697 94.7642 58.4337 94.7642C57.7617 94.7642 57.3137 95.3382 57.3137 96.2482V100H55.6057ZM63.689 100.182C61.743 100.182 60.203 98.6002 60.203 96.6402C60.203 94.6942 61.743 93.1122 63.689 93.1122C65.635 93.1122 67.175 94.6942 67.175 96.6402C67.175 98.6002 65.635 100.182 63.689 100.182ZM63.689 98.5862C64.725 98.5862 65.467 97.7182 65.467 96.6402C65.467 95.5622 64.725 94.7082 63.689 94.7082C62.653 94.7082 61.911 95.5622 61.911 96.6402C61.911 97.7182 62.653 98.5862 63.689 98.5862ZM70.3567 102.744H68.6487V93.2942H70.3567V94.2462C70.8047 93.5602 71.5047 93.1122 72.4147 93.1122C74.1787 93.1122 75.6347 94.5542 75.6347 96.6542C75.6347 98.6702 74.2767 100.182 72.4147 100.182C71.5047 100.182 70.8047 99.7762 70.3567 99.1042V102.744ZM72.1487 98.5862C73.1707 98.5862 73.9267 97.7322 73.9267 96.6542C73.9267 95.5762 73.1707 94.7082 72.1487 94.7082C71.1127 94.7082 70.3567 95.5762 70.3567 96.6542C70.3567 97.7322 71.1127 98.5862 72.1487 98.5862ZM79.8563 100.182C78.0923 100.182 76.6503 98.7402 76.6503 96.6402C76.6503 94.6242 78.0083 93.1122 79.8563 93.1122C80.7663 93.1122 81.4663 93.5182 81.9143 94.1762V90.3682H83.6223V100H81.9143V99.0482C81.4663 99.7342 80.7663 100.182 79.8563 100.182ZM80.1363 98.5862C81.1723 98.5862 81.9143 97.7182 81.9143 96.6402C81.9143 95.5622 81.1723 94.7082 80.1363 94.7082C79.1003 94.7082 78.3583 95.5622 78.3583 96.6402C78.3583 97.7182 79.1003 98.5862 80.1363 98.5862ZM88.5718 100.182C86.6258 100.182 85.0858 98.6002 85.0858 96.6402C85.0858 94.6942 86.6258 93.1122 88.5718 93.1122C90.5178 93.1122 92.0578 94.6942 92.0578 96.6402C92.0578 98.6002 90.5178 100.182 88.5718 100.182ZM88.5718 98.5862C89.6078 98.5862 90.3498 97.7182 90.3498 96.6402C90.3498 95.5622 89.6078 94.7082 88.5718 94.7082C87.5358 94.7082 86.7938 95.5622 86.7938 96.6402C86.7938 97.7182 87.5358 98.5862 88.5718 98.5862ZM96.5351 100H94.6031L92.5311 93.2942H94.3651L95.6111 98.1242L96.9691 93.2942H98.8171L100.203 98.1522L101.477 93.2942H103.311L101.239 100H99.1111L97.8091 95.4502L96.5351 100ZM104.523 100V93.2942H106.231V94.2462C106.581 93.5322 107.253 93.1122 108.135 93.1122C109.675 93.1122 110.669 94.1902 110.669 95.9402V100H108.961V96.1922C108.961 95.2822 108.443 94.7082 107.603 94.7082C106.763 94.7082 106.231 95.2822 106.231 96.1922V100H104.523ZM118.568 100.182C116.621 100.182 115.082 98.6002 115.082 96.6402C115.082 94.6942 116.621 93.1122 118.568 93.1122C120.514 93.1122 122.054 94.6942 122.054 96.6402C122.054 98.6002 120.514 100.182 118.568 100.182ZM118.568 98.5862C119.604 98.5862 120.346 97.7182 120.346 96.6402C120.346 95.5622 119.604 94.7082 118.568 94.7082C117.532 94.7082 116.79 95.5622 116.79 96.6402C116.79 97.7182 117.532 98.5862 118.568 98.5862ZM125.235 102.744H123.527V93.2942H125.235V94.2462C125.683 93.5602 126.383 93.1122 127.293 93.1122C129.057 93.1122 130.513 94.5542 130.513 96.6542C130.513 98.6702 129.155 100.182 127.293 100.182C126.383 100.182 125.683 99.7762 125.235 99.1042V102.744ZM127.027 98.5862C128.049 98.5862 128.805 97.7322 128.805 96.6542C128.805 95.5762 128.049 94.7082 127.027 94.7082C125.991 94.7082 125.235 95.5762 125.235 96.6542C125.235 97.7322 125.991 98.5862 127.027 98.5862ZM131.277 94.8062V93.2942H132.453V91.5582H134.175V93.2942H135.981V94.8062H134.189V97.6622C134.189 98.2922 134.441 98.5862 134.945 98.5862C135.267 98.5862 135.575 98.4462 135.743 98.2502L136.499 99.5242C136.135 99.8882 135.505 100.182 134.679 100.182C133.321 100.182 132.453 99.3422 132.453 97.7042V94.8062H131.277ZM138.491 92.3982C137.931 92.3982 137.497 91.9502 137.497 91.3902C137.497 90.8442 137.931 90.3962 138.491 90.3962C139.037 90.3962 139.499 90.8442 139.499 91.3902C139.499 91.9502 139.037 92.3982 138.491 92.3982ZM139.345 100H137.637V93.2942H139.345V100ZM144.312 100.182C142.366 100.182 140.826 98.6002 140.826 96.6402C140.826 94.6942 142.366 93.1122 144.312 93.1122C146.258 93.1122 147.798 94.6942 147.798 96.6402C147.798 98.6002 146.258 100.182 144.312 100.182ZM144.312 98.5862C145.348 98.5862 146.09 97.7182 146.09 96.6402C146.09 95.5622 145.348 94.7082 144.312 94.7082C143.276 94.7082 142.534 95.5622 142.534 96.6402C142.534 97.7182 143.276 98.5862 144.312 98.5862ZM149.271 100V93.2942H150.979V94.2462C151.329 93.5322 152.001 93.1122 152.883 93.1122C154.423 93.1122 155.417 94.1902 155.417 95.9402V100H153.709V96.1922C153.709 95.2822 153.191 94.7082 152.351 94.7082C151.511 94.7082 150.979 95.2822 150.979 96.1922V100H149.271Z" fill="black"/>
<path d="M263 118H33V162H263V118Z" fill="#EBEBEB"/>
<path d="M46.0234 144V135.04H49.0194C51.9734 135.04 54.0874 136.902 54.0874 139.52C54.0874 142.138 52.0014 144 49.0754 144H46.0234ZM49.0054 136.678H47.8294V142.348H49.0194C50.9374 142.348 52.2114 141.228 52.2114 139.52C52.2114 137.798 50.9374 136.678 49.0054 136.678ZM55.6057 144V137.294H57.3137V138.288C57.6357 137.574 58.2097 137.112 58.9657 137.112C59.4137 137.112 59.7777 137.224 60.0297 137.434L59.3297 139.044C59.1057 138.876 58.7697 138.764 58.4337 138.764C57.7617 138.764 57.3137 139.338 57.3137 140.248V144H55.6057ZM63.689 144.182C61.743 144.182 60.203 142.6 60.203 140.64C60.203 138.694 61.743 137.112 63.689 137.112C65.635 137.112 67.175 138.694 67.175 140.64C67.175 142.6 65.635 144.182 63.689 144.182ZM63.689 142.586C64.725 142.586 65.467 141.718 65.467 140.64C65.467 139.562 64.725 138.708 63.689 138.708C62.653 138.708 61.911 139.562 61.911 140.64C61.911 141.718 62.653 142.586 63.689 142.586ZM70.3567 146.744H68.6487V137.294H70.3567V138.246C70.8047 137.56 71.5047 137.112 72.4147 137.112C74.1787 137.112 75.6347 138.554 75.6347 140.654C75.6347 142.67 74.2767 144.182 72.4147 144.182C71.5047 144.182 70.8047 143.776 70.3567 143.104V146.744ZM72.1487 142.586C73.1707 142.586 73.9267 141.732 73.9267 140.654C73.9267 139.576 73.1707 138.708 72.1487 138.708C71.1127 138.708 70.3567 139.576 70.3567 140.654C70.3567 141.732 71.1127 142.586 72.1487 142.586ZM79.8563 144.182C78.0923 144.182 76.6503 142.74 76.6503 140.64C76.6503 138.624 78.0083 137.112 79.8563 137.112C80.7663 137.112 81.4663 137.518 81.9143 138.176V134.368H83.6223V144H81.9143V143.048C81.4663 143.734 80.7663 144.182 79.8563 144.182ZM80.1363 142.586C81.1723 142.586 81.9143 141.718 81.9143 140.64C81.9143 139.562 81.1723 138.708 80.1363 138.708C79.1003 138.708 78.3583 139.562 78.3583 140.64C78.3583 141.718 79.1003 142.586 80.1363 142.586ZM88.5718 144.182C86.6258 144.182 85.0858 142.6 85.0858 140.64C85.0858 138.694 86.6258 137.112 88.5718 137.112C90.5178 137.112 92.0578 138.694 92.0578 140.64C92.0578 142.6 90.5178 144.182 88.5718 144.182ZM88.5718 142.586C89.6078 142.586 90.3498 141.718 90.3498 140.64C90.3498 139.562 89.6078 138.708 88.5718 138.708C87.5358 138.708 86.7938 139.562 86.7938 140.64C86.7938 141.718 87.5358 142.586 88.5718 142.586ZM96.5351 144H94.6031L92.5311 137.294H94.3651L95.6111 142.124L96.9691 137.294H98.8171L100.203 142.152L101.477 137.294H103.311L101.239 144H99.1111L97.8091 139.45L96.5351 144ZM104.523 144V137.294H106.231V138.246C106.581 137.532 107.253 137.112 108.135 137.112C109.675 137.112 110.669 138.19 110.669 139.94V144H108.961V140.192C108.961 139.282 108.443 138.708 107.603 138.708C106.763 138.708 106.231 139.282 106.231 140.192V144H104.523ZM118.568 144.182C116.621 144.182 115.082 142.6 115.082 140.64C115.082 138.694 116.621 137.112 118.568 137.112C120.514 137.112 122.054 138.694 122.054 140.64C122.054 142.6 120.514 144.182 118.568 144.182ZM118.568 142.586C119.604 142.586 120.346 141.718 120.346 140.64C120.346 139.562 119.604 138.708 118.568 138.708C117.532 138.708 116.79 139.562 116.79 140.64C116.79 141.718 117.532 142.586 118.568 142.586ZM125.235 146.744H123.527V137.294H125.235V138.246C125.683 137.56 126.383 137.112 127.293 137.112C129.057 137.112 130.513 138.554 130.513 140.654C130.513 142.67 129.155 144.182 127.293 144.182C126.383 144.182 125.683 143.776 125.235 143.104V146.744ZM127.027 142.586C128.049 142.586 128.805 141.732 128.805 140.654C128.805 139.576 128.049 138.708 127.027 138.708C125.991 138.708 125.235 139.576 125.235 140.654C125.235 141.732 125.991 142.586 127.027 142.586ZM131.277 138.806V137.294H132.453V135.558H134.175V137.294H135.981V138.806H134.189V141.662C134.189 142.292 134.441 142.586 134.945 142.586C135.267 142.586 135.575 142.446 135.743 142.25L136.499 143.524C136.135 143.888 135.505 144.182 134.679 144.182C133.321 144.182 132.453 143.342 132.453 141.704V138.806H131.277ZM138.491 136.398C137.931 136.398 137.497 135.95 137.497 135.39C137.497 134.844 137.931 134.396 138.491 134.396C139.037 134.396 139.499 134.844 139.499 135.39C139.499 135.95 139.037 136.398 138.491 136.398ZM139.345 144H137.637V137.294H139.345V144ZM144.312 144.182C142.366 144.182 140.826 142.6 140.826 140.64C140.826 138.694 142.366 137.112 144.312 137.112C146.258 137.112 147.798 138.694 147.798 140.64C147.798 142.6 146.258 144.182 144.312 144.182ZM144.312 142.586C145.348 142.586 146.09 141.718 146.09 140.64C146.09 139.562 145.348 138.708 144.312 138.708C143.276 138.708 142.534 139.562 142.534 140.64C142.534 141.718 143.276 142.586 144.312 142.586ZM149.271 144V137.294H150.979V138.246C151.329 137.532 152.001 137.112 152.883 137.112C154.423 137.112 155.417 138.19 155.417 139.94V144H153.709V140.192C153.709 139.282 153.191 138.708 152.351 138.708C151.511 138.708 150.979 139.282 150.979 140.192V144H149.271Z" fill="#1355E9"/>
</g>
<path d="M255 73.5H41C36.3056 73.5 32.5 77.3056 32.5 82V154C32.5 158.694 36.3056 162.5 41 162.5H255C259.694 162.5 263.5 158.694 263.5 154V82C263.5 77.3056 259.694 73.5 255 73.5Z" stroke="#EBEBEB"/>
</g>
<defs>
<filter id="filter0_d_6343_39398" x="0" y="57" width="296" height="154" filterUnits="userSpaceOnUse" color-interpolation-filters="sRGB">
<feFlood flood-opacity="0" result="BackgroundImageFix"/>
<feColorMatrix in="SourceAlpha" type="matrix" values="0 0 0 0 0 0 0 0 0 0 0 0 0 0 0 0 0 0 127 0" result="hardAlpha"/>
<feOffset dy="16"/>
<feGaussianBlur stdDeviation="16"/>
<feComposite in2="hardAlpha" operator="out"/>
<feColorMatrix type="matrix" values="0 0 0 0 0 0 0 0 0 0 0 0 0 0 0 0 0 0 0.1 0"/>
<feBlend mode="normal" in2="BackgroundImageFix" result="effect1_dropShadow_6343_39398"/>
<feBlend mode="normal" in="SourceGraphic" in2="effect1_dropShadow_6343_39398" result="shape"/>
</filter>
</defs>
</svg>
