<svg width="140" height="46" viewBox="0 0 140 46" fill="none" xmlns="http://www.w3.org/2000/svg">
<path d="M0.730469 10.0001V3.59012H1.98047V8.82012H5.11047V10.0001H0.730469ZM7.71906 10.1301C6.45906 10.1301 5.42906 9.10012 5.42906 7.60012C5.42906 6.16012 6.39906 5.08012 7.71906 5.08012C8.36906 5.08012 8.86906 5.37012 9.18906 5.84012V5.21012H10.4091V10.0001H9.18906V9.32012C8.86906 9.81012 8.36906 10.1301 7.71906 10.1301ZM7.91906 8.99012C8.65906 8.99012 9.18906 8.37012 9.18906 7.60012C9.18906 6.83012 8.65906 6.22012 7.91906 6.22012C7.17906 6.22012 6.64906 6.83012 6.64906 7.60012C6.64906 8.37012 7.17906 8.99012 7.91906 8.99012ZM14.4545 5.08012C15.7145 5.08012 16.7545 6.11012 16.7545 7.61012C16.7545 9.05012 15.7845 10.1301 14.4545 10.1301C13.8045 10.1301 13.3045 9.84012 12.9845 9.36012V10.0001H11.7645V3.12012H12.9845V5.89012C13.3045 5.40012 13.8045 5.08012 14.4545 5.08012ZM14.2645 6.22012C13.5245 6.22012 12.9845 6.84012 12.9845 7.61012C12.9845 8.38012 13.5245 8.99012 14.2645 8.99012C14.9945 8.99012 15.5345 8.38012 15.5345 7.61012C15.5345 6.84012 14.9945 6.22012 14.2645 6.22012ZM20.0499 10.1301C18.5599 10.1301 17.4799 9.00012 17.4799 7.60012C17.4799 6.21012 18.5099 5.08012 19.8899 5.08012C21.2599 5.08012 22.3099 6.13012 22.3099 7.51012C22.3099 7.67012 22.2999 7.86012 22.2799 7.94012H18.7299C18.8599 8.60012 19.3599 9.06012 20.0899 9.06012C20.5799 9.06012 20.9899 8.85012 21.2699 8.56012L21.8999 9.40012C21.5299 9.81012 20.8499 10.1301 20.0499 10.1301ZM19.9099 6.11012C19.3299 6.11012 18.9099 6.51012 18.7599 7.09012H21.0499C20.8999 6.45012 20.4699 6.11012 19.9099 6.11012ZM25.1379 8.94012L25.2679 10.0101C25.0879 10.0701 24.8579 10.1101 24.6779 10.1101C23.9879 10.1101 23.2879 9.67012 23.2879 8.45012V3.12012H24.5079V8.48012C24.5079 8.85012 24.7179 8.99012 24.9379 8.99012C24.9979 8.99012 25.0779 8.97012 25.1379 8.94012Z" fill="black"/>
<path fill-rule="evenodd" clip-rule="evenodd" d="M30 7C30 4.24284 32.2428 2 35 2C37.7572 2 40 4.24284 40 7C40 9.75716 37.7572 12 35 12C32.2428 12 30 9.75716 30 7ZM39.2308 7C39.2308 4.6582 37.3418 2.76923 35 2.76923C32.6582 2.76923 30.7692 4.6582 30.7692 7C30.7692 9.3418 32.6582 11.2308 35 11.2308C37.3418 11.2308 39.2308 9.3418 39.2308 7ZM35.5769 9.11539C35.5769 9.43401 35.3186 9.69231 35 9.69231C34.6814 9.69231 34.4231 9.43401 34.4231 9.11539C34.4231 8.79676 34.6814 8.53846 35 8.53846C35.3186 8.53846 35.5769 8.79676 35.5769 9.11539ZM33.2692 6.01709C33.2692 5.07726 34.0484 4.30769 35 4.30769C35.9516 4.30769 36.7308 5.07726 36.7308 6.01709C36.7308 6.70987 36.2744 7.3342 35.6085 7.55289L35.4327 7.6063V8.15385H34.5673V7.6063C34.5673 7.24072 34.809 6.90685 35.1623 6.79167L35.338 6.73825C35.6524 6.63475 35.8654 6.34428 35.8654 6.01709C35.8654 5.53966 35.4834 5.16239 35 5.16239C34.5166 5.16239 34.1346 5.53966 34.1346 6.01709H33.2692Z" fill="#1355E9"/>
<path d="M132 18.5H8C3.85786 18.5 0.5 21.8579 0.5 26V38C0.5 42.1421 3.85786 45.5 8 45.5H132C136.142 45.5 139.5 42.1421 139.5 38V26C139.5 21.8579 136.142 18.5 132 18.5Z" fill="white"/>
<path d="M132 18.5H8C3.85786 18.5 0.5 21.8579 0.5 26V38C0.5 42.1421 3.85786 45.5 8 45.5H132C136.142 45.5 139.5 42.1421 139.5 38V26C139.5 21.8579 136.142 18.5 132 18.5Z" stroke="#EBEBEB"/>
<path d="M12.7305 35.0002V28.6002H14.8705C16.9805 28.6002 18.4905 29.9302 18.4905 31.8002C18.4905 33.6702 17.0005 35.0002 14.9105 35.0002H12.7305ZM14.8605 29.7702H14.0205V33.8202H14.8705C16.2405 33.8202 17.1505 33.0202 17.1505 31.8002C17.1505 30.5702 16.2405 29.7702 14.8605 29.7702ZM21.835 35.1302C20.345 35.1302 19.265 34.0002 19.265 32.6002C19.265 31.2102 20.295 30.0802 21.675 30.0802C23.045 30.0802 24.095 31.1302 24.095 32.5102C24.095 32.6702 24.085 32.8602 24.065 32.9402H20.515C20.645 33.6002 21.145 34.0602 21.875 34.0602C22.365 34.0602 22.775 33.8502 23.055 33.5602L23.685 34.4002C23.315 34.8102 22.635 35.1302 21.835 35.1302ZM21.695 31.1102C21.115 31.1102 20.695 31.5102 20.545 32.0902H22.835C22.685 31.4502 22.255 31.1102 21.695 31.1102ZM24.6431 31.2902V30.2102H25.4231V29.9302C25.4231 28.7202 26.1131 27.9902 27.1831 27.9902C27.8331 27.9902 28.2531 28.1702 28.5631 28.4802L27.9631 29.4002C27.8231 29.2502 27.5631 29.1302 27.3031 29.1302C26.9031 29.1302 26.6531 29.4002 26.6531 29.9202V30.2102H27.8931V31.2902H26.6531V35.0002H25.4231V31.2902H24.6431ZM30.5101 35.1302C29.2501 35.1302 28.2201 34.1002 28.2201 32.6002C28.2201 31.1602 29.1901 30.0802 30.5101 30.0802C31.1601 30.0802 31.6601 30.3702 31.9801 30.8402V30.2102H33.2001V35.0002H31.9801V34.3202C31.6601 34.8102 31.1601 35.1302 30.5101 35.1302ZM30.7101 33.9902C31.4501 33.9902 31.9801 33.3702 31.9801 32.6002C31.9801 31.8302 31.4501 31.2202 30.7101 31.2202C29.9701 31.2202 29.4401 31.8302 29.4401 32.6002C29.4401 33.3702 29.9701 33.9902 30.7101 33.9902ZM35.7155 30.2102V32.8002C35.7155 33.5002 36.1155 33.9702 36.7255 33.9702C37.3355 33.9702 37.7455 33.5002 37.7455 32.8002V30.2102H38.9755V32.8902C38.9755 34.2302 38.0755 35.1202 36.7255 35.1202C35.3755 35.1202 34.4955 34.2302 34.4955 32.8902V30.2102H35.7155ZM42.1184 33.9402L42.2484 35.0102C42.0684 35.0702 41.8384 35.1102 41.6584 35.1102C40.9684 35.1102 40.2684 34.6702 40.2684 33.4502V28.1202H41.4884V33.4802C41.4884 33.8502 41.6984 33.9902 41.9184 33.9902C41.9784 33.9902 42.0584 33.9702 42.1184 33.9402ZM42.7764 31.2902V30.2102H43.6164V28.9702H44.8464V30.2102H46.1364V31.2902H44.8564V33.3302C44.8564 33.7802 45.0364 33.9902 45.3964 33.9902C45.6264 33.9902 45.8464 33.8902 45.9664 33.7502L46.5064 34.6602C46.2464 34.9202 45.7964 35.1302 45.2064 35.1302C44.2364 35.1302 43.6164 34.5302 43.6164 33.3602V31.2902H42.7764ZM52.4978 28.4602C54.3278 28.4602 55.8178 29.9602 55.8178 31.8102C55.8178 33.6402 54.3278 35.1302 52.4978 35.1302C50.6678 35.1302 49.1778 33.6302 49.1778 31.8002C49.1778 29.9502 50.6678 28.4602 52.4978 28.4602ZM52.4978 33.8902C53.5978 33.8902 54.4878 32.9502 54.4878 31.8102C54.4878 30.6502 53.5978 29.7002 52.4978 29.7002C51.3978 29.7002 50.5178 30.6402 50.5178 31.8002C50.5178 32.9502 51.3978 33.8902 52.4978 33.8902ZM58.1193 36.9602H56.8993V30.2102H58.1193V30.8902C58.4393 30.4002 58.9393 30.0802 59.5893 30.0802C60.8493 30.0802 61.8893 31.1102 61.8893 32.6102C61.8893 34.0502 60.9193 35.1302 59.5893 35.1302C58.9393 35.1302 58.4393 34.8402 58.1193 34.3602V36.9602ZM59.3993 33.9902C60.1293 33.9902 60.6693 33.3802 60.6693 32.6102C60.6693 31.8402 60.1293 31.2202 59.3993 31.2202C58.6593 31.2202 58.1193 31.8402 58.1193 32.6102C58.1193 33.3802 58.6593 33.9902 59.3993 33.9902ZM62.4346 31.2902V30.2102H63.2746V28.9702H64.5046V30.2102H65.7946V31.2902H64.5146V33.3302C64.5146 33.7802 64.6946 33.9902 65.0546 33.9902C65.2846 33.9902 65.5046 33.8902 65.6246 33.7502L66.1646 34.6602C65.9046 34.9202 65.4546 35.1302 64.8646 35.1302C63.8946 35.1302 63.2746 34.5302 63.2746 33.3602V31.2902H62.4346ZM67.5874 29.5702C67.1874 29.5702 66.8774 29.2502 66.8774 28.8502C66.8774 28.4602 67.1874 28.1402 67.5874 28.1402C67.9774 28.1402 68.3074 28.4602 68.3074 28.8502C68.3074 29.2502 67.9774 29.5702 67.5874 29.5702ZM68.1974 35.0002H66.9774V30.2102H68.1974V35.0002ZM71.7453 35.1302C70.3553 35.1302 69.2553 34.0002 69.2553 32.6002C69.2553 31.2102 70.3553 30.0802 71.7453 30.0802C73.1353 30.0802 74.2353 31.2102 74.2353 32.6002C74.2353 34.0002 73.1353 35.1302 71.7453 35.1302ZM71.7453 33.9902C72.4853 33.9902 73.0153 33.3702 73.0153 32.6002C73.0153 31.8302 72.4853 31.2202 71.7453 31.2202C71.0053 31.2202 70.4753 31.8302 70.4753 32.6002C70.4753 33.3702 71.0053 33.9902 71.7453 33.9902ZM75.2879 35.0002V30.2102H76.5079V30.8902C76.7579 30.3802 77.2379 30.0802 77.8679 30.0802C78.9679 30.0802 79.6779 30.8502 79.6779 32.1002V35.0002H78.4579V32.2802C78.4579 31.6302 78.0879 31.2202 77.4879 31.2202C76.8879 31.2202 76.5079 31.6302 76.5079 32.2802V35.0002H75.2879Z" fill="black"/>
<path d="M124 35L119 29.9524L120 29L124 33.2857L128 29L129 29.9524L124 35Z" fill="black"/>
</svg>
