<svg width="231" height="44" viewBox="0 0 231 44" fill="none" xmlns="http://www.w3.org/2000/svg">
<g clip-path="url(#clip0_6343_39497)">
<path d="M222.5 0.5H8.5C4.35786 0.5 1 3.85786 1 8V36C1 40.1421 4.35786 43.5 8.5 43.5H222.5C226.642 43.5 230 40.1421 230 36V8C230 3.85786 226.642 0.5 222.5 0.5Z" fill="white"/>
<path d="M222.5 0.5H8.5C4.35786 0.5 1 3.85786 1 8V36C1 40.1421 4.35786 43.5 8.5 43.5H222.5C226.642 43.5 230 40.1421 230 36V8C230 3.85786 226.642 0.5 222.5 0.5Z" stroke="#EBEBEB"/>
<path d="M13.5234 26V17.04H16.5194C19.4734 17.04 21.5874 18.902 21.5874 21.52C21.5874 24.138 19.5014 26 16.5754 26H13.5234ZM16.5054 18.678H15.3294V24.348H16.5194C18.4374 24.348 19.7114 23.228 19.7114 21.52C19.7114 19.798 18.4374 18.678 16.5054 18.678ZM26.2697 26.182C24.1837 26.182 22.6717 24.6 22.6717 22.64C22.6717 20.694 24.1137 19.112 26.0457 19.112C27.9637 19.112 29.4337 20.582 29.4337 22.514C29.4337 22.738 29.4197 23.004 29.3917 23.116H24.4217C24.6037 24.04 25.3037 24.684 26.3257 24.684C27.0117 24.684 27.5857 24.39 27.9777 23.984L28.8597 25.16C28.3417 25.734 27.3897 26.182 26.2697 26.182ZM26.0737 20.554C25.2617 20.554 24.6737 21.114 24.4637 21.926H27.6697C27.4597 21.03 26.8577 20.554 26.0737 20.554ZM30.201 20.806V19.294H31.293V18.902C31.293 17.208 32.259 16.186 33.757 16.186C34.667 16.186 35.255 16.438 35.689 16.872L34.849 18.16C34.653 17.95 34.289 17.782 33.925 17.782C33.365 17.782 33.015 18.16 33.015 18.888V19.294H34.751V20.806H33.015V26H31.293V20.806H30.201ZM38.4149 26.182C36.6509 26.182 35.2089 24.74 35.2089 22.64C35.2089 20.624 36.5669 19.112 38.4149 19.112C39.3249 19.112 40.0249 19.518 40.4729 20.176V19.294H42.1809V26H40.4729V25.048C40.0249 25.734 39.3249 26.182 38.4149 26.182ZM38.6949 24.586C39.7309 24.586 40.4729 23.718 40.4729 22.64C40.4729 21.562 39.7309 20.708 38.6949 20.708C37.6589 20.708 36.9169 21.562 36.9169 22.64C36.9169 23.718 37.6589 24.586 38.6949 24.586ZM45.7024 19.294V22.92C45.7024 23.9 46.2624 24.558 47.1164 24.558C47.9704 24.558 48.5444 23.9 48.5444 22.92V19.294H50.2664V23.046C50.2664 24.922 49.0064 26.168 47.1164 26.168C45.2264 26.168 43.9944 24.922 43.9944 23.046V19.294H45.7024ZM54.6664 24.516L54.8484 26.014C54.5964 26.098 54.2744 26.154 54.0224 26.154C53.0564 26.154 52.0764 25.538 52.0764 23.83V16.368H53.7844V23.872C53.7844 24.39 54.0784 24.586 54.3864 24.586C54.4704 24.586 54.5824 24.558 54.6664 24.516ZM55.5877 20.806V19.294H56.7637V17.558H58.4857V19.294H60.2917V20.806H58.4997V23.662C58.4997 24.292 58.7517 24.586 59.2557 24.586C59.5777 24.586 59.8857 24.446 60.0537 24.25L60.8097 25.524C60.4457 25.888 59.8157 26.182 58.9897 26.182C57.6317 26.182 56.7637 25.342 56.7637 23.704V20.806H55.5877ZM69.1977 16.844C71.7597 16.844 73.8457 18.944 73.8457 21.534C73.8457 24.096 71.7597 26.182 69.1977 26.182C66.6357 26.182 64.5497 24.082 64.5497 21.52C64.5497 18.93 66.6357 16.844 69.1977 16.844ZM69.1977 24.446C70.7377 24.446 71.9837 23.13 71.9837 21.534C71.9837 19.91 70.7377 18.58 69.1977 18.58C67.6577 18.58 66.4257 19.896 66.4257 21.52C66.4257 23.13 67.6577 24.446 69.1977 24.446ZM77.0677 28.744H75.3597V19.294H77.0677V20.246C77.5157 19.56 78.2157 19.112 79.1257 19.112C80.8897 19.112 82.3457 20.554 82.3457 22.654C82.3457 24.67 80.9877 26.182 79.1257 26.182C78.2157 26.182 77.5157 25.776 77.0677 25.104V28.744ZM78.8597 24.586C79.8817 24.586 80.6377 23.732 80.6377 22.654C80.6377 21.576 79.8817 20.708 78.8597 20.708C77.8237 20.708 77.0677 21.576 77.0677 22.654C77.0677 23.732 77.8237 24.586 78.8597 24.586ZM83.1092 20.806V19.294H84.2852V17.558H86.0072V19.294H87.8132V20.806H86.0212V23.662C86.0212 24.292 86.2732 24.586 86.7772 24.586C87.0992 24.586 87.4072 24.446 87.5752 24.25L88.3312 25.524C87.9672 25.888 87.3372 26.182 86.5112 26.182C85.1532 26.182 84.2852 25.342 84.2852 23.704V20.806H83.1092ZM90.323 18.398C89.763 18.398 89.329 17.95 89.329 17.39C89.329 16.844 89.763 16.396 90.323 16.396C90.869 16.396 91.331 16.844 91.331 17.39C91.331 17.95 90.869 18.398 90.323 18.398ZM91.177 26H89.469V19.294H91.177V26ZM96.1441 26.182C94.1981 26.182 92.6581 24.6 92.6581 22.64C92.6581 20.694 94.1981 19.112 96.1441 19.112C98.0901 19.112 99.6301 20.694 99.6301 22.64C99.6301 24.6 98.0901 26.182 96.1441 26.182ZM96.1441 24.586C97.1801 24.586 97.9221 23.718 97.9221 22.64C97.9221 21.562 97.1801 20.708 96.1441 20.708C95.1081 20.708 94.3661 21.562 94.3661 22.64C94.3661 23.718 95.1081 24.586 96.1441 24.586ZM101.103 26V19.294H102.811V20.246C103.161 19.532 103.833 19.112 104.715 19.112C106.255 19.112 107.249 20.19 107.249 21.94V26H105.541V22.192C105.541 21.282 105.023 20.708 104.183 20.708C103.343 20.708 102.811 21.282 102.811 22.192V26H101.103Z" fill="black"/>
<path d="M212.5 25L207.5 19.9524L208.5 19L212.5 23.2857L216.5 19L217.5 19.9524L212.5 25Z" fill="black"/>
</g>
<defs>
<clipPath id="clip0_6343_39497">
<rect width="231" height="44" fill="white"/>
</clipPath>
</defs>
</svg>
