<svg width="230" height="83" viewBox="0 0 230 83" fill="none" xmlns="http://www.w3.org/2000/svg">
<g clip-path="url(#clip0_6343_39522)">
<path d="M1.02344 15.5002V6.54016H4.01944C6.97344 6.54016 9.08744 8.40216 9.08744 11.0202C9.08744 13.6382 7.00144 15.5002 4.07544 15.5002H1.02344ZM4.00544 8.17816H2.82944V13.8482H4.01944C5.93744 13.8482 7.21144 12.7282 7.21144 11.0202C7.21144 9.29816 5.93744 8.17816 4.00544 8.17816ZM10.6057 15.5002V8.79416H12.3137V9.78816C12.6357 9.07416 13.2097 8.61216 13.9657 8.61216C14.4137 8.61216 14.7777 8.72416 15.0297 8.93416L14.3297 10.5442C14.1057 10.3762 13.7697 10.2642 13.4337 10.2642C12.7617 10.2642 12.3137 10.8382 12.3137 11.7482V15.5002H10.6057ZM18.689 15.6822C16.743 15.6822 15.203 14.1002 15.203 12.1402C15.203 10.1942 16.743 8.61216 18.689 8.61216C20.635 8.61216 22.175 10.1942 22.175 12.1402C22.175 14.1002 20.635 15.6822 18.689 15.6822ZM18.689 14.0862C19.725 14.0862 20.467 13.2182 20.467 12.1402C20.467 11.0622 19.725 10.2082 18.689 10.2082C17.653 10.2082 16.911 11.0622 16.911 12.1402C16.911 13.2182 17.653 14.0862 18.689 14.0862ZM25.3567 18.2442H23.6487V8.79416H25.3567V9.74616C25.8047 9.06016 26.5047 8.61216 27.4147 8.61216C29.1787 8.61216 30.6347 10.0542 30.6347 12.1542C30.6347 14.1702 29.2767 15.6822 27.4147 15.6822C26.5047 15.6822 25.8047 15.2762 25.3567 14.6042V18.2442ZM27.1487 14.0862C28.1707 14.0862 28.9267 13.2322 28.9267 12.1542C28.9267 11.0762 28.1707 10.2082 27.1487 10.2082C26.1127 10.2082 25.3567 11.0762 25.3567 12.1542C25.3567 13.2322 26.1127 14.0862 27.1487 14.0862ZM34.8563 15.6822C33.0923 15.6822 31.6503 14.2402 31.6503 12.1402C31.6503 10.1242 33.0083 8.61216 34.8563 8.61216C35.7663 8.61216 36.4663 9.01816 36.9143 9.67616V5.86816H38.6223V15.5002H36.9143V14.5482C36.4663 15.2342 35.7663 15.6822 34.8563 15.6822ZM35.1363 14.0862C36.1723 14.0862 36.9143 13.2182 36.9143 12.1402C36.9143 11.0622 36.1723 10.2082 35.1363 10.2082C34.1003 10.2082 33.3583 11.0622 33.3583 12.1402C33.3583 13.2182 34.1003 14.0862 35.1363 14.0862ZM43.5718 15.6822C41.6258 15.6822 40.0858 14.1002 40.0858 12.1402C40.0858 10.1942 41.6258 8.61216 43.5718 8.61216C45.5178 8.61216 47.0578 10.1942 47.0578 12.1402C47.0578 14.1002 45.5178 15.6822 43.5718 15.6822ZM43.5718 14.0862C44.6078 14.0862 45.3498 13.2182 45.3498 12.1402C45.3498 11.0622 44.6078 10.2082 43.5718 10.2082C42.5358 10.2082 41.7938 11.0622 41.7938 12.1402C41.7938 13.2182 42.5358 14.0862 43.5718 14.0862ZM51.5351 15.5002H49.6031L47.5311 8.79416H49.3651L50.6111 13.6242L51.9691 8.79416H53.8171L55.2031 13.6522L56.4771 8.79416H58.3111L56.2391 15.5002H54.1111L52.8091 10.9502L51.5351 15.5002ZM59.5237 15.5002V8.79416H61.2317V9.74616C61.5817 9.03216 62.2537 8.61216 63.1357 8.61216C64.6757 8.61216 65.6697 9.69016 65.6697 11.4402V15.5002H63.9617V11.6922C63.9617 10.7822 63.4437 10.2082 62.6037 10.2082C61.7637 10.2082 61.2317 10.7822 61.2317 11.6922V15.5002H59.5237ZM70.5859 15.5002V6.52616H72.3359V13.8482H76.7179V15.5002H70.5859ZM80.3699 15.6822C78.6059 15.6822 77.1639 14.2402 77.1639 12.1402C77.1639 10.1242 78.5219 8.61216 80.3699 8.61216C81.2799 8.61216 81.9799 9.01816 82.4279 9.67616V8.79416H84.1359V15.5002H82.4279V14.5482C81.9799 15.2342 81.2799 15.6822 80.3699 15.6822ZM80.6499 14.0862C81.6859 14.0862 82.4279 13.2182 82.4279 12.1402C82.4279 11.0622 81.6859 10.2082 80.6499 10.2082C79.6139 10.2082 78.8719 11.0622 78.8719 12.1402C78.8719 13.2182 79.6139 14.0862 80.6499 14.0862ZM89.7995 8.61216C91.5635 8.61216 93.0195 10.0542 93.0195 12.1542C93.0195 14.1702 91.6615 15.6822 89.7995 15.6822C88.8895 15.6822 88.1895 15.2762 87.7415 14.6042V15.5002H86.0335V5.86816H87.7415V9.74616C88.1895 9.06016 88.8895 8.61216 89.7995 8.61216ZM89.5335 10.2082C88.4975 10.2082 87.7415 11.0762 87.7415 12.1542C87.7415 13.2322 88.4975 14.0862 89.5335 14.0862C90.5555 14.0862 91.3115 13.2322 91.3115 12.1542C91.3115 11.0762 90.5555 10.2082 89.5335 10.2082ZM97.633 15.6822C95.547 15.6822 94.035 14.1002 94.035 12.1402C94.035 10.1942 95.477 8.61216 97.409 8.61216C99.327 8.61216 100.797 10.0822 100.797 12.0142C100.797 12.2382 100.783 12.5042 100.755 12.6162H95.785C95.967 13.5402 96.667 14.1842 97.689 14.1842C98.375 14.1842 98.949 13.8902 99.341 13.4842L100.223 14.6602C99.705 15.2342 98.753 15.6822 97.633 15.6822ZM97.437 10.0542C96.625 10.0542 96.037 10.6142 95.827 11.4262H99.033C98.823 10.5302 98.221 10.0542 97.437 10.0542ZM104.756 14.0162L104.938 15.5142C104.686 15.5982 104.364 15.6542 104.112 15.6542C103.146 15.6542 102.166 15.0382 102.166 13.3302V5.86816H103.874V13.3722C103.874 13.8902 104.168 14.0862 104.476 14.0862C104.56 14.0862 104.672 14.0582 104.756 14.0162Z" fill="black"/>
<path fill-rule="evenodd" clip-rule="evenodd" d="M110 11.5C110 7.08854 113.589 3.5 118 3.5C122.411 3.5 126 7.08854 126 11.5C126 15.9115 122.411 19.5 118 19.5C113.589 19.5 110 15.9115 110 11.5ZM124.769 11.5C124.769 7.75312 121.747 4.73077 118 4.73077C114.253 4.73077 111.231 7.75312 111.231 11.5C111.231 15.2469 114.253 18.2692 118 18.2692C121.747 18.2692 124.769 15.2469 124.769 11.5ZM118.923 14.8846C118.923 15.3944 118.51 15.8077 118 15.8077C117.49 15.8077 117.077 15.3944 117.077 14.8846C117.077 14.3748 117.49 13.9615 118 13.9615C118.51 13.9615 118.923 14.3748 118.923 14.8846ZM115.231 9.92735C115.231 8.42361 116.477 7.19231 118 7.19231C119.523 7.19231 120.769 8.42361 120.769 9.92735C120.769 11.0358 120.039 12.0347 118.974 12.3846L118.692 12.4701V13.3462H117.308V12.4701C117.308 11.8851 117.694 11.351 118.26 11.1667L118.541 11.0812C119.044 10.9156 119.385 10.4509 119.385 9.92735C119.385 9.16346 118.773 8.55983 118 8.55983C117.227 8.55983 116.615 9.16346 116.615 9.92735H115.231Z" fill="#1355E9"/>
<path d="M218 27H12C5.64873 27 0.5 32.1487 0.5 38.5V70.5C0.5 76.8513 5.64873 82 12 82H218C224.351 82 229.5 76.8513 229.5 70.5V38.5C229.5 32.1487 224.351 27 218 27Z" stroke="black"/>
<path d="M217 33H13C8.85786 33 5.5 36.3579 5.5 40.5V68.5C5.5 72.6421 8.85786 76 13 76H217C221.142 76 224.5 72.6421 224.5 68.5V40.5C224.5 36.3579 221.142 33 217 33Z" fill="white"/>
<path d="M217 33H13C8.85786 33 5.5 36.3579 5.5 40.5V68.5C5.5 72.6421 8.85786 76 13 76H217C221.142 76 224.5 72.6421 224.5 68.5V40.5C224.5 36.3579 221.142 33 217 33Z" stroke="#EBEBEB"/>
<path d="M18.0234 58.5V49.54H21.0194C23.9734 49.54 26.0874 51.402 26.0874 54.02C26.0874 56.638 24.0014 58.5 21.0754 58.5H18.0234ZM21.0054 51.178H19.8294V56.848H21.0194C22.9374 56.848 24.2114 55.728 24.2114 54.02C24.2114 52.298 22.9374 51.178 21.0054 51.178ZM30.7697 58.682C28.6837 58.682 27.1717 57.1 27.1717 55.14C27.1717 53.194 28.6137 51.612 30.5457 51.612C32.4637 51.612 33.9337 53.082 33.9337 55.014C33.9337 55.238 33.9197 55.504 33.8917 55.616H28.9217C29.1037 56.54 29.8037 57.184 30.8257 57.184C31.5117 57.184 32.0857 56.89 32.4777 56.484L33.3597 57.66C32.8417 58.234 31.8897 58.682 30.7697 58.682ZM30.5737 53.054C29.7617 53.054 29.1737 53.614 28.9637 54.426H32.1697C31.9597 53.53 31.3577 53.054 30.5737 53.054ZM34.701 53.306V51.794H35.793V51.402C35.793 49.708 36.759 48.686 38.257 48.686C39.167 48.686 39.755 48.938 40.189 49.372L39.349 50.66C39.153 50.45 38.789 50.282 38.425 50.282C37.865 50.282 37.515 50.66 37.515 51.388V51.794H39.251V53.306H37.515V58.5H35.793V53.306H34.701ZM42.9149 58.682C41.1509 58.682 39.7089 57.24 39.7089 55.14C39.7089 53.124 41.0669 51.612 42.9149 51.612C43.8249 51.612 44.5249 52.018 44.9729 52.676V51.794H46.6809V58.5H44.9729V57.548C44.5249 58.234 43.8249 58.682 42.9149 58.682ZM43.1949 57.086C44.2309 57.086 44.9729 56.218 44.9729 55.14C44.9729 54.062 44.2309 53.208 43.1949 53.208C42.1589 53.208 41.4169 54.062 41.4169 55.14C41.4169 56.218 42.1589 57.086 43.1949 57.086ZM50.2024 51.794V55.42C50.2024 56.4 50.7624 57.058 51.6164 57.058C52.4704 57.058 53.0444 56.4 53.0444 55.42V51.794H54.7664V55.546C54.7664 57.422 53.5064 58.668 51.6164 58.668C49.7264 58.668 48.4944 57.422 48.4944 55.546V51.794H50.2024ZM59.1664 57.016L59.3484 58.514C59.0964 58.598 58.7744 58.654 58.5224 58.654C57.5564 58.654 56.5764 58.038 56.5764 56.33V48.868H58.2844V56.372C58.2844 56.89 58.5784 57.086 58.8864 57.086C58.9704 57.086 59.0824 57.058 59.1664 57.016ZM60.0877 53.306V51.794H61.2637V50.058H62.9857V51.794H64.7917V53.306H62.9997V56.162C62.9997 56.792 63.2517 57.086 63.7557 57.086C64.0777 57.086 64.3857 56.946 64.5537 56.75L65.3097 58.024C64.9457 58.388 64.3157 58.682 63.4897 58.682C62.1317 58.682 61.2637 57.842 61.2637 56.204V53.306H60.0877ZM73.6977 49.344C76.2597 49.344 78.3457 51.444 78.3457 54.034C78.3457 56.596 76.2597 58.682 73.6977 58.682C71.1357 58.682 69.0497 56.582 69.0497 54.02C69.0497 51.43 71.1357 49.344 73.6977 49.344ZM73.6977 56.946C75.2377 56.946 76.4837 55.63 76.4837 54.034C76.4837 52.41 75.2377 51.08 73.6977 51.08C72.1577 51.08 70.9257 52.396 70.9257 54.02C70.9257 55.63 72.1577 56.946 73.6977 56.946ZM81.5677 61.244H79.8597V51.794H81.5677V52.746C82.0157 52.06 82.7157 51.612 83.6257 51.612C85.3897 51.612 86.8457 53.054 86.8457 55.154C86.8457 57.17 85.4877 58.682 83.6257 58.682C82.7157 58.682 82.0157 58.276 81.5677 57.604V61.244ZM83.3597 57.086C84.3817 57.086 85.1377 56.232 85.1377 55.154C85.1377 54.076 84.3817 53.208 83.3597 53.208C82.3237 53.208 81.5677 54.076 81.5677 55.154C81.5677 56.232 82.3237 57.086 83.3597 57.086ZM87.6092 53.306V51.794H88.7852V50.058H90.5072V51.794H92.3132V53.306H90.5212V56.162C90.5212 56.792 90.7732 57.086 91.2772 57.086C91.5992 57.086 91.9072 56.946 92.0752 56.75L92.8312 58.024C92.4672 58.388 91.8372 58.682 91.0112 58.682C89.6532 58.682 88.7852 57.842 88.7852 56.204V53.306H87.6092ZM94.823 50.898C94.263 50.898 93.829 50.45 93.829 49.89C93.829 49.344 94.263 48.896 94.823 48.896C95.369 48.896 95.831 49.344 95.831 49.89C95.831 50.45 95.369 50.898 94.823 50.898ZM95.677 58.5H93.969V51.794H95.677V58.5ZM100.644 58.682C98.6981 58.682 97.1581 57.1 97.1581 55.14C97.1581 53.194 98.6981 51.612 100.644 51.612C102.59 51.612 104.13 53.194 104.13 55.14C104.13 57.1 102.59 58.682 100.644 58.682ZM100.644 57.086C101.68 57.086 102.422 56.218 102.422 55.14C102.422 54.062 101.68 53.208 100.644 53.208C99.6081 53.208 98.8661 54.062 98.8661 55.14C98.8661 56.218 99.6081 57.086 100.644 57.086ZM105.603 58.5V51.794H107.311V52.746C107.661 52.032 108.333 51.612 109.215 51.612C110.755 51.612 111.749 52.69 111.749 54.44V58.5H110.041V54.692C110.041 53.782 109.523 53.208 108.683 53.208C107.843 53.208 107.311 53.782 107.311 54.692V58.5H105.603Z" fill="black"/>
<path d="M207 57.5L202 52.4524L203 51.5L207 55.7857L211 51.5L212 52.4524L207 57.5Z" fill="black"/>
</g>
<defs>
<clipPath id="clip0_6343_39522">
<rect width="230" height="82" fill="white" transform="translate(0 0.5)"/>
</clipPath>
</defs>
</svg>
