<svg width="230" height="71" viewBox="0 0 230 71" fill="none" xmlns="http://www.w3.org/2000/svg">
<g clip-path="url(#clip0_6343_39306)">
<path d="M1.02344 15.5002V6.54016H4.01944C6.97344 6.54016 9.08744 8.40216 9.08744 11.0202C9.08744 13.6382 7.00144 15.5002 4.07544 15.5002H1.02344ZM4.00544 8.17816H2.82944V13.8482H4.01944C5.93744 13.8482 7.21144 12.7282 7.21144 11.0202C7.21144 9.29816 5.93744 8.17816 4.00544 8.17816ZM10.6057 15.5002V8.79416H12.3137V9.78816C12.6357 9.07416 13.2097 8.61216 13.9657 8.61216C14.4137 8.61216 14.7777 8.72416 15.0297 8.93416L14.3297 10.5442C14.1057 10.3762 13.7697 10.2642 13.4337 10.2642C12.7617 10.2642 12.3137 10.8382 12.3137 11.7482V15.5002H10.6057ZM18.689 15.6822C16.743 15.6822 15.203 14.1002 15.203 12.1402C15.203 10.1942 16.743 8.61216 18.689 8.61216C20.635 8.61216 22.175 10.1942 22.175 12.1402C22.175 14.1002 20.635 15.6822 18.689 15.6822ZM18.689 14.0862C19.725 14.0862 20.467 13.2182 20.467 12.1402C20.467 11.0622 19.725 10.2082 18.689 10.2082C17.653 10.2082 16.911 11.0622 16.911 12.1402C16.911 13.2182 17.653 14.0862 18.689 14.0862ZM25.3567 18.2442H23.6487V8.79416H25.3567V9.74616C25.8047 9.06016 26.5047 8.61216 27.4147 8.61216C29.1787 8.61216 30.6347 10.0542 30.6347 12.1542C30.6347 14.1702 29.2767 15.6822 27.4147 15.6822C26.5047 15.6822 25.8047 15.2762 25.3567 14.6042V18.2442ZM27.1487 14.0862C28.1707 14.0862 28.9267 13.2322 28.9267 12.1542C28.9267 11.0762 28.1707 10.2082 27.1487 10.2082C26.1127 10.2082 25.3567 11.0762 25.3567 12.1542C25.3567 13.2322 26.1127 14.0862 27.1487 14.0862ZM34.8563 15.6822C33.0923 15.6822 31.6503 14.2402 31.6503 12.1402C31.6503 10.1242 33.0083 8.61216 34.8563 8.61216C35.7663 8.61216 36.4663 9.01816 36.9143 9.67616V5.86816H38.6223V15.5002H36.9143V14.5482C36.4663 15.2342 35.7663 15.6822 34.8563 15.6822ZM35.1363 14.0862C36.1723 14.0862 36.9143 13.2182 36.9143 12.1402C36.9143 11.0622 36.1723 10.2082 35.1363 10.2082C34.1003 10.2082 33.3583 11.0622 33.3583 12.1402C33.3583 13.2182 34.1003 14.0862 35.1363 14.0862ZM43.5718 15.6822C41.6258 15.6822 40.0858 14.1002 40.0858 12.1402C40.0858 10.1942 41.6258 8.61216 43.5718 8.61216C45.5178 8.61216 47.0578 10.1942 47.0578 12.1402C47.0578 14.1002 45.5178 15.6822 43.5718 15.6822ZM43.5718 14.0862C44.6078 14.0862 45.3498 13.2182 45.3498 12.1402C45.3498 11.0622 44.6078 10.2082 43.5718 10.2082C42.5358 10.2082 41.7938 11.0622 41.7938 12.1402C41.7938 13.2182 42.5358 14.0862 43.5718 14.0862ZM51.5351 15.5002H49.6031L47.5311 8.79416H49.3651L50.6111 13.6242L51.9691 8.79416H53.8171L55.2031 13.6522L56.4771 8.79416H58.3111L56.2391 15.5002H54.1111L52.8091 10.9502L51.5351 15.5002ZM59.5237 15.5002V8.79416H61.2317V9.74616C61.5817 9.03216 62.2537 8.61216 63.1357 8.61216C64.6757 8.61216 65.6697 9.69016 65.6697 11.4402V15.5002H63.9617V11.6922C63.9617 10.7822 63.4437 10.2082 62.6037 10.2082C61.7637 10.2082 61.2317 10.7822 61.2317 11.6922V15.5002H59.5237Z" fill="black"/>
<path fill-rule="evenodd" clip-rule="evenodd" d="M71 11.5C71 7.08854 74.5885 3.5 79 3.5C83.4115 3.5 87 7.08854 87 11.5C87 15.9115 83.4115 19.5 79 19.5C74.5885 19.5 71 15.9115 71 11.5ZM85.7692 11.5C85.7692 7.75312 82.7469 4.73077 79 4.73077C75.2531 4.73077 72.2308 7.75312 72.2308 11.5C72.2308 15.2469 75.2531 18.2692 79 18.2692C82.7469 18.2692 85.7692 15.2469 85.7692 11.5ZM79.9231 14.8846C79.9231 15.3944 79.5098 15.8077 79 15.8077C78.4902 15.8077 78.0769 15.3944 78.0769 14.8846C78.0769 14.3748 78.4902 13.9615 79 13.9615C79.5098 13.9615 79.9231 14.3748 79.9231 14.8846ZM76.2308 9.92735C76.2308 8.42361 77.4775 7.19231 79 7.19231C80.5225 7.19231 81.7692 8.42361 81.7692 9.92735C81.7692 11.0358 81.0391 12.0347 79.9736 12.3846L79.6923 12.4701V13.3462H78.3077V12.4701C78.3077 11.8851 78.6944 11.351 79.2596 11.1667L79.5409 11.0812C80.0439 10.9156 80.3846 10.4509 80.3846 9.92735C80.3846 9.16346 79.7734 8.55983 79 8.55983C78.2266 8.55983 77.6154 9.16346 77.6154 9.92735H76.2308Z" fill="#1355E9"/>
<path d="M222 27H8C3.85786 27 0.5 30.3579 0.5 34.5V62.5C0.5 66.6421 3.85786 70 8 70H222C226.142 70 229.5 66.6421 229.5 62.5V34.5C229.5 30.3579 226.142 27 222 27Z" fill="white"/>
<path d="M222 27H8C3.85786 27 0.5 30.3579 0.5 34.5V62.5C0.5 66.6421 3.85786 70 8 70H222C226.142 70 229.5 66.6421 229.5 62.5V34.5C229.5 30.3579 226.142 27 222 27Z" stroke="#EBEBEB"/>
<path d="M13.0234 52.5002V43.5262H16.2294C18.3994 43.5262 19.8274 44.7022 19.8274 46.4942C19.8274 48.3002 18.3854 49.4902 16.2014 49.4902H14.7734V52.5002H13.0234ZM16.3694 45.0802H14.7734V47.9362H16.3694C17.3354 47.9362 17.9794 47.3622 17.9794 46.4942C17.9794 45.6402 17.3354 45.0802 16.3694 45.0802ZM23.7875 51.0162L23.9695 52.5142C23.7175 52.5982 23.3955 52.6542 23.1435 52.6542C22.1775 52.6542 21.1975 52.0382 21.1975 50.3302V42.8682H22.9055V50.3722C22.9055 50.8902 23.1995 51.0862 23.5075 51.0862C23.5915 51.0862 23.7035 51.0582 23.7875 51.0162ZM28.1668 52.6822C26.4028 52.6822 24.9608 51.2402 24.9608 49.1402C24.9608 47.1242 26.3188 45.6122 28.1668 45.6122C29.0768 45.6122 29.7768 46.0182 30.2248 46.6762V45.7942H31.9328V52.5002H30.2248V51.5482C29.7768 52.2342 29.0768 52.6822 28.1668 52.6822ZM28.4468 51.0862C29.4828 51.0862 30.2248 50.2182 30.2248 49.1402C30.2248 48.0622 29.4828 47.2082 28.4468 47.2082C27.4108 47.2082 26.6688 48.0622 26.6688 49.1402C26.6688 50.2182 27.4108 51.0862 28.4468 51.0862ZM38.5624 47.8242C38.1284 47.4182 37.6384 47.2082 36.9664 47.2082C35.8464 47.2082 35.1044 48.0622 35.1044 49.1402C35.1044 50.2182 35.8604 51.0862 36.9664 51.0862C37.6384 51.0862 38.1844 50.8482 38.6184 50.4282L39.4864 51.6882C38.9544 52.2762 37.9744 52.6822 36.9244 52.6822C34.9224 52.6822 33.3964 51.1002 33.3964 49.1402C33.3964 47.1942 34.9364 45.6122 36.8964 45.6122C38.0304 45.6122 38.9404 45.9902 39.5424 46.6062L38.5624 47.8242ZM43.5979 52.6822C41.5119 52.6822 39.9999 51.1002 39.9999 49.1402C39.9999 47.1942 41.4419 45.6122 43.3739 45.6122C45.2919 45.6122 46.7619 47.0822 46.7619 49.0142C46.7619 49.2382 46.7479 49.5042 46.7199 49.6162H41.7499C41.9319 50.5402 42.6319 51.1842 43.6539 51.1842C44.3399 51.1842 44.9139 50.8902 45.3059 50.4842L46.1879 51.6602C45.6699 52.2342 44.7179 52.6822 43.5979 52.6822ZM43.4019 47.0542C42.5899 47.0542 42.0019 47.6142 41.7919 48.4262H44.9979C44.7879 47.5302 44.1859 47.0542 43.4019 47.0542ZM48.1311 52.5002V42.8682H49.8391V46.7462C50.1891 46.0322 50.8611 45.6122 51.7431 45.6122C53.2831 45.6122 54.2771 46.6902 54.2771 48.4402V52.5002H52.5691V48.6922C52.5691 47.7822 52.0511 47.2082 51.2111 47.2082C50.3711 47.2082 49.8391 47.7822 49.8391 48.6922V52.5002H48.1311ZM59.1812 52.6822C57.2352 52.6822 55.6952 51.1002 55.6952 49.1402C55.6952 47.1942 57.2352 45.6122 59.1812 45.6122C61.1272 45.6122 62.6672 47.1942 62.6672 49.1402C62.6672 51.1002 61.1272 52.6822 59.1812 52.6822ZM59.1812 51.0862C60.2172 51.0862 60.9592 50.2182 60.9592 49.1402C60.9592 48.0622 60.2172 47.2082 59.1812 47.2082C58.1452 47.2082 57.4032 48.0622 57.4032 49.1402C57.4032 50.2182 58.1452 51.0862 59.1812 51.0862ZM66.7309 51.0162L66.9129 52.5142C66.6609 52.5982 66.3389 52.6542 66.0869 52.6542C65.1209 52.6542 64.1409 52.0382 64.1409 50.3302V42.8682H65.8489V50.3722C65.8489 50.8902 66.1429 51.0862 66.4509 51.0862C66.5349 51.0862 66.6469 51.0582 66.7309 51.0162ZM71.1102 52.6822C69.3462 52.6822 67.9042 51.2402 67.9042 49.1402C67.9042 47.1242 69.2622 45.6122 71.1102 45.6122C72.0202 45.6122 72.7202 46.0182 73.1682 46.6762V42.8682H74.8762V52.5002H73.1682V51.5482C72.7202 52.2342 72.0202 52.6822 71.1102 52.6822ZM71.3902 51.0862C72.4262 51.0862 73.1682 50.2182 73.1682 49.1402C73.1682 48.0622 72.4262 47.2082 71.3902 47.2082C70.3542 47.2082 69.6122 48.0622 69.6122 49.1402C69.6122 50.2182 70.3542 51.0862 71.3902 51.0862ZM79.9377 52.6822C77.8517 52.6822 76.3397 51.1002 76.3397 49.1402C76.3397 47.1942 77.7817 45.6122 79.7137 45.6122C81.6317 45.6122 83.1017 47.0822 83.1017 49.0142C83.1017 49.2382 83.0877 49.5042 83.0597 49.6162H78.0897C78.2717 50.5402 78.9717 51.1842 79.9937 51.1842C80.6797 51.1842 81.2537 50.8902 81.6457 50.4842L82.5277 51.6602C82.0097 52.2342 81.0577 52.6822 79.9377 52.6822ZM79.7417 47.0542C78.9297 47.0542 78.3417 47.6142 78.1317 48.4262H81.3377C81.1277 47.5302 80.5257 47.0542 79.7417 47.0542ZM84.471 52.5002V45.7942H86.179V46.7882C86.501 46.0742 87.075 45.6122 87.831 45.6122C88.279 45.6122 88.643 45.7242 88.895 45.9342L88.195 47.5442C87.971 47.3762 87.635 47.2642 87.299 47.2642C86.627 47.2642 86.179 47.8382 86.179 48.7482V52.5002H84.471ZM92.3709 47.3062V45.7942H93.5469V44.0582H95.2689V45.7942H97.0749V47.3062H95.2829V50.1622C95.2829 50.7922 95.5349 51.0862 96.0389 51.0862C96.3609 51.0862 96.6689 50.9462 96.8369 50.7502L97.5929 52.0242C97.2289 52.3882 96.5989 52.6822 95.7729 52.6822C94.4149 52.6822 93.5469 51.8422 93.5469 50.2042V47.3062H92.3709ZM101.566 52.6822C99.4806 52.6822 97.9686 51.1002 97.9686 49.1402C97.9686 47.1942 99.4106 45.6122 101.342 45.6122C103.26 45.6122 104.73 47.0822 104.73 49.0142C104.73 49.2382 104.716 49.5042 104.688 49.6162H99.7186C99.9006 50.5402 100.6 51.1842 101.622 51.1842C102.308 51.1842 102.882 50.8902 103.274 50.4842L104.156 51.6602C103.638 52.2342 102.686 52.6822 101.566 52.6822ZM101.37 47.0542C100.558 47.0542 99.9706 47.6142 99.7606 48.4262H102.966C102.756 47.5302 102.154 47.0542 101.37 47.0542ZM104.851 52.5002L107.385 49.1262L104.935 45.7942H107.063L108.519 47.7682L110.003 45.7942H111.921L109.471 49.0562L112.005 52.5002H109.877L108.337 50.4142L106.755 52.5002H104.851ZM112.455 47.3062V45.7942H113.631V44.0582H115.353V45.7942H117.159V47.3062H115.367V50.1622C115.367 50.7922 115.619 51.0862 116.123 51.0862C116.445 51.0862 116.753 50.9462 116.921 50.7502L117.677 52.0242C117.313 52.3882 116.683 52.6822 115.857 52.6822C114.499 52.6822 113.631 51.8422 113.631 50.2042V47.3062H112.455Z" fill="black"/>
<path d="M212 51.5L207 46.4524L208 45.5L212 49.7857L216 45.5L217 46.4524L212 51.5Z" fill="black"/>
</g>
<defs>
<clipPath id="clip0_6343_39306">
<rect width="230" height="70" fill="white" transform="translate(0 0.5)"/>
</clipPath>
</defs>
</svg>
