<svg width="240" height="108" viewBox="0 0 240 108" fill="none" xmlns="http://www.w3.org/2000/svg">
<path d="M30 18C30 11.3726 24.6274 6 18 6C11.3726 6 6 11.3726 6 18C6 24.6274 11.3726 30 18 30C24.6274 30 30 24.6274 30 18Z" fill="#80CEFF"/>
<path d="M22 7H14C10.134 7 7 10.134 7 14V22C7 25.866 10.134 29 14 29H22C25.866 29 29 25.866 29 22V14C29 10.134 25.866 7 22 7Z" stroke="#131331" stroke-width="2"/>
<path d="M50.4715 13.9782L49.6315 14.9582C49.0295 14.4542 48.2735 14.1042 47.2655 14.1042C45.4735 14.1042 44.0315 15.6302 44.0315 17.5202C44.0315 19.3962 45.4735 20.9222 47.3775 20.9222C48.2455 20.9222 49.0715 20.6282 49.6455 20.0962L50.4715 21.0202C49.6455 21.8322 48.6235 22.1682 47.2935 22.1682C44.6895 22.1682 42.6875 20.0822 42.6875 17.5202C42.6875 14.9442 44.7315 12.8582 47.2515 12.8582C48.6795 12.8582 49.6875 13.2642 50.4715 13.9782ZM51.9125 22.0002V12.3682H53.1445V16.3162C53.5225 15.5742 54.2365 15.1262 55.1745 15.1262C56.7425 15.1262 57.7645 16.2042 57.7645 17.8982V22.0002H56.5325V18.0942C56.5325 16.9882 55.8885 16.2882 54.8385 16.2882C53.7885 16.2882 53.1445 16.9882 53.1445 18.0942V22.0002H51.9125ZM62.9209 22.1682C60.8769 22.1682 59.4069 20.5862 59.4069 18.6402C59.4069 16.6942 60.8209 15.1262 62.7249 15.1262C64.6009 15.1262 66.0289 16.6242 66.0289 18.5142C66.0289 18.6822 66.0149 18.9342 65.9869 19.0322H60.6809C60.8349 20.1942 61.7169 21.0622 62.9629 21.0622C63.7189 21.0622 64.3909 20.7682 64.8389 20.3202L65.4969 21.1742C64.9509 21.7622 63.9989 22.1682 62.9209 22.1682ZM62.7389 16.1902C61.6889 16.1902 60.9329 16.9462 60.7089 18.0102H64.7269C64.5029 16.8482 63.7469 16.1902 62.7389 16.1902ZM72.4092 16.9462C71.9472 16.5262 71.3732 16.2882 70.6312 16.2882C69.3012 16.2882 68.3912 17.3242 68.3912 18.6402C68.3912 19.9422 69.3152 21.0062 70.6172 21.0062C71.3592 21.0062 71.9892 20.7682 72.4372 20.3202L73.0812 21.2302C72.5492 21.8042 71.6112 22.1682 70.5892 22.1682C68.6292 22.1682 67.1452 20.5862 67.1452 18.6402C67.1452 16.6942 68.6432 15.1262 70.6032 15.1262C71.6672 15.1262 72.5632 15.4902 73.1232 16.0642L72.4092 16.9462ZM75.6894 22.0002H74.4574V12.3682H75.6894V18.2202L78.8394 15.2942H80.4074L77.0334 18.4302L80.6454 22.0002H79.0214L75.6894 18.6822V22.0002ZM85.3422 15.1262C87.1622 15.1262 88.5902 16.6242 88.5902 18.6542C88.5902 20.6422 87.2182 22.1682 85.3422 22.1682C84.2922 22.1682 83.4942 21.6642 82.9902 20.8382V22.0002H81.7582V12.3682H82.9902V16.4982C83.4942 15.6722 84.2922 15.1262 85.3422 15.1262ZM85.1882 16.2882C83.9142 16.2882 82.9902 17.3522 82.9902 18.6542C82.9902 19.9702 83.9142 21.0062 85.1882 21.0062C86.4482 21.0062 87.3582 19.9702 87.3582 18.6542C87.3582 17.3522 86.4482 16.2882 85.1882 16.2882ZM93.2702 22.1682C91.3522 22.1682 89.8542 20.5862 89.8542 18.6402C89.8542 16.6942 91.3522 15.1262 93.2702 15.1262C95.2022 15.1262 96.7002 16.6942 96.7002 18.6402C96.7002 20.5862 95.2022 22.1682 93.2702 22.1682ZM93.2842 21.0062C94.5442 21.0062 95.4542 19.9422 95.4542 18.6402C95.4542 17.3242 94.5442 16.2882 93.2842 16.2882C92.0102 16.2882 91.1002 17.3242 91.1002 18.6402C91.1002 19.9422 92.0102 21.0062 93.2842 21.0062ZM97.1314 22.0002L99.7214 18.5842L97.2434 15.2942H98.7834L100.533 17.6322L102.325 15.2942H103.725L101.248 18.5702L103.823 22.0002H102.283L100.421 19.5222L98.5314 22.0002H97.1314ZM109.555 24.7442H108.322V15.2942H109.555V16.4982C110.059 15.6722 110.856 15.1262 111.906 15.1262C113.726 15.1262 115.154 16.6242 115.154 18.6542C115.154 20.6422 113.782 22.1682 111.906 22.1682C110.856 22.1682 110.059 21.6642 109.555 20.8382V24.7442ZM111.753 21.0062C113.013 21.0062 113.923 19.9702 113.923 18.6542C113.923 17.3522 113.013 16.2882 111.753 16.2882C110.479 16.2882 109.555 17.3522 109.555 18.6542C109.555 19.9702 110.479 21.0062 111.753 21.0062ZM116.908 22.0002V15.2942H118.141V16.2462C118.477 15.5462 119.051 15.1262 119.835 15.1262C120.255 15.1262 120.619 15.2242 120.857 15.4202L120.339 16.5822C120.115 16.4282 119.793 16.3162 119.471 16.3162C118.659 16.3162 118.141 17.0162 118.141 18.1362V22.0002H116.908ZM124.635 22.1682C122.591 22.1682 121.122 20.5862 121.122 18.6402C121.122 16.6942 122.535 15.1262 124.439 15.1262C126.315 15.1262 127.743 16.6242 127.743 18.5142C127.743 18.6822 127.729 18.9342 127.701 19.0322H122.395C122.549 20.1942 123.432 21.0622 124.678 21.0622C125.434 21.0622 126.105 20.7682 126.553 20.3202L127.212 21.1742C126.666 21.7622 125.713 22.1682 124.635 22.1682ZM124.454 16.1902C123.404 16.1902 122.647 16.9462 122.423 18.0102H126.441C126.217 16.8482 125.462 16.1902 124.454 16.1902ZM131.158 22.1682C130.164 22.1682 129.267 21.9022 128.581 21.4962L129.057 20.4742C129.813 20.8662 130.472 21.0902 131.242 21.0902C132.18 21.0902 132.628 20.7262 132.628 20.1942C132.628 18.6682 128.819 19.5922 128.819 17.0022C128.819 16.0082 129.715 15.1262 131.339 15.1262C132.249 15.1262 132.963 15.3502 133.691 15.7002L133.201 16.7222C132.725 16.4562 132.039 16.2182 131.395 16.2182C130.569 16.2182 130.079 16.4982 130.079 16.9882C130.079 18.5282 133.859 17.6182 133.859 20.1662C133.859 21.3142 132.866 22.1682 131.158 22.1682ZM137.393 22.1682C136.399 22.1682 135.502 21.9022 134.816 21.4962L135.292 20.4742C136.048 20.8662 136.707 21.0902 137.477 21.0902C138.415 21.0902 138.862 20.7262 138.862 20.1942C138.862 18.6682 135.054 19.5922 135.054 17.0022C135.054 16.0082 135.95 15.1262 137.574 15.1262C138.484 15.1262 139.198 15.3502 139.926 15.7002L139.436 16.7222C138.96 16.4562 138.274 16.2182 137.63 16.2182C136.804 16.2182 136.314 16.4982 136.314 16.9882C136.314 18.5282 140.094 17.6182 140.094 20.1662C140.094 21.3142 139.101 22.1682 137.393 22.1682ZM144.76 22.1682C142.716 22.1682 141.246 20.5862 141.246 18.6402C141.246 16.6942 142.66 15.1262 144.564 15.1262C146.44 15.1262 147.868 16.6242 147.868 18.5142C147.868 18.6822 147.854 18.9342 147.826 19.0322H142.52C142.674 20.1942 143.556 21.0622 144.802 21.0622C145.558 21.0622 146.23 20.7682 146.678 20.3202L147.337 21.1742C146.791 21.7622 145.838 22.1682 144.76 22.1682ZM144.578 16.1902C143.528 16.1902 142.772 16.9462 142.548 18.0102H146.566C146.342 16.8482 145.586 16.1902 144.578 16.1902ZM152.233 22.1682C150.413 22.1682 148.985 20.6702 148.985 18.6402C148.985 16.6522 150.357 15.1262 152.233 15.1262C153.283 15.1262 154.081 15.6302 154.585 16.4562V12.3682H155.831V22.0002H154.585V20.7962C154.081 21.6222 153.283 22.1682 152.233 22.1682ZM152.415 21.0062C153.675 21.0062 154.585 19.9422 154.585 18.6402C154.585 17.3242 153.675 16.2882 152.415 16.2882C151.141 16.2882 150.231 17.3242 150.231 18.6402C150.231 19.9422 151.141 21.0062 152.415 21.0062ZM163.122 22.1682C162.128 22.1682 161.232 21.9022 160.546 21.4962L161.022 20.4742C161.778 20.8662 162.436 21.0902 163.206 21.0902C164.144 21.0902 164.592 20.7262 164.592 20.1942C164.592 18.6682 160.785 19.5922 160.785 17.0022C160.785 16.0082 161.68 15.1262 163.304 15.1262C164.214 15.1262 164.928 15.3502 165.656 15.7002L165.166 16.7222C164.69 16.4562 164.004 16.2182 163.36 16.2182C162.534 16.2182 162.044 16.4982 162.044 16.9882C162.044 18.5282 165.824 17.6182 165.824 20.1662C165.824 21.3142 164.83 22.1682 163.122 22.1682ZM166.712 16.4002V15.2942H167.817V13.6282H169.063V15.2942H170.967V16.4002H169.077V19.9422C169.077 20.6562 169.399 21.0062 170.001 21.0062C170.337 21.0062 170.673 20.8802 170.869 20.6562L171.443 21.5942C171.121 21.9022 170.575 22.1682 169.833 22.1682C168.573 22.1682 167.817 21.4262 167.817 19.9842V16.4002H166.712ZM175.16 22.1682C173.34 22.1682 171.912 20.6702 171.912 18.6402C171.912 16.6522 173.284 15.1262 175.16 15.1262C176.21 15.1262 177.008 15.6302 177.512 16.4562V15.2942H178.758V22.0002H177.512V20.7962C177.008 21.6222 176.21 22.1682 175.16 22.1682ZM175.342 21.0062C176.602 21.0062 177.512 19.9422 177.512 18.6402C177.512 17.3242 176.602 16.2882 175.342 16.2882C174.068 16.2882 173.158 17.3242 173.158 18.6402C173.158 19.9422 174.068 21.0062 175.342 21.0062ZM180.232 16.4002V15.2942H181.339V13.6282H182.584V15.2942H184.488V16.4002H182.598V19.9422C182.598 20.6562 182.92 21.0062 183.522 21.0062C183.858 21.0062 184.195 20.8802 184.391 20.6562L184.964 21.5942C184.642 21.9022 184.096 22.1682 183.354 22.1682C182.094 22.1682 181.339 21.4262 181.339 19.9842V16.4002H180.232ZM188.949 22.1682C186.905 22.1682 185.434 20.5862 185.434 18.6402C185.434 16.6942 186.849 15.1262 188.753 15.1262C190.629 15.1262 192.056 16.6242 192.056 18.5142C192.056 18.6822 192.042 18.9342 192.014 19.0322H186.708C186.862 20.1942 187.744 21.0622 188.99 21.0622C189.746 21.0622 190.419 20.7682 190.867 20.3202L191.524 21.1742C190.978 21.7622 190.027 22.1682 188.949 22.1682ZM188.766 16.1902C187.716 16.1902 186.96 16.9462 186.736 18.0102H190.755C190.531 16.8482 189.774 16.1902 188.766 16.1902Z" fill="black"/>
<path d="M22 42H14C9.58172 42 6 45.5817 6 50V58C6 62.4183 9.58172 66 14 66H22C26.4183 66 30 62.4183 30 58V50C30 45.5817 26.4183 42 22 42Z" fill="#131331"/>
<path d="M16.5133 59L25 50.4911L23.5133 49L16.5133 56.0178L13.4867 52.9822L12 54.4734L16.5133 59Z" fill="white"/>
<path d="M50.4715 49.9782L49.6315 50.9582C49.0295 50.4542 48.2735 50.1042 47.2655 50.1042C45.4735 50.1042 44.0315 51.6302 44.0315 53.5202C44.0315 55.3962 45.4735 56.9222 47.3775 56.9222C48.2455 56.9222 49.0715 56.6282 49.6455 56.0962L50.4715 57.0202C49.6455 57.8322 48.6235 58.1682 47.2935 58.1682C44.6895 58.1682 42.6875 56.0822 42.6875 53.5202C42.6875 50.9442 44.7315 48.8582 47.2515 48.8582C48.6795 48.8582 49.6875 49.2642 50.4715 49.9782ZM51.9125 58.0002V48.3682H53.1445V52.3162C53.5225 51.5742 54.2365 51.1262 55.1745 51.1262C56.7425 51.1262 57.7645 52.2042 57.7645 53.8982V58.0002H56.5325V54.0942C56.5325 52.9882 55.8885 52.2882 54.8385 52.2882C53.7885 52.2882 53.1445 52.9882 53.1445 54.0942V58.0002H51.9125ZM62.9209 58.1682C60.8769 58.1682 59.4069 56.5862 59.4069 54.6402C59.4069 52.6942 60.8209 51.1262 62.7249 51.1262C64.6009 51.1262 66.0289 52.6242 66.0289 54.5142C66.0289 54.6822 66.0149 54.9342 65.9869 55.0322H60.6809C60.8349 56.1942 61.7169 57.0622 62.9629 57.0622C63.7189 57.0622 64.3909 56.7682 64.8389 56.3202L65.4969 57.1742C64.9509 57.7622 63.9989 58.1682 62.9209 58.1682ZM62.7389 52.1902C61.6889 52.1902 60.9329 52.9462 60.7089 54.0102H64.7269C64.5029 52.8482 63.7469 52.1902 62.7389 52.1902ZM72.4092 52.9462C71.9472 52.5262 71.3732 52.2882 70.6312 52.2882C69.3012 52.2882 68.3912 53.3242 68.3912 54.6402C68.3912 55.9422 69.3152 57.0062 70.6172 57.0062C71.3592 57.0062 71.9892 56.7682 72.4372 56.3202L73.0812 57.2302C72.5492 57.8042 71.6112 58.1682 70.5892 58.1682C68.6292 58.1682 67.1452 56.5862 67.1452 54.6402C67.1452 52.6942 68.6432 51.1262 70.6032 51.1262C71.6672 51.1262 72.5632 51.4902 73.1232 52.0642L72.4092 52.9462ZM75.6894 58.0002H74.4574V48.3682H75.6894V54.2202L78.8394 51.2942H80.4074L77.0334 54.4302L80.6454 58.0002H79.0214L75.6894 54.6822V58.0002ZM84.1807 58.1682C82.1367 58.1682 80.6667 56.5862 80.6667 54.6402C80.6667 52.6942 82.0807 51.1262 83.9847 51.1262C85.8607 51.1262 87.2887 52.6242 87.2887 54.5142C87.2887 54.6822 87.2747 54.9342 87.2467 55.0322H81.9407C82.0947 56.1942 82.9767 57.0622 84.2227 57.0622C84.9787 57.0622 85.6507 56.7682 86.0987 56.3202L86.7567 57.1742C86.2107 57.7622 85.2587 58.1682 84.1807 58.1682ZM83.9987 52.1902C82.9487 52.1902 82.1927 52.9462 81.9687 54.0102H85.9867C85.7627 52.8482 85.0067 52.1902 83.9987 52.1902ZM91.6529 58.1682C89.8329 58.1682 88.4049 56.6702 88.4049 54.6402C88.4049 52.6522 89.7769 51.1262 91.6529 51.1262C92.7029 51.1262 93.5009 51.6302 94.0049 52.4562V48.3682H95.2509V58.0002H94.0049V56.7962C93.5009 57.6222 92.7029 58.1682 91.6529 58.1682ZM91.8349 57.0062C93.0949 57.0062 94.0049 55.9422 94.0049 54.6402C94.0049 53.3242 93.0949 52.2882 91.8349 52.2882C90.5609 52.2882 89.6509 53.3242 89.6509 54.6402C89.6509 55.9422 90.5609 57.0062 91.8349 57.0062ZM103.41 58.1682C101.59 58.1682 100.163 56.6702 100.163 54.6402C100.163 52.6522 101.534 51.1262 103.41 51.1262C104.46 51.1262 105.259 51.6302 105.763 52.4562V51.2942H107.008V58.0002H105.763V56.7962C105.259 57.6222 104.46 58.1682 103.41 58.1682ZM103.593 57.0062C104.853 57.0062 105.763 55.9422 105.763 54.6402C105.763 53.3242 104.853 52.2882 103.593 52.2882C102.319 52.2882 101.408 53.3242 101.408 54.6402C101.408 55.9422 102.319 57.0062 103.593 57.0062ZM109.238 58.0002V51.2942H110.471V52.3162C110.849 51.5742 111.563 51.1262 112.501 51.1262C114.069 51.1262 115.09 52.2042 115.09 53.8982V58.0002H113.859V54.0942C113.859 52.9882 113.215 52.2882 112.165 52.2882C111.115 52.2882 110.471 52.9882 110.471 54.0942V58.0002H109.238ZM119.982 58.1682C118.162 58.1682 116.734 56.6702 116.734 54.6402C116.734 52.6522 118.106 51.1262 119.982 51.1262C121.032 51.1262 121.829 51.6302 122.333 52.4562V48.3682H123.579V58.0002H122.333V56.7962C121.829 57.6222 121.032 58.1682 119.982 58.1682ZM120.163 57.0062C121.423 57.0062 122.333 55.9422 122.333 54.6402C122.333 53.3242 121.423 52.2882 120.163 52.2882C118.889 52.2882 117.979 53.3242 117.979 54.6402C117.979 55.9422 118.889 57.0062 120.163 57.0062ZM131.738 58.1682C129.918 58.1682 128.49 56.6702 128.49 54.6402C128.49 52.6522 129.862 51.1262 131.738 51.1262C132.788 51.1262 133.586 51.6302 134.09 52.4562V51.2942H135.337V58.0002H134.09V56.7962C133.586 57.6222 132.788 58.1682 131.738 58.1682ZM131.921 57.0062C133.181 57.0062 134.09 55.9422 134.09 54.6402C134.09 53.3242 133.181 52.2882 131.921 52.2882C130.647 52.2882 129.736 53.3242 129.736 54.6402C129.736 55.9422 130.647 57.0062 131.921 57.0062ZM142.34 52.9462C141.878 52.5262 141.304 52.2882 140.562 52.2882C139.232 52.2882 138.322 53.3242 138.322 54.6402C138.322 55.9422 139.246 57.0062 140.548 57.0062C141.29 57.0062 141.92 56.7682 142.368 56.3202L143.012 57.2302C142.48 57.8042 141.542 58.1682 140.52 58.1682C138.56 58.1682 137.076 56.5862 137.076 54.6402C137.076 52.6942 138.575 51.1262 140.535 51.1262C141.599 51.1262 142.494 51.4902 143.054 52.0642L142.34 52.9462ZM143.633 52.4002V51.2942H144.74V49.6282H145.985V51.2942H147.889V52.4002H145.999V55.9422C145.999 56.6562 146.321 57.0062 146.923 57.0062C147.259 57.0062 147.595 56.8802 147.791 56.6562L148.365 57.5942C148.043 57.9022 147.497 58.1682 146.755 58.1682C145.495 58.1682 144.74 57.4262 144.74 55.9842V52.4002H143.633ZM150.309 50.1322C149.875 50.1322 149.539 49.7822 149.539 49.3622C149.539 48.9422 149.875 48.5922 150.309 48.5922C150.729 48.5922 151.079 48.9422 151.079 49.3622C151.079 49.7822 150.729 50.1322 150.309 50.1322ZM150.925 58.0002H149.693V51.2942H150.925V58.0002ZM156.4 58.0002H154.79L152.257 51.2942H153.628L155.63 56.8802L157.66 51.2942H158.934L156.4 58.0002ZM163.026 58.1682C160.982 58.1682 159.512 56.5862 159.512 54.6402C159.512 52.6942 160.926 51.1262 162.83 51.1262C164.706 51.1262 166.134 52.6242 166.134 54.5142C166.134 54.6822 166.12 54.9342 166.092 55.0322H160.786C160.94 56.1942 161.822 57.0622 163.068 57.0622C163.824 57.0622 164.496 56.7682 164.944 56.3202L165.602 57.1742C165.056 57.7622 164.104 58.1682 163.026 58.1682ZM162.844 52.1902C161.794 52.1902 161.038 52.9462 160.814 54.0102H164.832C164.608 52.8482 163.852 52.1902 162.844 52.1902ZM172.145 60.7442H170.912V51.2942H172.145V52.4982C172.649 51.6722 173.446 51.1262 174.496 51.1262C176.316 51.1262 177.744 52.6242 177.744 54.6542C177.744 56.6422 176.372 58.1682 174.496 58.1682C173.446 58.1682 172.649 57.6642 172.145 56.8382V60.7442ZM174.342 57.0062C175.602 57.0062 176.512 55.9702 176.512 54.6542C176.512 53.3522 175.602 52.2882 174.342 52.2882C173.068 52.2882 172.145 53.3522 172.145 54.6542C172.145 55.9702 173.068 57.0062 174.342 57.0062ZM179.498 58.0002V51.2942H180.73V52.2462C181.066 51.5462 181.64 51.1262 182.424 51.1262C182.844 51.1262 183.209 51.2242 183.447 51.4202L182.928 52.5822C182.704 52.4282 182.383 52.3162 182.061 52.3162C181.249 52.3162 180.73 53.0162 180.73 54.1362V58.0002H179.498ZM187.225 58.1682C185.181 58.1682 183.712 56.5862 183.712 54.6402C183.712 52.6942 185.125 51.1262 187.029 51.1262C188.905 51.1262 190.333 52.6242 190.333 54.5142C190.333 54.6822 190.319 54.9342 190.291 55.0322H184.985C185.139 56.1942 186.022 57.0622 187.268 57.0622C188.024 57.0622 188.695 56.7682 189.143 56.3202L189.801 57.1742C189.255 57.7622 188.303 58.1682 187.225 58.1682ZM187.044 52.1902C185.994 52.1902 185.237 52.9462 185.013 54.0102H189.031C188.807 52.8482 188.052 52.1902 187.044 52.1902ZM193.747 58.1682C192.753 58.1682 191.857 57.9022 191.171 57.4962L191.647 56.4742C192.403 56.8662 193.061 57.0902 193.831 57.0902C194.769 57.0902 195.217 56.7262 195.217 56.1942C195.217 54.6682 191.41 55.5922 191.41 53.0022C191.41 52.0082 192.305 51.1262 193.929 51.1262C194.839 51.1262 195.553 51.3502 196.281 51.7002L195.791 52.7222C195.315 52.4562 194.629 52.2182 193.985 52.2182C193.159 52.2182 192.669 52.4982 192.669 52.9882C192.669 54.5282 196.449 53.6182 196.449 56.1662C196.449 57.3142 195.455 58.1682 193.747 58.1682ZM199.982 58.1682C198.988 58.1682 198.092 57.9022 197.406 57.4962L197.882 56.4742C198.638 56.8662 199.296 57.0902 200.066 57.0902C201.004 57.0902 201.452 56.7262 201.452 56.1942C201.452 54.6682 197.645 55.5922 197.645 53.0022C197.645 52.0082 198.54 51.1262 200.164 51.1262C201.074 51.1262 201.788 51.3502 202.516 51.7002L202.026 52.7222C201.55 52.4562 200.864 52.2182 200.22 52.2182C199.394 52.2182 198.904 52.4982 198.904 52.9882C198.904 54.5282 202.684 53.6182 202.684 56.1662C202.684 57.3142 201.69 58.1682 199.982 58.1682Z" fill="black"/>
<path d="M22 78H14C9.58172 78 6 81.5817 6 86V94C6 98.4183 9.58172 102 14 102H22C26.4183 102 30 98.4183 30 94V86C30 81.5817 26.4183 78 22 78Z" fill="#131331"/>
<path d="M24 89H12V91H24V89Z" fill="white"/>
<path d="M43.1914 94.0002V85.0262H44.4514V94.0002H43.1914ZM46.7581 94.0002V87.2942H47.9901V88.3162C48.3681 87.5742 49.0821 87.1262 50.0201 87.1262C51.5881 87.1262 52.6101 88.2042 52.6101 89.8982V94.0002H51.3781V90.0942C51.3781 88.9882 50.7341 88.2882 49.6841 88.2882C48.6341 88.2882 47.9901 88.9882 47.9901 90.0942V94.0002H46.7581ZM57.5005 94.1682C55.6805 94.1682 54.2525 92.6702 54.2525 90.6402C54.2525 88.6522 55.6245 87.1262 57.5005 87.1262C58.5505 87.1262 59.3485 87.6302 59.8525 88.4562V84.3682H61.0985V94.0002H59.8525V92.7962C59.3485 93.6222 58.5505 94.1682 57.5005 94.1682ZM57.6825 93.0062C58.9425 93.0062 59.8525 91.9422 59.8525 90.6402C59.8525 89.3242 58.9425 88.2882 57.6825 88.2882C56.4085 88.2882 55.4985 89.3242 55.4985 90.6402C55.4985 91.9422 56.4085 93.0062 57.6825 93.0062ZM66.3524 94.1682C64.3084 94.1682 62.8384 92.5862 62.8384 90.6402C62.8384 88.6942 64.2524 87.1262 66.1564 87.1262C68.0324 87.1262 69.4604 88.6242 69.4604 90.5142C69.4604 90.6822 69.4464 90.9342 69.4184 91.0322H64.1124C64.2664 92.1942 65.1484 93.0622 66.3944 93.0622C67.1504 93.0622 67.8224 92.7682 68.2704 92.3202L68.9284 93.1742C68.3824 93.7622 67.4304 94.1682 66.3524 94.1682ZM66.1704 88.1902C65.1204 88.1902 64.3644 88.9462 64.1404 90.0102H68.1584C67.9344 88.8482 67.1784 88.1902 66.1704 88.1902ZM70.3107 88.4002V87.2942H71.4167V85.6282H72.6627V87.2942H74.5667V88.4002H72.6767V91.9422C72.6767 92.6562 72.9987 93.0062 73.6007 93.0062C73.9367 93.0062 74.2727 92.8802 74.4687 92.6562L75.0427 93.5942C74.7207 93.9022 74.1747 94.1682 73.4327 94.1682C72.1727 94.1682 71.4167 93.4262 71.4167 91.9842V88.4002H70.3107ZM79.0263 94.1682C76.9823 94.1682 75.5123 92.5862 75.5123 90.6402C75.5123 88.6942 76.9263 87.1262 78.8303 87.1262C80.7063 87.1262 82.1343 88.6242 82.1343 90.5142C82.1343 90.6822 82.1203 90.9342 82.0923 91.0322H76.7863C76.9403 92.1942 77.8223 93.0622 79.0683 93.0622C79.8243 93.0622 80.4963 92.7682 80.9443 92.3202L81.6023 93.1742C81.0563 93.7622 80.1043 94.1682 79.0263 94.1682ZM78.8443 88.1902C77.7943 88.1902 77.0383 88.9462 76.8143 90.0102H80.8323C80.6083 88.8482 79.8523 88.1902 78.8443 88.1902ZM83.7405 94.0002V87.2942H84.9725V88.2462C85.3085 87.5462 85.8825 87.1262 86.6665 87.1262C87.0865 87.1262 87.4505 87.2242 87.6885 87.4202L87.1705 88.5822C86.9465 88.4282 86.6245 88.3162 86.3025 88.3162C85.4905 88.3162 84.9725 89.0162 84.9725 90.1362V94.0002H83.7405ZM90.2362 94.0002H89.0042V87.2942H90.2362V88.3582C90.6002 87.6022 91.3002 87.1262 92.2102 87.1262C93.2882 87.1262 94.1002 87.6722 94.4782 88.6102C94.8002 87.7422 95.5282 87.1262 96.6062 87.1262C98.1602 87.1262 99.1682 88.1762 99.1682 89.8982V94.0002H97.9222V90.0942C97.9222 88.9882 97.3202 88.2882 96.3122 88.2882C95.3182 88.2882 94.7022 88.9882 94.7022 90.0942V94.0002H93.4562V90.0942C93.4562 88.9882 92.8542 88.2882 91.8602 88.2882C90.8522 88.2882 90.2362 88.9882 90.2362 90.0942V94.0002ZM101.897 86.1322C101.463 86.1322 101.127 85.7822 101.127 85.3622C101.127 84.9422 101.463 84.5922 101.897 84.5922C102.317 84.5922 102.667 84.9422 102.667 85.3622C102.667 85.7822 102.317 86.1322 101.897 86.1322ZM102.513 94.0002H101.281V87.2942H102.513V94.0002ZM104.754 94.0002V87.2942H105.986V88.3162C106.364 87.5742 107.078 87.1262 108.016 87.1262C109.584 87.1262 110.606 88.2042 110.606 89.8982V94.0002H109.374V90.0942C109.374 88.9882 108.73 88.2882 107.68 88.2882C106.63 88.2882 105.986 88.9882 105.986 90.0942V94.0002H104.754ZM115.496 94.1682C113.676 94.1682 112.248 92.6702 112.248 90.6402C112.248 88.6522 113.62 87.1262 115.496 87.1262C116.546 87.1262 117.344 87.6302 117.848 88.4562V87.2942H119.094V94.0002H117.848V92.7962C117.344 93.6222 116.546 94.1682 115.496 94.1682ZM115.678 93.0062C116.938 93.0062 117.848 91.9422 117.848 90.6402C117.848 89.3242 116.938 88.2882 115.678 88.2882C114.404 88.2882 113.494 89.3242 113.494 90.6402C113.494 91.9422 114.404 93.0062 115.678 93.0062ZM120.568 88.4002V87.2942H121.674V85.6282H122.92V87.2942H124.824V88.4002H122.934V91.9422C122.934 92.6562 123.256 93.0062 123.858 93.0062C124.194 93.0062 124.53 92.8802 124.726 92.6562L125.3 93.5942C124.978 93.9022 124.432 94.1682 123.69 94.1682C122.43 94.1682 121.674 93.4262 121.674 91.9842V88.4002H120.568ZM129.284 94.1682C127.24 94.1682 125.77 92.5862 125.77 90.6402C125.77 88.6942 127.184 87.1262 129.088 87.1262C130.964 87.1262 132.392 88.6242 132.392 90.5142C132.392 90.6822 132.378 90.9342 132.35 91.0322H127.044C127.198 92.1942 128.08 93.0622 129.326 93.0622C130.082 93.0622 130.754 92.7682 131.202 92.3202L131.86 93.1742C131.314 93.7622 130.362 94.1682 129.284 94.1682ZM129.102 88.1902C128.052 88.1902 127.296 88.9462 127.072 90.0102H131.09C130.866 88.8482 130.11 88.1902 129.102 88.1902ZM139.928 94.1682C138.108 94.1682 136.68 92.6702 136.68 90.6402C136.68 88.6522 138.052 87.1262 139.928 87.1262C140.978 87.1262 141.776 87.6302 142.28 88.4562V87.2942H143.526V94.0002H142.28V92.7962C141.776 93.6222 140.978 94.1682 139.928 94.1682ZM140.11 93.0062C141.37 93.0062 142.28 91.9422 142.28 90.6402C142.28 89.3242 141.37 88.2882 140.11 88.2882C138.836 88.2882 137.926 89.3242 137.926 90.6402C137.926 91.9422 138.836 93.0062 140.11 93.0062ZM145.756 94.0002V87.2942H146.988V88.3162C147.366 87.5742 148.08 87.1262 149.018 87.1262C150.586 87.1262 151.608 88.2042 151.608 89.8982V94.0002H150.376V90.0942C150.376 88.9882 149.732 88.2882 148.682 88.2882C147.632 88.2882 146.988 88.9882 146.988 90.0942V94.0002H145.756ZM156.498 94.1682C154.678 94.1682 153.25 92.6702 153.25 90.6402C153.25 88.6522 154.622 87.1262 156.498 87.1262C157.548 87.1262 158.346 87.6302 158.85 88.4562V84.3682H160.096V94.0002H158.85V92.7962C158.346 93.6222 157.548 94.1682 156.498 94.1682ZM156.68 93.0062C157.94 93.0062 158.85 91.9422 158.85 90.6402C158.85 89.3242 157.94 88.2882 156.68 88.2882C155.406 88.2882 154.496 89.3242 154.496 90.6402C154.496 91.9422 155.406 93.0062 156.68 93.0062ZM168.256 94.1682C166.436 94.1682 165.008 92.6702 165.008 90.6402C165.008 88.6522 166.38 87.1262 168.256 87.1262C169.306 87.1262 170.104 87.6302 170.608 88.4562V87.2942H171.854V94.0002H170.608V92.7962C170.104 93.6222 169.306 94.1682 168.256 94.1682ZM168.438 93.0062C169.698 93.0062 170.608 91.9422 170.608 90.6402C170.608 89.3242 169.698 88.2882 168.438 88.2882C167.164 88.2882 166.254 89.3242 166.254 90.6402C166.254 91.9422 167.164 93.0062 168.438 93.0062ZM178.858 88.9462C178.396 88.5262 177.822 88.2882 177.08 88.2882C175.75 88.2882 174.84 89.3242 174.84 90.6402C174.84 91.9422 175.764 93.0062 177.066 93.0062C177.808 93.0062 178.438 92.7682 178.886 92.3202L179.53 93.2302C178.998 93.8042 178.06 94.1682 177.038 94.1682C175.078 94.1682 173.594 92.5862 173.594 90.6402C173.594 88.6942 175.092 87.1262 177.052 87.1262C178.116 87.1262 179.012 87.4902 179.572 88.0642L178.858 88.9462ZM180.15 88.4002V87.2942H181.256V85.6282H182.502V87.2942H184.406V88.4002H182.516V91.9422C182.516 92.6562 182.838 93.0062 183.44 93.0062C183.776 93.0062 184.112 92.8802 184.308 92.6562L184.882 93.5942C184.56 93.9022 184.014 94.1682 183.272 94.1682C182.012 94.1682 181.256 93.4262 181.256 91.9842V88.4002H180.15ZM186.827 86.1322C186.393 86.1322 186.057 85.7822 186.057 85.3622C186.057 84.9422 186.393 84.5922 186.827 84.5922C187.247 84.5922 187.597 84.9422 187.597 85.3622C187.597 85.7822 187.247 86.1322 186.827 86.1322ZM187.443 94.0002H186.211V87.2942H187.443V94.0002ZM192.918 94.0002H191.308L188.774 87.2942H190.146L192.148 92.8802L194.178 87.2942H195.452L192.918 94.0002ZM199.543 94.1682C197.499 94.1682 196.029 92.5862 196.029 90.6402C196.029 88.6942 197.443 87.1262 199.347 87.1262C201.223 87.1262 202.651 88.6242 202.651 90.5142C202.651 90.6822 202.637 90.9342 202.609 91.0322H197.303C197.457 92.1942 198.339 93.0622 199.585 93.0622C200.341 93.0622 201.013 92.7682 201.461 92.3202L202.119 93.1742C201.573 93.7622 200.621 94.1682 199.543 94.1682ZM199.361 88.1902C198.311 88.1902 197.555 88.9462 197.331 90.0102H201.349C201.125 88.8482 200.369 88.1902 199.361 88.1902ZM208.662 96.7442H207.43V87.2942H208.662V88.4982C209.166 87.6722 209.964 87.1262 211.014 87.1262C212.834 87.1262 214.262 88.6242 214.262 90.6542C214.262 92.6422 212.89 94.1682 211.014 94.1682C209.964 94.1682 209.166 93.6642 208.662 92.8382V96.7442ZM210.86 93.0062C212.12 93.0062 213.03 91.9702 213.03 90.6542C213.03 89.3522 212.12 88.2882 210.86 88.2882C209.586 88.2882 208.662 89.3522 208.662 90.6542C208.662 91.9702 209.586 93.0062 210.86 93.0062ZM216.016 94.0002V87.2942H217.248V88.2462C217.584 87.5462 218.158 87.1262 218.942 87.1262C219.362 87.1262 219.726 87.2242 219.964 87.4202L219.446 88.5822C219.222 88.4282 218.9 88.3162 218.578 88.3162C217.766 88.3162 217.248 89.0162 217.248 90.1362V94.0002H216.016ZM223.743 94.1682C221.699 94.1682 220.229 92.5862 220.229 90.6402C220.229 88.6942 221.643 87.1262 223.547 87.1262C225.423 87.1262 226.851 88.6242 226.851 90.5142C226.851 90.6822 226.837 90.9342 226.809 91.0322H221.503C221.657 92.1942 222.539 93.0622 223.785 93.0622C224.541 93.0622 225.213 92.7682 225.661 92.3202L226.319 93.1742C225.773 93.7622 224.821 94.1682 223.743 94.1682ZM223.561 88.1902C222.511 88.1902 221.755 88.9462 221.531 90.0102H225.549C225.325 88.8482 224.569 88.1902 223.561 88.1902ZM230.265 94.1682C229.271 94.1682 228.375 93.9022 227.689 93.4962L228.165 92.4742C228.921 92.8662 229.579 93.0902 230.349 93.0902C231.287 93.0902 231.735 92.7262 231.735 92.1942C231.735 90.6682 227.927 91.5922 227.927 89.0022C227.927 88.0082 228.823 87.1262 230.447 87.1262C231.357 87.1262 232.071 87.3502 232.799 87.7002L232.309 88.7222C231.833 88.4562 231.147 88.2182 230.503 88.2182C229.677 88.2182 229.187 88.4982 229.187 88.9882C229.187 90.5282 232.967 89.6182 232.967 92.1662C232.967 93.3142 231.973 94.1682 230.265 94.1682ZM236.499 94.1682C235.505 94.1682 234.609 93.9022 233.923 93.4962L234.399 92.4742C235.155 92.8662 235.813 93.0902 236.583 93.0902C237.521 93.0902 237.969 92.7262 237.969 92.1942C237.969 90.6682 234.161 91.5922 234.161 89.0022C234.161 88.0082 235.057 87.1262 236.681 87.1262C237.591 87.1262 238.305 87.3502 239.033 87.7002L238.543 88.7222C238.067 88.4562 237.381 88.2182 236.737 88.2182C235.911 88.2182 235.421 88.4982 235.421 88.9882C235.421 90.5282 239.201 89.6182 239.201 92.1662C239.201 93.3142 238.207 94.1682 236.499 94.1682Z" fill="black"/>
</svg>
