<svg width="233" height="60" viewBox="0 0 233 60" fill="none" xmlns="http://www.w3.org/2000/svg">
<g clip-path="url(#clip0_6343_38349)">
<path d="M16 0H8C3.58172 0 0 3.58172 0 8V16C0 20.4183 3.58172 24 8 24H16C20.4183 24 24 20.4183 24 16V8C24 3.58172 20.4183 0 16 0Z" fill="#1355E9"/>
<path d="M10.5133 17L19 8.49112L17.5133 7L10.5133 14.0178L7.48673 10.9822L6 12.4734L10.5133 17Z" fill="white"/>
<path d="M44.4715 7.97816L43.6315 8.95816C43.0295 8.45416 42.2735 8.10416 41.2655 8.10416C39.4735 8.10416 38.0315 9.63016 38.0315 11.5202C38.0315 13.3962 39.4735 14.9222 41.3775 14.9222C42.2455 14.9222 43.0715 14.6282 43.6455 14.0962L44.4715 15.0202C43.6455 15.8322 42.6235 16.1682 41.2935 16.1682C38.6895 16.1682 36.6875 14.0822 36.6875 11.5202C36.6875 8.94416 38.7315 6.85816 41.2515 6.85816C42.6795 6.85816 43.6875 7.26416 44.4715 7.97816ZM45.9125 16.0002V6.36816H47.1445V10.3162C47.5225 9.57416 48.2365 9.12616 49.1745 9.12616C50.7425 9.12616 51.7645 10.2042 51.7645 11.8982V16.0002H50.5325V12.0942C50.5325 10.9882 49.8885 10.2882 48.8385 10.2882C47.7885 10.2882 47.1445 10.9882 47.1445 12.0942V16.0002H45.9125ZM56.9209 16.1682C54.8769 16.1682 53.4069 14.5862 53.4069 12.6402C53.4069 10.6942 54.8209 9.12616 56.7249 9.12616C58.6009 9.12616 60.0289 10.6242 60.0289 12.5142C60.0289 12.6822 60.0149 12.9342 59.9869 13.0322H54.6809C54.8349 14.1942 55.7169 15.0622 56.9629 15.0622C57.7189 15.0622 58.3909 14.7682 58.8389 14.3202L59.4969 15.1742C58.9509 15.7622 57.9989 16.1682 56.9209 16.1682ZM56.7389 10.1902C55.6889 10.1902 54.9329 10.9462 54.7089 12.0102H58.7269C58.5029 10.8482 57.7469 10.1902 56.7389 10.1902ZM66.4092 10.9462C65.9472 10.5262 65.3732 10.2882 64.6312 10.2882C63.3012 10.2882 62.3912 11.3242 62.3912 12.6402C62.3912 13.9422 63.3152 15.0062 64.6172 15.0062C65.3592 15.0062 65.9892 14.7682 66.4372 14.3202L67.0812 15.2302C66.5492 15.8042 65.6112 16.1682 64.5892 16.1682C62.6292 16.1682 61.1452 14.5862 61.1452 12.6402C61.1452 10.6942 62.6432 9.12616 64.6032 9.12616C65.6672 9.12616 66.5632 9.49016 67.1232 10.0642L66.4092 10.9462ZM69.6894 16.0002H68.4574V6.36816H69.6894V12.2202L72.8394 9.29416H74.4074L71.0334 12.4302L74.6454 16.0002H73.0214L69.6894 12.6822V16.0002ZM78.1807 16.1682C76.1367 16.1682 74.6667 14.5862 74.6667 12.6402C74.6667 10.6942 76.0807 9.12616 77.9847 9.12616C79.8607 9.12616 81.2887 10.6242 81.2887 12.5142C81.2887 12.6822 81.2747 12.9342 81.2467 13.0322H75.9407C76.0947 14.1942 76.9767 15.0622 78.2227 15.0622C78.9787 15.0622 79.6507 14.7682 80.0987 14.3202L80.7567 15.1742C80.2107 15.7622 79.2587 16.1682 78.1807 16.1682ZM77.9987 10.1902C76.9487 10.1902 76.1927 10.9462 75.9687 12.0102H79.9867C79.7627 10.8482 79.0067 10.1902 77.9987 10.1902ZM85.6529 16.1682C83.8329 16.1682 82.4049 14.6702 82.4049 12.6402C82.4049 10.6522 83.7769 9.12616 85.6529 9.12616C86.7029 9.12616 87.5009 9.63016 88.0049 10.4562V6.36816H89.2509V16.0002H88.0049V14.7962C87.5009 15.6222 86.7029 16.1682 85.6529 16.1682ZM85.8349 15.0062C87.0949 15.0062 88.0049 13.9422 88.0049 12.6402C88.0049 11.3242 87.0949 10.2882 85.8349 10.2882C84.5609 10.2882 83.6509 11.3242 83.6509 12.6402C83.6509 13.9422 84.5609 15.0062 85.8349 15.0062Z" fill="black"/>
<path d="M16 36H8C3.58172 36 0 39.5817 0 44V52C0 56.4183 3.58172 60 8 60H16C20.4183 60 24 56.4183 24 52V44C24 39.5817 20.4183 36 16 36Z" fill="#1355E9"/>
<path d="M18 47H6V49H18V47Z" fill="white"/>
<path d="M37.1914 52.0002V43.0262H38.4514V52.0002H37.1914ZM40.7581 52.0002V45.2942H41.9901V46.3162C42.3681 45.5742 43.0821 45.1262 44.0201 45.1262C45.5881 45.1262 46.6101 46.2042 46.6101 47.8982V52.0002H45.3781V48.0942C45.3781 46.9882 44.7341 46.2882 43.6841 46.2882C42.6341 46.2882 41.9901 46.9882 41.9901 48.0942V52.0002H40.7581ZM51.5005 52.1682C49.6805 52.1682 48.2525 50.6702 48.2525 48.6402C48.2525 46.6522 49.6245 45.1262 51.5005 45.1262C52.5505 45.1262 53.3485 45.6302 53.8525 46.4562V42.3682H55.0985V52.0002H53.8525V50.7962C53.3485 51.6222 52.5505 52.1682 51.5005 52.1682ZM51.6825 51.0062C52.9425 51.0062 53.8525 49.9422 53.8525 48.6402C53.8525 47.3242 52.9425 46.2882 51.6825 46.2882C50.4085 46.2882 49.4985 47.3242 49.4985 48.6402C49.4985 49.9422 50.4085 51.0062 51.6825 51.0062ZM60.3524 52.1682C58.3084 52.1682 56.8384 50.5862 56.8384 48.6402C56.8384 46.6942 58.2524 45.1262 60.1564 45.1262C62.0324 45.1262 63.4604 46.6242 63.4604 48.5142C63.4604 48.6822 63.4464 48.9342 63.4184 49.0322H58.1124C58.2664 50.1942 59.1484 51.0622 60.3944 51.0622C61.1504 51.0622 61.8224 50.7682 62.2704 50.3202L62.9284 51.1742C62.3824 51.7622 61.4304 52.1682 60.3524 52.1682ZM60.1704 46.1902C59.1204 46.1902 58.3644 46.9462 58.1404 48.0102H62.1584C61.9344 46.8482 61.1784 46.1902 60.1704 46.1902ZM64.3107 46.4002V45.2942H65.4167V43.6282H66.6627V45.2942H68.5667V46.4002H66.6767V49.9422C66.6767 50.6562 66.9987 51.0062 67.6007 51.0062C67.9367 51.0062 68.2727 50.8802 68.4687 50.6562L69.0427 51.5942C68.7207 51.9022 68.1747 52.1682 67.4327 52.1682C66.1727 52.1682 65.4167 51.4262 65.4167 49.9842V46.4002H64.3107ZM73.0263 52.1682C70.9823 52.1682 69.5123 50.5862 69.5123 48.6402C69.5123 46.6942 70.9263 45.1262 72.8303 45.1262C74.7063 45.1262 76.1343 46.6242 76.1343 48.5142C76.1343 48.6822 76.1203 48.9342 76.0923 49.0322H70.7863C70.9403 50.1942 71.8223 51.0622 73.0683 51.0622C73.8243 51.0622 74.4963 50.7682 74.9443 50.3202L75.6023 51.1742C75.0563 51.7622 74.1043 52.1682 73.0263 52.1682ZM72.8443 46.1902C71.7943 46.1902 71.0383 46.9462 70.8143 48.0102H74.8323C74.6083 46.8482 73.8523 46.1902 72.8443 46.1902ZM77.7405 52.0002V45.2942H78.9725V46.2462C79.3085 45.5462 79.8825 45.1262 80.6665 45.1262C81.0865 45.1262 81.4505 45.2242 81.6885 45.4202L81.1705 46.5822C80.9465 46.4282 80.6245 46.3162 80.3025 46.3162C79.4905 46.3162 78.9725 47.0162 78.9725 48.1362V52.0002H77.7405ZM84.2362 52.0002H83.0042V45.2942H84.2362V46.3582C84.6002 45.6022 85.3002 45.1262 86.2102 45.1262C87.2882 45.1262 88.1002 45.6722 88.4782 46.6102C88.8002 45.7422 89.5282 45.1262 90.6062 45.1262C92.1602 45.1262 93.1682 46.1762 93.1682 47.8982V52.0002H91.9222V48.0942C91.9222 46.9882 91.3202 46.2882 90.3122 46.2882C89.3182 46.2882 88.7022 46.9882 88.7022 48.0942V52.0002H87.4562V48.0942C87.4562 46.9882 86.8542 46.2882 85.8602 46.2882C84.8522 46.2882 84.2362 46.9882 84.2362 48.0942V52.0002ZM95.8976 44.1322C95.4636 44.1322 95.1276 43.7822 95.1276 43.3622C95.1276 42.9422 95.4636 42.5922 95.8976 42.5922C96.3176 42.5922 96.6676 42.9422 96.6676 43.3622C96.6676 43.7822 96.3176 44.1322 95.8976 44.1322ZM96.5136 52.0002H95.2816V45.2942H96.5136V52.0002ZM98.7542 52.0002V45.2942H99.9862V46.3162C100.364 45.5742 101.078 45.1262 102.016 45.1262C103.584 45.1262 104.606 46.2042 104.606 47.8982V52.0002H103.374V48.0942C103.374 46.9882 102.73 46.2882 101.68 46.2882C100.63 46.2882 99.9862 46.9882 99.9862 48.0942V52.0002H98.7542ZM109.496 52.1682C107.676 52.1682 106.248 50.6702 106.248 48.6402C106.248 46.6522 107.62 45.1262 109.496 45.1262C110.546 45.1262 111.344 45.6302 111.848 46.4562V45.2942H113.094V52.0002H111.848V50.7962C111.344 51.6222 110.546 52.1682 109.496 52.1682ZM109.678 51.0062C110.938 51.0062 111.848 49.9422 111.848 48.6402C111.848 47.3242 110.938 46.2882 109.678 46.2882C108.404 46.2882 107.494 47.3242 107.494 48.6402C107.494 49.9422 108.404 51.0062 109.678 51.0062ZM114.568 46.4002V45.2942H115.674V43.6282H116.92V45.2942H118.824V46.4002H116.934V49.9422C116.934 50.6562 117.256 51.0062 117.858 51.0062C118.194 51.0062 118.53 50.8802 118.726 50.6562L119.3 51.5942C118.978 51.9022 118.432 52.1682 117.69 52.1682C116.43 52.1682 115.674 51.4262 115.674 49.9842V46.4002H114.568ZM123.284 52.1682C121.24 52.1682 119.77 50.5862 119.77 48.6402C119.77 46.6942 121.184 45.1262 123.088 45.1262C124.964 45.1262 126.392 46.6242 126.392 48.5142C126.392 48.6822 126.378 48.9342 126.35 49.0322H121.044C121.198 50.1942 122.08 51.0622 123.326 51.0622C124.082 51.0622 124.754 50.7682 125.202 50.3202L125.86 51.1742C125.314 51.7622 124.362 52.1682 123.284 52.1682ZM123.102 46.1902C122.052 46.1902 121.296 46.9462 121.072 48.0102H125.09C124.866 46.8482 124.11 46.1902 123.102 46.1902ZM131.786 44.1322C131.352 44.1322 131.016 43.7822 131.016 43.3622C131.016 42.9422 131.352 42.5922 131.786 42.5922C132.206 42.5922 132.556 42.9422 132.556 43.3622C132.556 43.7822 132.206 44.1322 131.786 44.1322ZM132.402 52.0002H131.17V45.2942H132.402V52.0002ZM134.642 52.0002V45.2942H135.874V46.3162C136.252 45.5742 136.966 45.1262 137.904 45.1262C139.472 45.1262 140.494 46.2042 140.494 47.8982V52.0002H139.262V48.0942C139.262 46.9882 138.618 46.2882 137.568 46.2882C136.518 46.2882 135.874 46.9882 135.874 48.0942V52.0002H134.642ZM150.573 46.9462C150.111 46.5262 149.537 46.2882 148.795 46.2882C147.465 46.2882 146.555 47.3242 146.555 48.6402C146.555 49.9422 147.479 51.0062 148.781 51.0062C149.523 51.0062 150.153 50.7682 150.601 50.3202L151.245 51.2302C150.713 51.8042 149.775 52.1682 148.753 52.1682C146.793 52.1682 145.309 50.5862 145.309 48.6402C145.309 46.6942 146.807 45.1262 148.767 45.1262C149.831 45.1262 150.727 45.4902 151.287 46.0642L150.573 46.9462ZM152.621 52.0002V42.3682H153.853V46.3162C154.231 45.5742 154.945 45.1262 155.883 45.1262C157.451 45.1262 158.473 46.2042 158.473 47.8982V52.0002H157.241V48.0942C157.241 46.9882 156.597 46.2882 155.547 46.2882C154.497 46.2882 153.853 46.9882 153.853 48.0942V52.0002H152.621ZM163.629 52.1682C161.585 52.1682 160.115 50.5862 160.115 48.6402C160.115 46.6942 161.529 45.1262 163.433 45.1262C165.309 45.1262 166.737 46.6242 166.737 48.5142C166.737 48.6822 166.723 48.9342 166.695 49.0322H161.389C161.543 50.1942 162.425 51.0622 163.671 51.0622C164.427 51.0622 165.099 50.7682 165.547 50.3202L166.205 51.1742C165.659 51.7622 164.707 52.1682 163.629 52.1682ZM163.447 46.1902C162.397 46.1902 161.641 46.9462 161.417 48.0102H165.435C165.211 46.8482 164.455 46.1902 163.447 46.1902ZM173.118 46.9462C172.656 46.5262 172.082 46.2882 171.34 46.2882C170.01 46.2882 169.1 47.3242 169.1 48.6402C169.1 49.9422 170.024 51.0062 171.326 51.0062C172.068 51.0062 172.698 50.7682 173.146 50.3202L173.79 51.2302C173.258 51.8042 172.32 52.1682 171.298 52.1682C169.338 52.1682 167.854 50.5862 167.854 48.6402C167.854 46.6942 169.352 45.1262 171.312 45.1262C172.376 45.1262 173.272 45.4902 173.832 46.0642L173.118 46.9462ZM176.398 52.0002H175.166V42.3682H176.398V48.2202L179.548 45.2942H181.116L177.742 48.4302L181.354 52.0002H179.73L176.398 48.6822V52.0002ZM184.889 52.1682C182.845 52.1682 181.375 50.5862 181.375 48.6402C181.375 46.6942 182.789 45.1262 184.693 45.1262C186.569 45.1262 187.997 46.6242 187.997 48.5142C187.997 48.6822 187.983 48.9342 187.955 49.0322H182.649C182.803 50.1942 183.685 51.0622 184.931 51.0622C185.687 51.0622 186.359 50.7682 186.807 50.3202L187.465 51.1742C186.919 51.7622 185.967 52.1682 184.889 52.1682ZM184.707 46.1902C183.657 46.1902 182.901 46.9462 182.677 48.0102H186.695C186.471 46.8482 185.715 46.1902 184.707 46.1902ZM192.361 52.1682C190.541 52.1682 189.113 50.6702 189.113 48.6402C189.113 46.6522 190.485 45.1262 192.361 45.1262C193.411 45.1262 194.209 45.6302 194.713 46.4562V42.3682H195.959V52.0002H194.713V50.7962C194.209 51.6222 193.411 52.1682 192.361 52.1682ZM192.543 51.0062C193.803 51.0062 194.713 49.9422 194.713 48.6402C194.713 47.3242 193.803 46.2882 192.543 46.2882C191.269 46.2882 190.359 47.3242 190.359 48.6402C190.359 49.9422 191.269 51.0062 192.543 51.0062ZM203.251 52.1682C202.257 52.1682 201.361 51.9022 200.675 51.4962L201.151 50.4742C201.907 50.8662 202.565 51.0902 203.335 51.0902C204.273 51.0902 204.721 50.7262 204.721 50.1942C204.721 48.6682 200.913 49.5922 200.913 47.0022C200.913 46.0082 201.809 45.1262 203.433 45.1262C204.343 45.1262 205.057 45.3502 205.785 45.7002L205.295 46.7222C204.819 46.4562 204.133 46.2182 203.489 46.2182C202.663 46.2182 202.173 46.4982 202.173 46.9882C202.173 48.5282 205.953 47.6182 205.953 50.1662C205.953 51.3142 204.959 52.1682 203.251 52.1682ZM206.84 46.4002V45.2942H207.946V43.6282H209.192V45.2942H211.096V46.4002H209.206V49.9422C209.206 50.6562 209.528 51.0062 210.13 51.0062C210.466 51.0062 210.802 50.8802 210.998 50.6562L211.572 51.5942C211.25 51.9022 210.704 52.1682 209.962 52.1682C208.702 52.1682 207.946 51.4262 207.946 49.9842V46.4002H206.84ZM215.289 52.1682C213.469 52.1682 212.041 50.6702 212.041 48.6402C212.041 46.6522 213.413 45.1262 215.289 45.1262C216.339 45.1262 217.137 45.6302 217.641 46.4562V45.2942H218.887V52.0002H217.641V50.7962C217.137 51.6222 216.339 52.1682 215.289 52.1682ZM215.471 51.0062C216.731 51.0062 217.641 49.9422 217.641 48.6402C217.641 47.3242 216.731 46.2882 215.471 46.2882C214.197 46.2882 213.287 47.3242 213.287 48.6402C213.287 49.9422 214.197 51.0062 215.471 51.0062ZM220.361 46.4002V45.2942H221.467V43.6282H222.713V45.2942H224.617V46.4002H222.727V49.9422C222.727 50.6562 223.049 51.0062 223.651 51.0062C223.987 51.0062 224.323 50.8802 224.519 50.6562L225.093 51.5942C224.771 51.9022 224.225 52.1682 223.483 52.1682C222.223 52.1682 221.467 51.4262 221.467 49.9842V46.4002H220.361ZM229.077 52.1682C227.033 52.1682 225.563 50.5862 225.563 48.6402C225.563 46.6942 226.977 45.1262 228.881 45.1262C230.757 45.1262 232.185 46.6242 232.185 48.5142C232.185 48.6822 232.171 48.9342 232.143 49.0322H226.837C226.991 50.1942 227.873 51.0622 229.119 51.0622C229.875 51.0622 230.547 50.7682 230.995 50.3202L231.653 51.1742C231.107 51.7622 230.155 52.1682 229.077 52.1682ZM228.895 46.1902C227.845 46.1902 227.089 46.9462 226.865 48.0102H230.883C230.659 46.8482 229.903 46.1902 228.895 46.1902Z" fill="black"/>
</g>
<defs>
<clipPath id="clip0_6343_38349">
<rect width="233" height="60" fill="white"/>
</clipPath>
</defs>
</svg>
