<svg width="149" height="24" viewBox="0 0 149 24" fill="none" xmlns="http://www.w3.org/2000/svg">
<g clip-path="url(#clip0_6343_38335)">
<path d="M16 1H8C4.13401 1 1 4.13401 1 8V16C1 19.866 4.13401 23 8 23H16C19.866 23 23 19.866 23 16V8C23 4.13401 19.866 1 16 1Z" fill="white"/>
<path d="M16 1H8C4.13401 1 1 4.13401 1 8V16C1 19.866 4.13401 23 8 23H16C19.866 23 23 19.866 23 16V8C23 4.13401 19.866 1 16 1Z" stroke="#5D5D5D" stroke-width="2"/>
<path d="M37.1914 16.0002V7.0402H39.9354C42.9174 7.0402 44.9894 8.8742 44.9894 11.5202C44.9894 14.1662 42.9734 16.0002 40.0614 16.0002H37.1914ZM39.9634 8.2302H38.4794V14.8102H39.9634C42.1894 14.8102 43.6454 13.5082 43.6454 11.5202C43.6454 9.5322 42.1894 8.2302 39.9634 8.2302ZM49.8251 16.1682C47.7811 16.1682 46.3111 14.5862 46.3111 12.6402C46.3111 10.6942 47.7251 9.1262 49.6291 9.1262C51.5051 9.1262 52.9331 10.6242 52.9331 12.5142C52.9331 12.6822 52.9191 12.9342 52.8911 13.0322H47.5851C47.7391 14.1942 48.6211 15.0622 49.8671 15.0622C50.6231 15.0622 51.2951 14.7682 51.7431 14.3202L52.4011 15.1742C51.8551 15.7622 50.9031 16.1682 49.8251 16.1682ZM49.6431 10.1902C48.5931 10.1902 47.8371 10.9462 47.6131 12.0102H51.6311C51.4071 10.8482 50.6511 10.1902 49.6431 10.1902ZM53.8394 10.4002V9.2942H54.8894V8.5242C54.8894 7.0402 55.7434 6.2002 57.0314 6.2002C57.8154 6.2002 58.3474 6.4382 58.7254 6.8442L58.0814 7.7542C57.8714 7.5302 57.5074 7.3622 57.1294 7.3622C56.4994 7.3622 56.1354 7.7822 56.1354 8.5382V9.2942H57.9134V10.4002H56.1354V16.0002H54.8894V10.4002H53.8394ZM61.6587 16.1682C59.8387 16.1682 58.4107 14.6702 58.4107 12.6402C58.4107 10.6522 59.7827 9.1262 61.6587 9.1262C62.7087 9.1262 63.5067 9.6302 64.0107 10.4562V9.2942H65.2567V16.0002H64.0107V14.7962C63.5067 15.6222 62.7087 16.1682 61.6587 16.1682ZM61.8407 15.0062C63.1007 15.0062 64.0107 13.9422 64.0107 12.6402C64.0107 11.3242 63.1007 10.2882 61.8407 10.2882C60.5667 10.2882 59.6567 11.3242 59.6567 12.6402C59.6567 13.9422 60.5667 15.0062 61.8407 15.0062ZM68.6206 9.2942V13.0042C68.6206 14.1802 69.3066 14.9642 70.3426 14.9642C71.3926 14.9642 72.0926 14.1802 72.0926 13.0042V9.2942H73.3386V13.1022C73.3386 14.9222 72.1486 16.1262 70.3426 16.1262C68.5506 16.1262 67.3746 14.9222 67.3746 13.1022V9.2942H68.6206ZM77.655 14.9222L77.795 16.0142C77.585 16.0842 77.319 16.1402 77.109 16.1402C76.269 16.1402 75.471 15.5802 75.471 14.1802V6.3682H76.703V14.1942C76.703 14.7822 77.025 14.9922 77.347 14.9922C77.445 14.9922 77.557 14.9642 77.655 14.9222ZM78.6935 10.4002V9.2942H79.7995V7.6282H81.0455V9.2942H82.9495V10.4002H81.0595V13.9422C81.0595 14.6562 81.3815 15.0062 81.9835 15.0062C82.3195 15.0062 82.6555 14.8802 82.8515 14.6562L83.4255 15.5942C83.1035 15.9022 82.5575 16.1682 81.8155 16.1682C80.5555 16.1682 79.7995 15.4262 79.7995 13.9842V10.4002H78.6935ZM95.2761 7.9782L94.4361 8.9582C93.8341 8.4542 93.0781 8.1042 92.0701 8.1042C90.2781 8.1042 88.8361 9.6302 88.8361 11.5202C88.8361 13.3962 90.2781 14.9222 92.1821 14.9222C93.0501 14.9222 93.8761 14.6282 94.4501 14.0962L95.2761 15.0202C94.4501 15.8322 93.4281 16.1682 92.0981 16.1682C89.4941 16.1682 87.4921 14.0822 87.4921 11.5202C87.4921 8.9442 89.5361 6.8582 92.0561 6.8582C93.4841 6.8582 94.4921 7.2642 95.2761 7.9782ZM96.7171 16.0002V6.3682H97.9491V10.3162C98.3271 9.5742 99.0411 9.1262 99.9791 9.1262C101.547 9.1262 102.569 10.2042 102.569 11.8982V16.0002H101.337V12.0942C101.337 10.9882 100.693 10.2882 99.6431 10.2882C98.5931 10.2882 97.9491 10.9882 97.9491 12.0942V16.0002H96.7171ZM107.725 16.1682C105.681 16.1682 104.211 14.5862 104.211 12.6402C104.211 10.6942 105.625 9.1262 107.529 9.1262C109.405 9.1262 110.833 10.6242 110.833 12.5142C110.833 12.6822 110.819 12.9342 110.791 13.0322H105.485C105.639 14.1942 106.521 15.0622 107.767 15.0622C108.523 15.0622 109.195 14.7682 109.643 14.3202L110.301 15.1742C109.755 15.7622 108.803 16.1682 107.725 16.1682ZM107.543 10.1902C106.493 10.1902 105.737 10.9462 105.513 12.0102H109.531C109.307 10.8482 108.551 10.1902 107.543 10.1902ZM117.213 10.9462C116.751 10.5262 116.177 10.2882 115.435 10.2882C114.105 10.2882 113.195 11.3242 113.195 12.6402C113.195 13.9422 114.119 15.0062 115.421 15.0062C116.163 15.0062 116.793 14.7682 117.241 14.3202L117.885 15.2302C117.353 15.8042 116.415 16.1682 115.393 16.1682C113.433 16.1682 111.949 14.5862 111.949 12.6402C111.949 10.6942 113.447 9.1262 115.407 9.1262C116.471 9.1262 117.367 9.4902 117.927 10.0642L117.213 10.9462ZM120.494 16.0002H119.262V6.3682H120.494V12.2202L123.644 9.2942H125.212L121.838 12.4302L125.45 16.0002H123.826L120.494 12.6822V16.0002ZM130.146 9.1262C131.966 9.1262 133.394 10.6242 133.394 12.6542C133.394 14.6422 132.022 16.1682 130.146 16.1682C129.096 16.1682 128.298 15.6642 127.794 14.8382V16.0002H126.562V6.3682H127.794V10.4982C128.298 9.6722 129.096 9.1262 130.146 9.1262ZM129.992 10.2882C128.718 10.2882 127.794 11.3522 127.794 12.6542C127.794 13.9702 128.718 15.0062 129.992 15.0062C131.252 15.0062 132.162 13.9702 132.162 12.6542C132.162 11.3522 131.252 10.2882 129.992 10.2882ZM138.074 16.1682C136.156 16.1682 134.658 14.5862 134.658 12.6402C134.658 10.6942 136.156 9.1262 138.074 9.1262C140.006 9.1262 141.504 10.6942 141.504 12.6402C141.504 14.5862 140.006 16.1682 138.074 16.1682ZM138.088 15.0062C139.348 15.0062 140.258 13.9422 140.258 12.6402C140.258 11.3242 139.348 10.2882 138.088 10.2882C136.814 10.2882 135.904 11.3242 135.904 12.6402C135.904 13.9422 136.814 15.0062 138.088 15.0062ZM141.936 16.0002L144.526 12.5842L142.048 9.2942H143.588L145.338 11.6322L147.13 9.2942H148.53L146.052 12.5702L148.628 16.0002H147.088L145.226 13.5222L143.336 16.0002H141.936Z" fill="black"/>
</g>
<defs>
<clipPath id="clip0_6343_38335">
<rect width="149" height="24" fill="white"/>
</clipPath>
</defs>
</svg>
