<svg width="144" height="60" viewBox="0 0 144 60" fill="none" xmlns="http://www.w3.org/2000/svg">
<path d="M16.5 0H8.5C4.08172 0 0.5 3.58172 0.5 8V16C0.5 20.4183 4.08172 24 8.5 24H16.5C20.9183 24 24.5 20.4183 24.5 16V8C24.5 3.58172 20.9183 0 16.5 0Z" fill="#1355E9"/>
<path d="M11.0133 17L19.5 8.49112L18.0133 7L11.0133 14.0178L7.98673 10.9822L6.5 12.4734L11.0133 17Z" fill="white"/>
<path d="M37.6914 16.0002V7.02616H40.8274C42.8994 7.02616 44.2574 8.14616 44.2574 9.86816C44.2574 11.5902 42.8854 12.7242 40.7994 12.7242H38.9514V16.0002H37.6914ZM40.9394 8.16016H38.9514V11.5902H40.9394C42.1294 11.5902 42.9414 10.9042 42.9414 9.86816C42.9414 8.83216 42.1294 8.16016 40.9394 8.16016ZM45.9339 16.0002V9.29416H47.1659V10.2462C47.5019 9.54616 48.0759 9.12616 48.8599 9.12616C49.2799 9.12616 49.6439 9.22416 49.8819 9.42016L49.3639 10.5822C49.1399 10.4282 48.8179 10.3162 48.4959 10.3162C47.6839 10.3162 47.1659 11.0162 47.1659 12.1362V16.0002H45.9339ZM53.563 16.1682C51.645 16.1682 50.147 14.5862 50.147 12.6402C50.147 10.6942 51.645 9.12616 53.563 9.12616C55.495 9.12616 56.993 10.6942 56.993 12.6402C56.993 14.5862 55.495 16.1682 53.563 16.1682ZM53.577 15.0062C54.837 15.0062 55.747 13.9422 55.747 12.6402C55.747 11.3242 54.837 10.2882 53.577 10.2882C52.303 10.2882 51.393 11.3242 51.393 12.6402C51.393 13.9422 52.303 15.0062 53.577 15.0062ZM61.5024 16.1682C59.6824 16.1682 58.2544 14.6702 58.2544 12.6402C58.2544 10.6522 59.6264 9.12616 61.5024 9.12616C62.5524 9.12616 63.3504 9.63016 63.8544 10.4562V6.36816H65.1004V16.0002H63.8544V14.7962C63.3504 15.6222 62.5524 16.1682 61.5024 16.1682ZM61.6844 15.0062C62.9444 15.0062 63.8544 13.9422 63.8544 12.6402C63.8544 11.3242 62.9444 10.2882 61.6844 10.2882C60.4104 10.2882 59.5004 11.3242 59.5004 12.6402C59.5004 13.9422 60.4104 15.0062 61.6844 15.0062ZM68.4644 9.29416V13.0042C68.4644 14.1802 69.1504 14.9642 70.1864 14.9642C71.2364 14.9642 71.9364 14.1802 71.9364 13.0042V9.29416H73.1824V13.1022C73.1824 14.9222 71.9924 16.1262 70.1864 16.1262C68.3944 16.1262 67.2184 14.9222 67.2184 13.1022V9.29416H68.4644ZM80.0888 10.9462C79.6268 10.5262 79.0528 10.2882 78.3108 10.2882C76.9808 10.2882 76.0708 11.3242 76.0708 12.6402C76.0708 13.9422 76.9948 15.0062 78.2968 15.0062C79.0388 15.0062 79.6688 14.7682 80.1168 14.3202L80.7608 15.2302C80.2288 15.8042 79.2908 16.1682 78.2688 16.1682C76.3088 16.1682 74.8248 14.5862 74.8248 12.6402C74.8248 10.6942 76.3228 9.12616 78.2828 9.12616C79.3468 9.12616 80.2428 9.49016 80.8028 10.0642L80.0888 10.9462ZM81.381 10.4002V9.29416H82.487V7.62816H83.733V9.29416H85.637V10.4002H83.747V13.9422C83.747 14.6562 84.069 15.0062 84.671 15.0062C85.007 15.0062 85.343 14.8802 85.539 14.6562L86.113 15.5942C85.791 15.9022 85.245 16.1682 84.503 16.1682C83.243 16.1682 82.487 15.4262 82.487 13.9842V10.4002H81.381ZM90.5716 12.5002V7.02616H91.8316V12.5002C91.8316 13.9562 92.7416 14.9222 94.0856 14.9222C95.4436 14.9222 96.3256 13.9562 96.3256 12.5002V7.02616H97.5996V12.5002C97.5996 14.7122 96.1856 16.1682 94.0716 16.1682C91.9576 16.1682 90.5716 14.7122 90.5716 12.5002ZM101.033 18.7442H99.8011V9.29416H101.033V10.4982C101.537 9.67216 102.335 9.12616 103.385 9.12616C105.205 9.12616 106.633 10.6242 106.633 12.6542C106.633 14.6422 105.261 16.1682 103.385 16.1682C102.335 16.1682 101.537 15.6642 101.033 14.8382V18.7442ZM103.231 15.0062C104.491 15.0062 105.401 13.9702 105.401 12.6542C105.401 11.3522 104.491 10.2882 103.231 10.2882C101.957 10.2882 101.033 11.3522 101.033 12.6542C101.033 13.9702 101.957 15.0062 103.231 15.0062ZM111.145 16.1682C109.325 16.1682 107.897 14.6702 107.897 12.6402C107.897 10.6522 109.269 9.12616 111.145 9.12616C112.195 9.12616 112.993 9.63016 113.497 10.4562V6.36816H114.743V16.0002H113.497V14.7962C112.993 15.6222 112.195 16.1682 111.145 16.1682ZM111.327 15.0062C112.587 15.0062 113.497 13.9422 113.497 12.6402C113.497 11.3242 112.587 10.2882 111.327 10.2882C110.053 10.2882 109.143 11.3242 109.143 12.6402C109.143 13.9422 110.053 15.0062 111.327 15.0062ZM119.731 16.1682C117.911 16.1682 116.483 14.6702 116.483 12.6402C116.483 10.6522 117.855 9.12616 119.731 9.12616C120.781 9.12616 121.579 9.63016 122.083 10.4562V9.29416H123.329V16.0002H122.083V14.7962C121.579 15.6222 120.781 16.1682 119.731 16.1682ZM119.913 15.0062C121.173 15.0062 122.083 13.9422 122.083 12.6402C122.083 11.3242 121.173 10.2882 119.913 10.2882C118.639 10.2882 117.729 11.3242 117.729 12.6402C117.729 13.9422 118.639 15.0062 119.913 15.0062ZM124.803 10.4002V9.29416H125.909V7.62816H127.155V9.29416H129.059V10.4002H127.169V13.9422C127.169 14.6562 127.491 15.0062 128.093 15.0062C128.429 15.0062 128.765 14.8802 128.961 14.6562L129.535 15.5942C129.213 15.9022 128.667 16.1682 127.925 16.1682C126.665 16.1682 125.909 15.4262 125.909 13.9842V10.4002H124.803ZM133.518 16.1682C131.474 16.1682 130.004 14.5862 130.004 12.6402C130.004 10.6942 131.418 9.12616 133.322 9.12616C135.198 9.12616 136.626 10.6242 136.626 12.5142C136.626 12.6822 136.612 12.9342 136.584 13.0322H131.278C131.432 14.1942 132.314 15.0622 133.56 15.0622C134.316 15.0622 134.988 14.7682 135.436 14.3202L136.094 15.1742C135.548 15.7622 134.596 16.1682 133.518 16.1682ZM133.336 10.1902C132.286 10.1902 131.53 10.9462 131.306 12.0102H135.324C135.1 10.8482 134.344 10.1902 133.336 10.1902ZM140.04 16.1682C139.046 16.1682 138.15 15.9022 137.464 15.4962L137.94 14.4742C138.696 14.8662 139.354 15.0902 140.124 15.0902C141.062 15.0902 141.51 14.7262 141.51 14.1942C141.51 12.6682 137.702 13.5922 137.702 11.0022C137.702 10.0082 138.598 9.12616 140.222 9.12616C141.132 9.12616 141.846 9.35016 142.574 9.70016L142.084 10.7222C141.608 10.4562 140.922 10.2182 140.278 10.2182C139.452 10.2182 138.962 10.4982 138.962 10.9882C138.962 12.5282 142.742 11.6182 142.742 14.1662C142.742 15.3142 141.748 16.1682 140.04 16.1682Z" fill="black"/>
<path d="M16.5 37H8.5C4.63401 37 1.5 40.134 1.5 44V52C1.5 55.866 4.63401 59 8.5 59H16.5C20.366 59 23.5 55.866 23.5 52V44C23.5 40.134 20.366 37 16.5 37Z" fill="white"/>
<path d="M16.5 37H8.5C4.63401 37 1.5 40.134 1.5 44V52C1.5 55.866 4.63401 59 8.5 59H16.5C20.366 59 23.5 55.866 23.5 52V44C23.5 40.134 20.366 37 16.5 37Z" stroke="#5D5D5D" stroke-width="2"/>
<path d="M37.6914 51.9998V43.0258H43.3894V44.2158H38.9514V46.9038H42.8294V48.0938H38.9514V50.8098H43.3894V51.9998H37.6914ZM48.2656 51.9998H46.6556L44.1216 45.2938H45.4936L47.4956 50.8798L49.5256 45.2938H50.7996L48.2656 51.9998ZM54.8915 52.1678C52.8475 52.1678 51.3775 50.5858 51.3775 48.6398C51.3775 46.6938 52.7915 45.1258 54.6955 45.1258C56.5715 45.1258 57.9995 46.6238 57.9995 48.5138C57.9995 48.6818 57.9855 48.9338 57.9575 49.0318H52.6515C52.8055 50.1938 53.6875 51.0618 54.9335 51.0618C55.6895 51.0618 56.3615 50.7678 56.8095 50.3198L57.4675 51.1738C56.9215 51.7618 55.9695 52.1678 54.8915 52.1678ZM54.7095 46.1898C53.6595 46.1898 52.9035 46.9458 52.6795 48.0098H56.6975C56.4735 46.8478 55.7175 46.1898 54.7095 46.1898ZM59.6058 51.9998V45.2938H60.8378V46.3158C61.2158 45.5738 61.9298 45.1258 62.8678 45.1258C64.4358 45.1258 65.4578 46.2038 65.4578 47.8978V51.9998H64.2258V48.0938C64.2258 46.9878 63.5818 46.2878 62.5318 46.2878C61.4818 46.2878 60.8378 46.9878 60.8378 48.0938V51.9998H59.6058ZM66.8342 46.3998V45.2938H67.9402V43.6278H69.1862V45.2938H71.0902V46.3998H69.2002V49.9418C69.2002 50.6558 69.5222 51.0058 70.1242 51.0058C70.4602 51.0058 70.7962 50.8798 70.9922 50.6558L71.5662 51.5938C71.2442 51.9018 70.6982 52.1678 69.9562 52.1678C68.6962 52.1678 67.9402 51.4258 67.9402 49.9838V46.3998H66.8342ZM76.1367 51.9998V43.0258H77.3967V51.9998H76.1367ZM79.7034 51.9998V45.2938H80.9354V46.3158C81.3134 45.5738 82.0274 45.1258 82.9654 45.1258C84.5334 45.1258 85.5554 46.2038 85.5554 47.8978V51.9998H84.3234V48.0938C84.3234 46.9878 83.6794 46.2878 82.6294 46.2878C81.5794 46.2878 80.9354 46.9878 80.9354 48.0938V51.9998H79.7034ZM90.8671 51.9998H89.2571L86.7231 45.2938H88.0951L90.0971 50.8798L92.1271 45.2938H93.4011L90.8671 51.9998ZM95.3448 44.1318C94.9108 44.1318 94.5748 43.7818 94.5748 43.3618C94.5748 42.9418 94.9108 42.5918 95.3448 42.5918C95.7648 42.5918 96.1148 42.9418 96.1148 43.3618C96.1148 43.7818 95.7648 44.1318 95.3448 44.1318ZM95.9608 51.9998H94.7288V45.2938H95.9608V51.9998ZM97.4455 46.3998V45.2938H98.5515V43.6278H99.7975V45.2938H101.701V46.3998H99.8115V49.9418C99.8115 50.6558 100.133 51.0058 100.735 51.0058C101.071 51.0058 101.407 50.8798 101.603 50.6558L102.177 51.5938C101.855 51.9018 101.309 52.1678 100.567 52.1678C99.3075 52.1678 98.5515 51.4258 98.5515 49.9838V46.3998H97.4455ZM105.895 52.1678C104.075 52.1678 102.647 50.6698 102.647 48.6398C102.647 46.6518 104.019 45.1258 105.895 45.1258C106.945 45.1258 107.743 45.6298 108.247 46.4558V45.2938H109.493V51.9998H108.247V50.7958C107.743 51.6218 106.945 52.1678 105.895 52.1678ZM106.077 51.0058C107.337 51.0058 108.247 49.9418 108.247 48.6398C108.247 47.3238 107.337 46.2878 106.077 46.2878C104.803 46.2878 103.893 47.3238 103.893 48.6398C103.893 49.9418 104.803 51.0058 106.077 51.0058ZM110.967 46.3998V45.2938H112.073V43.6278H113.319V45.2938H115.223V46.3998H113.333V49.9418C113.333 50.6558 113.655 51.0058 114.257 51.0058C114.593 51.0058 114.929 50.8798 115.125 50.6558L115.699 51.5938C115.377 51.9018 114.831 52.1678 114.089 52.1678C112.829 52.1678 112.073 51.4258 112.073 49.9838V46.3998H110.967ZM117.643 44.1318C117.209 44.1318 116.873 43.7818 116.873 43.3618C116.873 42.9418 117.209 42.5918 117.643 42.5918C118.063 42.5918 118.413 42.9418 118.413 43.3618C118.413 43.7818 118.063 44.1318 117.643 44.1318ZM118.259 51.9998H117.027V45.2938H118.259V51.9998ZM123.426 52.1678C121.508 52.1678 120.01 50.5858 120.01 48.6398C120.01 46.6938 121.508 45.1258 123.426 45.1258C125.358 45.1258 126.856 46.6938 126.856 48.6398C126.856 50.5858 125.358 52.1678 123.426 52.1678ZM123.44 51.0058C124.7 51.0058 125.61 49.9418 125.61 48.6398C125.61 47.3238 124.7 46.2878 123.44 46.2878C122.166 46.2878 121.256 47.3238 121.256 48.6398C121.256 49.9418 122.166 51.0058 123.44 51.0058ZM128.607 51.9998V45.2938H129.839V46.3158C130.217 45.5738 130.931 45.1258 131.869 45.1258C133.437 45.1258 134.459 46.2038 134.459 47.8978V51.9998H133.227V48.0938C133.227 46.9878 132.583 46.2878 131.533 46.2878C130.483 46.2878 129.839 46.9878 129.839 48.0938V51.9998H128.607ZM138.482 52.1678C137.488 52.1678 136.592 51.9018 135.906 51.4958L136.382 50.4738C137.138 50.8658 137.796 51.0898 138.566 51.0898C139.504 51.0898 139.952 50.7258 139.952 50.1938C139.952 48.6678 136.144 49.5918 136.144 47.0018C136.144 46.0078 137.04 45.1258 138.664 45.1258C139.574 45.1258 140.288 45.3498 141.016 45.6998L140.526 46.7218C140.05 46.4558 139.364 46.2178 138.72 46.2178C137.894 46.2178 137.404 46.4978 137.404 46.9878C137.404 48.5278 141.184 47.6178 141.184 50.1658C141.184 51.3138 140.19 52.1678 138.482 52.1678Z" fill="black"/>
</svg>
