<svg width="480" height="150" viewBox="0 0 480 150" fill="none" xmlns="http://www.w3.org/2000/svg">
<path d="M250.73 114V107.59H251.98V112.82H255.11V114H250.73ZM257.719 114.13C256.459 114.13 255.429 113.1 255.429 111.6C255.429 110.16 256.399 109.08 257.719 109.08C258.369 109.08 258.869 109.37 259.189 109.84V109.21H260.409V114H259.189V113.32C258.869 113.81 258.369 114.13 257.719 114.13ZM257.919 112.99C258.659 112.99 259.189 112.37 259.189 111.6C259.189 110.83 258.659 110.22 257.919 110.22C257.179 110.22 256.649 110.83 256.649 111.6C256.649 112.37 257.179 112.99 257.919 112.99ZM264.454 109.08C265.714 109.08 266.754 110.11 266.754 111.61C266.754 113.05 265.784 114.13 264.454 114.13C263.804 114.13 263.304 113.84 262.984 113.36V114H261.764V107.12H262.984V109.89C263.304 109.4 263.804 109.08 264.454 109.08ZM264.264 110.22C263.524 110.22 262.984 110.84 262.984 111.61C262.984 112.38 263.524 112.99 264.264 112.99C264.994 112.99 265.534 112.38 265.534 111.61C265.534 110.84 264.994 110.22 264.264 110.22ZM270.049 114.13C268.559 114.13 267.479 113 267.479 111.6C267.479 110.21 268.509 109.08 269.889 109.08C271.259 109.08 272.309 110.13 272.309 111.51C272.309 111.67 272.299 111.86 272.279 111.94H268.729C268.859 112.6 269.359 113.06 270.089 113.06C270.579 113.06 270.989 112.85 271.269 112.56L271.899 113.4C271.529 113.81 270.849 114.13 270.049 114.13ZM269.909 110.11C269.329 110.11 268.909 110.51 268.759 111.09H271.049C270.899 110.45 270.469 110.11 269.909 110.11ZM275.137 112.94L275.267 114.01C275.087 114.07 274.857 114.11 274.677 114.11C273.987 114.11 273.287 113.67 273.287 112.45V107.12H274.507V112.48C274.507 112.85 274.717 112.99 274.937 112.99C274.997 112.99 275.077 112.97 275.137 112.94Z" fill="black"/>
<path fill-rule="evenodd" clip-rule="evenodd" d="M280 111C280 108.243 282.243 106 285 106C287.757 106 290 108.243 290 111C290 113.757 287.757 116 285 116C282.243 116 280 113.757 280 111ZM289.231 111C289.231 108.658 287.342 106.769 285 106.769C282.658 106.769 280.769 108.658 280.769 111C280.769 113.342 282.658 115.231 285 115.231C287.342 115.231 289.231 113.342 289.231 111ZM285.577 113.115C285.577 113.434 285.319 113.692 285 113.692C284.681 113.692 284.423 113.434 284.423 113.115C284.423 112.797 284.681 112.538 285 112.538C285.319 112.538 285.577 112.797 285.577 113.115ZM283.269 110.017C283.269 109.077 284.048 108.308 285 108.308C285.952 108.308 286.731 109.077 286.731 110.017C286.731 110.71 286.274 111.334 285.608 111.553L285.433 111.606V112.154H284.567V111.606C284.567 111.241 284.809 110.907 285.162 110.792L285.338 110.738C285.652 110.635 285.865 110.344 285.865 110.017C285.865 109.54 285.483 109.162 285 109.162C284.517 109.162 284.135 109.54 284.135 110.017H283.269Z" fill="#2861BB"/>
<path d="M382 122.5H258C253.858 122.5 250.5 125.858 250.5 130V142C250.5 146.142 253.858 149.5 258 149.5H382C386.142 149.5 389.5 146.142 389.5 142V130C389.5 125.858 386.142 122.5 382 122.5Z" fill="white"/>
<path d="M382 122.5H258C253.858 122.5 250.5 125.858 250.5 130V142C250.5 146.142 253.858 149.5 258 149.5H382C386.142 149.5 389.5 146.142 389.5 142V130C389.5 125.858 386.142 122.5 382 122.5Z" stroke="#EBEBEB"/>
<path d="M262.73 139V132.6H264.87C266.98 132.6 268.49 133.93 268.49 135.8C268.49 137.67 267 139 264.91 139H262.73ZM264.86 133.77H264.02V137.82H264.87C266.24 137.82 267.15 137.02 267.15 135.8C267.15 134.57 266.24 133.77 264.86 133.77ZM271.835 139.13C270.345 139.13 269.265 138 269.265 136.6C269.265 135.21 270.295 134.08 271.675 134.08C273.045 134.08 274.095 135.13 274.095 136.51C274.095 136.67 274.085 136.86 274.065 136.94H270.515C270.645 137.6 271.145 138.06 271.875 138.06C272.365 138.06 272.775 137.85 273.055 137.56L273.685 138.4C273.315 138.81 272.635 139.13 271.835 139.13ZM271.695 135.11C271.115 135.11 270.695 135.51 270.545 136.09H272.835C272.685 135.45 272.255 135.11 271.695 135.11ZM274.643 135.29V134.21H275.423V133.93C275.423 132.72 276.113 131.99 277.183 131.99C277.833 131.99 278.253 132.17 278.563 132.48L277.963 133.4C277.823 133.25 277.563 133.13 277.303 133.13C276.903 133.13 276.653 133.4 276.653 133.92V134.21H277.893V135.29H276.653V139H275.423V135.29H274.643ZM280.51 139.13C279.25 139.13 278.22 138.1 278.22 136.6C278.22 135.16 279.19 134.08 280.51 134.08C281.16 134.08 281.66 134.37 281.98 134.84V134.21H283.2V139H281.98V138.32C281.66 138.81 281.16 139.13 280.51 139.13ZM280.71 137.99C281.45 137.99 281.98 137.37 281.98 136.6C281.98 135.83 281.45 135.22 280.71 135.22C279.97 135.22 279.44 135.83 279.44 136.6C279.44 137.37 279.97 137.99 280.71 137.99ZM285.715 134.21V136.8C285.715 137.5 286.115 137.97 286.725 137.97C287.335 137.97 287.745 137.5 287.745 136.8V134.21H288.975V136.89C288.975 138.23 288.075 139.12 286.725 139.12C285.375 139.12 284.495 138.23 284.495 136.89V134.21H285.715ZM292.118 137.94L292.248 139.01C292.068 139.07 291.838 139.11 291.658 139.11C290.968 139.11 290.268 138.67 290.268 137.45V132.12H291.488V137.48C291.488 137.85 291.698 137.99 291.918 137.99C291.978 137.99 292.058 137.97 292.118 137.94ZM292.776 135.29V134.21H293.616V132.97H294.846V134.21H296.136V135.29H294.856V137.33C294.856 137.78 295.036 137.99 295.396 137.99C295.626 137.99 295.846 137.89 295.966 137.75L296.506 138.66C296.246 138.92 295.796 139.13 295.206 139.13C294.236 139.13 293.616 138.53 293.616 137.36V135.29H292.776ZM302.497 132.46C304.327 132.46 305.817 133.96 305.817 135.81C305.817 137.64 304.327 139.13 302.497 139.13C300.667 139.13 299.177 137.63 299.177 135.8C299.177 133.95 300.667 132.46 302.497 132.46ZM302.497 137.89C303.597 137.89 304.487 136.95 304.487 135.81C304.487 134.65 303.597 133.7 302.497 133.7C301.397 133.7 300.517 134.64 300.517 135.8C300.517 136.95 301.397 137.89 302.497 137.89ZM308.119 140.96H306.899V134.21H308.119V134.89C308.439 134.4 308.939 134.08 309.589 134.08C310.849 134.08 311.889 135.11 311.889 136.61C311.889 138.05 310.919 139.13 309.589 139.13C308.939 139.13 308.439 138.84 308.119 138.36V140.96ZM309.399 137.99C310.129 137.99 310.669 137.38 310.669 136.61C310.669 135.84 310.129 135.22 309.399 135.22C308.659 135.22 308.119 135.84 308.119 136.61C308.119 137.38 308.659 137.99 309.399 137.99ZM312.434 135.29V134.21H313.274V132.97H314.504V134.21H315.794V135.29H314.514V137.33C314.514 137.78 314.694 137.99 315.054 137.99C315.284 137.99 315.504 137.89 315.624 137.75L316.164 138.66C315.904 138.92 315.454 139.13 314.864 139.13C313.894 139.13 313.274 138.53 313.274 137.36V135.29H312.434ZM317.587 133.57C317.187 133.57 316.877 133.25 316.877 132.85C316.877 132.46 317.187 132.14 317.587 132.14C317.977 132.14 318.307 132.46 318.307 132.85C318.307 133.25 317.977 133.57 317.587 133.57ZM318.197 139H316.977V134.21H318.197V139ZM321.745 139.13C320.355 139.13 319.255 138 319.255 136.6C319.255 135.21 320.355 134.08 321.745 134.08C323.135 134.08 324.235 135.21 324.235 136.6C324.235 138 323.135 139.13 321.745 139.13ZM321.745 137.99C322.485 137.99 323.015 137.37 323.015 136.6C323.015 135.83 322.485 135.22 321.745 135.22C321.005 135.22 320.475 135.83 320.475 136.6C320.475 137.37 321.005 137.99 321.745 137.99ZM325.287 139V134.21H326.507V134.89C326.757 134.38 327.237 134.08 327.867 134.08C328.967 134.08 329.677 134.85 329.677 136.1V139H328.457V136.28C328.457 135.63 328.087 135.22 327.487 135.22C326.887 135.22 326.507 135.63 326.507 136.28V139H325.287Z" fill="black"/>
<path d="M374 139L369 133.952L370 133L374 137.286L378 133L379 133.952L374 139Z" fill="black"/>
<path d="M0.875 106V98.308H2.375V104.584H6.131V106H0.875ZM9.26131 106.156C7.74931 106.156 6.51331 104.92 6.51331 103.12C6.51331 101.392 7.67731 100.096 9.26131 100.096C10.0413 100.096 10.6413 100.444 11.0253 101.008V100.252H12.4893V106H11.0253V105.184C10.6413 105.772 10.0413 106.156 9.26131 106.156ZM9.50131 104.788C10.3893 104.788 11.0253 104.044 11.0253 103.12C11.0253 102.196 10.3893 101.464 9.50131 101.464C8.61331 101.464 7.97731 102.196 7.97731 103.12C7.97731 104.044 8.61331 104.788 9.50131 104.788ZM17.3438 100.096C18.8558 100.096 20.1038 101.332 20.1038 103.132C20.1038 104.86 18.9398 106.156 17.3438 106.156C16.5638 106.156 15.9638 105.808 15.5798 105.232V106H14.1158V97.744H15.5798V101.068C15.9638 100.48 16.5638 100.096 17.3438 100.096ZM17.1158 101.464C16.2278 101.464 15.5798 102.208 15.5798 103.132C15.5798 104.056 16.2278 104.788 17.1158 104.788C17.9918 104.788 18.6398 104.056 18.6398 103.132C18.6398 102.208 17.9918 101.464 17.1158 101.464ZM24.0582 106.156C22.2703 106.156 20.9743 104.8 20.9743 103.12C20.9743 101.452 22.2103 100.096 23.8663 100.096C25.5103 100.096 26.7703 101.356 26.7703 103.012C26.7703 103.204 26.7583 103.432 26.7343 103.528H22.4743C22.6303 104.32 23.2303 104.872 24.1063 104.872C24.6943 104.872 25.1863 104.62 25.5223 104.272L26.2783 105.28C25.8343 105.772 25.0183 106.156 24.0582 106.156ZM23.8903 101.332C23.1943 101.332 22.6903 101.812 22.5103 102.508H25.2583C25.0783 101.74 24.5623 101.332 23.8903 101.332ZM30.1639 104.728L30.3199 106.012C30.1039 106.084 29.8279 106.132 29.6119 106.132C28.7839 106.132 27.9439 105.604 27.9439 104.14V97.744H29.4079V104.176C29.4079 104.62 29.6599 104.788 29.9239 104.788C29.9959 104.788 30.0919 104.764 30.1639 104.728Z" fill="black"/>
<path fill-rule="evenodd" clip-rule="evenodd" d="M35 102.333C35 99.0244 37.6914 96.333 41 96.333C44.3086 96.333 47 99.0244 47 102.333C47 105.642 44.3086 108.333 41 108.333C37.6914 108.333 35 105.642 35 102.333ZM46.0769 102.333C46.0769 99.5229 43.8102 97.2561 41 97.2561C38.1898 97.2561 35.9231 99.5229 35.9231 102.333C35.9231 105.143 38.1898 107.41 41 107.41C43.8102 107.41 46.0769 105.143 46.0769 102.333ZM41.6923 104.871C41.6923 105.254 41.3824 105.564 41 105.564C40.6176 105.564 40.3077 105.254 40.3077 104.871C40.3077 104.489 40.6176 104.179 41 104.179C41.3824 104.179 41.6923 104.489 41.6923 104.871ZM38.9231 101.154C38.9231 100.026 39.8581 99.1022 41 99.1022C42.1419 99.1022 43.0769 100.026 43.0769 101.154C43.0769 101.985 42.5293 102.734 41.7302 102.996L41.5192 103.061V103.718H40.4808V103.061C40.4808 102.622 40.7708 102.221 41.1947 102.083L41.4056 102.019C41.7829 101.895 42.0385 101.546 42.0385 101.154C42.0385 100.581 41.5801 100.128 41 100.128C40.4199 100.128 39.9615 100.581 39.9615 101.154H38.9231Z" fill="#2861BB"/>
<path d="M152 114.5H8C3.85786 114.5 0.5 117.858 0.5 122V142C0.5 146.142 3.85786 149.5 8 149.5H152C156.142 149.5 159.5 146.142 159.5 142V122C159.5 117.858 156.142 114.5 152 114.5Z" fill="white"/>
<path d="M152 114.5H8C3.85786 114.5 0.5 117.858 0.5 122V142C0.5 146.142 3.85786 149.5 8 149.5H152C156.142 149.5 159.5 146.142 159.5 142V122C159.5 117.858 156.142 114.5 152 114.5Z" stroke="#EBEBEB"/>
<path d="M12.875 136V128.32H15.443C17.975 128.32 19.787 129.916 19.787 132.16C19.787 134.404 17.999 136 15.491 136H12.875ZM15.431 129.724H14.423V134.584H15.443C17.087 134.584 18.179 133.624 18.179 132.16C18.179 130.684 17.087 129.724 15.431 129.724ZM23.8004 136.156C22.0124 136.156 20.7164 134.8 20.7164 133.12C20.7164 131.452 21.9524 130.096 23.6084 130.096C25.2524 130.096 26.5124 131.356 26.5124 133.012C26.5124 133.204 26.5004 133.432 26.4764 133.528H22.2164C22.3724 134.32 22.9724 134.872 23.8484 134.872C24.4364 134.872 24.9284 134.62 25.2644 134.272L26.0204 135.28C25.5764 135.772 24.7604 136.156 23.8004 136.156ZM23.6324 131.332C22.9364 131.332 22.4324 131.812 22.2524 132.508H25.0004C24.8204 131.74 24.3044 131.332 23.6324 131.332ZM27.1701 131.548V130.252H28.1061V129.916C28.1061 128.464 28.9341 127.588 30.2181 127.588C30.9981 127.588 31.5021 127.804 31.8741 128.176L31.1541 129.28C30.9861 129.1 30.6741 128.956 30.3621 128.956C29.8821 128.956 29.5821 129.28 29.5821 129.904V130.252H31.0701V131.548H29.5821V136H28.1061V131.548H27.1701ZM34.2105 136.156C32.6985 136.156 31.4625 134.92 31.4625 133.12C31.4625 131.392 32.6265 130.096 34.2105 130.096C34.9905 130.096 35.5905 130.444 35.9745 131.008V130.252H37.4385V136H35.9745V135.184C35.5905 135.772 34.9905 136.156 34.2105 136.156ZM34.4505 134.788C35.3385 134.788 35.9745 134.044 35.9745 133.12C35.9745 132.196 35.3385 131.464 34.4505 131.464C33.5625 131.464 32.9265 132.196 32.9265 133.12C32.9265 134.044 33.5625 134.788 34.4505 134.788ZM40.457 130.252V133.36C40.457 134.2 40.937 134.764 41.669 134.764C42.401 134.764 42.893 134.2 42.893 133.36V130.252H44.369V133.468C44.369 135.076 43.289 136.144 41.669 136.144C40.049 136.144 38.993 135.076 38.993 133.468V130.252H40.457ZM48.1405 134.728L48.2965 136.012C48.0805 136.084 47.8045 136.132 47.5885 136.132C46.7605 136.132 45.9205 135.604 45.9205 134.14V127.744H47.3845V134.176C47.3845 134.62 47.6365 134.788 47.9005 134.788C47.9725 134.788 48.0685 134.764 48.1405 134.728ZM48.9301 131.548V130.252H49.9381V128.764H51.4141V130.252H52.9621V131.548H51.4261V133.996C51.4261 134.536 51.6421 134.788 52.0741 134.788C52.3501 134.788 52.6141 134.668 52.7581 134.5L53.4061 135.592C53.0941 135.904 52.5541 136.156 51.8461 136.156C50.6821 136.156 49.9381 135.436 49.9381 134.032V131.548H48.9301ZM60.5958 128.152C62.7918 128.152 64.5798 129.952 64.5798 132.172C64.5798 134.368 62.7918 136.156 60.5958 136.156C58.3998 136.156 56.6118 134.356 56.6118 132.16C56.6118 129.94 58.3998 128.152 60.5958 128.152ZM60.5958 134.668C61.9158 134.668 62.9838 133.54 62.9838 132.172C62.9838 130.78 61.9158 129.64 60.5958 129.64C59.2758 129.64 58.2198 130.768 58.2198 132.16C58.2198 133.54 59.2758 134.668 60.5958 134.668ZM67.3415 138.352H65.8775V130.252H67.3415V131.068C67.7255 130.48 68.3255 130.096 69.1055 130.096C70.6175 130.096 71.8655 131.332 71.8655 133.132C71.8655 134.86 70.7015 136.156 69.1055 136.156C68.3255 136.156 67.7255 135.808 67.3415 135.232V138.352ZM68.8775 134.788C69.7535 134.788 70.4015 134.056 70.4015 133.132C70.4015 132.208 69.7535 131.464 68.8775 131.464C67.9895 131.464 67.3415 132.208 67.3415 133.132C67.3415 134.056 67.9895 134.788 68.8775 134.788ZM72.52 131.548V130.252H73.528V128.764H75.004V130.252H76.552V131.548H75.016V133.996C75.016 134.536 75.232 134.788 75.664 134.788C75.94 134.788 76.204 134.668 76.348 134.5L76.996 135.592C76.684 135.904 76.144 136.156 75.436 136.156C74.272 136.156 73.528 135.436 73.528 134.032V131.548H72.52ZM78.7033 129.484C78.2233 129.484 77.8513 129.1 77.8513 128.62C77.8513 128.152 78.2233 127.768 78.7033 127.768C79.1713 127.768 79.5673 128.152 79.5673 128.62C79.5673 129.1 79.1713 129.484 78.7033 129.484ZM79.4353 136H77.9713V130.252H79.4353V136ZM83.6927 136.156C82.0247 136.156 80.7047 134.8 80.7047 133.12C80.7047 131.452 82.0247 130.096 83.6927 130.096C85.3607 130.096 86.6807 131.452 86.6807 133.12C86.6807 134.8 85.3607 136.156 83.6927 136.156ZM83.6927 134.788C84.5807 134.788 85.2167 134.044 85.2167 133.12C85.2167 132.196 84.5807 131.464 83.6927 131.464C82.8047 131.464 82.1687 132.196 82.1687 133.12C82.1687 134.044 82.8047 134.788 83.6927 134.788ZM87.9439 136V130.252H89.4079V131.068C89.7079 130.456 90.2839 130.096 91.0399 130.096C92.3599 130.096 93.2119 131.02 93.2119 132.52V136H91.7479V132.736C91.7479 131.956 91.3039 131.464 90.5839 131.464C89.8639 131.464 89.4079 131.956 89.4079 132.736V136H87.9439Z" fill="black"/>
<path d="M144 135L139 129.952L140 129L144 133.286L148 129L149 129.952L144 135Z" fill="black"/>
<path d="M251.023 15V6.04004H254.019C256.973 6.04004 259.087 7.90204 259.087 10.52C259.087 13.138 257.001 15 254.075 15H251.023ZM254.005 7.67804H252.829V13.348H254.019C255.937 13.348 257.211 12.228 257.211 10.52C257.211 8.79804 255.937 7.67804 254.005 7.67804ZM260.605 15V8.29404H262.313V9.28804C262.635 8.57404 263.209 8.11204 263.965 8.11204C264.413 8.11204 264.777 8.22404 265.029 8.43404L264.329 10.044C264.105 9.87604 263.769 9.76404 263.433 9.76404C262.761 9.76404 262.313 10.338 262.313 11.248V15H260.605ZM268.689 15.182C266.743 15.182 265.203 13.6 265.203 11.64C265.203 9.69404 266.743 8.11204 268.689 8.11204C270.635 8.11204 272.175 9.69404 272.175 11.64C272.175 13.6 270.635 15.182 268.689 15.182ZM268.689 13.586C269.725 13.586 270.467 12.718 270.467 11.64C270.467 10.562 269.725 9.70804 268.689 9.70804C267.653 9.70804 266.911 10.562 266.911 11.64C266.911 12.718 267.653 13.586 268.689 13.586ZM275.356 17.744H273.648V8.29404H275.356V9.24604C275.804 8.56004 276.504 8.11204 277.414 8.11204C279.178 8.11204 280.634 9.55404 280.634 11.654C280.634 13.67 279.276 15.182 277.414 15.182C276.504 15.182 275.804 14.776 275.356 14.104V17.744ZM277.148 13.586C278.17 13.586 278.926 12.732 278.926 11.654C278.926 10.576 278.17 9.70804 277.148 9.70804C276.112 9.70804 275.356 10.576 275.356 11.654C275.356 12.732 276.112 13.586 277.148 13.586ZM284.856 15.182C283.092 15.182 281.65 13.74 281.65 11.64C281.65 9.62404 283.008 8.11204 284.856 8.11204C285.766 8.11204 286.466 8.51804 286.914 9.17604V5.36804H288.622V15H286.914V14.048C286.466 14.734 285.766 15.182 284.856 15.182ZM285.136 13.586C286.172 13.586 286.914 12.718 286.914 11.64C286.914 10.562 286.172 9.70804 285.136 9.70804C284.1 9.70804 283.358 10.562 283.358 11.64C283.358 12.718 284.1 13.586 285.136 13.586ZM293.571 15.182C291.625 15.182 290.085 13.6 290.085 11.64C290.085 9.69404 291.625 8.11204 293.571 8.11204C295.517 8.11204 297.057 9.69404 297.057 11.64C297.057 13.6 295.517 15.182 293.571 15.182ZM293.571 13.586C294.607 13.586 295.349 12.718 295.349 11.64C295.349 10.562 294.607 9.70804 293.571 9.70804C292.535 9.70804 291.793 10.562 291.793 11.64C291.793 12.718 292.535 13.586 293.571 13.586ZM301.535 15H299.603L297.531 8.29404H299.365L300.611 13.124L301.969 8.29404H303.817L305.203 13.152L306.477 8.29404H308.311L306.239 15H304.111L302.809 10.45L301.535 15ZM309.523 15V8.29404H311.231V9.24604C311.581 8.53204 312.253 8.11204 313.135 8.11204C314.675 8.11204 315.669 9.19004 315.669 10.94V15H313.961V11.192C313.961 10.282 313.443 9.70804 312.603 9.70804C311.763 9.70804 311.231 10.282 311.231 11.192V15H309.523ZM320.586 15V6.02604H322.336V13.348H326.718V15H320.586ZM330.37 15.182C328.606 15.182 327.164 13.74 327.164 11.64C327.164 9.62404 328.522 8.11204 330.37 8.11204C331.28 8.11204 331.98 8.51804 332.428 9.17604V8.29404H334.136V15H332.428V14.048C331.98 14.734 331.28 15.182 330.37 15.182ZM330.65 13.586C331.686 13.586 332.428 12.718 332.428 11.64C332.428 10.562 331.686 9.70804 330.65 9.70804C329.614 9.70804 328.872 10.562 328.872 11.64C328.872 12.718 329.614 13.586 330.65 13.586ZM339.799 8.11204C341.563 8.11204 343.019 9.55404 343.019 11.654C343.019 13.67 341.661 15.182 339.799 15.182C338.889 15.182 338.189 14.776 337.741 14.104V15H336.033V5.36804H337.741V9.24604C338.189 8.56004 338.889 8.11204 339.799 8.11204ZM339.533 9.70804C338.497 9.70804 337.741 10.576 337.741 11.654C337.741 12.732 338.497 13.586 339.533 13.586C340.555 13.586 341.311 12.732 341.311 11.654C341.311 10.576 340.555 9.70804 339.533 9.70804ZM347.633 15.182C345.547 15.182 344.035 13.6 344.035 11.64C344.035 9.69404 345.477 8.11204 347.409 8.11204C349.327 8.11204 350.797 9.58204 350.797 11.514C350.797 11.738 350.783 12.004 350.755 12.116H345.785C345.967 13.04 346.667 13.684 347.689 13.684C348.375 13.684 348.949 13.39 349.341 12.984L350.223 14.16C349.705 14.734 348.753 15.182 347.633 15.182ZM347.437 9.55404C346.625 9.55404 346.037 10.114 345.827 10.926H349.033C348.823 10.03 348.221 9.55404 347.437 9.55404ZM354.756 13.516L354.938 15.014C354.686 15.098 354.364 15.154 354.112 15.154C353.146 15.154 352.166 14.538 352.166 12.83V5.36804H353.874V12.872C353.874 13.39 354.168 13.586 354.476 13.586C354.56 13.586 354.672 13.558 354.756 13.516Z" fill="black"/>
<path fill-rule="evenodd" clip-rule="evenodd" d="M360 11C360 6.58854 363.589 3 368 3C372.411 3 376 6.58854 376 11C376 15.4115 372.411 19 368 19C363.589 19 360 15.4115 360 11ZM374.769 11C374.769 7.25312 371.747 4.23077 368 4.23077C364.253 4.23077 361.231 7.25312 361.231 11C361.231 14.7469 364.253 17.7692 368 17.7692C371.747 17.7692 374.769 14.7469 374.769 11ZM368.923 14.3846C368.923 14.8944 368.51 15.3077 368 15.3077C367.49 15.3077 367.077 14.8944 367.077 14.3846C367.077 13.8748 367.49 13.4615 368 13.4615C368.51 13.4615 368.923 13.8748 368.923 14.3846ZM365.231 9.42735C365.231 7.92361 366.477 6.69231 368 6.69231C369.523 6.69231 370.769 7.92361 370.769 9.42735C370.769 10.5358 370.039 11.5347 368.974 11.8846L368.692 11.9701V12.8462H367.308V11.9701C367.308 11.3851 367.694 10.851 368.26 10.6667L368.541 10.5812C369.044 10.4156 369.385 9.95086 369.385 9.42735C369.385 8.66346 368.773 8.05983 368 8.05983C367.227 8.05983 366.615 8.66346 366.615 9.42735H365.231Z" fill="#2861BB"/>
<path d="M472 26.5H258C253.858 26.5 250.5 29.8579 250.5 34V58C250.5 62.1421 253.858 65.5 258 65.5H472C476.142 65.5 479.5 62.1421 479.5 58V34C479.5 29.8579 476.142 26.5 472 26.5Z" fill="white"/>
<path d="M472 26.5H258C253.858 26.5 250.5 29.8579 250.5 34V58C250.5 62.1421 253.858 65.5 258 65.5H472C476.142 65.5 479.5 62.1421 479.5 58V34C479.5 29.8579 476.142 26.5 472 26.5Z" stroke="#EBEBEB"/>
<path d="M263.023 50V41.04H266.019C268.973 41.04 271.087 42.902 271.087 45.52C271.087 48.138 269.001 50 266.075 50H263.023ZM266.005 42.678H264.829V48.348H266.019C267.937 48.348 269.211 47.228 269.211 45.52C269.211 43.798 267.937 42.678 266.005 42.678ZM275.769 50.182C273.683 50.182 272.171 48.6 272.171 46.64C272.171 44.694 273.613 43.112 275.545 43.112C277.463 43.112 278.933 44.582 278.933 46.514C278.933 46.738 278.919 47.004 278.891 47.116H273.921C274.103 48.04 274.803 48.684 275.825 48.684C276.511 48.684 277.085 48.39 277.477 47.984L278.359 49.16C277.841 49.734 276.889 50.182 275.769 50.182ZM275.573 44.554C274.761 44.554 274.173 45.114 273.963 45.926H277.169C276.959 45.03 276.357 44.554 275.573 44.554ZM279.701 44.806V43.294H280.793V42.902C280.793 41.208 281.759 40.186 283.257 40.186C284.167 40.186 284.755 40.438 285.189 40.872L284.349 42.16C284.153 41.95 283.789 41.782 283.425 41.782C282.865 41.782 282.515 42.16 282.515 42.888V43.294H284.251V44.806H282.515V50H280.793V44.806H279.701ZM287.914 50.182C286.15 50.182 284.708 48.74 284.708 46.64C284.708 44.624 286.066 43.112 287.914 43.112C288.824 43.112 289.524 43.518 289.972 44.176V43.294H291.68V50H289.972V49.048C289.524 49.734 288.824 50.182 287.914 50.182ZM288.194 48.586C289.23 48.586 289.972 47.718 289.972 46.64C289.972 45.562 289.23 44.708 288.194 44.708C287.158 44.708 286.416 45.562 286.416 46.64C286.416 47.718 287.158 48.586 288.194 48.586ZM295.202 43.294V46.92C295.202 47.9 295.762 48.558 296.616 48.558C297.47 48.558 298.044 47.9 298.044 46.92V43.294H299.766V47.046C299.766 48.922 298.506 50.168 296.616 50.168C294.726 50.168 293.494 48.922 293.494 47.046V43.294H295.202ZM304.166 48.516L304.348 50.014C304.096 50.098 303.774 50.154 303.522 50.154C302.556 50.154 301.576 49.538 301.576 47.83V40.368H303.284V47.872C303.284 48.39 303.578 48.586 303.886 48.586C303.97 48.586 304.082 48.558 304.166 48.516ZM305.087 44.806V43.294H306.263V41.558H307.985V43.294H309.791V44.806H307.999V47.662C307.999 48.292 308.251 48.586 308.755 48.586C309.077 48.586 309.385 48.446 309.553 48.25L310.309 49.524C309.945 49.888 309.315 50.182 308.489 50.182C307.131 50.182 306.263 49.342 306.263 47.704V44.806H305.087ZM318.697 40.844C321.259 40.844 323.345 42.944 323.345 45.534C323.345 48.096 321.259 50.182 318.697 50.182C316.135 50.182 314.049 48.082 314.049 45.52C314.049 42.93 316.135 40.844 318.697 40.844ZM318.697 48.446C320.237 48.446 321.483 47.13 321.483 45.534C321.483 43.91 320.237 42.58 318.697 42.58C317.157 42.58 315.925 43.896 315.925 45.52C315.925 47.13 317.157 48.446 318.697 48.446ZM326.567 52.744H324.859V43.294H326.567V44.246C327.015 43.56 327.715 43.112 328.625 43.112C330.389 43.112 331.845 44.554 331.845 46.654C331.845 48.67 330.487 50.182 328.625 50.182C327.715 50.182 327.015 49.776 326.567 49.104V52.744ZM328.359 48.586C329.381 48.586 330.137 47.732 330.137 46.654C330.137 45.576 329.381 44.708 328.359 44.708C327.323 44.708 326.567 45.576 326.567 46.654C326.567 47.732 327.323 48.586 328.359 48.586ZM332.609 44.806V43.294H333.785V41.558H335.507V43.294H337.313V44.806H335.521V47.662C335.521 48.292 335.773 48.586 336.277 48.586C336.599 48.586 336.907 48.446 337.075 48.25L337.831 49.524C337.467 49.888 336.837 50.182 336.011 50.182C334.653 50.182 333.785 49.342 333.785 47.704V44.806H332.609ZM339.823 42.398C339.263 42.398 338.829 41.95 338.829 41.39C338.829 40.844 339.263 40.396 339.823 40.396C340.369 40.396 340.831 40.844 340.831 41.39C340.831 41.95 340.369 42.398 339.823 42.398ZM340.677 50H338.969V43.294H340.677V50ZM345.644 50.182C343.698 50.182 342.158 48.6 342.158 46.64C342.158 44.694 343.698 43.112 345.644 43.112C347.59 43.112 349.13 44.694 349.13 46.64C349.13 48.6 347.59 50.182 345.644 50.182ZM345.644 48.586C346.68 48.586 347.422 47.718 347.422 46.64C347.422 45.562 346.68 44.708 345.644 44.708C344.608 44.708 343.866 45.562 343.866 46.64C343.866 47.718 344.608 48.586 345.644 48.586ZM350.603 50V43.294H352.311V44.246C352.661 43.532 353.333 43.112 354.215 43.112C355.755 43.112 356.749 44.19 356.749 45.94V50H355.041V46.192C355.041 45.282 354.523 44.708 353.683 44.708C352.843 44.708 352.311 45.282 352.311 46.192V50H350.603Z" fill="black"/>
<path d="M464 49L459 43.9524L460 43L464 47.2857L468 43L469 43.9524L464 49Z" fill="black"/>
<path d="M1.02344 15V6.04004H4.01944C6.97344 6.04004 9.08744 7.90204 9.08744 10.52C9.08744 13.138 7.00144 15 4.07544 15H1.02344ZM4.00544 7.67804H2.82944V13.348H4.01944C5.93744 13.348 7.21144 12.228 7.21144 10.52C7.21144 8.79804 5.93744 7.67804 4.00544 7.67804ZM10.6057 15V8.29404H12.3137V9.28804C12.6357 8.57404 13.2097 8.11204 13.9657 8.11204C14.4137 8.11204 14.7777 8.22404 15.0297 8.43404L14.3297 10.044C14.1057 9.87604 13.7697 9.76404 13.4337 9.76404C12.7617 9.76404 12.3137 10.338 12.3137 11.248V15H10.6057ZM18.689 15.182C16.743 15.182 15.203 13.6 15.203 11.64C15.203 9.69404 16.743 8.11204 18.689 8.11204C20.635 8.11204 22.175 9.69404 22.175 11.64C22.175 13.6 20.635 15.182 18.689 15.182ZM18.689 13.586C19.725 13.586 20.467 12.718 20.467 11.64C20.467 10.562 19.725 9.70804 18.689 9.70804C17.653 9.70804 16.911 10.562 16.911 11.64C16.911 12.718 17.653 13.586 18.689 13.586ZM25.3567 17.744H23.6487V8.29404H25.3567V9.24604C25.8047 8.56004 26.5047 8.11204 27.4147 8.11204C29.1787 8.11204 30.6347 9.55404 30.6347 11.654C30.6347 13.67 29.2767 15.182 27.4147 15.182C26.5047 15.182 25.8047 14.776 25.3567 14.104V17.744ZM27.1487 13.586C28.1707 13.586 28.9267 12.732 28.9267 11.654C28.9267 10.576 28.1707 9.70804 27.1487 9.70804C26.1127 9.70804 25.3567 10.576 25.3567 11.654C25.3567 12.732 26.1127 13.586 27.1487 13.586ZM34.8563 15.182C33.0923 15.182 31.6503 13.74 31.6503 11.64C31.6503 9.62404 33.0083 8.11204 34.8563 8.11204C35.7663 8.11204 36.4663 8.51804 36.9143 9.17604V5.36804H38.6223V15H36.9143V14.048C36.4663 14.734 35.7663 15.182 34.8563 15.182ZM35.1363 13.586C36.1723 13.586 36.9143 12.718 36.9143 11.64C36.9143 10.562 36.1723 9.70804 35.1363 9.70804C34.1003 9.70804 33.3583 10.562 33.3583 11.64C33.3583 12.718 34.1003 13.586 35.1363 13.586ZM43.5718 15.182C41.6258 15.182 40.0858 13.6 40.0858 11.64C40.0858 9.69404 41.6258 8.11204 43.5718 8.11204C45.5178 8.11204 47.0578 9.69404 47.0578 11.64C47.0578 13.6 45.5178 15.182 43.5718 15.182ZM43.5718 13.586C44.6078 13.586 45.3498 12.718 45.3498 11.64C45.3498 10.562 44.6078 9.70804 43.5718 9.70804C42.5358 9.70804 41.7938 10.562 41.7938 11.64C41.7938 12.718 42.5358 13.586 43.5718 13.586ZM51.5351 15H49.6031L47.5311 8.29404H49.3651L50.6111 13.124L51.9691 8.29404H53.8171L55.2031 13.152L56.4771 8.29404H58.3111L56.2391 15H54.1111L52.8091 10.45L51.5351 15ZM59.5237 15V8.29404H61.2317V9.24604C61.5817 8.53204 62.2537 8.11204 63.1357 8.11204C64.6757 8.11204 65.6697 9.19004 65.6697 10.94V15H63.9617V11.192C63.9617 10.282 63.4437 9.70804 62.6037 9.70804C61.7637 9.70804 61.2317 10.282 61.2317 11.192V15H59.5237ZM70.5859 15V6.02604H72.3359V13.348H76.7179V15H70.5859ZM80.3699 15.182C78.6059 15.182 77.1639 13.74 77.1639 11.64C77.1639 9.62404 78.5219 8.11204 80.3699 8.11204C81.2799 8.11204 81.9799 8.51804 82.4279 9.17604V8.29404H84.1359V15H82.4279V14.048C81.9799 14.734 81.2799 15.182 80.3699 15.182ZM80.6499 13.586C81.6859 13.586 82.4279 12.718 82.4279 11.64C82.4279 10.562 81.6859 9.70804 80.6499 9.70804C79.6139 9.70804 78.8719 10.562 78.8719 11.64C78.8719 12.718 79.6139 13.586 80.6499 13.586ZM89.7995 8.11204C91.5635 8.11204 93.0195 9.55404 93.0195 11.654C93.0195 13.67 91.6615 15.182 89.7995 15.182C88.8895 15.182 88.1895 14.776 87.7415 14.104V15H86.0335V5.36804H87.7415V9.24604C88.1895 8.56004 88.8895 8.11204 89.7995 8.11204ZM89.5335 9.70804C88.4975 9.70804 87.7415 10.576 87.7415 11.654C87.7415 12.732 88.4975 13.586 89.5335 13.586C90.5555 13.586 91.3115 12.732 91.3115 11.654C91.3115 10.576 90.5555 9.70804 89.5335 9.70804ZM97.633 15.182C95.547 15.182 94.035 13.6 94.035 11.64C94.035 9.69404 95.477 8.11204 97.409 8.11204C99.327 8.11204 100.797 9.58204 100.797 11.514C100.797 11.738 100.783 12.004 100.755 12.116H95.785C95.967 13.04 96.667 13.684 97.689 13.684C98.375 13.684 98.949 13.39 99.341 12.984L100.223 14.16C99.705 14.734 98.753 15.182 97.633 15.182ZM97.437 9.55404C96.625 9.55404 96.037 10.114 95.827 10.926H99.033C98.823 10.03 98.221 9.55404 97.437 9.55404ZM104.756 13.516L104.938 15.014C104.686 15.098 104.364 15.154 104.112 15.154C103.146 15.154 102.166 14.538 102.166 12.83V5.36804H103.874V12.872C103.874 13.39 104.168 13.586 104.476 13.586C104.56 13.586 104.672 13.558 104.756 13.516Z" fill="black"/>
<path fill-rule="evenodd" clip-rule="evenodd" d="M110 11C110 6.58854 113.589 3 118 3C122.411 3 126 6.58854 126 11C126 15.4115 122.411 19 118 19C113.589 19 110 15.4115 110 11ZM124.769 11C124.769 7.25312 121.747 4.23077 118 4.23077C114.253 4.23077 111.231 7.25312 111.231 11C111.231 14.7469 114.253 17.7692 118 17.7692C121.747 17.7692 124.769 14.7469 124.769 11ZM118.923 14.3846C118.923 14.8944 118.51 15.3077 118 15.3077C117.49 15.3077 117.077 14.8944 117.077 14.3846C117.077 13.8748 117.49 13.4615 118 13.4615C118.51 13.4615 118.923 13.8748 118.923 14.3846ZM115.231 9.42735C115.231 7.92361 116.477 6.69231 118 6.69231C119.523 6.69231 120.769 7.92361 120.769 9.42735C120.769 10.5358 120.039 11.5347 118.974 11.8846L118.692 11.9701V12.8462H117.308V11.9701C117.308 11.3851 117.694 10.851 118.26 10.6667L118.541 10.5812C119.044 10.4156 119.385 9.95086 119.385 9.42735C119.385 8.66346 118.773 8.05983 118 8.05983C117.227 8.05983 116.615 8.66346 116.615 9.42735H115.231Z" fill="#2861BB"/>
<path d="M222 26.5H8C3.85786 26.5 0.5 29.8579 0.5 34V62C0.5 66.1421 3.85786 69.5 8 69.5H222C226.142 69.5 229.5 66.1421 229.5 62V34C229.5 29.8579 226.142 26.5 222 26.5Z" fill="white"/>
<path d="M222 26.5H8C3.85786 26.5 0.5 29.8579 0.5 34V62C0.5 66.1421 3.85786 69.5 8 69.5H222C226.142 69.5 229.5 66.1421 229.5 62V34C229.5 29.8579 226.142 26.5 222 26.5Z" stroke="#EBEBEB"/>
<path d="M13.0234 52V43.04H16.0194C18.9734 43.04 21.0874 44.902 21.0874 47.52C21.0874 50.138 19.0014 52 16.0754 52H13.0234ZM16.0054 44.678H14.8294V50.348H16.0194C17.9374 50.348 19.2114 49.228 19.2114 47.52C19.2114 45.798 17.9374 44.678 16.0054 44.678ZM25.7697 52.182C23.6837 52.182 22.1717 50.6 22.1717 48.64C22.1717 46.694 23.6137 45.112 25.5457 45.112C27.4637 45.112 28.9337 46.582 28.9337 48.514C28.9337 48.738 28.9197 49.004 28.8917 49.116H23.9217C24.1037 50.04 24.8037 50.684 25.8257 50.684C26.5117 50.684 27.0857 50.39 27.4777 49.984L28.3597 51.16C27.8417 51.734 26.8897 52.182 25.7697 52.182ZM25.5737 46.554C24.7617 46.554 24.1737 47.114 23.9637 47.926H27.1697C26.9597 47.03 26.3577 46.554 25.5737 46.554ZM29.701 46.806V45.294H30.793V44.902C30.793 43.208 31.759 42.186 33.257 42.186C34.167 42.186 34.755 42.438 35.189 42.872L34.349 44.16C34.153 43.95 33.789 43.782 33.425 43.782C32.865 43.782 32.515 44.16 32.515 44.888V45.294H34.251V46.806H32.515V52H30.793V46.806H29.701ZM37.9149 52.182C36.1509 52.182 34.7089 50.74 34.7089 48.64C34.7089 46.624 36.0669 45.112 37.9149 45.112C38.8249 45.112 39.5249 45.518 39.9729 46.176V45.294H41.6809V52H39.9729V51.048C39.5249 51.734 38.8249 52.182 37.9149 52.182ZM38.1949 50.586C39.2309 50.586 39.9729 49.718 39.9729 48.64C39.9729 47.562 39.2309 46.708 38.1949 46.708C37.1589 46.708 36.4169 47.562 36.4169 48.64C36.4169 49.718 37.1589 50.586 38.1949 50.586ZM45.2024 45.294V48.92C45.2024 49.9 45.7624 50.558 46.6164 50.558C47.4704 50.558 48.0444 49.9 48.0444 48.92V45.294H49.7664V49.046C49.7664 50.922 48.5064 52.168 46.6164 52.168C44.7264 52.168 43.4944 50.922 43.4944 49.046V45.294H45.2024ZM54.1664 50.516L54.3484 52.014C54.0964 52.098 53.7744 52.154 53.5224 52.154C52.5564 52.154 51.5764 51.538 51.5764 49.83V42.368H53.2844V49.872C53.2844 50.39 53.5784 50.586 53.8864 50.586C53.9704 50.586 54.0824 50.558 54.1664 50.516ZM55.0877 46.806V45.294H56.2637V43.558H57.9857V45.294H59.7917V46.806H57.9997V49.662C57.9997 50.292 58.2517 50.586 58.7557 50.586C59.0777 50.586 59.3857 50.446 59.5537 50.25L60.3097 51.524C59.9457 51.888 59.3157 52.182 58.4897 52.182C57.1317 52.182 56.2637 51.342 56.2637 49.704V46.806H55.0877ZM68.6977 42.844C71.2597 42.844 73.3457 44.944 73.3457 47.534C73.3457 50.096 71.2597 52.182 68.6977 52.182C66.1357 52.182 64.0497 50.082 64.0497 47.52C64.0497 44.93 66.1357 42.844 68.6977 42.844ZM68.6977 50.446C70.2377 50.446 71.4837 49.13 71.4837 47.534C71.4837 45.91 70.2377 44.58 68.6977 44.58C67.1577 44.58 65.9257 45.896 65.9257 47.52C65.9257 49.13 67.1577 50.446 68.6977 50.446ZM76.5677 54.744H74.8597V45.294H76.5677V46.246C77.0157 45.56 77.7157 45.112 78.6257 45.112C80.3897 45.112 81.8457 46.554 81.8457 48.654C81.8457 50.67 80.4877 52.182 78.6257 52.182C77.7157 52.182 77.0157 51.776 76.5677 51.104V54.744ZM78.3597 50.586C79.3817 50.586 80.1377 49.732 80.1377 48.654C80.1377 47.576 79.3817 46.708 78.3597 46.708C77.3237 46.708 76.5677 47.576 76.5677 48.654C76.5677 49.732 77.3237 50.586 78.3597 50.586ZM82.6092 46.806V45.294H83.7852V43.558H85.5072V45.294H87.3132V46.806H85.5212V49.662C85.5212 50.292 85.7732 50.586 86.2772 50.586C86.5992 50.586 86.9072 50.446 87.0752 50.25L87.8312 51.524C87.4672 51.888 86.8372 52.182 86.0112 52.182C84.6532 52.182 83.7852 51.342 83.7852 49.704V46.806H82.6092ZM89.823 44.398C89.263 44.398 88.829 43.95 88.829 43.39C88.829 42.844 89.263 42.396 89.823 42.396C90.369 42.396 90.831 42.844 90.831 43.39C90.831 43.95 90.369 44.398 89.823 44.398ZM90.677 52H88.969V45.294H90.677V52ZM95.6441 52.182C93.6981 52.182 92.1581 50.6 92.1581 48.64C92.1581 46.694 93.6981 45.112 95.6441 45.112C97.5901 45.112 99.1301 46.694 99.1301 48.64C99.1301 50.6 97.5901 52.182 95.6441 52.182ZM95.6441 50.586C96.6801 50.586 97.4221 49.718 97.4221 48.64C97.4221 47.562 96.6801 46.708 95.6441 46.708C94.6081 46.708 93.8661 47.562 93.8661 48.64C93.8661 49.718 94.6081 50.586 95.6441 50.586ZM100.603 52V45.294H102.311V46.246C102.661 45.532 103.333 45.112 104.215 45.112C105.755 45.112 106.749 46.19 106.749 47.94V52H105.041V48.192C105.041 47.282 104.523 46.708 103.683 46.708C102.843 46.708 102.311 47.282 102.311 48.192V52H100.603Z" fill="black"/>
<path d="M212 51L207 45.9524L208 45L212 49.2857L216 45L217 45.9524L212 51Z" fill="black"/>
</svg>
