<svg width="296" height="255" viewBox="0 0 296 255" fill="none" xmlns="http://www.w3.org/2000/svg">
<path d="M34.0234 14.9999V6.03992H37.0194C39.9734 6.03992 42.0874 7.90192 42.0874 10.5199C42.0874 13.1379 40.0014 14.9999 37.0754 14.9999H34.0234ZM37.0054 7.67792H35.8294V13.3479H37.0194C38.9374 13.3479 40.2114 12.2279 40.2114 10.5199C40.2114 8.79792 38.9374 7.67792 37.0054 7.67792ZM43.6057 14.9999V8.29392H45.3137V9.28792C45.6357 8.57392 46.2097 8.11192 46.9657 8.11192C47.4137 8.11192 47.7777 8.22392 48.0297 8.43392L47.3297 10.0439C47.1057 9.87592 46.7697 9.76392 46.4337 9.76392C45.7617 9.76392 45.3137 10.3379 45.3137 11.2479V14.9999H43.6057ZM51.689 15.1819C49.743 15.1819 48.203 13.5999 48.203 11.6399C48.203 9.69392 49.743 8.11192 51.689 8.11192C53.635 8.11192 55.175 9.69392 55.175 11.6399C55.175 13.5999 53.635 15.1819 51.689 15.1819ZM51.689 13.5859C52.725 13.5859 53.467 12.7179 53.467 11.6399C53.467 10.5619 52.725 9.70792 51.689 9.70792C50.653 9.70792 49.911 10.5619 49.911 11.6399C49.911 12.7179 50.653 13.5859 51.689 13.5859ZM58.3567 17.7439H56.6487V8.29392H58.3567V9.24592C58.8047 8.55992 59.5047 8.11192 60.4147 8.11192C62.1787 8.11192 63.6347 9.55392 63.6347 11.6539C63.6347 13.6699 62.2767 15.1819 60.4147 15.1819C59.5047 15.1819 58.8047 14.7759 58.3567 14.1039V17.7439ZM60.1487 13.5859C61.1707 13.5859 61.9267 12.7319 61.9267 11.6539C61.9267 10.5759 61.1707 9.70792 60.1487 9.70792C59.1127 9.70792 58.3567 10.5759 58.3567 11.6539C58.3567 12.7319 59.1127 13.5859 60.1487 13.5859ZM67.8563 15.1819C66.0923 15.1819 64.6503 13.7399 64.6503 11.6399C64.6503 9.62392 66.0083 8.11192 67.8563 8.11192C68.7663 8.11192 69.4663 8.51792 69.9143 9.17592V5.36792H71.6223V14.9999H69.9143V14.0479C69.4663 14.7339 68.7663 15.1819 67.8563 15.1819ZM68.1363 13.5859C69.1723 13.5859 69.9143 12.7179 69.9143 11.6399C69.9143 10.5619 69.1723 9.70792 68.1363 9.70792C67.1003 9.70792 66.3583 10.5619 66.3583 11.6399C66.3583 12.7179 67.1003 13.5859 68.1363 13.5859ZM76.5718 15.1819C74.6258 15.1819 73.0858 13.5999 73.0858 11.6399C73.0858 9.69392 74.6258 8.11192 76.5718 8.11192C78.5178 8.11192 80.0578 9.69392 80.0578 11.6399C80.0578 13.5999 78.5178 15.1819 76.5718 15.1819ZM76.5718 13.5859C77.6078 13.5859 78.3498 12.7179 78.3498 11.6399C78.3498 10.5619 77.6078 9.70792 76.5718 9.70792C75.5358 9.70792 74.7938 10.5619 74.7938 11.6399C74.7938 12.7179 75.5358 13.5859 76.5718 13.5859ZM84.5351 14.9999H82.6031L80.5311 8.29392H82.3651L83.6111 13.1239L84.9691 8.29392H86.8171L88.2031 13.1519L89.4771 8.29392H91.3111L89.2391 14.9999H87.1111L85.8091 10.4499L84.5351 14.9999ZM92.5237 14.9999V8.29392H94.2317V9.24592C94.5817 8.53192 95.2537 8.11192 96.1357 8.11192C97.6757 8.11192 98.6697 9.18992 98.6697 10.9399V14.9999H96.9617V11.1919C96.9617 10.2819 96.4437 9.70792 95.6037 9.70792C94.7637 9.70792 94.2317 10.2819 94.2317 11.1919V14.9999H92.5237ZM103.586 14.9999V6.02592H105.336V13.3479H109.718V14.9999H103.586ZM113.37 15.1819C111.606 15.1819 110.164 13.7399 110.164 11.6399C110.164 9.62392 111.522 8.11192 113.37 8.11192C114.28 8.11192 114.98 8.51792 115.428 9.17592V8.29392H117.136V14.9999H115.428V14.0479C114.98 14.7339 114.28 15.1819 113.37 15.1819ZM113.65 13.5859C114.686 13.5859 115.428 12.7179 115.428 11.6399C115.428 10.5619 114.686 9.70792 113.65 9.70792C112.614 9.70792 111.872 10.5619 111.872 11.6399C111.872 12.7179 112.614 13.5859 113.65 13.5859ZM122.799 8.11192C124.563 8.11192 126.019 9.55392 126.019 11.6539C126.019 13.6699 124.661 15.1819 122.799 15.1819C121.889 15.1819 121.189 14.7759 120.741 14.1039V14.9999H119.033V5.36792H120.741V9.24592C121.189 8.55992 121.889 8.11192 122.799 8.11192ZM122.533 9.70792C121.497 9.70792 120.741 10.5759 120.741 11.6539C120.741 12.7319 121.497 13.5859 122.533 13.5859C123.555 13.5859 124.311 12.7319 124.311 11.6539C124.311 10.5759 123.555 9.70792 122.533 9.70792ZM130.633 15.1819C128.547 15.1819 127.035 13.5999 127.035 11.6399C127.035 9.69392 128.477 8.11192 130.409 8.11192C132.327 8.11192 133.797 9.58192 133.797 11.5139C133.797 11.7379 133.783 12.0039 133.755 12.1159H128.785C128.967 13.0399 129.667 13.6839 130.689 13.6839C131.375 13.6839 131.949 13.3899 132.341 12.9839L133.223 14.1599C132.705 14.7339 131.753 15.1819 130.633 15.1819ZM130.437 9.55392C129.625 9.55392 129.037 10.1139 128.827 10.9259H132.033C131.823 10.0299 131.221 9.55392 130.437 9.55392ZM137.756 13.5159L137.938 15.0139C137.686 15.0979 137.364 15.1539 137.112 15.1539C136.146 15.1539 135.166 14.5379 135.166 12.8299V5.36792H136.874V12.8719C136.874 13.3899 137.168 13.5859 137.476 13.5859C137.56 13.5859 137.672 13.5579 137.756 13.5159Z" fill="black"/>
<path fill-rule="evenodd" clip-rule="evenodd" d="M143 11C143 6.58854 146.589 3 151 3C155.411 3 159 6.58854 159 11C159 15.4115 155.411 19 151 19C146.589 19 143 15.4115 143 11ZM157.769 11C157.769 7.25312 154.747 4.23077 151 4.23077C147.253 4.23077 144.231 7.25312 144.231 11C144.231 14.7469 147.253 17.7692 151 17.7692C154.747 17.7692 157.769 14.7469 157.769 11ZM151.923 14.3846C151.923 14.8944 151.51 15.3077 151 15.3077C150.49 15.3077 150.077 14.8944 150.077 14.3846C150.077 13.8748 150.49 13.4615 151 13.4615C151.51 13.4615 151.923 13.8748 151.923 14.3846ZM148.231 9.42735C148.231 7.92361 149.477 6.69231 151 6.69231C152.523 6.69231 153.769 7.92361 153.769 9.42735C153.769 10.5358 153.039 11.5347 151.974 11.8846L151.692 11.9701V12.8462H150.308V11.9701C150.308 11.3851 150.694 10.851 151.26 10.6667L151.541 10.5812C152.044 10.4156 152.385 9.95086 152.385 9.42735C152.385 8.66346 151.773 8.05983 151 8.05983C150.227 8.05983 149.615 8.66346 149.615 9.42735H148.231Z" fill="#2861BB"/>
<path d="M255 27H41C37.134 27 34 30.134 34 34V62C34 65.866 37.134 69 41 69H255C258.866 69 262 65.866 262 62V34C262 30.134 258.866 27 255 27Z" fill="white"/>
<path d="M255 27H41C37.134 27 34 30.134 34 34V62C34 65.866 37.134 69 41 69H255C258.866 69 262 65.866 262 62V34C262 30.134 258.866 27 255 27Z" stroke="#D6D6D6" stroke-width="2"/>
<path d="M46.0234 51.9999V43.0259H49.2294C51.3994 43.0259 52.8274 44.2019 52.8274 45.9939C52.8274 47.7999 51.3854 48.9899 49.2014 48.9899H47.7734V51.9999H46.0234ZM49.3694 44.5799H47.7734V47.4359H49.3694C50.3354 47.4359 50.9794 46.8619 50.9794 45.9939C50.9794 45.1399 50.3354 44.5799 49.3694 44.5799ZM56.7875 50.5159L56.9695 52.0139C56.7175 52.0979 56.3955 52.1539 56.1435 52.1539C55.1775 52.1539 54.1975 51.5379 54.1975 49.8299V42.3679H55.9055V49.8719C55.9055 50.3899 56.1995 50.5859 56.5075 50.5859C56.5915 50.5859 56.7035 50.5579 56.7875 50.5159ZM61.1668 52.1819C59.4028 52.1819 57.9608 50.7399 57.9608 48.6399C57.9608 46.6239 59.3188 45.1119 61.1668 45.1119C62.0768 45.1119 62.7768 45.5179 63.2248 46.1759V45.2939H64.9328V51.9999H63.2248V51.0479C62.7768 51.7339 62.0768 52.1819 61.1668 52.1819ZM61.4468 50.5859C62.4828 50.5859 63.2248 49.7179 63.2248 48.6399C63.2248 47.5619 62.4828 46.7079 61.4468 46.7079C60.4108 46.7079 59.6688 47.5619 59.6688 48.6399C59.6688 49.7179 60.4108 50.5859 61.4468 50.5859ZM71.5624 47.3239C71.1284 46.9179 70.6384 46.7079 69.9664 46.7079C68.8464 46.7079 68.1044 47.5619 68.1044 48.6399C68.1044 49.7179 68.8604 50.5859 69.9664 50.5859C70.6384 50.5859 71.1844 50.3479 71.6184 49.9279L72.4864 51.1879C71.9544 51.7759 70.9744 52.1819 69.9244 52.1819C67.9224 52.1819 66.3964 50.5999 66.3964 48.6399C66.3964 46.6939 67.9364 45.1119 69.8964 45.1119C71.0304 45.1119 71.9404 45.4899 72.5424 46.1059L71.5624 47.3239ZM76.5979 52.1819C74.5119 52.1819 72.9999 50.5999 72.9999 48.6399C72.9999 46.6939 74.4419 45.1119 76.3739 45.1119C78.2919 45.1119 79.7619 46.5819 79.7619 48.5139C79.7619 48.7379 79.7479 49.0039 79.7199 49.1159H74.7499C74.9319 50.0399 75.6319 50.6839 76.6539 50.6839C77.3399 50.6839 77.9139 50.3899 78.3059 49.9839L79.1879 51.1599C78.6699 51.7339 77.7179 52.1819 76.5979 52.1819ZM76.4019 46.5539C75.5899 46.5539 75.0019 47.1139 74.7919 47.9259H77.9979C77.7879 47.0299 77.1859 46.5539 76.4019 46.5539ZM81.1311 51.9999V42.3679H82.8391V46.2459C83.1891 45.5319 83.8611 45.1119 84.7431 45.1119C86.2831 45.1119 87.2771 46.1899 87.2771 47.9399V51.9999H85.5691V48.1919C85.5691 47.2819 85.0511 46.7079 84.2111 46.7079C83.3711 46.7079 82.8391 47.2819 82.8391 48.1919V51.9999H81.1311ZM92.1812 52.1819C90.2352 52.1819 88.6952 50.5999 88.6952 48.6399C88.6952 46.6939 90.2352 45.1119 92.1812 45.1119C94.1272 45.1119 95.6672 46.6939 95.6672 48.6399C95.6672 50.5999 94.1272 52.1819 92.1812 52.1819ZM92.1812 50.5859C93.2172 50.5859 93.9592 49.7179 93.9592 48.6399C93.9592 47.5619 93.2172 46.7079 92.1812 46.7079C91.1452 46.7079 90.4032 47.5619 90.4032 48.6399C90.4032 49.7179 91.1452 50.5859 92.1812 50.5859ZM99.7309 50.5159L99.9129 52.0139C99.6609 52.0979 99.3389 52.1539 99.0869 52.1539C98.1209 52.1539 97.1409 51.5379 97.1409 49.8299V42.3679H98.8489V49.8719C98.8489 50.3899 99.1429 50.5859 99.4509 50.5859C99.5349 50.5859 99.6469 50.5579 99.7309 50.5159ZM104.11 52.1819C102.346 52.1819 100.904 50.7399 100.904 48.6399C100.904 46.6239 102.262 45.1119 104.11 45.1119C105.02 45.1119 105.72 45.5179 106.168 46.1759V42.3679H107.876V51.9999H106.168V51.0479C105.72 51.7339 105.02 52.1819 104.11 52.1819ZM104.39 50.5859C105.426 50.5859 106.168 49.7179 106.168 48.6399C106.168 47.5619 105.426 46.7079 104.39 46.7079C103.354 46.7079 102.612 47.5619 102.612 48.6399C102.612 49.7179 103.354 50.5859 104.39 50.5859ZM112.937 52.1819C110.851 52.1819 109.339 50.5999 109.339 48.6399C109.339 46.6939 110.781 45.1119 112.713 45.1119C114.631 45.1119 116.101 46.5819 116.101 48.5139C116.101 48.7379 116.087 49.0039 116.059 49.1159H111.089C111.271 50.0399 111.971 50.6839 112.993 50.6839C113.679 50.6839 114.253 50.3899 114.645 49.9839L115.527 51.1599C115.009 51.7339 114.057 52.1819 112.937 52.1819ZM112.741 46.5539C111.929 46.5539 111.341 47.1139 111.131 47.9259H114.337C114.127 47.0299 113.525 46.5539 112.741 46.5539ZM117.471 51.9999V45.2939H119.179V46.2879C119.501 45.5739 120.075 45.1119 120.831 45.1119C121.279 45.1119 121.643 45.2239 121.895 45.4339L121.195 47.0439C120.971 46.8759 120.635 46.7639 120.299 46.7639C119.627 46.7639 119.179 47.3379 119.179 48.2479V51.9999H117.471ZM125.371 46.8059V45.2939H126.547V43.5579H128.269V45.2939H130.075V46.8059H128.283V49.6619C128.283 50.2919 128.535 50.5859 129.039 50.5859C129.361 50.5859 129.669 50.4459 129.837 50.2499L130.593 51.5239C130.229 51.8879 129.599 52.1819 128.773 52.1819C127.415 52.1819 126.547 51.3419 126.547 49.7039V46.8059H125.371ZM134.566 52.1819C132.48 52.1819 130.968 50.5999 130.968 48.6399C130.968 46.6939 132.41 45.1119 134.342 45.1119C136.26 45.1119 137.73 46.5819 137.73 48.5139C137.73 48.7379 137.716 49.0039 137.688 49.1159H132.718C132.9 50.0399 133.6 50.6839 134.622 50.6839C135.308 50.6839 135.882 50.3899 136.274 49.9839L137.156 51.1599C136.638 51.7339 135.686 52.1819 134.566 52.1819ZM134.37 46.5539C133.558 46.5539 132.97 47.1139 132.76 47.9259H135.966C135.756 47.0299 135.154 46.5539 134.37 46.5539ZM137.851 51.9999L140.385 48.6259L137.935 45.2939H140.063L141.519 47.2679L143.003 45.2939H144.921L142.471 48.5559L145.005 51.9999H142.877L141.337 49.9139L139.755 51.9999H137.851ZM145.455 46.8059V45.2939H146.631V43.5579H148.353V45.2939H150.159V46.8059H148.367V49.6619C148.367 50.2919 148.619 50.5859 149.123 50.5859C149.445 50.5859 149.753 50.4459 149.921 50.2499L150.677 51.5239C150.313 51.8879 149.683 52.1819 148.857 52.1819C147.499 52.1819 146.631 51.3419 146.631 49.7039V46.8059H145.455Z" fill="black"/>
<path d="M245 51L240 45.9524L241 45L245 49.2857L249 45L250 45.9524L245 51Z" fill="black"/>
<g filter="url(#filter0_d_6343_40096)">
<mask id="mask0_6343_40096" style="mask-type:luminance" maskUnits="userSpaceOnUse" x="33" y="74" width="230" height="132">
<path d="M255 74H41C36.5817 74 33 77.5817 33 82V198C33 202.418 36.5817 206 41 206H255C259.418 206 263 202.418 263 198V82C263 77.5817 259.418 74 255 74Z" fill="white"/>
</mask>
<g mask="url(#mask0_6343_40096)">
<path d="M255 74H41C36.5817 74 33 77.5817 33 82V198C33 202.418 36.5817 206 41 206H255C259.418 206 263 202.418 263 198V82C263 77.5817 259.418 74 255 74Z" fill="white"/>
<path d="M263 74H33V118H263V74Z" fill="white"/>
<path d="M46.0234 99.9999V91.0399H49.0194C51.9734 91.0399 54.0874 92.9019 54.0874 95.5199C54.0874 98.1379 52.0014 99.9999 49.0754 99.9999H46.0234ZM49.0054 92.6779H47.8294V98.3479H49.0194C50.9374 98.3479 52.2114 97.2279 52.2114 95.5199C52.2114 93.7979 50.9374 92.6779 49.0054 92.6779ZM55.6057 99.9999V93.2939H57.3137V94.2879C57.6357 93.5739 58.2097 93.1119 58.9657 93.1119C59.4137 93.1119 59.7777 93.2239 60.0297 93.4339L59.3297 95.0439C59.1057 94.8759 58.7697 94.7639 58.4337 94.7639C57.7617 94.7639 57.3137 95.3379 57.3137 96.2479V99.9999H55.6057ZM63.689 100.182C61.743 100.182 60.203 98.5999 60.203 96.6399C60.203 94.6939 61.743 93.1119 63.689 93.1119C65.635 93.1119 67.175 94.6939 67.175 96.6399C67.175 98.5999 65.635 100.182 63.689 100.182ZM63.689 98.5859C64.725 98.5859 65.467 97.7179 65.467 96.6399C65.467 95.5619 64.725 94.7079 63.689 94.7079C62.653 94.7079 61.911 95.5619 61.911 96.6399C61.911 97.7179 62.653 98.5859 63.689 98.5859ZM70.3567 102.744H68.6487V93.2939H70.3567V94.2459C70.8047 93.5599 71.5047 93.1119 72.4147 93.1119C74.1787 93.1119 75.6347 94.5539 75.6347 96.6539C75.6347 98.6699 74.2767 100.182 72.4147 100.182C71.5047 100.182 70.8047 99.7759 70.3567 99.1039V102.744ZM72.1487 98.5859C73.1707 98.5859 73.9267 97.7319 73.9267 96.6539C73.9267 95.5759 73.1707 94.7079 72.1487 94.7079C71.1127 94.7079 70.3567 95.5759 70.3567 96.6539C70.3567 97.7319 71.1127 98.5859 72.1487 98.5859ZM79.8563 100.182C78.0923 100.182 76.6503 98.7399 76.6503 96.6399C76.6503 94.6239 78.0083 93.1119 79.8563 93.1119C80.7663 93.1119 81.4663 93.5179 81.9143 94.1759V90.3679H83.6223V99.9999H81.9143V99.0479C81.4663 99.7339 80.7663 100.182 79.8563 100.182ZM80.1363 98.5859C81.1723 98.5859 81.9143 97.7179 81.9143 96.6399C81.9143 95.5619 81.1723 94.7079 80.1363 94.7079C79.1003 94.7079 78.3583 95.5619 78.3583 96.6399C78.3583 97.7179 79.1003 98.5859 80.1363 98.5859ZM88.5718 100.182C86.6258 100.182 85.0858 98.5999 85.0858 96.6399C85.0858 94.6939 86.6258 93.1119 88.5718 93.1119C90.5178 93.1119 92.0578 94.6939 92.0578 96.6399C92.0578 98.5999 90.5178 100.182 88.5718 100.182ZM88.5718 98.5859C89.6078 98.5859 90.3498 97.7179 90.3498 96.6399C90.3498 95.5619 89.6078 94.7079 88.5718 94.7079C87.5358 94.7079 86.7938 95.5619 86.7938 96.6399C86.7938 97.7179 87.5358 98.5859 88.5718 98.5859ZM96.5351 99.9999H94.6031L92.5311 93.2939H94.3651L95.6111 98.1239L96.9691 93.2939H98.8171L100.203 98.1519L101.477 93.2939H103.311L101.239 99.9999H99.1111L97.8091 95.4499L96.5351 99.9999ZM104.523 99.9999V93.2939H106.231V94.2459C106.581 93.5319 107.253 93.1119 108.135 93.1119C109.675 93.1119 110.669 94.1899 110.669 95.9399V99.9999H108.961V96.1919C108.961 95.2819 108.443 94.7079 107.603 94.7079C106.763 94.7079 106.231 95.2819 106.231 96.1919V99.9999H104.523ZM118.568 100.182C116.621 100.182 115.082 98.5999 115.082 96.6399C115.082 94.6939 116.621 93.1119 118.568 93.1119C120.514 93.1119 122.054 94.6939 122.054 96.6399C122.054 98.5999 120.514 100.182 118.568 100.182ZM118.568 98.5859C119.604 98.5859 120.346 97.7179 120.346 96.6399C120.346 95.5619 119.604 94.7079 118.568 94.7079C117.532 94.7079 116.79 95.5619 116.79 96.6399C116.79 97.7179 117.532 98.5859 118.568 98.5859ZM125.235 102.744H123.527V93.2939H125.235V94.2459C125.683 93.5599 126.383 93.1119 127.293 93.1119C129.057 93.1119 130.513 94.5539 130.513 96.6539C130.513 98.6699 129.155 100.182 127.293 100.182C126.383 100.182 125.683 99.7759 125.235 99.1039V102.744ZM127.027 98.5859C128.049 98.5859 128.805 97.7319 128.805 96.6539C128.805 95.5759 128.049 94.7079 127.027 94.7079C125.991 94.7079 125.235 95.5759 125.235 96.6539C125.235 97.7319 125.991 98.5859 127.027 98.5859ZM131.277 94.8059V93.2939H132.453V91.5579H134.175V93.2939H135.981V94.8059H134.189V97.6619C134.189 98.2919 134.441 98.5859 134.945 98.5859C135.267 98.5859 135.575 98.4459 135.743 98.2499L136.499 99.5239C136.135 99.8879 135.505 100.182 134.679 100.182C133.321 100.182 132.453 99.3419 132.453 97.7039V94.8059H131.277ZM138.491 92.3979C137.931 92.3979 137.497 91.9499 137.497 91.3899C137.497 90.8439 137.931 90.3959 138.491 90.3959C139.037 90.3959 139.499 90.8439 139.499 91.3899C139.499 91.9499 139.037 92.3979 138.491 92.3979ZM139.345 99.9999H137.637V93.2939H139.345V99.9999ZM144.312 100.182C142.366 100.182 140.826 98.5999 140.826 96.6399C140.826 94.6939 142.366 93.1119 144.312 93.1119C146.258 93.1119 147.798 94.6939 147.798 96.6399C147.798 98.5999 146.258 100.182 144.312 100.182ZM144.312 98.5859C145.348 98.5859 146.09 97.7179 146.09 96.6399C146.09 95.5619 145.348 94.7079 144.312 94.7079C143.276 94.7079 142.534 95.5619 142.534 96.6399C142.534 97.7179 143.276 98.5859 144.312 98.5859ZM149.271 99.9999V93.2939H150.979V94.2459C151.329 93.5319 152.001 93.1119 152.883 93.1119C154.423 93.1119 155.417 94.1899 155.417 95.9399V99.9999H153.709V96.1919C153.709 95.2819 153.191 94.7079 152.351 94.7079C151.511 94.7079 150.979 95.2819 150.979 96.1919V99.9999H149.271Z" fill="black"/>
<path d="M263 118H33V162H263V118Z" fill="#EBEBEB"/>
<path d="M46.0234 144V135.04H49.0194C51.9734 135.04 54.0874 136.902 54.0874 139.52C54.0874 142.138 52.0014 144 49.0754 144H46.0234ZM49.0054 136.678H47.8294V142.348H49.0194C50.9374 142.348 52.2114 141.228 52.2114 139.52C52.2114 137.798 50.9374 136.678 49.0054 136.678ZM55.6057 144V137.294H57.3137V138.288C57.6357 137.574 58.2097 137.112 58.9657 137.112C59.4137 137.112 59.7777 137.224 60.0297 137.434L59.3297 139.044C59.1057 138.876 58.7697 138.764 58.4337 138.764C57.7617 138.764 57.3137 139.338 57.3137 140.248V144H55.6057ZM63.689 144.182C61.743 144.182 60.203 142.6 60.203 140.64C60.203 138.694 61.743 137.112 63.689 137.112C65.635 137.112 67.175 138.694 67.175 140.64C67.175 142.6 65.635 144.182 63.689 144.182ZM63.689 142.586C64.725 142.586 65.467 141.718 65.467 140.64C65.467 139.562 64.725 138.708 63.689 138.708C62.653 138.708 61.911 139.562 61.911 140.64C61.911 141.718 62.653 142.586 63.689 142.586ZM70.3567 146.744H68.6487V137.294H70.3567V138.246C70.8047 137.56 71.5047 137.112 72.4147 137.112C74.1787 137.112 75.6347 138.554 75.6347 140.654C75.6347 142.67 74.2767 144.182 72.4147 144.182C71.5047 144.182 70.8047 143.776 70.3567 143.104V146.744ZM72.1487 142.586C73.1707 142.586 73.9267 141.732 73.9267 140.654C73.9267 139.576 73.1707 138.708 72.1487 138.708C71.1127 138.708 70.3567 139.576 70.3567 140.654C70.3567 141.732 71.1127 142.586 72.1487 142.586ZM79.8563 144.182C78.0923 144.182 76.6503 142.74 76.6503 140.64C76.6503 138.624 78.0083 137.112 79.8563 137.112C80.7663 137.112 81.4663 137.518 81.9143 138.176V134.368H83.6223V144H81.9143V143.048C81.4663 143.734 80.7663 144.182 79.8563 144.182ZM80.1363 142.586C81.1723 142.586 81.9143 141.718 81.9143 140.64C81.9143 139.562 81.1723 138.708 80.1363 138.708C79.1003 138.708 78.3583 139.562 78.3583 140.64C78.3583 141.718 79.1003 142.586 80.1363 142.586ZM88.5718 144.182C86.6258 144.182 85.0858 142.6 85.0858 140.64C85.0858 138.694 86.6258 137.112 88.5718 137.112C90.5178 137.112 92.0578 138.694 92.0578 140.64C92.0578 142.6 90.5178 144.182 88.5718 144.182ZM88.5718 142.586C89.6078 142.586 90.3498 141.718 90.3498 140.64C90.3498 139.562 89.6078 138.708 88.5718 138.708C87.5358 138.708 86.7938 139.562 86.7938 140.64C86.7938 141.718 87.5358 142.586 88.5718 142.586ZM96.5351 144H94.6031L92.5311 137.294H94.3651L95.6111 142.124L96.9691 137.294H98.8171L100.203 142.152L101.477 137.294H103.311L101.239 144H99.1111L97.8091 139.45L96.5351 144ZM104.523 144V137.294H106.231V138.246C106.581 137.532 107.253 137.112 108.135 137.112C109.675 137.112 110.669 138.19 110.669 139.94V144H108.961V140.192C108.961 139.282 108.443 138.708 107.603 138.708C106.763 138.708 106.231 139.282 106.231 140.192V144H104.523ZM118.568 144.182C116.621 144.182 115.082 142.6 115.082 140.64C115.082 138.694 116.621 137.112 118.568 137.112C120.514 137.112 122.054 138.694 122.054 140.64C122.054 142.6 120.514 144.182 118.568 144.182ZM118.568 142.586C119.604 142.586 120.346 141.718 120.346 140.64C120.346 139.562 119.604 138.708 118.568 138.708C117.532 138.708 116.79 139.562 116.79 140.64C116.79 141.718 117.532 142.586 118.568 142.586ZM125.235 146.744H123.527V137.294H125.235V138.246C125.683 137.56 126.383 137.112 127.293 137.112C129.057 137.112 130.513 138.554 130.513 140.654C130.513 142.67 129.155 144.182 127.293 144.182C126.383 144.182 125.683 143.776 125.235 143.104V146.744ZM127.027 142.586C128.049 142.586 128.805 141.732 128.805 140.654C128.805 139.576 128.049 138.708 127.027 138.708C125.991 138.708 125.235 139.576 125.235 140.654C125.235 141.732 125.991 142.586 127.027 142.586ZM131.277 138.806V137.294H132.453V135.558H134.175V137.294H135.981V138.806H134.189V141.662C134.189 142.292 134.441 142.586 134.945 142.586C135.267 142.586 135.575 142.446 135.743 142.25L136.499 143.524C136.135 143.888 135.505 144.182 134.679 144.182C133.321 144.182 132.453 143.342 132.453 141.704V138.806H131.277ZM138.491 136.398C137.931 136.398 137.497 135.95 137.497 135.39C137.497 134.844 137.931 134.396 138.491 134.396C139.037 134.396 139.499 134.844 139.499 135.39C139.499 135.95 139.037 136.398 138.491 136.398ZM139.345 144H137.637V137.294H139.345V144ZM144.312 144.182C142.366 144.182 140.826 142.6 140.826 140.64C140.826 138.694 142.366 137.112 144.312 137.112C146.258 137.112 147.798 138.694 147.798 140.64C147.798 142.6 146.258 144.182 144.312 144.182ZM144.312 142.586C145.348 142.586 146.09 141.718 146.09 140.64C146.09 139.562 145.348 138.708 144.312 138.708C143.276 138.708 142.534 139.562 142.534 140.64C142.534 141.718 143.276 142.586 144.312 142.586ZM149.271 144V137.294H150.979V138.246C151.329 137.532 152.001 137.112 152.883 137.112C154.423 137.112 155.417 138.19 155.417 139.94V144H153.709V140.192C153.709 139.282 153.191 138.708 152.351 138.708C151.511 138.708 150.979 139.282 150.979 140.192V144H149.271Z" fill="#2861BB"/>
<path d="M263 162H33V206H263V162Z" fill="white"/>
<path d="M46.0234 188V179.04H49.0194C51.9734 179.04 54.0874 180.902 54.0874 183.52C54.0874 186.138 52.0014 188 49.0754 188H46.0234ZM49.0054 180.678H47.8294V186.348H49.0194C50.9374 186.348 52.2114 185.228 52.2114 183.52C52.2114 181.798 50.9374 180.678 49.0054 180.678ZM55.6057 188V181.294H57.3137V182.288C57.6357 181.574 58.2097 181.112 58.9657 181.112C59.4137 181.112 59.7777 181.224 60.0297 181.434L59.3297 183.044C59.1057 182.876 58.7697 182.764 58.4337 182.764C57.7617 182.764 57.3137 183.338 57.3137 184.248V188H55.6057ZM63.689 188.182C61.743 188.182 60.203 186.6 60.203 184.64C60.203 182.694 61.743 181.112 63.689 181.112C65.635 181.112 67.175 182.694 67.175 184.64C67.175 186.6 65.635 188.182 63.689 188.182ZM63.689 186.586C64.725 186.586 65.467 185.718 65.467 184.64C65.467 183.562 64.725 182.708 63.689 182.708C62.653 182.708 61.911 183.562 61.911 184.64C61.911 185.718 62.653 186.586 63.689 186.586ZM70.3567 190.744H68.6487V181.294H70.3567V182.246C70.8047 181.56 71.5047 181.112 72.4147 181.112C74.1787 181.112 75.6347 182.554 75.6347 184.654C75.6347 186.67 74.2767 188.182 72.4147 188.182C71.5047 188.182 70.8047 187.776 70.3567 187.104V190.744ZM72.1487 186.586C73.1707 186.586 73.9267 185.732 73.9267 184.654C73.9267 183.576 73.1707 182.708 72.1487 182.708C71.1127 182.708 70.3567 183.576 70.3567 184.654C70.3567 185.732 71.1127 186.586 72.1487 186.586ZM79.8563 188.182C78.0923 188.182 76.6503 186.74 76.6503 184.64C76.6503 182.624 78.0083 181.112 79.8563 181.112C80.7663 181.112 81.4663 181.518 81.9143 182.176V178.368H83.6223V188H81.9143V187.048C81.4663 187.734 80.7663 188.182 79.8563 188.182ZM80.1363 186.586C81.1723 186.586 81.9143 185.718 81.9143 184.64C81.9143 183.562 81.1723 182.708 80.1363 182.708C79.1003 182.708 78.3583 183.562 78.3583 184.64C78.3583 185.718 79.1003 186.586 80.1363 186.586ZM88.5718 188.182C86.6258 188.182 85.0858 186.6 85.0858 184.64C85.0858 182.694 86.6258 181.112 88.5718 181.112C90.5178 181.112 92.0578 182.694 92.0578 184.64C92.0578 186.6 90.5178 188.182 88.5718 188.182ZM88.5718 186.586C89.6078 186.586 90.3498 185.718 90.3498 184.64C90.3498 183.562 89.6078 182.708 88.5718 182.708C87.5358 182.708 86.7938 183.562 86.7938 184.64C86.7938 185.718 87.5358 186.586 88.5718 186.586ZM96.5351 188H94.6031L92.5311 181.294H94.3651L95.6111 186.124L96.9691 181.294H98.8171L100.203 186.152L101.477 181.294H103.311L101.239 188H99.1111L97.8091 183.45L96.5351 188ZM104.523 188V181.294H106.231V182.246C106.581 181.532 107.253 181.112 108.135 181.112C109.675 181.112 110.669 182.19 110.669 183.94V188H108.961V184.192C108.961 183.282 108.443 182.708 107.603 182.708C106.763 182.708 106.231 183.282 106.231 184.192V188H104.523ZM118.568 188.182C116.621 188.182 115.082 186.6 115.082 184.64C115.082 182.694 116.621 181.112 118.568 181.112C120.514 181.112 122.054 182.694 122.054 184.64C122.054 186.6 120.514 188.182 118.568 188.182ZM118.568 186.586C119.604 186.586 120.346 185.718 120.346 184.64C120.346 183.562 119.604 182.708 118.568 182.708C117.532 182.708 116.79 183.562 116.79 184.64C116.79 185.718 117.532 186.586 118.568 186.586ZM125.235 190.744H123.527V181.294H125.235V182.246C125.683 181.56 126.383 181.112 127.293 181.112C129.057 181.112 130.513 182.554 130.513 184.654C130.513 186.67 129.155 188.182 127.293 188.182C126.383 188.182 125.683 187.776 125.235 187.104V190.744ZM127.027 186.586C128.049 186.586 128.805 185.732 128.805 184.654C128.805 183.576 128.049 182.708 127.027 182.708C125.991 182.708 125.235 183.576 125.235 184.654C125.235 185.732 125.991 186.586 127.027 186.586ZM131.277 182.806V181.294H132.453V179.558H134.175V181.294H135.981V182.806H134.189V185.662C134.189 186.292 134.441 186.586 134.945 186.586C135.267 186.586 135.575 186.446 135.743 186.25L136.499 187.524C136.135 187.888 135.505 188.182 134.679 188.182C133.321 188.182 132.453 187.342 132.453 185.704V182.806H131.277ZM138.491 180.398C137.931 180.398 137.497 179.95 137.497 179.39C137.497 178.844 137.931 178.396 138.491 178.396C139.037 178.396 139.499 178.844 139.499 179.39C139.499 179.95 139.037 180.398 138.491 180.398ZM139.345 188H137.637V181.294H139.345V188ZM144.312 188.182C142.366 188.182 140.826 186.6 140.826 184.64C140.826 182.694 142.366 181.112 144.312 181.112C146.258 181.112 147.798 182.694 147.798 184.64C147.798 186.6 146.258 188.182 144.312 188.182ZM144.312 186.586C145.348 186.586 146.09 185.718 146.09 184.64C146.09 183.562 145.348 182.708 144.312 182.708C143.276 182.708 142.534 183.562 142.534 184.64C142.534 185.718 143.276 186.586 144.312 186.586ZM149.271 188V181.294H150.979V182.246C151.329 181.532 152.001 181.112 152.883 181.112C154.423 181.112 155.417 182.19 155.417 183.94V188H153.709V184.192C153.709 183.282 153.191 182.708 152.351 182.708C151.511 182.708 150.979 183.282 150.979 184.192V188H149.271Z" fill="black"/>
</g>
<path d="M255 73.5H41C36.3056 73.5 32.5 77.3056 32.5 82V198C32.5 202.694 36.3056 206.5 41 206.5H255C259.694 206.5 263.5 202.694 263.5 198V82C263.5 77.3056 259.694 73.5 255 73.5Z" stroke="#EBEBEB"/>
</g>
<defs>
<filter id="filter0_d_6343_40096" x="0" y="57" width="296" height="198" filterUnits="userSpaceOnUse" color-interpolation-filters="sRGB">
<feFlood flood-opacity="0" result="BackgroundImageFix"/>
<feColorMatrix in="SourceAlpha" type="matrix" values="0 0 0 0 0 0 0 0 0 0 0 0 0 0 0 0 0 0 127 0" result="hardAlpha"/>
<feOffset dy="16"/>
<feGaussianBlur stdDeviation="16"/>
<feComposite in2="hardAlpha" operator="out"/>
<feColorMatrix type="matrix" values="0 0 0 0 0 0 0 0 0 0 0 0 0 0 0 0 0 0 0.1 0"/>
<feBlend mode="normal" in2="BackgroundImageFix" result="effect1_dropShadow_6343_40096"/>
<feBlend mode="normal" in="SourceGraphic" in2="effect1_dropShadow_6343_40096" result="shape"/>
</filter>
</defs>
</svg>
