<svg width="296" height="255" viewBox="0 0 296 255" fill="none" xmlns="http://www.w3.org/2000/svg">
<path d="M34.0234 15V6.04004H37.0194C39.9734 6.04004 42.0874 7.90204 42.0874 10.52C42.0874 13.138 40.0014 15 37.0754 15H34.0234ZM37.0054 7.67804H35.8294V13.348H37.0194C38.9374 13.348 40.2114 12.228 40.2114 10.52C40.2114 8.79804 38.9374 7.67804 37.0054 7.67804ZM43.6057 15V8.29404H45.3137V9.28804C45.6357 8.57404 46.2097 8.11204 46.9657 8.11204C47.4137 8.11204 47.7777 8.22404 48.0297 8.43404L47.3297 10.044C47.1057 9.87604 46.7697 9.76404 46.4337 9.76404C45.7617 9.76404 45.3137 10.338 45.3137 11.248V15H43.6057ZM51.689 15.182C49.743 15.182 48.203 13.6 48.203 11.64C48.203 9.69404 49.743 8.11204 51.689 8.11204C53.635 8.11204 55.175 9.69404 55.175 11.64C55.175 13.6 53.635 15.182 51.689 15.182ZM51.689 13.586C52.725 13.586 53.467 12.718 53.467 11.64C53.467 10.562 52.725 9.70804 51.689 9.70804C50.653 9.70804 49.911 10.562 49.911 11.64C49.911 12.718 50.653 13.586 51.689 13.586ZM58.3567 17.744H56.6487V8.29404H58.3567V9.24604C58.8047 8.56004 59.5047 8.11204 60.4147 8.11204C62.1787 8.11204 63.6347 9.55404 63.6347 11.654C63.6347 13.67 62.2767 15.182 60.4147 15.182C59.5047 15.182 58.8047 14.776 58.3567 14.104V17.744ZM60.1487 13.586C61.1707 13.586 61.9267 12.732 61.9267 11.654C61.9267 10.576 61.1707 9.70804 60.1487 9.70804C59.1127 9.70804 58.3567 10.576 58.3567 11.654C58.3567 12.732 59.1127 13.586 60.1487 13.586ZM67.8563 15.182C66.0923 15.182 64.6503 13.74 64.6503 11.64C64.6503 9.62404 66.0083 8.11204 67.8563 8.11204C68.7663 8.11204 69.4663 8.51804 69.9143 9.17604V5.36804H71.6223V15H69.9143V14.048C69.4663 14.734 68.7663 15.182 67.8563 15.182ZM68.1363 13.586C69.1723 13.586 69.9143 12.718 69.9143 11.64C69.9143 10.562 69.1723 9.70804 68.1363 9.70804C67.1003 9.70804 66.3583 10.562 66.3583 11.64C66.3583 12.718 67.1003 13.586 68.1363 13.586ZM76.5718 15.182C74.6258 15.182 73.0858 13.6 73.0858 11.64C73.0858 9.69404 74.6258 8.11204 76.5718 8.11204C78.5178 8.11204 80.0578 9.69404 80.0578 11.64C80.0578 13.6 78.5178 15.182 76.5718 15.182ZM76.5718 13.586C77.6078 13.586 78.3498 12.718 78.3498 11.64C78.3498 10.562 77.6078 9.70804 76.5718 9.70804C75.5358 9.70804 74.7938 10.562 74.7938 11.64C74.7938 12.718 75.5358 13.586 76.5718 13.586ZM84.5351 15H82.6031L80.5311 8.29404H82.3651L83.6111 13.124L84.9691 8.29404H86.8171L88.2031 13.152L89.4771 8.29404H91.3111L89.2391 15H87.1111L85.8091 10.45L84.5351 15ZM92.5237 15V8.29404H94.2317V9.24604C94.5817 8.53204 95.2537 8.11204 96.1357 8.11204C97.6757 8.11204 98.6697 9.19004 98.6697 10.94V15H96.9617V11.192C96.9617 10.282 96.4437 9.70804 95.6037 9.70804C94.7637 9.70804 94.2317 10.282 94.2317 11.192V15H92.5237ZM103.586 15V6.02604H105.336V13.348H109.718V15H103.586ZM113.37 15.182C111.606 15.182 110.164 13.74 110.164 11.64C110.164 9.62404 111.522 8.11204 113.37 8.11204C114.28 8.11204 114.98 8.51804 115.428 9.17604V8.29404H117.136V15H115.428V14.048C114.98 14.734 114.28 15.182 113.37 15.182ZM113.65 13.586C114.686 13.586 115.428 12.718 115.428 11.64C115.428 10.562 114.686 9.70804 113.65 9.70804C112.614 9.70804 111.872 10.562 111.872 11.64C111.872 12.718 112.614 13.586 113.65 13.586ZM122.799 8.11204C124.563 8.11204 126.019 9.55404 126.019 11.654C126.019 13.67 124.661 15.182 122.799 15.182C121.889 15.182 121.189 14.776 120.741 14.104V15H119.033V5.36804H120.741V9.24604C121.189 8.56004 121.889 8.11204 122.799 8.11204ZM122.533 9.70804C121.497 9.70804 120.741 10.576 120.741 11.654C120.741 12.732 121.497 13.586 122.533 13.586C123.555 13.586 124.311 12.732 124.311 11.654C124.311 10.576 123.555 9.70804 122.533 9.70804ZM130.633 15.182C128.547 15.182 127.035 13.6 127.035 11.64C127.035 9.69404 128.477 8.11204 130.409 8.11204C132.327 8.11204 133.797 9.58204 133.797 11.514C133.797 11.738 133.783 12.004 133.755 12.116H128.785C128.967 13.04 129.667 13.684 130.689 13.684C131.375 13.684 131.949 13.39 132.341 12.984L133.223 14.16C132.705 14.734 131.753 15.182 130.633 15.182ZM130.437 9.55404C129.625 9.55404 129.037 10.114 128.827 10.926H132.033C131.823 10.03 131.221 9.55404 130.437 9.55404ZM137.756 13.516L137.938 15.014C137.686 15.098 137.364 15.154 137.112 15.154C136.146 15.154 135.166 14.538 135.166 12.83V5.36804H136.874V12.872C136.874 13.39 137.168 13.586 137.476 13.586C137.56 13.586 137.672 13.558 137.756 13.516Z" fill="black"/>
<path fill-rule="evenodd" clip-rule="evenodd" d="M143 11C143 6.58854 146.589 3 151 3C155.411 3 159 6.58854 159 11C159 15.4115 155.411 19 151 19C146.589 19 143 15.4115 143 11ZM157.769 11C157.769 7.25312 154.747 4.23077 151 4.23077C147.253 4.23077 144.231 7.25312 144.231 11C144.231 14.7469 147.253 17.7692 151 17.7692C154.747 17.7692 157.769 14.7469 157.769 11ZM151.923 14.3846C151.923 14.8944 151.51 15.3077 151 15.3077C150.49 15.3077 150.077 14.8944 150.077 14.3846C150.077 13.8748 150.49 13.4615 151 13.4615C151.51 13.4615 151.923 13.8748 151.923 14.3846ZM148.231 9.42735C148.231 7.92361 149.477 6.69231 151 6.69231C152.523 6.69231 153.769 7.92361 153.769 9.42735C153.769 10.5358 153.039 11.5347 151.974 11.8846L151.692 11.9701V12.8462H150.308V11.9701C150.308 11.3851 150.694 10.851 151.26 10.6667L151.541 10.5812C152.044 10.4156 152.385 9.95086 152.385 9.42735C152.385 8.66346 151.773 8.05983 151 8.05983C150.227 8.05983 149.615 8.66346 149.615 9.42735H148.231Z" fill="#2861BB"/>
<path d="M255 27H41C37.134 27 34 30.134 34 34V62C34 65.866 37.134 69 41 69H255C258.866 69 262 65.866 262 62V34C262 30.134 258.866 27 255 27Z" fill="white"/>
<path d="M255 27H41C37.134 27 34 30.134 34 34V62C34 65.866 37.134 69 41 69H255C258.866 69 262 65.866 262 62V34C262 30.134 258.866 27 255 27Z" stroke="#D6D6D6" stroke-width="2"/>
<path d="M46.0234 52V43.026H49.2294C51.3994 43.026 52.8274 44.202 52.8274 45.994C52.8274 47.8 51.3854 48.99 49.2014 48.99H47.7734V52H46.0234ZM49.3694 44.58H47.7734V47.436H49.3694C50.3354 47.436 50.9794 46.862 50.9794 45.994C50.9794 45.14 50.3354 44.58 49.3694 44.58ZM56.7875 50.516L56.9695 52.014C56.7175 52.098 56.3955 52.154 56.1435 52.154C55.1775 52.154 54.1975 51.538 54.1975 49.83V42.368H55.9055V49.872C55.9055 50.39 56.1995 50.586 56.5075 50.586C56.5915 50.586 56.7035 50.558 56.7875 50.516ZM61.1668 52.182C59.4028 52.182 57.9608 50.74 57.9608 48.64C57.9608 46.624 59.3188 45.112 61.1668 45.112C62.0768 45.112 62.7768 45.518 63.2248 46.176V45.294H64.9328V52H63.2248V51.048C62.7768 51.734 62.0768 52.182 61.1668 52.182ZM61.4468 50.586C62.4828 50.586 63.2248 49.718 63.2248 48.64C63.2248 47.562 62.4828 46.708 61.4468 46.708C60.4108 46.708 59.6688 47.562 59.6688 48.64C59.6688 49.718 60.4108 50.586 61.4468 50.586ZM71.5624 47.324C71.1284 46.918 70.6384 46.708 69.9664 46.708C68.8464 46.708 68.1044 47.562 68.1044 48.64C68.1044 49.718 68.8604 50.586 69.9664 50.586C70.6384 50.586 71.1844 50.348 71.6184 49.928L72.4864 51.188C71.9544 51.776 70.9744 52.182 69.9244 52.182C67.9224 52.182 66.3964 50.6 66.3964 48.64C66.3964 46.694 67.9364 45.112 69.8964 45.112C71.0304 45.112 71.9404 45.49 72.5424 46.106L71.5624 47.324ZM76.5979 52.182C74.5119 52.182 72.9999 50.6 72.9999 48.64C72.9999 46.694 74.4419 45.112 76.3739 45.112C78.2919 45.112 79.7619 46.582 79.7619 48.514C79.7619 48.738 79.7479 49.004 79.7199 49.116H74.7499C74.9319 50.04 75.6319 50.684 76.6539 50.684C77.3399 50.684 77.9139 50.39 78.3059 49.984L79.1879 51.16C78.6699 51.734 77.7179 52.182 76.5979 52.182ZM76.4019 46.554C75.5899 46.554 75.0019 47.114 74.7919 47.926H77.9979C77.7879 47.03 77.1859 46.554 76.4019 46.554ZM81.1311 52V42.368H82.8391V46.246C83.1891 45.532 83.8611 45.112 84.7431 45.112C86.2831 45.112 87.2771 46.19 87.2771 47.94V52H85.5691V48.192C85.5691 47.282 85.0511 46.708 84.2111 46.708C83.3711 46.708 82.8391 47.282 82.8391 48.192V52H81.1311ZM92.1812 52.182C90.2352 52.182 88.6952 50.6 88.6952 48.64C88.6952 46.694 90.2352 45.112 92.1812 45.112C94.1272 45.112 95.6672 46.694 95.6672 48.64C95.6672 50.6 94.1272 52.182 92.1812 52.182ZM92.1812 50.586C93.2172 50.586 93.9592 49.718 93.9592 48.64C93.9592 47.562 93.2172 46.708 92.1812 46.708C91.1452 46.708 90.4032 47.562 90.4032 48.64C90.4032 49.718 91.1452 50.586 92.1812 50.586ZM99.7309 50.516L99.9129 52.014C99.6609 52.098 99.3389 52.154 99.0869 52.154C98.1209 52.154 97.1409 51.538 97.1409 49.83V42.368H98.8489V49.872C98.8489 50.39 99.1429 50.586 99.4509 50.586C99.5349 50.586 99.6469 50.558 99.7309 50.516ZM104.11 52.182C102.346 52.182 100.904 50.74 100.904 48.64C100.904 46.624 102.262 45.112 104.11 45.112C105.02 45.112 105.72 45.518 106.168 46.176V42.368H107.876V52H106.168V51.048C105.72 51.734 105.02 52.182 104.11 52.182ZM104.39 50.586C105.426 50.586 106.168 49.718 106.168 48.64C106.168 47.562 105.426 46.708 104.39 46.708C103.354 46.708 102.612 47.562 102.612 48.64C102.612 49.718 103.354 50.586 104.39 50.586ZM112.937 52.182C110.851 52.182 109.339 50.6 109.339 48.64C109.339 46.694 110.781 45.112 112.713 45.112C114.631 45.112 116.101 46.582 116.101 48.514C116.101 48.738 116.087 49.004 116.059 49.116H111.089C111.271 50.04 111.971 50.684 112.993 50.684C113.679 50.684 114.253 50.39 114.645 49.984L115.527 51.16C115.009 51.734 114.057 52.182 112.937 52.182ZM112.741 46.554C111.929 46.554 111.341 47.114 111.131 47.926H114.337C114.127 47.03 113.525 46.554 112.741 46.554ZM117.471 52V45.294H119.179V46.288C119.501 45.574 120.075 45.112 120.831 45.112C121.279 45.112 121.643 45.224 121.895 45.434L121.195 47.044C120.971 46.876 120.635 46.764 120.299 46.764C119.627 46.764 119.179 47.338 119.179 48.248V52H117.471ZM125.371 46.806V45.294H126.547V43.558H128.269V45.294H130.075V46.806H128.283V49.662C128.283 50.292 128.535 50.586 129.039 50.586C129.361 50.586 129.669 50.446 129.837 50.25L130.593 51.524C130.229 51.888 129.599 52.182 128.773 52.182C127.415 52.182 126.547 51.342 126.547 49.704V46.806H125.371ZM134.566 52.182C132.48 52.182 130.968 50.6 130.968 48.64C130.968 46.694 132.41 45.112 134.342 45.112C136.26 45.112 137.73 46.582 137.73 48.514C137.73 48.738 137.716 49.004 137.688 49.116H132.718C132.9 50.04 133.6 50.684 134.622 50.684C135.308 50.684 135.882 50.39 136.274 49.984L137.156 51.16C136.638 51.734 135.686 52.182 134.566 52.182ZM134.37 46.554C133.558 46.554 132.97 47.114 132.76 47.926H135.966C135.756 47.03 135.154 46.554 134.37 46.554ZM137.851 52L140.385 48.626L137.935 45.294H140.063L141.519 47.268L143.003 45.294H144.921L142.471 48.556L145.005 52H142.877L141.337 49.914L139.755 52H137.851ZM145.455 46.806V45.294H146.631V43.558H148.353V45.294H150.159V46.806H148.367V49.662C148.367 50.292 148.619 50.586 149.123 50.586C149.445 50.586 149.753 50.446 149.921 50.25L150.677 51.524C150.313 51.888 149.683 52.182 148.857 52.182C147.499 52.182 146.631 51.342 146.631 49.704V46.806H145.455Z" fill="black"/>
<path d="M245 51L240 45.9524L241 45L245 49.2857L249 45L250 45.9524L245 51Z" fill="black"/>
<g filter="url(#filter0_d_6343_40243)">
<mask id="mask0_6343_40243" style="mask-type:luminance" maskUnits="userSpaceOnUse" x="33" y="74" width="230" height="132">
<path d="M255 74H41C36.5817 74 33 77.5817 33 82V198C33 202.418 36.5817 206 41 206H255C259.418 206 263 202.418 263 198V82C263 77.5817 259.418 74 255 74Z" fill="white"/>
</mask>
<g mask="url(#mask0_6343_40243)">
<path d="M255 74H41C36.5817 74 33 77.5817 33 82V198C33 202.418 36.5817 206 41 206H255C259.418 206 263 202.418 263 198V82C263 77.5817 259.418 74 255 74Z" fill="white"/>
<path d="M263 74H33V118H263V74Z" fill="white"/>
<path d="M46.0234 100V91.04H49.0194C51.9734 91.04 54.0874 92.902 54.0874 95.52C54.0874 98.138 52.0014 100 49.0754 100H46.0234ZM49.0054 92.678H47.8294V98.348H49.0194C50.9374 98.348 52.2114 97.228 52.2114 95.52C52.2114 93.798 50.9374 92.678 49.0054 92.678ZM55.6057 100V93.294H57.3137V94.288C57.6357 93.574 58.2097 93.112 58.9657 93.112C59.4137 93.112 59.7777 93.224 60.0297 93.434L59.3297 95.044C59.1057 94.876 58.7697 94.764 58.4337 94.764C57.7617 94.764 57.3137 95.338 57.3137 96.248V100H55.6057ZM63.689 100.182C61.743 100.182 60.203 98.6 60.203 96.64C60.203 94.694 61.743 93.112 63.689 93.112C65.635 93.112 67.175 94.694 67.175 96.64C67.175 98.6 65.635 100.182 63.689 100.182ZM63.689 98.586C64.725 98.586 65.467 97.718 65.467 96.64C65.467 95.562 64.725 94.708 63.689 94.708C62.653 94.708 61.911 95.562 61.911 96.64C61.911 97.718 62.653 98.586 63.689 98.586ZM70.3567 102.744H68.6487V93.294H70.3567V94.246C70.8047 93.56 71.5047 93.112 72.4147 93.112C74.1787 93.112 75.6347 94.554 75.6347 96.654C75.6347 98.67 74.2767 100.182 72.4147 100.182C71.5047 100.182 70.8047 99.776 70.3567 99.104V102.744ZM72.1487 98.586C73.1707 98.586 73.9267 97.732 73.9267 96.654C73.9267 95.576 73.1707 94.708 72.1487 94.708C71.1127 94.708 70.3567 95.576 70.3567 96.654C70.3567 97.732 71.1127 98.586 72.1487 98.586ZM79.8563 100.182C78.0923 100.182 76.6503 98.74 76.6503 96.64C76.6503 94.624 78.0083 93.112 79.8563 93.112C80.7663 93.112 81.4663 93.518 81.9143 94.176V90.368H83.6223V100H81.9143V99.048C81.4663 99.734 80.7663 100.182 79.8563 100.182ZM80.1363 98.586C81.1723 98.586 81.9143 97.718 81.9143 96.64C81.9143 95.562 81.1723 94.708 80.1363 94.708C79.1003 94.708 78.3583 95.562 78.3583 96.64C78.3583 97.718 79.1003 98.586 80.1363 98.586ZM88.5718 100.182C86.6258 100.182 85.0858 98.6 85.0858 96.64C85.0858 94.694 86.6258 93.112 88.5718 93.112C90.5178 93.112 92.0578 94.694 92.0578 96.64C92.0578 98.6 90.5178 100.182 88.5718 100.182ZM88.5718 98.586C89.6078 98.586 90.3498 97.718 90.3498 96.64C90.3498 95.562 89.6078 94.708 88.5718 94.708C87.5358 94.708 86.7938 95.562 86.7938 96.64C86.7938 97.718 87.5358 98.586 88.5718 98.586ZM96.5351 100H94.6031L92.5311 93.294H94.3651L95.6111 98.124L96.9691 93.294H98.8171L100.203 98.152L101.477 93.294H103.311L101.239 100H99.1111L97.8091 95.45L96.5351 100ZM104.523 100V93.294H106.231V94.246C106.581 93.532 107.253 93.112 108.135 93.112C109.675 93.112 110.669 94.19 110.669 95.94V100H108.961V96.192C108.961 95.282 108.443 94.708 107.603 94.708C106.763 94.708 106.231 95.282 106.231 96.192V100H104.523ZM118.568 100.182C116.621 100.182 115.082 98.6 115.082 96.64C115.082 94.694 116.621 93.112 118.568 93.112C120.514 93.112 122.054 94.694 122.054 96.64C122.054 98.6 120.514 100.182 118.568 100.182ZM118.568 98.586C119.604 98.586 120.346 97.718 120.346 96.64C120.346 95.562 119.604 94.708 118.568 94.708C117.532 94.708 116.79 95.562 116.79 96.64C116.79 97.718 117.532 98.586 118.568 98.586ZM125.235 102.744H123.527V93.294H125.235V94.246C125.683 93.56 126.383 93.112 127.293 93.112C129.057 93.112 130.513 94.554 130.513 96.654C130.513 98.67 129.155 100.182 127.293 100.182C126.383 100.182 125.683 99.776 125.235 99.104V102.744ZM127.027 98.586C128.049 98.586 128.805 97.732 128.805 96.654C128.805 95.576 128.049 94.708 127.027 94.708C125.991 94.708 125.235 95.576 125.235 96.654C125.235 97.732 125.991 98.586 127.027 98.586ZM131.277 94.806V93.294H132.453V91.558H134.175V93.294H135.981V94.806H134.189V97.662C134.189 98.292 134.441 98.586 134.945 98.586C135.267 98.586 135.575 98.446 135.743 98.25L136.499 99.524C136.135 99.888 135.505 100.182 134.679 100.182C133.321 100.182 132.453 99.342 132.453 97.704V94.806H131.277ZM138.491 92.398C137.931 92.398 137.497 91.95 137.497 91.39C137.497 90.844 137.931 90.396 138.491 90.396C139.037 90.396 139.499 90.844 139.499 91.39C139.499 91.95 139.037 92.398 138.491 92.398ZM139.345 100H137.637V93.294H139.345V100ZM144.312 100.182C142.366 100.182 140.826 98.6 140.826 96.64C140.826 94.694 142.366 93.112 144.312 93.112C146.258 93.112 147.798 94.694 147.798 96.64C147.798 98.6 146.258 100.182 144.312 100.182ZM144.312 98.586C145.348 98.586 146.09 97.718 146.09 96.64C146.09 95.562 145.348 94.708 144.312 94.708C143.276 94.708 142.534 95.562 142.534 96.64C142.534 97.718 143.276 98.586 144.312 98.586ZM149.271 100V93.294H150.979V94.246C151.329 93.532 152.001 93.112 152.883 93.112C154.423 93.112 155.417 94.19 155.417 95.94V100H153.709V96.192C153.709 95.282 153.191 94.708 152.351 94.708C151.511 94.708 150.979 95.282 150.979 96.192V100H149.271Z" fill="black"/>
<path d="M263 118H33V162H263V118Z" fill="#EBEBEB"/>
<path d="M46.0234 144V135.04H49.0194C51.9734 135.04 54.0874 136.902 54.0874 139.52C54.0874 142.138 52.0014 144 49.0754 144H46.0234ZM49.0054 136.678H47.8294V142.348H49.0194C50.9374 142.348 52.2114 141.228 52.2114 139.52C52.2114 137.798 50.9374 136.678 49.0054 136.678ZM55.6057 144V137.294H57.3137V138.288C57.6357 137.574 58.2097 137.112 58.9657 137.112C59.4137 137.112 59.7777 137.224 60.0297 137.434L59.3297 139.044C59.1057 138.876 58.7697 138.764 58.4337 138.764C57.7617 138.764 57.3137 139.338 57.3137 140.248V144H55.6057ZM63.689 144.182C61.743 144.182 60.203 142.6 60.203 140.64C60.203 138.694 61.743 137.112 63.689 137.112C65.635 137.112 67.175 138.694 67.175 140.64C67.175 142.6 65.635 144.182 63.689 144.182ZM63.689 142.586C64.725 142.586 65.467 141.718 65.467 140.64C65.467 139.562 64.725 138.708 63.689 138.708C62.653 138.708 61.911 139.562 61.911 140.64C61.911 141.718 62.653 142.586 63.689 142.586ZM70.3567 146.744H68.6487V137.294H70.3567V138.246C70.8047 137.56 71.5047 137.112 72.4147 137.112C74.1787 137.112 75.6347 138.554 75.6347 140.654C75.6347 142.67 74.2767 144.182 72.4147 144.182C71.5047 144.182 70.8047 143.776 70.3567 143.104V146.744ZM72.1487 142.586C73.1707 142.586 73.9267 141.732 73.9267 140.654C73.9267 139.576 73.1707 138.708 72.1487 138.708C71.1127 138.708 70.3567 139.576 70.3567 140.654C70.3567 141.732 71.1127 142.586 72.1487 142.586ZM79.8563 144.182C78.0923 144.182 76.6503 142.74 76.6503 140.64C76.6503 138.624 78.0083 137.112 79.8563 137.112C80.7663 137.112 81.4663 137.518 81.9143 138.176V134.368H83.6223V144H81.9143V143.048C81.4663 143.734 80.7663 144.182 79.8563 144.182ZM80.1363 142.586C81.1723 142.586 81.9143 141.718 81.9143 140.64C81.9143 139.562 81.1723 138.708 80.1363 138.708C79.1003 138.708 78.3583 139.562 78.3583 140.64C78.3583 141.718 79.1003 142.586 80.1363 142.586ZM88.5718 144.182C86.6258 144.182 85.0858 142.6 85.0858 140.64C85.0858 138.694 86.6258 137.112 88.5718 137.112C90.5178 137.112 92.0578 138.694 92.0578 140.64C92.0578 142.6 90.5178 144.182 88.5718 144.182ZM88.5718 142.586C89.6078 142.586 90.3498 141.718 90.3498 140.64C90.3498 139.562 89.6078 138.708 88.5718 138.708C87.5358 138.708 86.7938 139.562 86.7938 140.64C86.7938 141.718 87.5358 142.586 88.5718 142.586ZM96.5351 144H94.6031L92.5311 137.294H94.3651L95.6111 142.124L96.9691 137.294H98.8171L100.203 142.152L101.477 137.294H103.311L101.239 144H99.1111L97.8091 139.45L96.5351 144ZM104.523 144V137.294H106.231V138.246C106.581 137.532 107.253 137.112 108.135 137.112C109.675 137.112 110.669 138.19 110.669 139.94V144H108.961V140.192C108.961 139.282 108.443 138.708 107.603 138.708C106.763 138.708 106.231 139.282 106.231 140.192V144H104.523ZM118.568 144.182C116.621 144.182 115.082 142.6 115.082 140.64C115.082 138.694 116.621 137.112 118.568 137.112C120.514 137.112 122.054 138.694 122.054 140.64C122.054 142.6 120.514 144.182 118.568 144.182ZM118.568 142.586C119.604 142.586 120.346 141.718 120.346 140.64C120.346 139.562 119.604 138.708 118.568 138.708C117.532 138.708 116.79 139.562 116.79 140.64C116.79 141.718 117.532 142.586 118.568 142.586ZM125.235 146.744H123.527V137.294H125.235V138.246C125.683 137.56 126.383 137.112 127.293 137.112C129.057 137.112 130.513 138.554 130.513 140.654C130.513 142.67 129.155 144.182 127.293 144.182C126.383 144.182 125.683 143.776 125.235 143.104V146.744ZM127.027 142.586C128.049 142.586 128.805 141.732 128.805 140.654C128.805 139.576 128.049 138.708 127.027 138.708C125.991 138.708 125.235 139.576 125.235 140.654C125.235 141.732 125.991 142.586 127.027 142.586ZM131.277 138.806V137.294H132.453V135.558H134.175V137.294H135.981V138.806H134.189V141.662C134.189 142.292 134.441 142.586 134.945 142.586C135.267 142.586 135.575 142.446 135.743 142.25L136.499 143.524C136.135 143.888 135.505 144.182 134.679 144.182C133.321 144.182 132.453 143.342 132.453 141.704V138.806H131.277ZM138.491 136.398C137.931 136.398 137.497 135.95 137.497 135.39C137.497 134.844 137.931 134.396 138.491 134.396C139.037 134.396 139.499 134.844 139.499 135.39C139.499 135.95 139.037 136.398 138.491 136.398ZM139.345 144H137.637V137.294H139.345V144ZM144.312 144.182C142.366 144.182 140.826 142.6 140.826 140.64C140.826 138.694 142.366 137.112 144.312 137.112C146.258 137.112 147.798 138.694 147.798 140.64C147.798 142.6 146.258 144.182 144.312 144.182ZM144.312 142.586C145.348 142.586 146.09 141.718 146.09 140.64C146.09 139.562 145.348 138.708 144.312 138.708C143.276 138.708 142.534 139.562 142.534 140.64C142.534 141.718 143.276 142.586 144.312 142.586ZM149.271 144V137.294H150.979V138.246C151.329 137.532 152.001 137.112 152.883 137.112C154.423 137.112 155.417 138.19 155.417 139.94V144H153.709V140.192C153.709 139.282 153.191 138.708 152.351 138.708C151.511 138.708 150.979 139.282 150.979 140.192V144H149.271Z" fill="#2861BB"/>
<path d="M263 162H33V206H263V162Z" fill="white"/>
<path d="M46.0234 188V179.04H49.0194C51.9734 179.04 54.0874 180.902 54.0874 183.52C54.0874 186.138 52.0014 188 49.0754 188H46.0234ZM49.0054 180.678H47.8294V186.348H49.0194C50.9374 186.348 52.2114 185.228 52.2114 183.52C52.2114 181.798 50.9374 180.678 49.0054 180.678ZM55.6057 188V181.294H57.3137V182.288C57.6357 181.574 58.2097 181.112 58.9657 181.112C59.4137 181.112 59.7777 181.224 60.0297 181.434L59.3297 183.044C59.1057 182.876 58.7697 182.764 58.4337 182.764C57.7617 182.764 57.3137 183.338 57.3137 184.248V188H55.6057ZM63.689 188.182C61.743 188.182 60.203 186.6 60.203 184.64C60.203 182.694 61.743 181.112 63.689 181.112C65.635 181.112 67.175 182.694 67.175 184.64C67.175 186.6 65.635 188.182 63.689 188.182ZM63.689 186.586C64.725 186.586 65.467 185.718 65.467 184.64C65.467 183.562 64.725 182.708 63.689 182.708C62.653 182.708 61.911 183.562 61.911 184.64C61.911 185.718 62.653 186.586 63.689 186.586ZM70.3567 190.744H68.6487V181.294H70.3567V182.246C70.8047 181.56 71.5047 181.112 72.4147 181.112C74.1787 181.112 75.6347 182.554 75.6347 184.654C75.6347 186.67 74.2767 188.182 72.4147 188.182C71.5047 188.182 70.8047 187.776 70.3567 187.104V190.744ZM72.1487 186.586C73.1707 186.586 73.9267 185.732 73.9267 184.654C73.9267 183.576 73.1707 182.708 72.1487 182.708C71.1127 182.708 70.3567 183.576 70.3567 184.654C70.3567 185.732 71.1127 186.586 72.1487 186.586ZM79.8563 188.182C78.0923 188.182 76.6503 186.74 76.6503 184.64C76.6503 182.624 78.0083 181.112 79.8563 181.112C80.7663 181.112 81.4663 181.518 81.9143 182.176V178.368H83.6223V188H81.9143V187.048C81.4663 187.734 80.7663 188.182 79.8563 188.182ZM80.1363 186.586C81.1723 186.586 81.9143 185.718 81.9143 184.64C81.9143 183.562 81.1723 182.708 80.1363 182.708C79.1003 182.708 78.3583 183.562 78.3583 184.64C78.3583 185.718 79.1003 186.586 80.1363 186.586ZM88.5718 188.182C86.6258 188.182 85.0858 186.6 85.0858 184.64C85.0858 182.694 86.6258 181.112 88.5718 181.112C90.5178 181.112 92.0578 182.694 92.0578 184.64C92.0578 186.6 90.5178 188.182 88.5718 188.182ZM88.5718 186.586C89.6078 186.586 90.3498 185.718 90.3498 184.64C90.3498 183.562 89.6078 182.708 88.5718 182.708C87.5358 182.708 86.7938 183.562 86.7938 184.64C86.7938 185.718 87.5358 186.586 88.5718 186.586ZM96.5351 188H94.6031L92.5311 181.294H94.3651L95.6111 186.124L96.9691 181.294H98.8171L100.203 186.152L101.477 181.294H103.311L101.239 188H99.1111L97.8091 183.45L96.5351 188ZM104.523 188V181.294H106.231V182.246C106.581 181.532 107.253 181.112 108.135 181.112C109.675 181.112 110.669 182.19 110.669 183.94V188H108.961V184.192C108.961 183.282 108.443 182.708 107.603 182.708C106.763 182.708 106.231 183.282 106.231 184.192V188H104.523ZM118.568 188.182C116.621 188.182 115.082 186.6 115.082 184.64C115.082 182.694 116.621 181.112 118.568 181.112C120.514 181.112 122.054 182.694 122.054 184.64C122.054 186.6 120.514 188.182 118.568 188.182ZM118.568 186.586C119.604 186.586 120.346 185.718 120.346 184.64C120.346 183.562 119.604 182.708 118.568 182.708C117.532 182.708 116.79 183.562 116.79 184.64C116.79 185.718 117.532 186.586 118.568 186.586ZM125.235 190.744H123.527V181.294H125.235V182.246C125.683 181.56 126.383 181.112 127.293 181.112C129.057 181.112 130.513 182.554 130.513 184.654C130.513 186.67 129.155 188.182 127.293 188.182C126.383 188.182 125.683 187.776 125.235 187.104V190.744ZM127.027 186.586C128.049 186.586 128.805 185.732 128.805 184.654C128.805 183.576 128.049 182.708 127.027 182.708C125.991 182.708 125.235 183.576 125.235 184.654C125.235 185.732 125.991 186.586 127.027 186.586ZM131.277 182.806V181.294H132.453V179.558H134.175V181.294H135.981V182.806H134.189V185.662C134.189 186.292 134.441 186.586 134.945 186.586C135.267 186.586 135.575 186.446 135.743 186.25L136.499 187.524C136.135 187.888 135.505 188.182 134.679 188.182C133.321 188.182 132.453 187.342 132.453 185.704V182.806H131.277ZM138.491 180.398C137.931 180.398 137.497 179.95 137.497 179.39C137.497 178.844 137.931 178.396 138.491 178.396C139.037 178.396 139.499 178.844 139.499 179.39C139.499 179.95 139.037 180.398 138.491 180.398ZM139.345 188H137.637V181.294H139.345V188ZM144.312 188.182C142.366 188.182 140.826 186.6 140.826 184.64C140.826 182.694 142.366 181.112 144.312 181.112C146.258 181.112 147.798 182.694 147.798 184.64C147.798 186.6 146.258 188.182 144.312 188.182ZM144.312 186.586C145.348 186.586 146.09 185.718 146.09 184.64C146.09 183.562 145.348 182.708 144.312 182.708C143.276 182.708 142.534 183.562 142.534 184.64C142.534 185.718 143.276 186.586 144.312 186.586ZM149.271 188V181.294H150.979V182.246C151.329 181.532 152.001 181.112 152.883 181.112C154.423 181.112 155.417 182.19 155.417 183.94V188H153.709V184.192C153.709 183.282 153.191 182.708 152.351 182.708C151.511 182.708 150.979 183.282 150.979 184.192V188H149.271Z" fill="black"/>
</g>
<path d="M255 73.5H41C36.3056 73.5 32.5 77.3056 32.5 82V198C32.5 202.694 36.3056 206.5 41 206.5H255C259.694 206.5 263.5 202.694 263.5 198V82C263.5 77.3056 259.694 73.5 255 73.5Z" stroke="#EBEBEB"/>
</g>
<defs>
<filter id="filter0_d_6343_40243" x="0" y="57" width="296" height="198" filterUnits="userSpaceOnUse" color-interpolation-filters="sRGB">
<feFlood flood-opacity="0" result="BackgroundImageFix"/>
<feColorMatrix in="SourceAlpha" type="matrix" values="0 0 0 0 0 0 0 0 0 0 0 0 0 0 0 0 0 0 127 0" result="hardAlpha"/>
<feOffset dy="16"/>
<feGaussianBlur stdDeviation="16"/>
<feComposite in2="hardAlpha" operator="out"/>
<feColorMatrix type="matrix" values="0 0 0 0 0 0 0 0 0 0 0 0 0 0 0 0 0 0 0.1 0"/>
<feBlend mode="normal" in2="BackgroundImageFix" result="effect1_dropShadow_6343_40243"/>
<feBlend mode="normal" in="SourceGraphic" in2="effect1_dropShadow_6343_40243" result="shape"/>
</filter>
</defs>
</svg>
