<svg width="232" height="207" viewBox="0 0 232 207" fill="none" xmlns="http://www.w3.org/2000/svg">
<path d="M2.02344 15V6.04004H5.01944C7.97344 6.04004 10.0874 7.90204 10.0874 10.52C10.0874 13.138 8.00144 15 5.07544 15H2.02344ZM5.00544 7.67804H3.82944V13.348H5.01944C6.93744 13.348 8.21144 12.228 8.21144 10.52C8.21144 8.79804 6.93744 7.67804 5.00544 7.67804ZM11.6057 15V8.29404H13.3137V9.28804C13.6357 8.57404 14.2097 8.11204 14.9657 8.11204C15.4137 8.11204 15.7777 8.22404 16.0297 8.43404L15.3297 10.044C15.1057 9.87604 14.7697 9.76404 14.4337 9.76404C13.7617 9.76404 13.3137 10.338 13.3137 11.248V15H11.6057ZM19.689 15.182C17.743 15.182 16.203 13.6 16.203 11.64C16.203 9.69404 17.743 8.11204 19.689 8.11204C21.635 8.11204 23.175 9.69404 23.175 11.64C23.175 13.6 21.635 15.182 19.689 15.182ZM19.689 13.586C20.725 13.586 21.467 12.718 21.467 11.64C21.467 10.562 20.725 9.70804 19.689 9.70804C18.653 9.70804 17.911 10.562 17.911 11.64C17.911 12.718 18.653 13.586 19.689 13.586ZM26.3567 17.744H24.6487V8.29404H26.3567V9.24604C26.8047 8.56004 27.5047 8.11204 28.4147 8.11204C30.1787 8.11204 31.6347 9.55404 31.6347 11.654C31.6347 13.67 30.2767 15.182 28.4147 15.182C27.5047 15.182 26.8047 14.776 26.3567 14.104V17.744ZM28.1487 13.586C29.1707 13.586 29.9267 12.732 29.9267 11.654C29.9267 10.576 29.1707 9.70804 28.1487 9.70804C27.1127 9.70804 26.3567 10.576 26.3567 11.654C26.3567 12.732 27.1127 13.586 28.1487 13.586ZM35.8563 15.182C34.0923 15.182 32.6503 13.74 32.6503 11.64C32.6503 9.62404 34.0083 8.11204 35.8563 8.11204C36.7663 8.11204 37.4663 8.51804 37.9143 9.17604V5.36804H39.6223V15H37.9143V14.048C37.4663 14.734 36.7663 15.182 35.8563 15.182ZM36.1363 13.586C37.1723 13.586 37.9143 12.718 37.9143 11.64C37.9143 10.562 37.1723 9.70804 36.1363 9.70804C35.1003 9.70804 34.3583 10.562 34.3583 11.64C34.3583 12.718 35.1003 13.586 36.1363 13.586ZM44.5718 15.182C42.6258 15.182 41.0858 13.6 41.0858 11.64C41.0858 9.69404 42.6258 8.11204 44.5718 8.11204C46.5178 8.11204 48.0578 9.69404 48.0578 11.64C48.0578 13.6 46.5178 15.182 44.5718 15.182ZM44.5718 13.586C45.6078 13.586 46.3498 12.718 46.3498 11.64C46.3498 10.562 45.6078 9.70804 44.5718 9.70804C43.5358 9.70804 42.7938 10.562 42.7938 11.64C42.7938 12.718 43.5358 13.586 44.5718 13.586ZM52.5351 15H50.6031L48.5311 8.29404H50.3651L51.6111 13.124L52.9691 8.29404H54.8171L56.2031 13.152L57.4771 8.29404H59.3111L57.2391 15H55.1111L53.8091 10.45L52.5351 15ZM60.5237 15V8.29404H62.2317V9.24604C62.5817 8.53204 63.2537 8.11204 64.1357 8.11204C65.6757 8.11204 66.6697 9.19004 66.6697 10.94V15H64.9617V11.192C64.9617 10.282 64.4437 9.70804 63.6037 9.70804C62.7637 9.70804 62.2317 10.282 62.2317 11.192V15H60.5237ZM71.5859 15V6.02604H73.3359V13.348H77.7179V15H71.5859ZM81.3699 15.182C79.6059 15.182 78.1639 13.74 78.1639 11.64C78.1639 9.62404 79.5219 8.11204 81.3699 8.11204C82.2799 8.11204 82.9799 8.51804 83.4279 9.17604V8.29404H85.1359V15H83.4279V14.048C82.9799 14.734 82.2799 15.182 81.3699 15.182ZM81.6499 13.586C82.6859 13.586 83.4279 12.718 83.4279 11.64C83.4279 10.562 82.6859 9.70804 81.6499 9.70804C80.6139 9.70804 79.8719 10.562 79.8719 11.64C79.8719 12.718 80.6139 13.586 81.6499 13.586ZM90.7995 8.11204C92.5635 8.11204 94.0195 9.55404 94.0195 11.654C94.0195 13.67 92.6615 15.182 90.7995 15.182C89.8895 15.182 89.1895 14.776 88.7415 14.104V15H87.0335V5.36804H88.7415V9.24604C89.1895 8.56004 89.8895 8.11204 90.7995 8.11204ZM90.5335 9.70804C89.4975 9.70804 88.7415 10.576 88.7415 11.654C88.7415 12.732 89.4975 13.586 90.5335 13.586C91.5555 13.586 92.3115 12.732 92.3115 11.654C92.3115 10.576 91.5555 9.70804 90.5335 9.70804ZM98.633 15.182C96.547 15.182 95.035 13.6 95.035 11.64C95.035 9.69404 96.477 8.11204 98.409 8.11204C100.327 8.11204 101.797 9.58204 101.797 11.514C101.797 11.738 101.783 12.004 101.755 12.116H96.785C96.967 13.04 97.667 13.684 98.689 13.684C99.375 13.684 99.949 13.39 100.341 12.984L101.223 14.16C100.705 14.734 99.753 15.182 98.633 15.182ZM98.437 9.55404C97.625 9.55404 97.037 10.114 96.827 10.926H100.033C99.823 10.03 99.221 9.55404 98.437 9.55404ZM105.756 13.516L105.938 15.014C105.686 15.098 105.364 15.154 105.112 15.154C104.146 15.154 103.166 14.538 103.166 12.83V5.36804H104.874V12.872C104.874 13.39 105.168 13.586 105.476 13.586C105.56 13.586 105.672 13.558 105.756 13.516Z" fill="black"/>
<path fill-rule="evenodd" clip-rule="evenodd" d="M111 11C111 6.58854 114.589 3 119 3C123.411 3 127 6.58854 127 11C127 15.4115 123.411 19 119 19C114.589 19 111 15.4115 111 11ZM125.769 11C125.769 7.25312 122.747 4.23077 119 4.23077C115.253 4.23077 112.231 7.25312 112.231 11C112.231 14.7469 115.253 17.7692 119 17.7692C122.747 17.7692 125.769 14.7469 125.769 11ZM119.923 14.3846C119.923 14.8944 119.51 15.3077 119 15.3077C118.49 15.3077 118.077 14.8944 118.077 14.3846C118.077 13.8748 118.49 13.4615 119 13.4615C119.51 13.4615 119.923 13.8748 119.923 14.3846ZM116.231 9.42735C116.231 7.92361 117.477 6.69231 119 6.69231C120.523 6.69231 121.769 7.92361 121.769 9.42735C121.769 10.5358 121.039 11.5347 119.974 11.8846L119.692 11.9701V12.8462H118.308V11.9701C118.308 11.3851 118.694 10.851 119.26 10.6667L119.541 10.5812C120.044 10.4156 120.385 9.95086 120.385 9.42735C120.385 8.66346 119.773 8.05983 119 8.05983C118.227 8.05983 117.615 8.66346 117.615 9.42735H116.231Z" fill="#2861BB"/>
<path d="M223 27H9C5.13401 27 2 30.134 2 34V62C2 65.866 5.13401 69 9 69H223C226.866 69 230 65.866 230 62V34C230 30.134 226.866 27 223 27Z" fill="white"/>
<path d="M223 27H9C5.13401 27 2 30.134 2 34V62C2 65.866 5.13401 69 9 69H223C226.866 69 230 65.866 230 62V34C230 30.134 226.866 27 223 27Z" stroke="#D6D6D6" stroke-width="2"/>
<path d="M14.0234 52V43.026H17.2294C19.3994 43.026 20.8274 44.202 20.8274 45.994C20.8274 47.8 19.3854 48.99 17.2014 48.99H15.7734V52H14.0234ZM17.3694 44.58H15.7734V47.436H17.3694C18.3354 47.436 18.9794 46.862 18.9794 45.994C18.9794 45.14 18.3354 44.58 17.3694 44.58ZM24.7875 50.516L24.9695 52.014C24.7175 52.098 24.3955 52.154 24.1435 52.154C23.1775 52.154 22.1975 51.538 22.1975 49.83V42.368H23.9055V49.872C23.9055 50.39 24.1995 50.586 24.5075 50.586C24.5915 50.586 24.7035 50.558 24.7875 50.516ZM29.1668 52.182C27.4028 52.182 25.9608 50.74 25.9608 48.64C25.9608 46.624 27.3188 45.112 29.1668 45.112C30.0768 45.112 30.7768 45.518 31.2248 46.176V45.294H32.9328V52H31.2248V51.048C30.7768 51.734 30.0768 52.182 29.1668 52.182ZM29.4468 50.586C30.4828 50.586 31.2248 49.718 31.2248 48.64C31.2248 47.562 30.4828 46.708 29.4468 46.708C28.4108 46.708 27.6688 47.562 27.6688 48.64C27.6688 49.718 28.4108 50.586 29.4468 50.586ZM39.5624 47.324C39.1284 46.918 38.6384 46.708 37.9664 46.708C36.8464 46.708 36.1044 47.562 36.1044 48.64C36.1044 49.718 36.8604 50.586 37.9664 50.586C38.6384 50.586 39.1844 50.348 39.6184 49.928L40.4864 51.188C39.9544 51.776 38.9744 52.182 37.9244 52.182C35.9224 52.182 34.3964 50.6 34.3964 48.64C34.3964 46.694 35.9364 45.112 37.8964 45.112C39.0304 45.112 39.9404 45.49 40.5424 46.106L39.5624 47.324ZM44.5979 52.182C42.5119 52.182 40.9999 50.6 40.9999 48.64C40.9999 46.694 42.4419 45.112 44.3739 45.112C46.2919 45.112 47.7619 46.582 47.7619 48.514C47.7619 48.738 47.7479 49.004 47.7199 49.116H42.7499C42.9319 50.04 43.6319 50.684 44.6539 50.684C45.3399 50.684 45.9139 50.39 46.3059 49.984L47.1879 51.16C46.6699 51.734 45.7179 52.182 44.5979 52.182ZM44.4019 46.554C43.5899 46.554 43.0019 47.114 42.7919 47.926H45.9979C45.7879 47.03 45.1859 46.554 44.4019 46.554ZM49.1311 52V42.368H50.8391V46.246C51.1891 45.532 51.8611 45.112 52.7431 45.112C54.2831 45.112 55.2771 46.19 55.2771 47.94V52H53.5691V48.192C53.5691 47.282 53.0511 46.708 52.2111 46.708C51.3711 46.708 50.8391 47.282 50.8391 48.192V52H49.1311ZM60.1812 52.182C58.2352 52.182 56.6952 50.6 56.6952 48.64C56.6952 46.694 58.2352 45.112 60.1812 45.112C62.1272 45.112 63.6672 46.694 63.6672 48.64C63.6672 50.6 62.1272 52.182 60.1812 52.182ZM60.1812 50.586C61.2172 50.586 61.9592 49.718 61.9592 48.64C61.9592 47.562 61.2172 46.708 60.1812 46.708C59.1452 46.708 58.4032 47.562 58.4032 48.64C58.4032 49.718 59.1452 50.586 60.1812 50.586ZM67.7309 50.516L67.9129 52.014C67.6609 52.098 67.3389 52.154 67.0869 52.154C66.1209 52.154 65.1409 51.538 65.1409 49.83V42.368H66.8489V49.872C66.8489 50.39 67.1429 50.586 67.4509 50.586C67.5349 50.586 67.6469 50.558 67.7309 50.516ZM72.1102 52.182C70.3462 52.182 68.9042 50.74 68.9042 48.64C68.9042 46.624 70.2622 45.112 72.1102 45.112C73.0202 45.112 73.7202 45.518 74.1682 46.176V42.368H75.8762V52H74.1682V51.048C73.7202 51.734 73.0202 52.182 72.1102 52.182ZM72.3902 50.586C73.4262 50.586 74.1682 49.718 74.1682 48.64C74.1682 47.562 73.4262 46.708 72.3902 46.708C71.3542 46.708 70.6122 47.562 70.6122 48.64C70.6122 49.718 71.3542 50.586 72.3902 50.586ZM80.9377 52.182C78.8517 52.182 77.3397 50.6 77.3397 48.64C77.3397 46.694 78.7817 45.112 80.7137 45.112C82.6317 45.112 84.1017 46.582 84.1017 48.514C84.1017 48.738 84.0877 49.004 84.0597 49.116H79.0897C79.2717 50.04 79.9717 50.684 80.9937 50.684C81.6797 50.684 82.2537 50.39 82.6457 49.984L83.5277 51.16C83.0097 51.734 82.0577 52.182 80.9377 52.182ZM80.7417 46.554C79.9297 46.554 79.3417 47.114 79.1317 47.926H82.3377C82.1277 47.03 81.5257 46.554 80.7417 46.554ZM85.471 52V45.294H87.179V46.288C87.501 45.574 88.075 45.112 88.831 45.112C89.279 45.112 89.643 45.224 89.895 45.434L89.195 47.044C88.971 46.876 88.635 46.764 88.299 46.764C87.627 46.764 87.179 47.338 87.179 48.248V52H85.471ZM93.3709 46.806V45.294H94.5469V43.558H96.2689V45.294H98.0749V46.806H96.2829V49.662C96.2829 50.292 96.5349 50.586 97.0389 50.586C97.3609 50.586 97.6689 50.446 97.8369 50.25L98.5929 51.524C98.2289 51.888 97.5989 52.182 96.7729 52.182C95.4149 52.182 94.5469 51.342 94.5469 49.704V46.806H93.3709ZM102.566 52.182C100.48 52.182 98.9686 50.6 98.9686 48.64C98.9686 46.694 100.41 45.112 102.342 45.112C104.26 45.112 105.73 46.582 105.73 48.514C105.73 48.738 105.716 49.004 105.688 49.116H100.718C100.9 50.04 101.6 50.684 102.622 50.684C103.308 50.684 103.882 50.39 104.274 49.984L105.156 51.16C104.638 51.734 103.686 52.182 102.566 52.182ZM102.37 46.554C101.558 46.554 100.97 47.114 100.76 47.926H103.966C103.756 47.03 103.154 46.554 102.37 46.554ZM105.851 52L108.385 48.626L105.935 45.294H108.063L109.519 47.268L111.003 45.294H112.921L110.471 48.556L113.005 52H110.877L109.337 49.914L107.755 52H105.851ZM113.455 46.806V45.294H114.631V43.558H116.353V45.294H118.159V46.806H116.367V49.662C116.367 50.292 116.619 50.586 117.123 50.586C117.445 50.586 117.753 50.446 117.921 50.25L118.677 51.524C118.313 51.888 117.683 52.182 116.857 52.182C115.499 52.182 114.631 51.342 114.631 49.704V46.806H113.455Z" fill="black"/>
<path d="M213 51L208 45.9524L209 45L213 49.2857L217 45L218 45.9524L213 51Z" fill="black"/>
<mask id="mask0_6343_40278" style="mask-type:luminance" maskUnits="userSpaceOnUse" x="1" y="74" width="230" height="132">
<path d="M223 74H9C4.58172 74 1 77.5817 1 82V198C1 202.418 4.58172 206 9 206H223C227.418 206 231 202.418 231 198V82C231 77.5817 227.418 74 223 74Z" fill="white"/>
</mask>
<g mask="url(#mask0_6343_40278)">
<path d="M223 74H9C4.58172 74 1 77.5817 1 82V198C1 202.418 4.58172 206 9 206H223C227.418 206 231 202.418 231 198V82C231 77.5817 227.418 74 223 74Z" fill="white"/>
<path d="M231 74H1V118H231V74Z" fill="white"/>
<path d="M14.0234 100V91.04H17.0194C19.9734 91.04 22.0874 92.902 22.0874 95.52C22.0874 98.138 20.0014 100 17.0754 100H14.0234ZM17.0054 92.678H15.8294V98.348H17.0194C18.9374 98.348 20.2114 97.228 20.2114 95.52C20.2114 93.798 18.9374 92.678 17.0054 92.678ZM23.6057 100V93.294H25.3137V94.288C25.6357 93.574 26.2097 93.112 26.9657 93.112C27.4137 93.112 27.7777 93.224 28.0297 93.434L27.3297 95.044C27.1057 94.876 26.7697 94.764 26.4337 94.764C25.7617 94.764 25.3137 95.338 25.3137 96.248V100H23.6057ZM31.689 100.182C29.743 100.182 28.203 98.6 28.203 96.64C28.203 94.694 29.743 93.112 31.689 93.112C33.635 93.112 35.175 94.694 35.175 96.64C35.175 98.6 33.635 100.182 31.689 100.182ZM31.689 98.586C32.725 98.586 33.467 97.718 33.467 96.64C33.467 95.562 32.725 94.708 31.689 94.708C30.653 94.708 29.911 95.562 29.911 96.64C29.911 97.718 30.653 98.586 31.689 98.586ZM38.3567 102.744H36.6487V93.294H38.3567V94.246C38.8047 93.56 39.5047 93.112 40.4147 93.112C42.1787 93.112 43.6347 94.554 43.6347 96.654C43.6347 98.67 42.2767 100.182 40.4147 100.182C39.5047 100.182 38.8047 99.776 38.3567 99.104V102.744ZM40.1487 98.586C41.1707 98.586 41.9267 97.732 41.9267 96.654C41.9267 95.576 41.1707 94.708 40.1487 94.708C39.1127 94.708 38.3567 95.576 38.3567 96.654C38.3567 97.732 39.1127 98.586 40.1487 98.586ZM47.8563 100.182C46.0923 100.182 44.6503 98.74 44.6503 96.64C44.6503 94.624 46.0083 93.112 47.8563 93.112C48.7663 93.112 49.4663 93.518 49.9143 94.176V90.368H51.6223V100H49.9143V99.048C49.4663 99.734 48.7663 100.182 47.8563 100.182ZM48.1363 98.586C49.1723 98.586 49.9143 97.718 49.9143 96.64C49.9143 95.562 49.1723 94.708 48.1363 94.708C47.1003 94.708 46.3583 95.562 46.3583 96.64C46.3583 97.718 47.1003 98.586 48.1363 98.586ZM56.5718 100.182C54.6258 100.182 53.0858 98.6 53.0858 96.64C53.0858 94.694 54.6258 93.112 56.5718 93.112C58.5178 93.112 60.0578 94.694 60.0578 96.64C60.0578 98.6 58.5178 100.182 56.5718 100.182ZM56.5718 98.586C57.6078 98.586 58.3498 97.718 58.3498 96.64C58.3498 95.562 57.6078 94.708 56.5718 94.708C55.5358 94.708 54.7938 95.562 54.7938 96.64C54.7938 97.718 55.5358 98.586 56.5718 98.586ZM64.5351 100H62.6031L60.5311 93.294H62.3651L63.6111 98.124L64.9691 93.294H66.8171L68.2031 98.152L69.4771 93.294H71.3111L69.2391 100H67.1111L65.8091 95.45L64.5351 100ZM72.5237 100V93.294H74.2317V94.246C74.5817 93.532 75.2537 93.112 76.1357 93.112C77.6757 93.112 78.6697 94.19 78.6697 95.94V100H76.9617V96.192C76.9617 95.282 76.4437 94.708 75.6037 94.708C74.7637 94.708 74.2317 95.282 74.2317 96.192V100H72.5237ZM86.5679 100.182C84.6219 100.182 83.0819 98.6 83.0819 96.64C83.0819 94.694 84.6219 93.112 86.5679 93.112C88.5139 93.112 90.0539 94.694 90.0539 96.64C90.0539 98.6 88.5139 100.182 86.5679 100.182ZM86.5679 98.586C87.6039 98.586 88.3459 97.718 88.3459 96.64C88.3459 95.562 87.6039 94.708 86.5679 94.708C85.5319 94.708 84.7899 95.562 84.7899 96.64C84.7899 97.718 85.5319 98.586 86.5679 98.586ZM93.2356 102.744H91.5276V93.294H93.2356V94.246C93.6836 93.56 94.3836 93.112 95.2936 93.112C97.0576 93.112 98.5136 94.554 98.5136 96.654C98.5136 98.67 97.1556 100.182 95.2936 100.182C94.3836 100.182 93.6836 99.776 93.2356 99.104V102.744ZM95.0276 98.586C96.0496 98.586 96.8056 97.732 96.8056 96.654C96.8056 95.576 96.0496 94.708 95.0276 94.708C93.9916 94.708 93.2356 95.576 93.2356 96.654C93.2356 97.732 93.9916 98.586 95.0276 98.586ZM99.2772 94.806V93.294H100.453V91.558H102.175V93.294H103.981V94.806H102.189V97.662C102.189 98.292 102.441 98.586 102.945 98.586C103.267 98.586 103.575 98.446 103.743 98.25L104.499 99.524C104.135 99.888 103.505 100.182 102.679 100.182C101.321 100.182 100.453 99.342 100.453 97.704V94.806H99.2772ZM106.491 92.398C105.931 92.398 105.497 91.95 105.497 91.39C105.497 90.844 105.931 90.396 106.491 90.396C107.037 90.396 107.499 90.844 107.499 91.39C107.499 91.95 107.037 92.398 106.491 92.398ZM107.345 100H105.637V93.294H107.345V100ZM112.312 100.182C110.366 100.182 108.826 98.6 108.826 96.64C108.826 94.694 110.366 93.112 112.312 93.112C114.258 93.112 115.798 94.694 115.798 96.64C115.798 98.6 114.258 100.182 112.312 100.182ZM112.312 98.586C113.348 98.586 114.09 97.718 114.09 96.64C114.09 95.562 113.348 94.708 112.312 94.708C111.276 94.708 110.534 95.562 110.534 96.64C110.534 97.718 111.276 98.586 112.312 98.586ZM117.271 100V93.294H118.979V94.246C119.329 93.532 120.001 93.112 120.883 93.112C122.423 93.112 123.417 94.19 123.417 95.94V100H121.709V96.192C121.709 95.282 121.191 94.708 120.351 94.708C119.511 94.708 118.979 95.282 118.979 96.192V100H117.271Z" fill="black"/>
<path d="M231 118H1V162H231V118Z" fill="#EBEBEB"/>
<path d="M14.0234 144V135.04H17.0194C19.9734 135.04 22.0874 136.902 22.0874 139.52C22.0874 142.138 20.0014 144 17.0754 144H14.0234ZM17.0054 136.678H15.8294V142.348H17.0194C18.9374 142.348 20.2114 141.228 20.2114 139.52C20.2114 137.798 18.9374 136.678 17.0054 136.678ZM23.6057 144V137.294H25.3137V138.288C25.6357 137.574 26.2097 137.112 26.9657 137.112C27.4137 137.112 27.7777 137.224 28.0297 137.434L27.3297 139.044C27.1057 138.876 26.7697 138.764 26.4337 138.764C25.7617 138.764 25.3137 139.338 25.3137 140.248V144H23.6057ZM31.689 144.182C29.743 144.182 28.203 142.6 28.203 140.64C28.203 138.694 29.743 137.112 31.689 137.112C33.635 137.112 35.175 138.694 35.175 140.64C35.175 142.6 33.635 144.182 31.689 144.182ZM31.689 142.586C32.725 142.586 33.467 141.718 33.467 140.64C33.467 139.562 32.725 138.708 31.689 138.708C30.653 138.708 29.911 139.562 29.911 140.64C29.911 141.718 30.653 142.586 31.689 142.586ZM38.3567 146.744H36.6487V137.294H38.3567V138.246C38.8047 137.56 39.5047 137.112 40.4147 137.112C42.1787 137.112 43.6347 138.554 43.6347 140.654C43.6347 142.67 42.2767 144.182 40.4147 144.182C39.5047 144.182 38.8047 143.776 38.3567 143.104V146.744ZM40.1487 142.586C41.1707 142.586 41.9267 141.732 41.9267 140.654C41.9267 139.576 41.1707 138.708 40.1487 138.708C39.1127 138.708 38.3567 139.576 38.3567 140.654C38.3567 141.732 39.1127 142.586 40.1487 142.586ZM47.8563 144.182C46.0923 144.182 44.6503 142.74 44.6503 140.64C44.6503 138.624 46.0083 137.112 47.8563 137.112C48.7663 137.112 49.4663 137.518 49.9143 138.176V134.368H51.6223V144H49.9143V143.048C49.4663 143.734 48.7663 144.182 47.8563 144.182ZM48.1363 142.586C49.1723 142.586 49.9143 141.718 49.9143 140.64C49.9143 139.562 49.1723 138.708 48.1363 138.708C47.1003 138.708 46.3583 139.562 46.3583 140.64C46.3583 141.718 47.1003 142.586 48.1363 142.586ZM56.5718 144.182C54.6258 144.182 53.0858 142.6 53.0858 140.64C53.0858 138.694 54.6258 137.112 56.5718 137.112C58.5178 137.112 60.0578 138.694 60.0578 140.64C60.0578 142.6 58.5178 144.182 56.5718 144.182ZM56.5718 142.586C57.6078 142.586 58.3498 141.718 58.3498 140.64C58.3498 139.562 57.6078 138.708 56.5718 138.708C55.5358 138.708 54.7938 139.562 54.7938 140.64C54.7938 141.718 55.5358 142.586 56.5718 142.586ZM64.5351 144H62.6031L60.5311 137.294H62.3651L63.6111 142.124L64.9691 137.294H66.8171L68.2031 142.152L69.4771 137.294H71.3111L69.2391 144H67.1111L65.8091 139.45L64.5351 144ZM72.5237 144V137.294H74.2317V138.246C74.5817 137.532 75.2537 137.112 76.1357 137.112C77.6757 137.112 78.6697 138.19 78.6697 139.94V144H76.9617V140.192C76.9617 139.282 76.4437 138.708 75.6037 138.708C74.7637 138.708 74.2317 139.282 74.2317 140.192V144H72.5237ZM86.5679 144.182C84.6219 144.182 83.0819 142.6 83.0819 140.64C83.0819 138.694 84.6219 137.112 86.5679 137.112C88.5139 137.112 90.0539 138.694 90.0539 140.64C90.0539 142.6 88.5139 144.182 86.5679 144.182ZM86.5679 142.586C87.6039 142.586 88.3459 141.718 88.3459 140.64C88.3459 139.562 87.6039 138.708 86.5679 138.708C85.5319 138.708 84.7899 139.562 84.7899 140.64C84.7899 141.718 85.5319 142.586 86.5679 142.586ZM93.2356 146.744H91.5276V137.294H93.2356V138.246C93.6836 137.56 94.3836 137.112 95.2936 137.112C97.0576 137.112 98.5136 138.554 98.5136 140.654C98.5136 142.67 97.1556 144.182 95.2936 144.182C94.3836 144.182 93.6836 143.776 93.2356 143.104V146.744ZM95.0276 142.586C96.0496 142.586 96.8056 141.732 96.8056 140.654C96.8056 139.576 96.0496 138.708 95.0276 138.708C93.9916 138.708 93.2356 139.576 93.2356 140.654C93.2356 141.732 93.9916 142.586 95.0276 142.586ZM99.2772 138.806V137.294H100.453V135.558H102.175V137.294H103.981V138.806H102.189V141.662C102.189 142.292 102.441 142.586 102.945 142.586C103.267 142.586 103.575 142.446 103.743 142.25L104.499 143.524C104.135 143.888 103.505 144.182 102.679 144.182C101.321 144.182 100.453 143.342 100.453 141.704V138.806H99.2772ZM106.491 136.398C105.931 136.398 105.497 135.95 105.497 135.39C105.497 134.844 105.931 134.396 106.491 134.396C107.037 134.396 107.499 134.844 107.499 135.39C107.499 135.95 107.037 136.398 106.491 136.398ZM107.345 144H105.637V137.294H107.345V144ZM112.312 144.182C110.366 144.182 108.826 142.6 108.826 140.64C108.826 138.694 110.366 137.112 112.312 137.112C114.258 137.112 115.798 138.694 115.798 140.64C115.798 142.6 114.258 144.182 112.312 144.182ZM112.312 142.586C113.348 142.586 114.09 141.718 114.09 140.64C114.09 139.562 113.348 138.708 112.312 138.708C111.276 138.708 110.534 139.562 110.534 140.64C110.534 141.718 111.276 142.586 112.312 142.586ZM117.271 144V137.294H118.979V138.246C119.329 137.532 120.001 137.112 120.883 137.112C122.423 137.112 123.417 138.19 123.417 139.94V144H121.709V140.192C121.709 139.282 121.191 138.708 120.351 138.708C119.511 138.708 118.979 139.282 118.979 140.192V144H117.271Z" fill="#2861BB"/>
<path d="M231 162H1V206H231V162Z" fill="white"/>
<path d="M14.0234 188V179.04H17.0194C19.9734 179.04 22.0874 180.902 22.0874 183.52C22.0874 186.138 20.0014 188 17.0754 188H14.0234ZM17.0054 180.678H15.8294V186.348H17.0194C18.9374 186.348 20.2114 185.228 20.2114 183.52C20.2114 181.798 18.9374 180.678 17.0054 180.678ZM23.6057 188V181.294H25.3137V182.288C25.6357 181.574 26.2097 181.112 26.9657 181.112C27.4137 181.112 27.7777 181.224 28.0297 181.434L27.3297 183.044C27.1057 182.876 26.7697 182.764 26.4337 182.764C25.7617 182.764 25.3137 183.338 25.3137 184.248V188H23.6057ZM31.689 188.182C29.743 188.182 28.203 186.6 28.203 184.64C28.203 182.694 29.743 181.112 31.689 181.112C33.635 181.112 35.175 182.694 35.175 184.64C35.175 186.6 33.635 188.182 31.689 188.182ZM31.689 186.586C32.725 186.586 33.467 185.718 33.467 184.64C33.467 183.562 32.725 182.708 31.689 182.708C30.653 182.708 29.911 183.562 29.911 184.64C29.911 185.718 30.653 186.586 31.689 186.586ZM38.3567 190.744H36.6487V181.294H38.3567V182.246C38.8047 181.56 39.5047 181.112 40.4147 181.112C42.1787 181.112 43.6347 182.554 43.6347 184.654C43.6347 186.67 42.2767 188.182 40.4147 188.182C39.5047 188.182 38.8047 187.776 38.3567 187.104V190.744ZM40.1487 186.586C41.1707 186.586 41.9267 185.732 41.9267 184.654C41.9267 183.576 41.1707 182.708 40.1487 182.708C39.1127 182.708 38.3567 183.576 38.3567 184.654C38.3567 185.732 39.1127 186.586 40.1487 186.586ZM47.8563 188.182C46.0923 188.182 44.6503 186.74 44.6503 184.64C44.6503 182.624 46.0083 181.112 47.8563 181.112C48.7663 181.112 49.4663 181.518 49.9143 182.176V178.368H51.6223V188H49.9143V187.048C49.4663 187.734 48.7663 188.182 47.8563 188.182ZM48.1363 186.586C49.1723 186.586 49.9143 185.718 49.9143 184.64C49.9143 183.562 49.1723 182.708 48.1363 182.708C47.1003 182.708 46.3583 183.562 46.3583 184.64C46.3583 185.718 47.1003 186.586 48.1363 186.586ZM56.5718 188.182C54.6258 188.182 53.0858 186.6 53.0858 184.64C53.0858 182.694 54.6258 181.112 56.5718 181.112C58.5178 181.112 60.0578 182.694 60.0578 184.64C60.0578 186.6 58.5178 188.182 56.5718 188.182ZM56.5718 186.586C57.6078 186.586 58.3498 185.718 58.3498 184.64C58.3498 183.562 57.6078 182.708 56.5718 182.708C55.5358 182.708 54.7938 183.562 54.7938 184.64C54.7938 185.718 55.5358 186.586 56.5718 186.586ZM64.5351 188H62.6031L60.5311 181.294H62.3651L63.6111 186.124L64.9691 181.294H66.8171L68.2031 186.152L69.4771 181.294H71.3111L69.2391 188H67.1111L65.8091 183.45L64.5351 188ZM72.5237 188V181.294H74.2317V182.246C74.5817 181.532 75.2537 181.112 76.1357 181.112C77.6757 181.112 78.6697 182.19 78.6697 183.94V188H76.9617V184.192C76.9617 183.282 76.4437 182.708 75.6037 182.708C74.7637 182.708 74.2317 183.282 74.2317 184.192V188H72.5237ZM86.5679 188.182C84.6219 188.182 83.0819 186.6 83.0819 184.64C83.0819 182.694 84.6219 181.112 86.5679 181.112C88.5139 181.112 90.0539 182.694 90.0539 184.64C90.0539 186.6 88.5139 188.182 86.5679 188.182ZM86.5679 186.586C87.6039 186.586 88.3459 185.718 88.3459 184.64C88.3459 183.562 87.6039 182.708 86.5679 182.708C85.5319 182.708 84.7899 183.562 84.7899 184.64C84.7899 185.718 85.5319 186.586 86.5679 186.586ZM93.2356 190.744H91.5276V181.294H93.2356V182.246C93.6836 181.56 94.3836 181.112 95.2936 181.112C97.0576 181.112 98.5136 182.554 98.5136 184.654C98.5136 186.67 97.1556 188.182 95.2936 188.182C94.3836 188.182 93.6836 187.776 93.2356 187.104V190.744ZM95.0276 186.586C96.0496 186.586 96.8056 185.732 96.8056 184.654C96.8056 183.576 96.0496 182.708 95.0276 182.708C93.9916 182.708 93.2356 183.576 93.2356 184.654C93.2356 185.732 93.9916 186.586 95.0276 186.586ZM99.2772 182.806V181.294H100.453V179.558H102.175V181.294H103.981V182.806H102.189V185.662C102.189 186.292 102.441 186.586 102.945 186.586C103.267 186.586 103.575 186.446 103.743 186.25L104.499 187.524C104.135 187.888 103.505 188.182 102.679 188.182C101.321 188.182 100.453 187.342 100.453 185.704V182.806H99.2772ZM106.491 180.398C105.931 180.398 105.497 179.95 105.497 179.39C105.497 178.844 105.931 178.396 106.491 178.396C107.037 178.396 107.499 178.844 107.499 179.39C107.499 179.95 107.037 180.398 106.491 180.398ZM107.345 188H105.637V181.294H107.345V188ZM112.312 188.182C110.366 188.182 108.826 186.6 108.826 184.64C108.826 182.694 110.366 181.112 112.312 181.112C114.258 181.112 115.798 182.694 115.798 184.64C115.798 186.6 114.258 188.182 112.312 188.182ZM112.312 186.586C113.348 186.586 114.09 185.718 114.09 184.64C114.09 183.562 113.348 182.708 112.312 182.708C111.276 182.708 110.534 183.562 110.534 184.64C110.534 185.718 111.276 186.586 112.312 186.586ZM117.271 188V181.294H118.979V182.246C119.329 181.532 120.001 181.112 120.883 181.112C122.423 181.112 123.417 182.19 123.417 183.94V188H121.709V184.192C121.709 183.282 121.191 182.708 120.351 182.708C119.511 182.708 118.979 183.282 118.979 184.192V188H117.271Z" fill="black"/>
</g>
<path d="M223 73.5H9C4.30558 73.5 0.5 77.3056 0.5 82V198C0.5 202.694 4.30558 206.5 9 206.5H223C227.694 206.5 231.5 202.694 231.5 198V82C231.5 77.3056 227.694 73.5 223 73.5Z" stroke="#EBEBEB"/>
</svg>
