<svg width="296" height="255" viewBox="0 0 296 255" fill="none" xmlns="http://www.w3.org/2000/svg">
<path d="M35.0716 15.014C34.6516 14.902 34.1196 14.636 33.4336 14.188L34.1896 12.718C34.9456 13.194 36.0376 13.53 36.9196 13.53C37.8016 13.53 38.4596 13.208 38.4596 12.494C38.4596 10.898 33.7416 11.654 33.7416 8.47604C33.7416 6.81004 35.2676 5.83004 37.0876 5.83004C38.2216 5.83004 39.2856 6.13804 40.1116 6.76804L39.2576 8.15404C38.6836 7.77604 37.7876 7.46804 37.0036 7.46804C36.1916 7.46804 35.6176 7.84604 35.6176 8.43404C35.6176 10.072 40.3216 9.34404 40.3216 12.396C40.3216 14.244 38.6976 15.182 36.7936 15.182C36.0516 15.182 35.4776 15.126 35.0716 15.014ZM44.8949 15.182C42.8089 15.182 41.2969 13.6 41.2969 11.64C41.2969 9.69404 42.7389 8.11204 44.6709 8.11204C46.5889 8.11204 48.0589 9.58204 48.0589 11.514C48.0589 11.738 48.0449 12.004 48.0169 12.116H43.0469C43.2289 13.04 43.9289 13.684 44.9509 13.684C45.6369 13.684 46.2109 13.39 46.6029 12.984L47.4849 14.16C46.9669 14.734 46.0149 15.182 44.8949 15.182ZM44.6989 9.55404C43.8869 9.55404 43.2989 10.114 43.0889 10.926H46.2949C46.0849 10.03 45.4829 9.55404 44.6989 9.55404ZM52.0182 13.516L52.2002 15.014C51.9482 15.098 51.6262 15.154 51.3742 15.154C50.4082 15.154 49.4282 14.538 49.4282 12.83V5.36804H51.1362V12.872C51.1362 13.39 51.4302 13.586 51.7382 13.586C51.8222 13.586 51.9342 13.558 52.0182 13.516ZM56.7894 15.182C54.7034 15.182 53.1914 13.6 53.1914 11.64C53.1914 9.69404 54.6334 8.11204 56.5654 8.11204C58.4834 8.11204 59.9534 9.58204 59.9534 11.514C59.9534 11.738 59.9394 12.004 59.9114 12.116H54.9414C55.1234 13.04 55.8234 13.684 56.8454 13.684C57.5314 13.684 58.1054 13.39 58.4974 12.984L59.3794 14.16C58.8614 14.734 57.9094 15.182 56.7894 15.182ZM56.5934 9.55404C55.7814 9.55404 55.1934 10.114 54.9834 10.926H58.1894C57.9794 10.03 57.3774 9.55404 56.5934 9.55404ZM66.0547 10.324C65.6207 9.91804 65.1307 9.70804 64.4587 9.70804C63.3387 9.70804 62.5967 10.562 62.5967 11.64C62.5967 12.718 63.3527 13.586 64.4587 13.586C65.1307 13.586 65.6767 13.348 66.1107 12.928L66.9787 14.188C66.4467 14.776 65.4667 15.182 64.4167 15.182C62.4147 15.182 60.8887 13.6 60.8887 11.64C60.8887 9.69404 62.4287 8.11204 64.3887 8.11204C65.5227 8.11204 66.4327 8.49004 67.0347 9.10604L66.0547 10.324ZM67.4726 9.80604V8.29403H68.6486V6.55804H70.3706V8.29403H72.1766V9.80604H70.3846V12.662C70.3846 13.292 70.6366 13.586 71.1406 13.586C71.4626 13.586 71.7706 13.446 71.9386 13.25L72.6946 14.524C72.3306 14.888 71.7006 15.182 70.8746 15.182C69.5166 15.182 68.6486 14.342 68.6486 12.704V9.80604H67.4726ZM78.9686 15.266L79.0246 15.098L75.9586 8.29403H77.8346L79.7946 12.914L81.4046 8.29403H83.1266L80.3826 15.854C79.8646 17.324 79.0106 17.926 77.8906 17.926C77.1766 17.926 76.4906 17.632 76.0566 17.226L76.8266 15.882C77.1486 16.19 77.5126 16.33 77.9046 16.33C78.3806 16.33 78.6886 16.05 78.9686 15.266ZM87.0016 15.182C85.0556 15.182 83.5156 13.6 83.5156 11.64C83.5156 9.69404 85.0556 8.11204 87.0016 8.11204C88.9476 8.11204 90.4876 9.69404 90.4876 11.64C90.4876 13.6 88.9476 15.182 87.0016 15.182ZM87.0016 13.586C88.0376 13.586 88.7796 12.718 88.7796 11.64C88.7796 10.562 88.0376 9.70804 87.0016 9.70804C85.9656 9.70804 85.2236 10.562 85.2236 11.64C85.2236 12.718 85.9656 13.586 87.0016 13.586ZM93.5854 8.29403V11.92C93.5854 12.9 94.1454 13.558 94.9994 13.558C95.8534 13.558 96.4274 12.9 96.4274 11.92V8.29403H98.1494V12.046C98.1494 13.922 96.8894 15.168 94.9994 15.168C93.1094 15.168 91.8774 13.922 91.8774 12.046V8.29403H93.5854ZM99.9594 15V8.29403H101.668V9.28804C101.99 8.57404 102.564 8.11204 103.32 8.11204C103.768 8.11204 104.132 8.22404 104.384 8.43404L103.684 10.044C103.46 9.87603 103.124 9.76404 102.788 9.76404C102.116 9.76404 101.668 10.338 101.668 11.248V15H99.9594ZM107.944 9.80604V8.29403H109.036V7.90204C109.036 6.20804 110.002 5.18604 111.5 5.18604C112.41 5.18604 112.998 5.43804 113.432 5.87204L112.592 7.16004C112.396 6.95004 112.032 6.78204 111.668 6.78204C111.108 6.78204 110.758 7.16004 110.758 7.88804V8.29403H112.494V9.80604H110.758V15H109.036V9.80604H107.944ZM116.158 15.182C114.394 15.182 112.952 13.74 112.952 11.64C112.952 9.62404 114.31 8.11204 116.158 8.11204C117.068 8.11204 117.768 8.51803 118.216 9.17603V8.29403H119.924V15H118.216V14.048C117.768 14.734 117.068 15.182 116.158 15.182ZM116.438 13.586C117.474 13.586 118.216 12.718 118.216 11.64C118.216 10.562 117.474 9.70804 116.438 9.70804C115.402 9.70804 114.66 10.562 114.66 11.64C114.66 12.718 115.402 13.586 116.438 13.586ZM125.699 15H123.473L121.051 8.29403H122.927L124.635 13.474L126.371 8.29403H128.121L125.699 15ZM131.983 15.182C130.037 15.182 128.497 13.6 128.497 11.64C128.497 9.69404 130.037 8.11204 131.983 8.11204C133.929 8.11204 135.469 9.69404 135.469 11.64C135.469 13.6 133.929 15.182 131.983 15.182ZM131.983 13.586C133.019 13.586 133.761 12.718 133.761 11.64C133.761 10.562 133.019 9.70804 131.983 9.70804C130.947 9.70804 130.205 10.562 130.205 11.64C130.205 12.718 130.947 13.586 131.983 13.586ZM136.942 15V8.29403H138.65V9.28804C138.972 8.57404 139.546 8.11204 140.302 8.11204C140.75 8.11204 141.114 8.22404 141.366 8.43404L140.666 10.044C140.442 9.87603 140.106 9.76404 139.77 9.76404C139.098 9.76404 138.65 10.338 138.65 11.248V15H136.942ZM143.388 7.39804C142.828 7.39804 142.394 6.95004 142.394 6.39004C142.394 5.84404 142.828 5.39604 143.388 5.39604C143.934 5.39604 144.396 5.84404 144.396 6.39004C144.396 6.95004 143.934 7.39804 143.388 7.39804ZM144.242 15H142.534V8.29403H144.242V15ZM145.471 9.80604V8.29403H146.647V6.55804H148.369V8.29403H150.175V9.80604H148.383V12.662C148.383 13.292 148.635 13.586 149.139 13.586C149.461 13.586 149.769 13.446 149.937 13.25L150.693 14.524C150.329 14.888 149.699 15.182 148.873 15.182C147.515 15.182 146.647 14.342 146.647 12.704V9.80604H145.471ZM154.667 15.182C152.581 15.182 151.069 13.6 151.069 11.64C151.069 9.69404 152.511 8.11204 154.443 8.11204C156.361 8.11204 157.831 9.58204 157.831 11.514C157.831 11.738 157.817 12.004 157.789 12.116H152.819C153.001 13.04 153.701 13.684 154.723 13.684C155.409 13.684 155.983 13.39 156.375 12.984L157.257 14.16C156.739 14.734 155.787 15.182 154.667 15.182ZM154.471 9.55404C153.659 9.55404 153.071 10.114 152.861 10.926H156.067C155.857 10.03 155.255 9.55404 154.471 9.55404ZM161.592 9.80604V8.29403H162.684V7.90204C162.684 6.20804 163.65 5.18604 165.148 5.18604C166.058 5.18604 166.646 5.43804 167.08 5.87204L166.24 7.16004C166.044 6.95004 165.68 6.78204 165.316 6.78204C164.756 6.78204 164.406 7.16004 164.406 7.88804V8.29403H166.142V9.80604H164.406V15H162.684V9.80604H161.592ZM167.171 15V8.29403H168.879V9.28804C169.201 8.57404 169.775 8.11204 170.531 8.11204C170.979 8.11204 171.343 8.22404 171.595 8.43404L170.895 10.044C170.671 9.87603 170.335 9.76404 169.999 9.76404C169.327 9.76404 168.879 10.338 168.879 11.248V15H167.171ZM174.387 8.29403V11.92C174.387 12.9 174.947 13.558 175.801 13.558C176.655 13.558 177.229 12.9 177.229 11.92V8.29403H178.951V12.046C178.951 13.922 177.691 15.168 175.801 15.168C173.911 15.168 172.679 13.922 172.679 12.046V8.29403H174.387ZM181.615 7.39804C181.055 7.39804 180.621 6.95004 180.621 6.39004C180.621 5.84404 181.055 5.39604 181.615 5.39604C182.161 5.39604 182.623 5.84404 182.623 6.39004C182.623 6.95004 182.161 7.39804 181.615 7.39804ZM182.469 15H180.761V8.29403H182.469V15ZM183.698 9.80604V8.29403H184.874V6.55804H186.596V8.29403H188.402V9.80604H186.61V12.662C186.61 13.292 186.862 13.586 187.366 13.586C187.688 13.586 187.996 13.446 188.164 13.25L188.92 14.524C188.556 14.888 187.926 15.182 187.1 15.182C185.742 15.182 184.874 14.342 184.874 12.704V9.80604H183.698Z" fill="black"/>
<path fill-rule="evenodd" clip-rule="evenodd" d="M194 11C194 6.58854 197.589 3 202 3C206.411 3 210 6.58854 210 11C210 15.4115 206.411 19 202 19C197.589 19 194 15.4115 194 11ZM208.769 11C208.769 7.25312 205.747 4.23077 202 4.23077C198.253 4.23077 195.231 7.25312 195.231 11C195.231 14.7469 198.253 17.7692 202 17.7692C205.747 17.7692 208.769 14.7469 208.769 11ZM202.923 14.3846C202.923 14.8944 202.51 15.3077 202 15.3077C201.49 15.3077 201.077 14.8944 201.077 14.3846C201.077 13.8748 201.49 13.4615 202 13.4615C202.51 13.4615 202.923 13.8748 202.923 14.3846ZM199.231 9.42735C199.231 7.92361 200.477 6.69231 202 6.69231C203.523 6.69231 204.769 7.92361 204.769 9.42735C204.769 10.5358 204.039 11.5347 202.974 11.8846L202.692 11.9701V12.8462H201.308V11.9701C201.308 11.3851 201.694 10.851 202.26 10.6667L202.541 10.5812C203.044 10.4156 203.385 9.95086 203.385 9.42735C203.385 8.66346 202.773 8.05983 202 8.05983C201.227 8.05983 200.615 8.66346 200.615 9.42735H199.231Z" fill="#2861BB"/>
<path d="M255 27H41C37.134 27 34 30.134 34 34V62C34 65.866 37.134 69 41 69H255C258.866 69 262 65.866 262 62V34C262 30.134 258.866 27 255 27Z" fill="white"/>
<path d="M255 27H41C37.134 27 34 30.134 34 34V62C34 65.866 37.134 69 41 69H255C258.866 69 262 65.866 262 62V34C262 30.134 258.866 27 255 27Z" stroke="#D6D6D6" stroke-width="2"/>
<path d="M46.0234 52V43.04H51.7074V44.678H47.7734V46.848H51.1474V48.5H47.7734V52H46.0234ZM52.9807 52V45.294H54.6887V46.288C55.0107 45.574 55.5847 45.112 56.3407 45.112C56.7887 45.112 57.1527 45.224 57.4047 45.434L56.7047 47.044C56.4807 46.876 56.1447 46.764 55.8087 46.764C55.1367 46.764 54.6887 47.338 54.6887 48.248V52H52.9807ZM60.1965 45.294V48.92C60.1965 49.9 60.7565 50.558 61.6105 50.558C62.4645 50.558 63.0385 49.9 63.0385 48.92V45.294H64.7605V49.046C64.7605 50.922 63.5005 52.168 61.6105 52.168C59.7205 52.168 58.4885 50.922 58.4885 49.046V45.294H60.1965ZM67.4246 44.398C66.8646 44.398 66.4306 43.95 66.4306 43.39C66.4306 42.844 66.8646 42.396 67.4246 42.396C67.9706 42.396 68.4326 42.844 68.4326 43.39C68.4326 43.95 67.9706 44.398 67.4246 44.398ZM68.2786 52H66.5706V45.294H68.2786V52ZM69.5076 46.806V45.294H70.6836V43.558H72.4056V45.294H74.2116V46.806H72.4196V49.662C72.4196 50.292 72.6716 50.586 73.1756 50.586C73.4976 50.586 73.8056 50.446 73.9736 50.25L74.7296 51.524C74.3656 51.888 73.7356 52.182 72.9096 52.182C71.5516 52.182 70.6836 51.342 70.6836 49.704V46.806H69.5076ZM81.9136 52.182C79.9676 52.182 78.4276 50.6 78.4276 48.64C78.4276 46.694 79.9676 45.112 81.9136 45.112C83.8596 45.112 85.3996 46.694 85.3996 48.64C85.3996 50.6 83.8596 52.182 81.9136 52.182ZM81.9136 50.586C82.9496 50.586 83.6916 49.718 83.6916 48.64C83.6916 47.562 82.9496 46.708 81.9136 46.708C80.8776 46.708 80.1356 47.562 80.1356 48.64C80.1356 49.718 80.8776 50.586 81.9136 50.586ZM88.5813 54.744H86.8733V45.294H88.5813V46.246C89.0293 45.56 89.7293 45.112 90.6393 45.112C92.4033 45.112 93.8593 46.554 93.8593 48.654C93.8593 50.67 92.5013 52.182 90.6393 52.182C89.7293 52.182 89.0293 51.776 88.5813 51.104V54.744ZM90.3733 50.586C91.3953 50.586 92.1513 49.732 92.1513 48.654C92.1513 47.576 91.3953 46.708 90.3733 46.708C89.3373 46.708 88.5813 47.576 88.5813 48.654C88.5813 49.732 89.3373 50.586 90.3733 50.586ZM94.6229 46.806V45.294H95.7989V43.558H97.5209V45.294H99.3269V46.806H97.5349V49.662C97.5349 50.292 97.7869 50.586 98.2909 50.586C98.6129 50.586 98.9209 50.446 99.0889 50.25L99.8449 51.524C99.4809 51.888 98.8509 52.182 98.0249 52.182C96.6669 52.182 95.7989 51.342 95.7989 49.704V46.806H94.6229ZM101.836 44.398C101.276 44.398 100.842 43.95 100.842 43.39C100.842 42.844 101.276 42.396 101.836 42.396C102.382 42.396 102.844 42.844 102.844 43.39C102.844 43.95 102.382 44.398 101.836 44.398ZM102.69 52H100.982V45.294H102.69V52ZM107.657 52.182C105.711 52.182 104.171 50.6 104.171 48.64C104.171 46.694 105.711 45.112 107.657 45.112C109.603 45.112 111.143 46.694 111.143 48.64C111.143 50.6 109.603 52.182 107.657 52.182ZM107.657 50.586C108.693 50.586 109.435 49.718 109.435 48.64C109.435 47.562 108.693 46.708 107.657 46.708C106.621 46.708 105.879 47.562 105.879 48.64C105.879 49.718 106.621 50.586 107.657 50.586ZM112.617 52V45.294H114.325V46.246C114.675 45.532 115.347 45.112 116.229 45.112C117.769 45.112 118.763 46.19 118.763 47.94V52H117.055V48.192C117.055 47.282 116.537 46.708 115.697 46.708C114.857 46.708 114.325 47.282 114.325 48.192V52H112.617ZM122.673 52.182C121.595 52.182 120.713 51.902 120.055 51.538L120.601 50.222C121.371 50.586 122.015 50.782 122.757 50.782C123.513 50.782 123.863 50.516 123.863 50.124C123.863 48.92 120.251 49.634 120.251 47.1C120.251 46.092 121.147 45.112 122.869 45.112C123.807 45.112 124.521 45.308 125.375 45.714L124.745 46.988C124.269 46.722 123.555 46.512 123.009 46.512C122.365 46.512 121.973 46.722 121.973 47.086C121.973 48.318 125.557 47.548 125.557 50.096C125.557 51.258 124.521 52.182 122.673 52.182Z" fill="black"/>
<path d="M245 51L240 45.9524L241 45L245 49.2857L249 45L250 45.9524L245 51Z" fill="black"/>
<g filter="url(#filter0_d_6343_40154)">
<mask id="mask0_6343_40154" style="mask-type:luminance" maskUnits="userSpaceOnUse" x="33" y="74" width="230" height="132">
<path d="M255 74H41C36.5817 74 33 77.5817 33 82V198C33 202.418 36.5817 206 41 206H255C259.418 206 263 202.418 263 198V82C263 77.5817 259.418 74 255 74Z" fill="white"/>
</mask>
<g mask="url(#mask0_6343_40154)">
<path d="M255 74H41C36.5817 74 33 77.5817 33 82V198C33 202.418 36.5817 206 41 206H255C259.418 206 263 202.418 263 198V82C263 77.5817 259.418 74 255 74Z" fill="white"/>
<path d="M263 74H33V118H263V74Z" fill="white"/>
<path d="M53.4826 92.0619L52.3206 93.4059C51.8026 92.9299 51.0746 92.5799 50.1786 92.5799C48.6526 92.5799 47.4346 93.8959 47.4346 95.5199C47.4346 97.1299 48.6526 98.4459 50.2906 98.4459C51.0606 98.4459 51.8306 98.1519 52.3346 97.6339L53.4826 98.9219C52.6986 99.7899 51.6206 100.182 50.1786 100.182C47.5606 100.182 45.5586 98.0819 45.5586 95.5199C45.5586 92.9299 47.6306 90.8439 50.1646 90.8439C51.6766 90.8439 52.7406 91.3059 53.4826 92.0619ZM54.7143 99.9999V90.3679H56.4223V94.2459C56.7723 93.5319 57.4443 93.1119 58.3263 93.1119C59.8663 93.1119 60.8603 94.1899 60.8603 95.9399V99.9999H59.1523V96.1919C59.1523 95.2819 58.6343 94.7079 57.7943 94.7079C56.9543 94.7079 56.4223 95.2819 56.4223 96.1919V99.9999H54.7143ZM65.8763 100.182C63.7903 100.182 62.2783 98.5999 62.2783 96.6399C62.2783 94.6939 63.7203 93.1119 65.6523 93.1119C67.5703 93.1119 69.0403 94.5819 69.0403 96.5139C69.0403 96.7379 69.0263 97.0039 68.9983 97.1159H64.0283C64.2103 98.0399 64.9103 98.6839 65.9323 98.6839C66.6183 98.6839 67.1923 98.3899 67.5843 97.9839L68.4663 99.1599C67.9483 99.7339 66.9963 100.182 65.8763 100.182ZM65.6803 94.5539C64.8683 94.5539 64.2803 95.1139 64.0703 95.9259H67.2763C67.0663 95.0299 66.4643 94.5539 65.6803 94.5539ZM70.4096 99.9999V93.2939H72.1176V94.2879C72.4396 93.5739 73.0136 93.1119 73.7696 93.1119C74.2176 93.1119 74.5816 93.2239 74.8336 93.4339L74.1336 95.0439C73.9096 94.8759 73.5736 94.7639 73.2376 94.7639C72.5656 94.7639 72.1176 95.3379 72.1176 96.2479V99.9999H70.4096ZM76.0014 99.9999V93.2939H77.7094V94.2879C78.0314 93.5739 78.6054 93.1119 79.3614 93.1119C79.8094 93.1119 80.1734 93.2239 80.4254 93.4339L79.7254 95.0439C79.5014 94.8759 79.1654 94.7639 78.8294 94.7639C78.1574 94.7639 77.7094 95.3379 77.7094 96.2479V99.9999H76.0014ZM82.4472 92.3979C81.8872 92.3979 81.4532 91.9499 81.4532 91.3899C81.4532 90.8439 81.8872 90.3959 82.4472 90.3959C82.9932 90.3959 83.4552 90.8439 83.4552 91.3899C83.4552 91.9499 82.9932 92.3979 82.4472 92.3979ZM83.3012 99.9999H81.5932V93.2939H83.3012V99.9999ZM88.3802 100.182C86.2942 100.182 84.7822 98.5999 84.7822 96.6399C84.7822 94.6939 86.2242 93.1119 88.1562 93.1119C90.0742 93.1119 91.5442 94.5819 91.5442 96.5139C91.5442 96.7379 91.5302 97.0039 91.5022 97.1159H86.5322C86.7142 98.0399 87.4142 98.6839 88.4362 98.6839C89.1222 98.6839 89.6962 98.3899 90.0882 97.9839L90.9702 99.1599C90.4522 99.7339 89.5002 100.182 88.3802 100.182ZM88.1842 94.5539C87.3722 94.5539 86.7842 95.1139 86.5742 95.9259H89.7802C89.5702 95.0299 88.9682 94.5539 88.1842 94.5539ZM94.9305 100.182C93.8525 100.182 92.9705 99.9019 92.3125 99.5379L92.8585 98.2219C93.6285 98.5859 94.2725 98.7819 95.0145 98.7819C95.7705 98.7819 96.1205 98.5159 96.1205 98.1239C96.1205 96.9199 92.5085 97.6339 92.5085 95.0999C92.5085 94.0919 93.4045 93.1119 95.1265 93.1119C96.0645 93.1119 96.7785 93.3079 97.6325 93.7139L97.0025 94.9879C96.5265 94.7219 95.8125 94.5119 95.2665 94.5119C94.6225 94.5119 94.2305 94.7219 94.2305 95.0859C94.2305 96.3179 97.8145 95.5479 97.8145 98.0959C97.8145 99.2579 96.7785 100.182 94.9305 100.182Z" fill="black"/>
<path d="M263 118H33V162H263V118Z" fill="#EBEBEB"/>
<path d="M52.5056 144L51.7216 141.984H47.8016L47.0176 144H45.1836L48.7816 135.026H50.8396L54.4516 144H52.5056ZM48.3896 140.43H51.1336L49.7616 136.888L48.3896 140.43ZM57.2729 146.744H55.5649V137.294H57.2729V138.246C57.7209 137.56 58.4209 137.112 59.3309 137.112C61.0949 137.112 62.5509 138.554 62.5509 140.654C62.5509 142.67 61.1929 144.182 59.3309 144.182C58.4209 144.182 57.7209 143.776 57.2729 143.104V146.744ZM59.0649 142.586C60.0869 142.586 60.8429 141.732 60.8429 140.654C60.8429 139.576 60.0869 138.708 59.0649 138.708C58.0289 138.708 57.2729 139.576 57.2729 140.654C57.2729 141.732 58.0289 142.586 59.0649 142.586ZM65.7085 146.744H64.0005V137.294H65.7085V138.246C66.1565 137.56 66.8565 137.112 67.7665 137.112C69.5305 137.112 70.9865 138.554 70.9865 140.654C70.9865 142.67 69.6285 144.182 67.7665 144.182C66.8565 144.182 66.1565 143.776 65.7085 143.104V146.744ZM67.5005 142.586C68.5225 142.586 69.2785 141.732 69.2785 140.654C69.2785 139.576 68.5225 138.708 67.5005 138.708C66.4645 138.708 65.7085 139.576 65.7085 140.654C65.7085 141.732 66.4645 142.586 67.5005 142.586ZM75.026 142.516L75.208 144.014C74.956 144.098 74.634 144.154 74.382 144.154C73.416 144.154 72.436 143.538 72.436 141.83V134.368H74.144V141.872C74.144 142.39 74.438 142.586 74.746 142.586C74.83 142.586 74.942 142.558 75.026 142.516ZM79.7973 144.182C77.7113 144.182 76.1993 142.6 76.1993 140.64C76.1993 138.694 77.6413 137.112 79.5733 137.112C81.4913 137.112 82.9613 138.582 82.9613 140.514C82.9613 140.738 82.9473 141.004 82.9193 141.116H77.9493C78.1313 142.04 78.8313 142.684 79.8533 142.684C80.5393 142.684 81.1133 142.39 81.5053 141.984L82.3873 143.16C81.8693 143.734 80.9173 144.182 79.7973 144.182ZM79.6013 138.554C78.7893 138.554 78.2013 139.114 77.9913 139.926H81.1973C80.9873 139.03 80.3853 138.554 79.6013 138.554ZM86.3475 144.182C85.2695 144.182 84.3875 143.902 83.7295 143.538L84.2755 142.222C85.0455 142.586 85.6895 142.782 86.4315 142.782C87.1875 142.782 87.5375 142.516 87.5375 142.124C87.5375 140.92 83.9255 141.634 83.9255 139.1C83.9255 138.092 84.8215 137.112 86.5435 137.112C87.4815 137.112 88.1955 137.308 89.0495 137.714L88.4195 138.988C87.9435 138.722 87.2295 138.512 86.6835 138.512C86.0395 138.512 85.6475 138.722 85.6475 139.086C85.6475 140.318 89.2315 139.548 89.2315 142.096C89.2315 143.258 88.1955 144.182 86.3475 144.182Z" fill="#2861BB"/>
<path d="M263 162H33V206H263V162Z" fill="white"/>
<path d="M46.0234 188V179.04H49.6354C51.3154 179.04 52.5894 180.062 52.5894 181.518C52.5894 182.568 51.8614 183.142 51.2594 183.394C52.1414 183.66 52.8414 184.36 52.8414 185.48C52.8414 186.824 51.7914 188 49.8454 188H46.0234ZM49.4674 180.58H47.7734V182.736H49.4674C50.2374 182.736 50.7694 182.288 50.7694 181.658C50.7694 181.028 50.2234 180.58 49.4674 180.58ZM49.6634 184.178H47.7734V186.446H49.6634C50.4474 186.446 51.0214 185.97 51.0214 185.312C51.0214 184.654 50.4474 184.178 49.6634 184.178ZM56.9969 188.182C55.2329 188.182 53.7909 186.74 53.7909 184.64C53.7909 182.624 55.1489 181.112 56.9969 181.112C57.9069 181.112 58.6069 181.518 59.0549 182.176V181.294H60.7629V188H59.0549V187.048C58.6069 187.734 57.9069 188.182 56.9969 188.182ZM57.2769 186.586C58.3129 186.586 59.0549 185.718 59.0549 184.64C59.0549 183.562 58.3129 182.708 57.2769 182.708C56.2409 182.708 55.4989 183.562 55.4989 184.64C55.4989 185.718 56.2409 186.586 57.2769 186.586ZM62.6604 188V181.294H64.3684V182.246C64.7184 181.532 65.3904 181.112 66.2724 181.112C67.8124 181.112 68.8064 182.19 68.8064 183.94V188H67.0984V184.192C67.0984 183.282 66.5804 182.708 65.7404 182.708C64.9004 182.708 64.3684 183.282 64.3684 184.192V188H62.6604ZM73.4305 188.182C71.6665 188.182 70.2245 186.74 70.2245 184.64C70.2245 182.624 71.5825 181.112 73.4305 181.112C74.3405 181.112 75.0405 181.518 75.4885 182.176V181.294H77.1965V188H75.4885V187.048C75.0405 187.734 74.3405 188.182 73.4305 188.182ZM73.7105 186.586C74.7465 186.586 75.4885 185.718 75.4885 184.64C75.4885 183.562 74.7465 182.708 73.7105 182.708C72.6745 182.708 71.9325 183.562 71.9325 184.64C71.9325 185.718 72.6745 186.586 73.7105 186.586ZM79.094 188V181.294H80.802V182.246C81.152 181.532 81.824 181.112 82.706 181.112C84.246 181.112 85.24 182.19 85.24 183.94V188H83.532V184.192C83.532 183.282 83.014 182.708 82.174 182.708C81.334 182.708 80.802 183.282 80.802 184.192V188H79.094ZM89.8641 188.182C88.1001 188.182 86.6581 186.74 86.6581 184.64C86.6581 182.624 88.0161 181.112 89.8641 181.112C90.7741 181.112 91.4741 181.518 91.9221 182.176V181.294H93.6301V188H91.9221V187.048C91.4741 187.734 90.7741 188.182 89.8641 188.182ZM90.1441 186.586C91.1801 186.586 91.9221 185.718 91.9221 184.64C91.9221 183.562 91.1801 182.708 90.1441 182.708C89.1081 182.708 88.3661 183.562 88.3661 184.64C88.3661 185.718 89.1081 186.586 90.1441 186.586ZM97.5856 188.182C96.5076 188.182 95.6256 187.902 94.9676 187.538L95.5136 186.222C96.2836 186.586 96.9276 186.782 97.6696 186.782C98.4256 186.782 98.7756 186.516 98.7756 186.124C98.7756 184.92 95.1636 185.634 95.1636 183.1C95.1636 182.092 96.0596 181.112 97.7816 181.112C98.7196 181.112 99.4336 181.308 100.287 181.714L99.6576 182.988C99.1816 182.722 98.4676 182.512 97.9216 182.512C97.2776 182.512 96.8856 182.722 96.8856 183.086C96.8856 184.318 100.469 183.548 100.469 186.096C100.469 187.258 99.4336 188.182 97.5856 188.182Z" fill="black"/>
</g>
<path d="M255 73.5H41C36.3056 73.5 32.5 77.3056 32.5 82V198C32.5 202.694 36.3056 206.5 41 206.5H255C259.694 206.5 263.5 202.694 263.5 198V82C263.5 77.3056 259.694 73.5 255 73.5Z" stroke="#EBEBEB"/>
</g>
<defs>
<filter id="filter0_d_6343_40154" x="0" y="57" width="296" height="198" filterUnits="userSpaceOnUse" color-interpolation-filters="sRGB">
<feFlood flood-opacity="0" result="BackgroundImageFix"/>
<feColorMatrix in="SourceAlpha" type="matrix" values="0 0 0 0 0 0 0 0 0 0 0 0 0 0 0 0 0 0 127 0" result="hardAlpha"/>
<feOffset dy="16"/>
<feGaussianBlur stdDeviation="16"/>
<feComposite in2="hardAlpha" operator="out"/>
<feColorMatrix type="matrix" values="0 0 0 0 0 0 0 0 0 0 0 0 0 0 0 0 0 0 0.1 0"/>
<feBlend mode="normal" in2="BackgroundImageFix" result="effect1_dropShadow_6343_40154"/>
<feBlend mode="normal" in="SourceGraphic" in2="effect1_dropShadow_6343_40154" result="shape"/>
</filter>
</defs>
</svg>
