<svg width="230" height="68" viewBox="0 0 230 68" fill="none" xmlns="http://www.w3.org/2000/svg">
<path d="M1.02344 15.9999V7.03992H4.01944C6.97344 7.03992 9.08744 8.90192 9.08744 11.5199C9.08744 14.1379 7.00144 15.9999 4.07544 15.9999H1.02344ZM4.00544 8.67792H2.82944V14.3479H4.01944C5.93744 14.3479 7.21144 13.2279 7.21144 11.5199C7.21144 9.79792 5.93744 8.67792 4.00544 8.67792ZM10.6057 15.9999V9.29392H12.3137V10.2879C12.6357 9.57392 13.2097 9.11192 13.9657 9.11192C14.4137 9.11192 14.7777 9.22392 15.0297 9.43392L14.3297 11.0439C14.1057 10.8759 13.7697 10.7639 13.4337 10.7639C12.7617 10.7639 12.3137 11.3379 12.3137 12.2479V15.9999H10.6057ZM18.689 16.1819C16.743 16.1819 15.203 14.5999 15.203 12.6399C15.203 10.6939 16.743 9.11192 18.689 9.11192C20.635 9.11192 22.175 10.6939 22.175 12.6399C22.175 14.5999 20.635 16.1819 18.689 16.1819ZM18.689 14.5859C19.725 14.5859 20.467 13.7179 20.467 12.6399C20.467 11.5619 19.725 10.7079 18.689 10.7079C17.653 10.7079 16.911 11.5619 16.911 12.6399C16.911 13.7179 17.653 14.5859 18.689 14.5859ZM25.3567 18.7439H23.6487V9.29392H25.3567V10.2459C25.8047 9.55992 26.5047 9.11192 27.4147 9.11192C29.1787 9.11192 30.6347 10.5539 30.6347 12.6539C30.6347 14.6699 29.2767 16.1819 27.4147 16.1819C26.5047 16.1819 25.8047 15.7759 25.3567 15.1039V18.7439ZM27.1487 14.5859C28.1707 14.5859 28.9267 13.7319 28.9267 12.6539C28.9267 11.5759 28.1707 10.7079 27.1487 10.7079C26.1127 10.7079 25.3567 11.5759 25.3567 12.6539C25.3567 13.7319 26.1127 14.5859 27.1487 14.5859ZM34.8563 16.1819C33.0923 16.1819 31.6503 14.7399 31.6503 12.6399C31.6503 10.6239 33.0083 9.11192 34.8563 9.11192C35.7663 9.11192 36.4663 9.51792 36.9143 10.1759V6.36792H38.6223V15.9999H36.9143V15.0479C36.4663 15.7339 35.7663 16.1819 34.8563 16.1819ZM35.1363 14.5859C36.1723 14.5859 36.9143 13.7179 36.9143 12.6399C36.9143 11.5619 36.1723 10.7079 35.1363 10.7079C34.1003 10.7079 33.3583 11.5619 33.3583 12.6399C33.3583 13.7179 34.1003 14.5859 35.1363 14.5859ZM43.5718 16.1819C41.6258 16.1819 40.0858 14.5999 40.0858 12.6399C40.0858 10.6939 41.6258 9.11192 43.5718 9.11192C45.5178 9.11192 47.0578 10.6939 47.0578 12.6399C47.0578 14.5999 45.5178 16.1819 43.5718 16.1819ZM43.5718 14.5859C44.6078 14.5859 45.3498 13.7179 45.3498 12.6399C45.3498 11.5619 44.6078 10.7079 43.5718 10.7079C42.5358 10.7079 41.7938 11.5619 41.7938 12.6399C41.7938 13.7179 42.5358 14.5859 43.5718 14.5859ZM51.5351 15.9999H49.6031L47.5311 9.29392H49.3651L50.6111 14.1239L51.9691 9.29392H53.8171L55.2031 14.1519L56.4771 9.29392H58.3111L56.2391 15.9999H54.1111L52.8091 11.4499L51.5351 15.9999ZM59.5237 15.9999V9.29392H61.2317V10.2459C61.5817 9.53192 62.2537 9.11192 63.1357 9.11192C64.6757 9.11192 65.6697 10.1899 65.6697 11.9399V15.9999H63.9617V12.1919C63.9617 11.2819 63.4437 10.7079 62.6037 10.7079C61.7637 10.7079 61.2317 11.2819 61.2317 12.1919V15.9999H59.5237ZM70.5859 15.9999V7.02592H72.3359V14.3479H76.7179V15.9999H70.5859ZM80.3699 16.1819C78.6059 16.1819 77.1639 14.7399 77.1639 12.6399C77.1639 10.6239 78.5219 9.11192 80.3699 9.11192C81.2799 9.11192 81.9799 9.51792 82.4279 10.1759V9.29392H84.1359V15.9999H82.4279V15.0479C81.9799 15.7339 81.2799 16.1819 80.3699 16.1819ZM80.6499 14.5859C81.6859 14.5859 82.4279 13.7179 82.4279 12.6399C82.4279 11.5619 81.6859 10.7079 80.6499 10.7079C79.6139 10.7079 78.8719 11.5619 78.8719 12.6399C78.8719 13.7179 79.6139 14.5859 80.6499 14.5859ZM89.7995 9.11192C91.5635 9.11192 93.0195 10.5539 93.0195 12.6539C93.0195 14.6699 91.6615 16.1819 89.7995 16.1819C88.8895 16.1819 88.1895 15.7759 87.7415 15.1039V15.9999H86.0335V6.36792H87.7415V10.2459C88.1895 9.55992 88.8895 9.11192 89.7995 9.11192ZM89.5335 10.7079C88.4975 10.7079 87.7415 11.5759 87.7415 12.6539C87.7415 13.7319 88.4975 14.5859 89.5335 14.5859C90.5555 14.5859 91.3115 13.7319 91.3115 12.6539C91.3115 11.5759 90.5555 10.7079 89.5335 10.7079ZM97.633 16.1819C95.547 16.1819 94.035 14.5999 94.035 12.6399C94.035 10.6939 95.477 9.11192 97.409 9.11192C99.327 9.11192 100.797 10.5819 100.797 12.5139C100.797 12.7379 100.783 13.0039 100.755 13.1159H95.785C95.967 14.0399 96.667 14.6839 97.689 14.6839C98.375 14.6839 98.949 14.3899 99.341 13.9839L100.223 15.1599C99.705 15.7339 98.753 16.1819 97.633 16.1819ZM97.437 10.5539C96.625 10.5539 96.037 11.1139 95.827 11.9259H99.033C98.823 11.0299 98.221 10.5539 97.437 10.5539ZM104.756 14.5159L104.938 16.0139C104.686 16.0979 104.364 16.1539 104.112 16.1539C103.146 16.1539 102.166 15.5379 102.166 13.8299V6.36792H103.874V13.8719C103.874 14.3899 104.168 14.5859 104.476 14.5859C104.56 14.5859 104.672 14.5579 104.756 14.5159Z" fill="black"/>
<path fill-rule="evenodd" clip-rule="evenodd" d="M110 12C110 7.58854 113.589 4 118 4C122.411 4 126 7.58854 126 12C126 16.4115 122.411 20 118 20C113.589 20 110 16.4115 110 12ZM124.769 12C124.769 8.25312 121.747 5.23077 118 5.23077C114.253 5.23077 111.231 8.25312 111.231 12C111.231 15.7469 114.253 18.7692 118 18.7692C121.747 18.7692 124.769 15.7469 124.769 12ZM118.923 15.3846C118.923 15.8944 118.51 16.3077 118 16.3077C117.49 16.3077 117.077 15.8944 117.077 15.3846C117.077 14.8748 117.49 14.4615 118 14.4615C118.51 14.4615 118.923 14.8748 118.923 15.3846ZM115.231 10.4274C115.231 8.92361 116.477 7.69231 118 7.69231C119.523 7.69231 120.769 8.92361 120.769 10.4274C120.769 11.5358 120.039 12.5347 118.974 12.8846L118.692 12.9701V13.8462H117.308V12.9701C117.308 12.3851 117.694 11.851 118.26 11.6667L118.541 11.5812C119.044 11.4156 119.385 10.9509 119.385 10.4274C119.385 9.66346 118.773 9.05983 118 9.05983C117.227 9.05983 116.615 9.66346 116.615 10.4274H115.231Z" fill="#2861BB"/>
<path d="M222 27.5H8C3.85786 27.5 0.5 30.8579 0.5 35V59C0.5 63.1421 3.85786 66.5 8 66.5H222C226.142 66.5 229.5 63.1421 229.5 59V35C229.5 30.8579 226.142 27.5 222 27.5Z" fill="white"/>
<path d="M222 27.5H8C3.85786 27.5 0.5 30.8579 0.5 35V59C0.5 63.1421 3.85786 66.5 8 66.5H222C226.142 66.5 229.5 63.1421 229.5 59V35C229.5 30.8579 226.142 27.5 222 27.5Z" stroke="#EBEBEB"/>
<path d="M13.0234 51V42.04H16.0194C18.9734 42.04 21.0874 43.902 21.0874 46.52C21.0874 49.138 19.0014 51 16.0754 51H13.0234ZM16.0054 43.678H14.8294V49.348H16.0194C17.9374 49.348 19.2114 48.228 19.2114 46.52C19.2114 44.798 17.9374 43.678 16.0054 43.678ZM25.7697 51.182C23.6837 51.182 22.1717 49.6 22.1717 47.64C22.1717 45.694 23.6137 44.112 25.5457 44.112C27.4637 44.112 28.9337 45.582 28.9337 47.514C28.9337 47.738 28.9197 48.004 28.8917 48.116H23.9217C24.1037 49.04 24.8037 49.684 25.8257 49.684C26.5117 49.684 27.0857 49.39 27.4777 48.984L28.3597 50.16C27.8417 50.734 26.8897 51.182 25.7697 51.182ZM25.5737 45.554C24.7617 45.554 24.1737 46.114 23.9637 46.926H27.1697C26.9597 46.03 26.3577 45.554 25.5737 45.554ZM29.701 45.806V44.294H30.793V43.902C30.793 42.208 31.759 41.186 33.257 41.186C34.167 41.186 34.755 41.438 35.189 41.872L34.349 43.16C34.153 42.95 33.789 42.782 33.425 42.782C32.865 42.782 32.515 43.16 32.515 43.888V44.294H34.251V45.806H32.515V51H30.793V45.806H29.701ZM37.9149 51.182C36.1509 51.182 34.7089 49.74 34.7089 47.64C34.7089 45.624 36.0669 44.112 37.9149 44.112C38.8249 44.112 39.5249 44.518 39.9729 45.176V44.294H41.6809V51H39.9729V50.048C39.5249 50.734 38.8249 51.182 37.9149 51.182ZM38.1949 49.586C39.2309 49.586 39.9729 48.718 39.9729 47.64C39.9729 46.562 39.2309 45.708 38.1949 45.708C37.1589 45.708 36.4169 46.562 36.4169 47.64C36.4169 48.718 37.1589 49.586 38.1949 49.586ZM45.2024 44.294V47.92C45.2024 48.9 45.7624 49.558 46.6164 49.558C47.4704 49.558 48.0444 48.9 48.0444 47.92V44.294H49.7664V48.046C49.7664 49.922 48.5064 51.168 46.6164 51.168C44.7264 51.168 43.4944 49.922 43.4944 48.046V44.294H45.2024ZM54.1664 49.516L54.3484 51.014C54.0964 51.098 53.7744 51.154 53.5224 51.154C52.5564 51.154 51.5764 50.538 51.5764 48.83V41.368H53.2844V48.872C53.2844 49.39 53.5784 49.586 53.8864 49.586C53.9704 49.586 54.0824 49.558 54.1664 49.516ZM55.0877 45.806V44.294H56.2637V42.558H57.9857V44.294H59.7917V45.806H57.9997V48.662C57.9997 49.292 58.2517 49.586 58.7557 49.586C59.0777 49.586 59.3857 49.446 59.5537 49.25L60.3097 50.524C59.9457 50.888 59.3157 51.182 58.4897 51.182C57.1317 51.182 56.2637 50.342 56.2637 48.704V45.806H55.0877ZM68.6977 41.844C71.2597 41.844 73.3457 43.944 73.3457 46.534C73.3457 49.096 71.2597 51.182 68.6977 51.182C66.1357 51.182 64.0497 49.082 64.0497 46.52C64.0497 43.93 66.1357 41.844 68.6977 41.844ZM68.6977 49.446C70.2377 49.446 71.4837 48.13 71.4837 46.534C71.4837 44.91 70.2377 43.58 68.6977 43.58C67.1577 43.58 65.9257 44.896 65.9257 46.52C65.9257 48.13 67.1577 49.446 68.6977 49.446ZM76.5677 53.744H74.8597V44.294H76.5677V45.246C77.0157 44.56 77.7157 44.112 78.6257 44.112C80.3897 44.112 81.8457 45.554 81.8457 47.654C81.8457 49.67 80.4877 51.182 78.6257 51.182C77.7157 51.182 77.0157 50.776 76.5677 50.104V53.744ZM78.3597 49.586C79.3817 49.586 80.1377 48.732 80.1377 47.654C80.1377 46.576 79.3817 45.708 78.3597 45.708C77.3237 45.708 76.5677 46.576 76.5677 47.654C76.5677 48.732 77.3237 49.586 78.3597 49.586ZM82.6092 45.806V44.294H83.7852V42.558H85.5072V44.294H87.3132V45.806H85.5212V48.662C85.5212 49.292 85.7732 49.586 86.2772 49.586C86.5992 49.586 86.9072 49.446 87.0752 49.25L87.8312 50.524C87.4672 50.888 86.8372 51.182 86.0112 51.182C84.6532 51.182 83.7852 50.342 83.7852 48.704V45.806H82.6092ZM89.823 43.398C89.263 43.398 88.829 42.95 88.829 42.39C88.829 41.844 89.263 41.396 89.823 41.396C90.369 41.396 90.831 41.844 90.831 42.39C90.831 42.95 90.369 43.398 89.823 43.398ZM90.677 51H88.969V44.294H90.677V51ZM95.6441 51.182C93.6981 51.182 92.1581 49.6 92.1581 47.64C92.1581 45.694 93.6981 44.112 95.6441 44.112C97.5901 44.112 99.1301 45.694 99.1301 47.64C99.1301 49.6 97.5901 51.182 95.6441 51.182ZM95.6441 49.586C96.6801 49.586 97.4221 48.718 97.4221 47.64C97.4221 46.562 96.6801 45.708 95.6441 45.708C94.6081 45.708 93.8661 46.562 93.8661 47.64C93.8661 48.718 94.6081 49.586 95.6441 49.586ZM100.603 51V44.294H102.311V45.246C102.661 44.532 103.333 44.112 104.215 44.112C105.755 44.112 106.749 45.19 106.749 46.94V51H105.041V47.192C105.041 46.282 104.523 45.708 103.683 45.708C102.843 45.708 102.311 46.282 102.311 47.192V51H100.603Z" fill="black"/>
<path d="M214 50L209 44.9524L210 44L214 48.2857L218 44L219 44.9524L214 50Z" fill="black"/>
</svg>
