<svg width="40" height="40" viewBox="0 0 40 40" fill="none" xmlns="http://www.w3.org/2000/svg">
<path d="M34.1422 5.85784C26.3318 -1.95258 13.6685 -1.95263 5.85792 5.8578C-1.95258 13.6681 -1.95265 26.3314 5.85778 34.1418C13.6682 41.9523 26.3315 41.9523 34.1421 34.1418C41.9526 26.3314 41.9526 13.6683 34.1422 5.85784ZM16.5643 30.4801C12.7216 26.6374 12.7218 20.4071 16.5645 16.5644C20.4073 12.7216 26.6376 12.7216 30.4804 16.5644C34.3231 20.4071 34.3231 26.6374 30.4802 30.4801C26.6375 34.3228 20.4071 34.3228 16.5643 30.4801ZM28.9704 28.9701L16.3113 27.0004L27.0006 16.3114L28.9704 28.9701Z" fill="url(#paint0_linear_6447_16062)"/>
<defs>
<linearGradient id="paint0_linear_6447_16062" x1="5.93551" y1="5.93535" x2="32.8798" y2="32.8797" gradientUnits="userSpaceOnUse">
<stop stop-color="#FF45ED"/>
<stop offset="0.55054" stop-color="#AF1DF5"/>
</linearGradient>
</defs>
</svg>
