<svg width="648" height="140" viewBox="0 0 648 140" fill="none" xmlns="http://www.w3.org/2000/svg">
<g clip-path="url(#clip0_6441_15627)">
<rect width="648" height="140" rx="8" fill="#1E212C"/>
<path d="M48.589 -29.4352C48.589 -29.4352 33.1611 -40.5562 51.6746 -55.4055L94.8084 -93.9752C94.8084 -93.9752 107.151 -106.96 120.2 -95.6466L518.24 205.711V350.219C518.24 350.219 518.047 372.911 488.927 370.404L48.589 -29.4352Z" fill="#2489CA"/>
<path d="M151.172 63.7188L48.5761 156.993C48.5761 156.993 38.0337 164.836 48.5761 178.849L96.2097 222.176C96.2097 222.176 107.524 234.325 124.237 220.505L233.004 138.03L151.172 63.7188Z" fill="#1070B3"/>
<path d="M331.32 64.4767L519.476 -79.1954L518.254 -222.932C518.254 -222.932 510.219 -254.302 483.413 -237.974L233.031 -10.0914L331.32 64.4767Z" fill="#0877B9"/>
<path d="M488.95 370.569C499.878 381.754 513.121 378.09 513.121 378.09L659.75 305.836C678.52 293.044 675.885 277.166 675.885 277.166V-154.301C675.885 -173.264 656.471 -179.821 656.471 -179.821L529.384 -241.082C501.614 -258.246 483.422 -237.997 483.422 -237.997C483.422 -237.997 506.821 -254.839 518.263 -222.955V347.556C518.263 351.477 517.427 355.334 515.756 358.805C512.413 365.555 505.149 371.854 487.729 369.219L488.95 370.569Z" fill="#3C99D4"/>
</g>
<defs>
<clipPath id="clip0_6441_15627">
<rect width="648" height="140" rx="8" fill="white"/>
</clipPath>
</defs>
</svg>
