<svg width="200" height="124" viewBox="0 0 200 124" fill="none" xmlns="http://www.w3.org/2000/svg">
<g filter="url(#filter0_dd_6121_32151)">
<g clip-path="url(#clip0_6121_32151)">
<rect x="24" y="52.5" width="40" height="19" rx="9.5" fill="#2861BB"/>
<g filter="url(#filter1_dd_6121_32151)">
<rect x="47" y="54.5" width="15" height="15" rx="7.5" fill="white"/>
</g>
</g>
<rect x="24" y="52.5" width="40" height="19" rx="9.5" stroke="#E1E1E2"/>
</g>
<path d="M78.6719 59.4929C78.6188 59.0223 78.4001 58.6577 78.0156 58.3991C77.6312 58.1373 77.1473 58.0064 76.5639 58.0064C76.1463 58.0064 75.785 58.0727 75.4801 58.2053C75.1752 58.3345 74.9382 58.5135 74.7692 58.7422C74.6035 58.9676 74.5206 59.2244 74.5206 59.5128C74.5206 59.7547 74.5769 59.9635 74.6896 60.1392C74.8056 60.3149 74.9564 60.4624 75.142 60.5817C75.331 60.6977 75.5331 60.7955 75.7486 60.875C75.964 60.9512 76.1712 61.0142 76.37 61.0639L77.3643 61.3224C77.6892 61.402 78.0223 61.5097 78.3636 61.6456C78.705 61.7815 79.0215 61.9605 79.3132 62.1825C79.6049 62.4046 79.8402 62.6797 80.0192 63.0078C80.2015 63.3359 80.2926 63.7287 80.2926 64.1861C80.2926 64.7628 80.1435 65.2749 79.8452 65.7223C79.5502 66.1697 79.121 66.5227 78.5575 66.7812C77.9974 67.0398 77.3196 67.169 76.5241 67.169C75.7618 67.169 75.1023 67.0481 74.5455 66.8061C73.9886 66.5642 73.5528 66.2211 73.2379 65.777C72.9231 65.3295 72.7491 64.7992 72.7159 64.1861H74.2571C74.2869 64.554 74.4063 64.8606 74.6151 65.1058C74.8272 65.3478 75.0973 65.5284 75.4254 65.6477C75.7569 65.7637 76.1198 65.8217 76.5142 65.8217C76.9484 65.8217 77.3345 65.7538 77.6726 65.6179C78.014 65.4787 78.2824 65.2865 78.478 65.0412C78.6735 64.7926 78.7713 64.5026 78.7713 64.1712C78.7713 63.8696 78.6851 63.6226 78.5128 63.4304C78.3438 63.2382 78.1134 63.0791 77.8217 62.9531C77.5334 62.8272 77.2069 62.7161 76.8423 62.62L75.6392 62.2919C74.8239 62.0698 74.1776 61.7434 73.7003 61.3125C73.2263 60.8816 72.9893 60.3116 72.9893 59.6023C72.9893 59.0156 73.1484 58.5036 73.4666 58.0661C73.7848 57.6286 74.2157 57.2888 74.7592 57.0469C75.3028 56.8016 75.916 56.679 76.5987 56.679C77.2881 56.679 77.8963 56.8 78.4233 57.0419C78.9536 57.2839 79.3712 57.617 79.6761 58.0412C79.9811 58.4621 80.1402 58.946 80.1534 59.4929H78.6719ZM83.6646 67L81.4174 59.3636H82.9537L84.4501 64.9716H84.5247L86.0261 59.3636H87.5623L89.0538 64.9467H89.1284L90.6149 59.3636H92.1511L89.9089 67H88.3926L86.8414 61.4865H86.7271L85.176 67H83.6646ZM93.5618 67V59.3636H95.0483V67H93.5618ZM94.3125 58.1854C94.054 58.1854 93.8319 58.0992 93.6463 57.9268C93.464 57.7512 93.3729 57.5424 93.3729 57.3004C93.3729 57.0552 93.464 56.8464 93.6463 56.674C93.8319 56.4983 94.054 56.4105 94.3125 56.4105C94.571 56.4105 94.7914 56.4983 94.9737 56.674C95.1593 56.8464 95.2521 57.0552 95.2521 57.3004C95.2521 57.5424 95.1593 57.7512 94.9737 57.9268C94.7914 58.0992 94.571 58.1854 94.3125 58.1854ZM100.613 59.3636V60.5568H96.4416V59.3636H100.613ZM97.5602 57.5341H99.0467V64.7578C99.0467 65.0462 99.0898 65.2633 99.176 65.4091C99.2621 65.5516 99.3732 65.6494 99.5091 65.7024C99.6483 65.7521 99.7991 65.777 99.9615 65.777C100.081 65.777 100.185 65.7687 100.275 65.7521C100.364 65.7356 100.434 65.7223 100.483 65.7124L100.752 66.9403C100.666 66.9735 100.543 67.0066 100.384 67.0398C100.225 67.0762 100.026 67.0961 99.7875 67.0994C99.3964 67.1061 99.0318 67.0365 98.6937 66.8906C98.3556 66.7448 98.0822 66.5194 97.8734 66.2145C97.6646 65.9096 97.5602 65.5268 97.5602 65.0661V57.5341ZM105.392 67.1541C104.653 67.1541 104.016 66.9867 103.483 66.652C102.952 66.3139 102.545 65.8482 102.26 65.255C101.975 64.6617 101.832 63.9822 101.832 63.2166C101.832 62.4411 101.978 61.7566 102.27 61.1634C102.561 60.5668 102.972 60.1011 103.502 59.7663C104.033 59.4316 104.658 59.2642 105.377 59.2642C105.957 59.2642 106.474 59.3719 106.928 59.5874C107.382 59.7995 107.748 60.0978 108.027 60.4822C108.308 60.8667 108.476 61.3158 108.529 61.8295H107.082C107.002 61.4716 106.82 61.1634 106.535 60.9048C106.253 60.6463 105.876 60.517 105.402 60.517C104.987 60.517 104.624 60.6264 104.313 60.8452C104.005 61.0606 103.764 61.3688 103.592 61.7699C103.42 62.1676 103.333 62.6383 103.333 63.1818C103.333 63.7386 103.418 64.2192 103.587 64.6236C103.756 65.0279 103.995 65.3411 104.303 65.5632C104.614 65.7853 104.981 65.8963 105.402 65.8963C105.683 65.8963 105.939 65.8449 106.167 65.7422C106.399 65.6361 106.593 65.4853 106.749 65.2898C106.908 65.0942 107.019 64.8589 107.082 64.5838H108.529C108.476 65.0777 108.315 65.5185 108.047 65.9062C107.778 66.294 107.418 66.599 106.968 66.821C106.52 67.0431 105.995 67.1541 105.392 67.1541ZM111.605 62.4659V67H110.118V56.8182H111.585V60.6065H111.68C111.858 60.1955 112.132 59.8691 112.5 59.6271C112.868 59.3852 113.348 59.2642 113.942 59.2642C114.465 59.2642 114.923 59.3719 115.314 59.5874C115.708 59.8028 116.013 60.1243 116.229 60.5518C116.447 60.9761 116.557 61.5064 116.557 62.1428V67H115.07V62.3217C115.07 61.7616 114.926 61.3274 114.638 61.0192C114.349 60.7076 113.948 60.5518 113.434 60.5518C113.083 60.5518 112.768 60.6264 112.49 60.7756C112.215 60.9247 111.998 61.1435 111.839 61.4318C111.683 61.7169 111.605 62.0616 111.605 62.4659ZM126.123 56.3409L122.842 68.5312H121.515L124.796 56.3409H126.123ZM130.708 58.1406V56.8182H138.588V58.1406H135.411V67H133.88V58.1406H130.708ZM142.319 67.1541C141.604 67.1541 140.979 66.9901 140.445 66.6619C139.912 66.3338 139.497 65.8748 139.202 65.2848C138.907 64.6948 138.76 64.0054 138.76 63.2166C138.76 62.4245 138.907 61.7318 139.202 61.1385C139.497 60.5452 139.912 60.0845 140.445 59.7564C140.979 59.4283 141.604 59.2642 142.319 59.2642C143.035 59.2642 143.66 59.4283 144.194 59.7564C144.727 60.0845 145.142 60.5452 145.437 61.1385C145.732 61.7318 145.879 62.4245 145.879 63.2166C145.879 64.0054 145.732 64.6948 145.437 65.2848C145.142 65.8748 144.727 66.3338 144.194 66.6619C143.66 66.9901 143.035 67.1541 142.319 67.1541ZM142.324 65.9062C142.788 65.9062 143.173 65.7836 143.478 65.5384C143.783 65.2931 144.008 64.9666 144.154 64.5589C144.303 64.1513 144.378 63.7022 144.378 63.2116C144.378 62.7244 144.303 62.277 144.154 61.8693C144.008 61.4583 143.783 61.1286 143.478 60.88C143.173 60.6314 142.788 60.5071 142.324 60.5071C141.857 60.5071 141.469 60.6314 141.161 60.88C140.856 61.1286 140.629 61.4583 140.48 61.8693C140.334 62.277 140.261 62.7244 140.261 63.2116C140.261 63.7022 140.334 64.1513 140.48 64.5589C140.629 64.9666 140.856 65.2931 141.161 65.5384C141.469 65.7836 141.857 65.9062 142.324 65.9062ZM150.74 70.0227C150.134 70.0227 149.612 69.9432 149.174 69.7841C148.74 69.625 148.385 69.4145 148.11 69.1527C147.835 68.8909 147.629 68.6042 147.494 68.2926L148.771 67.7656C148.861 67.9115 148.98 68.0656 149.129 68.228C149.282 68.3937 149.487 68.5346 149.746 68.6506C150.008 68.7666 150.344 68.8246 150.755 68.8246C151.318 68.8246 151.784 68.687 152.152 68.4119C152.52 68.1402 152.704 67.706 152.704 67.1094V65.608H152.609C152.52 65.7704 152.391 65.951 152.222 66.1499C152.056 66.3487 151.827 66.5211 151.536 66.6669C151.244 66.8127 150.864 66.8857 150.397 66.8857C149.794 66.8857 149.25 66.7448 148.766 66.4631C148.286 66.178 147.905 65.7588 147.623 65.2053C147.344 64.6484 147.205 63.964 147.205 63.152C147.205 62.34 147.343 61.6439 147.618 61.0639C147.896 60.4839 148.277 60.0398 148.761 59.7315C149.245 59.42 149.794 59.2642 150.407 59.2642C150.881 59.2642 151.264 59.3438 151.555 59.5028C151.847 59.6586 152.074 59.8409 152.237 60.0497C152.402 60.2585 152.53 60.4425 152.619 60.6016H152.729V59.3636H154.185V67.169C154.185 67.8253 154.033 68.3639 153.728 68.7848C153.423 69.2057 153.01 69.5173 152.49 69.7195C151.973 69.9216 151.39 70.0227 150.74 70.0227ZM150.725 65.6527C151.153 65.6527 151.514 65.5533 151.809 65.3544C152.107 65.1522 152.333 64.8639 152.485 64.4893C152.641 64.1115 152.719 63.6591 152.719 63.1321C152.719 62.6184 152.643 62.166 152.49 61.7749C152.338 61.3838 152.114 61.0788 151.819 60.8601C151.524 60.638 151.159 60.527 150.725 60.527C150.278 60.527 149.905 60.643 149.607 60.875C149.308 61.1037 149.083 61.4152 148.93 61.8097C148.781 62.2041 148.707 62.6449 148.707 63.1321C148.707 63.6326 148.783 64.0717 148.935 64.4496C149.088 64.8274 149.313 65.1224 149.612 65.3345C149.913 65.5466 150.284 65.6527 150.725 65.6527ZM159.381 70.0227C158.774 70.0227 158.252 69.9432 157.815 69.7841C157.38 69.625 157.026 69.4145 156.751 69.1527C156.476 68.8909 156.27 68.6042 156.134 68.2926L157.412 67.7656C157.501 67.9115 157.621 68.0656 157.77 68.228C157.922 68.3937 158.128 68.5346 158.386 68.6506C158.648 68.7666 158.985 68.8246 159.396 68.8246C159.959 68.8246 160.425 68.687 160.793 68.4119C161.161 68.1402 161.344 67.706 161.344 67.1094V65.608H161.25C161.161 65.7704 161.031 65.951 160.862 66.1499C160.696 66.3487 160.468 66.5211 160.176 66.6669C159.884 66.8127 159.505 66.8857 159.038 66.8857C158.434 66.8857 157.891 66.7448 157.407 66.4631C156.926 66.178 156.545 65.7588 156.263 65.2053C155.985 64.6484 155.846 63.964 155.846 63.152C155.846 62.34 155.983 61.6439 156.259 61.0639C156.537 60.4839 156.918 60.0398 157.402 59.7315C157.886 59.42 158.434 59.2642 159.048 59.2642C159.522 59.2642 159.904 59.3438 160.196 59.5028C160.488 59.6586 160.715 59.8409 160.877 60.0497C161.043 60.2585 161.17 60.4425 161.26 60.6016H161.369V59.3636H162.826V67.169C162.826 67.8253 162.674 68.3639 162.369 68.7848C162.064 69.2057 161.651 69.5173 161.131 69.7195C160.614 69.9216 160.03 70.0227 159.381 70.0227ZM159.366 65.6527C159.793 65.6527 160.155 65.5533 160.45 65.3544C160.748 65.1522 160.973 64.8639 161.126 64.4893C161.281 64.1115 161.359 63.6591 161.359 63.1321C161.359 62.6184 161.283 62.166 161.131 61.7749C160.978 61.3838 160.754 61.0788 160.46 60.8601C160.165 60.638 159.8 60.527 159.366 60.527C158.918 60.527 158.545 60.643 158.247 60.875C157.949 61.1037 157.723 61.4152 157.571 61.8097C157.422 62.2041 157.347 62.6449 157.347 63.1321C157.347 63.6326 157.424 64.0717 157.576 64.4496C157.728 64.8274 157.954 65.1224 158.252 65.3345C158.554 65.5466 158.925 65.6527 159.366 65.6527ZM166.306 56.8182V67H164.82V56.8182H166.306ZM171.597 67.1541C170.845 67.1541 170.197 66.9934 169.653 66.6719C169.113 66.3471 168.695 65.8913 168.4 65.3047C168.109 64.7147 167.963 64.0237 167.963 63.2315C167.963 62.4493 168.109 61.7599 168.4 61.1634C168.695 60.5668 169.106 60.1011 169.633 59.7663C170.164 59.4316 170.783 59.2642 171.493 59.2642C171.924 59.2642 172.341 59.3355 172.746 59.478C173.15 59.6205 173.513 59.8442 173.834 60.1491C174.156 60.4541 174.409 60.8501 174.595 61.3374C174.781 61.8213 174.873 62.4096 174.873 63.1023V63.6293H168.803V62.5156H173.417C173.417 62.1245 173.337 61.7782 173.178 61.4766C173.019 61.1716 172.795 60.9313 172.507 60.7557C172.222 60.58 171.887 60.4922 171.503 60.4922C171.085 60.4922 170.72 60.5949 170.409 60.8004C170.101 61.0026 169.862 61.2678 169.693 61.5959C169.527 61.9207 169.444 62.2737 169.444 62.6548V63.5249C169.444 64.0353 169.534 64.4695 169.713 64.8274C169.895 65.1854 170.149 65.4588 170.474 65.6477C170.798 65.8333 171.178 65.9261 171.612 65.9261C171.894 65.9261 172.151 65.8864 172.383 65.8068C172.615 65.724 172.815 65.6013 172.984 65.4389C173.153 65.2765 173.282 65.076 173.372 64.8374L174.779 65.0909C174.666 65.5052 174.464 65.8681 174.172 66.1797C173.884 66.4879 173.521 66.7282 173.084 66.9006C172.649 67.0696 172.154 67.1541 171.597 67.1541Z" fill="#1A1A1A"/>
<defs>
<filter id="filter0_dd_6121_32151" x="21" y="50.5" width="46" height="25" filterUnits="userSpaceOnUse" color-interpolation-filters="sRGB">
<feFlood flood-opacity="0" result="BackgroundImageFix"/>
<feColorMatrix in="SourceAlpha" type="matrix" values="0 0 0 0 0 0 0 0 0 0 0 0 0 0 0 0 0 0 127 0" result="hardAlpha"/>
<feOffset dy="1"/>
<feGaussianBlur stdDeviation="1.5"/>
<feColorMatrix type="matrix" values="0 0 0 0 0.101961 0 0 0 0 0.101961 0 0 0 0 0.101961 0 0 0 0.08 0"/>
<feBlend mode="normal" in2="BackgroundImageFix" result="effect1_dropShadow_6121_32151"/>
<feColorMatrix in="SourceAlpha" type="matrix" values="0 0 0 0 0 0 0 0 0 0 0 0 0 0 0 0 0 0 127 0" result="hardAlpha"/>
<feOffset dy="0.5"/>
<feColorMatrix type="matrix" values="0 0 0 0 0.101961 0 0 0 0 0.101961 0 0 0 0 0.101961 0 0 0 0.08 0"/>
<feBlend mode="normal" in2="effect1_dropShadow_6121_32151" result="effect2_dropShadow_6121_32151"/>
<feBlend mode="normal" in="SourceGraphic" in2="effect2_dropShadow_6121_32151" result="shape"/>
</filter>
<filter id="filter1_dd_6121_32151" x="44" y="53.5" width="21" height="21" filterUnits="userSpaceOnUse" color-interpolation-filters="sRGB">
<feFlood flood-opacity="0" result="BackgroundImageFix"/>
<feColorMatrix in="SourceAlpha" type="matrix" values="0 0 0 0 0 0 0 0 0 0 0 0 0 0 0 0 0 0 127 0" result="hardAlpha"/>
<feMorphology radius="1" operator="erode" in="SourceAlpha" result="effect1_dropShadow_6121_32151"/>
<feOffset dy="2"/>
<feGaussianBlur stdDeviation="2"/>
<feColorMatrix type="matrix" values="0 0 0 0 0.101961 0 0 0 0 0.101961 0 0 0 0 0.101961 0 0 0 0.08 0"/>
<feBlend mode="normal" in2="BackgroundImageFix" result="effect1_dropShadow_6121_32151"/>
<feColorMatrix in="SourceAlpha" type="matrix" values="0 0 0 0 0 0 0 0 0 0 0 0 0 0 0 0 0 0 127 0" result="hardAlpha"/>
<feOffset dy="1"/>
<feComposite in2="hardAlpha" operator="out"/>
<feColorMatrix type="matrix" values="0 0 0 0 0.101961 0 0 0 0 0.101961 0 0 0 0 0.101961 0 0 0 0.08 0"/>
<feBlend mode="normal" in2="effect1_dropShadow_6121_32151" result="effect2_dropShadow_6121_32151"/>
<feBlend mode="normal" in="SourceGraphic" in2="effect2_dropShadow_6121_32151" result="shape"/>
</filter>
<clipPath id="clip0_6121_32151">
<rect x="24" y="52.5" width="40" height="19" rx="9.5" fill="white"/>
</clipPath>
</defs>
</svg>
