<svg width="200" height="124" viewBox="0 0 200 124" fill="none" xmlns="http://www.w3.org/2000/svg">
<path d="M25 62L30.0476 57L31 58L26.7143 62L31 66L30.0476 67L25 62Z" fill="black" fill-opacity="0.5"/>
<rect x="42" y="44" width="36" height="36" rx="8" fill="#2861BB"/>
<path d="M61.4425 57.2727V66H59.8615V58.8111H59.8104L57.7692 60.1151V58.6662L59.9382 57.2727H61.4425Z" fill="white"/>
<path d="M97.049 66V64.858L100.079 61.8878C100.369 61.5952 100.61 61.3352 100.803 61.108C100.996 60.8807 101.141 60.6605 101.238 60.4474C101.335 60.2344 101.383 60.0071 101.383 59.7656C101.383 59.4901 101.32 59.2543 101.195 59.0582C101.07 58.8594 100.898 58.706 100.68 58.598C100.461 58.4901 100.212 58.4361 99.9339 58.4361C99.647 58.4361 99.3956 58.4957 99.1797 58.6151C98.9638 58.7315 98.7962 58.8977 98.6768 59.1136C98.5604 59.3295 98.5021 59.5866 98.5021 59.8849H96.9979C96.9979 59.331 97.1243 58.8494 97.3771 58.4403C97.63 58.0312 97.978 57.7145 98.4212 57.4901C98.8672 57.2656 99.3786 57.1534 99.9553 57.1534C100.54 57.1534 101.055 57.2628 101.498 57.4815C101.941 57.7003 102.285 58 102.529 58.3807C102.776 58.7614 102.9 59.196 102.9 59.6847C102.9 60.0114 102.837 60.3324 102.712 60.6477C102.587 60.9631 102.367 61.3125 102.052 61.696C101.739 62.0795 101.3 62.544 100.735 63.0895L99.2308 64.6193V64.679H103.032V66H97.049Z" fill="black"/>
<path d="M139.999 66.1193C139.386 66.1193 138.84 66.0142 138.363 65.804C137.889 65.5937 137.514 65.3011 137.238 64.9261C136.963 64.5511 136.816 64.1179 136.799 63.6264H138.401C138.416 63.8622 138.494 64.0682 138.636 64.2443C138.778 64.4176 138.967 64.5526 139.203 64.6491C139.438 64.7457 139.703 64.794 139.995 64.794C140.308 64.794 140.585 64.7401 140.826 64.6321C141.068 64.5213 141.257 64.3679 141.393 64.1719C141.529 63.9759 141.596 63.75 141.593 63.4943C141.596 63.2301 141.528 62.9972 141.389 62.7955C141.249 62.5937 141.048 62.4361 140.784 62.3224C140.522 62.2088 140.207 62.152 139.838 62.152H139.066V60.9332H139.838C140.142 60.9332 140.407 60.8807 140.634 60.7756C140.865 60.6705 141.045 60.5227 141.176 60.3324C141.306 60.1392 141.37 59.9162 141.367 59.6634C141.37 59.4162 141.315 59.2017 141.201 59.0199C141.09 58.8352 140.933 58.6918 140.728 58.5895C140.526 58.4872 140.289 58.4361 140.017 58.4361C139.749 58.4361 139.502 58.4844 139.275 58.581C139.048 58.6776 138.865 58.8153 138.725 58.9943C138.586 59.1705 138.512 59.3807 138.504 59.625H136.982C136.994 59.1364 137.134 58.7074 137.404 58.3381C137.677 57.9659 138.041 57.6761 138.495 57.4688C138.95 57.2585 139.46 57.1534 140.025 57.1534C140.607 57.1534 141.113 57.2628 141.542 57.4815C141.974 57.6974 142.308 57.9886 142.544 58.3551C142.779 58.7216 142.897 59.1264 142.897 59.5696C142.9 60.0611 142.755 60.473 142.463 60.8054C142.173 61.1378 141.792 61.3551 141.32 61.4574V61.5256C141.934 61.6108 142.404 61.8381 142.731 62.2074C143.061 62.5739 143.224 63.0298 143.221 63.5753C143.221 64.0639 143.082 64.5014 142.803 64.8878C142.528 65.2713 142.147 65.5724 141.661 65.7912C141.178 66.0099 140.624 66.1193 139.999 66.1193Z" fill="black"/>
<path d="M175 62L169.952 67L169 66L173.286 62L169 58L169.952 57L175 62Z" fill="#2861BB"/>
</svg>
