<svg width="104" height="44" viewBox="0 0 104 44" fill="none" xmlns="http://www.w3.org/2000/svg">
<g clip-path="url(#clip0_6330_34320)">
<path d="M0 22C0 9.84974 9.84974 0 22 0H82C94.1503 0 104 9.84974 104 22C104 34.1503 94.1503 44 82 44H22C9.84973 44 0 34.1503 0 22Z" fill="#2861BB"/>
<path d="M25.457 26.9999V16.7599H28.881C32.257 16.7599 34.673 18.8879 34.673 21.8799C34.673 24.8719 32.289 26.9999 28.945 26.9999H25.457ZM28.865 18.6319H27.521V25.1119H28.881C31.073 25.1119 32.529 23.8319 32.529 21.8799C32.529 19.9119 31.073 18.6319 28.865 18.6319ZM40.0242 27.2079C37.6402 27.2079 35.9122 25.3999 35.9122 23.1599C35.9122 20.9359 37.5602 19.1279 39.7682 19.1279C41.9602 19.1279 43.6402 20.8079 43.6402 23.0159C43.6402 23.2719 43.6242 23.5759 43.5922 23.7039H37.9122C38.1202 24.7599 38.9202 25.4959 40.0882 25.4959C40.8722 25.4959 41.5282 25.1599 41.9762 24.6959L42.9842 26.0399C42.3922 26.6959 41.3042 27.2079 40.0242 27.2079ZM39.8002 20.7759C38.8722 20.7759 38.2002 21.4159 37.9602 22.3439H41.6242C41.3842 21.3199 40.6962 20.7759 39.8002 20.7759ZM44.5171 21.0639V19.3359H45.7651V18.8879C45.7651 16.9519 46.8691 15.7839 48.5811 15.7839C49.6211 15.7839 50.2931 16.0719 50.7891 16.5679L49.8291 18.0399C49.6051 17.7999 49.1891 17.6079 48.7731 17.6079C48.1331 17.6079 47.7331 18.0399 47.7331 18.8719V19.3359H49.7171V21.0639H47.7331V26.9999H45.7651V21.0639H44.5171ZM53.9043 27.2079C51.8883 27.2079 50.2403 25.5599 50.2403 23.1599C50.2403 20.8559 51.7923 19.1279 53.9043 19.1279C54.9443 19.1279 55.7443 19.5919 56.2563 20.3439V19.3359H58.2083V26.9999H56.2563V25.9119C55.7443 26.6959 54.9443 27.2079 53.9043 27.2079ZM54.2243 25.3839C55.4083 25.3839 56.2563 24.3919 56.2563 23.1599C56.2563 21.9279 55.4083 20.9519 54.2243 20.9519C53.0403 20.9519 52.1923 21.9279 52.1923 23.1599C52.1923 24.3919 53.0403 25.3839 54.2243 25.3839ZM62.233 19.3359V23.4799C62.233 24.5999 62.873 25.3519 63.849 25.3519C64.825 25.3519 65.481 24.5999 65.481 23.4799V19.3359H67.449V23.6239C67.449 25.7679 66.009 27.1919 63.849 27.1919C61.689 27.1919 60.281 25.7679 60.281 23.6239V19.3359H62.233ZM72.4776 25.3039L72.6856 27.0159C72.3976 27.1119 72.0296 27.1759 71.7416 27.1759C70.6376 27.1759 69.5176 26.4719 69.5176 24.5199V15.9919H71.4696V24.5679C71.4696 25.1599 71.8056 25.3839 72.1576 25.3839C72.2536 25.3839 72.3816 25.3519 72.4776 25.3039ZM73.5305 21.0639V19.3359H74.8745V17.3519H76.8425V19.3359H78.9065V21.0639H76.8585V24.3279C76.8585 25.0479 77.1465 25.3839 77.7225 25.3839C78.0905 25.3839 78.4425 25.2239 78.6345 24.9999L79.4985 26.4559C79.0825 26.8719 78.3625 27.2079 77.4185 27.2079C75.8665 27.2079 74.8745 26.2479 74.8745 24.3759V21.0639H73.5305Z" fill="white"/>
</g>
<defs>
<clipPath id="clip0_6330_34320">
<rect width="104" height="44" fill="white"/>
</clipPath>
</defs>
</svg>
