<svg width="102" height="56" viewBox="0 0 102 56" fill="none" xmlns="http://www.w3.org/2000/svg">
<g clip-path="url(#clip0_6330_34326)">
<path d="M28 1H74C88.9117 1 101 13.0883 101 28C101 42.9117 88.9117 55 74 55H28C13.0883 55 1 42.9117 1 28C1 13.0883 13.0883 1 28 1Z" stroke="#1A3673" stroke-width="2"/>
<path d="M6 28C6 15.8497 15.8497 6 28 6H74C86.1503 6 96 15.8497 96 28C96 40.1503 86.1503 50 74 50H28C15.8497 50 6 40.1503 6 28Z" fill="#1A3673"/>
<path d="M31.6367 33V22.76H38.1327V24.632H33.6367V27.112H37.4927V29H33.6367V33H31.6367ZM42.7478 33.208C40.5238 33.208 38.7638 31.4 38.7638 29.16C38.7638 26.936 40.5238 25.128 42.7478 25.128C44.9718 25.128 46.7318 26.936 46.7318 29.16C46.7318 31.4 44.9718 33.208 42.7478 33.208ZM42.7478 31.384C43.9318 31.384 44.7798 30.392 44.7798 29.16C44.7798 27.928 43.9318 26.952 42.7478 26.952C41.5638 26.952 40.7158 27.928 40.7158 29.16C40.7158 30.392 41.5638 31.384 42.7478 31.384ZM53.824 27.656C53.328 27.192 52.768 26.952 52 26.952C50.72 26.952 49.872 27.928 49.872 29.16C49.872 30.392 50.736 31.384 52 31.384C52.768 31.384 53.392 31.112 53.888 30.632L54.88 32.072C54.272 32.744 53.152 33.208 51.952 33.208C49.664 33.208 47.92 31.4 47.92 29.16C47.92 26.936 49.68 25.128 51.92 25.128C53.216 25.128 54.256 25.56 54.944 26.264L53.824 27.656ZM58.0845 25.336V29.48C58.0845 30.6 58.7245 31.352 59.7005 31.352C60.6765 31.352 61.3325 30.6 61.3325 29.48V25.336H63.3005V29.624C63.3005 31.768 61.8605 33.192 59.7005 33.192C57.5405 33.192 56.1325 31.768 56.1325 29.624V25.336H58.0845ZM67.7212 33.208C66.4892 33.208 65.4812 32.888 64.7292 32.472L65.3532 30.968C66.2332 31.384 66.9692 31.608 67.8172 31.608C68.6812 31.608 69.0812 31.304 69.0812 30.856C69.0812 29.48 64.9532 30.296 64.9532 27.4C64.9532 26.248 65.9772 25.128 67.9452 25.128C69.0172 25.128 69.8332 25.352 70.8092 25.816L70.0892 27.272C69.5452 26.968 68.7292 26.728 68.1052 26.728C67.3692 26.728 66.9212 26.968 66.9212 27.384C66.9212 28.792 71.0172 27.912 71.0172 30.824C71.0172 32.152 69.8332 33.208 67.7212 33.208Z" fill="white"/>
</g>
<defs>
<clipPath id="clip0_6330_34326">
<rect width="102" height="56" fill="white"/>
</clipPath>
</defs>
</svg>
