<svg width="334" height="64" viewBox="0 0 334 64" fill="none" xmlns="http://www.w3.org/2000/svg">
<g clip-path="url(#clip0_6330_34110)">
<path d="M232 0H102C89.8497 0 80 9.84974 80 22C80 34.1503 89.8497 44 102 44H232C244.15 44 254 34.1503 254 22C254 9.84974 244.15 0 232 0Z" fill="#2861BB"/>
<path fill-rule="evenodd" clip-rule="evenodd" d="M107 15.5714V28.4286C107 29.8429 107.9 31 109 31H123C124.1 31 125 29.8429 125 28.4286V15.5714C125 14.1571 124.1 13 123 13H109C107.9 13 107 14.1571 107 15.5714Z" fill="white"/>
<path d="M137.23 26.9999V16.7599H141.358C143.278 16.7599 144.734 17.9279 144.734 19.5919C144.734 20.7919 143.902 21.4479 143.214 21.7359C144.222 22.0399 145.022 22.8399 145.022 24.1199C145.022 25.6559 143.822 26.9999 141.598 26.9999H137.23ZM141.166 18.5199H139.23V20.9839H141.166C142.046 20.9839 142.654 20.4719 142.654 19.7519C142.654 19.0319 142.03 18.5199 141.166 18.5199ZM141.39 22.6319H139.23V25.2239H141.39C142.286 25.2239 142.942 24.6799 142.942 23.9279C142.942 23.1759 142.286 22.6319 141.39 22.6319ZM148.459 19.3359V23.4799C148.459 24.5999 149.099 25.3519 150.075 25.3519C151.051 25.3519 151.707 24.5999 151.707 23.4799V19.3359H153.675V23.6239C153.675 25.7679 152.235 27.1919 150.075 27.1919C147.915 27.1919 146.507 25.7679 146.507 23.6239V19.3359H148.459ZM154.959 21.0639V19.3359H156.303V17.3519H158.271V19.3359H160.335V21.0639H158.287V24.3279C158.287 25.0479 158.575 25.3839 159.151 25.3839C159.519 25.3839 159.871 25.2239 160.063 24.9999L160.927 26.4559C160.511 26.8719 159.791 27.2079 158.847 27.2079C157.295 27.2079 156.303 26.2479 156.303 24.3759V21.0639H154.959ZM161.444 21.0639V19.3359H162.788V17.3519H164.756V19.3359H166.82V21.0639H164.772V24.3279C164.772 25.0479 165.06 25.3839 165.636 25.3839C166.004 25.3839 166.356 25.2239 166.548 24.9999L167.412 26.4559C166.996 26.8719 166.276 27.2079 165.332 27.2079C163.78 27.2079 162.788 26.2479 162.788 24.3759V21.0639H161.444ZM171.825 27.2079C169.601 27.2079 167.841 25.3999 167.841 23.1599C167.841 20.9359 169.601 19.1279 171.825 19.1279C174.049 19.1279 175.809 20.9359 175.809 23.1599C175.809 25.3999 174.049 27.2079 171.825 27.2079ZM171.825 25.3839C173.009 25.3839 173.857 24.3919 173.857 23.1599C173.857 21.9279 173.009 20.9519 171.825 20.9519C170.641 20.9519 169.793 21.9279 169.793 23.1599C169.793 24.3919 170.641 25.3839 171.825 25.3839ZM177.493 26.9999V19.3359H179.445V20.4239C179.845 19.6079 180.613 19.1279 181.621 19.1279C183.381 19.1279 184.517 20.3599 184.517 22.3599V26.9999H182.565V22.6479C182.565 21.6079 181.973 20.9519 181.013 20.9519C180.053 20.9519 179.445 21.6079 179.445 22.6479V26.9999H177.493ZM190.136 26.9999V16.7439H192.136V25.1119H197.144V26.9999H190.136ZM201.318 27.2079C199.302 27.2079 197.654 25.5599 197.654 23.1599C197.654 20.8559 199.206 19.1279 201.318 19.1279C202.358 19.1279 203.158 19.5919 203.67 20.3439V19.3359H205.622V26.9999H203.67V25.9119C203.158 26.6959 202.358 27.2079 201.318 27.2079ZM201.638 25.3839C202.822 25.3839 203.67 24.3919 203.67 23.1599C203.67 21.9279 202.822 20.9519 201.638 20.9519C200.454 20.9519 199.606 21.9279 199.606 23.1599C199.606 24.3919 200.454 25.3839 201.638 25.3839ZM212.094 19.1279C214.11 19.1279 215.774 20.7759 215.774 23.1759C215.774 25.4799 214.222 27.2079 212.094 27.2079C211.054 27.2079 210.254 26.7439 209.742 25.9759V26.9999H207.79V15.9919H209.742V20.4239C210.254 19.6399 211.054 19.1279 212.094 19.1279ZM211.79 20.9519C210.606 20.9519 209.742 21.9439 209.742 23.1759C209.742 24.4079 210.606 25.3839 211.79 25.3839C212.958 25.3839 213.822 24.4079 213.822 23.1759C213.822 21.9439 212.958 20.9519 211.79 20.9519ZM221.047 27.2079C218.663 27.2079 216.935 25.3999 216.935 23.1599C216.935 20.9359 218.583 19.1279 220.791 19.1279C222.983 19.1279 224.663 20.8079 224.663 23.0159C224.663 23.2719 224.647 23.5759 224.615 23.7039H218.935C219.143 24.7599 219.943 25.4959 221.111 25.4959C221.895 25.4959 222.551 25.1599 222.999 24.6959L224.007 26.0399C223.415 26.6959 222.327 27.2079 221.047 27.2079ZM220.823 20.7759C219.895 20.7759 219.223 21.4159 218.983 22.3439H222.647C222.407 21.3199 221.719 20.7759 220.823 20.7759ZM229.188 25.3039L229.396 27.0159C229.108 27.1119 228.74 27.1759 228.452 27.1759C227.348 27.1759 226.228 26.4719 226.228 24.5199V15.9919H228.18V24.5679C228.18 25.1599 228.516 25.3839 228.868 25.3839C228.964 25.3839 229.092 25.3519 229.188 25.3039Z" fill="white"/>
<path d="M170 53V34H168V53H170Z" fill="#F7D055"/>
<path d="M24 22C24 15.3726 18.6274 10 12 10C5.37258 10 0 15.3726 0 22C0 28.6274 5.37258 34 12 34C18.6274 34 24 28.6274 24 22Z" fill="#F7D055"/>
<path d="M13.684 16.8181V26.9999H11.8395V18.6128H11.7799L9.39844 20.1341V18.4438L11.929 16.8181H13.684Z" fill="black"/>
<path d="M292 52C292 45.3726 286.627 40 280 40C273.373 40 268 45.3726 268 52C268 58.6274 273.373 64 280 64C286.627 64 292 58.6274 292 52Z" fill="#F7D055"/>
<path d="M276.555 57V55.6676L280.09 52.2024C280.428 51.861 280.71 51.5578 280.935 51.2926C281.161 51.0275 281.33 50.7706 281.442 50.522C281.555 50.2734 281.611 50.0083 281.611 49.7266C281.611 49.4051 281.538 49.13 281.393 48.9013C281.247 48.6693 281.046 48.4903 280.791 48.3643C280.536 48.2384 280.246 48.1754 279.921 48.1754C279.586 48.1754 279.293 48.245 279.041 48.3842C278.789 48.5201 278.594 48.714 278.454 48.9659C278.318 49.2178 278.25 49.5178 278.25 49.8658H276.496C276.496 49.2195 276.643 48.6577 276.938 48.1804C277.233 47.7031 277.639 47.3336 278.156 47.0717C278.676 46.8099 279.273 46.679 279.946 46.679C280.629 46.679 281.228 46.8066 281.746 47.0618C282.263 47.317 282.664 47.6667 282.949 48.1108C283.237 48.5549 283.381 49.062 283.381 49.6321C283.381 50.0133 283.308 50.3878 283.162 50.7557C283.017 51.1236 282.76 51.5312 282.392 51.9787C282.027 52.4261 281.515 52.968 280.856 53.6044L279.101 55.3892V55.4588H283.535V57H276.555Z" fill="black"/>
<path d="M334 22C334 15.3726 328.627 10 322 10C315.373 10 310 15.3726 310 22C310 28.6274 315.373 34 322 34C328.627 34 334 28.6274 334 22Z" fill="#F7D055"/>
<path d="M321.999 27.1392C321.283 27.1392 320.647 27.0166 320.09 26.7713C319.537 26.526 319.099 26.1847 318.778 25.7472C318.456 25.3097 318.286 24.8042 318.266 24.2308H320.135C320.152 24.5059 320.243 24.7462 320.408 24.9517C320.574 25.1539 320.795 25.3113 321.07 25.424C321.345 25.5367 321.653 25.593 321.994 25.593C322.359 25.593 322.682 25.5301 322.964 25.4041C323.246 25.2749 323.466 25.0959 323.625 24.8672C323.784 24.6385 323.862 24.375 323.859 24.0767C323.862 23.7685 323.783 23.4967 323.62 23.2614C323.458 23.026 323.222 22.8421 322.914 22.7095C322.609 22.5769 322.241 22.5107 321.81 22.5107H320.911V21.0888H321.81C322.165 21.0888 322.475 21.0275 322.74 20.9048C323.009 20.7822 323.219 20.6098 323.372 20.3878C323.524 20.1624 323.599 19.9022 323.595 19.6072C323.599 19.3189 323.534 19.0687 323.401 18.8565C323.272 18.6411 323.088 18.4737 322.85 18.3544C322.614 18.2351 322.337 18.1754 322.019 18.1754C321.708 18.1754 321.419 18.2318 321.154 18.3445C320.889 18.4571 320.675 18.6179 320.513 18.8267C320.35 19.0322 320.264 19.2775 320.254 19.5625H318.479C318.493 18.9924 318.657 18.492 318.972 18.0611C319.29 17.6269 319.714 17.2888 320.244 17.0469C320.775 16.8016 321.37 16.679 322.029 16.679C322.709 16.679 323.299 16.8066 323.799 17.0618C324.303 17.3137 324.692 17.6534 324.967 18.081C325.243 18.5085 325.38 18.9808 325.38 19.4979C325.383 20.0713 325.214 20.5518 324.873 20.9396C324.535 21.3274 324.091 21.581 323.541 21.7003V21.7798C324.256 21.8793 324.805 22.1444 325.186 22.5753C325.571 23.0028 325.761 23.5348 325.758 24.1712C325.758 24.7412 325.595 25.2517 325.271 25.7024C324.949 26.1499 324.505 26.5012 323.938 26.7564C323.375 27.0116 322.729 27.1392 321.999 27.1392Z" fill="black"/>
<path d="M270 51H168V53H270V51Z" fill="#F7D055"/>
<path d="M104 21H24V23H104V21Z" fill="#F7D055"/>
<path d="M102 27C104.761 27 107 24.7614 107 22C107 19.2386 104.761 17 102 17C99.2386 17 97 19.2386 97 22C97 24.7614 99.2386 27 102 27Z" fill="#F7D055"/>
<path d="M256 27C258.761 27 261 24.7614 261 22C261 19.2386 258.761 17 256 17C253.239 17 251 19.2386 251 22C251 24.7614 253.239 27 256 27Z" fill="#F7D055"/>
<path d="M167 40C169.761 40 172 37.7614 172 35C172 32.2386 169.761 30 167 30C164.239 30 162 32.2386 162 35C162 37.7614 164.239 40 167 40Z" fill="#F7D055"/>
<path d="M314 21H254V23H314V21Z" fill="#F7D055"/>
</g>
<defs>
<clipPath id="clip0_6330_34110">
<rect width="334" height="64" fill="white"/>
</clipPath>
</defs>
</svg>
