<svg width="287" height="44" viewBox="0 0 287 44" fill="none" xmlns="http://www.w3.org/2000/svg">
<g clip-path="url(#clip0_6330_34345)">
<path d="M0 22C0 9.84974 9.84974 0 22 0H265C277.15 0 287 9.84974 287 22C287 34.1503 277.15 44 265 44H22C9.84973 44 0 34.1503 0 22Z" fill="#1B386F"/>
<path d="M125.457 26.9999V16.7439H129.121C131.601 16.7439 133.233 18.0879 133.233 20.1359C133.233 22.1999 131.585 23.5599 129.089 23.5599H127.457V26.9999H125.457ZM129.281 18.5199H127.457V21.7839H129.281C130.385 21.7839 131.121 21.1279 131.121 20.1359C131.121 19.1599 130.385 18.5199 129.281 18.5199ZM134.799 26.9999V19.3359H136.751V20.4719C137.119 19.6559 137.775 19.1279 138.639 19.1279C139.151 19.1279 139.567 19.2559 139.855 19.4959L139.055 21.3359C138.799 21.1439 138.415 21.0159 138.031 21.0159C137.263 21.0159 136.751 21.6719 136.751 22.7119V26.9999H134.799ZM144.165 27.2079C141.781 27.2079 140.053 25.3999 140.053 23.1599C140.053 20.9359 141.701 19.1279 143.909 19.1279C146.101 19.1279 147.781 20.8079 147.781 23.0159C147.781 23.2719 147.765 23.5759 147.733 23.7039H142.053C142.261 24.7599 143.061 25.4959 144.229 25.4959C145.013 25.4959 145.669 25.1599 146.117 24.6959L147.125 26.0399C146.533 26.6959 145.445 27.2079 144.165 27.2079ZM143.941 20.7759C143.013 20.7759 142.341 21.4159 142.101 22.3439H145.765C145.525 21.3199 144.837 20.7759 143.941 20.7759ZM151.651 27.2079C150.419 27.2079 149.411 26.8879 148.659 26.4719L149.283 24.9679C150.163 25.3839 150.899 25.6079 151.747 25.6079C152.611 25.6079 153.011 25.3039 153.011 24.8559C153.011 23.4799 148.883 24.2959 148.883 21.3999C148.883 20.2479 149.907 19.1279 151.875 19.1279C152.947 19.1279 153.763 19.3519 154.739 19.8159L154.019 21.2719C153.475 20.9679 152.659 20.7279 152.035 20.7279C151.299 20.7279 150.851 20.9679 150.851 21.3839C150.851 22.7919 154.947 21.9119 154.947 24.8239C154.947 26.1519 153.763 27.2079 151.651 27.2079ZM158.901 27.2079C157.669 27.2079 156.661 26.8879 155.909 26.4719L156.533 24.9679C157.413 25.3839 158.149 25.6079 158.997 25.6079C159.861 25.6079 160.261 25.3039 160.261 24.8559C160.261 23.4799 156.133 24.2959 156.133 21.3999C156.133 20.2479 157.157 19.1279 159.125 19.1279C160.197 19.1279 161.013 19.3519 161.989 19.8159L161.269 21.2719C160.725 20.9679 159.909 20.7279 159.285 20.7279C158.549 20.7279 158.101 20.9679 158.101 21.3839C158.101 22.7919 162.197 21.9119 162.197 24.8239C162.197 26.1519 161.013 27.2079 158.901 27.2079Z" fill="white"/>
</g>
<defs>
<clipPath id="clip0_6330_34345">
<rect width="287" height="44" fill="white"/>
</clipPath>
</defs>
</svg>
