<svg width="264" height="44" viewBox="0 0 264 44" fill="none" xmlns="http://www.w3.org/2000/svg">
<g clip-path="url(#clip0_6330_34194)">
<path d="M0 22C0 9.84974 9.84974 0 22 0H242C254.15 0 264 9.84974 264 22C264 34.1503 254.15 44 242 44H22C9.84973 44 0 34.1503 0 22Z" fill="#BF1722"/>
<path d="M109.004 26.9999V16.7599H112.428C115.804 16.7599 118.22 18.8879 118.22 21.8799C118.22 24.8719 115.836 26.9999 112.492 26.9999H109.004ZM112.412 18.6319H111.068V25.1119H112.428C114.62 25.1119 116.076 23.8319 116.076 21.8799C116.076 19.9119 114.62 18.6319 112.412 18.6319ZM123.571 27.2079C121.187 27.2079 119.459 25.3999 119.459 23.1599C119.459 20.9359 121.107 19.1279 123.315 19.1279C125.507 19.1279 127.187 20.8079 127.187 23.0159C127.187 23.2719 127.171 23.5759 127.139 23.7039H121.459C121.667 24.7599 122.467 25.4959 123.635 25.4959C124.419 25.4959 125.075 25.1599 125.523 24.6959L126.531 26.0399C125.939 26.6959 124.851 27.2079 123.571 27.2079ZM123.347 20.7759C122.419 20.7759 121.747 21.4159 121.507 22.3439H125.171C124.931 21.3199 124.243 20.7759 123.347 20.7759ZM131.712 25.3039L131.92 27.0159C131.632 27.1119 131.264 27.1759 130.976 27.1759C129.872 27.1759 128.752 26.4719 128.752 24.5199V15.9919H130.704V24.5679C130.704 25.1599 131.04 25.3839 131.392 25.3839C131.488 25.3839 131.616 25.3519 131.712 25.3039ZM137.165 27.2079C134.781 27.2079 133.053 25.3999 133.053 23.1599C133.053 20.9359 134.701 19.1279 136.909 19.1279C139.101 19.1279 140.781 20.8079 140.781 23.0159C140.781 23.2719 140.765 23.5759 140.733 23.7039H135.053C135.261 24.7599 136.061 25.4959 137.229 25.4959C138.013 25.4959 138.669 25.1599 139.117 24.6959L140.125 26.0399C139.533 26.6959 138.445 27.2079 137.165 27.2079ZM136.941 20.7759C136.013 20.7759 135.341 21.4159 135.101 22.3439H138.765C138.525 21.3199 137.837 20.7759 136.941 20.7759ZM141.562 21.0639V19.3359H142.906V17.3519H144.874V19.3359H146.938V21.0639H144.89V24.3279C144.89 25.0479 145.178 25.3839 145.754 25.3839C146.122 25.3839 146.474 25.2239 146.666 24.9999L147.53 26.4559C147.114 26.8719 146.394 27.2079 145.45 27.2079C143.898 27.2079 142.906 26.2479 142.906 24.3759V21.0639H141.562ZM152.071 27.2079C149.687 27.2079 147.959 25.3999 147.959 23.1599C147.959 20.9359 149.607 19.1279 151.815 19.1279C154.007 19.1279 155.687 20.8079 155.687 23.0159C155.687 23.2719 155.671 23.5759 155.639 23.7039H149.959C150.167 24.7599 150.967 25.4959 152.135 25.4959C152.919 25.4959 153.575 25.1599 154.023 24.6959L155.031 26.0399C154.439 26.6959 153.351 27.2079 152.071 27.2079ZM151.847 20.7759C150.919 20.7759 150.247 21.4159 150.007 22.3439H153.671C153.431 21.3199 152.743 20.7759 151.847 20.7759Z" fill="white"/>
</g>
<defs>
<clipPath id="clip0_6330_34194">
<rect width="264" height="44" fill="white"/>
</clipPath>
</defs>
</svg>
