<svg width="152" height="44" viewBox="0 0 152 44" fill="none" xmlns="http://www.w3.org/2000/svg">
<g clip-path="url(#clip0_6330_34127)">
<path d="M0 22C0 9.84974 9.84974 0 22 0H130C142.15 0 152 9.84974 152 22C152 34.1503 142.15 44 130 44H22C9.84973 44 0 34.1503 0 22Z" fill="#2861BB"/>
<path d="M52.2118 27.0159C51.7318 26.8879 51.1238 26.5839 50.3398 26.0719L51.2038 24.3919C52.0678 24.9359 53.3158 25.3199 54.3238 25.3199C55.3318 25.3199 56.0838 24.9519 56.0838 24.1359C56.0838 22.3119 50.6918 23.1759 50.6918 19.5439C50.6918 17.6399 52.4358 16.5199 54.5158 16.5199C55.8118 16.5199 57.0278 16.8719 57.9718 17.5919L56.9958 19.1759C56.3398 18.7439 55.3158 18.3919 54.4198 18.3919C53.4918 18.3919 52.8358 18.8239 52.8358 19.4959C52.8358 21.3679 58.2118 20.5359 58.2118 24.0239C58.2118 26.1359 56.3558 27.2079 54.1798 27.2079C53.3318 27.2079 52.6758 27.1439 52.2118 27.0159ZM61.6784 19.3359V23.4799C61.6784 24.5999 62.3184 25.3519 63.2944 25.3519C64.2704 25.3519 64.9264 24.5999 64.9264 23.4799V19.3359H66.8944V23.6239C66.8944 25.7679 65.4544 27.1919 63.2944 27.1919C61.1344 27.1919 59.7264 25.7679 59.7264 23.6239V19.3359H61.6784ZM73.267 19.1279C75.283 19.1279 76.947 20.7759 76.947 23.1759C76.947 25.4799 75.395 27.2079 73.267 27.2079C72.227 27.2079 71.427 26.7439 70.915 25.9759V26.9999H68.963V15.9919H70.915V20.4239C71.427 19.6399 72.227 19.1279 73.267 19.1279ZM72.963 20.9519C71.779 20.9519 70.915 21.9439 70.915 23.1759C70.915 24.4079 71.779 25.3839 72.963 25.3839C74.131 25.3839 74.995 24.4079 74.995 23.1759C74.995 21.9439 74.131 20.9519 72.963 20.9519ZM80.5556 26.9999H78.6036V19.3359H80.5556V20.5039C80.9556 19.6719 81.7076 19.1279 82.7156 19.1279C83.8836 19.1279 84.7796 19.7039 85.2276 20.7279C85.6276 19.8159 86.3636 19.1279 87.5796 19.1279C89.3556 19.1279 90.5236 20.3119 90.5236 22.3599V26.9999H88.5556V22.6479C88.5556 21.6079 87.9796 20.9519 87.0516 20.9519C86.1236 20.9519 85.5316 21.6079 85.5316 22.6479V26.9999H83.5796V22.6479C83.5796 21.6079 83.0036 20.9519 82.0756 20.9519C81.1476 20.9519 80.5556 21.6079 80.5556 22.6479V26.9999ZM93.5953 18.3119C92.9553 18.3119 92.4593 17.7999 92.4593 17.1599C92.4593 16.5359 92.9553 16.0239 93.5953 16.0239C94.2193 16.0239 94.7473 16.5359 94.7473 17.1599C94.7473 17.7999 94.2193 18.3119 93.5953 18.3119ZM94.5713 26.9999H92.6193V19.3359H94.5713V26.9999ZM95.9759 21.0639V19.3359H97.3199V17.3519H99.2879V19.3359H101.352V21.0639H99.3039V24.3279C99.3039 25.0479 99.5919 25.3839 100.168 25.3839C100.536 25.3839 100.888 25.2239 101.08 24.9999L101.944 26.4559C101.528 26.8719 100.808 27.2079 99.8639 27.2079C98.3119 27.2079 97.3199 26.2479 97.3199 24.3759V21.0639H95.9759Z" fill="white"/>
</g>
<defs>
<clipPath id="clip0_6330_34127">
<rect width="152" height="44" fill="white"/>
</clipPath>
</defs>
</svg>
