<svg width="312" height="200" viewBox="0 0 312 200" fill="none" xmlns="http://www.w3.org/2000/svg">
<path d="M80 100C80 87.8497 89.8497 78 102 78H210C222.15 78 232 87.8497 232 100V100C232 112.15 222.15 122 210 122H102C89.8497 122 80 112.15 80 100V100Z" fill="#D6D6D6"/>
<path d="M140.641 105.016C140.161 104.888 139.553 104.584 138.769 104.072L139.633 102.392C140.497 102.936 141.745 103.32 142.753 103.32C143.761 103.32 144.513 102.952 144.513 102.136C144.513 100.312 139.121 101.176 139.121 97.544C139.121 95.64 140.865 94.52 142.945 94.52C144.241 94.52 145.457 94.872 146.401 95.592L145.425 97.176C144.769 96.744 143.745 96.392 142.849 96.392C141.921 96.392 141.265 96.824 141.265 97.496C141.265 99.368 146.641 98.536 146.641 102.024C146.641 104.136 144.785 105.208 142.609 105.208C141.761 105.208 141.105 105.144 140.641 105.016ZM151.42 105.208C149.404 105.208 147.756 103.56 147.756 101.16C147.756 98.856 149.308 97.128 151.42 97.128C152.46 97.128 153.26 97.592 153.772 98.344V97.336H155.724V105H153.772V103.912C153.26 104.696 152.46 105.208 151.42 105.208ZM151.74 103.384C152.924 103.384 153.772 102.392 153.772 101.16C153.772 99.928 152.924 98.952 151.74 98.952C150.556 98.952 149.708 99.928 149.708 101.16C149.708 102.392 150.556 103.384 151.74 103.384ZM162.325 105H159.781L157.013 97.336H159.157L161.109 103.256L163.093 97.336H165.093L162.325 105ZM169.634 105.208C167.25 105.208 165.522 103.4 165.522 101.16C165.522 98.936 167.17 97.128 169.378 97.128C171.57 97.128 173.25 98.808 173.25 101.016C173.25 101.272 173.234 101.576 173.202 101.704H167.522C167.73 102.76 168.53 103.496 169.698 103.496C170.482 103.496 171.138 103.16 171.586 102.696L172.594 104.04C172.002 104.696 170.914 105.208 169.634 105.208ZM169.41 98.776C168.482 98.776 167.81 99.416 167.57 100.344H171.234C170.994 99.32 170.306 98.776 169.41 98.776Z" fill="white"/>
</svg>
