<svg width="287" height="44" viewBox="0 0 287 44" fill="none" xmlns="http://www.w3.org/2000/svg">
<g clip-path="url(#clip0_6330_34336)">
<path d="M0 22C0 9.84974 9.84974 0 22 0H265C277.15 0 287 9.84974 287 22C287 34.1503 277.15 44 265 44H22C9.84973 44 0 34.1503 0 22Z" fill="#2861BB"/>
<path d="M116.957 26.9999V16.7599H120.381C123.757 16.7599 126.173 18.8879 126.173 21.8799C126.173 24.8719 123.789 26.9999 120.445 26.9999H116.957ZM120.365 18.6319H119.021V25.1119H120.381C122.573 25.1119 124.029 23.8319 124.029 21.8799C124.029 19.9119 122.573 18.6319 120.365 18.6319ZM131.524 27.2079C129.14 27.2079 127.412 25.3999 127.412 23.1599C127.412 20.9359 129.06 19.1279 131.268 19.1279C133.46 19.1279 135.14 20.8079 135.14 23.0159C135.14 23.2719 135.124 23.5759 135.092 23.7039H129.412C129.62 24.7599 130.42 25.4959 131.588 25.4959C132.372 25.4959 133.028 25.1599 133.476 24.6959L134.484 26.0399C133.892 26.6959 132.804 27.2079 131.524 27.2079ZM131.3 20.7759C130.372 20.7759 129.7 21.4159 129.46 22.3439H133.124C132.884 21.3199 132.196 20.7759 131.3 20.7759ZM136.017 21.0639V19.3359H137.265V18.8879C137.265 16.9519 138.369 15.7839 140.081 15.7839C141.121 15.7839 141.793 16.0719 142.289 16.5679L141.329 18.0399C141.105 17.7999 140.689 17.6079 140.273 17.6079C139.633 17.6079 139.233 18.0399 139.233 18.8719V19.3359H141.217V21.0639H139.233V26.9999H137.265V21.0639H136.017ZM145.404 27.2079C143.388 27.2079 141.74 25.5599 141.74 23.1599C141.74 20.8559 143.292 19.1279 145.404 19.1279C146.444 19.1279 147.244 19.5919 147.756 20.3439V19.3359H149.708V26.9999H147.756V25.9119C147.244 26.6959 146.444 27.2079 145.404 27.2079ZM145.724 25.3839C146.908 25.3839 147.756 24.3919 147.756 23.1599C147.756 21.9279 146.908 20.9519 145.724 20.9519C144.54 20.9519 143.692 21.9279 143.692 23.1599C143.692 24.3919 144.54 25.3839 145.724 25.3839ZM153.733 19.3359V23.4799C153.733 24.5999 154.373 25.3519 155.349 25.3519C156.325 25.3519 156.981 24.5999 156.981 23.4799V19.3359H158.949V23.6239C158.949 25.7679 157.509 27.1919 155.349 27.1919C153.189 27.1919 151.781 25.7679 151.781 23.6239V19.3359H153.733ZM163.978 25.3039L164.186 27.0159C163.898 27.1119 163.53 27.1759 163.242 27.1759C162.138 27.1759 161.018 26.4719 161.018 24.5199V15.9919H162.97V24.5679C162.97 25.1599 163.306 25.3839 163.658 25.3839C163.754 25.3839 163.882 25.3519 163.978 25.3039ZM165.031 21.0639V19.3359H166.375V17.3519H168.343V19.3359H170.407V21.0639H168.359V24.3279C168.359 25.0479 168.647 25.3839 169.223 25.3839C169.591 25.3839 169.943 25.2239 170.135 24.9999L170.999 26.4559C170.583 26.8719 169.863 27.2079 168.919 27.2079C167.367 27.2079 166.375 26.2479 166.375 24.3759V21.0639H165.031Z" fill="white"/>
</g>
<defs>
<clipPath id="clip0_6330_34336">
<rect width="287" height="44" fill="white"/>
</clipPath>
</defs>
</svg>
