<svg width="264" height="44" viewBox="0 0 264 44" fill="none" xmlns="http://www.w3.org/2000/svg">
<g clip-path="url(#clip0_6330_34350)">
<path d="M0 22C0 9.84974 9.84974 0 22 0H242C254.15 0 264 9.84974 264 22C264 34.1503 254.15 44 242 44H22C9.84973 44 0 34.1503 0 22Z" fill="#2861BB"/>
<path d="M105.457 26.9999V16.7599H108.881C112.257 16.7599 114.673 18.8879 114.673 21.8799C114.673 24.8719 112.289 26.9999 108.945 26.9999H105.457ZM108.865 18.6319H107.521V25.1119H108.881C111.073 25.1119 112.529 23.8319 112.529 21.8799C112.529 19.9119 111.073 18.6319 108.865 18.6319ZM120.024 27.2079C117.64 27.2079 115.912 25.3999 115.912 23.1599C115.912 20.9359 117.56 19.1279 119.768 19.1279C121.96 19.1279 123.64 20.8079 123.64 23.0159C123.64 23.2719 123.624 23.5759 123.592 23.7039H117.912C118.12 24.7599 118.92 25.4959 120.088 25.4959C120.872 25.4959 121.528 25.1599 121.976 24.6959L122.984 26.0399C122.392 26.6959 121.304 27.2079 120.024 27.2079ZM119.8 20.7759C118.872 20.7759 118.2 21.4159 117.96 22.3439H121.624C121.384 21.3199 120.696 20.7759 119.8 20.7759ZM124.517 21.0639V19.3359H125.765V18.8879C125.765 16.9519 126.869 15.7839 128.581 15.7839C129.621 15.7839 130.293 16.0719 130.789 16.5679L129.829 18.0399C129.605 17.7999 129.189 17.6079 128.773 17.6079C128.133 17.6079 127.733 18.0399 127.733 18.8719V19.3359H129.717V21.0639H127.733V26.9999H125.765V21.0639H124.517ZM133.904 27.2079C131.888 27.2079 130.24 25.5599 130.24 23.1599C130.24 20.8559 131.792 19.1279 133.904 19.1279C134.944 19.1279 135.744 19.5919 136.256 20.3439V19.3359H138.208V26.9999H136.256V25.9119C135.744 26.6959 134.944 27.2079 133.904 27.2079ZM134.224 25.3839C135.408 25.3839 136.256 24.3919 136.256 23.1599C136.256 21.9279 135.408 20.9519 134.224 20.9519C133.04 20.9519 132.192 21.9279 132.192 23.1599C132.192 24.3919 133.04 25.3839 134.224 25.3839ZM142.233 19.3359V23.4799C142.233 24.5999 142.873 25.3519 143.849 25.3519C144.825 25.3519 145.481 24.5999 145.481 23.4799V19.3359H147.449V23.6239C147.449 25.7679 146.009 27.1919 143.849 27.1919C141.689 27.1919 140.281 25.7679 140.281 23.6239V19.3359H142.233ZM152.478 25.3039L152.686 27.0159C152.398 27.1119 152.03 27.1759 151.742 27.1759C150.638 27.1759 149.518 26.4719 149.518 24.5199V15.9919H151.47V24.5679C151.47 25.1599 151.806 25.3839 152.158 25.3839C152.254 25.3839 152.382 25.3519 152.478 25.3039ZM153.531 21.0639V19.3359H154.875V17.3519H156.843V19.3359H158.907V21.0639H156.859V24.3279C156.859 25.0479 157.147 25.3839 157.723 25.3839C158.091 25.3839 158.443 25.2239 158.635 24.9999L159.499 26.4559C159.083 26.8719 158.363 27.2079 157.419 27.2079C155.867 27.2079 154.875 26.2479 154.875 24.3759V21.0639H153.531Z" fill="white"/>
</g>
<defs>
<clipPath id="clip0_6330_34350">
<rect width="264" height="44" fill="white"/>
</clipPath>
</defs>
</svg>
