<svg width="152" height="44" viewBox="0 0 152 44" fill="none" xmlns="http://www.w3.org/2000/svg">
<g clip-path="url(#clip0_6330_34314)">
<path d="M22 0.5H130C141.874 0.5 151.5 10.1259 151.5 22C151.5 33.8741 141.874 43.5 130 43.5H22C10.1259 43.5 0.5 33.8741 0.5 22C0.5 10.1259 10.1259 0.5 22 0.5Z" stroke="#2861BB"/>
<path d="M39.5165 27.0159C39.0365 26.8879 38.4285 26.5839 37.6445 26.0719L38.5085 24.3919C39.3725 24.9359 40.6205 25.3199 41.6285 25.3199C42.6365 25.3199 43.3885 24.9519 43.3885 24.1359C43.3885 22.3119 37.9965 23.1759 37.9965 19.5439C37.9965 17.6399 39.7405 16.5199 41.8205 16.5199C43.1165 16.5199 44.3325 16.8719 45.2765 17.5919L44.3005 19.1759C43.6445 18.7439 42.6205 18.3919 41.7245 18.3919C40.7965 18.3919 40.1405 18.8239 40.1405 19.4959C40.1405 21.3679 45.5165 20.5359 45.5165 24.0239C45.5165 26.1359 43.6605 27.2079 41.4845 27.2079C40.6365 27.2079 39.9805 27.1439 39.5165 27.0159ZM50.7432 27.2079C48.3592 27.2079 46.6312 25.3999 46.6312 23.1599C46.6312 20.9359 48.2792 19.1279 50.4872 19.1279C52.6792 19.1279 54.3592 20.8079 54.3592 23.0159C54.3592 23.2719 54.3432 23.5759 54.3112 23.7039H48.6312C48.8392 24.7599 49.6392 25.4959 50.8072 25.4959C51.5912 25.4959 52.2472 25.1599 52.6952 24.6959L53.7032 26.0399C53.1112 26.6959 52.0232 27.2079 50.7432 27.2079ZM50.5192 20.7759C49.5912 20.7759 48.9192 21.4159 48.6792 22.3439H52.3432C52.1032 21.3199 51.4152 20.7759 50.5192 20.7759ZM61.332 21.6559C60.836 21.1919 60.276 20.9519 59.508 20.9519C58.228 20.9519 57.38 21.9279 57.38 23.1599C57.38 24.3919 58.244 25.3839 59.508 25.3839C60.276 25.3839 60.9 25.1119 61.396 24.6319L62.388 26.0719C61.78 26.7439 60.66 27.2079 59.46 27.2079C57.172 27.2079 55.428 25.3999 55.428 23.1599C55.428 20.9359 57.188 19.1279 59.428 19.1279C60.724 19.1279 61.764 19.5599 62.452 20.2639L61.332 21.6559ZM66.9589 27.2079C64.7349 27.2079 62.9749 25.3999 62.9749 23.1599C62.9749 20.9359 64.7349 19.1279 66.9589 19.1279C69.1829 19.1279 70.9429 20.9359 70.9429 23.1599C70.9429 25.3999 69.1829 27.2079 66.9589 27.2079ZM66.9589 25.3839C68.1429 25.3839 68.9909 24.3919 68.9909 23.1599C68.9909 21.9279 68.1429 20.9519 66.9589 20.9519C65.7749 20.9519 64.9269 21.9279 64.9269 23.1599C64.9269 24.3919 65.7749 25.3839 66.9589 25.3839ZM72.6272 26.9999V19.3359H74.5792V20.4239C74.9792 19.6079 75.7472 19.1279 76.7552 19.1279C78.5152 19.1279 79.6512 20.3599 79.6512 22.3599V26.9999H77.6992V22.6479C77.6992 21.6079 77.1072 20.9519 76.1472 20.9519C75.1872 20.9519 74.5792 21.6079 74.5792 22.6479V26.9999H72.6272ZM84.9358 27.2079C82.9198 27.2079 81.2718 25.5599 81.2718 23.1599C81.2718 20.8559 82.8238 19.1279 84.9358 19.1279C85.9758 19.1279 86.7758 19.5919 87.2878 20.3439V15.9919H89.2398V26.9999H87.2878V25.9119C86.7758 26.6959 85.9758 27.2079 84.9358 27.2079ZM85.2558 25.3839C86.4398 25.3839 87.2878 24.3919 87.2878 23.1599C87.2878 21.9279 86.4398 20.9519 85.2558 20.9519C84.0718 20.9519 83.2238 21.9279 83.2238 23.1599C83.2238 24.3919 84.0718 25.3839 85.2558 25.3839ZM94.5764 27.2079C92.5604 27.2079 90.9124 25.5599 90.9124 23.1599C90.9124 20.8559 92.4644 19.1279 94.5764 19.1279C95.6164 19.1279 96.4164 19.5919 96.9284 20.3439V19.3359H98.8804V26.9999H96.9284V25.9119C96.4164 26.6959 95.6164 27.2079 94.5764 27.2079ZM94.8964 25.3839C96.0804 25.3839 96.9284 24.3919 96.9284 23.1599C96.9284 21.9279 96.0804 20.9519 94.8964 20.9519C93.7124 20.9519 92.8644 21.9279 92.8644 23.1599C92.8644 24.3919 93.7124 25.3839 94.8964 25.3839ZM101.049 26.9999V19.3359H103.001V20.4719C103.369 19.6559 104.025 19.1279 104.889 19.1279C105.401 19.1279 105.817 19.2559 106.105 19.4959L105.305 21.3359C105.049 21.1439 104.665 21.0159 104.281 21.0159C103.513 21.0159 103.001 21.6719 103.001 22.7119V26.9999H101.049ZM109.888 27.3039L109.952 27.1119L106.448 19.3359H108.592L110.832 24.6159L112.672 19.3359H114.64L111.504 27.9759C110.912 29.6559 109.936 30.3439 108.656 30.3439C107.84 30.3439 107.056 30.0079 106.56 29.5439L107.44 28.0079C107.808 28.3599 108.224 28.5199 108.672 28.5199C109.216 28.5199 109.568 28.1999 109.888 27.3039Z" fill="#2861BB"/>
</g>
<defs>
<clipPath id="clip0_6330_34314">
<rect width="152" height="44" fill="white"/>
</clipPath>
</defs>
</svg>
