<svg width="264" height="44" viewBox="0 0 264 44" fill="none" xmlns="http://www.w3.org/2000/svg">
<g clip-path="url(#clip0_6330_34377)">
<path d="M0 22C0 9.84974 9.84974 0 22 0H242C254.15 0 264 9.84974 264 22C264 34.1503 254.15 44 242 44H22C9.84973 44 0 34.1503 0 22Z" fill="#1B386F"/>
<path d="M113.957 26.9999V16.7439H117.621C120.101 16.7439 121.733 18.0879 121.733 20.1359C121.733 22.1999 120.085 23.5599 117.589 23.5599H115.957V26.9999H113.957ZM117.781 18.5199H115.957V21.7839H117.781C118.885 21.7839 119.621 21.1279 119.621 20.1359C119.621 19.1599 118.885 18.5199 117.781 18.5199ZM123.299 26.9999V19.3359H125.251V20.4719C125.619 19.6559 126.275 19.1279 127.139 19.1279C127.651 19.1279 128.067 19.2559 128.355 19.4959L127.555 21.3359C127.299 21.1439 126.915 21.0159 126.531 21.0159C125.763 21.0159 125.251 21.6719 125.251 22.7119V26.9999H123.299ZM132.665 27.2079C130.281 27.2079 128.553 25.3999 128.553 23.1599C128.553 20.9359 130.201 19.1279 132.409 19.1279C134.601 19.1279 136.281 20.8079 136.281 23.0159C136.281 23.2719 136.265 23.5759 136.233 23.7039H130.553C130.761 24.7599 131.561 25.4959 132.729 25.4959C133.513 25.4959 134.169 25.1599 134.617 24.6959L135.625 26.0399C135.033 26.6959 133.945 27.2079 132.665 27.2079ZM132.441 20.7759C131.513 20.7759 130.841 21.4159 130.601 22.3439H134.265C134.025 21.3199 133.337 20.7759 132.441 20.7759ZM140.151 27.2079C138.919 27.2079 137.911 26.8879 137.159 26.4719L137.783 24.9679C138.663 25.3839 139.399 25.6079 140.247 25.6079C141.111 25.6079 141.511 25.3039 141.511 24.8559C141.511 23.4799 137.383 24.2959 137.383 21.3999C137.383 20.2479 138.407 19.1279 140.375 19.1279C141.447 19.1279 142.263 19.3519 143.239 19.8159L142.519 21.2719C141.975 20.9679 141.159 20.7279 140.535 20.7279C139.799 20.7279 139.351 20.9679 139.351 21.3839C139.351 22.7919 143.447 21.9119 143.447 24.8239C143.447 26.1519 142.263 27.2079 140.151 27.2079ZM147.401 27.2079C146.169 27.2079 145.161 26.8879 144.409 26.4719L145.033 24.9679C145.913 25.3839 146.649 25.6079 147.497 25.6079C148.361 25.6079 148.761 25.3039 148.761 24.8559C148.761 23.4799 144.633 24.2959 144.633 21.3999C144.633 20.2479 145.657 19.1279 147.625 19.1279C148.697 19.1279 149.513 19.3519 150.489 19.8159L149.769 21.2719C149.225 20.9679 148.409 20.7279 147.785 20.7279C147.049 20.7279 146.601 20.9679 146.601 21.3839C146.601 22.7919 150.697 21.9119 150.697 24.8239C150.697 26.1519 149.513 27.2079 147.401 27.2079Z" fill="white"/>
</g>
<defs>
<clipPath id="clip0_6330_34377">
<rect width="264" height="44" fill="white"/>
</clipPath>
</defs>
</svg>
