<svg width="152" height="44" viewBox="0 0 152 44" fill="none" xmlns="http://www.w3.org/2000/svg">
<g clip-path="url(#clip0_6330_34148)">
<path d="M0 22C0 9.84974 9.84974 0 22 0H130C142.15 0 152 9.84974 152 22C152 34.1503 142.15 44 130 44H22C9.84973 44 0 34.1503 0 22Z" fill="#D6D6D6"/>
<path d="M60.6415 27.016C60.1615 26.888 59.5535 26.584 58.7695 26.072L59.6335 24.392C60.4975 24.936 61.7455 25.32 62.7535 25.32C63.7615 25.32 64.5135 24.952 64.5135 24.136C64.5135 22.312 59.1215 23.176 59.1215 19.544C59.1215 17.64 60.8655 16.52 62.9455 16.52C64.2415 16.52 65.4575 16.872 66.4015 17.592L65.4255 19.176C64.7695 18.744 63.7455 18.392 62.8495 18.392C61.9215 18.392 61.2655 18.824 61.2655 19.496C61.2655 21.368 66.6415 20.536 66.6415 24.024C66.6415 26.136 64.7855 27.208 62.6095 27.208C61.7615 27.208 61.1055 27.144 60.6415 27.016ZM71.4202 27.208C69.4042 27.208 67.7562 25.56 67.7562 23.16C67.7562 20.856 69.3082 19.128 71.4202 19.128C72.4602 19.128 73.2602 19.592 73.7722 20.344V19.336H75.7242V27H73.7722V25.912C73.2602 26.696 72.4602 27.208 71.4202 27.208ZM71.7402 25.384C72.9242 25.384 73.7722 24.392 73.7722 23.16C73.7722 21.928 72.9242 20.952 71.7402 20.952C70.5562 20.952 69.7082 21.928 69.7082 23.16C69.7082 24.392 70.5562 25.384 71.7402 25.384ZM82.3248 27H79.7808L77.0128 19.336H79.1568L81.1088 25.256L83.0928 19.336H85.0928L82.3248 27ZM89.6338 27.208C87.2498 27.208 85.5218 25.4 85.5218 23.16C85.5218 20.936 87.1698 19.128 89.3778 19.128C91.5698 19.128 93.2498 20.808 93.2498 23.016C93.2498 23.272 93.2338 23.576 93.2018 23.704H87.5218C87.7298 24.76 88.5298 25.496 89.6978 25.496C90.4818 25.496 91.1378 25.16 91.5858 24.696L92.5938 26.04C92.0018 26.696 90.9138 27.208 89.6338 27.208ZM89.4098 20.776C88.4818 20.776 87.8098 21.416 87.5698 22.344H91.2338C90.9938 21.32 90.3058 20.776 89.4098 20.776Z" fill="white"/>
</g>
<defs>
<clipPath id="clip0_6330_34148">
<rect width="152" height="44" fill="white"/>
</clipPath>
</defs>
</svg>
