<svg width="312" height="228" viewBox="0 0 312 228" fill="none" xmlns="http://www.w3.org/2000/svg">
<path d="M24 46C24 33.8497 33.8497 24 46 24H266C278.15 24 288 33.8497 288 46V46C288 58.1503 278.15 68 266 68H46C33.8497 68 24 58.1503 24 46V46Z" fill="#4371D4"/>
<path d="M142.392 51V46.696H137.496V51H135.496V40.744H137.496V44.824H142.392V40.744H144.392V51H142.392ZM150.139 51.208C147.914 51.208 146.155 49.4 146.155 47.16C146.155 44.936 147.914 43.128 150.139 43.128C152.363 43.128 154.123 44.936 154.123 47.16C154.123 49.4 152.363 51.208 150.139 51.208ZM150.139 49.384C151.323 49.384 152.171 48.392 152.171 47.16C152.171 45.928 151.323 44.952 150.139 44.952C148.955 44.952 148.107 45.928 148.107 47.16C148.107 48.392 148.955 49.384 150.139 49.384ZM159.879 51H157.335L154.567 43.336H156.711L158.663 49.256L160.647 43.336H162.647L159.879 51ZM167.188 51.208C164.804 51.208 163.076 49.4 163.076 47.16C163.076 44.936 164.724 43.128 166.932 43.128C169.124 43.128 170.804 44.808 170.804 47.016C170.804 47.272 170.788 47.576 170.756 47.704H165.076C165.284 48.76 166.084 49.496 167.252 49.496C168.036 49.496 168.692 49.16 169.14 48.696L170.148 50.04C169.556 50.696 168.468 51.208 167.188 51.208ZM166.964 44.776C166.036 44.776 165.364 45.416 165.124 46.344H168.788C168.548 45.32 167.86 44.776 166.964 44.776ZM172.369 51V43.336H174.321V44.472C174.689 43.656 175.345 43.128 176.209 43.128C176.721 43.128 177.137 43.256 177.425 43.496L176.625 45.336C176.369 45.144 175.985 45.016 175.601 45.016C174.833 45.016 174.321 45.672 174.321 46.712V51H172.369Z" fill="white"/>
<path d="M46 92.5H266C277.874 92.5 287.5 102.126 287.5 114C287.5 125.874 277.874 135.5 266 135.5H46C34.1259 135.5 24.5 125.874 24.5 114C24.5 102.126 34.1259 92.5 46 92.5Z" fill="white"/>
<path d="M46 92.5H266C277.874 92.5 287.5 102.126 287.5 114C287.5 125.874 277.874 135.5 266 135.5H46C34.1259 135.5 24.5 125.874 24.5 114C24.5 102.126 34.1259 92.5 46 92.5Z" stroke="#4371D4"/>
<path d="M142.392 119V114.696H137.496V119H135.496V108.744H137.496V112.824H142.392V108.744H144.392V119H142.392ZM150.139 119.208C147.914 119.208 146.155 117.4 146.155 115.16C146.155 112.936 147.914 111.128 150.139 111.128C152.363 111.128 154.123 112.936 154.123 115.16C154.123 117.4 152.363 119.208 150.139 119.208ZM150.139 117.384C151.323 117.384 152.171 116.392 152.171 115.16C152.171 113.928 151.323 112.952 150.139 112.952C148.955 112.952 148.107 113.928 148.107 115.16C148.107 116.392 148.955 117.384 150.139 117.384ZM159.879 119H157.335L154.567 111.336H156.711L158.663 117.256L160.647 111.336H162.647L159.879 119ZM167.188 119.208C164.804 119.208 163.076 117.4 163.076 115.16C163.076 112.936 164.724 111.128 166.932 111.128C169.124 111.128 170.804 112.808 170.804 115.016C170.804 115.272 170.788 115.576 170.756 115.704H165.076C165.284 116.76 166.084 117.496 167.252 117.496C168.036 117.496 168.692 117.16 169.14 116.696L170.148 118.04C169.556 118.696 168.468 119.208 167.188 119.208ZM166.964 112.776C166.036 112.776 165.364 113.416 165.124 114.344H168.788C168.548 113.32 167.86 112.776 166.964 112.776ZM172.369 119V111.336H174.321V112.472C174.689 111.656 175.345 111.128 176.209 111.128C176.721 111.128 177.137 111.256 177.425 111.496L176.625 113.336C176.369 113.144 175.985 113.016 175.601 113.016C174.833 113.016 174.321 113.672 174.321 114.712V119H172.369Z" fill="#4371D4"/>
<path d="M142.392 187V182.696H137.496V187H135.496V176.744H137.496V180.824H142.392V176.744H144.392V187H142.392ZM150.139 187.208C147.914 187.208 146.155 185.4 146.155 183.16C146.155 180.936 147.914 179.128 150.139 179.128C152.363 179.128 154.123 180.936 154.123 183.16C154.123 185.4 152.363 187.208 150.139 187.208ZM150.139 185.384C151.323 185.384 152.171 184.392 152.171 183.16C152.171 181.928 151.323 180.952 150.139 180.952C148.955 180.952 148.107 181.928 148.107 183.16C148.107 184.392 148.955 185.384 150.139 185.384ZM159.879 187H157.335L154.567 179.336H156.711L158.663 185.256L160.647 179.336H162.647L159.879 187ZM167.188 187.208C164.804 187.208 163.076 185.4 163.076 183.16C163.076 180.936 164.724 179.128 166.932 179.128C169.124 179.128 170.804 180.808 170.804 183.016C170.804 183.272 170.788 183.576 170.756 183.704H165.076C165.284 184.76 166.084 185.496 167.252 185.496C168.036 185.496 168.692 185.16 169.14 184.696L170.148 186.04C169.556 186.696 168.468 187.208 167.188 187.208ZM166.964 180.776C166.036 180.776 165.364 181.416 165.124 182.344H168.788C168.548 181.32 167.86 180.776 166.964 180.776ZM172.369 187V179.336H174.321V180.472C174.689 179.656 175.345 179.128 176.209 179.128C176.721 179.128 177.137 179.256 177.425 179.496L176.625 181.336C176.369 181.144 175.985 181.016 175.601 181.016C174.833 181.016 174.321 181.672 174.321 182.712V187H172.369Z" fill="#4371D4"/>
<path d="M134.328 189H177.665V189.8H134.328V189Z" fill="#4371D4"/>
</svg>
