<svg width="264" height="44" viewBox="0 0 264 44" fill="none" xmlns="http://www.w3.org/2000/svg">
<path d="M100.699 26.9999V16.7599H104.123C107.499 16.7599 109.915 18.8879 109.915 21.8799C109.915 24.8719 107.531 26.9999 104.187 26.9999H100.699ZM104.107 18.6319H102.763V25.1119H104.123C106.315 25.1119 107.771 23.8319 107.771 21.8799C107.771 19.9119 106.315 18.6319 104.107 18.6319ZM112.627 18.3119C111.987 18.3119 111.491 17.7999 111.491 17.1599C111.491 16.5359 111.987 16.0239 112.627 16.0239C113.251 16.0239 113.779 16.5359 113.779 17.1599C113.779 17.7999 113.251 18.3119 112.627 18.3119ZM113.603 26.9999H111.651V19.3359H113.603V26.9999ZM118.143 27.2079C116.911 27.2079 115.903 26.8879 115.151 26.4719L115.775 24.9679C116.655 25.3839 117.391 25.6079 118.239 25.6079C119.103 25.6079 119.503 25.3039 119.503 24.8559C119.503 23.4799 115.375 24.2959 115.375 21.3999C115.375 20.2479 116.399 19.1279 118.367 19.1279C119.439 19.1279 120.255 19.3519 121.231 19.8159L120.511 21.2719C119.967 20.9679 119.151 20.7279 118.527 20.7279C117.791 20.7279 117.343 20.9679 117.343 21.3839C117.343 22.7919 121.439 21.9119 121.439 24.8239C121.439 26.1519 120.255 27.2079 118.143 27.2079ZM126.209 27.2079C124.193 27.2079 122.545 25.5599 122.545 23.1599C122.545 20.8559 124.097 19.1279 126.209 19.1279C127.249 19.1279 128.049 19.5919 128.561 20.3439V19.3359H130.513V26.9999H128.561V25.9119C128.049 26.6959 127.249 27.2079 126.209 27.2079ZM126.529 25.3839C127.713 25.3839 128.561 24.3919 128.561 23.1599C128.561 21.9279 127.713 20.9519 126.529 20.9519C125.345 20.9519 124.497 21.9279 124.497 23.1599C124.497 24.3919 125.345 25.3839 126.529 25.3839ZM136.986 19.1279C139.002 19.1279 140.666 20.7759 140.666 23.1759C140.666 25.4799 139.114 27.2079 136.986 27.2079C135.946 27.2079 135.146 26.7439 134.634 25.9759V26.9999H132.682V15.9919H134.634V20.4239C135.146 19.6399 135.946 19.1279 136.986 19.1279ZM136.682 20.9519C135.498 20.9519 134.634 21.9439 134.634 23.1759C134.634 24.4079 135.498 25.3839 136.682 25.3839C137.85 25.3839 138.714 24.4079 138.714 23.1759C138.714 21.9439 137.85 20.9519 136.682 20.9519ZM145.282 25.3039L145.49 27.0159C145.202 27.1119 144.834 27.1759 144.546 27.1759C143.442 27.1759 142.322 26.4719 142.322 24.5199V15.9919H144.274V24.5679C144.274 25.1599 144.61 25.3839 144.962 25.3839C145.058 25.3839 145.186 25.3519 145.282 25.3039ZM150.735 27.2079C148.351 27.2079 146.623 25.3999 146.623 23.1599C146.623 20.9359 148.271 19.1279 150.479 19.1279C152.671 19.1279 154.351 20.8079 154.351 23.0159C154.351 23.2719 154.335 23.5759 154.303 23.7039H148.623C148.831 24.7599 149.631 25.4959 150.799 25.4959C151.583 25.4959 152.239 25.1599 152.687 24.6959L153.695 26.0399C153.103 26.6959 152.015 27.2079 150.735 27.2079ZM150.511 20.7759C149.583 20.7759 148.911 21.4159 148.671 22.3439H152.335C152.095 21.3199 151.407 20.7759 150.511 20.7759ZM159.084 27.2079C157.068 27.2079 155.42 25.5599 155.42 23.1599C155.42 20.8559 156.972 19.1279 159.084 19.1279C160.124 19.1279 160.924 19.5919 161.436 20.3439V15.9919H163.388V26.9999H161.436V25.9119C160.924 26.6959 160.124 27.2079 159.084 27.2079ZM159.404 25.3839C160.588 25.3839 161.436 24.3919 161.436 23.1599C161.436 21.9279 160.588 20.9519 159.404 20.9519C158.22 20.9519 157.372 21.9279 157.372 23.1599C157.372 24.3919 158.22 25.3839 159.404 25.3839Z" fill="#BAC2D4"/>
</svg>
