<svg width="312" height="228" viewBox="0 0 312 228" fill="none" xmlns="http://www.w3.org/2000/svg">
<path d="M24 46C24 33.8497 33.8497 24 46 24H266C278.15 24 288 33.8497 288 46V46C288 58.1503 278.15 68 266 68H46C33.8497 68 24 58.1503 24 46V46Z" fill="#2861BB"/>
<path d="M129.457 51V40.76H132.881C136.257 40.76 138.673 42.888 138.673 45.88C138.673 48.872 136.289 51 132.945 51H129.457ZM132.865 42.632H131.521V49.112H132.881C135.073 49.112 136.529 47.832 136.529 45.88C136.529 43.912 135.073 42.632 132.865 42.632ZM144.024 51.208C141.64 51.208 139.912 49.4 139.912 47.16C139.912 44.936 141.56 43.128 143.768 43.128C145.96 43.128 147.64 44.808 147.64 47.016C147.64 47.272 147.624 47.576 147.592 47.704H141.912C142.12 48.76 142.92 49.496 144.088 49.496C144.872 49.496 145.528 49.16 145.976 48.696L146.984 50.04C146.392 50.696 145.304 51.208 144.024 51.208ZM143.8 44.776C142.872 44.776 142.2 45.416 141.96 46.344H145.624C145.384 45.32 144.696 44.776 143.8 44.776ZM148.517 45.064V43.336H149.765V42.888C149.765 40.952 150.869 39.784 152.581 39.784C153.621 39.784 154.293 40.072 154.789 40.568L153.829 42.04C153.605 41.8 153.189 41.608 152.773 41.608C152.133 41.608 151.733 42.04 151.733 42.872V43.336H153.717V45.064H151.733V51H149.765V45.064H148.517ZM157.904 51.208C155.888 51.208 154.24 49.56 154.24 47.16C154.24 44.856 155.792 43.128 157.904 43.128C158.944 43.128 159.744 43.592 160.256 44.344V43.336H162.208V51H160.256V49.912C159.744 50.696 158.944 51.208 157.904 51.208ZM158.224 49.384C159.408 49.384 160.256 48.392 160.256 47.16C160.256 45.928 159.408 44.952 158.224 44.952C157.04 44.952 156.192 45.928 156.192 47.16C156.192 48.392 157.04 49.384 158.224 49.384ZM166.233 43.336V47.48C166.233 48.6 166.873 49.352 167.849 49.352C168.825 49.352 169.481 48.6 169.481 47.48V43.336H171.449V47.624C171.449 49.768 170.009 51.192 167.849 51.192C165.689 51.192 164.281 49.768 164.281 47.624V43.336H166.233ZM176.478 49.304L176.686 51.016C176.398 51.112 176.03 51.176 175.742 51.176C174.638 51.176 173.518 50.472 173.518 48.52V39.992H175.47V48.568C175.47 49.16 175.806 49.384 176.158 49.384C176.254 49.384 176.382 49.352 176.478 49.304ZM177.531 45.064V43.336H178.875V41.352H180.843V43.336H182.907V45.064H180.859V48.328C180.859 49.048 181.147 49.384 181.723 49.384C182.091 49.384 182.443 49.224 182.635 49L183.499 50.456C183.083 50.872 182.363 51.208 181.419 51.208C179.867 51.208 178.875 50.248 178.875 48.376V45.064H177.531Z" fill="white"/>
<path d="M46 92.5H266C277.874 92.5 287.5 102.126 287.5 114C287.5 125.874 277.874 135.5 266 135.5H46C34.1259 135.5 24.5 125.874 24.5 114C24.5 102.126 34.1259 92.5 46 92.5Z" stroke="#2861BB"/>
<path d="M129.457 119V108.76H132.881C136.257 108.76 138.673 110.888 138.673 113.88C138.673 116.872 136.289 119 132.945 119H129.457ZM132.865 110.632H131.521V117.112H132.881C135.073 117.112 136.529 115.832 136.529 113.88C136.529 111.912 135.073 110.632 132.865 110.632ZM144.024 119.208C141.64 119.208 139.912 117.4 139.912 115.16C139.912 112.936 141.56 111.128 143.768 111.128C145.96 111.128 147.64 112.808 147.64 115.016C147.64 115.272 147.624 115.576 147.592 115.704H141.912C142.12 116.76 142.92 117.496 144.088 117.496C144.872 117.496 145.528 117.16 145.976 116.696L146.984 118.04C146.392 118.696 145.304 119.208 144.024 119.208ZM143.8 112.776C142.872 112.776 142.2 113.416 141.96 114.344H145.624C145.384 113.32 144.696 112.776 143.8 112.776ZM148.517 113.064V111.336H149.765V110.888C149.765 108.952 150.869 107.784 152.581 107.784C153.621 107.784 154.293 108.072 154.789 108.568L153.829 110.04C153.605 109.8 153.189 109.608 152.773 109.608C152.133 109.608 151.733 110.04 151.733 110.872V111.336H153.717V113.064H151.733V119H149.765V113.064H148.517ZM157.904 119.208C155.888 119.208 154.24 117.56 154.24 115.16C154.24 112.856 155.792 111.128 157.904 111.128C158.944 111.128 159.744 111.592 160.256 112.344V111.336H162.208V119H160.256V117.912C159.744 118.696 158.944 119.208 157.904 119.208ZM158.224 117.384C159.408 117.384 160.256 116.392 160.256 115.16C160.256 113.928 159.408 112.952 158.224 112.952C157.04 112.952 156.192 113.928 156.192 115.16C156.192 116.392 157.04 117.384 158.224 117.384ZM166.233 111.336V115.48C166.233 116.6 166.873 117.352 167.849 117.352C168.825 117.352 169.481 116.6 169.481 115.48V111.336H171.449V115.624C171.449 117.768 170.009 119.192 167.849 119.192C165.689 119.192 164.281 117.768 164.281 115.624V111.336H166.233ZM176.478 117.304L176.686 119.016C176.398 119.112 176.03 119.176 175.742 119.176C174.638 119.176 173.518 118.472 173.518 116.52V107.992H175.47V116.568C175.47 117.16 175.806 117.384 176.158 117.384C176.254 117.384 176.382 117.352 176.478 117.304ZM177.531 113.064V111.336H178.875V109.352H180.843V111.336H182.907V113.064H180.859V116.328C180.859 117.048 181.147 117.384 181.723 117.384C182.091 117.384 182.443 117.224 182.635 117L183.499 118.456C183.083 118.872 182.363 119.208 181.419 119.208C179.867 119.208 178.875 118.248 178.875 116.376V113.064H177.531Z" fill="#2861BB"/>
<path d="M129.457 187V176.76H132.881C136.257 176.76 138.673 178.888 138.673 181.88C138.673 184.872 136.289 187 132.945 187H129.457ZM132.865 178.632H131.521V185.112H132.881C135.073 185.112 136.529 183.832 136.529 181.88C136.529 179.912 135.073 178.632 132.865 178.632ZM144.024 187.208C141.64 187.208 139.912 185.4 139.912 183.16C139.912 180.936 141.56 179.128 143.768 179.128C145.96 179.128 147.64 180.808 147.64 183.016C147.64 183.272 147.624 183.576 147.592 183.704H141.912C142.12 184.76 142.92 185.496 144.088 185.496C144.872 185.496 145.528 185.16 145.976 184.696L146.984 186.04C146.392 186.696 145.304 187.208 144.024 187.208ZM143.8 180.776C142.872 180.776 142.2 181.416 141.96 182.344H145.624C145.384 181.32 144.696 180.776 143.8 180.776ZM148.517 181.064V179.336H149.765V178.888C149.765 176.952 150.869 175.784 152.581 175.784C153.621 175.784 154.293 176.072 154.789 176.568L153.829 178.04C153.605 177.8 153.189 177.608 152.773 177.608C152.133 177.608 151.733 178.04 151.733 178.872V179.336H153.717V181.064H151.733V187H149.765V181.064H148.517ZM157.904 187.208C155.888 187.208 154.24 185.56 154.24 183.16C154.24 180.856 155.792 179.128 157.904 179.128C158.944 179.128 159.744 179.592 160.256 180.344V179.336H162.208V187H160.256V185.912C159.744 186.696 158.944 187.208 157.904 187.208ZM158.224 185.384C159.408 185.384 160.256 184.392 160.256 183.16C160.256 181.928 159.408 180.952 158.224 180.952C157.04 180.952 156.192 181.928 156.192 183.16C156.192 184.392 157.04 185.384 158.224 185.384ZM166.233 179.336V183.48C166.233 184.6 166.873 185.352 167.849 185.352C168.825 185.352 169.481 184.6 169.481 183.48V179.336H171.449V183.624C171.449 185.768 170.009 187.192 167.849 187.192C165.689 187.192 164.281 185.768 164.281 183.624V179.336H166.233ZM176.478 185.304L176.686 187.016C176.398 187.112 176.03 187.176 175.742 187.176C174.638 187.176 173.518 186.472 173.518 184.52V175.992H175.47V184.568C175.47 185.16 175.806 185.384 176.158 185.384C176.254 185.384 176.382 185.352 176.478 185.304ZM177.531 181.064V179.336H178.875V177.352H180.843V179.336H182.907V181.064H180.859V184.328C180.859 185.048 181.147 185.384 181.723 185.384C182.091 185.384 182.443 185.224 182.635 185L183.499 186.456C183.083 186.872 182.363 187.208 181.419 187.208C179.867 187.208 178.875 186.248 178.875 184.376V181.064H177.531Z" fill="#2861BB"/>
<path d="M128.289 189H183.707V189.8H128.289V189Z" fill="#2861BB"/>
</svg>
