<svg width="64" height="24" viewBox="0 0 64 24" fill="none" xmlns="http://www.w3.org/2000/svg">
<g clip-path="url(#clip0_6330_34158)">
<path d="M0 12C0 5.37258 5.37258 0 12 0H52C58.6274 0 64 5.37258 64 12C64 18.6274 58.6274 24 52 24H12C5.37258 24 0 18.6274 0 12Z" fill="#2861BB"/>
<path d="M14.1579 16.0119C13.7979 15.9159 13.3419 15.6879 12.7539 15.3039L13.4019 14.0439C14.0499 14.4519 14.9859 14.7399 15.7419 14.7399C16.4979 14.7399 17.0619 14.4639 17.0619 13.8519C17.0619 12.4839 13.0179 13.1319 13.0179 10.4079C13.0179 8.9799 14.3259 8.1399 15.8859 8.1399C16.8579 8.1399 17.7699 8.4039 18.4779 8.9439L17.7459 10.1319C17.2539 9.8079 16.4859 9.5439 15.8139 9.5439C15.1179 9.5439 14.6259 9.8679 14.6259 10.3719C14.6259 11.7759 18.6579 11.1519 18.6579 13.7679C18.6579 15.3519 17.2659 16.1559 15.6339 16.1559C14.9979 16.1559 14.5059 16.1079 14.1579 16.0119ZM21.2579 10.2519V13.3599C21.2579 14.1999 21.7379 14.7639 22.4699 14.7639C23.2019 14.7639 23.6939 14.1999 23.6939 13.3599V10.2519H25.1699V13.4679C25.1699 15.0759 24.0899 16.1439 22.4699 16.1439C20.8499 16.1439 19.7939 15.0759 19.7939 13.4679V10.2519H21.2579ZM29.9494 10.0959C31.4614 10.0959 32.7094 11.3319 32.7094 13.1319C32.7094 14.8599 31.5454 16.1559 29.9494 16.1559C29.1694 16.1559 28.5694 15.8079 28.1854 15.2319V15.9999H26.7214V7.7439H28.1854V11.0679C28.5694 10.4799 29.1694 10.0959 29.9494 10.0959ZM29.7214 11.4639C28.8334 11.4639 28.1854 12.2079 28.1854 13.1319C28.1854 14.0559 28.8334 14.7879 29.7214 14.7879C30.5974 14.7879 31.2454 14.0559 31.2454 13.1319C31.2454 12.2079 30.5974 11.4639 29.7214 11.4639ZM35.4158 15.9999H33.9518V10.2519H35.4158V11.1279C35.7158 10.5039 36.2798 10.0959 37.0358 10.0959C37.9118 10.0959 38.5838 10.5279 38.9198 11.2959C39.2198 10.6119 39.7718 10.0959 40.6838 10.0959C42.0158 10.0959 42.8918 10.9839 42.8918 12.5199V15.9999H41.4158V12.7359C41.4158 11.9559 40.9838 11.4639 40.2878 11.4639C39.5918 11.4639 39.1478 11.9559 39.1478 12.7359V15.9999H37.6838V12.7359C37.6838 11.9559 37.2518 11.4639 36.5558 11.4639C35.8598 11.4639 35.4158 11.9559 35.4158 12.7359V15.9999ZM45.1955 9.4839C44.7155 9.4839 44.3435 9.0999 44.3435 8.6199C44.3435 8.1519 44.7155 7.7679 45.1955 7.7679C45.6635 7.7679 46.0595 8.1519 46.0595 8.6199C46.0595 9.0999 45.6635 9.4839 45.1955 9.4839ZM45.9275 15.9999H44.4635V10.2519H45.9275V15.9999ZM46.981 11.5479V10.2519H47.989V8.7639H49.465V10.2519H51.013V11.5479H49.477V13.9959C49.477 14.5359 49.693 14.7879 50.125 14.7879C50.401 14.7879 50.665 14.6679 50.809 14.4999L51.457 15.5919C51.145 15.9039 50.605 16.1559 49.897 16.1559C48.733 16.1559 47.989 15.4359 47.989 14.0319V11.5479H46.981Z" fill="white"/>
</g>
<defs>
<clipPath id="clip0_6330_34158">
<rect width="64" height="24" fill="white"/>
</clipPath>
</defs>
</svg>
