<svg width="648" height="92" viewBox="0 0 648 92" fill="none" xmlns="http://www.w3.org/2000/svg">
<path d="M248 46C248 33.8497 257.85 24 270 24H378C390.15 24 400 33.8497 400 46V46C400 58.1503 390.15 68 378 68H270C257.85 68 248 58.1503 248 46V46Z" fill="#2861BB"/>
<path d="M295.918 51V40.744H299.582C302.062 40.744 303.694 42.088 303.694 44.136C303.694 46.2 302.046 47.56 299.55 47.56H297.918V51H295.918ZM299.742 42.52H297.918V45.784H299.742C300.846 45.784 301.582 45.128 301.582 44.136C301.582 43.16 300.846 42.52 299.742 42.52ZM305.26 51V43.336H307.212V44.472C307.58 43.656 308.236 43.128 309.1 43.128C309.612 43.128 310.028 43.256 310.316 43.496L309.516 45.336C309.26 45.144 308.876 45.016 308.492 45.016C307.724 45.016 307.212 45.672 307.212 46.712V51H305.26ZM312.627 42.312C311.987 42.312 311.491 41.8 311.491 41.16C311.491 40.536 311.987 40.024 312.627 40.024C313.251 40.024 313.779 40.536 313.779 41.16C313.779 41.8 313.251 42.312 312.627 42.312ZM313.603 51H311.651V43.336H313.603V51ZM317.743 51H315.791V43.336H317.743V44.504C318.143 43.672 318.895 43.128 319.903 43.128C321.071 43.128 321.967 43.704 322.415 44.728C322.815 43.816 323.551 43.128 324.767 43.128C326.543 43.128 327.711 44.312 327.711 46.36V51H325.743V46.648C325.743 45.608 325.167 44.952 324.239 44.952C323.311 44.952 322.719 45.608 322.719 46.648V51H320.767V46.648C320.767 45.608 320.191 44.952 319.263 44.952C318.335 44.952 317.743 45.608 317.743 46.648V51ZM332.975 51.208C330.959 51.208 329.311 49.56 329.311 47.16C329.311 44.856 330.863 43.128 332.975 43.128C334.015 43.128 334.815 43.592 335.327 44.344V43.336H337.279V51H335.327V49.912C334.815 50.696 334.015 51.208 332.975 51.208ZM333.295 49.384C334.479 49.384 335.327 48.392 335.327 47.16C335.327 45.928 334.479 44.952 333.295 44.952C332.111 44.952 331.263 45.928 331.263 47.16C331.263 48.392 332.111 49.384 333.295 49.384ZM339.447 51V43.336H341.399V44.472C341.767 43.656 342.423 43.128 343.287 43.128C343.799 43.128 344.215 43.256 344.503 43.496L343.703 45.336C343.447 45.144 343.063 45.016 342.679 45.016C341.911 45.016 341.399 45.672 341.399 46.712V51H339.447ZM348.286 51.304L348.35 51.112L344.846 43.336H346.99L349.23 48.616L351.07 43.336H353.038L349.902 51.976C349.31 53.656 348.334 54.344 347.054 54.344C346.238 54.344 345.454 54.008 344.958 53.544L345.838 52.008C346.206 52.36 346.622 52.52 347.07 52.52C347.614 52.52 347.966 52.2 348.286 51.304Z" fill="white"/>
</svg>
