<svg width="287" height="44" viewBox="0 0 287 44" fill="none" xmlns="http://www.w3.org/2000/svg">
<g clip-path="url(#clip0_6330_34339)">
<path d="M0 22C0 9.84974 9.84974 0 22 0H265C277.15 0 287 9.84974 287 22C287 34.1503 277.15 44 265 44H22C9.84973 44 0 34.1503 0 22Z" fill="#1A3673"/>
<path d="M129.892 26.9999V22.6959H124.996V26.9999H122.996V16.7439H124.996V20.8239H129.892V16.7439H131.892V26.9999H129.892ZM137.639 27.2079C135.414 27.2079 133.655 25.3999 133.655 23.1599C133.655 20.9359 135.414 19.1279 137.639 19.1279C139.863 19.1279 141.623 20.9359 141.623 23.1599C141.623 25.3999 139.863 27.2079 137.639 27.2079ZM137.639 25.3839C138.823 25.3839 139.671 24.3919 139.671 23.1599C139.671 21.9279 138.823 20.9519 137.639 20.9519C136.455 20.9519 135.607 21.9279 135.607 23.1599C135.607 24.3919 136.455 25.3839 137.639 25.3839ZM147.379 26.9999H144.835L142.067 19.3359H144.211L146.163 25.2559L148.147 19.3359H150.147L147.379 26.9999ZM154.688 27.2079C152.304 27.2079 150.576 25.3999 150.576 23.1599C150.576 20.9359 152.224 19.1279 154.432 19.1279C156.624 19.1279 158.304 20.8079 158.304 23.0159C158.304 23.2719 158.288 23.5759 158.256 23.7039H152.576C152.784 24.7599 153.584 25.4959 154.752 25.4959C155.536 25.4959 156.192 25.1599 156.64 24.6959L157.648 26.0399C157.056 26.6959 155.968 27.2079 154.688 27.2079ZM154.464 20.7759C153.536 20.7759 152.864 21.4159 152.624 22.3439H156.288C156.048 21.3199 155.36 20.7759 154.464 20.7759ZM159.869 26.9999V19.3359H161.821V20.4719C162.189 19.6559 162.845 19.1279 163.709 19.1279C164.221 19.1279 164.637 19.2559 164.925 19.4959L164.125 21.3359C163.869 21.1439 163.485 21.0159 163.101 21.0159C162.333 21.0159 161.821 21.6719 161.821 22.7119V26.9999H159.869Z" fill="white"/>
</g>
<defs>
<clipPath id="clip0_6330_34339">
<rect width="287" height="44" fill="white"/>
</clipPath>
</defs>
</svg>
