<svg width="44" height="44" viewBox="0 0 44 44" fill="none" xmlns="http://www.w3.org/2000/svg">
<g clip-path="url(#clip0_6330_34185)">
<path d="M36 0H8C3.58172 0 0 3.58172 0 8V36C0 40.4183 3.58172 44 8 44H36C40.4183 44 44 40.4183 44 36V8C44 3.58172 40.4183 0 36 0Z" fill="white"/>
<path fill-rule="evenodd" clip-rule="evenodd" d="M13 15.5714V28.4286C13 29.8429 13.9 31 15 31H29C30.1 31 31 29.8429 31 28.4286V15.5714C31 14.1571 30.1 13 29 13H15C13.9 13 13 14.1571 13 15.5714Z" fill="#2861BB"/>
</g>
<defs>
<clipPath id="clip0_6330_34185">
<rect width="44" height="44" fill="white"/>
</clipPath>
</defs>
</svg>
